G04 Nyquist Labs eelab.pcb*
%TF.FileFunction,Copper,L2,Bot*%
%TF.FilePolarity,Positive*%
%FSLAX46Y46*%
%MOMM*%
%LPD*%
%ADD10C,0.6000*%
G01*
%LPD*%
G36*
X48989660Y310482D02*
X48979858Y310000D01*
X1020142Y310000D01*
X1010340Y310482D01*
X875482Y323764D01*
X865775Y325204D01*
X856255Y327588D01*
X745947Y361050D01*
X736708Y364356D01*
X727836Y368552D01*
X626176Y422890D01*
X617759Y427935D01*
X609876Y433781D01*
X520770Y506909D01*
X513499Y513499D01*
X506909Y520770D01*
X433781Y609876D01*
X427935Y617759D01*
X422890Y626176D01*
X368552Y727836D01*
X364356Y736708D01*
X361050Y745947D01*
X327588Y856255D01*
X325204Y865775D01*
X323764Y875482D01*
X310482Y1010340D01*
X310000Y1020142D01*
X310000Y18979858D01*
X310482Y18989660D01*
X323764Y19124518D01*
X325204Y19134225D01*
X327588Y19143745D01*
X361050Y19254053D01*
X364356Y19263292D01*
X368552Y19272164D01*
X422890Y19373824D01*
X427935Y19382241D01*
X433781Y19390124D01*
X506909Y19479230D01*
X513499Y19486501D01*
X520770Y19493091D01*
X609876Y19566219D01*
X617759Y19572065D01*
X626176Y19577110D01*
X727836Y19631448D01*
X736708Y19635644D01*
X745947Y19638950D01*
X856255Y19672412D01*
X865775Y19674796D01*
X875482Y19676236D01*
X1010340Y19689518D01*
X1020142Y19690000D01*
X48979858Y19690000D01*
X48989660Y19689518D01*
X49124518Y19676236D01*
X49134225Y19674796D01*
X49143745Y19672412D01*
X49254053Y19638950D01*
X49263292Y19635644D01*
X49272164Y19631448D01*
X49373824Y19577110D01*
X49382241Y19572065D01*
X49390124Y19566219D01*
X49479230Y19493091D01*
X49486501Y19486501D01*
X49493091Y19479230D01*
X49566219Y19390124D01*
X49572065Y19382241D01*
X49577110Y19373824D01*
X49631448Y19272164D01*
X49635644Y19263292D01*
X49638950Y19254053D01*
X49672412Y19143745D01*
X49674796Y19134225D01*
X49676236Y19124518D01*
X49689518Y18989660D01*
X49690000Y18979858D01*
X49690000Y1020142D01*
X49689518Y1010340D01*
X49676236Y875482D01*
X49674796Y865775D01*
X49672412Y856255D01*
X49638950Y745947D01*
X49635644Y736708D01*
X49631448Y727836D01*
X49577110Y626176D01*
X49572065Y617759D01*
X49566219Y609876D01*
X49493091Y520770D01*
X49486501Y513499D01*
X49479230Y506909D01*
X49390124Y433781D01*
X49382241Y427935D01*
X49373824Y422890D01*
X49272164Y368552D01*
X49263292Y364356D01*
X49254053Y361050D01*
X49143745Y327588D01*
X49134225Y325204D01*
X49124518Y323764D01*
X48989660Y310482D01*
G37*
%LPD*%
D10*
X6000000Y8556384D03*
D10*
X6000000Y11443616D03*
D10*
X8500000Y8556384D03*
D10*
X8500000Y11443616D03*
D10*
X11000000Y8556384D03*
D10*
X11000000Y11443616D03*
D10*
X13500000Y8556384D03*
D10*
X13500000Y11443616D03*
D10*
X16000000Y8556384D03*
D10*
X16000000Y11443616D03*
D10*
X18500000Y8556384D03*
D10*
X18500000Y11443616D03*
D10*
X21000000Y8556384D03*
D10*
X21000000Y11443616D03*
D10*
X23500000Y8556384D03*
D10*
X23500000Y11443616D03*
D10*
X26000000Y8556384D03*
D10*
X26000000Y11443616D03*
D10*
X28500000Y8556384D03*
D10*
X28500000Y11443616D03*
D10*
X31000000Y8556384D03*
D10*
X31000000Y11443616D03*
D10*
X33500000Y8556384D03*
D10*
X33500000Y11443616D03*
D10*
X36000000Y8556384D03*
D10*
X36000000Y11443616D03*
D10*
X38500000Y8556384D03*
D10*
X38500000Y11443616D03*
D10*
X41000000Y8556384D03*
D10*
X41000000Y11443616D03*
D10*
X43500000Y8556384D03*
D10*
X43500000Y11443616D03*
M02*
