M48
; Nyquist Labs eelab.pcb
FMAT,2
METRIC,TZ
; PTH
T1C0.300
%
T1
X6.000Y8.556
X6.000Y11.444
X8.500Y8.556
X8.500Y11.444
X11.000Y8.556
X11.000Y11.444
X13.500Y8.556
X13.500Y11.444
X16.000Y8.556
X16.000Y11.444
X18.500Y8.556
X18.500Y11.444
X21.000Y8.556
X21.000Y11.444
X23.500Y8.556
X23.500Y11.444
X26.000Y8.556
X26.000Y11.444
X28.500Y8.556
X28.500Y11.444
X31.000Y8.556
X31.000Y11.444
X33.500Y8.556
X33.500Y11.444
X36.000Y8.556
X36.000Y11.444
X38.500Y8.556
X38.500Y11.444
X41.000Y8.556
X41.000Y11.444
X43.500Y8.556
X43.500Y11.444
M30
