G04 Nyquist Labs eelab.pcb*
%TF.FileFunction,Copper,L1,Top*%
%TF.FilePolarity,Positive*%
%FSLAX46Y46*%
%MOMM*%
%LPD*%
%ADD10C,1.2872*%
%ADD11C,0.6000*%
%ADD12R,4.0000X1.5000*%
%ADD13R,4.0000X1.3500*%
G01*
%LPD*%
G36*
X310000Y18979858D02*
X310482Y18989660D01*
X323764Y19124518D01*
X325204Y19134225D01*
X327588Y19143745D01*
X361050Y19254053D01*
X364356Y19263292D01*
X368552Y19272164D01*
X422890Y19373824D01*
X427935Y19382241D01*
X433781Y19390124D01*
X506909Y19479230D01*
X513499Y19486501D01*
X520770Y19493091D01*
X609876Y19566219D01*
X617759Y19572065D01*
X626176Y19577110D01*
X727836Y19631448D01*
X736708Y19635644D01*
X745947Y19638950D01*
X856255Y19672412D01*
X865775Y19674796D01*
X875482Y19676236D01*
X1010340Y19689518D01*
X1020142Y19690000D01*
X48979858Y19690000D01*
X48989660Y19689518D01*
X49124518Y19676236D01*
X49134225Y19674796D01*
X49143745Y19672412D01*
X49254053Y19638950D01*
X49263292Y19635644D01*
X49272164Y19631448D01*
X49373824Y19577110D01*
X49382241Y19572065D01*
X49390124Y19566219D01*
X49479230Y19493091D01*
X49486501Y19486501D01*
X49493091Y19479230D01*
X49566219Y19390124D01*
X49572065Y19382241D01*
X49577110Y19373824D01*
X49631448Y19272164D01*
X49635644Y19263292D01*
X49638950Y19254053D01*
X49672412Y19143745D01*
X49674796Y19134225D01*
X49676236Y19124518D01*
X49689518Y18989660D01*
X49690000Y18979858D01*
X49690000Y11060000D01*
X49689518Y11050198D01*
X49688079Y11040491D01*
X49685694Y11030972D01*
X49682388Y11021732D01*
X49678192Y11012860D01*
X49673147Y11004443D01*
X49667301Y10996561D01*
X49660711Y10989289D01*
X49653439Y10982699D01*
X49645557Y10976853D01*
X49637140Y10971808D01*
X49628268Y10967612D01*
X49619028Y10964306D01*
X49609509Y10961921D01*
X49599802Y10960482D01*
X49590000Y10960000D01*
X46001227Y10960000D01*
X45998774Y10959940D01*
X45981868Y10959109D01*
X45976988Y10958629D01*
X45961459Y10956325D01*
X45956650Y10955368D01*
X45941422Y10951554D01*
X45936729Y10950130D01*
X45921948Y10944842D01*
X45917417Y10942965D01*
X45903226Y10936253D01*
X45898901Y10933941D01*
X45885436Y10925871D01*
X45881358Y10923146D01*
X45868749Y10913795D01*
X45864958Y10910684D01*
X45853327Y10900141D01*
X45849859Y10896673D01*
X45840602Y10886460D01*
X45834066Y10879889D01*
X45826950Y10873950D01*
X45819314Y10868696D01*
X45811225Y10864172D01*
X45802751Y10860416D01*
X45793966Y10857460D01*
X45784945Y10855331D01*
X45775766Y10854046D01*
X45766507Y10853616D01*
X4233493Y10853616D01*
X4224234Y10854046D01*
X4215055Y10855331D01*
X4206034Y10857460D01*
X4197249Y10860416D01*
X4188775Y10864172D01*
X4180686Y10868696D01*
X4173050Y10873950D01*
X4165934Y10879889D01*
X4159398Y10886460D01*
X4150141Y10896673D01*
X4146673Y10900141D01*
X4135042Y10910684D01*
X4131251Y10913795D01*
X4118642Y10923146D01*
X4114564Y10925871D01*
X4101099Y10933941D01*
X4096774Y10936253D01*
X4082583Y10942965D01*
X4078052Y10944842D01*
X4063271Y10950130D01*
X4058578Y10951554D01*
X4043350Y10955368D01*
X4038541Y10956325D01*
X4023012Y10958629D01*
X4018132Y10959109D01*
X4001226Y10959940D01*
X3998773Y10960000D01*
X410000Y10960000D01*
X400198Y10960482D01*
X390491Y10961921D01*
X380972Y10964306D01*
X371732Y10967612D01*
X362860Y10971808D01*
X354443Y10976853D01*
X346561Y10982699D01*
X339289Y10989289D01*
X332699Y10996561D01*
X326853Y11004443D01*
X321808Y11012860D01*
X317612Y11021732D01*
X314306Y11030972D01*
X311921Y11040491D01*
X310482Y11050198D01*
X310000Y11060000D01*
X310000Y18979858D01*
G37*
%LPD*%
%LPD*%
G36*
X1020142Y310000D02*
X1010340Y310482D01*
X875482Y323764D01*
X865775Y325204D01*
X856255Y327588D01*
X745947Y361050D01*
X736708Y364356D01*
X727836Y368552D01*
X626176Y422890D01*
X617759Y427935D01*
X609876Y433781D01*
X520770Y506909D01*
X513499Y513499D01*
X506909Y520770D01*
X433781Y609876D01*
X427935Y617759D01*
X422890Y626176D01*
X368552Y727836D01*
X364356Y736708D01*
X361050Y745947D01*
X327588Y856255D01*
X325204Y865775D01*
X323764Y875482D01*
X310482Y1010340D01*
X310000Y1020142D01*
X310000Y8940000D01*
X310482Y8949802D01*
X311921Y8959509D01*
X314306Y8969028D01*
X317612Y8978268D01*
X321808Y8987140D01*
X326853Y8995557D01*
X332699Y9003439D01*
X339289Y9010711D01*
X346561Y9017301D01*
X354443Y9023147D01*
X362860Y9028192D01*
X371732Y9032388D01*
X380972Y9035694D01*
X390491Y9038079D01*
X400198Y9039518D01*
X410000Y9040000D01*
X3998773Y9040000D01*
X4001226Y9040060D01*
X4018132Y9040891D01*
X4023012Y9041371D01*
X4038541Y9043675D01*
X4043350Y9044632D01*
X4058578Y9048446D01*
X4063271Y9049870D01*
X4078052Y9055158D01*
X4082583Y9057035D01*
X4096774Y9063747D01*
X4101099Y9066059D01*
X4114564Y9074129D01*
X4118642Y9076854D01*
X4131251Y9086205D01*
X4135042Y9089316D01*
X4146673Y9099859D01*
X4150141Y9103327D01*
X4159398Y9113540D01*
X4165934Y9120111D01*
X4173050Y9126050D01*
X4180686Y9131304D01*
X4188775Y9135828D01*
X4197249Y9139584D01*
X4206034Y9142540D01*
X4215055Y9144669D01*
X4224234Y9145954D01*
X4233493Y9146384D01*
X45766507Y9146384D01*
X45775766Y9145954D01*
X45784945Y9144669D01*
X45793966Y9142540D01*
X45802751Y9139584D01*
X45811225Y9135828D01*
X45819314Y9131304D01*
X45826950Y9126050D01*
X45834066Y9120111D01*
X45840602Y9113540D01*
X45849859Y9103327D01*
X45853327Y9099859D01*
X45864958Y9089316D01*
X45868749Y9086205D01*
X45881358Y9076854D01*
X45885436Y9074129D01*
X45898901Y9066059D01*
X45903226Y9063747D01*
X45917417Y9057035D01*
X45921948Y9055158D01*
X45936729Y9049870D01*
X45941422Y9048446D01*
X45956650Y9044632D01*
X45961459Y9043675D01*
X45976988Y9041371D01*
X45981868Y9040891D01*
X45998774Y9040060D01*
X46001227Y9040000D01*
X49590000Y9040000D01*
X49599802Y9039518D01*
X49609509Y9038079D01*
X49619028Y9035694D01*
X49628268Y9032388D01*
X49637140Y9028192D01*
X49645557Y9023147D01*
X49653439Y9017301D01*
X49660711Y9010711D01*
X49667301Y9003439D01*
X49673147Y8995557D01*
X49678192Y8987140D01*
X49682388Y8978268D01*
X49685694Y8969028D01*
X49688079Y8959509D01*
X49689518Y8949802D01*
X49690000Y8940000D01*
X49690000Y1020142D01*
X49689518Y1010340D01*
X49676236Y875482D01*
X49674796Y865775D01*
X49672412Y856255D01*
X49638950Y745947D01*
X49635644Y736708D01*
X49631448Y727836D01*
X49577110Y626176D01*
X49572065Y617759D01*
X49566219Y609876D01*
X49493091Y520770D01*
X49486501Y513499D01*
X49479230Y506909D01*
X49390124Y433781D01*
X49382241Y427935D01*
X49373824Y422890D01*
X49272164Y368552D01*
X49263292Y364356D01*
X49254053Y361050D01*
X49143745Y327588D01*
X49134225Y325204D01*
X49124518Y323764D01*
X48989660Y310482D01*
X48979858Y310000D01*
X1020142Y310000D01*
G37*
%LPD*%
D10*
X2000000Y10000000D02*
X48000000Y10000000D01*
D11*
X6000000Y8556384D03*
D11*
X6000000Y11443616D03*
D11*
X8500000Y8556384D03*
D11*
X8500000Y11443616D03*
D11*
X11000000Y8556384D03*
D11*
X11000000Y11443616D03*
D11*
X13500000Y8556384D03*
D11*
X13500000Y11443616D03*
D11*
X16000000Y8556384D03*
D11*
X16000000Y11443616D03*
D11*
X18500000Y8556384D03*
D11*
X18500000Y11443616D03*
D11*
X21000000Y8556384D03*
D11*
X21000000Y11443616D03*
D11*
X23500000Y8556384D03*
D11*
X23500000Y11443616D03*
D11*
X26000000Y8556384D03*
D11*
X26000000Y11443616D03*
D11*
X28500000Y8556384D03*
D11*
X28500000Y11443616D03*
D11*
X31000000Y8556384D03*
D11*
X31000000Y11443616D03*
D11*
X33500000Y8556384D03*
D11*
X33500000Y11443616D03*
D11*
X36000000Y8556384D03*
D11*
X36000000Y11443616D03*
D11*
X38500000Y8556384D03*
D11*
X38500000Y11443616D03*
D11*
X41000000Y8556384D03*
D11*
X41000000Y11443616D03*
D11*
X43500000Y8556384D03*
D11*
X43500000Y11443616D03*
D12*
X2000000Y10000000D03*
D13*
X2000000Y7175000D03*
D13*
X2000000Y12825000D03*
D12*
X48000000Y10000000D03*
D13*
X48000000Y12825000D03*
D13*
X48000000Y7175000D03*
M02*
