M48
; Nyquist Labs eelab.pcb
FMAT,2
METRIC,TZ
; PTH
T1C0.300
; PTH
T2C1.000
; NPTH
T3C3.200
%
T1
X16.639Y16.583
X15.970Y19.107
X29.639Y15.283
X35.737Y17.100
X30.438Y22.400
X21.270Y14.307
X20.475Y5.000
X34.475Y5.000
T2
X5.000Y14.730
X5.000Y17.270
X5.000Y22.730
X5.000Y25.270
X45.000Y13.730
X45.000Y16.270
X45.000Y21.730
X45.000Y24.270
X22.460Y5.000
X25.000Y5.000
X27.540Y5.000
T3
X3.500Y3.500
X46.500Y3.500
X3.500Y32.500
X46.500Y32.500
M30
