G04 Nyquist Labs eelab.pcb*
%TF.FileFunction,Paste,Top*%
%TF.FilePolarity,Positive*%
%FSLAX46Y46*%
%MOMM*%
%LPD*%
G01*
%LPD*%
G36*
X23350000Y19605000D02*
X21700000Y19605000D01*
X21661177Y19610111D01*
X21625000Y19625096D01*
X21593934Y19648934D01*
X21570096Y19680000D01*
X21555111Y19716177D01*
X21550000Y19755000D01*
X21550000Y20055000D01*
X21555111Y20093823D01*
X21570096Y20130000D01*
X21593934Y20161066D01*
X21625000Y20184904D01*
X21661177Y20199889D01*
X21700000Y20205000D01*
X23350000Y20205000D01*
X23388823Y20199889D01*
X23425000Y20184904D01*
X23456066Y20161066D01*
X23479904Y20130000D01*
X23494889Y20093823D01*
X23500000Y20055000D01*
X23500000Y19755000D01*
X23494889Y19716177D01*
X23479904Y19680000D01*
X23456066Y19648934D01*
X23425000Y19625096D01*
X23388823Y19610111D01*
X23350000Y19605000D01*
G37*
%LPD*%
%LPD*%
G36*
X23350000Y18335000D02*
X21700000Y18335000D01*
X21661177Y18340111D01*
X21625000Y18355096D01*
X21593934Y18378934D01*
X21570096Y18410000D01*
X21555111Y18446177D01*
X21550000Y18485000D01*
X21550000Y18785000D01*
X21555111Y18823823D01*
X21570096Y18860000D01*
X21593934Y18891066D01*
X21625000Y18914904D01*
X21661177Y18929889D01*
X21700000Y18935000D01*
X23350000Y18935000D01*
X23388823Y18929889D01*
X23425000Y18914904D01*
X23456066Y18891066D01*
X23479904Y18860000D01*
X23494889Y18823823D01*
X23500000Y18785000D01*
X23500000Y18485000D01*
X23494889Y18446177D01*
X23479904Y18410000D01*
X23456066Y18378934D01*
X23425000Y18355096D01*
X23388823Y18340111D01*
X23350000Y18335000D01*
G37*
%LPD*%
%LPD*%
G36*
X23350000Y17065000D02*
X21700000Y17065000D01*
X21661177Y17070111D01*
X21625000Y17085096D01*
X21593934Y17108934D01*
X21570096Y17140000D01*
X21555111Y17176177D01*
X21550000Y17215000D01*
X21550000Y17515000D01*
X21555111Y17553823D01*
X21570096Y17590000D01*
X21593934Y17621066D01*
X21625000Y17644904D01*
X21661177Y17659889D01*
X21700000Y17665000D01*
X23350000Y17665000D01*
X23388823Y17659889D01*
X23425000Y17644904D01*
X23456066Y17621066D01*
X23479904Y17590000D01*
X23494889Y17553823D01*
X23500000Y17515000D01*
X23500000Y17215000D01*
X23494889Y17176177D01*
X23479904Y17140000D01*
X23456066Y17108934D01*
X23425000Y17085096D01*
X23388823Y17070111D01*
X23350000Y17065000D01*
G37*
%LPD*%
%LPD*%
G36*
X23350000Y15795000D02*
X21700000Y15795000D01*
X21661177Y15800111D01*
X21625000Y15815096D01*
X21593934Y15838934D01*
X21570096Y15870000D01*
X21555111Y15906177D01*
X21550000Y15945000D01*
X21550000Y16245000D01*
X21555111Y16283823D01*
X21570096Y16320000D01*
X21593934Y16351066D01*
X21625000Y16374904D01*
X21661177Y16389889D01*
X21700000Y16395000D01*
X23350000Y16395000D01*
X23388823Y16389889D01*
X23425000Y16374904D01*
X23456066Y16351066D01*
X23479904Y16320000D01*
X23494889Y16283823D01*
X23500000Y16245000D01*
X23500000Y15945000D01*
X23494889Y15906177D01*
X23479904Y15870000D01*
X23456066Y15838934D01*
X23425000Y15815096D01*
X23388823Y15800111D01*
X23350000Y15795000D01*
G37*
%LPD*%
%LPD*%
G36*
X28300000Y15795000D02*
X26650000Y15795000D01*
X26611177Y15800111D01*
X26575000Y15815096D01*
X26543934Y15838934D01*
X26520096Y15870000D01*
X26505111Y15906177D01*
X26500000Y15945000D01*
X26500000Y16245000D01*
X26505111Y16283823D01*
X26520096Y16320000D01*
X26543934Y16351066D01*
X26575000Y16374904D01*
X26611177Y16389889D01*
X26650000Y16395000D01*
X28300000Y16395000D01*
X28338823Y16389889D01*
X28375000Y16374904D01*
X28406066Y16351066D01*
X28429904Y16320000D01*
X28444889Y16283823D01*
X28450000Y16245000D01*
X28450000Y15945000D01*
X28444889Y15906177D01*
X28429904Y15870000D01*
X28406066Y15838934D01*
X28375000Y15815096D01*
X28338823Y15800111D01*
X28300000Y15795000D01*
G37*
%LPD*%
%LPD*%
G36*
X28300000Y17065000D02*
X26650000Y17065000D01*
X26611177Y17070111D01*
X26575000Y17085096D01*
X26543934Y17108934D01*
X26520096Y17140000D01*
X26505111Y17176177D01*
X26500000Y17215000D01*
X26500000Y17515000D01*
X26505111Y17553823D01*
X26520096Y17590000D01*
X26543934Y17621066D01*
X26575000Y17644904D01*
X26611177Y17659889D01*
X26650000Y17665000D01*
X28300000Y17665000D01*
X28338823Y17659889D01*
X28375000Y17644904D01*
X28406066Y17621066D01*
X28429904Y17590000D01*
X28444889Y17553823D01*
X28450000Y17515000D01*
X28450000Y17215000D01*
X28444889Y17176177D01*
X28429904Y17140000D01*
X28406066Y17108934D01*
X28375000Y17085096D01*
X28338823Y17070111D01*
X28300000Y17065000D01*
G37*
%LPD*%
%LPD*%
G36*
X28300000Y18335000D02*
X26650000Y18335000D01*
X26611177Y18340111D01*
X26575000Y18355096D01*
X26543934Y18378934D01*
X26520096Y18410000D01*
X26505111Y18446177D01*
X26500000Y18485000D01*
X26500000Y18785000D01*
X26505111Y18823823D01*
X26520096Y18860000D01*
X26543934Y18891066D01*
X26575000Y18914904D01*
X26611177Y18929889D01*
X26650000Y18935000D01*
X28300000Y18935000D01*
X28338823Y18929889D01*
X28375000Y18914904D01*
X28406066Y18891066D01*
X28429904Y18860000D01*
X28444889Y18823823D01*
X28450000Y18785000D01*
X28450000Y18485000D01*
X28444889Y18446177D01*
X28429904Y18410000D01*
X28406066Y18378934D01*
X28375000Y18355096D01*
X28338823Y18340111D01*
X28300000Y18335000D01*
G37*
%LPD*%
%LPD*%
G36*
X28300000Y19605000D02*
X26650000Y19605000D01*
X26611177Y19610111D01*
X26575000Y19625096D01*
X26543934Y19648934D01*
X26520096Y19680000D01*
X26505111Y19716177D01*
X26500000Y19755000D01*
X26500000Y20055000D01*
X26505111Y20093823D01*
X26520096Y20130000D01*
X26543934Y20161066D01*
X26575000Y20184904D01*
X26611177Y20199889D01*
X26650000Y20205000D01*
X28300000Y20205000D01*
X28338823Y20199889D01*
X28375000Y20184904D01*
X28406066Y20161066D01*
X28429904Y20130000D01*
X28444889Y20093823D01*
X28450000Y20055000D01*
X28450000Y19755000D01*
X28444889Y19716177D01*
X28429904Y19680000D01*
X28406066Y19648934D01*
X28375000Y19625096D01*
X28338823Y19610111D01*
X28300000Y19605000D01*
G37*
%LPD*%
%LPD*%
G36*
X19668750Y17850000D02*
X18731250Y17850000D01*
X18664928Y17858732D01*
X18603125Y17884331D01*
X18550054Y17925054D01*
X18509331Y17978125D01*
X18483732Y18039928D01*
X18475000Y18106250D01*
X18475000Y18618750D01*
X18483732Y18685072D01*
X18509331Y18746875D01*
X18550054Y18799946D01*
X18603125Y18840669D01*
X18664928Y18866268D01*
X18731250Y18875000D01*
X19668750Y18875000D01*
X19735072Y18866268D01*
X19796875Y18840669D01*
X19849946Y18799946D01*
X19890669Y18746875D01*
X19916268Y18685072D01*
X19925000Y18618750D01*
X19925000Y18106250D01*
X19916268Y18039928D01*
X19890669Y17978125D01*
X19849946Y17925054D01*
X19796875Y17884331D01*
X19735072Y17858732D01*
X19668750Y17850000D01*
G37*
%LPD*%
%LPD*%
G36*
X19668750Y19725000D02*
X18731250Y19725000D01*
X18664928Y19733732D01*
X18603125Y19759331D01*
X18550054Y19800054D01*
X18509331Y19853125D01*
X18483732Y19914928D01*
X18475000Y19981250D01*
X18475000Y20493750D01*
X18483732Y20560072D01*
X18509331Y20621875D01*
X18550054Y20674946D01*
X18603125Y20715669D01*
X18664928Y20741268D01*
X18731250Y20750000D01*
X19668750Y20750000D01*
X19735072Y20741268D01*
X19796875Y20715669D01*
X19849946Y20674946D01*
X19890669Y20621875D01*
X19916268Y20560072D01*
X19925000Y20493750D01*
X19925000Y19981250D01*
X19916268Y19914928D01*
X19890669Y19853125D01*
X19849946Y19800054D01*
X19796875Y19759331D01*
X19735072Y19733732D01*
X19668750Y19725000D01*
G37*
%LPD*%
%LPD*%
G36*
X15518750Y17675000D02*
X15006250Y17675000D01*
X14939928Y17683732D01*
X14878125Y17709331D01*
X14825054Y17750054D01*
X14784331Y17803125D01*
X14758732Y17864928D01*
X14750000Y17931250D01*
X14750000Y18868750D01*
X14758732Y18935072D01*
X14784331Y18996875D01*
X14825054Y19049946D01*
X14878125Y19090669D01*
X14939928Y19116268D01*
X15006250Y19125000D01*
X15518750Y19125000D01*
X15585072Y19116268D01*
X15646875Y19090669D01*
X15699946Y19049946D01*
X15740669Y18996875D01*
X15766268Y18935072D01*
X15775000Y18868750D01*
X15775000Y17931250D01*
X15766268Y17864928D01*
X15740669Y17803125D01*
X15699946Y17750054D01*
X15646875Y17709331D01*
X15585072Y17683732D01*
X15518750Y17675000D01*
G37*
%LPD*%
%LPD*%
G36*
X17393750Y17675000D02*
X16881250Y17675000D01*
X16814928Y17683732D01*
X16753125Y17709331D01*
X16700054Y17750054D01*
X16659331Y17803125D01*
X16633732Y17864928D01*
X16625000Y17931250D01*
X16625000Y18868750D01*
X16633732Y18935072D01*
X16659331Y18996875D01*
X16700054Y19049946D01*
X16753125Y19090669D01*
X16814928Y19116268D01*
X16881250Y19125000D01*
X17393750Y19125000D01*
X17460072Y19116268D01*
X17521875Y19090669D01*
X17574946Y19049946D01*
X17615669Y18996875D01*
X17641268Y18935072D01*
X17650000Y18868750D01*
X17650000Y17931250D01*
X17641268Y17864928D01*
X17615669Y17803125D01*
X17574946Y17750054D01*
X17521875Y17709331D01*
X17460072Y17683732D01*
X17393750Y17675000D01*
G37*
%LPD*%
%LPD*%
G36*
X17818750Y15475000D02*
X17306250Y15475000D01*
X17239928Y15483732D01*
X17178125Y15509331D01*
X17125054Y15550054D01*
X17084331Y15603125D01*
X17058732Y15664928D01*
X17050000Y15731250D01*
X17050000Y16668750D01*
X17058732Y16735072D01*
X17084331Y16796875D01*
X17125054Y16849946D01*
X17178125Y16890669D01*
X17239928Y16916268D01*
X17306250Y16925000D01*
X17818750Y16925000D01*
X17885072Y16916268D01*
X17946875Y16890669D01*
X17999946Y16849946D01*
X18040669Y16796875D01*
X18066268Y16735072D01*
X18075000Y16668750D01*
X18075000Y15731250D01*
X18066268Y15664928D01*
X18040669Y15603125D01*
X17999946Y15550054D01*
X17946875Y15509331D01*
X17885072Y15483732D01*
X17818750Y15475000D01*
G37*
%LPD*%
%LPD*%
G36*
X19693750Y15475000D02*
X19181250Y15475000D01*
X19114928Y15483732D01*
X19053125Y15509331D01*
X19000054Y15550054D01*
X18959331Y15603125D01*
X18933732Y15664928D01*
X18925000Y15731250D01*
X18925000Y16668750D01*
X18933732Y16735072D01*
X18959331Y16796875D01*
X19000054Y16849946D01*
X19053125Y16890669D01*
X19114928Y16916268D01*
X19181250Y16925000D01*
X19693750Y16925000D01*
X19760072Y16916268D01*
X19821875Y16890669D01*
X19874946Y16849946D01*
X19915669Y16796875D01*
X19941268Y16735072D01*
X19950000Y16668750D01*
X19950000Y15731250D01*
X19941268Y15664928D01*
X19915669Y15603125D01*
X19874946Y15550054D01*
X19821875Y15509331D01*
X19760072Y15483732D01*
X19693750Y15475000D01*
G37*
%LPD*%
%LPD*%
G36*
X12818750Y15475000D02*
X12306250Y15475000D01*
X12239928Y15483732D01*
X12178125Y15509331D01*
X12125054Y15550054D01*
X12084331Y15603125D01*
X12058732Y15664928D01*
X12050000Y15731250D01*
X12050000Y16668750D01*
X12058732Y16735072D01*
X12084331Y16796875D01*
X12125054Y16849946D01*
X12178125Y16890669D01*
X12239928Y16916268D01*
X12306250Y16925000D01*
X12818750Y16925000D01*
X12885072Y16916268D01*
X12946875Y16890669D01*
X12999946Y16849946D01*
X13040669Y16796875D01*
X13066268Y16735072D01*
X13075000Y16668750D01*
X13075000Y15731250D01*
X13066268Y15664928D01*
X13040669Y15603125D01*
X12999946Y15550054D01*
X12946875Y15509331D01*
X12885072Y15483732D01*
X12818750Y15475000D01*
G37*
%LPD*%
%LPD*%
G36*
X14693750Y15475000D02*
X14181250Y15475000D01*
X14114928Y15483732D01*
X14053125Y15509331D01*
X14000054Y15550054D01*
X13959331Y15603125D01*
X13933732Y15664928D01*
X13925000Y15731250D01*
X13925000Y16668750D01*
X13933732Y16735072D01*
X13959331Y16796875D01*
X14000054Y16849946D01*
X14053125Y16890669D01*
X14114928Y16916268D01*
X14181250Y16925000D01*
X14693750Y16925000D01*
X14760072Y16916268D01*
X14821875Y16890669D01*
X14874946Y16849946D01*
X14915669Y16796875D01*
X14941268Y16735072D01*
X14950000Y16668750D01*
X14950000Y15731250D01*
X14941268Y15664928D01*
X14915669Y15603125D01*
X14874946Y15550054D01*
X14821875Y15509331D01*
X14760072Y15483732D01*
X14693750Y15475000D01*
G37*
%LPD*%
%LPD*%
G36*
X14818750Y21775000D02*
X14306250Y21775000D01*
X14239928Y21783732D01*
X14178125Y21809331D01*
X14125054Y21850054D01*
X14084331Y21903125D01*
X14058732Y21964928D01*
X14050000Y22031250D01*
X14050000Y22968750D01*
X14058732Y23035072D01*
X14084331Y23096875D01*
X14125054Y23149946D01*
X14178125Y23190669D01*
X14239928Y23216268D01*
X14306250Y23225000D01*
X14818750Y23225000D01*
X14885072Y23216268D01*
X14946875Y23190669D01*
X14999946Y23149946D01*
X15040669Y23096875D01*
X15066268Y23035072D01*
X15075000Y22968750D01*
X15075000Y22031250D01*
X15066268Y21964928D01*
X15040669Y21903125D01*
X14999946Y21850054D01*
X14946875Y21809331D01*
X14885072Y21783732D01*
X14818750Y21775000D01*
G37*
%LPD*%
%LPD*%
G36*
X16693750Y21775000D02*
X16181250Y21775000D01*
X16114928Y21783732D01*
X16053125Y21809331D01*
X16000054Y21850054D01*
X15959331Y21903125D01*
X15933732Y21964928D01*
X15925000Y22031250D01*
X15925000Y22968750D01*
X15933732Y23035072D01*
X15959331Y23096875D01*
X16000054Y23149946D01*
X16053125Y23190669D01*
X16114928Y23216268D01*
X16181250Y23225000D01*
X16693750Y23225000D01*
X16760072Y23216268D01*
X16821875Y23190669D01*
X16874946Y23149946D01*
X16915669Y23096875D01*
X16941268Y23035072D01*
X16950000Y22968750D01*
X16950000Y22031250D01*
X16941268Y21964928D01*
X16915669Y21903125D01*
X16874946Y21850054D01*
X16821875Y21809331D01*
X16760072Y21783732D01*
X16693750Y21775000D01*
G37*
%LPD*%
%LPD*%
G36*
X20818750Y12875000D02*
X20306250Y12875000D01*
X20239928Y12883732D01*
X20178125Y12909331D01*
X20125054Y12950054D01*
X20084331Y13003125D01*
X20058732Y13064928D01*
X20050000Y13131250D01*
X20050000Y14068750D01*
X20058732Y14135072D01*
X20084331Y14196875D01*
X20125054Y14249946D01*
X20178125Y14290669D01*
X20239928Y14316268D01*
X20306250Y14325000D01*
X20818750Y14325000D01*
X20885072Y14316268D01*
X20946875Y14290669D01*
X20999946Y14249946D01*
X21040669Y14196875D01*
X21066268Y14135072D01*
X21075000Y14068750D01*
X21075000Y13131250D01*
X21066268Y13064928D01*
X21040669Y13003125D01*
X20999946Y12950054D01*
X20946875Y12909331D01*
X20885072Y12883732D01*
X20818750Y12875000D01*
G37*
%LPD*%
%LPD*%
G36*
X22693750Y12875000D02*
X22181250Y12875000D01*
X22114928Y12883732D01*
X22053125Y12909331D01*
X22000054Y12950054D01*
X21959331Y13003125D01*
X21933732Y13064928D01*
X21925000Y13131250D01*
X21925000Y14068750D01*
X21933732Y14135072D01*
X21959331Y14196875D01*
X22000054Y14249946D01*
X22053125Y14290669D01*
X22114928Y14316268D01*
X22181250Y14325000D01*
X22693750Y14325000D01*
X22760072Y14316268D01*
X22821875Y14290669D01*
X22874946Y14249946D01*
X22915669Y14196875D01*
X22941268Y14135072D01*
X22950000Y14068750D01*
X22950000Y13131250D01*
X22941268Y13064928D01*
X22915669Y13003125D01*
X22874946Y12950054D01*
X22821875Y12909331D01*
X22760072Y12883732D01*
X22693750Y12875000D01*
G37*
%LPD*%
%LPD*%
G36*
X31268750Y16550000D02*
X30331250Y16550000D01*
X30264928Y16558732D01*
X30203125Y16584331D01*
X30150054Y16625054D01*
X30109331Y16678125D01*
X30083732Y16739928D01*
X30075000Y16806250D01*
X30075000Y17318750D01*
X30083732Y17385072D01*
X30109331Y17446875D01*
X30150054Y17499946D01*
X30203125Y17540669D01*
X30264928Y17566268D01*
X30331250Y17575000D01*
X31268750Y17575000D01*
X31335072Y17566268D01*
X31396875Y17540669D01*
X31449946Y17499946D01*
X31490669Y17446875D01*
X31516268Y17385072D01*
X31525000Y17318750D01*
X31525000Y16806250D01*
X31516268Y16739928D01*
X31490669Y16678125D01*
X31449946Y16625054D01*
X31396875Y16584331D01*
X31335072Y16558732D01*
X31268750Y16550000D01*
G37*
%LPD*%
%LPD*%
G36*
X31268750Y18425000D02*
X30331250Y18425000D01*
X30264928Y18433732D01*
X30203125Y18459331D01*
X30150054Y18500054D01*
X30109331Y18553125D01*
X30083732Y18614928D01*
X30075000Y18681250D01*
X30075000Y19193750D01*
X30083732Y19260072D01*
X30109331Y19321875D01*
X30150054Y19374946D01*
X30203125Y19415669D01*
X30264928Y19441268D01*
X30331250Y19450000D01*
X31268750Y19450000D01*
X31335072Y19441268D01*
X31396875Y19415669D01*
X31449946Y19374946D01*
X31490669Y19321875D01*
X31516268Y19260072D01*
X31525000Y19193750D01*
X31525000Y18681250D01*
X31516268Y18614928D01*
X31490669Y18553125D01*
X31449946Y18500054D01*
X31396875Y18459331D01*
X31335072Y18433732D01*
X31268750Y18425000D01*
G37*
%LPD*%
%LPD*%
G36*
X33118750Y16375000D02*
X32606250Y16375000D01*
X32539928Y16383732D01*
X32478125Y16409331D01*
X32425054Y16450054D01*
X32384331Y16503125D01*
X32358732Y16564928D01*
X32350000Y16631250D01*
X32350000Y17568750D01*
X32358732Y17635072D01*
X32384331Y17696875D01*
X32425054Y17749946D01*
X32478125Y17790669D01*
X32539928Y17816268D01*
X32606250Y17825000D01*
X33118750Y17825000D01*
X33185072Y17816268D01*
X33246875Y17790669D01*
X33299946Y17749946D01*
X33340669Y17696875D01*
X33366268Y17635072D01*
X33375000Y17568750D01*
X33375000Y16631250D01*
X33366268Y16564928D01*
X33340669Y16503125D01*
X33299946Y16450054D01*
X33246875Y16409331D01*
X33185072Y16383732D01*
X33118750Y16375000D01*
G37*
%LPD*%
%LPD*%
G36*
X34993750Y16375000D02*
X34481250Y16375000D01*
X34414928Y16383732D01*
X34353125Y16409331D01*
X34300054Y16450054D01*
X34259331Y16503125D01*
X34233732Y16564928D01*
X34225000Y16631250D01*
X34225000Y17568750D01*
X34233732Y17635072D01*
X34259331Y17696875D01*
X34300054Y17749946D01*
X34353125Y17790669D01*
X34414928Y17816268D01*
X34481250Y17825000D01*
X34993750Y17825000D01*
X35060072Y17816268D01*
X35121875Y17790669D01*
X35174946Y17749946D01*
X35215669Y17696875D01*
X35241268Y17635072D01*
X35250000Y17568750D01*
X35250000Y16631250D01*
X35241268Y16564928D01*
X35215669Y16503125D01*
X35174946Y16450054D01*
X35121875Y16409331D01*
X35060072Y16383732D01*
X34993750Y16375000D01*
G37*
%LPD*%
%LPD*%
G36*
X30818750Y14175000D02*
X30306250Y14175000D01*
X30239928Y14183732D01*
X30178125Y14209331D01*
X30125054Y14250054D01*
X30084331Y14303125D01*
X30058732Y14364928D01*
X30050000Y14431250D01*
X30050000Y15368750D01*
X30058732Y15435072D01*
X30084331Y15496875D01*
X30125054Y15549946D01*
X30178125Y15590669D01*
X30239928Y15616268D01*
X30306250Y15625000D01*
X30818750Y15625000D01*
X30885072Y15616268D01*
X30946875Y15590669D01*
X30999946Y15549946D01*
X31040669Y15496875D01*
X31066268Y15435072D01*
X31075000Y15368750D01*
X31075000Y14431250D01*
X31066268Y14364928D01*
X31040669Y14303125D01*
X30999946Y14250054D01*
X30946875Y14209331D01*
X30885072Y14183732D01*
X30818750Y14175000D01*
G37*
%LPD*%
%LPD*%
G36*
X32693750Y14175000D02*
X32181250Y14175000D01*
X32114928Y14183732D01*
X32053125Y14209331D01*
X32000054Y14250054D01*
X31959331Y14303125D01*
X31933732Y14364928D01*
X31925000Y14431250D01*
X31925000Y15368750D01*
X31933732Y15435072D01*
X31959331Y15496875D01*
X32000054Y15549946D01*
X32053125Y15590669D01*
X32114928Y15616268D01*
X32181250Y15625000D01*
X32693750Y15625000D01*
X32760072Y15616268D01*
X32821875Y15590669D01*
X32874946Y15549946D01*
X32915669Y15496875D01*
X32941268Y15435072D01*
X32950000Y15368750D01*
X32950000Y14431250D01*
X32941268Y14364928D01*
X32915669Y14303125D01*
X32874946Y14250054D01*
X32821875Y14209331D01*
X32760072Y14183732D01*
X32693750Y14175000D01*
G37*
%LPD*%
%LPD*%
G36*
X35818750Y14175000D02*
X35306250Y14175000D01*
X35239928Y14183732D01*
X35178125Y14209331D01*
X35125054Y14250054D01*
X35084331Y14303125D01*
X35058732Y14364928D01*
X35050000Y14431250D01*
X35050000Y15368750D01*
X35058732Y15435072D01*
X35084331Y15496875D01*
X35125054Y15549946D01*
X35178125Y15590669D01*
X35239928Y15616268D01*
X35306250Y15625000D01*
X35818750Y15625000D01*
X35885072Y15616268D01*
X35946875Y15590669D01*
X35999946Y15549946D01*
X36040669Y15496875D01*
X36066268Y15435072D01*
X36075000Y15368750D01*
X36075000Y14431250D01*
X36066268Y14364928D01*
X36040669Y14303125D01*
X35999946Y14250054D01*
X35946875Y14209331D01*
X35885072Y14183732D01*
X35818750Y14175000D01*
G37*
%LPD*%
%LPD*%
G36*
X37693750Y14175000D02*
X37181250Y14175000D01*
X37114928Y14183732D01*
X37053125Y14209331D01*
X37000054Y14250054D01*
X36959331Y14303125D01*
X36933732Y14364928D01*
X36925000Y14431250D01*
X36925000Y15368750D01*
X36933732Y15435072D01*
X36959331Y15496875D01*
X37000054Y15549946D01*
X37053125Y15590669D01*
X37114928Y15616268D01*
X37181250Y15625000D01*
X37693750Y15625000D01*
X37760072Y15616268D01*
X37821875Y15590669D01*
X37874946Y15549946D01*
X37915669Y15496875D01*
X37941268Y15435072D01*
X37950000Y15368750D01*
X37950000Y14431250D01*
X37941268Y14364928D01*
X37915669Y14303125D01*
X37874946Y14250054D01*
X37821875Y14209331D01*
X37760072Y14183732D01*
X37693750Y14175000D01*
G37*
%LPD*%
%LPD*%
G36*
X33818750Y20475000D02*
X33306250Y20475000D01*
X33239928Y20483732D01*
X33178125Y20509331D01*
X33125054Y20550054D01*
X33084331Y20603125D01*
X33058732Y20664928D01*
X33050000Y20731250D01*
X33050000Y21668750D01*
X33058732Y21735072D01*
X33084331Y21796875D01*
X33125054Y21849946D01*
X33178125Y21890669D01*
X33239928Y21916268D01*
X33306250Y21925000D01*
X33818750Y21925000D01*
X33885072Y21916268D01*
X33946875Y21890669D01*
X33999946Y21849946D01*
X34040669Y21796875D01*
X34066268Y21735072D01*
X34075000Y21668750D01*
X34075000Y20731250D01*
X34066268Y20664928D01*
X34040669Y20603125D01*
X33999946Y20550054D01*
X33946875Y20509331D01*
X33885072Y20483732D01*
X33818750Y20475000D01*
G37*
%LPD*%
%LPD*%
G36*
X35693750Y20475000D02*
X35181250Y20475000D01*
X35114928Y20483732D01*
X35053125Y20509331D01*
X35000054Y20550054D01*
X34959331Y20603125D01*
X34933732Y20664928D01*
X34925000Y20731250D01*
X34925000Y21668750D01*
X34933732Y21735072D01*
X34959331Y21796875D01*
X35000054Y21849946D01*
X35053125Y21890669D01*
X35114928Y21916268D01*
X35181250Y21925000D01*
X35693750Y21925000D01*
X35760072Y21916268D01*
X35821875Y21890669D01*
X35874946Y21849946D01*
X35915669Y21796875D01*
X35941268Y21735072D01*
X35950000Y21668750D01*
X35950000Y20731250D01*
X35941268Y20664928D01*
X35915669Y20603125D01*
X35874946Y20550054D01*
X35821875Y20509331D01*
X35760072Y20483732D01*
X35693750Y20475000D01*
G37*
%LPD*%
%LPD*%
G36*
X27818750Y21675000D02*
X27306250Y21675000D01*
X27239928Y21683732D01*
X27178125Y21709331D01*
X27125054Y21750054D01*
X27084331Y21803125D01*
X27058732Y21864928D01*
X27050000Y21931250D01*
X27050000Y22868750D01*
X27058732Y22935072D01*
X27084331Y22996875D01*
X27125054Y23049946D01*
X27178125Y23090669D01*
X27239928Y23116268D01*
X27306250Y23125000D01*
X27818750Y23125000D01*
X27885072Y23116268D01*
X27946875Y23090669D01*
X27999946Y23049946D01*
X28040669Y22996875D01*
X28066268Y22935072D01*
X28075000Y22868750D01*
X28075000Y21931250D01*
X28066268Y21864928D01*
X28040669Y21803125D01*
X27999946Y21750054D01*
X27946875Y21709331D01*
X27885072Y21683732D01*
X27818750Y21675000D01*
G37*
%LPD*%
%LPD*%
G36*
X29693750Y21675000D02*
X29181250Y21675000D01*
X29114928Y21683732D01*
X29053125Y21709331D01*
X29000054Y21750054D01*
X28959331Y21803125D01*
X28933732Y21864928D01*
X28925000Y21931250D01*
X28925000Y22868750D01*
X28933732Y22935072D01*
X28959331Y22996875D01*
X29000054Y23049946D01*
X29053125Y23090669D01*
X29114928Y23116268D01*
X29181250Y23125000D01*
X29693750Y23125000D01*
X29760072Y23116268D01*
X29821875Y23090669D01*
X29874946Y23049946D01*
X29915669Y22996875D01*
X29941268Y22935072D01*
X29950000Y22868750D01*
X29950000Y21931250D01*
X29941268Y21864928D01*
X29915669Y21803125D01*
X29874946Y21750054D01*
X29821875Y21709331D01*
X29760072Y21683732D01*
X29693750Y21675000D01*
G37*
%LPD*%
%LPD*%
G36*
X16812500Y4100000D02*
X16237500Y4100000D01*
X16163090Y4109796D01*
X16093750Y4138518D01*
X16034207Y4184207D01*
X15988518Y4243750D01*
X15959796Y4313090D01*
X15950000Y4387500D01*
X15950000Y5612500D01*
X15959796Y5686910D01*
X15988518Y5756250D01*
X16034207Y5815793D01*
X16093750Y5861482D01*
X16163090Y5890204D01*
X16237500Y5900000D01*
X16812500Y5900000D01*
X16886910Y5890204D01*
X16956250Y5861482D01*
X17015793Y5815793D01*
X17061482Y5756250D01*
X17090204Y5686910D01*
X17100000Y5612500D01*
X17100000Y4387500D01*
X17090204Y4313090D01*
X17061482Y4243750D01*
X17015793Y4184207D01*
X16956250Y4138518D01*
X16886910Y4109796D01*
X16812500Y4100000D01*
G37*
%LPD*%
%LPD*%
G36*
X19762500Y4100000D02*
X19187500Y4100000D01*
X19113090Y4109796D01*
X19043750Y4138518D01*
X18984207Y4184207D01*
X18938518Y4243750D01*
X18909796Y4313090D01*
X18900000Y4387500D01*
X18900000Y5612500D01*
X18909796Y5686910D01*
X18938518Y5756250D01*
X18984207Y5815793D01*
X19043750Y5861482D01*
X19113090Y5890204D01*
X19187500Y5900000D01*
X19762500Y5900000D01*
X19836910Y5890204D01*
X19906250Y5861482D01*
X19965793Y5815793D01*
X20011482Y5756250D01*
X20040204Y5686910D01*
X20050000Y5612500D01*
X20050000Y4387500D01*
X20040204Y4313090D01*
X20011482Y4243750D01*
X19965793Y4184207D01*
X19906250Y4138518D01*
X19836910Y4109796D01*
X19762500Y4100000D01*
G37*
%LPD*%
%LPD*%
G36*
X30812500Y4100000D02*
X30237500Y4100000D01*
X30163090Y4109796D01*
X30093750Y4138518D01*
X30034207Y4184207D01*
X29988518Y4243750D01*
X29959796Y4313090D01*
X29950000Y4387500D01*
X29950000Y5612500D01*
X29959796Y5686910D01*
X29988518Y5756250D01*
X30034207Y5815793D01*
X30093750Y5861482D01*
X30163090Y5890204D01*
X30237500Y5900000D01*
X30812500Y5900000D01*
X30886910Y5890204D01*
X30956250Y5861482D01*
X31015793Y5815793D01*
X31061482Y5756250D01*
X31090204Y5686910D01*
X31100000Y5612500D01*
X31100000Y4387500D01*
X31090204Y4313090D01*
X31061482Y4243750D01*
X31015793Y4184207D01*
X30956250Y4138518D01*
X30886910Y4109796D01*
X30812500Y4100000D01*
G37*
%LPD*%
%LPD*%
G36*
X33762500Y4100000D02*
X33187500Y4100000D01*
X33113090Y4109796D01*
X33043750Y4138518D01*
X32984207Y4184207D01*
X32938518Y4243750D01*
X32909796Y4313090D01*
X32900000Y4387500D01*
X32900000Y5612500D01*
X32909796Y5686910D01*
X32938518Y5756250D01*
X32984207Y5815793D01*
X33043750Y5861482D01*
X33113090Y5890204D01*
X33187500Y5900000D01*
X33762500Y5900000D01*
X33836910Y5890204D01*
X33906250Y5861482D01*
X33965793Y5815793D01*
X34011482Y5756250D01*
X34040204Y5686910D01*
X34050000Y5612500D01*
X34050000Y4387500D01*
X34040204Y4313090D01*
X34011482Y4243750D01*
X33965793Y4184207D01*
X33906250Y4138518D01*
X33836910Y4109796D01*
X33762500Y4100000D01*
G37*
%LPD*%
M02*
