G04 Nyquist Labs eelab.pcb*
%TF.FileFunction,Legend,Top*%
%TF.FilePolarity,Positive*%
%FSLAX46Y46*%
%MOMM*%
%LPD*%
%ADD10C,0.1500*%
G01*
D10*
X21550000Y15495000D02*
X28450000Y15495000D01*
D10*
X28450000Y15495000D02*
X28450000Y15601583D01*
D10*
X28450000Y16588417D02*
X28450000Y16871583D01*
D10*
X28450000Y17858417D02*
X28450000Y18141583D01*
D10*
X28450000Y19128417D02*
X28450000Y19411583D01*
D10*
X28450000Y20398417D02*
X28450000Y20505000D01*
D10*
X28450000Y20505000D02*
X21550000Y20505000D01*
D10*
X21550000Y20505000D02*
X21550000Y20398417D01*
D10*
X21550000Y19411583D02*
X21550000Y19128417D01*
D10*
X21550000Y18141583D02*
X21550000Y17858417D01*
D10*
X21550000Y16871583D02*
X21550000Y16588417D01*
D10*
X21550000Y15601583D02*
X21550000Y15495000D01*
D10*
X21628188Y21461156D02*
X21717484Y21461156D01*
D10*
X21717484Y21461156D02*
X21717484Y21062484D01*
D10*
X21717484Y21062484D02*
X21727012Y20971781D01*
D10*
X21727012Y20971781D02*
X21755594Y20910609D01*
D10*
X21755594Y20910609D02*
X21805727Y20875910D01*
D10*
X21805727Y20875910D02*
X21879625Y20864344D01*
D10*
X21879625Y20864344D02*
X21953102Y20875910D01*
D10*
X21953102Y20875910D02*
X22003094Y20910609D01*
D10*
X22003094Y20910609D02*
X22031781Y20971781D01*
D10*
X22031781Y20971781D02*
X22041344Y21062484D01*
D10*
X22041344Y21062484D02*
X22041344Y21461156D01*
D10*
X22041344Y21461156D02*
X22130500Y21461156D01*
D10*
X22130500Y21461156D02*
X22130500Y21051516D01*
D10*
X22130500Y21051516D02*
X22114609Y20938945D01*
D10*
X22114609Y20938945D02*
X22066938Y20857734D01*
D10*
X22066938Y20857734D02*
X21988398Y20808586D01*
D10*
X21988398Y20808586D02*
X21879625Y20792203D01*
D10*
X21879625Y20792203D02*
X21770395Y20808586D01*
D10*
X21770395Y20808586D02*
X21691609Y20857734D01*
D10*
X21691609Y20857734D02*
X21644043Y20938945D01*
D10*
X21644043Y20938945D02*
X21628188Y21051516D01*
D10*
X21628188Y21051516D02*
X21628188Y21461156D01*
D10*
X22320344Y20879672D02*
X22465328Y20879672D01*
D10*
X22465328Y20879672D02*
X22465328Y21380297D01*
D10*
X22465328Y21380297D02*
X22307547Y21348656D01*
D10*
X22307547Y21348656D02*
X22307547Y21429516D01*
D10*
X22307547Y21429516D02*
X22464484Y21461156D01*
D10*
X22464484Y21461156D02*
X22553219Y21461156D01*
D10*
X22553219Y21461156D02*
X22553219Y20879672D01*
D10*
X22553219Y20879672D02*
X22698203Y20879672D01*
D10*
X22698203Y20879672D02*
X22698203Y20805000D01*
D10*
X22698203Y20805000D02*
X22320344Y20805000D01*
D10*
X22320344Y20805000D02*
X22320344Y20879672D01*
D10*
X19925000Y19036332D02*
X19925000Y19563668D01*
D10*
X18475000Y19563668D02*
X18475000Y19036332D01*
D10*
X18874516Y21357688D02*
X18902676Y21342500D01*
D10*
X18902676Y21342500D02*
X18930062Y21316344D01*
D10*
X18930062Y21316344D02*
X18957133Y21278762D01*
D10*
X18957133Y21278762D02*
X18984344Y21229297D01*
D10*
X18984344Y21229297D02*
X19074484Y21050000D01*
D10*
X19074484Y21050000D02*
X18979000Y21050000D01*
D10*
X18979000Y21050000D02*
X18895188Y21218328D01*
D10*
X18895188Y21218328D02*
X18863090Y21273172D01*
D10*
X18863090Y21273172D02*
X18832047Y21305797D01*
D10*
X18832047Y21305797D02*
X18795977Y21321934D01*
D10*
X18795977Y21321934D02*
X18748797Y21327312D01*
D10*
X18748797Y21327312D02*
X18652047Y21327312D01*
D10*
X18652047Y21327312D02*
X18652047Y21050000D01*
D10*
X18652047Y21050000D02*
X18563312Y21050000D01*
D10*
X18563312Y21050000D02*
X18563312Y21706156D01*
D10*
X18563312Y21706156D02*
X18763703Y21706156D01*
D10*
X18763703Y21706156D02*
X18861930Y21694379D01*
D10*
X18861930Y21694379D02*
X18931609Y21659047D01*
D10*
X18931609Y21659047D02*
X18973164Y21600090D01*
D10*
X18973164Y21600090D02*
X18987016Y21517156D01*
D10*
X18987016Y21517156D02*
X18979809Y21460414D01*
D10*
X18979809Y21460414D02*
X18958187Y21414219D01*
D10*
X18958187Y21414219D02*
X18922855Y21379695D01*
D10*
X18922855Y21379695D02*
X18874516Y21357688D01*
D10*
X18652047Y21633172D02*
X18652047Y21400297D01*
D10*
X18652047Y21400297D02*
X18763703Y21400297D01*
D10*
X18763703Y21400297D02*
X18819988Y21407715D01*
D10*
X18819988Y21407715D02*
X18860594Y21429969D01*
D10*
X18860594Y21429969D02*
X18885168Y21466602D01*
D10*
X18885168Y21466602D02*
X18893359Y21517156D01*
D10*
X18893359Y21517156D02*
X18885168Y21567605D01*
D10*
X18885168Y21567605D02*
X18860594Y21603922D01*
D10*
X18860594Y21603922D02*
X18819988Y21625859D01*
D10*
X18819988Y21625859D02*
X18763703Y21633172D01*
D10*
X18763703Y21633172D02*
X18652047Y21633172D01*
D10*
X19273047Y21124672D02*
X19582844Y21124672D01*
D10*
X19582844Y21124672D02*
X19582844Y21050000D01*
D10*
X19582844Y21050000D02*
X19166312Y21050000D01*
D10*
X19166312Y21050000D02*
X19166312Y21124672D01*
D10*
X19166312Y21124672D02*
X19225973Y21185914D01*
D10*
X19225973Y21185914D02*
X19303984Y21265016D01*
D10*
X19303984Y21265016D02*
X19375070Y21337543D01*
D10*
X19375070Y21337543D02*
X19413672Y21378781D01*
D10*
X19413672Y21378781D02*
X19449848Y21422938D01*
D10*
X19449848Y21422938D02*
X19473156Y21459781D01*
D10*
X19473156Y21459781D02*
X19485918Y21492688D01*
D10*
X19485918Y21492688D02*
X19490172Y21525031D01*
D10*
X19490172Y21525031D02*
X19480996Y21572492D01*
D10*
X19480996Y21572492D02*
X19453469Y21610250D01*
D10*
X19453469Y21610250D02*
X19411211Y21635035D01*
D10*
X19411211Y21635035D02*
X19357844Y21643297D01*
D10*
X19357844Y21643297D02*
X19314918Y21639676D01*
D10*
X19314918Y21639676D02*
X19269672Y21628813D01*
D10*
X19269672Y21628813D02*
X19221789Y21610566D01*
D10*
X19221789Y21610566D02*
X19170672Y21584797D01*
D10*
X19170672Y21584797D02*
X19170672Y21674516D01*
D10*
X19170672Y21674516D02*
X19222492Y21693395D01*
D10*
X19222492Y21693395D02*
X19270797Y21707000D01*
D10*
X19270797Y21707000D02*
X19315480Y21715227D01*
D10*
X19315480Y21715227D02*
X19356156Y21717969D01*
D10*
X19356156Y21717969D02*
X19447773Y21705207D01*
D10*
X19447773Y21705207D02*
X19518719Y21666922D01*
D10*
X19518719Y21666922D02*
X19564176Y21607438D01*
D10*
X19564176Y21607438D02*
X19579328Y21530797D01*
D10*
X19579328Y21530797D02*
X19575531Y21491352D01*
D10*
X19575531Y21491352D02*
X19564141Y21454016D01*
D10*
X19564141Y21454016D02*
X19542836Y21414605D01*
D10*
X19542836Y21414605D02*
X19509016Y21368656D01*
D10*
X19509016Y21368656D02*
X19486059Y21343836D01*
D10*
X19486059Y21343836D02*
X19439125Y21294969D01*
D10*
X19439125Y21294969D02*
X19368215Y21221949D01*
D10*
X19368215Y21221949D02*
X19273047Y21124672D01*
D10*
X15936332Y17675000D02*
X16463668Y17675000D01*
D10*
X16463668Y19125000D02*
X15936332Y19125000D01*
D10*
X15149516Y19732688D02*
X15177676Y19717500D01*
D10*
X15177676Y19717500D02*
X15205062Y19691344D01*
D10*
X15205062Y19691344D02*
X15232133Y19653762D01*
D10*
X15232133Y19653762D02*
X15259344Y19604297D01*
D10*
X15259344Y19604297D02*
X15349484Y19425000D01*
D10*
X15349484Y19425000D02*
X15254000Y19425000D01*
D10*
X15254000Y19425000D02*
X15170188Y19593328D01*
D10*
X15170188Y19593328D02*
X15138090Y19648172D01*
D10*
X15138090Y19648172D02*
X15107047Y19680797D01*
D10*
X15107047Y19680797D02*
X15070977Y19696934D01*
D10*
X15070977Y19696934D02*
X15023797Y19702312D01*
D10*
X15023797Y19702312D02*
X14927047Y19702312D01*
D10*
X14927047Y19702312D02*
X14927047Y19425000D01*
D10*
X14927047Y19425000D02*
X14838312Y19425000D01*
D10*
X14838312Y19425000D02*
X14838312Y20081156D01*
D10*
X14838312Y20081156D02*
X15038703Y20081156D01*
D10*
X15038703Y20081156D02*
X15136930Y20069379D01*
D10*
X15136930Y20069379D02*
X15206609Y20034047D01*
D10*
X15206609Y20034047D02*
X15248164Y19975090D01*
D10*
X15248164Y19975090D02*
X15262016Y19892156D01*
D10*
X15262016Y19892156D02*
X15254809Y19835414D01*
D10*
X15254809Y19835414D02*
X15233188Y19789219D01*
D10*
X15233188Y19789219D02*
X15197855Y19754695D01*
D10*
X15197855Y19754695D02*
X15149516Y19732688D01*
D10*
X14927047Y20008172D02*
X14927047Y19775297D01*
D10*
X14927047Y19775297D02*
X15038703Y19775297D01*
D10*
X15038703Y19775297D02*
X15094988Y19782715D01*
D10*
X15094988Y19782715D02*
X15135594Y19804969D01*
D10*
X15135594Y19804969D02*
X15160168Y19841602D01*
D10*
X15160168Y19841602D02*
X15168359Y19892156D01*
D10*
X15168359Y19892156D02*
X15160168Y19942605D01*
D10*
X15160168Y19942605D02*
X15135594Y19978922D01*
D10*
X15135594Y19978922D02*
X15094988Y20000859D01*
D10*
X15094988Y20000859D02*
X15038703Y20008172D01*
D10*
X15038703Y20008172D02*
X14927047Y20008172D01*
D10*
X15740562Y19778812D02*
X15797270Y19757789D01*
D10*
X15797270Y19757789D02*
X15839984Y19722000D01*
D10*
X15839984Y19722000D02*
X15866879Y19673906D01*
D10*
X15866879Y19673906D02*
X15875844Y19615688D01*
D10*
X15875844Y19615688D02*
X15859145Y19529590D01*
D10*
X15859145Y19529590D02*
X15809047Y19465359D01*
D10*
X15809047Y19465359D02*
X15728188Y19425492D01*
D10*
X15728188Y19425492D02*
X15619203Y19412203D01*
D10*
X15619203Y19412203D02*
X15577367Y19414242D01*
D10*
X15577367Y19414242D02*
X15534266Y19420359D01*
D10*
X15534266Y19420359D02*
X15489828Y19430555D01*
D10*
X15489828Y19430555D02*
X15443984Y19444828D01*
D10*
X15443984Y19444828D02*
X15443984Y19530469D01*
D10*
X15443984Y19530469D02*
X15482586Y19511590D01*
D10*
X15482586Y19511590D02*
X15524703Y19497984D01*
D10*
X15524703Y19497984D02*
X15569703Y19489758D01*
D10*
X15569703Y19489758D02*
X15616672Y19487016D01*
D10*
X15616672Y19487016D02*
X15690148Y19495242D01*
D10*
X15690148Y19495242D02*
X15743797Y19519922D01*
D10*
X15743797Y19519922D02*
X15776598Y19560316D01*
D10*
X15776598Y19560316D02*
X15787531Y19615688D01*
D10*
X15787531Y19615688D02*
X15777371Y19667402D01*
D10*
X15777371Y19667402D02*
X15746891Y19706391D01*
D10*
X15746891Y19706391D02*
X15698305Y19730965D01*
D10*
X15698305Y19730965D02*
X15633828Y19739156D01*
D10*
X15633828Y19739156D02*
X15557328Y19739156D01*
D10*
X15557328Y19739156D02*
X15557328Y19812141D01*
D10*
X15557328Y19812141D02*
X15637344Y19812141D01*
D10*
X15637344Y19812141D02*
X15695070Y19818680D01*
D10*
X15695070Y19818680D02*
X15737469Y19838297D01*
D10*
X15737469Y19838297D02*
X15763520Y19870219D01*
D10*
X15763520Y19870219D02*
X15772203Y19913672D01*
D10*
X15772203Y19913672D02*
X15763238Y19958285D01*
D10*
X15763238Y19958285D02*
X15736344Y19991156D01*
D10*
X15736344Y19991156D02*
X15692855Y20011512D01*
D10*
X15692855Y20011512D02*
X15633828Y20018297D01*
D10*
X15633828Y20018297D02*
X15595965Y20016293D01*
D10*
X15595965Y20016293D02*
X15555500Y20010281D01*
D10*
X15555500Y20010281D02*
X15511660Y20000227D01*
D10*
X15511660Y20000227D02*
X15463672Y19985812D01*
D10*
X15463672Y19985812D02*
X15463672Y20064844D01*
D10*
X15463672Y20064844D02*
X15512680Y20077148D01*
D10*
X15512680Y20077148D02*
X15558453Y20085938D01*
D10*
X15558453Y20085938D02*
X15601344Y20091211D01*
D10*
X15601344Y20091211D02*
X15641703Y20092969D01*
D10*
X15641703Y20092969D02*
X15732230Y20081473D01*
D10*
X15732230Y20081473D02*
X15801594Y20046984D01*
D10*
X15801594Y20046984D02*
X15845785Y19993055D01*
D10*
X15845785Y19993055D02*
X15860516Y19922953D01*
D10*
X15860516Y19922953D02*
X15852711Y19872645D01*
D10*
X15852711Y19872645D02*
X15829297Y19830844D01*
D10*
X15829297Y19830844D02*
X15791504Y19799062D01*
D10*
X15791504Y19799062D02*
X15740562Y19778812D01*
D10*
X18236332Y15475000D02*
X18763668Y15475000D01*
D10*
X18763668Y16925000D02*
X18236332Y16925000D01*
D10*
X17449516Y17532688D02*
X17477676Y17517500D01*
D10*
X17477676Y17517500D02*
X17505062Y17491344D01*
D10*
X17505062Y17491344D02*
X17532133Y17453762D01*
D10*
X17532133Y17453762D02*
X17559344Y17404297D01*
D10*
X17559344Y17404297D02*
X17649484Y17225000D01*
D10*
X17649484Y17225000D02*
X17554000Y17225000D01*
D10*
X17554000Y17225000D02*
X17470188Y17393328D01*
D10*
X17470188Y17393328D02*
X17438090Y17448172D01*
D10*
X17438090Y17448172D02*
X17407047Y17480797D01*
D10*
X17407047Y17480797D02*
X17370977Y17496934D01*
D10*
X17370977Y17496934D02*
X17323797Y17502313D01*
D10*
X17323797Y17502313D02*
X17227047Y17502313D01*
D10*
X17227047Y17502313D02*
X17227047Y17225000D01*
D10*
X17227047Y17225000D02*
X17138312Y17225000D01*
D10*
X17138312Y17225000D02*
X17138312Y17881156D01*
D10*
X17138312Y17881156D02*
X17338703Y17881156D01*
D10*
X17338703Y17881156D02*
X17436930Y17869379D01*
D10*
X17436930Y17869379D02*
X17506609Y17834047D01*
D10*
X17506609Y17834047D02*
X17548164Y17775090D01*
D10*
X17548164Y17775090D02*
X17562016Y17692156D01*
D10*
X17562016Y17692156D02*
X17554809Y17635414D01*
D10*
X17554809Y17635414D02*
X17533188Y17589219D01*
D10*
X17533188Y17589219D02*
X17497855Y17554695D01*
D10*
X17497855Y17554695D02*
X17449516Y17532688D01*
D10*
X17227047Y17808172D02*
X17227047Y17575297D01*
D10*
X17227047Y17575297D02*
X17338703Y17575297D01*
D10*
X17338703Y17575297D02*
X17394988Y17582715D01*
D10*
X17394988Y17582715D02*
X17435594Y17604969D01*
D10*
X17435594Y17604969D02*
X17460168Y17641602D01*
D10*
X17460168Y17641602D02*
X17468359Y17692156D01*
D10*
X17468359Y17692156D02*
X17460168Y17742605D01*
D10*
X17460168Y17742605D02*
X17435594Y17778922D01*
D10*
X17435594Y17778922D02*
X17394988Y17800859D01*
D10*
X17394988Y17800859D02*
X17338703Y17808172D01*
D10*
X17338703Y17808172D02*
X17227047Y17808172D01*
D10*
X17787016Y17299672D02*
X17932000Y17299672D01*
D10*
X17932000Y17299672D02*
X17932000Y17800297D01*
D10*
X17932000Y17800297D02*
X17774219Y17768656D01*
D10*
X17774219Y17768656D02*
X17774219Y17849516D01*
D10*
X17774219Y17849516D02*
X17931156Y17881156D01*
D10*
X17931156Y17881156D02*
X18019891Y17881156D01*
D10*
X18019891Y17881156D02*
X18019891Y17299672D01*
D10*
X18019891Y17299672D02*
X18164875Y17299672D01*
D10*
X18164875Y17299672D02*
X18164875Y17225000D01*
D10*
X18164875Y17225000D02*
X17787016Y17225000D01*
D10*
X17787016Y17225000D02*
X17787016Y17299672D01*
D10*
X13236332Y15475000D02*
X13763668Y15475000D01*
D10*
X13763668Y16925000D02*
X13236332Y16925000D01*
D10*
X12629656Y17830531D02*
X12629656Y17737016D01*
D10*
X12629656Y17737016D02*
X12583320Y17773473D01*
D10*
X12583320Y17773473D02*
X12534031Y17799313D01*
D10*
X12534031Y17799313D02*
X12481684Y17814816D01*
D10*
X12481684Y17814816D02*
X12426172Y17819984D01*
D10*
X12426172Y17819984D02*
X12326855Y17802793D01*
D10*
X12326855Y17802793D02*
X12253906Y17751219D01*
D10*
X12253906Y17751219D02*
X12209082Y17667125D01*
D10*
X12209082Y17667125D02*
X12194141Y17552375D01*
D10*
X12194141Y17552375D02*
X12209082Y17437941D01*
D10*
X12209082Y17437941D02*
X12253906Y17353953D01*
D10*
X12253906Y17353953D02*
X12326855Y17302379D01*
D10*
X12326855Y17302379D02*
X12426172Y17285188D01*
D10*
X12426172Y17285188D02*
X12481684Y17290355D01*
D10*
X12481684Y17290355D02*
X12534031Y17305859D01*
D10*
X12534031Y17305859D02*
X12583320Y17331805D01*
D10*
X12583320Y17331805D02*
X12629656Y17368297D01*
D10*
X12629656Y17368297D02*
X12629656Y17275484D01*
D10*
X12629656Y17275484D02*
X12581703Y17247781D01*
D10*
X12581703Y17247781D02*
X12530938Y17227953D01*
D10*
X12530938Y17227953D02*
X12477430Y17216141D01*
D10*
X12477430Y17216141D02*
X12420969Y17212203D01*
D10*
X12420969Y17212203D02*
X12287727Y17234984D01*
D10*
X12287727Y17234984D02*
X12186125Y17303328D01*
D10*
X12186125Y17303328D02*
X12121895Y17411223D01*
D10*
X12121895Y17411223D02*
X12100484Y17552375D01*
D10*
X12100484Y17552375D02*
X12121895Y17693809D01*
D10*
X12121895Y17693809D02*
X12186125Y17801703D01*
D10*
X12186125Y17801703D02*
X12287727Y17870152D01*
D10*
X12287727Y17870152D02*
X12420969Y17892969D01*
D10*
X12420969Y17892969D02*
X12478062Y17889066D01*
D10*
X12478062Y17889066D02*
X12531781Y17877359D01*
D10*
X12531781Y17877359D02*
X12582336Y17857848D01*
D10*
X12582336Y17857848D02*
X12629656Y17830531D01*
D10*
X12790109Y17299672D02*
X12935094Y17299672D01*
D10*
X12935094Y17299672D02*
X12935094Y17800297D01*
D10*
X12935094Y17800297D02*
X12777312Y17768656D01*
D10*
X12777312Y17768656D02*
X12777312Y17849516D01*
D10*
X12777312Y17849516D02*
X12934250Y17881156D01*
D10*
X12934250Y17881156D02*
X13022984Y17881156D01*
D10*
X13022984Y17881156D02*
X13022984Y17299672D01*
D10*
X13022984Y17299672D02*
X13167969Y17299672D01*
D10*
X13167969Y17299672D02*
X13167969Y17225000D01*
D10*
X13167969Y17225000D02*
X12790109Y17225000D01*
D10*
X12790109Y17225000D02*
X12790109Y17299672D01*
D10*
X15236332Y21775000D02*
X15763668Y21775000D01*
D10*
X15763668Y23225000D02*
X15236332Y23225000D01*
D10*
X14449516Y23832688D02*
X14477676Y23817500D01*
D10*
X14477676Y23817500D02*
X14505063Y23791344D01*
D10*
X14505063Y23791344D02*
X14532133Y23753762D01*
D10*
X14532133Y23753762D02*
X14559344Y23704297D01*
D10*
X14559344Y23704297D02*
X14649484Y23525000D01*
D10*
X14649484Y23525000D02*
X14554000Y23525000D01*
D10*
X14554000Y23525000D02*
X14470188Y23693328D01*
D10*
X14470188Y23693328D02*
X14438090Y23748172D01*
D10*
X14438090Y23748172D02*
X14407047Y23780797D01*
D10*
X14407047Y23780797D02*
X14370977Y23796934D01*
D10*
X14370977Y23796934D02*
X14323797Y23802313D01*
D10*
X14323797Y23802313D02*
X14227047Y23802313D01*
D10*
X14227047Y23802313D02*
X14227047Y23525000D01*
D10*
X14227047Y23525000D02*
X14138313Y23525000D01*
D10*
X14138313Y23525000D02*
X14138313Y24181156D01*
D10*
X14138313Y24181156D02*
X14338703Y24181156D01*
D10*
X14338703Y24181156D02*
X14436930Y24169379D01*
D10*
X14436930Y24169379D02*
X14506609Y24134047D01*
D10*
X14506609Y24134047D02*
X14548164Y24075090D01*
D10*
X14548164Y24075090D02*
X14562016Y23992156D01*
D10*
X14562016Y23992156D02*
X14554809Y23935414D01*
D10*
X14554809Y23935414D02*
X14533188Y23889219D01*
D10*
X14533188Y23889219D02*
X14497855Y23854695D01*
D10*
X14497855Y23854695D02*
X14449516Y23832688D01*
D10*
X14227047Y24108172D02*
X14227047Y23875297D01*
D10*
X14227047Y23875297D02*
X14338703Y23875297D01*
D10*
X14338703Y23875297D02*
X14394988Y23882715D01*
D10*
X14394988Y23882715D02*
X14435594Y23904969D01*
D10*
X14435594Y23904969D02*
X14460168Y23941602D01*
D10*
X14460168Y23941602D02*
X14468359Y23992156D01*
D10*
X14468359Y23992156D02*
X14460168Y24042605D01*
D10*
X14460168Y24042605D02*
X14435594Y24078922D01*
D10*
X14435594Y24078922D02*
X14394988Y24100859D01*
D10*
X14394988Y24100859D02*
X14338703Y24108172D01*
D10*
X14338703Y24108172D02*
X14227047Y24108172D01*
D10*
X15015531Y24103813D02*
X14791375Y23753516D01*
D10*
X14791375Y23753516D02*
X15015531Y23753516D01*
D10*
X15015531Y23753516D02*
X15015531Y24103813D01*
D10*
X14992188Y24181156D02*
X15103844Y24181156D01*
D10*
X15103844Y24181156D02*
X15103844Y23753516D01*
D10*
X15103844Y23753516D02*
X15197500Y23753516D01*
D10*
X15197500Y23753516D02*
X15197500Y23679688D01*
D10*
X15197500Y23679688D02*
X15103844Y23679688D01*
D10*
X15103844Y23679688D02*
X15103844Y23525000D01*
D10*
X15103844Y23525000D02*
X15015531Y23525000D01*
D10*
X15015531Y23525000D02*
X15015531Y23679688D01*
D10*
X15015531Y23679688D02*
X14719375Y23679688D01*
D10*
X14719375Y23679688D02*
X14719375Y23765328D01*
D10*
X14719375Y23765328D02*
X14992188Y24181156D01*
D10*
X21236332Y12875000D02*
X21763668Y12875000D01*
D10*
X21763668Y14325000D02*
X21236332Y14325000D01*
D10*
X20629656Y15230531D02*
X20629656Y15137016D01*
D10*
X20629656Y15137016D02*
X20583320Y15173473D01*
D10*
X20583320Y15173473D02*
X20534031Y15199312D01*
D10*
X20534031Y15199312D02*
X20481684Y15214816D01*
D10*
X20481684Y15214816D02*
X20426172Y15219984D01*
D10*
X20426172Y15219984D02*
X20326855Y15202793D01*
D10*
X20326855Y15202793D02*
X20253906Y15151219D01*
D10*
X20253906Y15151219D02*
X20209082Y15067125D01*
D10*
X20209082Y15067125D02*
X20194141Y14952375D01*
D10*
X20194141Y14952375D02*
X20209082Y14837941D01*
D10*
X20209082Y14837941D02*
X20253906Y14753953D01*
D10*
X20253906Y14753953D02*
X20326855Y14702379D01*
D10*
X20326855Y14702379D02*
X20426172Y14685188D01*
D10*
X20426172Y14685188D02*
X20481684Y14690355D01*
D10*
X20481684Y14690355D02*
X20534031Y14705859D01*
D10*
X20534031Y14705859D02*
X20583320Y14731805D01*
D10*
X20583320Y14731805D02*
X20629656Y14768297D01*
D10*
X20629656Y14768297D02*
X20629656Y14675484D01*
D10*
X20629656Y14675484D02*
X20581703Y14647781D01*
D10*
X20581703Y14647781D02*
X20530938Y14627953D01*
D10*
X20530938Y14627953D02*
X20477430Y14616141D01*
D10*
X20477430Y14616141D02*
X20420969Y14612203D01*
D10*
X20420969Y14612203D02*
X20287727Y14634984D01*
D10*
X20287727Y14634984D02*
X20186125Y14703328D01*
D10*
X20186125Y14703328D02*
X20121895Y14811223D01*
D10*
X20121895Y14811223D02*
X20100484Y14952375D01*
D10*
X20100484Y14952375D02*
X20121895Y15093809D01*
D10*
X20121895Y15093809D02*
X20186125Y15201703D01*
D10*
X20186125Y15201703D02*
X20287727Y15270152D01*
D10*
X20287727Y15270152D02*
X20420969Y15292969D01*
D10*
X20420969Y15292969D02*
X20478062Y15289066D01*
D10*
X20478062Y15289066D02*
X20531781Y15277359D01*
D10*
X20531781Y15277359D02*
X20582336Y15257848D01*
D10*
X20582336Y15257848D02*
X20629656Y15230531D01*
D10*
X21018625Y15203812D02*
X20794469Y14853516D01*
D10*
X20794469Y14853516D02*
X21018625Y14853516D01*
D10*
X21018625Y14853516D02*
X21018625Y15203812D01*
D10*
X20995281Y15281156D02*
X21106938Y15281156D01*
D10*
X21106938Y15281156D02*
X21106938Y14853516D01*
D10*
X21106938Y14853516D02*
X21200594Y14853516D01*
D10*
X21200594Y14853516D02*
X21200594Y14779688D01*
D10*
X21200594Y14779688D02*
X21106938Y14779688D01*
D10*
X21106938Y14779688D02*
X21106938Y14625000D01*
D10*
X21106938Y14625000D02*
X21018625Y14625000D01*
D10*
X21018625Y14625000D02*
X21018625Y14779688D01*
D10*
X21018625Y14779688D02*
X20722469Y14779688D01*
D10*
X20722469Y14779688D02*
X20722469Y14865328D01*
D10*
X20722469Y14865328D02*
X20995281Y15281156D01*
D10*
X31525000Y17736332D02*
X31525000Y18263668D01*
D10*
X30075000Y18263668D02*
X30075000Y17736332D01*
D10*
X30474516Y20057688D02*
X30502676Y20042500D01*
D10*
X30502676Y20042500D02*
X30530062Y20016344D01*
D10*
X30530062Y20016344D02*
X30557133Y19978762D01*
D10*
X30557133Y19978762D02*
X30584344Y19929297D01*
D10*
X30584344Y19929297D02*
X30674484Y19750000D01*
D10*
X30674484Y19750000D02*
X30579000Y19750000D01*
D10*
X30579000Y19750000D02*
X30495188Y19918328D01*
D10*
X30495188Y19918328D02*
X30463090Y19973172D01*
D10*
X30463090Y19973172D02*
X30432047Y20005797D01*
D10*
X30432047Y20005797D02*
X30395977Y20021934D01*
D10*
X30395977Y20021934D02*
X30348797Y20027312D01*
D10*
X30348797Y20027312D02*
X30252047Y20027312D01*
D10*
X30252047Y20027312D02*
X30252047Y19750000D01*
D10*
X30252047Y19750000D02*
X30163312Y19750000D01*
D10*
X30163312Y19750000D02*
X30163312Y20406156D01*
D10*
X30163312Y20406156D02*
X30363703Y20406156D01*
D10*
X30363703Y20406156D02*
X30461930Y20394379D01*
D10*
X30461930Y20394379D02*
X30531609Y20359047D01*
D10*
X30531609Y20359047D02*
X30573164Y20300090D01*
D10*
X30573164Y20300090D02*
X30587016Y20217156D01*
D10*
X30587016Y20217156D02*
X30579809Y20160414D01*
D10*
X30579809Y20160414D02*
X30558188Y20114219D01*
D10*
X30558188Y20114219D02*
X30522855Y20079695D01*
D10*
X30522855Y20079695D02*
X30474516Y20057688D01*
D10*
X30252047Y20333172D02*
X30252047Y20100297D01*
D10*
X30252047Y20100297D02*
X30363703Y20100297D01*
D10*
X30363703Y20100297D02*
X30419988Y20107715D01*
D10*
X30419988Y20107715D02*
X30460594Y20129969D01*
D10*
X30460594Y20129969D02*
X30485168Y20166602D01*
D10*
X30485168Y20166602D02*
X30493359Y20217156D01*
D10*
X30493359Y20217156D02*
X30485168Y20267605D01*
D10*
X30485168Y20267605D02*
X30460594Y20303922D01*
D10*
X30460594Y20303922D02*
X30419988Y20325859D01*
D10*
X30419988Y20325859D02*
X30363703Y20333172D01*
D10*
X30363703Y20333172D02*
X30252047Y20333172D01*
D10*
X30997500Y20113375D02*
X30943922Y20103145D01*
D10*
X30943922Y20103145D02*
X30902719Y20072453D01*
D10*
X30902719Y20072453D02*
X30876562Y20024078D01*
D10*
X30876562Y20024078D02*
X30867844Y19960516D01*
D10*
X30867844Y19960516D02*
X30876562Y19897164D01*
D10*
X30876562Y19897164D02*
X30902719Y19848578D01*
D10*
X30902719Y19848578D02*
X30943922Y19817781D01*
D10*
X30943922Y19817781D02*
X30997500Y19807516D01*
D10*
X30997500Y19807516D02*
X31051043Y19817781D01*
D10*
X31051043Y19817781D02*
X31092141Y19848578D01*
D10*
X31092141Y19848578D02*
X31118297Y19897164D01*
D10*
X31118297Y19897164D02*
X31127016Y19960516D01*
D10*
X31127016Y19960516D02*
X31118297Y20024078D01*
D10*
X31118297Y20024078D02*
X31092141Y20072453D01*
D10*
X31092141Y20072453D02*
X31051043Y20103145D01*
D10*
X31051043Y20103145D02*
X30997500Y20113375D01*
D10*
X31173703Y20391672D02*
X31173703Y20310812D01*
D10*
X31173703Y20310812D02*
X31140094Y20324699D01*
D10*
X31140094Y20324699D02*
X31106203Y20334859D01*
D10*
X31106203Y20334859D02*
X31072312Y20341188D01*
D10*
X31072312Y20341188D02*
X31038703Y20343297D01*
D10*
X31038703Y20343297D02*
X30961184Y20328461D01*
D10*
X30961184Y20328461D02*
X30904406Y20283953D01*
D10*
X30904406Y20283953D02*
X30868055Y20209457D01*
D10*
X30868055Y20209457D02*
X30851531Y20104656D01*
D10*
X30851531Y20104656D02*
X30880711Y20138441D01*
D10*
X30880711Y20138441D02*
X30916500Y20163297D01*
D10*
X30916500Y20163297D02*
X30957668Y20178590D01*
D10*
X30957668Y20178590D02*
X31002703Y20183688D01*
D10*
X31002703Y20183688D02*
X31091191Y20168676D01*
D10*
X31091191Y20168676D02*
X31158938Y20123641D01*
D10*
X31158938Y20123641D02*
X31201969Y20052906D01*
D10*
X31201969Y20052906D02*
X31216312Y19960516D01*
D10*
X31216312Y19960516D02*
X31201371Y19869391D01*
D10*
X31201371Y19869391D02*
X31156547Y19798234D01*
D10*
X31156547Y19798234D02*
X31086902Y19752461D01*
D10*
X31086902Y19752461D02*
X30997500Y19737203D01*
D10*
X30997500Y19737203D02*
X30897023Y19759000D01*
D10*
X30897023Y19759000D02*
X30823406Y19824391D01*
D10*
X30823406Y19824391D02*
X30778266Y19931301D01*
D10*
X30778266Y19931301D02*
X30763219Y20077375D01*
D10*
X30763219Y20077375D02*
X30781676Y20217156D01*
D10*
X30781676Y20217156D02*
X30837047Y20325438D01*
D10*
X30837047Y20325438D02*
X30923496Y20394836D01*
D10*
X30923496Y20394836D02*
X31035188Y20417969D01*
D10*
X31035188Y20417969D02*
X31068797Y20416316D01*
D10*
X31068797Y20416316D02*
X31102688Y20411359D01*
D10*
X31102688Y20411359D02*
X31137457Y20403133D01*
D10*
X31137457Y20403133D02*
X31173703Y20391672D01*
D10*
X33536332Y16375000D02*
X34063668Y16375000D01*
D10*
X34063668Y17825000D02*
X33536332Y17825000D01*
D10*
X32749516Y18432688D02*
X32777676Y18417500D01*
D10*
X32777676Y18417500D02*
X32805062Y18391344D01*
D10*
X32805062Y18391344D02*
X32832133Y18353762D01*
D10*
X32832133Y18353762D02*
X32859344Y18304297D01*
D10*
X32859344Y18304297D02*
X32949484Y18125000D01*
D10*
X32949484Y18125000D02*
X32854000Y18125000D01*
D10*
X32854000Y18125000D02*
X32770187Y18293328D01*
D10*
X32770187Y18293328D02*
X32738090Y18348172D01*
D10*
X32738090Y18348172D02*
X32707047Y18380797D01*
D10*
X32707047Y18380797D02*
X32670977Y18396934D01*
D10*
X32670977Y18396934D02*
X32623797Y18402313D01*
D10*
X32623797Y18402313D02*
X32527047Y18402313D01*
D10*
X32527047Y18402313D02*
X32527047Y18125000D01*
D10*
X32527047Y18125000D02*
X32438312Y18125000D01*
D10*
X32438312Y18125000D02*
X32438312Y18781156D01*
D10*
X32438312Y18781156D02*
X32638703Y18781156D01*
D10*
X32638703Y18781156D02*
X32736930Y18769379D01*
D10*
X32736930Y18769379D02*
X32806609Y18734047D01*
D10*
X32806609Y18734047D02*
X32848164Y18675090D01*
D10*
X32848164Y18675090D02*
X32862016Y18592156D01*
D10*
X32862016Y18592156D02*
X32854809Y18535414D01*
D10*
X32854809Y18535414D02*
X32833187Y18489219D01*
D10*
X32833187Y18489219D02*
X32797855Y18454695D01*
D10*
X32797855Y18454695D02*
X32749516Y18432688D01*
D10*
X32527047Y18708172D02*
X32527047Y18475297D01*
D10*
X32527047Y18475297D02*
X32638703Y18475297D01*
D10*
X32638703Y18475297D02*
X32694988Y18482715D01*
D10*
X32694988Y18482715D02*
X32735594Y18504969D01*
D10*
X32735594Y18504969D02*
X32760168Y18541602D01*
D10*
X32760168Y18541602D02*
X32768359Y18592156D01*
D10*
X32768359Y18592156D02*
X32760168Y18642605D01*
D10*
X32760168Y18642605D02*
X32735594Y18678922D01*
D10*
X32735594Y18678922D02*
X32694988Y18700859D01*
D10*
X32694988Y18700859D02*
X32638703Y18708172D01*
D10*
X32638703Y18708172D02*
X32527047Y18708172D01*
D10*
X33049187Y18781156D02*
X33471062Y18781156D01*
D10*
X33471062Y18781156D02*
X33471062Y18743328D01*
D10*
X33471062Y18743328D02*
X33232844Y18125000D01*
D10*
X33232844Y18125000D02*
X33140172Y18125000D01*
D10*
X33140172Y18125000D02*
X33364328Y18706344D01*
D10*
X33364328Y18706344D02*
X33049187Y18706344D01*
D10*
X33049187Y18706344D02*
X33049187Y18781156D01*
D10*
X31236332Y14175000D02*
X31763668Y14175000D01*
D10*
X31763668Y15625000D02*
X31236332Y15625000D01*
D10*
X30449516Y16232688D02*
X30477676Y16217500D01*
D10*
X30477676Y16217500D02*
X30505062Y16191344D01*
D10*
X30505062Y16191344D02*
X30532133Y16153762D01*
D10*
X30532133Y16153762D02*
X30559344Y16104297D01*
D10*
X30559344Y16104297D02*
X30649484Y15925000D01*
D10*
X30649484Y15925000D02*
X30554000Y15925000D01*
D10*
X30554000Y15925000D02*
X30470188Y16093328D01*
D10*
X30470188Y16093328D02*
X30438090Y16148172D01*
D10*
X30438090Y16148172D02*
X30407047Y16180797D01*
D10*
X30407047Y16180797D02*
X30370977Y16196934D01*
D10*
X30370977Y16196934D02*
X30323797Y16202313D01*
D10*
X30323797Y16202313D02*
X30227047Y16202313D01*
D10*
X30227047Y16202313D02*
X30227047Y15925000D01*
D10*
X30227047Y15925000D02*
X30138312Y15925000D01*
D10*
X30138312Y15925000D02*
X30138312Y16581156D01*
D10*
X30138312Y16581156D02*
X30338703Y16581156D01*
D10*
X30338703Y16581156D02*
X30436930Y16569379D01*
D10*
X30436930Y16569379D02*
X30506609Y16534047D01*
D10*
X30506609Y16534047D02*
X30548164Y16475090D01*
D10*
X30548164Y16475090D02*
X30562016Y16392156D01*
D10*
X30562016Y16392156D02*
X30554809Y16335414D01*
D10*
X30554809Y16335414D02*
X30533188Y16289219D01*
D10*
X30533188Y16289219D02*
X30497855Y16254695D01*
D10*
X30497855Y16254695D02*
X30449516Y16232688D01*
D10*
X30227047Y16508172D02*
X30227047Y16275297D01*
D10*
X30227047Y16275297D02*
X30338703Y16275297D01*
D10*
X30338703Y16275297D02*
X30394988Y16282715D01*
D10*
X30394988Y16282715D02*
X30435594Y16304969D01*
D10*
X30435594Y16304969D02*
X30460168Y16341602D01*
D10*
X30460168Y16341602D02*
X30468359Y16392156D01*
D10*
X30468359Y16392156D02*
X30460168Y16442605D01*
D10*
X30460168Y16442605D02*
X30435594Y16478922D01*
D10*
X30435594Y16478922D02*
X30394988Y16500859D01*
D10*
X30394988Y16500859D02*
X30338703Y16508172D01*
D10*
X30338703Y16508172D02*
X30227047Y16508172D01*
D10*
X30772531Y16581156D02*
X31121000Y16581156D01*
D10*
X31121000Y16581156D02*
X31121000Y16506344D01*
D10*
X31121000Y16506344D02*
X30853812Y16506344D01*
D10*
X30853812Y16506344D02*
X30853812Y16345609D01*
D10*
X30853812Y16345609D02*
X30873078Y16351375D01*
D10*
X30873078Y16351375D02*
X30892344Y16355453D01*
D10*
X30892344Y16355453D02*
X30911750Y16357879D01*
D10*
X30911750Y16357879D02*
X30931156Y16358688D01*
D10*
X30931156Y16358688D02*
X31029559Y16343641D01*
D10*
X31029559Y16343641D02*
X31105109Y16298500D01*
D10*
X31105109Y16298500D02*
X31153309Y16227660D01*
D10*
X31153309Y16227660D02*
X31169375Y16135516D01*
D10*
X31169375Y16135516D02*
X31152887Y16041402D01*
D10*
X31152887Y16041402D02*
X31103422Y15970844D01*
D10*
X31103422Y15970844D02*
X31023969Y15926863D01*
D10*
X31023969Y15926863D02*
X30917516Y15912203D01*
D10*
X30917516Y15912203D02*
X30875785Y15913961D01*
D10*
X30875785Y15913961D02*
X30833281Y15919234D01*
D10*
X30833281Y15919234D02*
X30789793Y15928023D01*
D10*
X30789793Y15928023D02*
X30744828Y15940328D01*
D10*
X30744828Y15940328D02*
X30744828Y16029625D01*
D10*
X30744828Y16029625D02*
X30785012Y16010852D01*
D10*
X30785012Y16010852D02*
X30826531Y15997562D01*
D10*
X30826531Y15997562D02*
X30869914Y15989652D01*
D10*
X30869914Y15989652D02*
X30915688Y15987016D01*
D10*
X30915688Y15987016D02*
X30983820Y15997000D01*
D10*
X30983820Y15997000D02*
X31036062Y16026953D01*
D10*
X31036062Y16026953D02*
X31069391Y16074062D01*
D10*
X31069391Y16074062D02*
X31080500Y16135516D01*
D10*
X31080500Y16135516D02*
X31069391Y16196863D01*
D10*
X31069391Y16196863D02*
X31036062Y16243938D01*
D10*
X31036062Y16243938D02*
X30983820Y16273996D01*
D10*
X30983820Y16273996D02*
X30915688Y16284016D01*
D10*
X30915688Y16284016D02*
X30880145Y16282047D01*
D10*
X30880145Y16282047D02*
X30844672Y16276141D01*
D10*
X30844672Y16276141D02*
X30808988Y16266051D01*
D10*
X30808988Y16266051D02*
X30772531Y16251531D01*
D10*
X30772531Y16251531D02*
X30772531Y16581156D01*
D10*
X36236332Y14175000D02*
X36763668Y14175000D01*
D10*
X36763668Y15625000D02*
X36236332Y15625000D01*
D10*
X35629656Y16530531D02*
X35629656Y16437016D01*
D10*
X35629656Y16437016D02*
X35583320Y16473473D01*
D10*
X35583320Y16473473D02*
X35534031Y16499313D01*
D10*
X35534031Y16499313D02*
X35481684Y16514816D01*
D10*
X35481684Y16514816D02*
X35426172Y16519984D01*
D10*
X35426172Y16519984D02*
X35326855Y16502793D01*
D10*
X35326855Y16502793D02*
X35253906Y16451219D01*
D10*
X35253906Y16451219D02*
X35209082Y16367125D01*
D10*
X35209082Y16367125D02*
X35194141Y16252375D01*
D10*
X35194141Y16252375D02*
X35209082Y16137941D01*
D10*
X35209082Y16137941D02*
X35253906Y16053953D01*
D10*
X35253906Y16053953D02*
X35326855Y16002379D01*
D10*
X35326855Y16002379D02*
X35426172Y15985188D01*
D10*
X35426172Y15985188D02*
X35481684Y15990355D01*
D10*
X35481684Y15990355D02*
X35534031Y16005859D01*
D10*
X35534031Y16005859D02*
X35583320Y16031805D01*
D10*
X35583320Y16031805D02*
X35629656Y16068297D01*
D10*
X35629656Y16068297D02*
X35629656Y15975484D01*
D10*
X35629656Y15975484D02*
X35581703Y15947781D01*
D10*
X35581703Y15947781D02*
X35530938Y15927953D01*
D10*
X35530938Y15927953D02*
X35477430Y15916141D01*
D10*
X35477430Y15916141D02*
X35420969Y15912203D01*
D10*
X35420969Y15912203D02*
X35287727Y15934984D01*
D10*
X35287727Y15934984D02*
X35186125Y16003328D01*
D10*
X35186125Y16003328D02*
X35121895Y16111223D01*
D10*
X35121895Y16111223D02*
X35100484Y16252375D01*
D10*
X35100484Y16252375D02*
X35121895Y16393809D01*
D10*
X35121895Y16393809D02*
X35186125Y16501703D01*
D10*
X35186125Y16501703D02*
X35287727Y16570152D01*
D10*
X35287727Y16570152D02*
X35420969Y16592969D01*
D10*
X35420969Y16592969D02*
X35478062Y16589066D01*
D10*
X35478062Y16589066D02*
X35531781Y16577359D01*
D10*
X35531781Y16577359D02*
X35582336Y16557848D01*
D10*
X35582336Y16557848D02*
X35629656Y16530531D01*
D10*
X35851141Y15999672D02*
X36160937Y15999672D01*
D10*
X36160937Y15999672D02*
X36160937Y15925000D01*
D10*
X36160937Y15925000D02*
X35744406Y15925000D01*
D10*
X35744406Y15925000D02*
X35744406Y15999672D01*
D10*
X35744406Y15999672D02*
X35804066Y16060914D01*
D10*
X35804066Y16060914D02*
X35882078Y16140016D01*
D10*
X35882078Y16140016D02*
X35953164Y16212543D01*
D10*
X35953164Y16212543D02*
X35991766Y16253781D01*
D10*
X35991766Y16253781D02*
X36027941Y16297938D01*
D10*
X36027941Y16297938D02*
X36051250Y16334781D01*
D10*
X36051250Y16334781D02*
X36064012Y16367688D01*
D10*
X36064012Y16367688D02*
X36068266Y16400031D01*
D10*
X36068266Y16400031D02*
X36059090Y16447492D01*
D10*
X36059090Y16447492D02*
X36031562Y16485250D01*
D10*
X36031562Y16485250D02*
X35989305Y16510035D01*
D10*
X35989305Y16510035D02*
X35935937Y16518297D01*
D10*
X35935937Y16518297D02*
X35893012Y16514676D01*
D10*
X35893012Y16514676D02*
X35847766Y16503813D01*
D10*
X35847766Y16503813D02*
X35799883Y16485566D01*
D10*
X35799883Y16485566D02*
X35748766Y16459797D01*
D10*
X35748766Y16459797D02*
X35748766Y16549516D01*
D10*
X35748766Y16549516D02*
X35800586Y16568395D01*
D10*
X35800586Y16568395D02*
X35848891Y16582000D01*
D10*
X35848891Y16582000D02*
X35893574Y16590227D01*
D10*
X35893574Y16590227D02*
X35934250Y16592969D01*
D10*
X35934250Y16592969D02*
X36025867Y16580207D01*
D10*
X36025867Y16580207D02*
X36096812Y16541922D01*
D10*
X36096812Y16541922D02*
X36142270Y16482438D01*
D10*
X36142270Y16482438D02*
X36157422Y16405797D01*
D10*
X36157422Y16405797D02*
X36153625Y16366352D01*
D10*
X36153625Y16366352D02*
X36142234Y16329016D01*
D10*
X36142234Y16329016D02*
X36120930Y16289605D01*
D10*
X36120930Y16289605D02*
X36087109Y16243656D01*
D10*
X36087109Y16243656D02*
X36064152Y16218836D01*
D10*
X36064152Y16218836D02*
X36017219Y16169969D01*
D10*
X36017219Y16169969D02*
X35946309Y16096949D01*
D10*
X35946309Y16096949D02*
X35851141Y15999672D01*
D10*
X34236332Y20475000D02*
X34763668Y20475000D01*
D10*
X34763668Y21925000D02*
X34236332Y21925000D01*
D10*
X33449516Y22532688D02*
X33477676Y22517500D01*
D10*
X33477676Y22517500D02*
X33505062Y22491344D01*
D10*
X33505062Y22491344D02*
X33532133Y22453762D01*
D10*
X33532133Y22453762D02*
X33559344Y22404297D01*
D10*
X33559344Y22404297D02*
X33649484Y22225000D01*
D10*
X33649484Y22225000D02*
X33554000Y22225000D01*
D10*
X33554000Y22225000D02*
X33470187Y22393328D01*
D10*
X33470187Y22393328D02*
X33438090Y22448172D01*
D10*
X33438090Y22448172D02*
X33407047Y22480797D01*
D10*
X33407047Y22480797D02*
X33370977Y22496934D01*
D10*
X33370977Y22496934D02*
X33323797Y22502313D01*
D10*
X33323797Y22502313D02*
X33227047Y22502313D01*
D10*
X33227047Y22502313D02*
X33227047Y22225000D01*
D10*
X33227047Y22225000D02*
X33138312Y22225000D01*
D10*
X33138312Y22225000D02*
X33138312Y22881156D01*
D10*
X33138312Y22881156D02*
X33338703Y22881156D01*
D10*
X33338703Y22881156D02*
X33436930Y22869379D01*
D10*
X33436930Y22869379D02*
X33506609Y22834047D01*
D10*
X33506609Y22834047D02*
X33548164Y22775090D01*
D10*
X33548164Y22775090D02*
X33562016Y22692156D01*
D10*
X33562016Y22692156D02*
X33554809Y22635414D01*
D10*
X33554809Y22635414D02*
X33533187Y22589219D01*
D10*
X33533187Y22589219D02*
X33497855Y22554695D01*
D10*
X33497855Y22554695D02*
X33449516Y22532688D01*
D10*
X33227047Y22808172D02*
X33227047Y22575297D01*
D10*
X33227047Y22575297D02*
X33338703Y22575297D01*
D10*
X33338703Y22575297D02*
X33394988Y22582715D01*
D10*
X33394988Y22582715D02*
X33435594Y22604969D01*
D10*
X33435594Y22604969D02*
X33460168Y22641602D01*
D10*
X33460168Y22641602D02*
X33468359Y22692156D01*
D10*
X33468359Y22692156D02*
X33460168Y22742605D01*
D10*
X33460168Y22742605D02*
X33435594Y22778922D01*
D10*
X33435594Y22778922D02*
X33394988Y22800859D01*
D10*
X33394988Y22800859D02*
X33338703Y22808172D01*
D10*
X33338703Y22808172D02*
X33227047Y22808172D01*
D10*
X33961391Y22536625D02*
X33904859Y22528152D01*
D10*
X33904859Y22528152D02*
X33861828Y22502734D01*
D10*
X33861828Y22502734D02*
X33834723Y22462516D01*
D10*
X33834723Y22462516D02*
X33825688Y22409641D01*
D10*
X33825688Y22409641D02*
X33834723Y22356660D01*
D10*
X33834723Y22356660D02*
X33861828Y22316406D01*
D10*
X33861828Y22316406D02*
X33904859Y22290988D01*
D10*
X33904859Y22290988D02*
X33961391Y22282516D01*
D10*
X33961391Y22282516D02*
X34017957Y22291023D01*
D10*
X34017957Y22291023D02*
X34061094Y22316547D01*
D10*
X34061094Y22316547D02*
X34088516Y22356906D01*
D10*
X34088516Y22356906D02*
X34097656Y22409641D01*
D10*
X34097656Y22409641D02*
X34088586Y22462516D01*
D10*
X34088586Y22462516D02*
X34061375Y22502734D01*
D10*
X34061375Y22502734D02*
X34018309Y22528152D01*
D10*
X34018309Y22528152D02*
X33961391Y22536625D01*
D10*
X33872656Y22574312D02*
X33821855Y22594633D01*
D10*
X33821855Y22594633D02*
X33783641Y22627469D01*
D10*
X33783641Y22627469D02*
X33759805Y22670957D01*
D10*
X33759805Y22670957D02*
X33751859Y22722953D01*
D10*
X33751859Y22722953D02*
X33765852Y22793336D01*
D10*
X33765852Y22793336D02*
X33807828Y22847266D01*
D10*
X33807828Y22847266D02*
X33874273Y22881543D01*
D10*
X33874273Y22881543D02*
X33961391Y22892969D01*
D10*
X33961391Y22892969D02*
X34048859Y22881543D01*
D10*
X34048859Y22881543D02*
X34115234Y22847266D01*
D10*
X34115234Y22847266D02*
X34157105Y22793336D01*
D10*
X34157105Y22793336D02*
X34171062Y22722953D01*
D10*
X34171062Y22722953D02*
X34163082Y22670957D01*
D10*
X34163082Y22670957D02*
X34139141Y22627469D01*
D10*
X34139141Y22627469D02*
X34101137Y22594633D01*
D10*
X34101137Y22594633D02*
X34050687Y22574312D01*
D10*
X34050687Y22574312D02*
X34107711Y22552234D01*
D10*
X34107711Y22552234D02*
X34150531Y22515813D01*
D10*
X34150531Y22515813D02*
X34177426Y22467543D01*
D10*
X34177426Y22467543D02*
X34186391Y22409641D01*
D10*
X34186391Y22409641D02*
X34171836Y22325266D01*
D10*
X34171836Y22325266D02*
X34128172Y22263109D01*
D10*
X34128172Y22263109D02*
X34057367Y22224930D01*
D10*
X34057367Y22224930D02*
X33961391Y22212203D01*
D10*
X33961391Y22212203D02*
X33865484Y22224930D01*
D10*
X33865484Y22224930D02*
X33794609Y22263109D01*
D10*
X33794609Y22263109D02*
X33750945Y22325266D01*
D10*
X33750945Y22325266D02*
X33736391Y22409641D01*
D10*
X33736391Y22409641D02*
X33745391Y22467543D01*
D10*
X33745391Y22467543D02*
X33772391Y22515813D01*
D10*
X33772391Y22515813D02*
X33815527Y22552234D01*
D10*
X33815527Y22552234D02*
X33872656Y22574312D01*
D10*
X33840172Y22714516D02*
X33848117Y22669199D01*
D10*
X33848117Y22669199D02*
X33871953Y22635062D01*
D10*
X33871953Y22635062D02*
X33910273Y22613652D01*
D10*
X33910273Y22613652D02*
X33961391Y22606516D01*
D10*
X33961391Y22606516D02*
X34012367Y22613652D01*
D10*
X34012367Y22613652D02*
X34050828Y22635062D01*
D10*
X34050828Y22635062D02*
X34075086Y22669199D01*
D10*
X34075086Y22669199D02*
X34083172Y22714516D01*
D10*
X34083172Y22714516D02*
X34075086Y22759938D01*
D10*
X34075086Y22759938D02*
X34050828Y22794109D01*
D10*
X34050828Y22794109D02*
X34012367Y22815520D01*
D10*
X34012367Y22815520D02*
X33961391Y22822656D01*
D10*
X33961391Y22822656D02*
X33910273Y22815520D01*
D10*
X33910273Y22815520D02*
X33871953Y22794109D01*
D10*
X33871953Y22794109D02*
X33848117Y22759938D01*
D10*
X33848117Y22759938D02*
X33840172Y22714516D01*
D10*
X28236332Y21675000D02*
X28763668Y21675000D01*
D10*
X28763668Y23125000D02*
X28236332Y23125000D01*
D10*
X27629656Y24030531D02*
X27629656Y23937016D01*
D10*
X27629656Y23937016D02*
X27583320Y23973473D01*
D10*
X27583320Y23973473D02*
X27534031Y23999313D01*
D10*
X27534031Y23999313D02*
X27481684Y24014816D01*
D10*
X27481684Y24014816D02*
X27426172Y24019984D01*
D10*
X27426172Y24019984D02*
X27326855Y24002793D01*
D10*
X27326855Y24002793D02*
X27253906Y23951219D01*
D10*
X27253906Y23951219D02*
X27209082Y23867125D01*
D10*
X27209082Y23867125D02*
X27194141Y23752375D01*
D10*
X27194141Y23752375D02*
X27209082Y23637941D01*
D10*
X27209082Y23637941D02*
X27253906Y23553953D01*
D10*
X27253906Y23553953D02*
X27326855Y23502379D01*
D10*
X27326855Y23502379D02*
X27426172Y23485188D01*
D10*
X27426172Y23485188D02*
X27481684Y23490355D01*
D10*
X27481684Y23490355D02*
X27534031Y23505859D01*
D10*
X27534031Y23505859D02*
X27583320Y23531805D01*
D10*
X27583320Y23531805D02*
X27629656Y23568297D01*
D10*
X27629656Y23568297D02*
X27629656Y23475484D01*
D10*
X27629656Y23475484D02*
X27581703Y23447781D01*
D10*
X27581703Y23447781D02*
X27530938Y23427953D01*
D10*
X27530938Y23427953D02*
X27477430Y23416141D01*
D10*
X27477430Y23416141D02*
X27420969Y23412203D01*
D10*
X27420969Y23412203D02*
X27287727Y23434984D01*
D10*
X27287727Y23434984D02*
X27186125Y23503328D01*
D10*
X27186125Y23503328D02*
X27121895Y23611223D01*
D10*
X27121895Y23611223D02*
X27100484Y23752375D01*
D10*
X27100484Y23752375D02*
X27121895Y23893809D01*
D10*
X27121895Y23893809D02*
X27186125Y24001703D01*
D10*
X27186125Y24001703D02*
X27287727Y24070152D01*
D10*
X27287727Y24070152D02*
X27420969Y24092969D01*
D10*
X27420969Y24092969D02*
X27478062Y24089066D01*
D10*
X27478062Y24089066D02*
X27531781Y24077359D01*
D10*
X27531781Y24077359D02*
X27582336Y24057848D01*
D10*
X27582336Y24057848D02*
X27629656Y24030531D01*
D10*
X28043656Y23778812D02*
X28100363Y23757789D01*
D10*
X28100363Y23757789D02*
X28143078Y23722000D01*
D10*
X28143078Y23722000D02*
X28169973Y23673906D01*
D10*
X28169973Y23673906D02*
X28178938Y23615688D01*
D10*
X28178938Y23615688D02*
X28162238Y23529590D01*
D10*
X28162238Y23529590D02*
X28112141Y23465359D01*
D10*
X28112141Y23465359D02*
X28031281Y23425492D01*
D10*
X28031281Y23425492D02*
X27922297Y23412203D01*
D10*
X27922297Y23412203D02*
X27880461Y23414242D01*
D10*
X27880461Y23414242D02*
X27837359Y23420359D01*
D10*
X27837359Y23420359D02*
X27792922Y23430555D01*
D10*
X27792922Y23430555D02*
X27747078Y23444828D01*
D10*
X27747078Y23444828D02*
X27747078Y23530469D01*
D10*
X27747078Y23530469D02*
X27785680Y23511590D01*
D10*
X27785680Y23511590D02*
X27827797Y23497984D01*
D10*
X27827797Y23497984D02*
X27872797Y23489758D01*
D10*
X27872797Y23489758D02*
X27919766Y23487016D01*
D10*
X27919766Y23487016D02*
X27993242Y23495242D01*
D10*
X27993242Y23495242D02*
X28046891Y23519922D01*
D10*
X28046891Y23519922D02*
X28079691Y23560316D01*
D10*
X28079691Y23560316D02*
X28090625Y23615688D01*
D10*
X28090625Y23615688D02*
X28080465Y23667402D01*
D10*
X28080465Y23667402D02*
X28049984Y23706391D01*
D10*
X28049984Y23706391D02*
X28001398Y23730965D01*
D10*
X28001398Y23730965D02*
X27936922Y23739156D01*
D10*
X27936922Y23739156D02*
X27860422Y23739156D01*
D10*
X27860422Y23739156D02*
X27860422Y23812141D01*
D10*
X27860422Y23812141D02*
X27940438Y23812141D01*
D10*
X27940438Y23812141D02*
X27998164Y23818680D01*
D10*
X27998164Y23818680D02*
X28040562Y23838297D01*
D10*
X28040562Y23838297D02*
X28066613Y23870219D01*
D10*
X28066613Y23870219D02*
X28075297Y23913672D01*
D10*
X28075297Y23913672D02*
X28066332Y23958285D01*
D10*
X28066332Y23958285D02*
X28039438Y23991156D01*
D10*
X28039438Y23991156D02*
X27995949Y24011512D01*
D10*
X27995949Y24011512D02*
X27936922Y24018297D01*
D10*
X27936922Y24018297D02*
X27899059Y24016293D01*
D10*
X27899059Y24016293D02*
X27858594Y24010281D01*
D10*
X27858594Y24010281D02*
X27814754Y24000227D01*
D10*
X27814754Y24000227D02*
X27766766Y23985812D01*
D10*
X27766766Y23985812D02*
X27766766Y24064844D01*
D10*
X27766766Y24064844D02*
X27815773Y24077148D01*
D10*
X27815773Y24077148D02*
X27861547Y24085938D01*
D10*
X27861547Y24085938D02*
X27904438Y24091211D01*
D10*
X27904438Y24091211D02*
X27944797Y24092969D01*
D10*
X27944797Y24092969D02*
X28035324Y24081473D01*
D10*
X28035324Y24081473D02*
X28104688Y24046984D01*
D10*
X28104688Y24046984D02*
X28148879Y23993055D01*
D10*
X28148879Y23993055D02*
X28163609Y23922953D01*
D10*
X28163609Y23922953D02*
X28155805Y23872645D01*
D10*
X28155805Y23872645D02*
X28132391Y23830844D01*
D10*
X28132391Y23830844D02*
X28094598Y23799062D01*
D10*
X28094598Y23799062D02*
X28043656Y23778812D01*
D10*
X3730000Y13460000D02*
X6270000Y13460000D01*
D10*
X6270000Y13460000D02*
X6270000Y18540000D01*
D10*
X6270000Y18540000D02*
X3730000Y18540000D01*
D10*
X3730000Y18540000D02*
X3730000Y13460000D01*
D10*
X3818312Y19496156D02*
X3907047Y19496156D01*
D10*
X3907047Y19496156D02*
X3907047Y18885703D01*
D10*
X3907047Y18885703D02*
X3895797Y18783293D01*
D10*
X3895797Y18783293D02*
X3862047Y18713438D01*
D10*
X3862047Y18713438D02*
X3803336Y18673254D01*
D10*
X3803336Y18673254D02*
X3717203Y18659859D01*
D10*
X3717203Y18659859D02*
X3683453Y18659859D01*
D10*
X3683453Y18659859D02*
X3683453Y18734531D01*
D10*
X3683453Y18734531D02*
X3711156Y18734531D01*
D10*
X3711156Y18734531D02*
X3761289Y18742793D01*
D10*
X3761289Y18742793D02*
X3794125Y18767578D01*
D10*
X3794125Y18767578D02*
X3812266Y18813562D01*
D10*
X3812266Y18813562D02*
X3818312Y18885703D01*
D10*
X3818312Y18885703D02*
X3818312Y19496156D01*
D10*
X4107156Y18914672D02*
X4252141Y18914672D01*
D10*
X4252141Y18914672D02*
X4252141Y19415297D01*
D10*
X4252141Y19415297D02*
X4094359Y19383656D01*
D10*
X4094359Y19383656D02*
X4094359Y19464516D01*
D10*
X4094359Y19464516D02*
X4251297Y19496156D01*
D10*
X4251297Y19496156D02*
X4340031Y19496156D01*
D10*
X4340031Y19496156D02*
X4340031Y18914672D01*
D10*
X4340031Y18914672D02*
X4485016Y18914672D01*
D10*
X4485016Y18914672D02*
X4485016Y18840000D01*
D10*
X4485016Y18840000D02*
X4107156Y18840000D01*
D10*
X4107156Y18840000D02*
X4107156Y18914672D01*
D10*
X3730000Y21460000D02*
X6270000Y21460000D01*
D10*
X6270000Y21460000D02*
X6270000Y26540000D01*
D10*
X6270000Y26540000D02*
X3730000Y26540000D01*
D10*
X3730000Y26540000D02*
X3730000Y21460000D01*
D10*
X3818312Y27496156D02*
X3907047Y27496156D01*
D10*
X3907047Y27496156D02*
X3907047Y26885703D01*
D10*
X3907047Y26885703D02*
X3895797Y26783293D01*
D10*
X3895797Y26783293D02*
X3862047Y26713438D01*
D10*
X3862047Y26713438D02*
X3803336Y26673254D01*
D10*
X3803336Y26673254D02*
X3717203Y26659859D01*
D10*
X3717203Y26659859D02*
X3683453Y26659859D01*
D10*
X3683453Y26659859D02*
X3683453Y26734531D01*
D10*
X3683453Y26734531D02*
X3711156Y26734531D01*
D10*
X3711156Y26734531D02*
X3761289Y26742793D01*
D10*
X3761289Y26742793D02*
X3794125Y26767578D01*
D10*
X3794125Y26767578D02*
X3812266Y26813562D01*
D10*
X3812266Y26813562D02*
X3818312Y26885703D01*
D10*
X3818312Y26885703D02*
X3818312Y27496156D01*
D10*
X4168188Y26914672D02*
X4477984Y26914672D01*
D10*
X4477984Y26914672D02*
X4477984Y26840000D01*
D10*
X4477984Y26840000D02*
X4061453Y26840000D01*
D10*
X4061453Y26840000D02*
X4061453Y26914672D01*
D10*
X4061453Y26914672D02*
X4121113Y26975914D01*
D10*
X4121113Y26975914D02*
X4199125Y27055016D01*
D10*
X4199125Y27055016D02*
X4270211Y27127543D01*
D10*
X4270211Y27127543D02*
X4308812Y27168781D01*
D10*
X4308812Y27168781D02*
X4344988Y27212938D01*
D10*
X4344988Y27212938D02*
X4368297Y27249781D01*
D10*
X4368297Y27249781D02*
X4381059Y27282688D01*
D10*
X4381059Y27282688D02*
X4385312Y27315031D01*
D10*
X4385312Y27315031D02*
X4376137Y27362492D01*
D10*
X4376137Y27362492D02*
X4348609Y27400250D01*
D10*
X4348609Y27400250D02*
X4306352Y27425035D01*
D10*
X4306352Y27425035D02*
X4252984Y27433297D01*
D10*
X4252984Y27433297D02*
X4210059Y27429676D01*
D10*
X4210059Y27429676D02*
X4164812Y27418812D01*
D10*
X4164812Y27418812D02*
X4116930Y27400566D01*
D10*
X4116930Y27400566D02*
X4065812Y27374797D01*
D10*
X4065812Y27374797D02*
X4065812Y27464516D01*
D10*
X4065812Y27464516D02*
X4117633Y27483395D01*
D10*
X4117633Y27483395D02*
X4165938Y27497000D01*
D10*
X4165938Y27497000D02*
X4210621Y27505227D01*
D10*
X4210621Y27505227D02*
X4251297Y27507969D01*
D10*
X4251297Y27507969D02*
X4342914Y27495207D01*
D10*
X4342914Y27495207D02*
X4413859Y27456922D01*
D10*
X4413859Y27456922D02*
X4459316Y27397438D01*
D10*
X4459316Y27397438D02*
X4474469Y27320797D01*
D10*
X4474469Y27320797D02*
X4470672Y27281352D01*
D10*
X4470672Y27281352D02*
X4459281Y27244016D01*
D10*
X4459281Y27244016D02*
X4437977Y27204605D01*
D10*
X4437977Y27204605D02*
X4404156Y27158656D01*
D10*
X4404156Y27158656D02*
X4381199Y27133836D01*
D10*
X4381199Y27133836D02*
X4334266Y27084969D01*
D10*
X4334266Y27084969D02*
X4263355Y27011949D01*
D10*
X4263355Y27011949D02*
X4168188Y26914672D01*
D10*
X43730000Y12460000D02*
X46270000Y12460000D01*
D10*
X46270000Y12460000D02*
X46270000Y17540000D01*
D10*
X46270000Y17540000D02*
X43730000Y17540000D01*
D10*
X43730000Y17540000D02*
X43730000Y12460000D01*
D10*
X43818312Y18496156D02*
X43907047Y18496156D01*
D10*
X43907047Y18496156D02*
X43907047Y17885703D01*
D10*
X43907047Y17885703D02*
X43895797Y17783293D01*
D10*
X43895797Y17783293D02*
X43862047Y17713438D01*
D10*
X43862047Y17713438D02*
X43803336Y17673254D01*
D10*
X43803336Y17673254D02*
X43717203Y17659859D01*
D10*
X43717203Y17659859D02*
X43683453Y17659859D01*
D10*
X43683453Y17659859D02*
X43683453Y17734531D01*
D10*
X43683453Y17734531D02*
X43711156Y17734531D01*
D10*
X43711156Y17734531D02*
X43761289Y17742793D01*
D10*
X43761289Y17742793D02*
X43794125Y17767578D01*
D10*
X43794125Y17767578D02*
X43812266Y17813562D01*
D10*
X43812266Y17813562D02*
X43818312Y17885703D01*
D10*
X43818312Y17885703D02*
X43818312Y18496156D01*
D10*
X44360703Y18193812D02*
X44417410Y18172789D01*
D10*
X44417410Y18172789D02*
X44460125Y18137000D01*
D10*
X44460125Y18137000D02*
X44487020Y18088906D01*
D10*
X44487020Y18088906D02*
X44495984Y18030688D01*
D10*
X44495984Y18030688D02*
X44479285Y17944590D01*
D10*
X44479285Y17944590D02*
X44429188Y17880359D01*
D10*
X44429188Y17880359D02*
X44348328Y17840492D01*
D10*
X44348328Y17840492D02*
X44239344Y17827203D01*
D10*
X44239344Y17827203D02*
X44197508Y17829242D01*
D10*
X44197508Y17829242D02*
X44154406Y17835359D01*
D10*
X44154406Y17835359D02*
X44109969Y17845555D01*
D10*
X44109969Y17845555D02*
X44064125Y17859828D01*
D10*
X44064125Y17859828D02*
X44064125Y17945469D01*
D10*
X44064125Y17945469D02*
X44102727Y17926590D01*
D10*
X44102727Y17926590D02*
X44144844Y17912984D01*
D10*
X44144844Y17912984D02*
X44189844Y17904758D01*
D10*
X44189844Y17904758D02*
X44236812Y17902016D01*
D10*
X44236812Y17902016D02*
X44310289Y17910242D01*
D10*
X44310289Y17910242D02*
X44363938Y17934922D01*
D10*
X44363938Y17934922D02*
X44396738Y17975316D01*
D10*
X44396738Y17975316D02*
X44407672Y18030688D01*
D10*
X44407672Y18030688D02*
X44397512Y18082402D01*
D10*
X44397512Y18082402D02*
X44367031Y18121391D01*
D10*
X44367031Y18121391D02*
X44318445Y18145965D01*
D10*
X44318445Y18145965D02*
X44253969Y18154156D01*
D10*
X44253969Y18154156D02*
X44177469Y18154156D01*
D10*
X44177469Y18154156D02*
X44177469Y18227141D01*
D10*
X44177469Y18227141D02*
X44257484Y18227141D01*
D10*
X44257484Y18227141D02*
X44315211Y18233680D01*
D10*
X44315211Y18233680D02*
X44357609Y18253297D01*
D10*
X44357609Y18253297D02*
X44383660Y18285219D01*
D10*
X44383660Y18285219D02*
X44392344Y18328672D01*
D10*
X44392344Y18328672D02*
X44383379Y18373285D01*
D10*
X44383379Y18373285D02*
X44356484Y18406156D01*
D10*
X44356484Y18406156D02*
X44312996Y18426512D01*
D10*
X44312996Y18426512D02*
X44253969Y18433297D01*
D10*
X44253969Y18433297D02*
X44216105Y18431293D01*
D10*
X44216105Y18431293D02*
X44175641Y18425281D01*
D10*
X44175641Y18425281D02*
X44131801Y18415227D01*
D10*
X44131801Y18415227D02*
X44083812Y18400812D01*
D10*
X44083812Y18400812D02*
X44083812Y18479844D01*
D10*
X44083812Y18479844D02*
X44132820Y18492148D01*
D10*
X44132820Y18492148D02*
X44178594Y18500938D01*
D10*
X44178594Y18500938D02*
X44221484Y18506211D01*
D10*
X44221484Y18506211D02*
X44261844Y18507969D01*
D10*
X44261844Y18507969D02*
X44352371Y18496473D01*
D10*
X44352371Y18496473D02*
X44421734Y18461984D01*
D10*
X44421734Y18461984D02*
X44465926Y18408055D01*
D10*
X44465926Y18408055D02*
X44480656Y18337953D01*
D10*
X44480656Y18337953D02*
X44472852Y18287645D01*
D10*
X44472852Y18287645D02*
X44449437Y18245844D01*
D10*
X44449437Y18245844D02*
X44411645Y18214062D01*
D10*
X44411645Y18214062D02*
X44360703Y18193812D01*
D10*
X43730000Y20460000D02*
X46270000Y20460000D01*
D10*
X46270000Y20460000D02*
X46270000Y25540000D01*
D10*
X46270000Y25540000D02*
X43730000Y25540000D01*
D10*
X43730000Y25540000D02*
X43730000Y20460000D01*
D10*
X43818312Y26496156D02*
X43907047Y26496156D01*
D10*
X43907047Y26496156D02*
X43907047Y25885703D01*
D10*
X43907047Y25885703D02*
X43895797Y25783293D01*
D10*
X43895797Y25783293D02*
X43862047Y25713438D01*
D10*
X43862047Y25713438D02*
X43803336Y25673254D01*
D10*
X43803336Y25673254D02*
X43717203Y25659859D01*
D10*
X43717203Y25659859D02*
X43683453Y25659859D01*
D10*
X43683453Y25659859D02*
X43683453Y25734531D01*
D10*
X43683453Y25734531D02*
X43711156Y25734531D01*
D10*
X43711156Y25734531D02*
X43761289Y25742793D01*
D10*
X43761289Y25742793D02*
X43794125Y25767578D01*
D10*
X43794125Y25767578D02*
X43812266Y25813562D01*
D10*
X43812266Y25813562D02*
X43818312Y25885703D01*
D10*
X43818312Y25885703D02*
X43818312Y26496156D01*
D10*
X44335672Y26418812D02*
X44111516Y26068516D01*
D10*
X44111516Y26068516D02*
X44335672Y26068516D01*
D10*
X44335672Y26068516D02*
X44335672Y26418812D01*
D10*
X44312328Y26496156D02*
X44423984Y26496156D01*
D10*
X44423984Y26496156D02*
X44423984Y26068516D01*
D10*
X44423984Y26068516D02*
X44517641Y26068516D01*
D10*
X44517641Y26068516D02*
X44517641Y25994688D01*
D10*
X44517641Y25994688D02*
X44423984Y25994688D01*
D10*
X44423984Y25994688D02*
X44423984Y25840000D01*
D10*
X44423984Y25840000D02*
X44335672Y25840000D01*
D10*
X44335672Y25840000D02*
X44335672Y25994688D01*
D10*
X44335672Y25994688D02*
X44039516Y25994688D01*
D10*
X44039516Y25994688D02*
X44039516Y26080328D01*
D10*
X44039516Y26080328D02*
X44312328Y26496156D01*
D10*
X21190000Y3730000D02*
X28810000Y3730000D01*
D10*
X28810000Y3730000D02*
X28810000Y6270000D01*
D10*
X28810000Y6270000D02*
X21190000Y6270000D01*
D10*
X21190000Y6270000D02*
X21190000Y3730000D01*
D10*
X21278312Y7226156D02*
X21367047Y7226156D01*
D10*
X21367047Y7226156D02*
X21367047Y6615703D01*
D10*
X21367047Y6615703D02*
X21355797Y6513293D01*
D10*
X21355797Y6513293D02*
X21322047Y6443437D01*
D10*
X21322047Y6443437D02*
X21263336Y6403254D01*
D10*
X21263336Y6403254D02*
X21177203Y6389859D01*
D10*
X21177203Y6389859D02*
X21143453Y6389859D01*
D10*
X21143453Y6389859D02*
X21143453Y6464531D01*
D10*
X21143453Y6464531D02*
X21171156Y6464531D01*
D10*
X21171156Y6464531D02*
X21221289Y6472793D01*
D10*
X21221289Y6472793D02*
X21254125Y6497578D01*
D10*
X21254125Y6497578D02*
X21272266Y6543562D01*
D10*
X21272266Y6543562D02*
X21278312Y6615703D01*
D10*
X21278312Y6615703D02*
X21278312Y7226156D01*
D10*
X21552672Y7226156D02*
X21901141Y7226156D01*
D10*
X21901141Y7226156D02*
X21901141Y7151344D01*
D10*
X21901141Y7151344D02*
X21633953Y7151344D01*
D10*
X21633953Y7151344D02*
X21633953Y6990609D01*
D10*
X21633953Y6990609D02*
X21653219Y6996375D01*
D10*
X21653219Y6996375D02*
X21672484Y7000453D01*
D10*
X21672484Y7000453D02*
X21691891Y7002879D01*
D10*
X21691891Y7002879D02*
X21711297Y7003688D01*
D10*
X21711297Y7003688D02*
X21809699Y6988641D01*
D10*
X21809699Y6988641D02*
X21885250Y6943500D01*
D10*
X21885250Y6943500D02*
X21933449Y6872660D01*
D10*
X21933449Y6872660D02*
X21949516Y6780516D01*
D10*
X21949516Y6780516D02*
X21933027Y6686402D01*
D10*
X21933027Y6686402D02*
X21883562Y6615844D01*
D10*
X21883562Y6615844D02*
X21804109Y6571863D01*
D10*
X21804109Y6571863D02*
X21697656Y6557203D01*
D10*
X21697656Y6557203D02*
X21655926Y6558961D01*
D10*
X21655926Y6558961D02*
X21613422Y6564234D01*
D10*
X21613422Y6564234D02*
X21569934Y6573023D01*
D10*
X21569934Y6573023D02*
X21524969Y6585328D01*
D10*
X21524969Y6585328D02*
X21524969Y6674625D01*
D10*
X21524969Y6674625D02*
X21565152Y6655852D01*
D10*
X21565152Y6655852D02*
X21606672Y6642562D01*
D10*
X21606672Y6642562D02*
X21650055Y6634652D01*
D10*
X21650055Y6634652D02*
X21695828Y6632016D01*
D10*
X21695828Y6632016D02*
X21763961Y6642000D01*
D10*
X21763961Y6642000D02*
X21816203Y6671953D01*
D10*
X21816203Y6671953D02*
X21849531Y6719062D01*
D10*
X21849531Y6719062D02*
X21860641Y6780516D01*
D10*
X21860641Y6780516D02*
X21849531Y6841863D01*
D10*
X21849531Y6841863D02*
X21816203Y6888937D01*
D10*
X21816203Y6888937D02*
X21763961Y6918996D01*
D10*
X21763961Y6918996D02*
X21695828Y6929016D01*
D10*
X21695828Y6929016D02*
X21660285Y6927047D01*
D10*
X21660285Y6927047D02*
X21624812Y6921141D01*
D10*
X21624812Y6921141D02*
X21589129Y6911051D01*
D10*
X21589129Y6911051D02*
X21552672Y6896531D01*
D10*
X21552672Y6896531D02*
X21552672Y7226156D01*
D10*
X17250674Y4100000D02*
X18749326Y4100000D01*
D10*
X18749326Y5900000D02*
X17250674Y5900000D01*
D10*
X16529656Y6805531D02*
X16529656Y6712016D01*
D10*
X16529656Y6712016D02*
X16483320Y6748473D01*
D10*
X16483320Y6748473D02*
X16434031Y6774313D01*
D10*
X16434031Y6774313D02*
X16381684Y6789816D01*
D10*
X16381684Y6789816D02*
X16326172Y6794984D01*
D10*
X16326172Y6794984D02*
X16226855Y6777793D01*
D10*
X16226855Y6777793D02*
X16153906Y6726219D01*
D10*
X16153906Y6726219D02*
X16109082Y6642125D01*
D10*
X16109082Y6642125D02*
X16094141Y6527375D01*
D10*
X16094141Y6527375D02*
X16109082Y6412941D01*
D10*
X16109082Y6412941D02*
X16153906Y6328953D01*
D10*
X16153906Y6328953D02*
X16226855Y6277379D01*
D10*
X16226855Y6277379D02*
X16326172Y6260188D01*
D10*
X16326172Y6260188D02*
X16381684Y6265355D01*
D10*
X16381684Y6265355D02*
X16434031Y6280859D01*
D10*
X16434031Y6280859D02*
X16483320Y6306805D01*
D10*
X16483320Y6306805D02*
X16529656Y6343297D01*
D10*
X16529656Y6343297D02*
X16529656Y6250484D01*
D10*
X16529656Y6250484D02*
X16481703Y6222781D01*
D10*
X16481703Y6222781D02*
X16430937Y6202953D01*
D10*
X16430937Y6202953D02*
X16377430Y6191141D01*
D10*
X16377430Y6191141D02*
X16320969Y6187203D01*
D10*
X16320969Y6187203D02*
X16187727Y6209984D01*
D10*
X16187727Y6209984D02*
X16086125Y6278328D01*
D10*
X16086125Y6278328D02*
X16021895Y6386223D01*
D10*
X16021895Y6386223D02*
X16000484Y6527375D01*
D10*
X16000484Y6527375D02*
X16021895Y6668809D01*
D10*
X16021895Y6668809D02*
X16086125Y6776703D01*
D10*
X16086125Y6776703D02*
X16187727Y6845152D01*
D10*
X16187727Y6845152D02*
X16320969Y6867969D01*
D10*
X16320969Y6867969D02*
X16378062Y6864066D01*
D10*
X16378062Y6864066D02*
X16431781Y6852359D01*
D10*
X16431781Y6852359D02*
X16482336Y6832848D01*
D10*
X16482336Y6832848D02*
X16529656Y6805531D01*
D10*
X16675625Y6856156D02*
X17024094Y6856156D01*
D10*
X17024094Y6856156D02*
X17024094Y6781344D01*
D10*
X17024094Y6781344D02*
X16756906Y6781344D01*
D10*
X16756906Y6781344D02*
X16756906Y6620609D01*
D10*
X16756906Y6620609D02*
X16776172Y6626375D01*
D10*
X16776172Y6626375D02*
X16795438Y6630453D01*
D10*
X16795438Y6630453D02*
X16814844Y6632879D01*
D10*
X16814844Y6632879D02*
X16834250Y6633688D01*
D10*
X16834250Y6633688D02*
X16932652Y6618641D01*
D10*
X16932652Y6618641D02*
X17008203Y6573500D01*
D10*
X17008203Y6573500D02*
X17056402Y6502660D01*
D10*
X17056402Y6502660D02*
X17072469Y6410516D01*
D10*
X17072469Y6410516D02*
X17055980Y6316402D01*
D10*
X17055980Y6316402D02*
X17006516Y6245844D01*
D10*
X17006516Y6245844D02*
X16927062Y6201863D01*
D10*
X16927062Y6201863D02*
X16820609Y6187203D01*
D10*
X16820609Y6187203D02*
X16778879Y6188961D01*
D10*
X16778879Y6188961D02*
X16736375Y6194234D01*
D10*
X16736375Y6194234D02*
X16692887Y6203023D01*
D10*
X16692887Y6203023D02*
X16647922Y6215328D01*
D10*
X16647922Y6215328D02*
X16647922Y6304625D01*
D10*
X16647922Y6304625D02*
X16688105Y6285852D01*
D10*
X16688105Y6285852D02*
X16729625Y6272562D01*
D10*
X16729625Y6272562D02*
X16773008Y6264652D01*
D10*
X16773008Y6264652D02*
X16818781Y6262016D01*
D10*
X16818781Y6262016D02*
X16886914Y6272000D01*
D10*
X16886914Y6272000D02*
X16939156Y6301953D01*
D10*
X16939156Y6301953D02*
X16972484Y6349063D01*
D10*
X16972484Y6349063D02*
X16983594Y6410516D01*
D10*
X16983594Y6410516D02*
X16972484Y6471863D01*
D10*
X16972484Y6471863D02*
X16939156Y6518938D01*
D10*
X16939156Y6518938D02*
X16886914Y6548996D01*
D10*
X16886914Y6548996D02*
X16818781Y6559016D01*
D10*
X16818781Y6559016D02*
X16783238Y6557047D01*
D10*
X16783238Y6557047D02*
X16747766Y6551141D01*
D10*
X16747766Y6551141D02*
X16712082Y6541051D01*
D10*
X16712082Y6541051D02*
X16675625Y6526531D01*
D10*
X16675625Y6526531D02*
X16675625Y6856156D01*
D10*
X31250674Y4100000D02*
X32749326Y4100000D01*
D10*
X32749326Y5900000D02*
X31250674Y5900000D01*
D10*
X30529656Y6805531D02*
X30529656Y6712016D01*
D10*
X30529656Y6712016D02*
X30483320Y6748473D01*
D10*
X30483320Y6748473D02*
X30434031Y6774313D01*
D10*
X30434031Y6774313D02*
X30381684Y6789816D01*
D10*
X30381684Y6789816D02*
X30326172Y6794984D01*
D10*
X30326172Y6794984D02*
X30226855Y6777793D01*
D10*
X30226855Y6777793D02*
X30153906Y6726219D01*
D10*
X30153906Y6726219D02*
X30109082Y6642125D01*
D10*
X30109082Y6642125D02*
X30094141Y6527375D01*
D10*
X30094141Y6527375D02*
X30109082Y6412941D01*
D10*
X30109082Y6412941D02*
X30153906Y6328953D01*
D10*
X30153906Y6328953D02*
X30226855Y6277379D01*
D10*
X30226855Y6277379D02*
X30326172Y6260188D01*
D10*
X30326172Y6260188D02*
X30381684Y6265355D01*
D10*
X30381684Y6265355D02*
X30434031Y6280859D01*
D10*
X30434031Y6280859D02*
X30483320Y6306805D01*
D10*
X30483320Y6306805D02*
X30529656Y6343297D01*
D10*
X30529656Y6343297D02*
X30529656Y6250484D01*
D10*
X30529656Y6250484D02*
X30481703Y6222781D01*
D10*
X30481703Y6222781D02*
X30430938Y6202953D01*
D10*
X30430938Y6202953D02*
X30377430Y6191141D01*
D10*
X30377430Y6191141D02*
X30320969Y6187203D01*
D10*
X30320969Y6187203D02*
X30187727Y6209984D01*
D10*
X30187727Y6209984D02*
X30086125Y6278328D01*
D10*
X30086125Y6278328D02*
X30021895Y6386223D01*
D10*
X30021895Y6386223D02*
X30000484Y6527375D01*
D10*
X30000484Y6527375D02*
X30021895Y6668809D01*
D10*
X30021895Y6668809D02*
X30086125Y6776703D01*
D10*
X30086125Y6776703D02*
X30187727Y6845152D01*
D10*
X30187727Y6845152D02*
X30320969Y6867969D01*
D10*
X30320969Y6867969D02*
X30378062Y6864066D01*
D10*
X30378062Y6864066D02*
X30431781Y6852359D01*
D10*
X30431781Y6852359D02*
X30482336Y6832848D01*
D10*
X30482336Y6832848D02*
X30529656Y6805531D01*
D10*
X30875594Y6563375D02*
X30822016Y6553145D01*
D10*
X30822016Y6553145D02*
X30780812Y6522453D01*
D10*
X30780812Y6522453D02*
X30754656Y6474078D01*
D10*
X30754656Y6474078D02*
X30745938Y6410516D01*
D10*
X30745938Y6410516D02*
X30754656Y6347164D01*
D10*
X30754656Y6347164D02*
X30780812Y6298578D01*
D10*
X30780812Y6298578D02*
X30822016Y6267781D01*
D10*
X30822016Y6267781D02*
X30875594Y6257516D01*
D10*
X30875594Y6257516D02*
X30929137Y6267781D01*
D10*
X30929137Y6267781D02*
X30970234Y6298578D01*
D10*
X30970234Y6298578D02*
X30996391Y6347164D01*
D10*
X30996391Y6347164D02*
X31005109Y6410516D01*
D10*
X31005109Y6410516D02*
X30996391Y6474078D01*
D10*
X30996391Y6474078D02*
X30970234Y6522453D01*
D10*
X30970234Y6522453D02*
X30929137Y6553145D01*
D10*
X30929137Y6553145D02*
X30875594Y6563375D01*
D10*
X31051797Y6841672D02*
X31051797Y6760812D01*
D10*
X31051797Y6760812D02*
X31018188Y6774699D01*
D10*
X31018188Y6774699D02*
X30984297Y6784859D01*
D10*
X30984297Y6784859D02*
X30950406Y6791188D01*
D10*
X30950406Y6791188D02*
X30916797Y6793297D01*
D10*
X30916797Y6793297D02*
X30839277Y6778461D01*
D10*
X30839277Y6778461D02*
X30782500Y6733953D01*
D10*
X30782500Y6733953D02*
X30746148Y6659457D01*
D10*
X30746148Y6659457D02*
X30729625Y6554656D01*
D10*
X30729625Y6554656D02*
X30758805Y6588441D01*
D10*
X30758805Y6588441D02*
X30794594Y6613297D01*
D10*
X30794594Y6613297D02*
X30835762Y6628590D01*
D10*
X30835762Y6628590D02*
X30880797Y6633688D01*
D10*
X30880797Y6633688D02*
X30969285Y6618676D01*
D10*
X30969285Y6618676D02*
X31037031Y6573641D01*
D10*
X31037031Y6573641D02*
X31080062Y6502906D01*
D10*
X31080062Y6502906D02*
X31094406Y6410516D01*
D10*
X31094406Y6410516D02*
X31079465Y6319391D01*
D10*
X31079465Y6319391D02*
X31034641Y6248234D01*
D10*
X31034641Y6248234D02*
X30964996Y6202461D01*
D10*
X30964996Y6202461D02*
X30875594Y6187203D01*
D10*
X30875594Y6187203D02*
X30775117Y6209000D01*
D10*
X30775117Y6209000D02*
X30701500Y6274391D01*
D10*
X30701500Y6274391D02*
X30656359Y6381301D01*
D10*
X30656359Y6381301D02*
X30641312Y6527375D01*
D10*
X30641312Y6527375D02*
X30659770Y6667156D01*
D10*
X30659770Y6667156D02*
X30715141Y6775438D01*
D10*
X30715141Y6775438D02*
X30801590Y6844836D01*
D10*
X30801590Y6844836D02*
X30913281Y6867969D01*
D10*
X30913281Y6867969D02*
X30946891Y6866316D01*
D10*
X30946891Y6866316D02*
X30980781Y6861359D01*
D10*
X30980781Y6861359D02*
X31015551Y6853133D01*
D10*
X31015551Y6853133D02*
X31051797Y6841672D01*
M02*
