G04 Nyquist Labs eelab.pcb*
%TF.FileFunction,Soldermask,Top*%
%TF.FilePolarity,Negative*%
%FSLAX46Y46*%
%MOMM*%
%LPD*%
%ADD10R,1.8000X1.8000*%
%ADD11C,1.8000*%
%ADD12C,3.3000*%
G01*
%LPD*%
G36*
X23375000Y19555000D02*
X21675000Y19555000D01*
X21629707Y19560963D01*
X21587500Y19578446D01*
X21551256Y19606256D01*
X21523446Y19642500D01*
X21505963Y19684707D01*
X21500000Y19730000D01*
X21500000Y20080000D01*
X21505963Y20125293D01*
X21523446Y20167500D01*
X21551256Y20203744D01*
X21587500Y20231554D01*
X21629707Y20249037D01*
X21675000Y20255000D01*
X23375000Y20255000D01*
X23420293Y20249037D01*
X23462500Y20231554D01*
X23498744Y20203744D01*
X23526554Y20167500D01*
X23544037Y20125293D01*
X23550000Y20080000D01*
X23550000Y19730000D01*
X23544037Y19684707D01*
X23526554Y19642500D01*
X23498744Y19606256D01*
X23462500Y19578446D01*
X23420293Y19560963D01*
X23375000Y19555000D01*
G37*
%LPD*%
%LPD*%
G36*
X23375000Y18285000D02*
X21675000Y18285000D01*
X21629707Y18290963D01*
X21587500Y18308446D01*
X21551256Y18336256D01*
X21523446Y18372500D01*
X21505963Y18414707D01*
X21500000Y18460000D01*
X21500000Y18810000D01*
X21505963Y18855293D01*
X21523446Y18897500D01*
X21551256Y18933744D01*
X21587500Y18961554D01*
X21629707Y18979037D01*
X21675000Y18985000D01*
X23375000Y18985000D01*
X23420293Y18979037D01*
X23462500Y18961554D01*
X23498744Y18933744D01*
X23526554Y18897500D01*
X23544037Y18855293D01*
X23550000Y18810000D01*
X23550000Y18460000D01*
X23544037Y18414707D01*
X23526554Y18372500D01*
X23498744Y18336256D01*
X23462500Y18308446D01*
X23420293Y18290963D01*
X23375000Y18285000D01*
G37*
%LPD*%
%LPD*%
G36*
X23375000Y17015000D02*
X21675000Y17015000D01*
X21629707Y17020963D01*
X21587500Y17038446D01*
X21551256Y17066256D01*
X21523446Y17102500D01*
X21505963Y17144707D01*
X21500000Y17190000D01*
X21500000Y17540000D01*
X21505963Y17585293D01*
X21523446Y17627500D01*
X21551256Y17663744D01*
X21587500Y17691554D01*
X21629707Y17709037D01*
X21675000Y17715000D01*
X23375000Y17715000D01*
X23420293Y17709037D01*
X23462500Y17691554D01*
X23498744Y17663744D01*
X23526554Y17627500D01*
X23544037Y17585293D01*
X23550000Y17540000D01*
X23550000Y17190000D01*
X23544037Y17144707D01*
X23526554Y17102500D01*
X23498744Y17066256D01*
X23462500Y17038446D01*
X23420293Y17020963D01*
X23375000Y17015000D01*
G37*
%LPD*%
%LPD*%
G36*
X23375000Y15745000D02*
X21675000Y15745000D01*
X21629707Y15750963D01*
X21587500Y15768446D01*
X21551256Y15796256D01*
X21523446Y15832500D01*
X21505963Y15874707D01*
X21500000Y15920000D01*
X21500000Y16270000D01*
X21505963Y16315293D01*
X21523446Y16357500D01*
X21551256Y16393744D01*
X21587500Y16421554D01*
X21629707Y16439037D01*
X21675000Y16445000D01*
X23375000Y16445000D01*
X23420293Y16439037D01*
X23462500Y16421554D01*
X23498744Y16393744D01*
X23526554Y16357500D01*
X23544037Y16315293D01*
X23550000Y16270000D01*
X23550000Y15920000D01*
X23544037Y15874707D01*
X23526554Y15832500D01*
X23498744Y15796256D01*
X23462500Y15768446D01*
X23420293Y15750963D01*
X23375000Y15745000D01*
G37*
%LPD*%
%LPD*%
G36*
X28325000Y15745000D02*
X26625000Y15745000D01*
X26579707Y15750963D01*
X26537500Y15768446D01*
X26501256Y15796256D01*
X26473446Y15832500D01*
X26455963Y15874707D01*
X26450000Y15920000D01*
X26450000Y16270000D01*
X26455963Y16315293D01*
X26473446Y16357500D01*
X26501256Y16393744D01*
X26537500Y16421554D01*
X26579707Y16439037D01*
X26625000Y16445000D01*
X28325000Y16445000D01*
X28370293Y16439037D01*
X28412500Y16421554D01*
X28448744Y16393744D01*
X28476554Y16357500D01*
X28494037Y16315293D01*
X28500000Y16270000D01*
X28500000Y15920000D01*
X28494037Y15874707D01*
X28476554Y15832500D01*
X28448744Y15796256D01*
X28412500Y15768446D01*
X28370293Y15750963D01*
X28325000Y15745000D01*
G37*
%LPD*%
%LPD*%
G36*
X28325000Y17015000D02*
X26625000Y17015000D01*
X26579707Y17020963D01*
X26537500Y17038446D01*
X26501256Y17066256D01*
X26473446Y17102500D01*
X26455963Y17144707D01*
X26450000Y17190000D01*
X26450000Y17540000D01*
X26455963Y17585293D01*
X26473446Y17627500D01*
X26501256Y17663744D01*
X26537500Y17691554D01*
X26579707Y17709037D01*
X26625000Y17715000D01*
X28325000Y17715000D01*
X28370293Y17709037D01*
X28412500Y17691554D01*
X28448744Y17663744D01*
X28476554Y17627500D01*
X28494037Y17585293D01*
X28500000Y17540000D01*
X28500000Y17190000D01*
X28494037Y17144707D01*
X28476554Y17102500D01*
X28448744Y17066256D01*
X28412500Y17038446D01*
X28370293Y17020963D01*
X28325000Y17015000D01*
G37*
%LPD*%
%LPD*%
G36*
X28325000Y18285000D02*
X26625000Y18285000D01*
X26579707Y18290963D01*
X26537500Y18308446D01*
X26501256Y18336256D01*
X26473446Y18372500D01*
X26455963Y18414707D01*
X26450000Y18460000D01*
X26450000Y18810000D01*
X26455963Y18855293D01*
X26473446Y18897500D01*
X26501256Y18933744D01*
X26537500Y18961554D01*
X26579707Y18979037D01*
X26625000Y18985000D01*
X28325000Y18985000D01*
X28370293Y18979037D01*
X28412500Y18961554D01*
X28448744Y18933744D01*
X28476554Y18897500D01*
X28494037Y18855293D01*
X28500000Y18810000D01*
X28500000Y18460000D01*
X28494037Y18414707D01*
X28476554Y18372500D01*
X28448744Y18336256D01*
X28412500Y18308446D01*
X28370293Y18290963D01*
X28325000Y18285000D01*
G37*
%LPD*%
%LPD*%
G36*
X28325000Y19555000D02*
X26625000Y19555000D01*
X26579707Y19560963D01*
X26537500Y19578446D01*
X26501256Y19606256D01*
X26473446Y19642500D01*
X26455963Y19684707D01*
X26450000Y19730000D01*
X26450000Y20080000D01*
X26455963Y20125293D01*
X26473446Y20167500D01*
X26501256Y20203744D01*
X26537500Y20231554D01*
X26579707Y20249037D01*
X26625000Y20255000D01*
X28325000Y20255000D01*
X28370293Y20249037D01*
X28412500Y20231554D01*
X28448744Y20203744D01*
X28476554Y20167500D01*
X28494037Y20125293D01*
X28500000Y20080000D01*
X28500000Y19730000D01*
X28494037Y19684707D01*
X28476554Y19642500D01*
X28448744Y19606256D01*
X28412500Y19578446D01*
X28370293Y19560963D01*
X28325000Y19555000D01*
G37*
%LPD*%
%LPD*%
G36*
X19693750Y17800000D02*
X18706250Y17800000D01*
X18633457Y17809583D01*
X18565625Y17837680D01*
X18507376Y17882376D01*
X18462680Y17940625D01*
X18434583Y18008457D01*
X18425000Y18081250D01*
X18425000Y18643750D01*
X18434583Y18716543D01*
X18462680Y18784375D01*
X18507376Y18842624D01*
X18565625Y18887320D01*
X18633457Y18915417D01*
X18706250Y18925000D01*
X19693750Y18925000D01*
X19766543Y18915417D01*
X19834375Y18887320D01*
X19892624Y18842624D01*
X19937320Y18784375D01*
X19965417Y18716543D01*
X19975000Y18643750D01*
X19975000Y18081250D01*
X19965417Y18008457D01*
X19937320Y17940625D01*
X19892624Y17882376D01*
X19834375Y17837680D01*
X19766543Y17809583D01*
X19693750Y17800000D01*
G37*
%LPD*%
%LPD*%
G36*
X19693750Y19675000D02*
X18706250Y19675000D01*
X18633457Y19684583D01*
X18565625Y19712680D01*
X18507376Y19757376D01*
X18462680Y19815625D01*
X18434583Y19883457D01*
X18425000Y19956250D01*
X18425000Y20518750D01*
X18434583Y20591543D01*
X18462680Y20659375D01*
X18507376Y20717624D01*
X18565625Y20762320D01*
X18633457Y20790417D01*
X18706250Y20800000D01*
X19693750Y20800000D01*
X19766543Y20790417D01*
X19834375Y20762320D01*
X19892624Y20717624D01*
X19937320Y20659375D01*
X19965417Y20591543D01*
X19975000Y20518750D01*
X19975000Y19956250D01*
X19965417Y19883457D01*
X19937320Y19815625D01*
X19892624Y19757376D01*
X19834375Y19712680D01*
X19766543Y19684583D01*
X19693750Y19675000D01*
G37*
%LPD*%
%LPD*%
G36*
X15543750Y17625000D02*
X14981250Y17625000D01*
X14908457Y17634583D01*
X14840625Y17662680D01*
X14782376Y17707376D01*
X14737680Y17765625D01*
X14709583Y17833457D01*
X14700000Y17906250D01*
X14700000Y18893750D01*
X14709583Y18966543D01*
X14737680Y19034375D01*
X14782376Y19092624D01*
X14840625Y19137320D01*
X14908457Y19165417D01*
X14981250Y19175000D01*
X15543750Y19175000D01*
X15616543Y19165417D01*
X15684375Y19137320D01*
X15742624Y19092624D01*
X15787320Y19034375D01*
X15815417Y18966543D01*
X15825000Y18893750D01*
X15825000Y17906250D01*
X15815417Y17833457D01*
X15787320Y17765625D01*
X15742624Y17707376D01*
X15684375Y17662680D01*
X15616543Y17634583D01*
X15543750Y17625000D01*
G37*
%LPD*%
%LPD*%
G36*
X17418750Y17625000D02*
X16856250Y17625000D01*
X16783457Y17634583D01*
X16715625Y17662680D01*
X16657376Y17707376D01*
X16612680Y17765625D01*
X16584583Y17833457D01*
X16575000Y17906250D01*
X16575000Y18893750D01*
X16584583Y18966543D01*
X16612680Y19034375D01*
X16657376Y19092624D01*
X16715625Y19137320D01*
X16783457Y19165417D01*
X16856250Y19175000D01*
X17418750Y19175000D01*
X17491543Y19165417D01*
X17559375Y19137320D01*
X17617624Y19092624D01*
X17662320Y19034375D01*
X17690417Y18966543D01*
X17700000Y18893750D01*
X17700000Y17906250D01*
X17690417Y17833457D01*
X17662320Y17765625D01*
X17617624Y17707376D01*
X17559375Y17662680D01*
X17491543Y17634583D01*
X17418750Y17625000D01*
G37*
%LPD*%
%LPD*%
G36*
X17843750Y15425000D02*
X17281250Y15425000D01*
X17208457Y15434583D01*
X17140625Y15462680D01*
X17082376Y15507376D01*
X17037680Y15565625D01*
X17009583Y15633457D01*
X17000000Y15706250D01*
X17000000Y16693750D01*
X17009583Y16766543D01*
X17037680Y16834375D01*
X17082376Y16892624D01*
X17140625Y16937320D01*
X17208457Y16965417D01*
X17281250Y16975000D01*
X17843750Y16975000D01*
X17916543Y16965417D01*
X17984375Y16937320D01*
X18042624Y16892624D01*
X18087320Y16834375D01*
X18115417Y16766543D01*
X18125000Y16693750D01*
X18125000Y15706250D01*
X18115417Y15633457D01*
X18087320Y15565625D01*
X18042624Y15507376D01*
X17984375Y15462680D01*
X17916543Y15434583D01*
X17843750Y15425000D01*
G37*
%LPD*%
%LPD*%
G36*
X19718750Y15425000D02*
X19156250Y15425000D01*
X19083457Y15434583D01*
X19015625Y15462680D01*
X18957376Y15507376D01*
X18912680Y15565625D01*
X18884583Y15633457D01*
X18875000Y15706250D01*
X18875000Y16693750D01*
X18884583Y16766543D01*
X18912680Y16834375D01*
X18957376Y16892624D01*
X19015625Y16937320D01*
X19083457Y16965417D01*
X19156250Y16975000D01*
X19718750Y16975000D01*
X19791543Y16965417D01*
X19859375Y16937320D01*
X19917624Y16892624D01*
X19962320Y16834375D01*
X19990417Y16766543D01*
X20000000Y16693750D01*
X20000000Y15706250D01*
X19990417Y15633457D01*
X19962320Y15565625D01*
X19917624Y15507376D01*
X19859375Y15462680D01*
X19791543Y15434583D01*
X19718750Y15425000D01*
G37*
%LPD*%
%LPD*%
G36*
X12843750Y15425000D02*
X12281250Y15425000D01*
X12208457Y15434583D01*
X12140625Y15462680D01*
X12082376Y15507376D01*
X12037680Y15565625D01*
X12009583Y15633457D01*
X12000000Y15706250D01*
X12000000Y16693750D01*
X12009583Y16766543D01*
X12037680Y16834375D01*
X12082376Y16892624D01*
X12140625Y16937320D01*
X12208457Y16965417D01*
X12281250Y16975000D01*
X12843750Y16975000D01*
X12916543Y16965417D01*
X12984375Y16937320D01*
X13042624Y16892624D01*
X13087320Y16834375D01*
X13115417Y16766543D01*
X13125000Y16693750D01*
X13125000Y15706250D01*
X13115417Y15633457D01*
X13087320Y15565625D01*
X13042624Y15507376D01*
X12984375Y15462680D01*
X12916543Y15434583D01*
X12843750Y15425000D01*
G37*
%LPD*%
%LPD*%
G36*
X14718750Y15425000D02*
X14156250Y15425000D01*
X14083457Y15434583D01*
X14015625Y15462680D01*
X13957376Y15507376D01*
X13912680Y15565625D01*
X13884583Y15633457D01*
X13875000Y15706250D01*
X13875000Y16693750D01*
X13884583Y16766543D01*
X13912680Y16834375D01*
X13957376Y16892624D01*
X14015625Y16937320D01*
X14083457Y16965417D01*
X14156250Y16975000D01*
X14718750Y16975000D01*
X14791543Y16965417D01*
X14859375Y16937320D01*
X14917624Y16892624D01*
X14962320Y16834375D01*
X14990417Y16766543D01*
X15000000Y16693750D01*
X15000000Y15706250D01*
X14990417Y15633457D01*
X14962320Y15565625D01*
X14917624Y15507376D01*
X14859375Y15462680D01*
X14791543Y15434583D01*
X14718750Y15425000D01*
G37*
%LPD*%
%LPD*%
G36*
X14843750Y21725000D02*
X14281250Y21725000D01*
X14208457Y21734583D01*
X14140625Y21762680D01*
X14082376Y21807376D01*
X14037680Y21865625D01*
X14009583Y21933457D01*
X14000000Y22006250D01*
X14000000Y22993750D01*
X14009583Y23066543D01*
X14037680Y23134375D01*
X14082376Y23192624D01*
X14140625Y23237320D01*
X14208457Y23265417D01*
X14281250Y23275000D01*
X14843750Y23275000D01*
X14916543Y23265417D01*
X14984375Y23237320D01*
X15042624Y23192624D01*
X15087320Y23134375D01*
X15115417Y23066543D01*
X15125000Y22993750D01*
X15125000Y22006250D01*
X15115417Y21933457D01*
X15087320Y21865625D01*
X15042624Y21807376D01*
X14984375Y21762680D01*
X14916543Y21734583D01*
X14843750Y21725000D01*
G37*
%LPD*%
%LPD*%
G36*
X16718750Y21725000D02*
X16156250Y21725000D01*
X16083457Y21734583D01*
X16015625Y21762680D01*
X15957376Y21807376D01*
X15912680Y21865625D01*
X15884583Y21933457D01*
X15875000Y22006250D01*
X15875000Y22993750D01*
X15884583Y23066543D01*
X15912680Y23134375D01*
X15957376Y23192624D01*
X16015625Y23237320D01*
X16083457Y23265417D01*
X16156250Y23275000D01*
X16718750Y23275000D01*
X16791543Y23265417D01*
X16859375Y23237320D01*
X16917624Y23192624D01*
X16962320Y23134375D01*
X16990417Y23066543D01*
X17000000Y22993750D01*
X17000000Y22006250D01*
X16990417Y21933457D01*
X16962320Y21865625D01*
X16917624Y21807376D01*
X16859375Y21762680D01*
X16791543Y21734583D01*
X16718750Y21725000D01*
G37*
%LPD*%
%LPD*%
G36*
X20843750Y12825000D02*
X20281250Y12825000D01*
X20208457Y12834583D01*
X20140625Y12862680D01*
X20082376Y12907376D01*
X20037680Y12965625D01*
X20009583Y13033457D01*
X20000000Y13106250D01*
X20000000Y14093750D01*
X20009583Y14166543D01*
X20037680Y14234375D01*
X20082376Y14292624D01*
X20140625Y14337320D01*
X20208457Y14365417D01*
X20281250Y14375000D01*
X20843750Y14375000D01*
X20916543Y14365417D01*
X20984375Y14337320D01*
X21042624Y14292624D01*
X21087320Y14234375D01*
X21115417Y14166543D01*
X21125000Y14093750D01*
X21125000Y13106250D01*
X21115417Y13033457D01*
X21087320Y12965625D01*
X21042624Y12907376D01*
X20984375Y12862680D01*
X20916543Y12834583D01*
X20843750Y12825000D01*
G37*
%LPD*%
%LPD*%
G36*
X22718750Y12825000D02*
X22156250Y12825000D01*
X22083457Y12834583D01*
X22015625Y12862680D01*
X21957376Y12907376D01*
X21912680Y12965625D01*
X21884583Y13033457D01*
X21875000Y13106250D01*
X21875000Y14093750D01*
X21884583Y14166543D01*
X21912680Y14234375D01*
X21957376Y14292624D01*
X22015625Y14337320D01*
X22083457Y14365417D01*
X22156250Y14375000D01*
X22718750Y14375000D01*
X22791543Y14365417D01*
X22859375Y14337320D01*
X22917624Y14292624D01*
X22962320Y14234375D01*
X22990417Y14166543D01*
X23000000Y14093750D01*
X23000000Y13106250D01*
X22990417Y13033457D01*
X22962320Y12965625D01*
X22917624Y12907376D01*
X22859375Y12862680D01*
X22791543Y12834583D01*
X22718750Y12825000D01*
G37*
%LPD*%
%LPD*%
G36*
X31293750Y16500000D02*
X30306250Y16500000D01*
X30233457Y16509583D01*
X30165625Y16537680D01*
X30107376Y16582376D01*
X30062680Y16640625D01*
X30034583Y16708457D01*
X30025000Y16781250D01*
X30025000Y17343750D01*
X30034583Y17416543D01*
X30062680Y17484375D01*
X30107376Y17542624D01*
X30165625Y17587320D01*
X30233457Y17615417D01*
X30306250Y17625000D01*
X31293750Y17625000D01*
X31366543Y17615417D01*
X31434375Y17587320D01*
X31492624Y17542624D01*
X31537320Y17484375D01*
X31565417Y17416543D01*
X31575000Y17343750D01*
X31575000Y16781250D01*
X31565417Y16708457D01*
X31537320Y16640625D01*
X31492624Y16582376D01*
X31434375Y16537680D01*
X31366543Y16509583D01*
X31293750Y16500000D01*
G37*
%LPD*%
%LPD*%
G36*
X31293750Y18375000D02*
X30306250Y18375000D01*
X30233457Y18384583D01*
X30165625Y18412680D01*
X30107376Y18457376D01*
X30062680Y18515625D01*
X30034583Y18583457D01*
X30025000Y18656250D01*
X30025000Y19218750D01*
X30034583Y19291543D01*
X30062680Y19359375D01*
X30107376Y19417624D01*
X30165625Y19462320D01*
X30233457Y19490417D01*
X30306250Y19500000D01*
X31293750Y19500000D01*
X31366543Y19490417D01*
X31434375Y19462320D01*
X31492624Y19417624D01*
X31537320Y19359375D01*
X31565417Y19291543D01*
X31575000Y19218750D01*
X31575000Y18656250D01*
X31565417Y18583457D01*
X31537320Y18515625D01*
X31492624Y18457376D01*
X31434375Y18412680D01*
X31366543Y18384583D01*
X31293750Y18375000D01*
G37*
%LPD*%
%LPD*%
G36*
X33143750Y16325000D02*
X32581250Y16325000D01*
X32508457Y16334583D01*
X32440625Y16362680D01*
X32382376Y16407376D01*
X32337680Y16465625D01*
X32309583Y16533457D01*
X32300000Y16606250D01*
X32300000Y17593750D01*
X32309583Y17666543D01*
X32337680Y17734375D01*
X32382376Y17792624D01*
X32440625Y17837320D01*
X32508457Y17865417D01*
X32581250Y17875000D01*
X33143750Y17875000D01*
X33216543Y17865417D01*
X33284375Y17837320D01*
X33342624Y17792624D01*
X33387320Y17734375D01*
X33415417Y17666543D01*
X33425000Y17593750D01*
X33425000Y16606250D01*
X33415417Y16533457D01*
X33387320Y16465625D01*
X33342624Y16407376D01*
X33284375Y16362680D01*
X33216543Y16334583D01*
X33143750Y16325000D01*
G37*
%LPD*%
%LPD*%
G36*
X35018750Y16325000D02*
X34456250Y16325000D01*
X34383457Y16334583D01*
X34315625Y16362680D01*
X34257376Y16407376D01*
X34212680Y16465625D01*
X34184583Y16533457D01*
X34175000Y16606250D01*
X34175000Y17593750D01*
X34184583Y17666543D01*
X34212680Y17734375D01*
X34257376Y17792624D01*
X34315625Y17837320D01*
X34383457Y17865417D01*
X34456250Y17875000D01*
X35018750Y17875000D01*
X35091543Y17865417D01*
X35159375Y17837320D01*
X35217624Y17792624D01*
X35262320Y17734375D01*
X35290417Y17666543D01*
X35300000Y17593750D01*
X35300000Y16606250D01*
X35290417Y16533457D01*
X35262320Y16465625D01*
X35217624Y16407376D01*
X35159375Y16362680D01*
X35091543Y16334583D01*
X35018750Y16325000D01*
G37*
%LPD*%
%LPD*%
G36*
X30843750Y14125000D02*
X30281250Y14125000D01*
X30208457Y14134583D01*
X30140625Y14162680D01*
X30082376Y14207376D01*
X30037680Y14265625D01*
X30009583Y14333457D01*
X30000000Y14406250D01*
X30000000Y15393750D01*
X30009583Y15466543D01*
X30037680Y15534375D01*
X30082376Y15592624D01*
X30140625Y15637320D01*
X30208457Y15665417D01*
X30281250Y15675000D01*
X30843750Y15675000D01*
X30916543Y15665417D01*
X30984375Y15637320D01*
X31042624Y15592624D01*
X31087320Y15534375D01*
X31115417Y15466543D01*
X31125000Y15393750D01*
X31125000Y14406250D01*
X31115417Y14333457D01*
X31087320Y14265625D01*
X31042624Y14207376D01*
X30984375Y14162680D01*
X30916543Y14134583D01*
X30843750Y14125000D01*
G37*
%LPD*%
%LPD*%
G36*
X32718750Y14125000D02*
X32156250Y14125000D01*
X32083457Y14134583D01*
X32015625Y14162680D01*
X31957376Y14207376D01*
X31912680Y14265625D01*
X31884583Y14333457D01*
X31875000Y14406250D01*
X31875000Y15393750D01*
X31884583Y15466543D01*
X31912680Y15534375D01*
X31957376Y15592624D01*
X32015625Y15637320D01*
X32083457Y15665417D01*
X32156250Y15675000D01*
X32718750Y15675000D01*
X32791543Y15665417D01*
X32859375Y15637320D01*
X32917624Y15592624D01*
X32962320Y15534375D01*
X32990417Y15466543D01*
X33000000Y15393750D01*
X33000000Y14406250D01*
X32990417Y14333457D01*
X32962320Y14265625D01*
X32917624Y14207376D01*
X32859375Y14162680D01*
X32791543Y14134583D01*
X32718750Y14125000D01*
G37*
%LPD*%
%LPD*%
G36*
X35843750Y14125000D02*
X35281250Y14125000D01*
X35208457Y14134583D01*
X35140625Y14162680D01*
X35082376Y14207376D01*
X35037680Y14265625D01*
X35009583Y14333457D01*
X35000000Y14406250D01*
X35000000Y15393750D01*
X35009583Y15466543D01*
X35037680Y15534375D01*
X35082376Y15592624D01*
X35140625Y15637320D01*
X35208457Y15665417D01*
X35281250Y15675000D01*
X35843750Y15675000D01*
X35916543Y15665417D01*
X35984375Y15637320D01*
X36042624Y15592624D01*
X36087320Y15534375D01*
X36115417Y15466543D01*
X36125000Y15393750D01*
X36125000Y14406250D01*
X36115417Y14333457D01*
X36087320Y14265625D01*
X36042624Y14207376D01*
X35984375Y14162680D01*
X35916543Y14134583D01*
X35843750Y14125000D01*
G37*
%LPD*%
%LPD*%
G36*
X37718750Y14125000D02*
X37156250Y14125000D01*
X37083457Y14134583D01*
X37015625Y14162680D01*
X36957376Y14207376D01*
X36912680Y14265625D01*
X36884583Y14333457D01*
X36875000Y14406250D01*
X36875000Y15393750D01*
X36884583Y15466543D01*
X36912680Y15534375D01*
X36957376Y15592624D01*
X37015625Y15637320D01*
X37083457Y15665417D01*
X37156250Y15675000D01*
X37718750Y15675000D01*
X37791543Y15665417D01*
X37859375Y15637320D01*
X37917624Y15592624D01*
X37962320Y15534375D01*
X37990417Y15466543D01*
X38000000Y15393750D01*
X38000000Y14406250D01*
X37990417Y14333457D01*
X37962320Y14265625D01*
X37917624Y14207376D01*
X37859375Y14162680D01*
X37791543Y14134583D01*
X37718750Y14125000D01*
G37*
%LPD*%
%LPD*%
G36*
X33843750Y20425000D02*
X33281250Y20425000D01*
X33208457Y20434583D01*
X33140625Y20462680D01*
X33082376Y20507376D01*
X33037680Y20565625D01*
X33009583Y20633457D01*
X33000000Y20706250D01*
X33000000Y21693750D01*
X33009583Y21766543D01*
X33037680Y21834375D01*
X33082376Y21892624D01*
X33140625Y21937320D01*
X33208457Y21965417D01*
X33281250Y21975000D01*
X33843750Y21975000D01*
X33916543Y21965417D01*
X33984375Y21937320D01*
X34042624Y21892624D01*
X34087320Y21834375D01*
X34115417Y21766543D01*
X34125000Y21693750D01*
X34125000Y20706250D01*
X34115417Y20633457D01*
X34087320Y20565625D01*
X34042624Y20507376D01*
X33984375Y20462680D01*
X33916543Y20434583D01*
X33843750Y20425000D01*
G37*
%LPD*%
%LPD*%
G36*
X35718750Y20425000D02*
X35156250Y20425000D01*
X35083457Y20434583D01*
X35015625Y20462680D01*
X34957376Y20507376D01*
X34912680Y20565625D01*
X34884583Y20633457D01*
X34875000Y20706250D01*
X34875000Y21693750D01*
X34884583Y21766543D01*
X34912680Y21834375D01*
X34957376Y21892624D01*
X35015625Y21937320D01*
X35083457Y21965417D01*
X35156250Y21975000D01*
X35718750Y21975000D01*
X35791543Y21965417D01*
X35859375Y21937320D01*
X35917624Y21892624D01*
X35962320Y21834375D01*
X35990417Y21766543D01*
X36000000Y21693750D01*
X36000000Y20706250D01*
X35990417Y20633457D01*
X35962320Y20565625D01*
X35917624Y20507376D01*
X35859375Y20462680D01*
X35791543Y20434583D01*
X35718750Y20425000D01*
G37*
%LPD*%
%LPD*%
G36*
X27843750Y21625000D02*
X27281250Y21625000D01*
X27208457Y21634583D01*
X27140625Y21662680D01*
X27082376Y21707376D01*
X27037680Y21765625D01*
X27009583Y21833457D01*
X27000000Y21906250D01*
X27000000Y22893750D01*
X27009583Y22966543D01*
X27037680Y23034375D01*
X27082376Y23092624D01*
X27140625Y23137320D01*
X27208457Y23165417D01*
X27281250Y23175000D01*
X27843750Y23175000D01*
X27916543Y23165417D01*
X27984375Y23137320D01*
X28042624Y23092624D01*
X28087320Y23034375D01*
X28115417Y22966543D01*
X28125000Y22893750D01*
X28125000Y21906250D01*
X28115417Y21833457D01*
X28087320Y21765625D01*
X28042624Y21707376D01*
X27984375Y21662680D01*
X27916543Y21634583D01*
X27843750Y21625000D01*
G37*
%LPD*%
%LPD*%
G36*
X29718750Y21625000D02*
X29156250Y21625000D01*
X29083457Y21634583D01*
X29015625Y21662680D01*
X28957376Y21707376D01*
X28912680Y21765625D01*
X28884583Y21833457D01*
X28875000Y21906250D01*
X28875000Y22893750D01*
X28884583Y22966543D01*
X28912680Y23034375D01*
X28957376Y23092624D01*
X29015625Y23137320D01*
X29083457Y23165417D01*
X29156250Y23175000D01*
X29718750Y23175000D01*
X29791543Y23165417D01*
X29859375Y23137320D01*
X29917624Y23092624D01*
X29962320Y23034375D01*
X29990417Y22966543D01*
X30000000Y22893750D01*
X30000000Y21906250D01*
X29990417Y21833457D01*
X29962320Y21765625D01*
X29917624Y21707376D01*
X29859375Y21662680D01*
X29791543Y21634583D01*
X29718750Y21625000D01*
G37*
%LPD*%
D10*
X5000000Y14730000D03*
D11*
X5000000Y17270000D03*
D10*
X5000000Y22730000D03*
D11*
X5000000Y25270000D03*
D10*
X45000000Y13730000D03*
D11*
X45000000Y16270000D03*
D10*
X45000000Y21730000D03*
D11*
X45000000Y24270000D03*
D10*
X22460000Y5000000D03*
D11*
X25000000Y5000000D03*
D11*
X27540000Y5000000D03*
%LPD*%
G36*
X16837500Y4050000D02*
X16212500Y4050000D01*
X16131619Y4060648D01*
X16056250Y4091867D01*
X15991529Y4141529D01*
X15941867Y4206250D01*
X15910648Y4281619D01*
X15900000Y4362500D01*
X15900000Y5637500D01*
X15910648Y5718381D01*
X15941867Y5793750D01*
X15991529Y5858471D01*
X16056250Y5908133D01*
X16131619Y5939352D01*
X16212500Y5950000D01*
X16837500Y5950000D01*
X16918381Y5939352D01*
X16993750Y5908133D01*
X17058471Y5858471D01*
X17108133Y5793750D01*
X17139352Y5718381D01*
X17150000Y5637500D01*
X17150000Y4362500D01*
X17139352Y4281619D01*
X17108133Y4206250D01*
X17058471Y4141529D01*
X16993750Y4091867D01*
X16918381Y4060648D01*
X16837500Y4050000D01*
G37*
%LPD*%
%LPD*%
G36*
X19787500Y4050000D02*
X19162500Y4050000D01*
X19081619Y4060648D01*
X19006250Y4091867D01*
X18941529Y4141529D01*
X18891867Y4206250D01*
X18860648Y4281619D01*
X18850000Y4362500D01*
X18850000Y5637500D01*
X18860648Y5718381D01*
X18891867Y5793750D01*
X18941529Y5858471D01*
X19006250Y5908133D01*
X19081619Y5939352D01*
X19162500Y5950000D01*
X19787500Y5950000D01*
X19868381Y5939352D01*
X19943750Y5908133D01*
X20008471Y5858471D01*
X20058133Y5793750D01*
X20089352Y5718381D01*
X20100000Y5637500D01*
X20100000Y4362500D01*
X20089352Y4281619D01*
X20058133Y4206250D01*
X20008471Y4141529D01*
X19943750Y4091867D01*
X19868381Y4060648D01*
X19787500Y4050000D01*
G37*
%LPD*%
%LPD*%
G36*
X30837500Y4050000D02*
X30212500Y4050000D01*
X30131619Y4060648D01*
X30056250Y4091867D01*
X29991529Y4141529D01*
X29941867Y4206250D01*
X29910648Y4281619D01*
X29900000Y4362500D01*
X29900000Y5637500D01*
X29910648Y5718381D01*
X29941867Y5793750D01*
X29991529Y5858471D01*
X30056250Y5908133D01*
X30131619Y5939352D01*
X30212500Y5950000D01*
X30837500Y5950000D01*
X30918381Y5939352D01*
X30993750Y5908133D01*
X31058471Y5858471D01*
X31108133Y5793750D01*
X31139352Y5718381D01*
X31150000Y5637500D01*
X31150000Y4362500D01*
X31139352Y4281619D01*
X31108133Y4206250D01*
X31058471Y4141529D01*
X30993750Y4091867D01*
X30918381Y4060648D01*
X30837500Y4050000D01*
G37*
%LPD*%
%LPD*%
G36*
X33787500Y4050000D02*
X33162500Y4050000D01*
X33081619Y4060648D01*
X33006250Y4091867D01*
X32941529Y4141529D01*
X32891867Y4206250D01*
X32860648Y4281619D01*
X32850000Y4362500D01*
X32850000Y5637500D01*
X32860648Y5718381D01*
X32891867Y5793750D01*
X32941529Y5858471D01*
X33006250Y5908133D01*
X33081619Y5939352D01*
X33162500Y5950000D01*
X33787500Y5950000D01*
X33868381Y5939352D01*
X33943750Y5908133D01*
X34008471Y5858471D01*
X34058133Y5793750D01*
X34089352Y5718381D01*
X34100000Y5637500D01*
X34100000Y4362500D01*
X34089352Y4281619D01*
X34058133Y4206250D01*
X34008471Y4141529D01*
X33943750Y4091867D01*
X33868381Y4060648D01*
X33787500Y4050000D01*
G37*
%LPD*%
D12*
X3500000Y3500000D03*
D12*
X46500000Y3500000D03*
D12*
X3500000Y32500000D03*
D12*
X46500000Y32500000D03*
M02*
