G04 Nyquist Labs eelab.pcb*
%TF.FileFunction,Legend,Top*%
%TF.FilePolarity,Positive*%
%FSLAX46Y46*%
%MOMM*%
%LPD*%
%ADD10C,0.1500*%
G01*
D10*
X7550000Y8495000D02*
X14450000Y8495000D01*
D10*
X14450000Y8495000D02*
X14450000Y8601583D01*
D10*
X14450000Y9588417D02*
X14450000Y9871583D01*
D10*
X14450000Y10858417D02*
X14450000Y11141583D01*
D10*
X14450000Y12128417D02*
X14450000Y12411583D01*
D10*
X14450000Y13398417D02*
X14450000Y13505000D01*
D10*
X14450000Y13505000D02*
X7550000Y13505000D01*
D10*
X7550000Y13505000D02*
X7550000Y13398417D01*
D10*
X7550000Y12411583D02*
X7550000Y12128417D01*
D10*
X7550000Y11141583D02*
X7550000Y10858417D01*
D10*
X7550000Y9871583D02*
X7550000Y9588417D01*
D10*
X7550000Y8601583D02*
X7550000Y8495000D01*
D10*
X7628188Y14461156D02*
X7717484Y14461156D01*
D10*
X7717484Y14461156D02*
X7717484Y14062484D01*
D10*
X7717484Y14062484D02*
X7727012Y13971781D01*
D10*
X7727012Y13971781D02*
X7755594Y13910609D01*
D10*
X7755594Y13910609D02*
X7805727Y13875910D01*
D10*
X7805727Y13875910D02*
X7879625Y13864344D01*
D10*
X7879625Y13864344D02*
X7953102Y13875910D01*
D10*
X7953102Y13875910D02*
X8003094Y13910609D01*
D10*
X8003094Y13910609D02*
X8031781Y13971781D01*
D10*
X8031781Y13971781D02*
X8041344Y14062484D01*
D10*
X8041344Y14062484D02*
X8041344Y14461156D01*
D10*
X8041344Y14461156D02*
X8130500Y14461156D01*
D10*
X8130500Y14461156D02*
X8130500Y14051516D01*
D10*
X8130500Y14051516D02*
X8114609Y13938945D01*
D10*
X8114609Y13938945D02*
X8066938Y13857734D01*
D10*
X8066938Y13857734D02*
X7988398Y13808586D01*
D10*
X7988398Y13808586D02*
X7879625Y13792203D01*
D10*
X7879625Y13792203D02*
X7770395Y13808586D01*
D10*
X7770395Y13808586D02*
X7691609Y13857734D01*
D10*
X7691609Y13857734D02*
X7644043Y13938945D01*
D10*
X7644043Y13938945D02*
X7628188Y14051516D01*
D10*
X7628188Y14051516D02*
X7628188Y14461156D01*
D10*
X8320344Y13879672D02*
X8465328Y13879672D01*
D10*
X8465328Y13879672D02*
X8465328Y14380297D01*
D10*
X8465328Y14380297D02*
X8307547Y14348656D01*
D10*
X8307547Y14348656D02*
X8307547Y14429516D01*
D10*
X8307547Y14429516D02*
X8464484Y14461156D01*
D10*
X8464484Y14461156D02*
X8553219Y14461156D01*
D10*
X8553219Y14461156D02*
X8553219Y13879672D01*
D10*
X8553219Y13879672D02*
X8698203Y13879672D01*
D10*
X8698203Y13879672D02*
X8698203Y13805000D01*
D10*
X8698203Y13805000D02*
X8320344Y13805000D01*
D10*
X8320344Y13805000D02*
X8320344Y13879672D01*
D10*
X4650000Y1730000D02*
X17350000Y1730000D01*
D10*
X17350000Y1730000D02*
X17350000Y4270000D01*
D10*
X17350000Y4270000D02*
X4650000Y4270000D01*
D10*
X4650000Y4270000D02*
X4650000Y1730000D01*
D10*
X4738312Y5226156D02*
X4827047Y5226156D01*
D10*
X4827047Y5226156D02*
X4827047Y4615703D01*
D10*
X4827047Y4615703D02*
X4815797Y4513293D01*
D10*
X4815797Y4513293D02*
X4782047Y4443437D01*
D10*
X4782047Y4443437D02*
X4723336Y4403254D01*
D10*
X4723336Y4403254D02*
X4637203Y4389859D01*
D10*
X4637203Y4389859D02*
X4603453Y4389859D01*
D10*
X4603453Y4389859D02*
X4603453Y4464531D01*
D10*
X4603453Y4464531D02*
X4631156Y4464531D01*
D10*
X4631156Y4464531D02*
X4681289Y4472793D01*
D10*
X4681289Y4472793D02*
X4714125Y4497578D01*
D10*
X4714125Y4497578D02*
X4732266Y4543562D01*
D10*
X4732266Y4543562D02*
X4738312Y4615703D01*
D10*
X4738312Y4615703D02*
X4738312Y5226156D01*
D10*
X5027156Y4644672D02*
X5172141Y4644672D01*
D10*
X5172141Y4644672D02*
X5172141Y5145297D01*
D10*
X5172141Y5145297D02*
X5014359Y5113656D01*
D10*
X5014359Y5113656D02*
X5014359Y5194516D01*
D10*
X5014359Y5194516D02*
X5171297Y5226156D01*
D10*
X5171297Y5226156D02*
X5260031Y5226156D01*
D10*
X5260031Y5226156D02*
X5260031Y4644672D01*
D10*
X5260031Y4644672D02*
X5405016Y4644672D01*
D10*
X5405016Y4644672D02*
X5405016Y4570000D01*
D10*
X5405016Y4570000D02*
X5027156Y4570000D01*
D10*
X5027156Y4570000D02*
X5027156Y4644672D01*
D10*
X4475000Y11846991D02*
X4475000Y12153009D01*
D10*
X3525000Y12153009D02*
X3525000Y11846991D01*
D10*
X3924516Y13832688D02*
X3952676Y13817500D01*
D10*
X3952676Y13817500D02*
X3980062Y13791344D01*
D10*
X3980062Y13791344D02*
X4007133Y13753762D01*
D10*
X4007133Y13753762D02*
X4034344Y13704297D01*
D10*
X4034344Y13704297D02*
X4124484Y13525000D01*
D10*
X4124484Y13525000D02*
X4029000Y13525000D01*
D10*
X4029000Y13525000D02*
X3945188Y13693328D01*
D10*
X3945188Y13693328D02*
X3913090Y13748172D01*
D10*
X3913090Y13748172D02*
X3882047Y13780797D01*
D10*
X3882047Y13780797D02*
X3845977Y13796934D01*
D10*
X3845977Y13796934D02*
X3798797Y13802313D01*
D10*
X3798797Y13802313D02*
X3702047Y13802313D01*
D10*
X3702047Y13802313D02*
X3702047Y13525000D01*
D10*
X3702047Y13525000D02*
X3613312Y13525000D01*
D10*
X3613312Y13525000D02*
X3613312Y14181156D01*
D10*
X3613312Y14181156D02*
X3813703Y14181156D01*
D10*
X3813703Y14181156D02*
X3911930Y14169379D01*
D10*
X3911930Y14169379D02*
X3981609Y14134047D01*
D10*
X3981609Y14134047D02*
X4023164Y14075090D01*
D10*
X4023164Y14075090D02*
X4037016Y13992156D01*
D10*
X4037016Y13992156D02*
X4029809Y13935414D01*
D10*
X4029809Y13935414D02*
X4008188Y13889219D01*
D10*
X4008188Y13889219D02*
X3972855Y13854695D01*
D10*
X3972855Y13854695D02*
X3924516Y13832688D01*
D10*
X3702047Y14108172D02*
X3702047Y13875297D01*
D10*
X3702047Y13875297D02*
X3813703Y13875297D01*
D10*
X3813703Y13875297D02*
X3869988Y13882715D01*
D10*
X3869988Y13882715D02*
X3910594Y13904969D01*
D10*
X3910594Y13904969D02*
X3935168Y13941602D01*
D10*
X3935168Y13941602D02*
X3943359Y13992156D01*
D10*
X3943359Y13992156D02*
X3935168Y14042605D01*
D10*
X3935168Y14042605D02*
X3910594Y14078922D01*
D10*
X3910594Y14078922D02*
X3869988Y14100859D01*
D10*
X3869988Y14100859D02*
X3813703Y14108172D01*
D10*
X3813703Y14108172D02*
X3702047Y14108172D01*
D10*
X4262016Y13599672D02*
X4407000Y13599672D01*
D10*
X4407000Y13599672D02*
X4407000Y14100297D01*
D10*
X4407000Y14100297D02*
X4249219Y14068656D01*
D10*
X4249219Y14068656D02*
X4249219Y14149516D01*
D10*
X4249219Y14149516D02*
X4406156Y14181156D01*
D10*
X4406156Y14181156D02*
X4494891Y14181156D01*
D10*
X4494891Y14181156D02*
X4494891Y13599672D01*
D10*
X4494891Y13599672D02*
X4639875Y13599672D01*
D10*
X4639875Y13599672D02*
X4639875Y13525000D01*
D10*
X4639875Y13525000D02*
X4262016Y13525000D01*
D10*
X4262016Y13525000D02*
X4262016Y13599672D01*
D10*
X6975000Y11846991D02*
X6975000Y12153009D01*
D10*
X6025000Y12153009D02*
X6025000Y11846991D01*
D10*
X6424516Y13832688D02*
X6452676Y13817500D01*
D10*
X6452676Y13817500D02*
X6480063Y13791344D01*
D10*
X6480063Y13791344D02*
X6507133Y13753762D01*
D10*
X6507133Y13753762D02*
X6534344Y13704297D01*
D10*
X6534344Y13704297D02*
X6624484Y13525000D01*
D10*
X6624484Y13525000D02*
X6529000Y13525000D01*
D10*
X6529000Y13525000D02*
X6445188Y13693328D01*
D10*
X6445188Y13693328D02*
X6413090Y13748172D01*
D10*
X6413090Y13748172D02*
X6382047Y13780797D01*
D10*
X6382047Y13780797D02*
X6345977Y13796934D01*
D10*
X6345977Y13796934D02*
X6298797Y13802313D01*
D10*
X6298797Y13802313D02*
X6202047Y13802313D01*
D10*
X6202047Y13802313D02*
X6202047Y13525000D01*
D10*
X6202047Y13525000D02*
X6113312Y13525000D01*
D10*
X6113312Y13525000D02*
X6113312Y14181156D01*
D10*
X6113312Y14181156D02*
X6313703Y14181156D01*
D10*
X6313703Y14181156D02*
X6411930Y14169379D01*
D10*
X6411930Y14169379D02*
X6481609Y14134047D01*
D10*
X6481609Y14134047D02*
X6523164Y14075090D01*
D10*
X6523164Y14075090D02*
X6537016Y13992156D01*
D10*
X6537016Y13992156D02*
X6529809Y13935414D01*
D10*
X6529809Y13935414D02*
X6508188Y13889219D01*
D10*
X6508188Y13889219D02*
X6472855Y13854695D01*
D10*
X6472855Y13854695D02*
X6424516Y13832688D01*
D10*
X6202047Y14108172D02*
X6202047Y13875297D01*
D10*
X6202047Y13875297D02*
X6313703Y13875297D01*
D10*
X6313703Y13875297D02*
X6369988Y13882715D01*
D10*
X6369988Y13882715D02*
X6410594Y13904969D01*
D10*
X6410594Y13904969D02*
X6435168Y13941602D01*
D10*
X6435168Y13941602D02*
X6443359Y13992156D01*
D10*
X6443359Y13992156D02*
X6435168Y14042605D01*
D10*
X6435168Y14042605D02*
X6410594Y14078922D01*
D10*
X6410594Y14078922D02*
X6369988Y14100859D01*
D10*
X6369988Y14100859D02*
X6313703Y14108172D01*
D10*
X6313703Y14108172D02*
X6202047Y14108172D01*
D10*
X6823047Y13599672D02*
X7132844Y13599672D01*
D10*
X7132844Y13599672D02*
X7132844Y13525000D01*
D10*
X7132844Y13525000D02*
X6716313Y13525000D01*
D10*
X6716313Y13525000D02*
X6716313Y13599672D01*
D10*
X6716313Y13599672D02*
X6775973Y13660914D01*
D10*
X6775973Y13660914D02*
X6853984Y13740016D01*
D10*
X6853984Y13740016D02*
X6925070Y13812543D01*
D10*
X6925070Y13812543D02*
X6963672Y13853781D01*
D10*
X6963672Y13853781D02*
X6999848Y13897938D01*
D10*
X6999848Y13897938D02*
X7023156Y13934781D01*
D10*
X7023156Y13934781D02*
X7035918Y13967688D01*
D10*
X7035918Y13967688D02*
X7040172Y14000031D01*
D10*
X7040172Y14000031D02*
X7030996Y14047492D01*
D10*
X7030996Y14047492D02*
X7003469Y14085250D01*
D10*
X7003469Y14085250D02*
X6961211Y14110035D01*
D10*
X6961211Y14110035D02*
X6907844Y14118297D01*
D10*
X6907844Y14118297D02*
X6864918Y14114676D01*
D10*
X6864918Y14114676D02*
X6819672Y14103812D01*
D10*
X6819672Y14103812D02*
X6771789Y14085566D01*
D10*
X6771789Y14085566D02*
X6720672Y14059797D01*
D10*
X6720672Y14059797D02*
X6720672Y14149516D01*
D10*
X6720672Y14149516D02*
X6772492Y14168395D01*
D10*
X6772492Y14168395D02*
X6820797Y14182000D01*
D10*
X6820797Y14182000D02*
X6865480Y14190227D01*
D10*
X6865480Y14190227D02*
X6906156Y14192969D01*
D10*
X6906156Y14192969D02*
X6997773Y14180207D01*
D10*
X6997773Y14180207D02*
X7068719Y14141922D01*
D10*
X7068719Y14141922D02*
X7114176Y14082438D01*
D10*
X7114176Y14082438D02*
X7129328Y14005797D01*
D10*
X7129328Y14005797D02*
X7125531Y13966352D01*
D10*
X7125531Y13966352D02*
X7114141Y13929016D01*
D10*
X7114141Y13929016D02*
X7092836Y13889605D01*
D10*
X7092836Y13889605D02*
X7059016Y13843656D01*
D10*
X7059016Y13843656D02*
X7036059Y13818836D01*
D10*
X7036059Y13818836D02*
X6989125Y13769969D01*
D10*
X6989125Y13769969D02*
X6918215Y13696949D01*
D10*
X6918215Y13696949D02*
X6823047Y13599672D01*
D10*
X17975000Y7846991D02*
X17975000Y8153009D01*
D10*
X17025000Y8153009D02*
X17025000Y7846991D01*
D10*
X17424516Y9832688D02*
X17452676Y9817500D01*
D10*
X17452676Y9817500D02*
X17480062Y9791344D01*
D10*
X17480062Y9791344D02*
X17507133Y9753762D01*
D10*
X17507133Y9753762D02*
X17534344Y9704297D01*
D10*
X17534344Y9704297D02*
X17624484Y9525000D01*
D10*
X17624484Y9525000D02*
X17529000Y9525000D01*
D10*
X17529000Y9525000D02*
X17445188Y9693328D01*
D10*
X17445188Y9693328D02*
X17413090Y9748172D01*
D10*
X17413090Y9748172D02*
X17382047Y9780797D01*
D10*
X17382047Y9780797D02*
X17345977Y9796934D01*
D10*
X17345977Y9796934D02*
X17298797Y9802313D01*
D10*
X17298797Y9802313D02*
X17202047Y9802313D01*
D10*
X17202047Y9802313D02*
X17202047Y9525000D01*
D10*
X17202047Y9525000D02*
X17113312Y9525000D01*
D10*
X17113312Y9525000D02*
X17113312Y10181156D01*
D10*
X17113312Y10181156D02*
X17313703Y10181156D01*
D10*
X17313703Y10181156D02*
X17411930Y10169379D01*
D10*
X17411930Y10169379D02*
X17481609Y10134047D01*
D10*
X17481609Y10134047D02*
X17523164Y10075090D01*
D10*
X17523164Y10075090D02*
X17537016Y9992156D01*
D10*
X17537016Y9992156D02*
X17529809Y9935414D01*
D10*
X17529809Y9935414D02*
X17508188Y9889219D01*
D10*
X17508188Y9889219D02*
X17472855Y9854695D01*
D10*
X17472855Y9854695D02*
X17424516Y9832688D01*
D10*
X17202047Y10108172D02*
X17202047Y9875297D01*
D10*
X17202047Y9875297D02*
X17313703Y9875297D01*
D10*
X17313703Y9875297D02*
X17369988Y9882715D01*
D10*
X17369988Y9882715D02*
X17410594Y9904969D01*
D10*
X17410594Y9904969D02*
X17435168Y9941602D01*
D10*
X17435168Y9941602D02*
X17443359Y9992156D01*
D10*
X17443359Y9992156D02*
X17435168Y10042605D01*
D10*
X17435168Y10042605D02*
X17410594Y10078922D01*
D10*
X17410594Y10078922D02*
X17369988Y10100859D01*
D10*
X17369988Y10100859D02*
X17313703Y10108172D01*
D10*
X17313703Y10108172D02*
X17202047Y10108172D01*
D10*
X18015562Y9878812D02*
X18072270Y9857789D01*
D10*
X18072270Y9857789D02*
X18114984Y9822000D01*
D10*
X18114984Y9822000D02*
X18141879Y9773906D01*
D10*
X18141879Y9773906D02*
X18150844Y9715688D01*
D10*
X18150844Y9715688D02*
X18134145Y9629590D01*
D10*
X18134145Y9629590D02*
X18084047Y9565359D01*
D10*
X18084047Y9565359D02*
X18003188Y9525492D01*
D10*
X18003188Y9525492D02*
X17894203Y9512203D01*
D10*
X17894203Y9512203D02*
X17852367Y9514242D01*
D10*
X17852367Y9514242D02*
X17809266Y9520359D01*
D10*
X17809266Y9520359D02*
X17764828Y9530555D01*
D10*
X17764828Y9530555D02*
X17718984Y9544828D01*
D10*
X17718984Y9544828D02*
X17718984Y9630469D01*
D10*
X17718984Y9630469D02*
X17757586Y9611590D01*
D10*
X17757586Y9611590D02*
X17799703Y9597984D01*
D10*
X17799703Y9597984D02*
X17844703Y9589758D01*
D10*
X17844703Y9589758D02*
X17891672Y9587016D01*
D10*
X17891672Y9587016D02*
X17965148Y9595242D01*
D10*
X17965148Y9595242D02*
X18018797Y9619922D01*
D10*
X18018797Y9619922D02*
X18051598Y9660316D01*
D10*
X18051598Y9660316D02*
X18062531Y9715688D01*
D10*
X18062531Y9715688D02*
X18052371Y9767402D01*
D10*
X18052371Y9767402D02*
X18021891Y9806391D01*
D10*
X18021891Y9806391D02*
X17973305Y9830965D01*
D10*
X17973305Y9830965D02*
X17908828Y9839156D01*
D10*
X17908828Y9839156D02*
X17832328Y9839156D01*
D10*
X17832328Y9839156D02*
X17832328Y9912141D01*
D10*
X17832328Y9912141D02*
X17912344Y9912141D01*
D10*
X17912344Y9912141D02*
X17970070Y9918680D01*
D10*
X17970070Y9918680D02*
X18012469Y9938297D01*
D10*
X18012469Y9938297D02*
X18038520Y9970219D01*
D10*
X18038520Y9970219D02*
X18047203Y10013672D01*
D10*
X18047203Y10013672D02*
X18038238Y10058285D01*
D10*
X18038238Y10058285D02*
X18011344Y10091156D01*
D10*
X18011344Y10091156D02*
X17967855Y10111512D01*
D10*
X17967855Y10111512D02*
X17908828Y10118297D01*
D10*
X17908828Y10118297D02*
X17870965Y10116293D01*
D10*
X17870965Y10116293D02*
X17830500Y10110281D01*
D10*
X17830500Y10110281D02*
X17786660Y10100227D01*
D10*
X17786660Y10100227D02*
X17738672Y10085813D01*
D10*
X17738672Y10085813D02*
X17738672Y10164844D01*
D10*
X17738672Y10164844D02*
X17787680Y10177148D01*
D10*
X17787680Y10177148D02*
X17833453Y10185938D01*
D10*
X17833453Y10185938D02*
X17876344Y10191211D01*
D10*
X17876344Y10191211D02*
X17916703Y10192969D01*
D10*
X17916703Y10192969D02*
X18007230Y10181473D01*
D10*
X18007230Y10181473D02*
X18076594Y10146984D01*
D10*
X18076594Y10146984D02*
X18120785Y10093055D01*
D10*
X18120785Y10093055D02*
X18135516Y10022953D01*
D10*
X18135516Y10022953D02*
X18127711Y9972645D01*
D10*
X18127711Y9972645D02*
X18104297Y9930844D01*
D10*
X18104297Y9930844D02*
X18066504Y9899063D01*
D10*
X18066504Y9899063D02*
X18015562Y9878812D01*
D10*
X16475000Y13846991D02*
X16475000Y14153009D01*
D10*
X15525000Y14153009D02*
X15525000Y13846991D01*
D10*
X16104656Y16130531D02*
X16104656Y16037016D01*
D10*
X16104656Y16037016D02*
X16058320Y16073473D01*
D10*
X16058320Y16073473D02*
X16009031Y16099312D01*
D10*
X16009031Y16099312D02*
X15956684Y16114816D01*
D10*
X15956684Y16114816D02*
X15901172Y16119984D01*
D10*
X15901172Y16119984D02*
X15801855Y16102793D01*
D10*
X15801855Y16102793D02*
X15728906Y16051219D01*
D10*
X15728906Y16051219D02*
X15684082Y15967125D01*
D10*
X15684082Y15967125D02*
X15669141Y15852375D01*
D10*
X15669141Y15852375D02*
X15684082Y15737941D01*
D10*
X15684082Y15737941D02*
X15728906Y15653953D01*
D10*
X15728906Y15653953D02*
X15801855Y15602379D01*
D10*
X15801855Y15602379D02*
X15901172Y15585188D01*
D10*
X15901172Y15585188D02*
X15956684Y15590355D01*
D10*
X15956684Y15590355D02*
X16009031Y15605859D01*
D10*
X16009031Y15605859D02*
X16058320Y15631805D01*
D10*
X16058320Y15631805D02*
X16104656Y15668297D01*
D10*
X16104656Y15668297D02*
X16104656Y15575484D01*
D10*
X16104656Y15575484D02*
X16056703Y15547781D01*
D10*
X16056703Y15547781D02*
X16005938Y15527953D01*
D10*
X16005938Y15527953D02*
X15952430Y15516141D01*
D10*
X15952430Y15516141D02*
X15895969Y15512203D01*
D10*
X15895969Y15512203D02*
X15762727Y15534984D01*
D10*
X15762727Y15534984D02*
X15661125Y15603328D01*
D10*
X15661125Y15603328D02*
X15596895Y15711223D01*
D10*
X15596895Y15711223D02*
X15575484Y15852375D01*
D10*
X15575484Y15852375D02*
X15596895Y15993809D01*
D10*
X15596895Y15993809D02*
X15661125Y16101703D01*
D10*
X15661125Y16101703D02*
X15762727Y16170152D01*
D10*
X15762727Y16170152D02*
X15895969Y16192969D01*
D10*
X15895969Y16192969D02*
X15953062Y16189066D01*
D10*
X15953062Y16189066D02*
X16006781Y16177359D01*
D10*
X16006781Y16177359D02*
X16057336Y16157848D01*
D10*
X16057336Y16157848D02*
X16104656Y16130531D01*
D10*
X16265109Y15599672D02*
X16410094Y15599672D01*
D10*
X16410094Y15599672D02*
X16410094Y16100297D01*
D10*
X16410094Y16100297D02*
X16252313Y16068656D01*
D10*
X16252313Y16068656D02*
X16252313Y16149516D01*
D10*
X16252313Y16149516D02*
X16409250Y16181156D01*
D10*
X16409250Y16181156D02*
X16497984Y16181156D01*
D10*
X16497984Y16181156D02*
X16497984Y15599672D01*
D10*
X16497984Y15599672D02*
X16642969Y15599672D01*
D10*
X16642969Y15599672D02*
X16642969Y15525000D01*
D10*
X16642969Y15525000D02*
X16265109Y15525000D01*
D10*
X16265109Y15525000D02*
X16265109Y15599672D01*
M02*
