G04 Nyquist Labs eelab.pcb*
%TF.FileFunction,Profile,NP*%
%TF.FilePolarity,Positive*%
%FSLAX46Y46*%
%MOMM*%
%LPD*%
%ADD10C,0.1000*%
G01*
D10*
X21000000Y0D02*
X1000000Y0D01*
D10*
X1000000Y0D02*
X804910Y19215D01*
D10*
X804910Y19215D02*
X617317Y76120D01*
D10*
X617317Y76120D02*
X444430Y168530D01*
D10*
X444430Y168530D02*
X292893Y292893D01*
D10*
X292893Y292893D02*
X168530Y444430D01*
D10*
X168530Y444430D02*
X76120Y617317D01*
D10*
X76120Y617317D02*
X19215Y804910D01*
D10*
X19215Y804910D02*
X0Y1000000D01*
D10*
X0Y1000000D02*
X0Y17000000D01*
D10*
X0Y17000000D02*
X19215Y17195090D01*
D10*
X19215Y17195090D02*
X76120Y17382683D01*
D10*
X76120Y17382683D02*
X168530Y17555570D01*
D10*
X168530Y17555570D02*
X292893Y17707107D01*
D10*
X292893Y17707107D02*
X444430Y17831470D01*
D10*
X444430Y17831470D02*
X617317Y17923880D01*
D10*
X617317Y17923880D02*
X804910Y17980785D01*
D10*
X804910Y17980785D02*
X1000000Y18000000D01*
D10*
X1000000Y18000000D02*
X21000000Y18000000D01*
D10*
X21000000Y18000000D02*
X21195090Y17980785D01*
D10*
X21195090Y17980785D02*
X21382683Y17923880D01*
D10*
X21382683Y17923880D02*
X21555570Y17831470D01*
D10*
X21555570Y17831470D02*
X21707107Y17707107D01*
D10*
X21707107Y17707107D02*
X21831470Y17555570D01*
D10*
X21831470Y17555570D02*
X21923880Y17382683D01*
D10*
X21923880Y17382683D02*
X21980785Y17195090D01*
D10*
X21980785Y17195090D02*
X22000000Y17000000D01*
D10*
X22000000Y17000000D02*
X22000000Y1000000D01*
D10*
X22000000Y1000000D02*
X21980785Y804910D01*
D10*
X21980785Y804910D02*
X21923880Y617317D01*
D10*
X21923880Y617317D02*
X21831470Y444430D01*
D10*
X21831470Y444430D02*
X21707107Y292893D01*
D10*
X21707107Y292893D02*
X21555570Y168530D01*
D10*
X21555570Y168530D02*
X21382683Y76120D01*
D10*
X21382683Y76120D02*
X21195090Y19215D01*
D10*
X21195090Y19215D02*
X21000000Y0D01*
M02*
