G04 Nyquist Labs eelab.pcb*
%TF.FileFunction,Soldermask,Top*%
%TF.FilePolarity,Negative*%
%FSLAX46Y46*%
%MOMM*%
%LPD*%
%ADD10R,1.8000X1.8000*%
%ADD11C,1.8000*%
%ADD12C,2.3000*%
G01*
%LPD*%
G36*
X9375000Y12555000D02*
X7675000Y12555000D01*
X7629707Y12560963D01*
X7587500Y12578446D01*
X7551256Y12606256D01*
X7523446Y12642500D01*
X7505963Y12684707D01*
X7500000Y12730000D01*
X7500000Y13080000D01*
X7505963Y13125293D01*
X7523446Y13167500D01*
X7551256Y13203744D01*
X7587500Y13231554D01*
X7629707Y13249037D01*
X7675000Y13255000D01*
X9375000Y13255000D01*
X9420293Y13249037D01*
X9462500Y13231554D01*
X9498744Y13203744D01*
X9526554Y13167500D01*
X9544037Y13125293D01*
X9550000Y13080000D01*
X9550000Y12730000D01*
X9544037Y12684707D01*
X9526554Y12642500D01*
X9498744Y12606256D01*
X9462500Y12578446D01*
X9420293Y12560963D01*
X9375000Y12555000D01*
G37*
%LPD*%
%LPD*%
G36*
X9375000Y11285000D02*
X7675000Y11285000D01*
X7629707Y11290963D01*
X7587500Y11308446D01*
X7551256Y11336256D01*
X7523446Y11372500D01*
X7505963Y11414707D01*
X7500000Y11460000D01*
X7500000Y11810000D01*
X7505963Y11855293D01*
X7523446Y11897500D01*
X7551256Y11933744D01*
X7587500Y11961554D01*
X7629707Y11979037D01*
X7675000Y11985000D01*
X9375000Y11985000D01*
X9420293Y11979037D01*
X9462500Y11961554D01*
X9498744Y11933744D01*
X9526554Y11897500D01*
X9544037Y11855293D01*
X9550000Y11810000D01*
X9550000Y11460000D01*
X9544037Y11414707D01*
X9526554Y11372500D01*
X9498744Y11336256D01*
X9462500Y11308446D01*
X9420293Y11290963D01*
X9375000Y11285000D01*
G37*
%LPD*%
%LPD*%
G36*
X9375000Y10015000D02*
X7675000Y10015000D01*
X7629707Y10020963D01*
X7587500Y10038446D01*
X7551256Y10066256D01*
X7523446Y10102500D01*
X7505963Y10144707D01*
X7500000Y10190000D01*
X7500000Y10540000D01*
X7505963Y10585293D01*
X7523446Y10627500D01*
X7551256Y10663744D01*
X7587500Y10691554D01*
X7629707Y10709037D01*
X7675000Y10715000D01*
X9375000Y10715000D01*
X9420293Y10709037D01*
X9462500Y10691554D01*
X9498744Y10663744D01*
X9526554Y10627500D01*
X9544037Y10585293D01*
X9550000Y10540000D01*
X9550000Y10190000D01*
X9544037Y10144707D01*
X9526554Y10102500D01*
X9498744Y10066256D01*
X9462500Y10038446D01*
X9420293Y10020963D01*
X9375000Y10015000D01*
G37*
%LPD*%
%LPD*%
G36*
X9375000Y8745000D02*
X7675000Y8745000D01*
X7629707Y8750963D01*
X7587500Y8768446D01*
X7551256Y8796256D01*
X7523446Y8832500D01*
X7505963Y8874707D01*
X7500000Y8920000D01*
X7500000Y9270000D01*
X7505963Y9315293D01*
X7523446Y9357500D01*
X7551256Y9393744D01*
X7587500Y9421554D01*
X7629707Y9439037D01*
X7675000Y9445000D01*
X9375000Y9445000D01*
X9420293Y9439037D01*
X9462500Y9421554D01*
X9498744Y9393744D01*
X9526554Y9357500D01*
X9544037Y9315293D01*
X9550000Y9270000D01*
X9550000Y8920000D01*
X9544037Y8874707D01*
X9526554Y8832500D01*
X9498744Y8796256D01*
X9462500Y8768446D01*
X9420293Y8750963D01*
X9375000Y8745000D01*
G37*
%LPD*%
%LPD*%
G36*
X14325000Y8745000D02*
X12625000Y8745000D01*
X12579707Y8750963D01*
X12537500Y8768446D01*
X12501256Y8796256D01*
X12473446Y8832500D01*
X12455963Y8874707D01*
X12450000Y8920000D01*
X12450000Y9270000D01*
X12455963Y9315293D01*
X12473446Y9357500D01*
X12501256Y9393744D01*
X12537500Y9421554D01*
X12579707Y9439037D01*
X12625000Y9445000D01*
X14325000Y9445000D01*
X14370293Y9439037D01*
X14412500Y9421554D01*
X14448744Y9393744D01*
X14476554Y9357500D01*
X14494037Y9315293D01*
X14500000Y9270000D01*
X14500000Y8920000D01*
X14494037Y8874707D01*
X14476554Y8832500D01*
X14448744Y8796256D01*
X14412500Y8768446D01*
X14370293Y8750963D01*
X14325000Y8745000D01*
G37*
%LPD*%
%LPD*%
G36*
X14325000Y10015000D02*
X12625000Y10015000D01*
X12579707Y10020963D01*
X12537500Y10038446D01*
X12501256Y10066256D01*
X12473446Y10102500D01*
X12455963Y10144707D01*
X12450000Y10190000D01*
X12450000Y10540000D01*
X12455963Y10585293D01*
X12473446Y10627500D01*
X12501256Y10663744D01*
X12537500Y10691554D01*
X12579707Y10709037D01*
X12625000Y10715000D01*
X14325000Y10715000D01*
X14370293Y10709037D01*
X14412500Y10691554D01*
X14448744Y10663744D01*
X14476554Y10627500D01*
X14494037Y10585293D01*
X14500000Y10540000D01*
X14500000Y10190000D01*
X14494037Y10144707D01*
X14476554Y10102500D01*
X14448744Y10066256D01*
X14412500Y10038446D01*
X14370293Y10020963D01*
X14325000Y10015000D01*
G37*
%LPD*%
%LPD*%
G36*
X14325000Y11285000D02*
X12625000Y11285000D01*
X12579707Y11290963D01*
X12537500Y11308446D01*
X12501256Y11336256D01*
X12473446Y11372500D01*
X12455963Y11414707D01*
X12450000Y11460000D01*
X12450000Y11810000D01*
X12455963Y11855293D01*
X12473446Y11897500D01*
X12501256Y11933744D01*
X12537500Y11961554D01*
X12579707Y11979037D01*
X12625000Y11985000D01*
X14325000Y11985000D01*
X14370293Y11979037D01*
X14412500Y11961554D01*
X14448744Y11933744D01*
X14476554Y11897500D01*
X14494037Y11855293D01*
X14500000Y11810000D01*
X14500000Y11460000D01*
X14494037Y11414707D01*
X14476554Y11372500D01*
X14448744Y11336256D01*
X14412500Y11308446D01*
X14370293Y11290963D01*
X14325000Y11285000D01*
G37*
%LPD*%
%LPD*%
G36*
X14325000Y12555000D02*
X12625000Y12555000D01*
X12579707Y12560963D01*
X12537500Y12578446D01*
X12501256Y12606256D01*
X12473446Y12642500D01*
X12455963Y12684707D01*
X12450000Y12730000D01*
X12450000Y13080000D01*
X12455963Y13125293D01*
X12473446Y13167500D01*
X12501256Y13203744D01*
X12537500Y13231554D01*
X12579707Y13249037D01*
X12625000Y13255000D01*
X14325000Y13255000D01*
X14370293Y13249037D01*
X14412500Y13231554D01*
X14448744Y13203744D01*
X14476554Y13167500D01*
X14494037Y13125293D01*
X14500000Y13080000D01*
X14500000Y12730000D01*
X14494037Y12684707D01*
X14476554Y12642500D01*
X14448744Y12606256D01*
X14412500Y12578446D01*
X14370293Y12560963D01*
X14325000Y12555000D01*
G37*
%LPD*%
D10*
X5920000Y3000000D03*
D11*
X8460000Y3000000D03*
D11*
X11000000Y3000000D03*
D11*
X13540000Y3000000D03*
D11*
X16080000Y3000000D03*
%LPD*%
G36*
X4275000Y10725000D02*
X3725000Y10725000D01*
X3660295Y10733519D01*
X3600000Y10758494D01*
X3548223Y10798223D01*
X3508494Y10850000D01*
X3483519Y10910295D01*
X3475000Y10975000D01*
X3475000Y11475000D01*
X3483519Y11539705D01*
X3508494Y11600000D01*
X3548223Y11651777D01*
X3600000Y11691506D01*
X3660295Y11716481D01*
X3725000Y11725000D01*
X4275000Y11725000D01*
X4339705Y11716481D01*
X4400000Y11691506D01*
X4451777Y11651777D01*
X4491506Y11600000D01*
X4516481Y11539705D01*
X4525000Y11475000D01*
X4525000Y10975000D01*
X4516481Y10910295D01*
X4491506Y10850000D01*
X4451777Y10798223D01*
X4400000Y10758494D01*
X4339705Y10733519D01*
X4275000Y10725000D01*
G37*
%LPD*%
%LPD*%
G36*
X4275000Y12275000D02*
X3725000Y12275000D01*
X3660295Y12283519D01*
X3600000Y12308494D01*
X3548223Y12348223D01*
X3508494Y12400000D01*
X3483519Y12460295D01*
X3475000Y12525000D01*
X3475000Y13025000D01*
X3483519Y13089705D01*
X3508494Y13150000D01*
X3548223Y13201777D01*
X3600000Y13241506D01*
X3660295Y13266481D01*
X3725000Y13275000D01*
X4275000Y13275000D01*
X4339705Y13266481D01*
X4400000Y13241506D01*
X4451777Y13201777D01*
X4491506Y13150000D01*
X4516481Y13089705D01*
X4525000Y13025000D01*
X4525000Y12525000D01*
X4516481Y12460295D01*
X4491506Y12400000D01*
X4451777Y12348223D01*
X4400000Y12308494D01*
X4339705Y12283519D01*
X4275000Y12275000D01*
G37*
%LPD*%
%LPD*%
G36*
X6775000Y10725000D02*
X6225000Y10725000D01*
X6160295Y10733519D01*
X6100000Y10758494D01*
X6048223Y10798223D01*
X6008494Y10850000D01*
X5983519Y10910295D01*
X5975000Y10975000D01*
X5975000Y11475000D01*
X5983519Y11539705D01*
X6008494Y11600000D01*
X6048223Y11651777D01*
X6100000Y11691506D01*
X6160295Y11716481D01*
X6225000Y11725000D01*
X6775000Y11725000D01*
X6839705Y11716481D01*
X6900000Y11691506D01*
X6951777Y11651777D01*
X6991506Y11600000D01*
X7016481Y11539705D01*
X7025000Y11475000D01*
X7025000Y10975000D01*
X7016481Y10910295D01*
X6991506Y10850000D01*
X6951777Y10798223D01*
X6900000Y10758494D01*
X6839705Y10733519D01*
X6775000Y10725000D01*
G37*
%LPD*%
%LPD*%
G36*
X6775000Y12275000D02*
X6225000Y12275000D01*
X6160295Y12283519D01*
X6100000Y12308494D01*
X6048223Y12348223D01*
X6008494Y12400000D01*
X5983519Y12460295D01*
X5975000Y12525000D01*
X5975000Y13025000D01*
X5983519Y13089705D01*
X6008494Y13150000D01*
X6048223Y13201777D01*
X6100000Y13241506D01*
X6160295Y13266481D01*
X6225000Y13275000D01*
X6775000Y13275000D01*
X6839705Y13266481D01*
X6900000Y13241506D01*
X6951777Y13201777D01*
X6991506Y13150000D01*
X7016481Y13089705D01*
X7025000Y13025000D01*
X7025000Y12525000D01*
X7016481Y12460295D01*
X6991506Y12400000D01*
X6951777Y12348223D01*
X6900000Y12308494D01*
X6839705Y12283519D01*
X6775000Y12275000D01*
G37*
%LPD*%
%LPD*%
G36*
X17775000Y6725000D02*
X17225000Y6725000D01*
X17160295Y6733519D01*
X17100000Y6758494D01*
X17048223Y6798223D01*
X17008494Y6850000D01*
X16983519Y6910295D01*
X16975000Y6975000D01*
X16975000Y7475000D01*
X16983519Y7539705D01*
X17008494Y7600000D01*
X17048223Y7651777D01*
X17100000Y7691506D01*
X17160295Y7716481D01*
X17225000Y7725000D01*
X17775000Y7725000D01*
X17839705Y7716481D01*
X17900000Y7691506D01*
X17951777Y7651777D01*
X17991506Y7600000D01*
X18016481Y7539705D01*
X18025000Y7475000D01*
X18025000Y6975000D01*
X18016481Y6910295D01*
X17991506Y6850000D01*
X17951777Y6798223D01*
X17900000Y6758494D01*
X17839705Y6733519D01*
X17775000Y6725000D01*
G37*
%LPD*%
%LPD*%
G36*
X17775000Y8275000D02*
X17225000Y8275000D01*
X17160295Y8283519D01*
X17100000Y8308494D01*
X17048223Y8348223D01*
X17008494Y8400000D01*
X16983519Y8460295D01*
X16975000Y8525000D01*
X16975000Y9025000D01*
X16983519Y9089705D01*
X17008494Y9150000D01*
X17048223Y9201777D01*
X17100000Y9241506D01*
X17160295Y9266481D01*
X17225000Y9275000D01*
X17775000Y9275000D01*
X17839705Y9266481D01*
X17900000Y9241506D01*
X17951777Y9201777D01*
X17991506Y9150000D01*
X18016481Y9089705D01*
X18025000Y9025000D01*
X18025000Y8525000D01*
X18016481Y8460295D01*
X17991506Y8400000D01*
X17951777Y8348223D01*
X17900000Y8308494D01*
X17839705Y8283519D01*
X17775000Y8275000D01*
G37*
%LPD*%
%LPD*%
G36*
X16275000Y12725000D02*
X15725000Y12725000D01*
X15660295Y12733519D01*
X15600000Y12758494D01*
X15548223Y12798223D01*
X15508494Y12850000D01*
X15483519Y12910295D01*
X15475000Y12975000D01*
X15475000Y13475000D01*
X15483519Y13539705D01*
X15508494Y13600000D01*
X15548223Y13651777D01*
X15600000Y13691506D01*
X15660295Y13716481D01*
X15725000Y13725000D01*
X16275000Y13725000D01*
X16339705Y13716481D01*
X16400000Y13691506D01*
X16451777Y13651777D01*
X16491506Y13600000D01*
X16516481Y13539705D01*
X16525000Y13475000D01*
X16525000Y12975000D01*
X16516481Y12910295D01*
X16491506Y12850000D01*
X16451777Y12798223D01*
X16400000Y12758494D01*
X16339705Y12733519D01*
X16275000Y12725000D01*
G37*
%LPD*%
%LPD*%
G36*
X16275000Y14275000D02*
X15725000Y14275000D01*
X15660295Y14283519D01*
X15600000Y14308494D01*
X15548223Y14348223D01*
X15508494Y14400000D01*
X15483519Y14460295D01*
X15475000Y14525000D01*
X15475000Y15025000D01*
X15483519Y15089705D01*
X15508494Y15150000D01*
X15548223Y15201777D01*
X15600000Y15241506D01*
X15660295Y15266481D01*
X15725000Y15275000D01*
X16275000Y15275000D01*
X16339705Y15266481D01*
X16400000Y15241506D01*
X16451777Y15201777D01*
X16491506Y15150000D01*
X16516481Y15089705D01*
X16525000Y15025000D01*
X16525000Y14525000D01*
X16516481Y14460295D01*
X16491506Y14400000D01*
X16451777Y14348223D01*
X16400000Y14308494D01*
X16339705Y14283519D01*
X16275000Y14275000D01*
G37*
%LPD*%
D12*
X3000000Y16000000D03*
D12*
X19000000Y16000000D03*
M02*
