G04 Nyquist Labs eelab.pcb*
%TF.FileFunction,Legend,Top*%
%TF.FilePolarity,Positive*%
%FSLAX46Y46*%
%MOMM*%
%LPD*%
%ADD10C,0.1500*%
G01*
D10*
X26670000Y1270000D02*
X46990000Y1270000D01*
D10*
X46990000Y1270000D02*
X46990000Y3810000D01*
D10*
X46990000Y3810000D02*
X26670000Y3810000D01*
D10*
X26670000Y3810000D02*
X26670000Y1270000D01*
D10*
X26758312Y4766156D02*
X26847047Y4766156D01*
D10*
X26847047Y4766156D02*
X26847047Y4155703D01*
D10*
X26847047Y4155703D02*
X26835797Y4053293D01*
D10*
X26835797Y4053293D02*
X26802047Y3983438D01*
D10*
X26802047Y3983438D02*
X26743336Y3943254D01*
D10*
X26743336Y3943254D02*
X26657203Y3929859D01*
D10*
X26657203Y3929859D02*
X26623453Y3929859D01*
D10*
X26623453Y3929859D02*
X26623453Y4004531D01*
D10*
X26623453Y4004531D02*
X26651156Y4004531D01*
D10*
X26651156Y4004531D02*
X26701289Y4012793D01*
D10*
X26701289Y4012793D02*
X26734125Y4037578D01*
D10*
X26734125Y4037578D02*
X26752266Y4083562D01*
D10*
X26752266Y4083562D02*
X26758312Y4155703D01*
D10*
X26758312Y4155703D02*
X26758312Y4766156D01*
D10*
X27047156Y4184672D02*
X27192141Y4184672D01*
D10*
X27192141Y4184672D02*
X27192141Y4685297D01*
D10*
X27192141Y4685297D02*
X27034359Y4653656D01*
D10*
X27034359Y4653656D02*
X27034359Y4734516D01*
D10*
X27034359Y4734516D02*
X27191297Y4766156D01*
D10*
X27191297Y4766156D02*
X27280031Y4766156D01*
D10*
X27280031Y4766156D02*
X27280031Y4184672D01*
D10*
X27280031Y4184672D02*
X27425016Y4184672D01*
D10*
X27425016Y4184672D02*
X27425016Y4110000D01*
D10*
X27425016Y4110000D02*
X27047156Y4110000D01*
D10*
X27047156Y4110000D02*
X27047156Y4184672D01*
D10*
X49530000Y1270000D02*
X64770000Y1270000D01*
D10*
X64770000Y1270000D02*
X64770000Y3810000D01*
D10*
X64770000Y3810000D02*
X49530000Y3810000D01*
D10*
X49530000Y3810000D02*
X49530000Y1270000D01*
D10*
X49618312Y4766156D02*
X49707047Y4766156D01*
D10*
X49707047Y4766156D02*
X49707047Y4155703D01*
D10*
X49707047Y4155703D02*
X49695797Y4053293D01*
D10*
X49695797Y4053293D02*
X49662047Y3983438D01*
D10*
X49662047Y3983438D02*
X49603336Y3943254D01*
D10*
X49603336Y3943254D02*
X49517203Y3929859D01*
D10*
X49517203Y3929859D02*
X49483453Y3929859D01*
D10*
X49483453Y3929859D02*
X49483453Y4004531D01*
D10*
X49483453Y4004531D02*
X49511156Y4004531D01*
D10*
X49511156Y4004531D02*
X49561289Y4012793D01*
D10*
X49561289Y4012793D02*
X49594125Y4037578D01*
D10*
X49594125Y4037578D02*
X49612266Y4083562D01*
D10*
X49612266Y4083562D02*
X49618312Y4155703D01*
D10*
X49618312Y4155703D02*
X49618312Y4766156D01*
D10*
X49968188Y4184672D02*
X50277984Y4184672D01*
D10*
X50277984Y4184672D02*
X50277984Y4110000D01*
D10*
X50277984Y4110000D02*
X49861453Y4110000D01*
D10*
X49861453Y4110000D02*
X49861453Y4184672D01*
D10*
X49861453Y4184672D02*
X49921113Y4245914D01*
D10*
X49921113Y4245914D02*
X49999125Y4325016D01*
D10*
X49999125Y4325016D02*
X50070211Y4397543D01*
D10*
X50070211Y4397543D02*
X50108812Y4438781D01*
D10*
X50108812Y4438781D02*
X50144988Y4482938D01*
D10*
X50144988Y4482938D02*
X50168297Y4519781D01*
D10*
X50168297Y4519781D02*
X50181059Y4552688D01*
D10*
X50181059Y4552688D02*
X50185312Y4585031D01*
D10*
X50185312Y4585031D02*
X50176137Y4632492D01*
D10*
X50176137Y4632492D02*
X50148609Y4670250D01*
D10*
X50148609Y4670250D02*
X50106352Y4695035D01*
D10*
X50106352Y4695035D02*
X50052984Y4703297D01*
D10*
X50052984Y4703297D02*
X50010059Y4699676D01*
D10*
X50010059Y4699676D02*
X49964812Y4688812D01*
D10*
X49964812Y4688812D02*
X49916930Y4670566D01*
D10*
X49916930Y4670566D02*
X49865813Y4644797D01*
D10*
X49865813Y4644797D02*
X49865813Y4734516D01*
D10*
X49865813Y4734516D02*
X49917633Y4753395D01*
D10*
X49917633Y4753395D02*
X49965938Y4767000D01*
D10*
X49965938Y4767000D02*
X50010621Y4775227D01*
D10*
X50010621Y4775227D02*
X50051297Y4777969D01*
D10*
X50051297Y4777969D02*
X50142914Y4765207D01*
D10*
X50142914Y4765207D02*
X50213859Y4726922D01*
D10*
X50213859Y4726922D02*
X50259316Y4667438D01*
D10*
X50259316Y4667438D02*
X50274469Y4590797D01*
D10*
X50274469Y4590797D02*
X50270672Y4551352D01*
D10*
X50270672Y4551352D02*
X50259281Y4514016D01*
D10*
X50259281Y4514016D02*
X50237977Y4474605D01*
D10*
X50237977Y4474605D02*
X50204156Y4428656D01*
D10*
X50204156Y4428656D02*
X50181199Y4403836D01*
D10*
X50181199Y4403836D02*
X50134266Y4354969D01*
D10*
X50134266Y4354969D02*
X50063355Y4281949D01*
D10*
X50063355Y4281949D02*
X49968188Y4184672D01*
D10*
X44450000Y49530000D02*
X64770000Y49530000D01*
D10*
X64770000Y49530000D02*
X64770000Y52070000D01*
D10*
X64770000Y52070000D02*
X44450000Y52070000D01*
D10*
X44450000Y52070000D02*
X44450000Y49530000D01*
D10*
X44538312Y53026156D02*
X44627047Y53026156D01*
D10*
X44627047Y53026156D02*
X44627047Y52415703D01*
D10*
X44627047Y52415703D02*
X44615797Y52313293D01*
D10*
X44615797Y52313293D02*
X44582047Y52243438D01*
D10*
X44582047Y52243438D02*
X44523336Y52203254D01*
D10*
X44523336Y52203254D02*
X44437203Y52189859D01*
D10*
X44437203Y52189859D02*
X44403453Y52189859D01*
D10*
X44403453Y52189859D02*
X44403453Y52264531D01*
D10*
X44403453Y52264531D02*
X44431156Y52264531D01*
D10*
X44431156Y52264531D02*
X44481289Y52272793D01*
D10*
X44481289Y52272793D02*
X44514125Y52297578D01*
D10*
X44514125Y52297578D02*
X44532266Y52343562D01*
D10*
X44532266Y52343562D02*
X44538312Y52415703D01*
D10*
X44538312Y52415703D02*
X44538312Y53026156D01*
D10*
X45080703Y52723812D02*
X45137410Y52702789D01*
D10*
X45137410Y52702789D02*
X45180125Y52667000D01*
D10*
X45180125Y52667000D02*
X45207020Y52618906D01*
D10*
X45207020Y52618906D02*
X45215984Y52560688D01*
D10*
X45215984Y52560688D02*
X45199285Y52474590D01*
D10*
X45199285Y52474590D02*
X45149188Y52410359D01*
D10*
X45149188Y52410359D02*
X45068328Y52370492D01*
D10*
X45068328Y52370492D02*
X44959344Y52357203D01*
D10*
X44959344Y52357203D02*
X44917508Y52359242D01*
D10*
X44917508Y52359242D02*
X44874406Y52365359D01*
D10*
X44874406Y52365359D02*
X44829969Y52375555D01*
D10*
X44829969Y52375555D02*
X44784125Y52389828D01*
D10*
X44784125Y52389828D02*
X44784125Y52475469D01*
D10*
X44784125Y52475469D02*
X44822727Y52456590D01*
D10*
X44822727Y52456590D02*
X44864844Y52442984D01*
D10*
X44864844Y52442984D02*
X44909844Y52434758D01*
D10*
X44909844Y52434758D02*
X44956813Y52432016D01*
D10*
X44956813Y52432016D02*
X45030289Y52440242D01*
D10*
X45030289Y52440242D02*
X45083938Y52464922D01*
D10*
X45083938Y52464922D02*
X45116738Y52505316D01*
D10*
X45116738Y52505316D02*
X45127672Y52560688D01*
D10*
X45127672Y52560688D02*
X45117512Y52612402D01*
D10*
X45117512Y52612402D02*
X45087031Y52651391D01*
D10*
X45087031Y52651391D02*
X45038445Y52675965D01*
D10*
X45038445Y52675965D02*
X44973969Y52684156D01*
D10*
X44973969Y52684156D02*
X44897469Y52684156D01*
D10*
X44897469Y52684156D02*
X44897469Y52757141D01*
D10*
X44897469Y52757141D02*
X44977484Y52757141D01*
D10*
X44977484Y52757141D02*
X45035211Y52763680D01*
D10*
X45035211Y52763680D02*
X45077609Y52783297D01*
D10*
X45077609Y52783297D02*
X45103660Y52815219D01*
D10*
X45103660Y52815219D02*
X45112344Y52858672D01*
D10*
X45112344Y52858672D02*
X45103379Y52903285D01*
D10*
X45103379Y52903285D02*
X45076484Y52936156D01*
D10*
X45076484Y52936156D02*
X45032996Y52956512D01*
D10*
X45032996Y52956512D02*
X44973969Y52963297D01*
D10*
X44973969Y52963297D02*
X44936105Y52961293D01*
D10*
X44936105Y52961293D02*
X44895641Y52955281D01*
D10*
X44895641Y52955281D02*
X44851801Y52945227D01*
D10*
X44851801Y52945227D02*
X44803812Y52930812D01*
D10*
X44803812Y52930812D02*
X44803812Y53009844D01*
D10*
X44803812Y53009844D02*
X44852820Y53022148D01*
D10*
X44852820Y53022148D02*
X44898594Y53030938D01*
D10*
X44898594Y53030938D02*
X44941484Y53036211D01*
D10*
X44941484Y53036211D02*
X44981844Y53037969D01*
D10*
X44981844Y53037969D02*
X45072371Y53026473D01*
D10*
X45072371Y53026473D02*
X45141734Y52991984D01*
D10*
X45141734Y52991984D02*
X45185926Y52938055D01*
D10*
X45185926Y52938055D02*
X45200656Y52867953D01*
D10*
X45200656Y52867953D02*
X45192852Y52817645D01*
D10*
X45192852Y52817645D02*
X45169438Y52775844D01*
D10*
X45169438Y52775844D02*
X45131645Y52744062D01*
D10*
X45131645Y52744062D02*
X45080703Y52723812D01*
D10*
X17530000Y49530000D02*
X42930000Y49530000D01*
D10*
X42930000Y49530000D02*
X42930000Y52070000D01*
D10*
X42930000Y52070000D02*
X17530000Y52070000D01*
D10*
X17530000Y52070000D02*
X17530000Y49530000D01*
D10*
X17618313Y53026156D02*
X17707047Y53026156D01*
D10*
X17707047Y53026156D02*
X17707047Y52415703D01*
D10*
X17707047Y52415703D02*
X17695797Y52313293D01*
D10*
X17695797Y52313293D02*
X17662047Y52243438D01*
D10*
X17662047Y52243438D02*
X17603336Y52203254D01*
D10*
X17603336Y52203254D02*
X17517203Y52189859D01*
D10*
X17517203Y52189859D02*
X17483453Y52189859D01*
D10*
X17483453Y52189859D02*
X17483453Y52264531D01*
D10*
X17483453Y52264531D02*
X17511156Y52264531D01*
D10*
X17511156Y52264531D02*
X17561289Y52272793D01*
D10*
X17561289Y52272793D02*
X17594125Y52297578D01*
D10*
X17594125Y52297578D02*
X17612266Y52343562D01*
D10*
X17612266Y52343562D02*
X17618313Y52415703D01*
D10*
X17618313Y52415703D02*
X17618313Y53026156D01*
D10*
X18135672Y52948812D02*
X17911516Y52598516D01*
D10*
X17911516Y52598516D02*
X18135672Y52598516D01*
D10*
X18135672Y52598516D02*
X18135672Y52948812D01*
D10*
X18112328Y53026156D02*
X18223984Y53026156D01*
D10*
X18223984Y53026156D02*
X18223984Y52598516D01*
D10*
X18223984Y52598516D02*
X18317641Y52598516D01*
D10*
X18317641Y52598516D02*
X18317641Y52524688D01*
D10*
X18317641Y52524688D02*
X18223984Y52524688D01*
D10*
X18223984Y52524688D02*
X18223984Y52370000D01*
D10*
X18223984Y52370000D02*
X18135672Y52370000D01*
D10*
X18135672Y52370000D02*
X18135672Y52524688D01*
D10*
X18135672Y52524688D02*
X17839516Y52524688D01*
D10*
X17839516Y52524688D02*
X17839516Y52610328D01*
D10*
X17839516Y52610328D02*
X18112328Y53026156D01*
D10*
X40725000Y39736332D02*
X40725000Y40263668D01*
D10*
X39275000Y40263668D02*
X39275000Y39736332D01*
D10*
X39674516Y42057688D02*
X39702676Y42042500D01*
D10*
X39702676Y42042500D02*
X39730062Y42016344D01*
D10*
X39730062Y42016344D02*
X39757133Y41978762D01*
D10*
X39757133Y41978762D02*
X39784344Y41929297D01*
D10*
X39784344Y41929297D02*
X39874484Y41750000D01*
D10*
X39874484Y41750000D02*
X39779000Y41750000D01*
D10*
X39779000Y41750000D02*
X39695187Y41918328D01*
D10*
X39695187Y41918328D02*
X39663090Y41973172D01*
D10*
X39663090Y41973172D02*
X39632047Y42005797D01*
D10*
X39632047Y42005797D02*
X39595977Y42021934D01*
D10*
X39595977Y42021934D02*
X39548797Y42027312D01*
D10*
X39548797Y42027312D02*
X39452047Y42027312D01*
D10*
X39452047Y42027312D02*
X39452047Y41750000D01*
D10*
X39452047Y41750000D02*
X39363312Y41750000D01*
D10*
X39363312Y41750000D02*
X39363312Y42406156D01*
D10*
X39363312Y42406156D02*
X39563703Y42406156D01*
D10*
X39563703Y42406156D02*
X39661930Y42394379D01*
D10*
X39661930Y42394379D02*
X39731609Y42359047D01*
D10*
X39731609Y42359047D02*
X39773164Y42300090D01*
D10*
X39773164Y42300090D02*
X39787016Y42217156D01*
D10*
X39787016Y42217156D02*
X39779809Y42160414D01*
D10*
X39779809Y42160414D02*
X39758188Y42114219D01*
D10*
X39758188Y42114219D02*
X39722855Y42079695D01*
D10*
X39722855Y42079695D02*
X39674516Y42057688D01*
D10*
X39452047Y42333172D02*
X39452047Y42100297D01*
D10*
X39452047Y42100297D02*
X39563703Y42100297D01*
D10*
X39563703Y42100297D02*
X39619988Y42107715D01*
D10*
X39619988Y42107715D02*
X39660594Y42129969D01*
D10*
X39660594Y42129969D02*
X39685168Y42166602D01*
D10*
X39685168Y42166602D02*
X39693359Y42217156D01*
D10*
X39693359Y42217156D02*
X39685168Y42267605D01*
D10*
X39685168Y42267605D02*
X39660594Y42303922D01*
D10*
X39660594Y42303922D02*
X39619988Y42325859D01*
D10*
X39619988Y42325859D02*
X39563703Y42333172D01*
D10*
X39563703Y42333172D02*
X39452047Y42333172D01*
D10*
X40012016Y41824672D02*
X40157000Y41824672D01*
D10*
X40157000Y41824672D02*
X40157000Y42325297D01*
D10*
X40157000Y42325297D02*
X39999219Y42293656D01*
D10*
X39999219Y42293656D02*
X39999219Y42374516D01*
D10*
X39999219Y42374516D02*
X40156156Y42406156D01*
D10*
X40156156Y42406156D02*
X40244891Y42406156D01*
D10*
X40244891Y42406156D02*
X40244891Y41824672D01*
D10*
X40244891Y41824672D02*
X40389875Y41824672D01*
D10*
X40389875Y41824672D02*
X40389875Y41750000D01*
D10*
X40389875Y41750000D02*
X40012016Y41750000D01*
D10*
X40012016Y41750000D02*
X40012016Y41824672D01*
D10*
X40725000Y32736332D02*
X40725000Y33263668D01*
D10*
X39275000Y33263668D02*
X39275000Y32736332D01*
D10*
X39452047Y35333172D02*
X39452047Y34822984D01*
D10*
X39452047Y34822984D02*
X39559344Y34822984D01*
D10*
X39559344Y34822984D02*
X39676977Y34838348D01*
D10*
X39676977Y34838348D02*
X39758188Y34884438D01*
D10*
X39758188Y34884438D02*
X39805438Y34963820D01*
D10*
X39805438Y34963820D02*
X39821188Y35078781D01*
D10*
X39821188Y35078781D02*
X39805438Y35192934D01*
D10*
X39805438Y35192934D02*
X39758188Y35271859D01*
D10*
X39758188Y35271859D02*
X39676977Y35317844D01*
D10*
X39676977Y35317844D02*
X39559344Y35333172D01*
D10*
X39559344Y35333172D02*
X39452047Y35333172D01*
D10*
X39363312Y35406156D02*
X39545703Y35406156D01*
D10*
X39545703Y35406156D02*
X39711008Y35386328D01*
D10*
X39711008Y35386328D02*
X39825547Y35326844D01*
D10*
X39825547Y35326844D02*
X39892520Y35225172D01*
D10*
X39892520Y35225172D02*
X39914844Y35078781D01*
D10*
X39914844Y35078781D02*
X39892414Y34931582D01*
D10*
X39892414Y34931582D02*
X39825125Y34829453D01*
D10*
X39825125Y34829453D02*
X39710480Y34769863D01*
D10*
X39710480Y34769863D02*
X39545703Y34750000D01*
D10*
X39545703Y34750000D02*
X39363312Y34750000D01*
D10*
X39363312Y34750000D02*
X39363312Y35406156D01*
D10*
X40079656Y34824672D02*
X40224641Y34824672D01*
D10*
X40224641Y34824672D02*
X40224641Y35325297D01*
D10*
X40224641Y35325297D02*
X40066859Y35293656D01*
D10*
X40066859Y35293656D02*
X40066859Y35374516D01*
D10*
X40066859Y35374516D02*
X40223797Y35406156D01*
D10*
X40223797Y35406156D02*
X40312531Y35406156D01*
D10*
X40312531Y35406156D02*
X40312531Y34824672D01*
D10*
X40312531Y34824672D02*
X40457516Y34824672D01*
D10*
X40457516Y34824672D02*
X40457516Y34750000D01*
D10*
X40457516Y34750000D02*
X40079656Y34750000D01*
D10*
X40079656Y34750000D02*
X40079656Y34824672D01*
D10*
X46725000Y39736332D02*
X46725000Y40263668D01*
D10*
X45275000Y40263668D02*
X45275000Y39736332D01*
D10*
X45674516Y42057688D02*
X45702676Y42042500D01*
D10*
X45702676Y42042500D02*
X45730062Y42016344D01*
D10*
X45730062Y42016344D02*
X45757133Y41978762D01*
D10*
X45757133Y41978762D02*
X45784344Y41929297D01*
D10*
X45784344Y41929297D02*
X45874484Y41750000D01*
D10*
X45874484Y41750000D02*
X45779000Y41750000D01*
D10*
X45779000Y41750000D02*
X45695187Y41918328D01*
D10*
X45695187Y41918328D02*
X45663090Y41973172D01*
D10*
X45663090Y41973172D02*
X45632047Y42005797D01*
D10*
X45632047Y42005797D02*
X45595977Y42021934D01*
D10*
X45595977Y42021934D02*
X45548797Y42027312D01*
D10*
X45548797Y42027312D02*
X45452047Y42027312D01*
D10*
X45452047Y42027312D02*
X45452047Y41750000D01*
D10*
X45452047Y41750000D02*
X45363312Y41750000D01*
D10*
X45363312Y41750000D02*
X45363312Y42406156D01*
D10*
X45363312Y42406156D02*
X45563703Y42406156D01*
D10*
X45563703Y42406156D02*
X45661930Y42394379D01*
D10*
X45661930Y42394379D02*
X45731609Y42359047D01*
D10*
X45731609Y42359047D02*
X45773164Y42300090D01*
D10*
X45773164Y42300090D02*
X45787016Y42217156D01*
D10*
X45787016Y42217156D02*
X45779809Y42160414D01*
D10*
X45779809Y42160414D02*
X45758188Y42114219D01*
D10*
X45758188Y42114219D02*
X45722855Y42079695D01*
D10*
X45722855Y42079695D02*
X45674516Y42057688D01*
D10*
X45452047Y42333172D02*
X45452047Y42100297D01*
D10*
X45452047Y42100297D02*
X45563703Y42100297D01*
D10*
X45563703Y42100297D02*
X45619988Y42107715D01*
D10*
X45619988Y42107715D02*
X45660594Y42129969D01*
D10*
X45660594Y42129969D02*
X45685168Y42166602D01*
D10*
X45685168Y42166602D02*
X45693359Y42217156D01*
D10*
X45693359Y42217156D02*
X45685168Y42267605D01*
D10*
X45685168Y42267605D02*
X45660594Y42303922D01*
D10*
X45660594Y42303922D02*
X45619988Y42325859D01*
D10*
X45619988Y42325859D02*
X45563703Y42333172D01*
D10*
X45563703Y42333172D02*
X45452047Y42333172D01*
D10*
X46073047Y41824672D02*
X46382844Y41824672D01*
D10*
X46382844Y41824672D02*
X46382844Y41750000D01*
D10*
X46382844Y41750000D02*
X45966312Y41750000D01*
D10*
X45966312Y41750000D02*
X45966312Y41824672D01*
D10*
X45966312Y41824672D02*
X46025973Y41885914D01*
D10*
X46025973Y41885914D02*
X46103984Y41965016D01*
D10*
X46103984Y41965016D02*
X46175070Y42037543D01*
D10*
X46175070Y42037543D02*
X46213672Y42078781D01*
D10*
X46213672Y42078781D02*
X46249848Y42122938D01*
D10*
X46249848Y42122938D02*
X46273156Y42159781D01*
D10*
X46273156Y42159781D02*
X46285918Y42192688D01*
D10*
X46285918Y42192688D02*
X46290172Y42225031D01*
D10*
X46290172Y42225031D02*
X46280996Y42272492D01*
D10*
X46280996Y42272492D02*
X46253469Y42310250D01*
D10*
X46253469Y42310250D02*
X46211211Y42335035D01*
D10*
X46211211Y42335035D02*
X46157844Y42343297D01*
D10*
X46157844Y42343297D02*
X46114918Y42339676D01*
D10*
X46114918Y42339676D02*
X46069672Y42328812D01*
D10*
X46069672Y42328812D02*
X46021789Y42310566D01*
D10*
X46021789Y42310566D02*
X45970672Y42284797D01*
D10*
X45970672Y42284797D02*
X45970672Y42374516D01*
D10*
X45970672Y42374516D02*
X46022492Y42393395D01*
D10*
X46022492Y42393395D02*
X46070797Y42407000D01*
D10*
X46070797Y42407000D02*
X46115480Y42415227D01*
D10*
X46115480Y42415227D02*
X46156156Y42417969D01*
D10*
X46156156Y42417969D02*
X46247773Y42405207D01*
D10*
X46247773Y42405207D02*
X46318719Y42366922D01*
D10*
X46318719Y42366922D02*
X46364176Y42307438D01*
D10*
X46364176Y42307438D02*
X46379328Y42230797D01*
D10*
X46379328Y42230797D02*
X46375531Y42191352D01*
D10*
X46375531Y42191352D02*
X46364141Y42154016D01*
D10*
X46364141Y42154016D02*
X46342836Y42114605D01*
D10*
X46342836Y42114605D02*
X46309016Y42068656D01*
D10*
X46309016Y42068656D02*
X46286059Y42043836D01*
D10*
X46286059Y42043836D02*
X46239125Y41994969D01*
D10*
X46239125Y41994969D02*
X46168215Y41921949D01*
D10*
X46168215Y41921949D02*
X46073047Y41824672D01*
D10*
X46725000Y32736332D02*
X46725000Y33263668D01*
D10*
X45275000Y33263668D02*
X45275000Y32736332D01*
D10*
X45452047Y35333172D02*
X45452047Y34822984D01*
D10*
X45452047Y34822984D02*
X45559344Y34822984D01*
D10*
X45559344Y34822984D02*
X45676977Y34838348D01*
D10*
X45676977Y34838348D02*
X45758188Y34884438D01*
D10*
X45758188Y34884438D02*
X45805438Y34963820D01*
D10*
X45805438Y34963820D02*
X45821188Y35078781D01*
D10*
X45821188Y35078781D02*
X45805438Y35192934D01*
D10*
X45805438Y35192934D02*
X45758188Y35271859D01*
D10*
X45758188Y35271859D02*
X45676977Y35317844D01*
D10*
X45676977Y35317844D02*
X45559344Y35333172D01*
D10*
X45559344Y35333172D02*
X45452047Y35333172D01*
D10*
X45363312Y35406156D02*
X45545703Y35406156D01*
D10*
X45545703Y35406156D02*
X45711008Y35386328D01*
D10*
X45711008Y35386328D02*
X45825547Y35326844D01*
D10*
X45825547Y35326844D02*
X45892520Y35225172D01*
D10*
X45892520Y35225172D02*
X45914844Y35078781D01*
D10*
X45914844Y35078781D02*
X45892414Y34931582D01*
D10*
X45892414Y34931582D02*
X45825125Y34829453D01*
D10*
X45825125Y34829453D02*
X45710480Y34769863D01*
D10*
X45710480Y34769863D02*
X45545703Y34750000D01*
D10*
X45545703Y34750000D02*
X45363312Y34750000D01*
D10*
X45363312Y34750000D02*
X45363312Y35406156D01*
D10*
X46140688Y34824672D02*
X46450484Y34824672D01*
D10*
X46450484Y34824672D02*
X46450484Y34750000D01*
D10*
X46450484Y34750000D02*
X46033953Y34750000D01*
D10*
X46033953Y34750000D02*
X46033953Y34824672D01*
D10*
X46033953Y34824672D02*
X46093613Y34885914D01*
D10*
X46093613Y34885914D02*
X46171625Y34965016D01*
D10*
X46171625Y34965016D02*
X46242711Y35037543D01*
D10*
X46242711Y35037543D02*
X46281312Y35078781D01*
D10*
X46281312Y35078781D02*
X46317488Y35122938D01*
D10*
X46317488Y35122938D02*
X46340797Y35159781D01*
D10*
X46340797Y35159781D02*
X46353559Y35192688D01*
D10*
X46353559Y35192688D02*
X46357812Y35225031D01*
D10*
X46357812Y35225031D02*
X46348637Y35272492D01*
D10*
X46348637Y35272492D02*
X46321109Y35310250D01*
D10*
X46321109Y35310250D02*
X46278852Y35335035D01*
D10*
X46278852Y35335035D02*
X46225484Y35343297D01*
D10*
X46225484Y35343297D02*
X46182559Y35339676D01*
D10*
X46182559Y35339676D02*
X46137312Y35328812D01*
D10*
X46137312Y35328812D02*
X46089430Y35310566D01*
D10*
X46089430Y35310566D02*
X46038312Y35284797D01*
D10*
X46038312Y35284797D02*
X46038312Y35374516D01*
D10*
X46038312Y35374516D02*
X46090133Y35393395D01*
D10*
X46090133Y35393395D02*
X46138438Y35407000D01*
D10*
X46138438Y35407000D02*
X46183121Y35415227D01*
D10*
X46183121Y35415227D02*
X46223797Y35417969D01*
D10*
X46223797Y35417969D02*
X46315414Y35405207D01*
D10*
X46315414Y35405207D02*
X46386359Y35366922D01*
D10*
X46386359Y35366922D02*
X46431816Y35307438D01*
D10*
X46431816Y35307438D02*
X46446969Y35230797D01*
D10*
X46446969Y35230797D02*
X46443172Y35191352D01*
D10*
X46443172Y35191352D02*
X46431781Y35154016D01*
D10*
X46431781Y35154016D02*
X46410477Y35114605D01*
D10*
X46410477Y35114605D02*
X46376656Y35068656D01*
D10*
X46376656Y35068656D02*
X46353699Y35043836D01*
D10*
X46353699Y35043836D02*
X46306766Y34994969D01*
D10*
X46306766Y34994969D02*
X46235855Y34921949D01*
D10*
X46235855Y34921949D02*
X46140688Y34824672D01*
D10*
X52725000Y39736332D02*
X52725000Y40263668D01*
D10*
X51275000Y40263668D02*
X51275000Y39736332D01*
D10*
X51674516Y42057688D02*
X51702676Y42042500D01*
D10*
X51702676Y42042500D02*
X51730062Y42016344D01*
D10*
X51730062Y42016344D02*
X51757133Y41978762D01*
D10*
X51757133Y41978762D02*
X51784344Y41929297D01*
D10*
X51784344Y41929297D02*
X51874484Y41750000D01*
D10*
X51874484Y41750000D02*
X51779000Y41750000D01*
D10*
X51779000Y41750000D02*
X51695187Y41918328D01*
D10*
X51695187Y41918328D02*
X51663090Y41973172D01*
D10*
X51663090Y41973172D02*
X51632047Y42005797D01*
D10*
X51632047Y42005797D02*
X51595977Y42021934D01*
D10*
X51595977Y42021934D02*
X51548797Y42027312D01*
D10*
X51548797Y42027312D02*
X51452047Y42027312D01*
D10*
X51452047Y42027312D02*
X51452047Y41750000D01*
D10*
X51452047Y41750000D02*
X51363312Y41750000D01*
D10*
X51363312Y41750000D02*
X51363312Y42406156D01*
D10*
X51363312Y42406156D02*
X51563703Y42406156D01*
D10*
X51563703Y42406156D02*
X51661930Y42394379D01*
D10*
X51661930Y42394379D02*
X51731609Y42359047D01*
D10*
X51731609Y42359047D02*
X51773164Y42300090D01*
D10*
X51773164Y42300090D02*
X51787016Y42217156D01*
D10*
X51787016Y42217156D02*
X51779809Y42160414D01*
D10*
X51779809Y42160414D02*
X51758188Y42114219D01*
D10*
X51758188Y42114219D02*
X51722855Y42079695D01*
D10*
X51722855Y42079695D02*
X51674516Y42057688D01*
D10*
X51452047Y42333172D02*
X51452047Y42100297D01*
D10*
X51452047Y42100297D02*
X51563703Y42100297D01*
D10*
X51563703Y42100297D02*
X51619988Y42107715D01*
D10*
X51619988Y42107715D02*
X51660594Y42129969D01*
D10*
X51660594Y42129969D02*
X51685168Y42166602D01*
D10*
X51685168Y42166602D02*
X51693359Y42217156D01*
D10*
X51693359Y42217156D02*
X51685168Y42267605D01*
D10*
X51685168Y42267605D02*
X51660594Y42303922D01*
D10*
X51660594Y42303922D02*
X51619988Y42325859D01*
D10*
X51619988Y42325859D02*
X51563703Y42333172D01*
D10*
X51563703Y42333172D02*
X51452047Y42333172D01*
D10*
X52265562Y42103812D02*
X52322270Y42082789D01*
D10*
X52322270Y42082789D02*
X52364984Y42047000D01*
D10*
X52364984Y42047000D02*
X52391879Y41998906D01*
D10*
X52391879Y41998906D02*
X52400844Y41940688D01*
D10*
X52400844Y41940688D02*
X52384145Y41854590D01*
D10*
X52384145Y41854590D02*
X52334047Y41790359D01*
D10*
X52334047Y41790359D02*
X52253187Y41750492D01*
D10*
X52253187Y41750492D02*
X52144203Y41737203D01*
D10*
X52144203Y41737203D02*
X52102367Y41739242D01*
D10*
X52102367Y41739242D02*
X52059266Y41745359D01*
D10*
X52059266Y41745359D02*
X52014828Y41755555D01*
D10*
X52014828Y41755555D02*
X51968984Y41769828D01*
D10*
X51968984Y41769828D02*
X51968984Y41855469D01*
D10*
X51968984Y41855469D02*
X52007586Y41836590D01*
D10*
X52007586Y41836590D02*
X52049703Y41822984D01*
D10*
X52049703Y41822984D02*
X52094703Y41814758D01*
D10*
X52094703Y41814758D02*
X52141672Y41812016D01*
D10*
X52141672Y41812016D02*
X52215148Y41820242D01*
D10*
X52215148Y41820242D02*
X52268797Y41844922D01*
D10*
X52268797Y41844922D02*
X52301598Y41885316D01*
D10*
X52301598Y41885316D02*
X52312531Y41940688D01*
D10*
X52312531Y41940688D02*
X52302371Y41992402D01*
D10*
X52302371Y41992402D02*
X52271891Y42031391D01*
D10*
X52271891Y42031391D02*
X52223305Y42055965D01*
D10*
X52223305Y42055965D02*
X52158828Y42064156D01*
D10*
X52158828Y42064156D02*
X52082328Y42064156D01*
D10*
X52082328Y42064156D02*
X52082328Y42137141D01*
D10*
X52082328Y42137141D02*
X52162344Y42137141D01*
D10*
X52162344Y42137141D02*
X52220070Y42143680D01*
D10*
X52220070Y42143680D02*
X52262469Y42163297D01*
D10*
X52262469Y42163297D02*
X52288520Y42195219D01*
D10*
X52288520Y42195219D02*
X52297203Y42238672D01*
D10*
X52297203Y42238672D02*
X52288238Y42283285D01*
D10*
X52288238Y42283285D02*
X52261344Y42316156D01*
D10*
X52261344Y42316156D02*
X52217855Y42336512D01*
D10*
X52217855Y42336512D02*
X52158828Y42343297D01*
D10*
X52158828Y42343297D02*
X52120965Y42341293D01*
D10*
X52120965Y42341293D02*
X52080500Y42335281D01*
D10*
X52080500Y42335281D02*
X52036660Y42325227D01*
D10*
X52036660Y42325227D02*
X51988672Y42310812D01*
D10*
X51988672Y42310812D02*
X51988672Y42389844D01*
D10*
X51988672Y42389844D02*
X52037680Y42402148D01*
D10*
X52037680Y42402148D02*
X52083453Y42410938D01*
D10*
X52083453Y42410938D02*
X52126344Y42416211D01*
D10*
X52126344Y42416211D02*
X52166703Y42417969D01*
D10*
X52166703Y42417969D02*
X52257230Y42406473D01*
D10*
X52257230Y42406473D02*
X52326594Y42371984D01*
D10*
X52326594Y42371984D02*
X52370785Y42318055D01*
D10*
X52370785Y42318055D02*
X52385516Y42247953D01*
D10*
X52385516Y42247953D02*
X52377711Y42197645D01*
D10*
X52377711Y42197645D02*
X52354297Y42155844D01*
D10*
X52354297Y42155844D02*
X52316504Y42124062D01*
D10*
X52316504Y42124062D02*
X52265562Y42103812D01*
D10*
X52725000Y32736332D02*
X52725000Y33263668D01*
D10*
X51275000Y33263668D02*
X51275000Y32736332D01*
D10*
X51452047Y35333172D02*
X51452047Y34822984D01*
D10*
X51452047Y34822984D02*
X51559344Y34822984D01*
D10*
X51559344Y34822984D02*
X51676977Y34838348D01*
D10*
X51676977Y34838348D02*
X51758188Y34884438D01*
D10*
X51758188Y34884438D02*
X51805438Y34963820D01*
D10*
X51805438Y34963820D02*
X51821188Y35078781D01*
D10*
X51821188Y35078781D02*
X51805438Y35192934D01*
D10*
X51805438Y35192934D02*
X51758188Y35271859D01*
D10*
X51758188Y35271859D02*
X51676977Y35317844D01*
D10*
X51676977Y35317844D02*
X51559344Y35333172D01*
D10*
X51559344Y35333172D02*
X51452047Y35333172D01*
D10*
X51363312Y35406156D02*
X51545703Y35406156D01*
D10*
X51545703Y35406156D02*
X51711008Y35386328D01*
D10*
X51711008Y35386328D02*
X51825547Y35326844D01*
D10*
X51825547Y35326844D02*
X51892520Y35225172D01*
D10*
X51892520Y35225172D02*
X51914844Y35078781D01*
D10*
X51914844Y35078781D02*
X51892414Y34931582D01*
D10*
X51892414Y34931582D02*
X51825125Y34829453D01*
D10*
X51825125Y34829453D02*
X51710480Y34769863D01*
D10*
X51710480Y34769863D02*
X51545703Y34750000D01*
D10*
X51545703Y34750000D02*
X51363312Y34750000D01*
D10*
X51363312Y34750000D02*
X51363312Y35406156D01*
D10*
X52333203Y35103812D02*
X52389910Y35082789D01*
D10*
X52389910Y35082789D02*
X52432625Y35047000D01*
D10*
X52432625Y35047000D02*
X52459520Y34998906D01*
D10*
X52459520Y34998906D02*
X52468484Y34940688D01*
D10*
X52468484Y34940688D02*
X52451785Y34854590D01*
D10*
X52451785Y34854590D02*
X52401688Y34790359D01*
D10*
X52401688Y34790359D02*
X52320828Y34750492D01*
D10*
X52320828Y34750492D02*
X52211844Y34737203D01*
D10*
X52211844Y34737203D02*
X52170008Y34739242D01*
D10*
X52170008Y34739242D02*
X52126906Y34745359D01*
D10*
X52126906Y34745359D02*
X52082469Y34755555D01*
D10*
X52082469Y34755555D02*
X52036625Y34769828D01*
D10*
X52036625Y34769828D02*
X52036625Y34855469D01*
D10*
X52036625Y34855469D02*
X52075227Y34836590D01*
D10*
X52075227Y34836590D02*
X52117344Y34822984D01*
D10*
X52117344Y34822984D02*
X52162344Y34814758D01*
D10*
X52162344Y34814758D02*
X52209312Y34812016D01*
D10*
X52209312Y34812016D02*
X52282789Y34820242D01*
D10*
X52282789Y34820242D02*
X52336437Y34844922D01*
D10*
X52336437Y34844922D02*
X52369238Y34885316D01*
D10*
X52369238Y34885316D02*
X52380172Y34940688D01*
D10*
X52380172Y34940688D02*
X52370012Y34992402D01*
D10*
X52370012Y34992402D02*
X52339531Y35031391D01*
D10*
X52339531Y35031391D02*
X52290945Y35055965D01*
D10*
X52290945Y35055965D02*
X52226469Y35064156D01*
D10*
X52226469Y35064156D02*
X52149969Y35064156D01*
D10*
X52149969Y35064156D02*
X52149969Y35137141D01*
D10*
X52149969Y35137141D02*
X52229984Y35137141D01*
D10*
X52229984Y35137141D02*
X52287711Y35143680D01*
D10*
X52287711Y35143680D02*
X52330109Y35163297D01*
D10*
X52330109Y35163297D02*
X52356160Y35195219D01*
D10*
X52356160Y35195219D02*
X52364844Y35238672D01*
D10*
X52364844Y35238672D02*
X52355879Y35283285D01*
D10*
X52355879Y35283285D02*
X52328984Y35316156D01*
D10*
X52328984Y35316156D02*
X52285496Y35336512D01*
D10*
X52285496Y35336512D02*
X52226469Y35343297D01*
D10*
X52226469Y35343297D02*
X52188605Y35341293D01*
D10*
X52188605Y35341293D02*
X52148141Y35335281D01*
D10*
X52148141Y35335281D02*
X52104301Y35325227D01*
D10*
X52104301Y35325227D02*
X52056312Y35310812D01*
D10*
X52056312Y35310812D02*
X52056312Y35389844D01*
D10*
X52056312Y35389844D02*
X52105320Y35402148D01*
D10*
X52105320Y35402148D02*
X52151094Y35410938D01*
D10*
X52151094Y35410938D02*
X52193984Y35416211D01*
D10*
X52193984Y35416211D02*
X52234344Y35417969D01*
D10*
X52234344Y35417969D02*
X52324871Y35406473D01*
D10*
X52324871Y35406473D02*
X52394234Y35371984D01*
D10*
X52394234Y35371984D02*
X52438426Y35318055D01*
D10*
X52438426Y35318055D02*
X52453156Y35247953D01*
D10*
X52453156Y35247953D02*
X52445352Y35197645D01*
D10*
X52445352Y35197645D02*
X52421938Y35155844D01*
D10*
X52421938Y35155844D02*
X52384145Y35124062D01*
D10*
X52384145Y35124062D02*
X52333203Y35103812D01*
D10*
X58725000Y39736332D02*
X58725000Y40263668D01*
D10*
X57275000Y40263668D02*
X57275000Y39736332D01*
D10*
X57674516Y42057688D02*
X57702676Y42042500D01*
D10*
X57702676Y42042500D02*
X57730062Y42016344D01*
D10*
X57730062Y42016344D02*
X57757133Y41978762D01*
D10*
X57757133Y41978762D02*
X57784344Y41929297D01*
D10*
X57784344Y41929297D02*
X57874484Y41750000D01*
D10*
X57874484Y41750000D02*
X57779000Y41750000D01*
D10*
X57779000Y41750000D02*
X57695187Y41918328D01*
D10*
X57695187Y41918328D02*
X57663090Y41973172D01*
D10*
X57663090Y41973172D02*
X57632047Y42005797D01*
D10*
X57632047Y42005797D02*
X57595977Y42021934D01*
D10*
X57595977Y42021934D02*
X57548797Y42027312D01*
D10*
X57548797Y42027312D02*
X57452047Y42027312D01*
D10*
X57452047Y42027312D02*
X57452047Y41750000D01*
D10*
X57452047Y41750000D02*
X57363312Y41750000D01*
D10*
X57363312Y41750000D02*
X57363312Y42406156D01*
D10*
X57363312Y42406156D02*
X57563703Y42406156D01*
D10*
X57563703Y42406156D02*
X57661930Y42394379D01*
D10*
X57661930Y42394379D02*
X57731609Y42359047D01*
D10*
X57731609Y42359047D02*
X57773164Y42300090D01*
D10*
X57773164Y42300090D02*
X57787016Y42217156D01*
D10*
X57787016Y42217156D02*
X57779809Y42160414D01*
D10*
X57779809Y42160414D02*
X57758188Y42114219D01*
D10*
X57758188Y42114219D02*
X57722855Y42079695D01*
D10*
X57722855Y42079695D02*
X57674516Y42057688D01*
D10*
X57452047Y42333172D02*
X57452047Y42100297D01*
D10*
X57452047Y42100297D02*
X57563703Y42100297D01*
D10*
X57563703Y42100297D02*
X57619988Y42107715D01*
D10*
X57619988Y42107715D02*
X57660594Y42129969D01*
D10*
X57660594Y42129969D02*
X57685168Y42166602D01*
D10*
X57685168Y42166602D02*
X57693359Y42217156D01*
D10*
X57693359Y42217156D02*
X57685168Y42267605D01*
D10*
X57685168Y42267605D02*
X57660594Y42303922D01*
D10*
X57660594Y42303922D02*
X57619988Y42325859D01*
D10*
X57619988Y42325859D02*
X57563703Y42333172D01*
D10*
X57563703Y42333172D02*
X57452047Y42333172D01*
D10*
X58240531Y42328812D02*
X58016375Y41978516D01*
D10*
X58016375Y41978516D02*
X58240531Y41978516D01*
D10*
X58240531Y41978516D02*
X58240531Y42328812D01*
D10*
X58217188Y42406156D02*
X58328844Y42406156D01*
D10*
X58328844Y42406156D02*
X58328844Y41978516D01*
D10*
X58328844Y41978516D02*
X58422500Y41978516D01*
D10*
X58422500Y41978516D02*
X58422500Y41904688D01*
D10*
X58422500Y41904688D02*
X58328844Y41904688D01*
D10*
X58328844Y41904688D02*
X58328844Y41750000D01*
D10*
X58328844Y41750000D02*
X58240531Y41750000D01*
D10*
X58240531Y41750000D02*
X58240531Y41904688D01*
D10*
X58240531Y41904688D02*
X57944375Y41904688D01*
D10*
X57944375Y41904688D02*
X57944375Y41990328D01*
D10*
X57944375Y41990328D02*
X58217188Y42406156D01*
D10*
X58725000Y32736332D02*
X58725000Y33263668D01*
D10*
X57275000Y33263668D02*
X57275000Y32736332D01*
D10*
X57452047Y35333172D02*
X57452047Y34822984D01*
D10*
X57452047Y34822984D02*
X57559344Y34822984D01*
D10*
X57559344Y34822984D02*
X57676977Y34838348D01*
D10*
X57676977Y34838348D02*
X57758188Y34884438D01*
D10*
X57758188Y34884438D02*
X57805438Y34963820D01*
D10*
X57805438Y34963820D02*
X57821188Y35078781D01*
D10*
X57821188Y35078781D02*
X57805438Y35192934D01*
D10*
X57805438Y35192934D02*
X57758188Y35271859D01*
D10*
X57758188Y35271859D02*
X57676977Y35317844D01*
D10*
X57676977Y35317844D02*
X57559344Y35333172D01*
D10*
X57559344Y35333172D02*
X57452047Y35333172D01*
D10*
X57363312Y35406156D02*
X57545703Y35406156D01*
D10*
X57545703Y35406156D02*
X57711008Y35386328D01*
D10*
X57711008Y35386328D02*
X57825547Y35326844D01*
D10*
X57825547Y35326844D02*
X57892520Y35225172D01*
D10*
X57892520Y35225172D02*
X57914844Y35078781D01*
D10*
X57914844Y35078781D02*
X57892414Y34931582D01*
D10*
X57892414Y34931582D02*
X57825125Y34829453D01*
D10*
X57825125Y34829453D02*
X57710480Y34769863D01*
D10*
X57710480Y34769863D02*
X57545703Y34750000D01*
D10*
X57545703Y34750000D02*
X57363312Y34750000D01*
D10*
X57363312Y34750000D02*
X57363312Y35406156D01*
D10*
X58308172Y35328812D02*
X58084016Y34978516D01*
D10*
X58084016Y34978516D02*
X58308172Y34978516D01*
D10*
X58308172Y34978516D02*
X58308172Y35328812D01*
D10*
X58284828Y35406156D02*
X58396484Y35406156D01*
D10*
X58396484Y35406156D02*
X58396484Y34978516D01*
D10*
X58396484Y34978516D02*
X58490141Y34978516D01*
D10*
X58490141Y34978516D02*
X58490141Y34904688D01*
D10*
X58490141Y34904688D02*
X58396484Y34904688D01*
D10*
X58396484Y34904688D02*
X58396484Y34750000D01*
D10*
X58396484Y34750000D02*
X58308172Y34750000D01*
D10*
X58308172Y34750000D02*
X58308172Y34904688D01*
D10*
X58308172Y34904688D02*
X58012016Y34904688D01*
D10*
X58012016Y34904688D02*
X58012016Y34990328D01*
D10*
X58012016Y34990328D02*
X58284828Y35406156D01*
D10*
X17850000Y26850000D02*
X18121237Y26850000D01*
D10*
X19378763Y26850000D02*
X24621237Y26850000D01*
D10*
X25878763Y26850000D02*
X26150000Y26850000D01*
D10*
X26150000Y26850000D02*
X26150000Y27121237D01*
D10*
X26150000Y28378763D02*
X26150000Y31621237D01*
D10*
X26150000Y32878763D02*
X26150000Y33150000D01*
D10*
X26150000Y33150000D02*
X25878763Y33150000D01*
D10*
X24621237Y33150000D02*
X19378763Y33150000D01*
D10*
X18121237Y33150000D02*
X17850000Y33150000D01*
D10*
X17850000Y33150000D02*
X17850000Y32878763D01*
D10*
X17850000Y31621237D02*
X17850000Y28378763D01*
D10*
X17850000Y27121237D02*
X17850000Y26850000D01*
D10*
X18331641Y34084641D02*
X18331641Y33998016D01*
D10*
X18331641Y33998016D02*
X18282562Y34019109D01*
D10*
X18282562Y34019109D02*
X18236297Y34034016D01*
D10*
X18236297Y34034016D02*
X18192211Y34042980D01*
D10*
X18192211Y34042980D02*
X18149672Y34045969D01*
D10*
X18149672Y34045969D02*
X18085512Y34038937D01*
D10*
X18085512Y34038937D02*
X18037875Y34017844D01*
D10*
X18037875Y34017844D02*
X18008344Y33983777D01*
D10*
X18008344Y33983777D02*
X17998500Y33937828D01*
D10*
X17998500Y33937828D02*
X18005039Y33899578D01*
D10*
X18005039Y33899578D02*
X18024656Y33872016D01*
D10*
X18024656Y33872016D02*
X18062520Y33852047D01*
D10*
X18062520Y33852047D02*
X18123797Y33836297D01*
D10*
X18123797Y33836297D02*
X18177375Y33825328D01*
D10*
X18177375Y33825328D02*
X18263648Y33799172D01*
D10*
X18263648Y33799172D02*
X18323906Y33758672D01*
D10*
X18323906Y33758672D02*
X18359344Y33702949D01*
D10*
X18359344Y33702949D02*
X18371156Y33631125D01*
D10*
X18371156Y33631125D02*
X18355160Y33547207D01*
D10*
X18355160Y33547207D02*
X18307172Y33486422D01*
D10*
X18307172Y33486422D02*
X18228422Y33449508D01*
D10*
X18228422Y33449508D02*
X18119859Y33437203D01*
D10*
X18119859Y33437203D02*
X18071801Y33439840D01*
D10*
X18071801Y33439840D02*
X18020719Y33447750D01*
D10*
X18020719Y33447750D02*
X17967316Y33460828D01*
D10*
X17967316Y33460828D02*
X17912016Y33478969D01*
D10*
X17912016Y33478969D02*
X17912016Y33570375D01*
D10*
X17912016Y33570375D02*
X17965488Y33543832D01*
D10*
X17965488Y33543832D02*
X18017906Y33524672D01*
D10*
X18017906Y33524672D02*
X18069340Y33513176D01*
D10*
X18069340Y33513176D02*
X18119859Y33509344D01*
D10*
X18119859Y33509344D02*
X18187148Y33516797D01*
D10*
X18187148Y33516797D02*
X18237141Y33539156D01*
D10*
X18237141Y33539156D02*
X18268148Y33575473D01*
D10*
X18268148Y33575473D02*
X18278484Y33624516D01*
D10*
X18278484Y33624516D02*
X18271066Y33667512D01*
D10*
X18271066Y33667512D02*
X18248813Y33700031D01*
D10*
X18248813Y33700031D02*
X18209648Y33723902D01*
D10*
X18209648Y33723902D02*
X18151500Y33740953D01*
D10*
X18151500Y33740953D02*
X18097359Y33751500D01*
D10*
X18097359Y33751500D02*
X18011789Y33776812D01*
D10*
X18011789Y33776812D02*
X17953641Y33813375D01*
D10*
X17953641Y33813375D02*
X17920418Y33863824D01*
D10*
X17920418Y33863824D02*
X17909344Y33930797D01*
D10*
X17909344Y33930797D02*
X17924672Y34008598D01*
D10*
X17924672Y34008598D02*
X17970656Y34067906D01*
D10*
X17970656Y34067906D02*
X18043535Y34105453D01*
D10*
X18043535Y34105453D02*
X18139547Y34117969D01*
D10*
X18139547Y34117969D02*
X18186199Y34115859D01*
D10*
X18186199Y34115859D02*
X18233625Y34109531D01*
D10*
X18233625Y34109531D02*
X18282105Y34099160D01*
D10*
X18282105Y34099160D02*
X18331641Y34084641D01*
D10*
X18451312Y34106156D02*
X18540891Y34106156D01*
D10*
X18540891Y34106156D02*
X18678844Y33551531D01*
D10*
X18678844Y33551531D02*
X18816375Y34106156D01*
D10*
X18816375Y34106156D02*
X18916219Y34106156D01*
D10*
X18916219Y34106156D02*
X19054172Y33551531D01*
D10*
X19054172Y33551531D02*
X19191703Y34106156D01*
D10*
X19191703Y34106156D02*
X19281844Y34106156D01*
D10*
X19281844Y34106156D02*
X19117031Y33450000D01*
D10*
X19117031Y33450000D02*
X19005375Y33450000D01*
D10*
X19005375Y33450000D02*
X18867000Y34019531D01*
D10*
X18867000Y34019531D02*
X18727219Y33450000D01*
D10*
X18727219Y33450000D02*
X18615563Y33450000D01*
D10*
X18615563Y33450000D02*
X18451312Y34106156D01*
D10*
X19422891Y33524672D02*
X19567875Y33524672D01*
D10*
X19567875Y33524672D02*
X19567875Y34025297D01*
D10*
X19567875Y34025297D02*
X19410094Y33993656D01*
D10*
X19410094Y33993656D02*
X19410094Y34074516D01*
D10*
X19410094Y34074516D02*
X19567031Y34106156D01*
D10*
X19567031Y34106156D02*
X19655766Y34106156D01*
D10*
X19655766Y34106156D02*
X19655766Y33524672D01*
D10*
X19655766Y33524672D02*
X19800750Y33524672D01*
D10*
X19800750Y33524672D02*
X19800750Y33450000D01*
D10*
X19800750Y33450000D02*
X19422891Y33450000D01*
D10*
X19422891Y33450000D02*
X19422891Y33524672D01*
D10*
X30725000Y29736332D02*
X30725000Y30263668D01*
D10*
X29275000Y30263668D02*
X29275000Y29736332D01*
D10*
X29854656Y32355531D02*
X29854656Y32262016D01*
D10*
X29854656Y32262016D02*
X29808320Y32298473D01*
D10*
X29808320Y32298473D02*
X29759031Y32324312D01*
D10*
X29759031Y32324312D02*
X29706684Y32339816D01*
D10*
X29706684Y32339816D02*
X29651172Y32344984D01*
D10*
X29651172Y32344984D02*
X29551855Y32327793D01*
D10*
X29551855Y32327793D02*
X29478906Y32276219D01*
D10*
X29478906Y32276219D02*
X29434082Y32192125D01*
D10*
X29434082Y32192125D02*
X29419141Y32077375D01*
D10*
X29419141Y32077375D02*
X29434082Y31962941D01*
D10*
X29434082Y31962941D02*
X29478906Y31878953D01*
D10*
X29478906Y31878953D02*
X29551855Y31827379D01*
D10*
X29551855Y31827379D02*
X29651172Y31810188D01*
D10*
X29651172Y31810188D02*
X29706684Y31815355D01*
D10*
X29706684Y31815355D02*
X29759031Y31830859D01*
D10*
X29759031Y31830859D02*
X29808320Y31856805D01*
D10*
X29808320Y31856805D02*
X29854656Y31893297D01*
D10*
X29854656Y31893297D02*
X29854656Y31800484D01*
D10*
X29854656Y31800484D02*
X29806703Y31772781D01*
D10*
X29806703Y31772781D02*
X29755938Y31752953D01*
D10*
X29755938Y31752953D02*
X29702430Y31741141D01*
D10*
X29702430Y31741141D02*
X29645969Y31737203D01*
D10*
X29645969Y31737203D02*
X29512727Y31759984D01*
D10*
X29512727Y31759984D02*
X29411125Y31828328D01*
D10*
X29411125Y31828328D02*
X29346895Y31936223D01*
D10*
X29346895Y31936223D02*
X29325484Y32077375D01*
D10*
X29325484Y32077375D02*
X29346895Y32218809D01*
D10*
X29346895Y32218809D02*
X29411125Y32326703D01*
D10*
X29411125Y32326703D02*
X29512727Y32395152D01*
D10*
X29512727Y32395152D02*
X29645969Y32417969D01*
D10*
X29645969Y32417969D02*
X29703062Y32414066D01*
D10*
X29703062Y32414066D02*
X29756781Y32402359D01*
D10*
X29756781Y32402359D02*
X29807336Y32382848D01*
D10*
X29807336Y32382848D02*
X29854656Y32355531D01*
D10*
X30015109Y31824672D02*
X30160094Y31824672D01*
D10*
X30160094Y31824672D02*
X30160094Y32325297D01*
D10*
X30160094Y32325297D02*
X30002312Y32293656D01*
D10*
X30002312Y32293656D02*
X30002312Y32374516D01*
D10*
X30002312Y32374516D02*
X30159250Y32406156D01*
D10*
X30159250Y32406156D02*
X30247984Y32406156D01*
D10*
X30247984Y32406156D02*
X30247984Y31824672D01*
D10*
X30247984Y31824672D02*
X30392969Y31824672D01*
D10*
X30392969Y31824672D02*
X30392969Y31750000D01*
D10*
X30392969Y31750000D02*
X30015109Y31750000D01*
D10*
X30015109Y31750000D02*
X30015109Y31824672D01*
D10*
X36660000Y12750000D02*
X43340000Y12750000D01*
D10*
X43340000Y12750000D02*
X43340000Y15401186D01*
D10*
X43340000Y16598814D02*
X43340000Y19340000D01*
D10*
X43340000Y19340000D02*
X40598814Y19340000D01*
D10*
X39401186Y19340000D02*
X36660000Y19340000D01*
D10*
X36660000Y19340000D02*
X36660000Y17000000D01*
D10*
X36660000Y15000000D02*
X36660000Y12750000D01*
D10*
X37059516Y19947688D02*
X37087676Y19932500D01*
D10*
X37087676Y19932500D02*
X37115062Y19906344D01*
D10*
X37115062Y19906344D02*
X37142133Y19868762D01*
D10*
X37142133Y19868762D02*
X37169344Y19819297D01*
D10*
X37169344Y19819297D02*
X37259484Y19640000D01*
D10*
X37259484Y19640000D02*
X37164000Y19640000D01*
D10*
X37164000Y19640000D02*
X37080187Y19808328D01*
D10*
X37080187Y19808328D02*
X37048090Y19863172D01*
D10*
X37048090Y19863172D02*
X37017047Y19895797D01*
D10*
X37017047Y19895797D02*
X36980977Y19911934D01*
D10*
X36980977Y19911934D02*
X36933797Y19917312D01*
D10*
X36933797Y19917312D02*
X36837047Y19917312D01*
D10*
X36837047Y19917312D02*
X36837047Y19640000D01*
D10*
X36837047Y19640000D02*
X36748312Y19640000D01*
D10*
X36748312Y19640000D02*
X36748312Y20296156D01*
D10*
X36748312Y20296156D02*
X36948703Y20296156D01*
D10*
X36948703Y20296156D02*
X37046930Y20284379D01*
D10*
X37046930Y20284379D02*
X37116609Y20249047D01*
D10*
X37116609Y20249047D02*
X37158164Y20190090D01*
D10*
X37158164Y20190090D02*
X37172016Y20107156D01*
D10*
X37172016Y20107156D02*
X37164809Y20050414D01*
D10*
X37164809Y20050414D02*
X37143187Y20004219D01*
D10*
X37143187Y20004219D02*
X37107855Y19969695D01*
D10*
X37107855Y19969695D02*
X37059516Y19947688D01*
D10*
X36837047Y20223172D02*
X36837047Y19990297D01*
D10*
X36837047Y19990297D02*
X36948703Y19990297D01*
D10*
X36948703Y19990297D02*
X37004988Y19997715D01*
D10*
X37004988Y19997715D02*
X37045594Y20019969D01*
D10*
X37045594Y20019969D02*
X37070168Y20056602D01*
D10*
X37070168Y20056602D02*
X37078359Y20107156D01*
D10*
X37078359Y20107156D02*
X37070168Y20157605D01*
D10*
X37070168Y20157605D02*
X37045594Y20193922D01*
D10*
X37045594Y20193922D02*
X37004988Y20215859D01*
D10*
X37004988Y20215859D02*
X36948703Y20223172D01*
D10*
X36948703Y20223172D02*
X36837047Y20223172D01*
D10*
X37493625Y19640000D02*
X37243172Y20296156D01*
D10*
X37243172Y20296156D02*
X37335844Y20296156D01*
D10*
X37335844Y20296156D02*
X37543828Y19743781D01*
D10*
X37543828Y19743781D02*
X37752094Y20296156D01*
D10*
X37752094Y20296156D02*
X37844344Y20296156D01*
D10*
X37844344Y20296156D02*
X37594312Y19640000D01*
D10*
X37594312Y19640000D02*
X37493625Y19640000D01*
D10*
X37963453Y19714672D02*
X38108437Y19714672D01*
D10*
X38108437Y19714672D02*
X38108437Y20215297D01*
D10*
X38108437Y20215297D02*
X37950656Y20183656D01*
D10*
X37950656Y20183656D02*
X37950656Y20264516D01*
D10*
X37950656Y20264516D02*
X38107594Y20296156D01*
D10*
X38107594Y20296156D02*
X38196328Y20296156D01*
D10*
X38196328Y20296156D02*
X38196328Y19714672D01*
D10*
X38196328Y19714672D02*
X38341312Y19714672D01*
D10*
X38341312Y19714672D02*
X38341312Y19640000D01*
D10*
X38341312Y19640000D02*
X37963453Y19640000D01*
D10*
X37963453Y19640000D02*
X37963453Y19714672D01*
D10*
X14920000Y14730000D02*
X25080000Y14730000D01*
D10*
X25080000Y14730000D02*
X25080000Y17270000D01*
D10*
X25080000Y17270000D02*
X14920000Y17270000D01*
D10*
X14920000Y17270000D02*
X14920000Y14730000D01*
D10*
X15008312Y18226156D02*
X15097047Y18226156D01*
D10*
X15097047Y18226156D02*
X15097047Y17615703D01*
D10*
X15097047Y17615703D02*
X15085797Y17513293D01*
D10*
X15085797Y17513293D02*
X15052047Y17443438D01*
D10*
X15052047Y17443438D02*
X14993336Y17403254D01*
D10*
X14993336Y17403254D02*
X14907203Y17389859D01*
D10*
X14907203Y17389859D02*
X14873453Y17389859D01*
D10*
X14873453Y17389859D02*
X14873453Y17464531D01*
D10*
X14873453Y17464531D02*
X14901156Y17464531D01*
D10*
X14901156Y17464531D02*
X14951289Y17472793D01*
D10*
X14951289Y17472793D02*
X14984125Y17497578D01*
D10*
X14984125Y17497578D02*
X15002266Y17543562D01*
D10*
X15002266Y17543562D02*
X15008312Y17615703D01*
D10*
X15008312Y17615703D02*
X15008312Y18226156D01*
D10*
X15282672Y18226156D02*
X15631141Y18226156D01*
D10*
X15631141Y18226156D02*
X15631141Y18151344D01*
D10*
X15631141Y18151344D02*
X15363953Y18151344D01*
D10*
X15363953Y18151344D02*
X15363953Y17990609D01*
D10*
X15363953Y17990609D02*
X15383219Y17996375D01*
D10*
X15383219Y17996375D02*
X15402484Y18000453D01*
D10*
X15402484Y18000453D02*
X15421891Y18002879D01*
D10*
X15421891Y18002879D02*
X15441297Y18003688D01*
D10*
X15441297Y18003688D02*
X15539699Y17988641D01*
D10*
X15539699Y17988641D02*
X15615250Y17943500D01*
D10*
X15615250Y17943500D02*
X15663449Y17872660D01*
D10*
X15663449Y17872660D02*
X15679516Y17780516D01*
D10*
X15679516Y17780516D02*
X15663027Y17686402D01*
D10*
X15663027Y17686402D02*
X15613562Y17615844D01*
D10*
X15613562Y17615844D02*
X15534109Y17571863D01*
D10*
X15534109Y17571863D02*
X15427656Y17557203D01*
D10*
X15427656Y17557203D02*
X15385926Y17558961D01*
D10*
X15385926Y17558961D02*
X15343422Y17564234D01*
D10*
X15343422Y17564234D02*
X15299934Y17573023D01*
D10*
X15299934Y17573023D02*
X15254969Y17585328D01*
D10*
X15254969Y17585328D02*
X15254969Y17674625D01*
D10*
X15254969Y17674625D02*
X15295152Y17655852D01*
D10*
X15295152Y17655852D02*
X15336672Y17642562D01*
D10*
X15336672Y17642562D02*
X15380055Y17634652D01*
D10*
X15380055Y17634652D02*
X15425828Y17632016D01*
D10*
X15425828Y17632016D02*
X15493961Y17642000D01*
D10*
X15493961Y17642000D02*
X15546203Y17671953D01*
D10*
X15546203Y17671953D02*
X15579531Y17719062D01*
D10*
X15579531Y17719062D02*
X15590641Y17780516D01*
D10*
X15590641Y17780516D02*
X15579531Y17841863D01*
D10*
X15579531Y17841863D02*
X15546203Y17888938D01*
D10*
X15546203Y17888938D02*
X15493961Y17918996D01*
D10*
X15493961Y17918996D02*
X15425828Y17929016D01*
D10*
X15425828Y17929016D02*
X15390285Y17927047D01*
D10*
X15390285Y17927047D02*
X15354812Y17921141D01*
D10*
X15354812Y17921141D02*
X15319129Y17911051D01*
D10*
X15319129Y17911051D02*
X15282672Y17896531D01*
D10*
X15282672Y17896531D02*
X15282672Y18226156D01*
M02*
