G04 Nyquist Labs eelab.pcb*
%TF.FileFunction,Copper,L1,Top*%
%TF.FilePolarity,Positive*%
%FSLAX46Y46*%
%MOMM*%
%LPD*%
%ADD10C,0.2500*%
%ADD11C,0.6000*%
%ADD12R,1.7000X1.7000*%
%ADD13C,1.7000*%
%ADD14C,1.8000*%
%ADD15R,1.6000X1.6000*%
%ADD16C,1.6000*%
G01*
D10*
X39500000Y34250000D02*
X39500000Y38750000D01*
D10*
X45500000Y34250000D02*
X45500000Y38750000D01*
D10*
X51500000Y34250000D02*
X51500000Y38750000D01*
D10*
X57500000Y34250000D02*
X57500000Y38750000D01*
D10*
X52500000Y41250000D02*
X52500000Y49000000D01*
D10*
X52500000Y49000000D02*
X53000000Y49500000D01*
D10*
X53000000Y49500000D02*
X53000000Y49750000D01*
D10*
X53000000Y49750000D02*
X53250000Y50000000D01*
D10*
X57500000Y41250000D02*
X55500000Y43250000D01*
D10*
X55500000Y43250000D02*
X55500000Y44750000D01*
D10*
X55500000Y44750000D02*
X55000000Y45250000D01*
D10*
X46500000Y41250000D02*
X49500000Y44250000D01*
D10*
X49500000Y44250000D02*
X49500000Y44500000D01*
D10*
X49500000Y44500000D02*
X50000000Y45000000D01*
D10*
X50000000Y45000000D02*
X50000000Y48000000D01*
D10*
X50000000Y48000000D02*
X52000000Y50000000D01*
D10*
X52000000Y50000000D02*
X52000000Y51250000D01*
D10*
X52000000Y51250000D02*
X52250000Y51500000D01*
D10*
X52250000Y51500000D02*
X52250000Y51750000D01*
D10*
X52250000Y51750000D02*
X52500000Y52000000D01*
D10*
X52500000Y52000000D02*
X54250000Y52000000D01*
D10*
X54250000Y52000000D02*
X54500000Y51750000D01*
D10*
X54500000Y51750000D02*
X54750000Y51750000D01*
D10*
X54750000Y51750000D02*
X55250000Y51250000D01*
D10*
X40500000Y41250000D02*
X43000000Y43750000D01*
D10*
X43000000Y43750000D02*
X43250000Y43750000D01*
D10*
X43250000Y43750000D02*
X49500000Y50000000D01*
D10*
X49500000Y50000000D02*
X49500000Y51500000D01*
D10*
X49500000Y51500000D02*
X50000000Y52000000D01*
D10*
X50000000Y52000000D02*
X51500000Y52000000D01*
D10*
X51500000Y52000000D02*
X52000000Y52500000D01*
D10*
X52000000Y52500000D02*
X56250000Y52500000D01*
D10*
X56250000Y52500000D02*
X57000000Y51750000D01*
D10*
X57000000Y51750000D02*
X57250000Y51750000D01*
D10*
X57250000Y51750000D02*
X57750000Y51250000D01*
D10*
X23500000Y16750000D02*
X23500000Y17000000D01*
D10*
X23500000Y17000000D02*
X23000000Y17500000D01*
D10*
X23000000Y17500000D02*
X23000000Y20500000D01*
D10*
X23000000Y20500000D02*
X22750000Y20750000D01*
D10*
X22750000Y20750000D02*
X22750000Y24250000D01*
D10*
X22750000Y24250000D02*
X20000000Y27000000D01*
D10*
X20000000Y27000000D02*
X20000000Y46750000D01*
D10*
X20000000Y46750000D02*
X19750000Y47000000D01*
D10*
X19750000Y47000000D02*
X19750000Y49750000D01*
D10*
X19750000Y49750000D02*
X19500000Y50000000D01*
D10*
X30500000Y31250000D02*
X32000000Y32750000D01*
D10*
X32000000Y32750000D02*
X32000000Y36000000D01*
D10*
X32000000Y36000000D02*
X44500000Y48500000D01*
D10*
X44500000Y48500000D02*
X44500000Y49500000D01*
D10*
X44500000Y49500000D02*
X45000000Y50000000D01*
D10*
X26000000Y32000000D02*
X26250000Y32000000D01*
D10*
X26250000Y32000000D02*
X27000000Y31250000D01*
D10*
X27000000Y31250000D02*
X29500000Y31250000D01*
D10*
X18500000Y31500000D02*
X18500000Y30750000D01*
D10*
X18500000Y30750000D02*
X17750000Y30000000D01*
D10*
X17750000Y30000000D02*
X17750000Y28750000D01*
D10*
X17750000Y28750000D02*
X17500000Y28500000D01*
D10*
X17500000Y28500000D02*
X17500000Y27000000D01*
D10*
X17500000Y27000000D02*
X18000000Y26500000D01*
D10*
X18000000Y26500000D02*
X19500000Y26500000D01*
D10*
X19500000Y26500000D02*
X22000000Y24000000D01*
D10*
X40000000Y32062500D02*
X41000000Y32062500D01*
D10*
X46000000Y32062500D02*
X47000000Y32062500D01*
D10*
X52000000Y32062500D02*
X53000000Y32062500D01*
D10*
X58000000Y32062500D02*
X59000000Y32062500D01*
D10*
X30000000Y29062500D02*
X31000000Y29062500D01*
D11*
X55000000Y45250000D03*
D11*
X22000000Y24000000D03*
D11*
X41000000Y32062500D03*
D11*
X47000000Y32062500D03*
D11*
X53000000Y32062500D03*
D11*
X59000000Y32062500D03*
D11*
X31000000Y29062500D03*
D12*
X27940000Y2540000D03*
D13*
X30480000Y2540000D03*
D13*
X33020000Y2540000D03*
D13*
X35560000Y2540000D03*
D13*
X38100000Y2540000D03*
D13*
X40640000Y2540000D03*
D13*
X43180000Y2540000D03*
D13*
X45720000Y2540000D03*
D12*
X50800000Y2540000D03*
D13*
X53340000Y2540000D03*
D13*
X55880000Y2540000D03*
D13*
X58420000Y2540000D03*
D13*
X60960000Y2540000D03*
D13*
X63500000Y2540000D03*
D12*
X45720000Y50800000D03*
D13*
X48260000Y50800000D03*
D13*
X50800000Y50800000D03*
D13*
X53340000Y50800000D03*
D13*
X55880000Y50800000D03*
D13*
X58420000Y50800000D03*
D13*
X60960000Y50800000D03*
D13*
X63500000Y50800000D03*
D12*
X18800000Y50800000D03*
D13*
X21340000Y50800000D03*
D13*
X23880000Y50800000D03*
D13*
X26420000Y50800000D03*
D13*
X28960000Y50800000D03*
D13*
X31500000Y50800000D03*
D13*
X34040000Y50800000D03*
D13*
X36580000Y50800000D03*
D13*
X39120000Y50800000D03*
D13*
X41660000Y50800000D03*
%LPD*%
G36*
X40468750Y38550000D02*
X39531250Y38550000D01*
X39464928Y38558732D01*
X39403125Y38584331D01*
X39350054Y38625054D01*
X39309331Y38678125D01*
X39283732Y38739928D01*
X39275000Y38806250D01*
X39275000Y39318750D01*
X39283732Y39385072D01*
X39309331Y39446875D01*
X39350054Y39499946D01*
X39403125Y39540669D01*
X39464928Y39566268D01*
X39531250Y39575000D01*
X40468750Y39575000D01*
X40535072Y39566268D01*
X40596875Y39540669D01*
X40649946Y39499946D01*
X40690669Y39446875D01*
X40716268Y39385072D01*
X40725000Y39318750D01*
X40725000Y38806250D01*
X40716268Y38739928D01*
X40690669Y38678125D01*
X40649946Y38625054D01*
X40596875Y38584331D01*
X40535072Y38558732D01*
X40468750Y38550000D01*
G37*
%LPD*%
%LPD*%
G36*
X40468750Y40425000D02*
X39531250Y40425000D01*
X39464928Y40433732D01*
X39403125Y40459331D01*
X39350054Y40500054D01*
X39309331Y40553125D01*
X39283732Y40614928D01*
X39275000Y40681250D01*
X39275000Y41193750D01*
X39283732Y41260072D01*
X39309331Y41321875D01*
X39350054Y41374946D01*
X39403125Y41415669D01*
X39464928Y41441268D01*
X39531250Y41450000D01*
X40468750Y41450000D01*
X40535072Y41441268D01*
X40596875Y41415669D01*
X40649946Y41374946D01*
X40690669Y41321875D01*
X40716268Y41260072D01*
X40725000Y41193750D01*
X40725000Y40681250D01*
X40716268Y40614928D01*
X40690669Y40553125D01*
X40649946Y40500054D01*
X40596875Y40459331D01*
X40535072Y40433732D01*
X40468750Y40425000D01*
G37*
%LPD*%
%LPD*%
G36*
X40468750Y31550000D02*
X39531250Y31550000D01*
X39464928Y31558732D01*
X39403125Y31584331D01*
X39350054Y31625054D01*
X39309331Y31678125D01*
X39283732Y31739928D01*
X39275000Y31806250D01*
X39275000Y32318750D01*
X39283732Y32385072D01*
X39309331Y32446875D01*
X39350054Y32499946D01*
X39403125Y32540669D01*
X39464928Y32566268D01*
X39531250Y32575000D01*
X40468750Y32575000D01*
X40535072Y32566268D01*
X40596875Y32540669D01*
X40649946Y32499946D01*
X40690669Y32446875D01*
X40716268Y32385072D01*
X40725000Y32318750D01*
X40725000Y31806250D01*
X40716268Y31739928D01*
X40690669Y31678125D01*
X40649946Y31625054D01*
X40596875Y31584331D01*
X40535072Y31558732D01*
X40468750Y31550000D01*
G37*
%LPD*%
%LPD*%
G36*
X40468750Y33425000D02*
X39531250Y33425000D01*
X39464928Y33433732D01*
X39403125Y33459331D01*
X39350054Y33500054D01*
X39309331Y33553125D01*
X39283732Y33614928D01*
X39275000Y33681250D01*
X39275000Y34193750D01*
X39283732Y34260072D01*
X39309331Y34321875D01*
X39350054Y34374946D01*
X39403125Y34415669D01*
X39464928Y34441268D01*
X39531250Y34450000D01*
X40468750Y34450000D01*
X40535072Y34441268D01*
X40596875Y34415669D01*
X40649946Y34374946D01*
X40690669Y34321875D01*
X40716268Y34260072D01*
X40725000Y34193750D01*
X40725000Y33681250D01*
X40716268Y33614928D01*
X40690669Y33553125D01*
X40649946Y33500054D01*
X40596875Y33459331D01*
X40535072Y33433732D01*
X40468750Y33425000D01*
G37*
%LPD*%
%LPD*%
G36*
X46468750Y38550000D02*
X45531250Y38550000D01*
X45464928Y38558732D01*
X45403125Y38584331D01*
X45350054Y38625054D01*
X45309331Y38678125D01*
X45283732Y38739928D01*
X45275000Y38806250D01*
X45275000Y39318750D01*
X45283732Y39385072D01*
X45309331Y39446875D01*
X45350054Y39499946D01*
X45403125Y39540669D01*
X45464928Y39566268D01*
X45531250Y39575000D01*
X46468750Y39575000D01*
X46535072Y39566268D01*
X46596875Y39540669D01*
X46649946Y39499946D01*
X46690669Y39446875D01*
X46716268Y39385072D01*
X46725000Y39318750D01*
X46725000Y38806250D01*
X46716268Y38739928D01*
X46690669Y38678125D01*
X46649946Y38625054D01*
X46596875Y38584331D01*
X46535072Y38558732D01*
X46468750Y38550000D01*
G37*
%LPD*%
%LPD*%
G36*
X46468750Y40425000D02*
X45531250Y40425000D01*
X45464928Y40433732D01*
X45403125Y40459331D01*
X45350054Y40500054D01*
X45309331Y40553125D01*
X45283732Y40614928D01*
X45275000Y40681250D01*
X45275000Y41193750D01*
X45283732Y41260072D01*
X45309331Y41321875D01*
X45350054Y41374946D01*
X45403125Y41415669D01*
X45464928Y41441268D01*
X45531250Y41450000D01*
X46468750Y41450000D01*
X46535072Y41441268D01*
X46596875Y41415669D01*
X46649946Y41374946D01*
X46690669Y41321875D01*
X46716268Y41260072D01*
X46725000Y41193750D01*
X46725000Y40681250D01*
X46716268Y40614928D01*
X46690669Y40553125D01*
X46649946Y40500054D01*
X46596875Y40459331D01*
X46535072Y40433732D01*
X46468750Y40425000D01*
G37*
%LPD*%
%LPD*%
G36*
X46468750Y31550000D02*
X45531250Y31550000D01*
X45464928Y31558732D01*
X45403125Y31584331D01*
X45350054Y31625054D01*
X45309331Y31678125D01*
X45283732Y31739928D01*
X45275000Y31806250D01*
X45275000Y32318750D01*
X45283732Y32385072D01*
X45309331Y32446875D01*
X45350054Y32499946D01*
X45403125Y32540669D01*
X45464928Y32566268D01*
X45531250Y32575000D01*
X46468750Y32575000D01*
X46535072Y32566268D01*
X46596875Y32540669D01*
X46649946Y32499946D01*
X46690669Y32446875D01*
X46716268Y32385072D01*
X46725000Y32318750D01*
X46725000Y31806250D01*
X46716268Y31739928D01*
X46690669Y31678125D01*
X46649946Y31625054D01*
X46596875Y31584331D01*
X46535072Y31558732D01*
X46468750Y31550000D01*
G37*
%LPD*%
%LPD*%
G36*
X46468750Y33425000D02*
X45531250Y33425000D01*
X45464928Y33433732D01*
X45403125Y33459331D01*
X45350054Y33500054D01*
X45309331Y33553125D01*
X45283732Y33614928D01*
X45275000Y33681250D01*
X45275000Y34193750D01*
X45283732Y34260072D01*
X45309331Y34321875D01*
X45350054Y34374946D01*
X45403125Y34415669D01*
X45464928Y34441268D01*
X45531250Y34450000D01*
X46468750Y34450000D01*
X46535072Y34441268D01*
X46596875Y34415669D01*
X46649946Y34374946D01*
X46690669Y34321875D01*
X46716268Y34260072D01*
X46725000Y34193750D01*
X46725000Y33681250D01*
X46716268Y33614928D01*
X46690669Y33553125D01*
X46649946Y33500054D01*
X46596875Y33459331D01*
X46535072Y33433732D01*
X46468750Y33425000D01*
G37*
%LPD*%
%LPD*%
G36*
X52468750Y38550000D02*
X51531250Y38550000D01*
X51464928Y38558732D01*
X51403125Y38584331D01*
X51350054Y38625054D01*
X51309331Y38678125D01*
X51283732Y38739928D01*
X51275000Y38806250D01*
X51275000Y39318750D01*
X51283732Y39385072D01*
X51309331Y39446875D01*
X51350054Y39499946D01*
X51403125Y39540669D01*
X51464928Y39566268D01*
X51531250Y39575000D01*
X52468750Y39575000D01*
X52535072Y39566268D01*
X52596875Y39540669D01*
X52649946Y39499946D01*
X52690669Y39446875D01*
X52716268Y39385072D01*
X52725000Y39318750D01*
X52725000Y38806250D01*
X52716268Y38739928D01*
X52690669Y38678125D01*
X52649946Y38625054D01*
X52596875Y38584331D01*
X52535072Y38558732D01*
X52468750Y38550000D01*
G37*
%LPD*%
%LPD*%
G36*
X52468750Y40425000D02*
X51531250Y40425000D01*
X51464928Y40433732D01*
X51403125Y40459331D01*
X51350054Y40500054D01*
X51309331Y40553125D01*
X51283732Y40614928D01*
X51275000Y40681250D01*
X51275000Y41193750D01*
X51283732Y41260072D01*
X51309331Y41321875D01*
X51350054Y41374946D01*
X51403125Y41415669D01*
X51464928Y41441268D01*
X51531250Y41450000D01*
X52468750Y41450000D01*
X52535072Y41441268D01*
X52596875Y41415669D01*
X52649946Y41374946D01*
X52690669Y41321875D01*
X52716268Y41260072D01*
X52725000Y41193750D01*
X52725000Y40681250D01*
X52716268Y40614928D01*
X52690669Y40553125D01*
X52649946Y40500054D01*
X52596875Y40459331D01*
X52535072Y40433732D01*
X52468750Y40425000D01*
G37*
%LPD*%
%LPD*%
G36*
X52468750Y31550000D02*
X51531250Y31550000D01*
X51464928Y31558732D01*
X51403125Y31584331D01*
X51350054Y31625054D01*
X51309331Y31678125D01*
X51283732Y31739928D01*
X51275000Y31806250D01*
X51275000Y32318750D01*
X51283732Y32385072D01*
X51309331Y32446875D01*
X51350054Y32499946D01*
X51403125Y32540669D01*
X51464928Y32566268D01*
X51531250Y32575000D01*
X52468750Y32575000D01*
X52535072Y32566268D01*
X52596875Y32540669D01*
X52649946Y32499946D01*
X52690669Y32446875D01*
X52716268Y32385072D01*
X52725000Y32318750D01*
X52725000Y31806250D01*
X52716268Y31739928D01*
X52690669Y31678125D01*
X52649946Y31625054D01*
X52596875Y31584331D01*
X52535072Y31558732D01*
X52468750Y31550000D01*
G37*
%LPD*%
%LPD*%
G36*
X52468750Y33425000D02*
X51531250Y33425000D01*
X51464928Y33433732D01*
X51403125Y33459331D01*
X51350054Y33500054D01*
X51309331Y33553125D01*
X51283732Y33614928D01*
X51275000Y33681250D01*
X51275000Y34193750D01*
X51283732Y34260072D01*
X51309331Y34321875D01*
X51350054Y34374946D01*
X51403125Y34415669D01*
X51464928Y34441268D01*
X51531250Y34450000D01*
X52468750Y34450000D01*
X52535072Y34441268D01*
X52596875Y34415669D01*
X52649946Y34374946D01*
X52690669Y34321875D01*
X52716268Y34260072D01*
X52725000Y34193750D01*
X52725000Y33681250D01*
X52716268Y33614928D01*
X52690669Y33553125D01*
X52649946Y33500054D01*
X52596875Y33459331D01*
X52535072Y33433732D01*
X52468750Y33425000D01*
G37*
%LPD*%
%LPD*%
G36*
X58468750Y38550000D02*
X57531250Y38550000D01*
X57464928Y38558732D01*
X57403125Y38584331D01*
X57350054Y38625054D01*
X57309331Y38678125D01*
X57283732Y38739928D01*
X57275000Y38806250D01*
X57275000Y39318750D01*
X57283732Y39385072D01*
X57309331Y39446875D01*
X57350054Y39499946D01*
X57403125Y39540669D01*
X57464928Y39566268D01*
X57531250Y39575000D01*
X58468750Y39575000D01*
X58535072Y39566268D01*
X58596875Y39540669D01*
X58649946Y39499946D01*
X58690669Y39446875D01*
X58716268Y39385072D01*
X58725000Y39318750D01*
X58725000Y38806250D01*
X58716268Y38739928D01*
X58690669Y38678125D01*
X58649946Y38625054D01*
X58596875Y38584331D01*
X58535072Y38558732D01*
X58468750Y38550000D01*
G37*
%LPD*%
%LPD*%
G36*
X58468750Y40425000D02*
X57531250Y40425000D01*
X57464928Y40433732D01*
X57403125Y40459331D01*
X57350054Y40500054D01*
X57309331Y40553125D01*
X57283732Y40614928D01*
X57275000Y40681250D01*
X57275000Y41193750D01*
X57283732Y41260072D01*
X57309331Y41321875D01*
X57350054Y41374946D01*
X57403125Y41415669D01*
X57464928Y41441268D01*
X57531250Y41450000D01*
X58468750Y41450000D01*
X58535072Y41441268D01*
X58596875Y41415669D01*
X58649946Y41374946D01*
X58690669Y41321875D01*
X58716268Y41260072D01*
X58725000Y41193750D01*
X58725000Y40681250D01*
X58716268Y40614928D01*
X58690669Y40553125D01*
X58649946Y40500054D01*
X58596875Y40459331D01*
X58535072Y40433732D01*
X58468750Y40425000D01*
G37*
%LPD*%
%LPD*%
G36*
X58468750Y31550000D02*
X57531250Y31550000D01*
X57464928Y31558732D01*
X57403125Y31584331D01*
X57350054Y31625054D01*
X57309331Y31678125D01*
X57283732Y31739928D01*
X57275000Y31806250D01*
X57275000Y32318750D01*
X57283732Y32385072D01*
X57309331Y32446875D01*
X57350054Y32499946D01*
X57403125Y32540669D01*
X57464928Y32566268D01*
X57531250Y32575000D01*
X58468750Y32575000D01*
X58535072Y32566268D01*
X58596875Y32540669D01*
X58649946Y32499946D01*
X58690669Y32446875D01*
X58716268Y32385072D01*
X58725000Y32318750D01*
X58725000Y31806250D01*
X58716268Y31739928D01*
X58690669Y31678125D01*
X58649946Y31625054D01*
X58596875Y31584331D01*
X58535072Y31558732D01*
X58468750Y31550000D01*
G37*
%LPD*%
%LPD*%
G36*
X58468750Y33425000D02*
X57531250Y33425000D01*
X57464928Y33433732D01*
X57403125Y33459331D01*
X57350054Y33500054D01*
X57309331Y33553125D01*
X57283732Y33614928D01*
X57275000Y33681250D01*
X57275000Y34193750D01*
X57283732Y34260072D01*
X57309331Y34321875D01*
X57350054Y34374946D01*
X57403125Y34415669D01*
X57464928Y34441268D01*
X57531250Y34450000D01*
X58468750Y34450000D01*
X58535072Y34441268D01*
X58596875Y34415669D01*
X58649946Y34374946D01*
X58690669Y34321875D01*
X58716268Y34260072D01*
X58725000Y34193750D01*
X58725000Y33681250D01*
X58716268Y33614928D01*
X58690669Y33553125D01*
X58649946Y33500054D01*
X58596875Y33459331D01*
X58535072Y33433732D01*
X58468750Y33425000D01*
G37*
%LPD*%
D14*
X18750000Y32250000D03*
D14*
X25250000Y32250000D03*
D14*
X18750000Y27750000D03*
D14*
X25250000Y27750000D03*
%LPD*%
G36*
X30468750Y28550000D02*
X29531250Y28550000D01*
X29464928Y28558732D01*
X29403125Y28584331D01*
X29350054Y28625054D01*
X29309331Y28678125D01*
X29283732Y28739928D01*
X29275000Y28806250D01*
X29275000Y29318750D01*
X29283732Y29385072D01*
X29309331Y29446875D01*
X29350054Y29499946D01*
X29403125Y29540669D01*
X29464928Y29566268D01*
X29531250Y29575000D01*
X30468750Y29575000D01*
X30535072Y29566268D01*
X30596875Y29540669D01*
X30649946Y29499946D01*
X30690669Y29446875D01*
X30716268Y29385072D01*
X30725000Y29318750D01*
X30725000Y28806250D01*
X30716268Y28739928D01*
X30690669Y28678125D01*
X30649946Y28625054D01*
X30596875Y28584331D01*
X30535072Y28558732D01*
X30468750Y28550000D01*
G37*
%LPD*%
%LPD*%
G36*
X30468750Y30425000D02*
X29531250Y30425000D01*
X29464928Y30433732D01*
X29403125Y30459331D01*
X29350054Y30500054D01*
X29309331Y30553125D01*
X29283732Y30614928D01*
X29275000Y30681250D01*
X29275000Y31193750D01*
X29283732Y31260072D01*
X29309331Y31321875D01*
X29350054Y31374946D01*
X29403125Y31415669D01*
X29464928Y31441268D01*
X29531250Y31450000D01*
X30468750Y31450000D01*
X30535072Y31441268D01*
X30596875Y31415669D01*
X30649946Y31374946D01*
X30690669Y31321875D01*
X30716268Y31260072D01*
X30725000Y31193750D01*
X30725000Y30681250D01*
X30716268Y30614928D01*
X30690669Y30553125D01*
X30649946Y30500054D01*
X30596875Y30459331D01*
X30535072Y30433732D01*
X30468750Y30425000D01*
G37*
%LPD*%
D15*
X37460000Y16000000D03*
D16*
X40000000Y18540000D03*
D16*
X42540000Y16000000D03*
D12*
X16190000Y16000000D03*
D13*
X18730000Y16000000D03*
D13*
X21270000Y16000000D03*
D13*
X23810000Y16000000D03*
M02*
