G04 Nyquist Labs eelab.pcb*
%TF.FileFunction,Copper,L2,Bot*%
%TF.FilePolarity,Positive*%
%FSLAX46Y46*%
%MOMM*%
%LPD*%
%ADD10C,0.2500*%
%ADD11C,0.6000*%
%ADD12R,1.7000X1.7000*%
%ADD13C,1.7000*%
%ADD14C,1.8000*%
%ADD15R,1.6000X1.6000*%
%ADD16C,1.6000*%
G01*
%LPD*%
G36*
X310000Y52930000D02*
X310482Y52939802D01*
X311921Y52949509D01*
X314306Y52959028D01*
X317612Y52968268D01*
X321808Y52977140D01*
X326853Y52985557D01*
X332699Y52993439D01*
X339289Y53000711D01*
X346561Y53007301D01*
X354443Y53013147D01*
X362860Y53018192D01*
X371732Y53022388D01*
X380972Y53025694D01*
X390491Y53028079D01*
X400198Y53029518D01*
X410000Y53030000D01*
X64350172Y53030000D01*
X64359974Y53029518D01*
X64369681Y53028079D01*
X64379201Y53025694D01*
X64388441Y53022388D01*
X64397312Y53018192D01*
X64405729Y53013147D01*
X64413612Y53007301D01*
X64420883Y53000711D01*
X65700711Y51720883D01*
X65707301Y51713612D01*
X65713147Y51705729D01*
X65718192Y51697312D01*
X65722388Y51688441D01*
X65725694Y51679201D01*
X65728079Y51669681D01*
X65729518Y51659974D01*
X65730000Y51650172D01*
X65730000Y40391227D01*
X65730060Y40388774D01*
X65731372Y40362067D01*
X65731853Y40357186D01*
X65735596Y40331950D01*
X65736553Y40327141D01*
X65742752Y40302393D01*
X65744176Y40297700D01*
X65752770Y40273679D01*
X65754647Y40269149D01*
X65765555Y40246086D01*
X65767866Y40241761D01*
X65780982Y40219879D01*
X65783707Y40215801D01*
X65798904Y40195310D01*
X65802015Y40191519D01*
X65819973Y40171706D01*
X65821665Y40169929D01*
X68240711Y37750883D01*
X68247301Y37743612D01*
X68253147Y37735729D01*
X68258192Y37727312D01*
X68262388Y37718441D01*
X68265694Y37709201D01*
X68268079Y37699681D01*
X68269518Y37689974D01*
X68270000Y37680172D01*
X68270000Y5249828D01*
X68269518Y5240026D01*
X68268079Y5230319D01*
X68265694Y5220799D01*
X68262388Y5211559D01*
X68258192Y5202688D01*
X68253147Y5194271D01*
X68247301Y5186388D01*
X68240711Y5179117D01*
X65821665Y2760071D01*
X65819973Y2758294D01*
X65802015Y2738481D01*
X65798904Y2734690D01*
X65783707Y2714199D01*
X65780982Y2710121D01*
X65767866Y2688239D01*
X65765555Y2683914D01*
X65754647Y2660851D01*
X65752770Y2656321D01*
X65744176Y2632300D01*
X65742752Y2627607D01*
X65736553Y2602859D01*
X65735596Y2598050D01*
X65731853Y2572814D01*
X65731372Y2567933D01*
X65730060Y2541226D01*
X65730000Y2538773D01*
X65730000Y410000D01*
X65729518Y400198D01*
X65728079Y390491D01*
X65725694Y380972D01*
X65722388Y371732D01*
X65718192Y362860D01*
X65713147Y354443D01*
X65707301Y346561D01*
X65700711Y339289D01*
X65693439Y332699D01*
X65685557Y326853D01*
X65677140Y321808D01*
X65668268Y317612D01*
X65659028Y314306D01*
X65649509Y311921D01*
X65639802Y310482D01*
X65630000Y310000D01*
X410000Y310000D01*
X400198Y310482D01*
X390491Y311921D01*
X380972Y314306D01*
X371732Y317612D01*
X362860Y321808D01*
X354443Y326853D01*
X346561Y332699D01*
X339289Y339289D01*
X332699Y346561D01*
X326853Y354443D01*
X321808Y362860D01*
X317612Y371732D01*
X314306Y380972D01*
X311921Y390491D01*
X310482Y400198D01*
X310000Y410000D01*
X310000Y52930000D01*
G37*
%LPD*%
%LPC*%
G36*
X64331158Y1882860D02*
X64333233Y1885388D01*
X64347963Y1904585D01*
X64349868Y1907244D01*
X64409821Y1996970D01*
X64411548Y1999747D01*
X64423647Y2020702D01*
X64425189Y2023587D01*
X64472917Y2120371D01*
X64474267Y2123350D01*
X64483527Y2145705D01*
X64484679Y2148766D01*
X64519366Y2250952D01*
X64520316Y2254082D01*
X64526578Y2277454D01*
X64527321Y2280640D01*
X64548374Y2386479D01*
X64548907Y2389706D01*
X64552065Y2413696D01*
X64552386Y2416951D01*
X64559443Y2524632D01*
X64559550Y2527902D01*
X64559550Y2552098D01*
X64559443Y2555368D01*
X64552386Y2663049D01*
X64552065Y2666304D01*
X64548907Y2690294D01*
X64548374Y2693521D01*
X64527321Y2799360D01*
X64526578Y2802546D01*
X64520316Y2825918D01*
X64519366Y2829048D01*
X64484679Y2931234D01*
X64483527Y2934295D01*
X64474267Y2956650D01*
X64472917Y2959629D01*
X64425189Y3056413D01*
X64423647Y3059298D01*
X64411548Y3080253D01*
X64409821Y3083030D01*
X64349868Y3172756D01*
X64347963Y3175415D01*
X64333233Y3194612D01*
X64331158Y3197140D01*
X64260006Y3278273D01*
X64257770Y3280660D01*
X64240660Y3297770D01*
X64238273Y3300006D01*
X64157140Y3371158D01*
X64154612Y3373233D01*
X64135415Y3387963D01*
X64132756Y3389868D01*
X64043030Y3449821D01*
X64040253Y3451548D01*
X64019298Y3463647D01*
X64016413Y3465189D01*
X63919629Y3512917D01*
X63916650Y3514267D01*
X63894295Y3523527D01*
X63891234Y3524679D01*
X63789048Y3559366D01*
X63785918Y3560316D01*
X63762546Y3566578D01*
X63759360Y3567321D01*
X63653521Y3588374D01*
X63650294Y3588907D01*
X63626304Y3592065D01*
X63623049Y3592386D01*
X63515368Y3599443D01*
X63512098Y3599550D01*
X63487902Y3599550D01*
X63484632Y3599443D01*
X63376951Y3592386D01*
X63373696Y3592065D01*
X63349706Y3588907D01*
X63346479Y3588374D01*
X63240640Y3567321D01*
X63237454Y3566578D01*
X63214082Y3560316D01*
X63210952Y3559366D01*
X63108766Y3524679D01*
X63105705Y3523527D01*
X63083350Y3514267D01*
X63080371Y3512917D01*
X62983587Y3465189D01*
X62980702Y3463647D01*
X62959747Y3451548D01*
X62956970Y3449821D01*
X62867244Y3389868D01*
X62864585Y3387963D01*
X62845388Y3373233D01*
X62842860Y3371158D01*
X62761727Y3300006D01*
X62759340Y3297770D01*
X62742230Y3280660D01*
X62739994Y3278273D01*
X62668842Y3197140D01*
X62666767Y3194612D01*
X62652037Y3175415D01*
X62650132Y3172756D01*
X62590179Y3083030D01*
X62588452Y3080253D01*
X62576353Y3059298D01*
X62574811Y3056413D01*
X62527083Y2959629D01*
X62525733Y2956650D01*
X62516473Y2934295D01*
X62515321Y2931234D01*
X62480634Y2829048D01*
X62479684Y2825918D01*
X62473422Y2802546D01*
X62472679Y2799360D01*
X62451626Y2693521D01*
X62451093Y2690294D01*
X62447935Y2666304D01*
X62447614Y2663049D01*
X62440557Y2555368D01*
X62440450Y2552098D01*
X62440450Y2527902D01*
X62440557Y2524632D01*
X62447614Y2416951D01*
X62447935Y2413696D01*
X62451093Y2389706D01*
X62451626Y2386479D01*
X62472679Y2280640D01*
X62473422Y2277454D01*
X62479684Y2254082D01*
X62480634Y2250952D01*
X62515321Y2148766D01*
X62516473Y2145705D01*
X62525733Y2123350D01*
X62527083Y2120371D01*
X62574811Y2023587D01*
X62576353Y2020702D01*
X62588452Y1999747D01*
X62590179Y1996970D01*
X62650132Y1907244D01*
X62652037Y1904585D01*
X62666767Y1885388D01*
X62668842Y1882860D01*
X62739994Y1801727D01*
X62742230Y1799340D01*
X62759340Y1782230D01*
X62761727Y1779994D01*
X62842860Y1708842D01*
X62845388Y1706767D01*
X62864585Y1692037D01*
X62867244Y1690132D01*
X62956970Y1630179D01*
X62959747Y1628452D01*
X62980702Y1616353D01*
X62983587Y1614811D01*
X63080371Y1567083D01*
X63083350Y1565733D01*
X63105705Y1556473D01*
X63108766Y1555321D01*
X63210952Y1520634D01*
X63214082Y1519684D01*
X63237454Y1513422D01*
X63240640Y1512679D01*
X63346479Y1491626D01*
X63349706Y1491093D01*
X63373696Y1487935D01*
X63376951Y1487614D01*
X63484632Y1480557D01*
X63487902Y1480450D01*
X63512098Y1480450D01*
X63515368Y1480557D01*
X63623049Y1487614D01*
X63626304Y1487935D01*
X63650294Y1491093D01*
X63653521Y1491626D01*
X63759360Y1512679D01*
X63762546Y1513422D01*
X63785918Y1519684D01*
X63789048Y1520634D01*
X63891234Y1555321D01*
X63894295Y1556473D01*
X63916650Y1565733D01*
X63919629Y1567083D01*
X64016413Y1614811D01*
X64019298Y1616353D01*
X64040253Y1628452D01*
X64043030Y1630179D01*
X64132756Y1690132D01*
X64135415Y1692037D01*
X64154612Y1706767D01*
X64157140Y1708842D01*
X64238273Y1779994D01*
X64240660Y1782230D01*
X64257770Y1799340D01*
X64260006Y1801727D01*
X64331158Y1882860D01*
G37*
%LPD*%
%LPC*%
G36*
X64238273Y50039994D02*
X64240660Y50042230D01*
X64257770Y50059340D01*
X64260006Y50061727D01*
X64331158Y50142860D01*
X64333233Y50145388D01*
X64347963Y50164585D01*
X64349868Y50167244D01*
X64409821Y50256970D01*
X64411548Y50259747D01*
X64423647Y50280702D01*
X64425189Y50283587D01*
X64472917Y50380371D01*
X64474267Y50383350D01*
X64483527Y50405705D01*
X64484679Y50408766D01*
X64519366Y50510952D01*
X64520316Y50514082D01*
X64526578Y50537454D01*
X64527321Y50540640D01*
X64548374Y50646479D01*
X64548907Y50649706D01*
X64552065Y50673696D01*
X64552386Y50676951D01*
X64559443Y50784632D01*
X64559550Y50787902D01*
X64559550Y50812098D01*
X64559443Y50815368D01*
X64552386Y50923049D01*
X64552065Y50926304D01*
X64548907Y50950294D01*
X64548374Y50953521D01*
X64527321Y51059360D01*
X64526578Y51062546D01*
X64520316Y51085918D01*
X64519366Y51089048D01*
X64484679Y51191234D01*
X64483527Y51194295D01*
X64474267Y51216650D01*
X64472917Y51219629D01*
X64425189Y51316413D01*
X64423647Y51319298D01*
X64411548Y51340253D01*
X64409821Y51343030D01*
X64349868Y51432756D01*
X64347963Y51435415D01*
X64333233Y51454612D01*
X64331158Y51457140D01*
X64260006Y51538273D01*
X64257770Y51540660D01*
X64240660Y51557770D01*
X64238273Y51560006D01*
X64157140Y51631158D01*
X64154612Y51633233D01*
X64135415Y51647963D01*
X64132756Y51649868D01*
X64043030Y51709821D01*
X64040253Y51711548D01*
X64019298Y51723647D01*
X64016413Y51725189D01*
X63919629Y51772917D01*
X63916650Y51774267D01*
X63894295Y51783527D01*
X63891234Y51784679D01*
X63789048Y51819366D01*
X63785918Y51820316D01*
X63762546Y51826578D01*
X63759360Y51827321D01*
X63653521Y51848374D01*
X63650294Y51848907D01*
X63626304Y51852065D01*
X63623049Y51852386D01*
X63515368Y51859443D01*
X63512098Y51859550D01*
X63487902Y51859550D01*
X63484632Y51859443D01*
X63376951Y51852386D01*
X63373696Y51852065D01*
X63349706Y51848907D01*
X63346479Y51848374D01*
X63240640Y51827321D01*
X63237454Y51826578D01*
X63214082Y51820316D01*
X63210952Y51819366D01*
X63108766Y51784679D01*
X63105705Y51783527D01*
X63083350Y51774267D01*
X63080371Y51772917D01*
X62983587Y51725189D01*
X62980702Y51723647D01*
X62959747Y51711548D01*
X62956970Y51709821D01*
X62867244Y51649868D01*
X62864585Y51647963D01*
X62845388Y51633233D01*
X62842860Y51631158D01*
X62761727Y51560006D01*
X62759340Y51557770D01*
X62742230Y51540660D01*
X62739994Y51538273D01*
X62668842Y51457140D01*
X62666767Y51454612D01*
X62652037Y51435415D01*
X62650132Y51432756D01*
X62590179Y51343030D01*
X62588452Y51340253D01*
X62576353Y51319298D01*
X62574811Y51316413D01*
X62527083Y51219629D01*
X62525733Y51216650D01*
X62516473Y51194295D01*
X62515321Y51191234D01*
X62480634Y51089048D01*
X62479684Y51085918D01*
X62473422Y51062546D01*
X62472679Y51059360D01*
X62451626Y50953521D01*
X62451093Y50950294D01*
X62447935Y50926304D01*
X62447614Y50923049D01*
X62440557Y50815368D01*
X62440450Y50812098D01*
X62440450Y50787902D01*
X62440557Y50784632D01*
X62447614Y50676951D01*
X62447935Y50673696D01*
X62451093Y50649706D01*
X62451626Y50646479D01*
X62472679Y50540640D01*
X62473422Y50537454D01*
X62479684Y50514082D01*
X62480634Y50510952D01*
X62515321Y50408766D01*
X62516473Y50405705D01*
X62525733Y50383350D01*
X62527083Y50380371D01*
X62574811Y50283587D01*
X62576353Y50280702D01*
X62588452Y50259747D01*
X62590179Y50256970D01*
X62650132Y50167244D01*
X62652037Y50164585D01*
X62666767Y50145388D01*
X62668842Y50142860D01*
X62739994Y50061727D01*
X62742230Y50059340D01*
X62759340Y50042230D01*
X62761727Y50039994D01*
X62842860Y49968842D01*
X62845388Y49966767D01*
X62864585Y49952037D01*
X62867244Y49950132D01*
X62956970Y49890179D01*
X62959747Y49888452D01*
X62980702Y49876353D01*
X62983587Y49874811D01*
X63080371Y49827083D01*
X63083350Y49825733D01*
X63105705Y49816473D01*
X63108766Y49815321D01*
X63210952Y49780634D01*
X63214082Y49779684D01*
X63237454Y49773422D01*
X63240640Y49772679D01*
X63346479Y49751626D01*
X63349706Y49751093D01*
X63373696Y49747935D01*
X63376951Y49747614D01*
X63484632Y49740557D01*
X63487902Y49740450D01*
X63512098Y49740450D01*
X63515368Y49740557D01*
X63623049Y49747614D01*
X63626304Y49747935D01*
X63650294Y49751093D01*
X63653521Y49751626D01*
X63759360Y49772679D01*
X63762546Y49773422D01*
X63785918Y49779684D01*
X63789048Y49780634D01*
X63891234Y49815321D01*
X63894295Y49816473D01*
X63916650Y49825733D01*
X63919629Y49827083D01*
X64016413Y49874811D01*
X64019298Y49876353D01*
X64040253Y49888452D01*
X64043030Y49890179D01*
X64132756Y49950132D01*
X64135415Y49952037D01*
X64154612Y49966767D01*
X64157140Y49968842D01*
X64238273Y50039994D01*
G37*
%LPD*%
%LPC*%
G36*
X61791158Y1882860D02*
X61793233Y1885388D01*
X61807963Y1904585D01*
X61809868Y1907244D01*
X61869821Y1996970D01*
X61871548Y1999747D01*
X61883647Y2020702D01*
X61885189Y2023587D01*
X61932917Y2120371D01*
X61934267Y2123350D01*
X61943527Y2145705D01*
X61944679Y2148766D01*
X61979366Y2250952D01*
X61980316Y2254082D01*
X61986578Y2277454D01*
X61987321Y2280640D01*
X62008374Y2386479D01*
X62008907Y2389706D01*
X62012065Y2413696D01*
X62012386Y2416951D01*
X62019443Y2524632D01*
X62019550Y2527902D01*
X62019550Y2552098D01*
X62019443Y2555368D01*
X62012386Y2663049D01*
X62012065Y2666304D01*
X62008907Y2690294D01*
X62008374Y2693521D01*
X61987321Y2799360D01*
X61986578Y2802546D01*
X61980316Y2825918D01*
X61979366Y2829048D01*
X61944679Y2931234D01*
X61943527Y2934295D01*
X61934267Y2956650D01*
X61932917Y2959629D01*
X61885189Y3056413D01*
X61883647Y3059298D01*
X61871548Y3080253D01*
X61869821Y3083030D01*
X61809868Y3172756D01*
X61807963Y3175415D01*
X61793233Y3194612D01*
X61791158Y3197140D01*
X61720006Y3278273D01*
X61717770Y3280660D01*
X61700660Y3297770D01*
X61698273Y3300006D01*
X61617140Y3371158D01*
X61614612Y3373233D01*
X61595415Y3387963D01*
X61592756Y3389868D01*
X61503030Y3449821D01*
X61500253Y3451548D01*
X61479298Y3463647D01*
X61476413Y3465189D01*
X61379629Y3512917D01*
X61376650Y3514267D01*
X61354295Y3523527D01*
X61351234Y3524679D01*
X61249048Y3559366D01*
X61245918Y3560316D01*
X61222546Y3566578D01*
X61219360Y3567321D01*
X61113521Y3588374D01*
X61110294Y3588907D01*
X61086304Y3592065D01*
X61083049Y3592386D01*
X60975368Y3599443D01*
X60972098Y3599550D01*
X60947902Y3599550D01*
X60944632Y3599443D01*
X60836951Y3592386D01*
X60833696Y3592065D01*
X60809706Y3588907D01*
X60806479Y3588374D01*
X60700640Y3567321D01*
X60697454Y3566578D01*
X60674082Y3560316D01*
X60670952Y3559366D01*
X60568766Y3524679D01*
X60565705Y3523527D01*
X60543350Y3514267D01*
X60540371Y3512917D01*
X60443587Y3465189D01*
X60440702Y3463647D01*
X60419747Y3451548D01*
X60416970Y3449821D01*
X60327244Y3389868D01*
X60324585Y3387963D01*
X60305388Y3373233D01*
X60302860Y3371158D01*
X60221727Y3300006D01*
X60219340Y3297770D01*
X60202230Y3280660D01*
X60199994Y3278273D01*
X60128842Y3197140D01*
X60126767Y3194612D01*
X60112037Y3175415D01*
X60110132Y3172756D01*
X60050179Y3083030D01*
X60048452Y3080253D01*
X60036353Y3059298D01*
X60034811Y3056413D01*
X59987083Y2959629D01*
X59985733Y2956650D01*
X59976473Y2934295D01*
X59975321Y2931234D01*
X59940634Y2829048D01*
X59939684Y2825918D01*
X59933422Y2802546D01*
X59932679Y2799360D01*
X59911626Y2693521D01*
X59911093Y2690294D01*
X59907935Y2666304D01*
X59907614Y2663049D01*
X59900557Y2555368D01*
X59900450Y2552098D01*
X59900450Y2527902D01*
X59900557Y2524632D01*
X59907614Y2416951D01*
X59907935Y2413696D01*
X59911093Y2389706D01*
X59911626Y2386479D01*
X59932679Y2280640D01*
X59933422Y2277454D01*
X59939684Y2254082D01*
X59940634Y2250952D01*
X59975321Y2148766D01*
X59976473Y2145705D01*
X59985733Y2123350D01*
X59987083Y2120371D01*
X60034811Y2023587D01*
X60036353Y2020702D01*
X60048452Y1999747D01*
X60050179Y1996970D01*
X60110132Y1907244D01*
X60112037Y1904585D01*
X60126767Y1885388D01*
X60128842Y1882860D01*
X60199994Y1801727D01*
X60202230Y1799340D01*
X60219340Y1782230D01*
X60221727Y1779994D01*
X60302860Y1708842D01*
X60305388Y1706767D01*
X60324585Y1692037D01*
X60327244Y1690132D01*
X60416970Y1630179D01*
X60419747Y1628452D01*
X60440702Y1616353D01*
X60443587Y1614811D01*
X60540371Y1567083D01*
X60543350Y1565733D01*
X60565705Y1556473D01*
X60568766Y1555321D01*
X60670952Y1520634D01*
X60674082Y1519684D01*
X60697454Y1513422D01*
X60700640Y1512679D01*
X60806479Y1491626D01*
X60809706Y1491093D01*
X60833696Y1487935D01*
X60836951Y1487614D01*
X60944632Y1480557D01*
X60947902Y1480450D01*
X60972098Y1480450D01*
X60975368Y1480557D01*
X61083049Y1487614D01*
X61086304Y1487935D01*
X61110294Y1491093D01*
X61113521Y1491626D01*
X61219360Y1512679D01*
X61222546Y1513422D01*
X61245918Y1519684D01*
X61249048Y1520634D01*
X61351234Y1555321D01*
X61354295Y1556473D01*
X61376650Y1565733D01*
X61379629Y1567083D01*
X61476413Y1614811D01*
X61479298Y1616353D01*
X61500253Y1628452D01*
X61503030Y1630179D01*
X61592756Y1690132D01*
X61595415Y1692037D01*
X61614612Y1706767D01*
X61617140Y1708842D01*
X61698273Y1779994D01*
X61700660Y1782230D01*
X61717770Y1799340D01*
X61720006Y1801727D01*
X61791158Y1882860D01*
G37*
%LPD*%
%LPC*%
G36*
X61698273Y50039994D02*
X61700660Y50042230D01*
X61717770Y50059340D01*
X61720006Y50061727D01*
X61791158Y50142860D01*
X61793233Y50145388D01*
X61807963Y50164585D01*
X61809868Y50167244D01*
X61869821Y50256970D01*
X61871548Y50259747D01*
X61883647Y50280702D01*
X61885189Y50283587D01*
X61932917Y50380371D01*
X61934267Y50383350D01*
X61943527Y50405705D01*
X61944679Y50408766D01*
X61979366Y50510952D01*
X61980316Y50514082D01*
X61986578Y50537454D01*
X61987321Y50540640D01*
X62008374Y50646479D01*
X62008907Y50649706D01*
X62012065Y50673696D01*
X62012386Y50676951D01*
X62019443Y50784632D01*
X62019550Y50787902D01*
X62019550Y50812098D01*
X62019443Y50815368D01*
X62012386Y50923049D01*
X62012065Y50926304D01*
X62008907Y50950294D01*
X62008374Y50953521D01*
X61987321Y51059360D01*
X61986578Y51062546D01*
X61980316Y51085918D01*
X61979366Y51089048D01*
X61944679Y51191234D01*
X61943527Y51194295D01*
X61934267Y51216650D01*
X61932917Y51219629D01*
X61885189Y51316413D01*
X61883647Y51319298D01*
X61871548Y51340253D01*
X61869821Y51343030D01*
X61809868Y51432756D01*
X61807963Y51435415D01*
X61793233Y51454612D01*
X61791158Y51457140D01*
X61720006Y51538273D01*
X61717770Y51540660D01*
X61700660Y51557770D01*
X61698273Y51560006D01*
X61617140Y51631158D01*
X61614612Y51633233D01*
X61595415Y51647963D01*
X61592756Y51649868D01*
X61503030Y51709821D01*
X61500253Y51711548D01*
X61479298Y51723647D01*
X61476413Y51725189D01*
X61379629Y51772917D01*
X61376650Y51774267D01*
X61354295Y51783527D01*
X61351234Y51784679D01*
X61249048Y51819366D01*
X61245918Y51820316D01*
X61222546Y51826578D01*
X61219360Y51827321D01*
X61113521Y51848374D01*
X61110294Y51848907D01*
X61086304Y51852065D01*
X61083049Y51852386D01*
X60975368Y51859443D01*
X60972098Y51859550D01*
X60947902Y51859550D01*
X60944632Y51859443D01*
X60836951Y51852386D01*
X60833696Y51852065D01*
X60809706Y51848907D01*
X60806479Y51848374D01*
X60700640Y51827321D01*
X60697454Y51826578D01*
X60674082Y51820316D01*
X60670952Y51819366D01*
X60568766Y51784679D01*
X60565705Y51783527D01*
X60543350Y51774267D01*
X60540371Y51772917D01*
X60443587Y51725189D01*
X60440702Y51723647D01*
X60419747Y51711548D01*
X60416970Y51709821D01*
X60327244Y51649868D01*
X60324585Y51647963D01*
X60305388Y51633233D01*
X60302860Y51631158D01*
X60221727Y51560006D01*
X60219340Y51557770D01*
X60202230Y51540660D01*
X60199994Y51538273D01*
X60128842Y51457140D01*
X60126767Y51454612D01*
X60112037Y51435415D01*
X60110132Y51432756D01*
X60050179Y51343030D01*
X60048452Y51340253D01*
X60036353Y51319298D01*
X60034811Y51316413D01*
X59987083Y51219629D01*
X59985733Y51216650D01*
X59976473Y51194295D01*
X59975321Y51191234D01*
X59940634Y51089048D01*
X59939684Y51085918D01*
X59933422Y51062546D01*
X59932679Y51059360D01*
X59911626Y50953521D01*
X59911093Y50950294D01*
X59907935Y50926304D01*
X59907614Y50923049D01*
X59900557Y50815368D01*
X59900450Y50812098D01*
X59900450Y50787902D01*
X59900557Y50784632D01*
X59907614Y50676951D01*
X59907935Y50673696D01*
X59911093Y50649706D01*
X59911626Y50646479D01*
X59932679Y50540640D01*
X59933422Y50537454D01*
X59939684Y50514082D01*
X59940634Y50510952D01*
X59975321Y50408766D01*
X59976473Y50405705D01*
X59985733Y50383350D01*
X59987083Y50380371D01*
X60034811Y50283587D01*
X60036353Y50280702D01*
X60048452Y50259747D01*
X60050179Y50256970D01*
X60110132Y50167244D01*
X60112037Y50164585D01*
X60126767Y50145388D01*
X60128842Y50142860D01*
X60199994Y50061727D01*
X60202230Y50059340D01*
X60219340Y50042230D01*
X60221727Y50039994D01*
X60302860Y49968842D01*
X60305388Y49966767D01*
X60324585Y49952037D01*
X60327244Y49950132D01*
X60416970Y49890179D01*
X60419747Y49888452D01*
X60440702Y49876353D01*
X60443587Y49874811D01*
X60540371Y49827083D01*
X60543350Y49825733D01*
X60565705Y49816473D01*
X60568766Y49815321D01*
X60670952Y49780634D01*
X60674082Y49779684D01*
X60697454Y49773422D01*
X60700640Y49772679D01*
X60806479Y49751626D01*
X60809706Y49751093D01*
X60833696Y49747935D01*
X60836951Y49747614D01*
X60944632Y49740557D01*
X60947902Y49740450D01*
X60972098Y49740450D01*
X60975368Y49740557D01*
X61083049Y49747614D01*
X61086304Y49747935D01*
X61110294Y49751093D01*
X61113521Y49751626D01*
X61219360Y49772679D01*
X61222546Y49773422D01*
X61245918Y49779684D01*
X61249048Y49780634D01*
X61351234Y49815321D01*
X61354295Y49816473D01*
X61376650Y49825733D01*
X61379629Y49827083D01*
X61476413Y49874811D01*
X61479298Y49876353D01*
X61500253Y49888452D01*
X61503030Y49890179D01*
X61592756Y49950132D01*
X61595415Y49952037D01*
X61614612Y49966767D01*
X61617140Y49968842D01*
X61698273Y50039994D01*
G37*
%LPD*%
%LPC*%
G36*
X59158273Y1779994D02*
X59160660Y1782230D01*
X59177770Y1799340D01*
X59180006Y1801727D01*
X59251158Y1882860D01*
X59253233Y1885388D01*
X59267963Y1904585D01*
X59269868Y1907244D01*
X59329821Y1996970D01*
X59331548Y1999747D01*
X59343647Y2020702D01*
X59345189Y2023587D01*
X59392917Y2120371D01*
X59394267Y2123350D01*
X59403527Y2145705D01*
X59404679Y2148766D01*
X59439366Y2250952D01*
X59440316Y2254082D01*
X59446578Y2277454D01*
X59447321Y2280640D01*
X59468374Y2386479D01*
X59468907Y2389706D01*
X59472065Y2413696D01*
X59472386Y2416951D01*
X59479443Y2524632D01*
X59479550Y2527902D01*
X59479550Y2552098D01*
X59479443Y2555368D01*
X59472386Y2663049D01*
X59472065Y2666304D01*
X59468907Y2690294D01*
X59468374Y2693521D01*
X59447321Y2799360D01*
X59446578Y2802546D01*
X59440316Y2825918D01*
X59439366Y2829048D01*
X59404679Y2931234D01*
X59403527Y2934295D01*
X59394267Y2956650D01*
X59392917Y2959629D01*
X59345189Y3056413D01*
X59343647Y3059298D01*
X59331548Y3080253D01*
X59329821Y3083030D01*
X59269868Y3172756D01*
X59267963Y3175415D01*
X59253233Y3194612D01*
X59251158Y3197140D01*
X59180006Y3278273D01*
X59177770Y3280660D01*
X59160660Y3297770D01*
X59158273Y3300006D01*
X59077140Y3371158D01*
X59074612Y3373233D01*
X59055415Y3387963D01*
X59052756Y3389868D01*
X58963030Y3449821D01*
X58960253Y3451548D01*
X58939298Y3463647D01*
X58936413Y3465189D01*
X58839629Y3512917D01*
X58836650Y3514267D01*
X58814295Y3523527D01*
X58811234Y3524679D01*
X58709048Y3559366D01*
X58705918Y3560316D01*
X58682546Y3566578D01*
X58679360Y3567321D01*
X58573521Y3588374D01*
X58570294Y3588907D01*
X58546304Y3592065D01*
X58543049Y3592386D01*
X58435368Y3599443D01*
X58432098Y3599550D01*
X58407902Y3599550D01*
X58404632Y3599443D01*
X58296951Y3592386D01*
X58293696Y3592065D01*
X58269706Y3588907D01*
X58266479Y3588374D01*
X58160640Y3567321D01*
X58157454Y3566578D01*
X58134082Y3560316D01*
X58130952Y3559366D01*
X58028766Y3524679D01*
X58025705Y3523527D01*
X58003350Y3514267D01*
X58000371Y3512917D01*
X57903587Y3465189D01*
X57900702Y3463647D01*
X57879747Y3451548D01*
X57876970Y3449821D01*
X57787244Y3389868D01*
X57784585Y3387963D01*
X57765388Y3373233D01*
X57762860Y3371158D01*
X57681727Y3300006D01*
X57679340Y3297770D01*
X57662230Y3280660D01*
X57659994Y3278273D01*
X57588842Y3197140D01*
X57586767Y3194612D01*
X57572037Y3175415D01*
X57570132Y3172756D01*
X57510179Y3083030D01*
X57508452Y3080253D01*
X57496353Y3059298D01*
X57494811Y3056413D01*
X57447083Y2959629D01*
X57445733Y2956650D01*
X57436473Y2934295D01*
X57435321Y2931234D01*
X57400634Y2829048D01*
X57399684Y2825918D01*
X57393422Y2802546D01*
X57392679Y2799360D01*
X57371626Y2693521D01*
X57371093Y2690294D01*
X57367935Y2666304D01*
X57367614Y2663049D01*
X57360557Y2555368D01*
X57360450Y2552098D01*
X57360450Y2527902D01*
X57360557Y2524632D01*
X57367614Y2416951D01*
X57367935Y2413696D01*
X57371093Y2389706D01*
X57371626Y2386479D01*
X57392679Y2280640D01*
X57393422Y2277454D01*
X57399684Y2254082D01*
X57400634Y2250952D01*
X57435321Y2148766D01*
X57436473Y2145705D01*
X57445733Y2123350D01*
X57447083Y2120371D01*
X57494811Y2023587D01*
X57496353Y2020702D01*
X57508452Y1999747D01*
X57510179Y1996970D01*
X57570132Y1907244D01*
X57572037Y1904585D01*
X57586767Y1885388D01*
X57588842Y1882860D01*
X57659994Y1801727D01*
X57662230Y1799340D01*
X57679340Y1782230D01*
X57681727Y1779994D01*
X57762860Y1708842D01*
X57765388Y1706767D01*
X57784585Y1692037D01*
X57787244Y1690132D01*
X57876970Y1630179D01*
X57879747Y1628452D01*
X57900702Y1616353D01*
X57903587Y1614811D01*
X58000371Y1567083D01*
X58003350Y1565733D01*
X58025705Y1556473D01*
X58028766Y1555321D01*
X58130952Y1520634D01*
X58134082Y1519684D01*
X58157454Y1513422D01*
X58160640Y1512679D01*
X58266479Y1491626D01*
X58269706Y1491093D01*
X58293696Y1487935D01*
X58296951Y1487614D01*
X58404632Y1480557D01*
X58407902Y1480450D01*
X58432098Y1480450D01*
X58435368Y1480557D01*
X58543049Y1487614D01*
X58546304Y1487935D01*
X58570294Y1491093D01*
X58573521Y1491626D01*
X58679360Y1512679D01*
X58682546Y1513422D01*
X58705918Y1519684D01*
X58709048Y1520634D01*
X58811234Y1555321D01*
X58814295Y1556473D01*
X58836650Y1565733D01*
X58839629Y1567083D01*
X58936413Y1614811D01*
X58939298Y1616353D01*
X58960253Y1628452D01*
X58963030Y1630179D01*
X59052756Y1690132D01*
X59055415Y1692037D01*
X59074612Y1706767D01*
X59077140Y1708842D01*
X59158273Y1779994D01*
G37*
%LPD*%
%LPC*%
G36*
X59158273Y50039994D02*
X59160660Y50042230D01*
X59177770Y50059340D01*
X59180006Y50061727D01*
X59251158Y50142860D01*
X59253233Y50145388D01*
X59267963Y50164585D01*
X59269868Y50167244D01*
X59329821Y50256970D01*
X59331548Y50259747D01*
X59343647Y50280702D01*
X59345189Y50283587D01*
X59392917Y50380371D01*
X59394267Y50383350D01*
X59403527Y50405705D01*
X59404679Y50408766D01*
X59439366Y50510952D01*
X59440316Y50514082D01*
X59446578Y50537454D01*
X59447321Y50540640D01*
X59468374Y50646479D01*
X59468907Y50649706D01*
X59472065Y50673696D01*
X59472386Y50676951D01*
X59479443Y50784632D01*
X59479550Y50787902D01*
X59479550Y50812098D01*
X59479443Y50815368D01*
X59472386Y50923049D01*
X59472065Y50926304D01*
X59468907Y50950294D01*
X59468374Y50953521D01*
X59447321Y51059360D01*
X59446578Y51062546D01*
X59440316Y51085918D01*
X59439366Y51089048D01*
X59404679Y51191234D01*
X59403527Y51194295D01*
X59394267Y51216650D01*
X59392917Y51219629D01*
X59345189Y51316413D01*
X59343647Y51319298D01*
X59331548Y51340253D01*
X59329821Y51343030D01*
X59269868Y51432756D01*
X59267963Y51435415D01*
X59253233Y51454612D01*
X59251158Y51457140D01*
X59180006Y51538273D01*
X59177770Y51540660D01*
X59160660Y51557770D01*
X59158273Y51560006D01*
X59077140Y51631158D01*
X59074612Y51633233D01*
X59055415Y51647963D01*
X59052756Y51649868D01*
X58963030Y51709821D01*
X58960253Y51711548D01*
X58939298Y51723647D01*
X58936413Y51725189D01*
X58839629Y51772917D01*
X58836650Y51774267D01*
X58814295Y51783527D01*
X58811234Y51784679D01*
X58709048Y51819366D01*
X58705918Y51820316D01*
X58682546Y51826578D01*
X58679360Y51827321D01*
X58573521Y51848374D01*
X58570294Y51848907D01*
X58546304Y51852065D01*
X58543049Y51852386D01*
X58435368Y51859443D01*
X58432098Y51859550D01*
X58407902Y51859550D01*
X58404632Y51859443D01*
X58296951Y51852386D01*
X58293696Y51852065D01*
X58269706Y51848907D01*
X58266479Y51848374D01*
X58160640Y51827321D01*
X58157454Y51826578D01*
X58134082Y51820316D01*
X58130952Y51819366D01*
X58028766Y51784679D01*
X58025705Y51783527D01*
X58003350Y51774267D01*
X58000371Y51772917D01*
X57903587Y51725189D01*
X57900702Y51723647D01*
X57879747Y51711548D01*
X57876970Y51709821D01*
X57787244Y51649868D01*
X57784585Y51647963D01*
X57765388Y51633233D01*
X57762860Y51631158D01*
X57681727Y51560006D01*
X57679340Y51557770D01*
X57662230Y51540660D01*
X57659994Y51538273D01*
X57588842Y51457140D01*
X57586767Y51454612D01*
X57572037Y51435415D01*
X57570132Y51432756D01*
X57510179Y51343030D01*
X57508452Y51340253D01*
X57496353Y51319298D01*
X57494811Y51316413D01*
X57447083Y51219629D01*
X57445733Y51216650D01*
X57436473Y51194295D01*
X57435321Y51191234D01*
X57400634Y51089048D01*
X57399684Y51085918D01*
X57393422Y51062546D01*
X57392679Y51059360D01*
X57371626Y50953521D01*
X57371093Y50950294D01*
X57367935Y50926304D01*
X57367614Y50923049D01*
X57360557Y50815368D01*
X57360450Y50812098D01*
X57360450Y50787902D01*
X57360557Y50784632D01*
X57367614Y50676951D01*
X57367935Y50673696D01*
X57371093Y50649706D01*
X57371626Y50646479D01*
X57392679Y50540640D01*
X57393422Y50537454D01*
X57399684Y50514082D01*
X57400634Y50510952D01*
X57435321Y50408766D01*
X57436473Y50405705D01*
X57445733Y50383350D01*
X57447083Y50380371D01*
X57494811Y50283587D01*
X57496353Y50280702D01*
X57508452Y50259747D01*
X57510179Y50256970D01*
X57570132Y50167244D01*
X57572037Y50164585D01*
X57586767Y50145388D01*
X57588842Y50142860D01*
X57659994Y50061727D01*
X57662230Y50059340D01*
X57679340Y50042230D01*
X57681727Y50039994D01*
X57762860Y49968842D01*
X57765388Y49966767D01*
X57784585Y49952037D01*
X57787244Y49950132D01*
X57876970Y49890179D01*
X57879747Y49888452D01*
X57900702Y49876353D01*
X57903587Y49874811D01*
X58000371Y49827083D01*
X58003350Y49825733D01*
X58025705Y49816473D01*
X58028766Y49815321D01*
X58130952Y49780634D01*
X58134082Y49779684D01*
X58157454Y49773422D01*
X58160640Y49772679D01*
X58266479Y49751626D01*
X58269706Y49751093D01*
X58293696Y49747935D01*
X58296951Y49747614D01*
X58404632Y49740557D01*
X58407902Y49740450D01*
X58432098Y49740450D01*
X58435368Y49740557D01*
X58543049Y49747614D01*
X58546304Y49747935D01*
X58570294Y49751093D01*
X58573521Y49751626D01*
X58679360Y49772679D01*
X58682546Y49773422D01*
X58705918Y49779684D01*
X58709048Y49780634D01*
X58811234Y49815321D01*
X58814295Y49816473D01*
X58836650Y49825733D01*
X58839629Y49827083D01*
X58936413Y49874811D01*
X58939298Y49876353D01*
X58960253Y49888452D01*
X58963030Y49890179D01*
X59052756Y49950132D01*
X59055415Y49952037D01*
X59074612Y49966767D01*
X59077140Y49968842D01*
X59158273Y50039994D01*
G37*
%LPD*%
%LPC*%
G36*
X56711158Y50142860D02*
X56713233Y50145388D01*
X56727963Y50164585D01*
X56729868Y50167244D01*
X56789821Y50256970D01*
X56791548Y50259747D01*
X56803647Y50280702D01*
X56805189Y50283587D01*
X56852917Y50380371D01*
X56854267Y50383350D01*
X56863527Y50405705D01*
X56864679Y50408766D01*
X56899366Y50510952D01*
X56900316Y50514082D01*
X56906578Y50537454D01*
X56907321Y50540640D01*
X56928374Y50646479D01*
X56928907Y50649706D01*
X56932065Y50673696D01*
X56932386Y50676951D01*
X56939443Y50784632D01*
X56939550Y50787902D01*
X56939550Y50812098D01*
X56939443Y50815368D01*
X56932386Y50923049D01*
X56932065Y50926304D01*
X56928907Y50950294D01*
X56928374Y50953521D01*
X56907321Y51059360D01*
X56906578Y51062546D01*
X56900316Y51085918D01*
X56899366Y51089048D01*
X56864679Y51191234D01*
X56863527Y51194295D01*
X56854267Y51216650D01*
X56852917Y51219629D01*
X56805189Y51316413D01*
X56803647Y51319298D01*
X56791548Y51340253D01*
X56789821Y51343030D01*
X56729868Y51432756D01*
X56727963Y51435415D01*
X56713233Y51454612D01*
X56711158Y51457140D01*
X56640006Y51538273D01*
X56637770Y51540660D01*
X56620660Y51557770D01*
X56618273Y51560006D01*
X56537140Y51631158D01*
X56534612Y51633233D01*
X56515415Y51647963D01*
X56512756Y51649868D01*
X56423030Y51709821D01*
X56420253Y51711548D01*
X56399298Y51723647D01*
X56396413Y51725189D01*
X56299629Y51772917D01*
X56296650Y51774267D01*
X56274295Y51783527D01*
X56271234Y51784679D01*
X56169048Y51819366D01*
X56165918Y51820316D01*
X56142546Y51826578D01*
X56139360Y51827321D01*
X56033521Y51848374D01*
X56030294Y51848907D01*
X56006304Y51852065D01*
X56003049Y51852386D01*
X55895368Y51859443D01*
X55892098Y51859550D01*
X55867902Y51859550D01*
X55864632Y51859443D01*
X55756951Y51852386D01*
X55753696Y51852065D01*
X55729706Y51848907D01*
X55726479Y51848374D01*
X55620640Y51827321D01*
X55617454Y51826578D01*
X55594082Y51820316D01*
X55590952Y51819366D01*
X55488766Y51784679D01*
X55485705Y51783527D01*
X55463350Y51774267D01*
X55460371Y51772917D01*
X55363587Y51725189D01*
X55360702Y51723647D01*
X55339747Y51711548D01*
X55336970Y51709821D01*
X55247244Y51649868D01*
X55244585Y51647963D01*
X55225388Y51633233D01*
X55222860Y51631158D01*
X55141727Y51560006D01*
X55139340Y51557770D01*
X55122230Y51540660D01*
X55119994Y51538273D01*
X55048842Y51457140D01*
X55046767Y51454612D01*
X55032037Y51435415D01*
X55030132Y51432756D01*
X54970179Y51343030D01*
X54968452Y51340253D01*
X54956353Y51319298D01*
X54954811Y51316413D01*
X54907083Y51219629D01*
X54905733Y51216650D01*
X54896473Y51194295D01*
X54895321Y51191234D01*
X54860634Y51089048D01*
X54859684Y51085918D01*
X54853422Y51062546D01*
X54852679Y51059360D01*
X54831626Y50953521D01*
X54831093Y50950294D01*
X54827935Y50926304D01*
X54827614Y50923049D01*
X54820557Y50815368D01*
X54820450Y50812098D01*
X54820450Y50787902D01*
X54820557Y50784632D01*
X54827614Y50676951D01*
X54827935Y50673696D01*
X54831093Y50649706D01*
X54831626Y50646479D01*
X54852679Y50540640D01*
X54853422Y50537454D01*
X54859684Y50514082D01*
X54860634Y50510952D01*
X54895321Y50408766D01*
X54896473Y50405705D01*
X54905733Y50383350D01*
X54907083Y50380371D01*
X54954811Y50283587D01*
X54956353Y50280702D01*
X54968452Y50259747D01*
X54970179Y50256970D01*
X55030132Y50167244D01*
X55032037Y50164585D01*
X55046767Y50145388D01*
X55048842Y50142860D01*
X55119994Y50061727D01*
X55122230Y50059340D01*
X55139340Y50042230D01*
X55141727Y50039994D01*
X55222860Y49968842D01*
X55225388Y49966767D01*
X55244585Y49952037D01*
X55247244Y49950132D01*
X55336970Y49890179D01*
X55339747Y49888452D01*
X55360702Y49876353D01*
X55363587Y49874811D01*
X55460371Y49827083D01*
X55463350Y49825733D01*
X55485705Y49816473D01*
X55488766Y49815321D01*
X55590952Y49780634D01*
X55594082Y49779684D01*
X55617454Y49773422D01*
X55620640Y49772679D01*
X55726479Y49751626D01*
X55729706Y49751093D01*
X55753696Y49747935D01*
X55756951Y49747614D01*
X55864632Y49740557D01*
X55867902Y49740450D01*
X55892098Y49740450D01*
X55895368Y49740557D01*
X56003049Y49747614D01*
X56006304Y49747935D01*
X56030294Y49751093D01*
X56033521Y49751626D01*
X56139360Y49772679D01*
X56142546Y49773422D01*
X56165918Y49779684D01*
X56169048Y49780634D01*
X56271234Y49815321D01*
X56274295Y49816473D01*
X56296650Y49825733D01*
X56299629Y49827083D01*
X56396413Y49874811D01*
X56399298Y49876353D01*
X56420253Y49888452D01*
X56423030Y49890179D01*
X56512756Y49950132D01*
X56515415Y49952037D01*
X56534612Y49966767D01*
X56537140Y49968842D01*
X56618273Y50039994D01*
X56620660Y50042230D01*
X56637770Y50059340D01*
X56640006Y50061727D01*
X56711158Y50142860D01*
G37*
%LPD*%
%LPC*%
G36*
X56711158Y1882860D02*
X56713233Y1885388D01*
X56727963Y1904585D01*
X56729868Y1907244D01*
X56789821Y1996970D01*
X56791548Y1999747D01*
X56803647Y2020702D01*
X56805189Y2023587D01*
X56852917Y2120371D01*
X56854267Y2123350D01*
X56863527Y2145705D01*
X56864679Y2148766D01*
X56899366Y2250952D01*
X56900316Y2254082D01*
X56906578Y2277454D01*
X56907321Y2280640D01*
X56928374Y2386479D01*
X56928907Y2389706D01*
X56932065Y2413696D01*
X56932386Y2416951D01*
X56939443Y2524632D01*
X56939550Y2527902D01*
X56939550Y2552098D01*
X56939443Y2555368D01*
X56932386Y2663049D01*
X56932065Y2666304D01*
X56928907Y2690294D01*
X56928374Y2693521D01*
X56907321Y2799360D01*
X56906578Y2802546D01*
X56900316Y2825918D01*
X56899366Y2829048D01*
X56864679Y2931234D01*
X56863527Y2934295D01*
X56854267Y2956650D01*
X56852917Y2959629D01*
X56805189Y3056413D01*
X56803647Y3059298D01*
X56791548Y3080253D01*
X56789821Y3083030D01*
X56729868Y3172756D01*
X56727963Y3175415D01*
X56713233Y3194612D01*
X56711158Y3197140D01*
X56640006Y3278273D01*
X56637770Y3280660D01*
X56620660Y3297770D01*
X56618273Y3300006D01*
X56537140Y3371158D01*
X56534612Y3373233D01*
X56515415Y3387963D01*
X56512756Y3389868D01*
X56423030Y3449821D01*
X56420253Y3451548D01*
X56399298Y3463647D01*
X56396413Y3465189D01*
X56299629Y3512917D01*
X56296650Y3514267D01*
X56274295Y3523527D01*
X56271234Y3524679D01*
X56169048Y3559366D01*
X56165918Y3560316D01*
X56142546Y3566578D01*
X56139360Y3567321D01*
X56033521Y3588374D01*
X56030294Y3588907D01*
X56006304Y3592065D01*
X56003049Y3592386D01*
X55895368Y3599443D01*
X55892098Y3599550D01*
X55867902Y3599550D01*
X55864632Y3599443D01*
X55756951Y3592386D01*
X55753696Y3592065D01*
X55729706Y3588907D01*
X55726479Y3588374D01*
X55620640Y3567321D01*
X55617454Y3566578D01*
X55594082Y3560316D01*
X55590952Y3559366D01*
X55488766Y3524679D01*
X55485705Y3523527D01*
X55463350Y3514267D01*
X55460371Y3512917D01*
X55363587Y3465189D01*
X55360702Y3463647D01*
X55339747Y3451548D01*
X55336970Y3449821D01*
X55247244Y3389868D01*
X55244585Y3387963D01*
X55225388Y3373233D01*
X55222860Y3371158D01*
X55141727Y3300006D01*
X55139340Y3297770D01*
X55122230Y3280660D01*
X55119994Y3278273D01*
X55048842Y3197140D01*
X55046767Y3194612D01*
X55032037Y3175415D01*
X55030132Y3172756D01*
X54970179Y3083030D01*
X54968452Y3080253D01*
X54956353Y3059298D01*
X54954811Y3056413D01*
X54907083Y2959629D01*
X54905733Y2956650D01*
X54896473Y2934295D01*
X54895321Y2931234D01*
X54860634Y2829048D01*
X54859684Y2825918D01*
X54853422Y2802546D01*
X54852679Y2799360D01*
X54831626Y2693521D01*
X54831093Y2690294D01*
X54827935Y2666304D01*
X54827614Y2663049D01*
X54820557Y2555368D01*
X54820450Y2552098D01*
X54820450Y2527902D01*
X54820557Y2524632D01*
X54827614Y2416951D01*
X54827935Y2413696D01*
X54831093Y2389706D01*
X54831626Y2386479D01*
X54852679Y2280640D01*
X54853422Y2277454D01*
X54859684Y2254082D01*
X54860634Y2250952D01*
X54895321Y2148766D01*
X54896473Y2145705D01*
X54905733Y2123350D01*
X54907083Y2120371D01*
X54954811Y2023587D01*
X54956353Y2020702D01*
X54968452Y1999747D01*
X54970179Y1996970D01*
X55030132Y1907244D01*
X55032037Y1904585D01*
X55046767Y1885388D01*
X55048842Y1882860D01*
X55119994Y1801727D01*
X55122230Y1799340D01*
X55139340Y1782230D01*
X55141727Y1779994D01*
X55222860Y1708842D01*
X55225388Y1706767D01*
X55244585Y1692037D01*
X55247244Y1690132D01*
X55336970Y1630179D01*
X55339747Y1628452D01*
X55360702Y1616353D01*
X55363587Y1614811D01*
X55460371Y1567083D01*
X55463350Y1565733D01*
X55485705Y1556473D01*
X55488766Y1555321D01*
X55590952Y1520634D01*
X55594082Y1519684D01*
X55617454Y1513422D01*
X55620640Y1512679D01*
X55726479Y1491626D01*
X55729706Y1491093D01*
X55753696Y1487935D01*
X55756951Y1487614D01*
X55864632Y1480557D01*
X55867902Y1480450D01*
X55892098Y1480450D01*
X55895368Y1480557D01*
X56003049Y1487614D01*
X56006304Y1487935D01*
X56030294Y1491093D01*
X56033521Y1491626D01*
X56139360Y1512679D01*
X56142546Y1513422D01*
X56165918Y1519684D01*
X56169048Y1520634D01*
X56271234Y1555321D01*
X56274295Y1556473D01*
X56296650Y1565733D01*
X56299629Y1567083D01*
X56396413Y1614811D01*
X56399298Y1616353D01*
X56420253Y1628452D01*
X56423030Y1630179D01*
X56512756Y1690132D01*
X56515415Y1692037D01*
X56534612Y1706767D01*
X56537140Y1708842D01*
X56618273Y1779994D01*
X56620660Y1782230D01*
X56637770Y1799340D01*
X56640006Y1801727D01*
X56711158Y1882860D01*
G37*
%LPD*%
%LPC*%
G36*
X50885711Y49640528D02*
X50892301Y49633256D01*
X50898147Y49625374D01*
X50903192Y49616957D01*
X50907388Y49608085D01*
X50910694Y49598846D01*
X50913079Y49589326D01*
X50914518Y49579619D01*
X50915000Y49569817D01*
X50915000Y49001227D01*
X50915060Y48998774D01*
X50915951Y48980642D01*
X50916131Y48978195D01*
X50918293Y48956251D01*
X50918593Y48953816D01*
X50921077Y48937073D01*
X50922033Y48932263D01*
X50926146Y48915844D01*
X50926801Y48913480D01*
X50933201Y48892379D01*
X50933971Y48890049D01*
X50939673Y48874112D01*
X50941550Y48869582D01*
X50948787Y48854281D01*
X50949890Y48852089D01*
X50960284Y48832643D01*
X50961494Y48830508D01*
X50970196Y48815990D01*
X50972920Y48811912D01*
X50983003Y48798317D01*
X50984513Y48796382D01*
X50998501Y48779338D01*
X51000104Y48777480D01*
X51012295Y48764029D01*
X51013987Y48762251D01*
X54461160Y45315078D01*
X54467751Y45307807D01*
X54473597Y45299924D01*
X54478642Y45291507D01*
X54482838Y45282636D01*
X54486144Y45273396D01*
X54488528Y45263877D01*
X54489968Y45254169D01*
X54490450Y45244367D01*
X54490450Y45237902D01*
X54490557Y45234632D01*
X54492909Y45198740D01*
X54493230Y45195485D01*
X54496388Y45171496D01*
X54496921Y45168268D01*
X54503938Y45132990D01*
X54504681Y45129805D01*
X54510943Y45106433D01*
X54511893Y45103302D01*
X54523455Y45069242D01*
X54524607Y45066181D01*
X54533867Y45043826D01*
X54535217Y45040847D01*
X54551125Y45008587D01*
X54552667Y45005702D01*
X54564766Y44984747D01*
X54566493Y44981970D01*
X54586476Y44952062D01*
X54588382Y44949404D01*
X54603111Y44930207D01*
X54605187Y44927679D01*
X54628903Y44900636D01*
X54631139Y44898248D01*
X54648248Y44881139D01*
X54650636Y44878903D01*
X54677679Y44855187D01*
X54680207Y44853111D01*
X54699404Y44838382D01*
X54702062Y44836476D01*
X54731970Y44816493D01*
X54734747Y44814766D01*
X54755702Y44802667D01*
X54758587Y44801125D01*
X54790847Y44785217D01*
X54793826Y44783867D01*
X54816181Y44774607D01*
X54819242Y44773455D01*
X54853302Y44761893D01*
X54856433Y44760943D01*
X54879805Y44754681D01*
X54882990Y44753938D01*
X54918268Y44746921D01*
X54921496Y44746388D01*
X54945485Y44743230D01*
X54948740Y44742909D01*
X54984632Y44740557D01*
X54987902Y44740450D01*
X55012098Y44740450D01*
X55015368Y44740557D01*
X55051260Y44742909D01*
X55054515Y44743230D01*
X55078504Y44746388D01*
X55081732Y44746921D01*
X55117010Y44753938D01*
X55120195Y44754681D01*
X55143567Y44760943D01*
X55146698Y44761893D01*
X55180758Y44773455D01*
X55183819Y44774607D01*
X55206174Y44783867D01*
X55209153Y44785217D01*
X55241413Y44801125D01*
X55244298Y44802667D01*
X55265253Y44814766D01*
X55268030Y44816493D01*
X55297938Y44836476D01*
X55300596Y44838382D01*
X55319793Y44853111D01*
X55322321Y44855187D01*
X55349364Y44878903D01*
X55351752Y44881139D01*
X55368861Y44898248D01*
X55371097Y44900636D01*
X55394813Y44927679D01*
X55396889Y44930207D01*
X55411618Y44949404D01*
X55413524Y44952062D01*
X55433507Y44981970D01*
X55435234Y44984747D01*
X55447333Y45005702D01*
X55448875Y45008587D01*
X55464783Y45040847D01*
X55466133Y45043826D01*
X55475393Y45066181D01*
X55476545Y45069242D01*
X55488107Y45103302D01*
X55489057Y45106433D01*
X55495319Y45129805D01*
X55496062Y45132990D01*
X55503079Y45168268D01*
X55503612Y45171496D01*
X55506770Y45195485D01*
X55507091Y45198740D01*
X55509443Y45234632D01*
X55509550Y45237902D01*
X55509550Y45262098D01*
X55509443Y45265368D01*
X55507091Y45301260D01*
X55506770Y45304515D01*
X55503612Y45328504D01*
X55503079Y45331732D01*
X55496062Y45367010D01*
X55495319Y45370195D01*
X55489057Y45393567D01*
X55488107Y45396698D01*
X55476545Y45430758D01*
X55475393Y45433819D01*
X55466133Y45456174D01*
X55464783Y45459153D01*
X55448875Y45491413D01*
X55447333Y45494298D01*
X55435234Y45515253D01*
X55433507Y45518030D01*
X55413524Y45547938D01*
X55411618Y45550596D01*
X55396889Y45569793D01*
X55394813Y45572321D01*
X55371097Y45599364D01*
X55368861Y45601752D01*
X55351752Y45618861D01*
X55349364Y45621097D01*
X55322321Y45644813D01*
X55319793Y45646889D01*
X55300596Y45661618D01*
X55297938Y45663524D01*
X55268030Y45683507D01*
X55265253Y45685234D01*
X55244298Y45697333D01*
X55241413Y45698875D01*
X55209153Y45714783D01*
X55206174Y45716133D01*
X55183819Y45725393D01*
X55180758Y45726545D01*
X55146698Y45738107D01*
X55143567Y45739057D01*
X55120195Y45745319D01*
X55117010Y45746062D01*
X55081732Y45753079D01*
X55078504Y45753612D01*
X55054515Y45756770D01*
X55051260Y45757091D01*
X55015368Y45759443D01*
X55012098Y45759550D01*
X55005633Y45759550D01*
X54995831Y45760032D01*
X54986123Y45761472D01*
X54976604Y45763856D01*
X54967364Y45767162D01*
X54958493Y45771358D01*
X54950076Y45776403D01*
X54942193Y45782249D01*
X54934922Y45788840D01*
X51614289Y49109472D01*
X51607699Y49116744D01*
X51601853Y49124626D01*
X51596808Y49133043D01*
X51592612Y49141915D01*
X51589306Y49151154D01*
X51586921Y49160674D01*
X51585482Y49170381D01*
X51585000Y49180183D01*
X51585000Y49748773D01*
X51584940Y49751226D01*
X51584049Y49769358D01*
X51583869Y49771805D01*
X51581707Y49793749D01*
X51581407Y49796184D01*
X51578923Y49812927D01*
X51577967Y49817737D01*
X51573854Y49834156D01*
X51573199Y49836520D01*
X51566799Y49857621D01*
X51566029Y49859951D01*
X51560327Y49875888D01*
X51558450Y49880418D01*
X51551213Y49895719D01*
X51550110Y49897911D01*
X51539716Y49917357D01*
X51538506Y49919492D01*
X51533438Y49927948D01*
X51528962Y49936287D01*
X51525295Y49945010D01*
X51522468Y49954042D01*
X51520508Y49963300D01*
X51519432Y49972702D01*
X51519250Y49982163D01*
X51519963Y49991600D01*
X51521564Y50000927D01*
X51524040Y50010060D01*
X51527368Y50018919D01*
X51531519Y50027423D01*
X51536455Y50035497D01*
X51542132Y50043069D01*
X51548500Y50050069D01*
X51557770Y50059340D01*
X51560006Y50061727D01*
X51631158Y50142860D01*
X51633233Y50145388D01*
X51647963Y50164585D01*
X51649868Y50167244D01*
X51709821Y50256970D01*
X51711548Y50259747D01*
X51723647Y50280702D01*
X51725189Y50283587D01*
X51772917Y50380371D01*
X51774267Y50383350D01*
X51783527Y50405705D01*
X51784679Y50408766D01*
X51819366Y50510952D01*
X51820316Y50514082D01*
X51826578Y50537454D01*
X51827321Y50540640D01*
X51848374Y50646479D01*
X51848907Y50649706D01*
X51852065Y50673696D01*
X51852386Y50676951D01*
X51859443Y50784632D01*
X51859550Y50787902D01*
X51859550Y50812098D01*
X51859443Y50815368D01*
X51852386Y50923049D01*
X51852065Y50926304D01*
X51848907Y50950294D01*
X51848374Y50953521D01*
X51827321Y51059360D01*
X51826578Y51062546D01*
X51820316Y51085918D01*
X51819366Y51089048D01*
X51784679Y51191234D01*
X51783527Y51194295D01*
X51774267Y51216650D01*
X51772917Y51219629D01*
X51725189Y51316413D01*
X51723647Y51319298D01*
X51711548Y51340253D01*
X51709821Y51343030D01*
X51649868Y51432756D01*
X51647963Y51435415D01*
X51633233Y51454612D01*
X51631158Y51457140D01*
X51560006Y51538273D01*
X51557770Y51540660D01*
X51540660Y51557770D01*
X51538273Y51560006D01*
X51457140Y51631158D01*
X51454612Y51633233D01*
X51435415Y51647963D01*
X51432756Y51649868D01*
X51343030Y51709821D01*
X51340253Y51711548D01*
X51319298Y51723647D01*
X51316413Y51725189D01*
X51219629Y51772917D01*
X51216650Y51774267D01*
X51194295Y51783527D01*
X51191234Y51784679D01*
X51089048Y51819366D01*
X51085918Y51820316D01*
X51062546Y51826578D01*
X51059360Y51827321D01*
X50953521Y51848374D01*
X50950294Y51848907D01*
X50926304Y51852065D01*
X50923049Y51852386D01*
X50815368Y51859443D01*
X50812098Y51859550D01*
X50787902Y51859550D01*
X50784632Y51859443D01*
X50676951Y51852386D01*
X50673696Y51852065D01*
X50649706Y51848907D01*
X50646479Y51848374D01*
X50540640Y51827321D01*
X50537454Y51826578D01*
X50514082Y51820316D01*
X50510952Y51819366D01*
X50408766Y51784679D01*
X50405705Y51783527D01*
X50383350Y51774267D01*
X50380371Y51772917D01*
X50283587Y51725189D01*
X50280702Y51723647D01*
X50259747Y51711548D01*
X50256970Y51709821D01*
X50167244Y51649868D01*
X50164585Y51647963D01*
X50145388Y51633233D01*
X50142860Y51631158D01*
X50061727Y51560006D01*
X50059340Y51557770D01*
X50042230Y51540660D01*
X50039994Y51538273D01*
X49968842Y51457140D01*
X49966767Y51454612D01*
X49952037Y51435415D01*
X49950132Y51432756D01*
X49890179Y51343030D01*
X49888452Y51340253D01*
X49876353Y51319298D01*
X49874811Y51316413D01*
X49827083Y51219629D01*
X49825733Y51216650D01*
X49816473Y51194295D01*
X49815321Y51191234D01*
X49780634Y51089048D01*
X49779684Y51085918D01*
X49773422Y51062546D01*
X49772679Y51059360D01*
X49751626Y50953521D01*
X49751093Y50950294D01*
X49747935Y50926304D01*
X49747614Y50923049D01*
X49740557Y50815368D01*
X49740450Y50812098D01*
X49740450Y50787902D01*
X49740557Y50784632D01*
X49747614Y50676951D01*
X49747935Y50673696D01*
X49751093Y50649706D01*
X49751626Y50646479D01*
X49772679Y50540640D01*
X49773422Y50537454D01*
X49779684Y50514082D01*
X49780634Y50510952D01*
X49815321Y50408766D01*
X49816473Y50405705D01*
X49825733Y50383350D01*
X49827083Y50380371D01*
X49874811Y50283587D01*
X49876353Y50280702D01*
X49888452Y50259747D01*
X49890179Y50256970D01*
X49950132Y50167244D01*
X49952037Y50164585D01*
X49966767Y50145388D01*
X49968842Y50142860D01*
X50039994Y50061727D01*
X50042230Y50059340D01*
X50059340Y50042230D01*
X50061727Y50039994D01*
X50142860Y49968842D01*
X50145388Y49966767D01*
X50164585Y49952037D01*
X50167244Y49950132D01*
X50256970Y49890179D01*
X50259747Y49888452D01*
X50280702Y49876353D01*
X50283587Y49874811D01*
X50380371Y49827083D01*
X50383350Y49825733D01*
X50405705Y49816473D01*
X50408766Y49815321D01*
X50510952Y49780634D01*
X50514082Y49779684D01*
X50537454Y49773422D01*
X50540640Y49772679D01*
X50646479Y49751626D01*
X50649706Y49751093D01*
X50673696Y49747935D01*
X50676951Y49747614D01*
X50748199Y49742945D01*
X50758409Y49741746D01*
X50768442Y49739505D01*
X50778192Y49736246D01*
X50787557Y49732003D01*
X50796436Y49726822D01*
X50804736Y49720756D01*
X50812369Y49713869D01*
X50885711Y49640528D01*
G37*
%LPD*%
%LPC*%
G36*
X54078273Y50039994D02*
X54080660Y50042230D01*
X54097770Y50059340D01*
X54100006Y50061727D01*
X54171158Y50142860D01*
X54173233Y50145388D01*
X54187963Y50164585D01*
X54189868Y50167244D01*
X54249821Y50256970D01*
X54251548Y50259747D01*
X54263647Y50280702D01*
X54265189Y50283587D01*
X54312917Y50380371D01*
X54314267Y50383350D01*
X54323527Y50405705D01*
X54324679Y50408766D01*
X54359366Y50510952D01*
X54360316Y50514082D01*
X54366578Y50537454D01*
X54367321Y50540640D01*
X54388374Y50646479D01*
X54388907Y50649706D01*
X54392065Y50673696D01*
X54392386Y50676951D01*
X54399443Y50784632D01*
X54399550Y50787902D01*
X54399550Y50812098D01*
X54399443Y50815368D01*
X54392386Y50923049D01*
X54392065Y50926304D01*
X54388907Y50950294D01*
X54388374Y50953521D01*
X54367321Y51059360D01*
X54366578Y51062546D01*
X54360316Y51085918D01*
X54359366Y51089048D01*
X54324679Y51191234D01*
X54323527Y51194295D01*
X54314267Y51216650D01*
X54312917Y51219629D01*
X54265189Y51316413D01*
X54263647Y51319298D01*
X54251548Y51340253D01*
X54249821Y51343030D01*
X54189868Y51432756D01*
X54187963Y51435415D01*
X54173233Y51454612D01*
X54171158Y51457140D01*
X54100006Y51538273D01*
X54097770Y51540660D01*
X54080660Y51557770D01*
X54078273Y51560006D01*
X53997140Y51631158D01*
X53994612Y51633233D01*
X53975415Y51647963D01*
X53972756Y51649868D01*
X53883030Y51709821D01*
X53880253Y51711548D01*
X53859298Y51723647D01*
X53856413Y51725189D01*
X53759629Y51772917D01*
X53756650Y51774267D01*
X53734295Y51783527D01*
X53731234Y51784679D01*
X53629048Y51819366D01*
X53625918Y51820316D01*
X53602546Y51826578D01*
X53599360Y51827321D01*
X53493521Y51848374D01*
X53490294Y51848907D01*
X53466304Y51852065D01*
X53463049Y51852386D01*
X53355368Y51859443D01*
X53352098Y51859550D01*
X53327902Y51859550D01*
X53324632Y51859443D01*
X53216951Y51852386D01*
X53213696Y51852065D01*
X53189706Y51848907D01*
X53186479Y51848374D01*
X53080640Y51827321D01*
X53077454Y51826578D01*
X53054082Y51820316D01*
X53050952Y51819366D01*
X52948766Y51784679D01*
X52945705Y51783527D01*
X52923350Y51774267D01*
X52920371Y51772917D01*
X52823587Y51725189D01*
X52820702Y51723647D01*
X52799747Y51711548D01*
X52796970Y51709821D01*
X52707244Y51649868D01*
X52704585Y51647963D01*
X52685388Y51633233D01*
X52682860Y51631158D01*
X52601727Y51560006D01*
X52599340Y51557770D01*
X52582230Y51540660D01*
X52579994Y51538273D01*
X52508842Y51457140D01*
X52506767Y51454612D01*
X52492037Y51435415D01*
X52490132Y51432756D01*
X52430179Y51343030D01*
X52428452Y51340253D01*
X52416353Y51319298D01*
X52414811Y51316413D01*
X52367083Y51219629D01*
X52365733Y51216650D01*
X52356473Y51194295D01*
X52355321Y51191234D01*
X52320634Y51089048D01*
X52319684Y51085918D01*
X52313422Y51062546D01*
X52312679Y51059360D01*
X52291626Y50953521D01*
X52291093Y50950294D01*
X52287935Y50926304D01*
X52287614Y50923049D01*
X52280557Y50815368D01*
X52280450Y50812098D01*
X52280450Y50787902D01*
X52280557Y50784632D01*
X52287614Y50676951D01*
X52287935Y50673696D01*
X52291093Y50649706D01*
X52291626Y50646479D01*
X52312679Y50540640D01*
X52313422Y50537454D01*
X52319684Y50514082D01*
X52320634Y50510952D01*
X52355321Y50408766D01*
X52356473Y50405705D01*
X52365733Y50383350D01*
X52367083Y50380371D01*
X52414811Y50283587D01*
X52416353Y50280702D01*
X52428452Y50259747D01*
X52430179Y50256970D01*
X52490132Y50167244D01*
X52492037Y50164585D01*
X52506767Y50145388D01*
X52508842Y50142860D01*
X52579994Y50061727D01*
X52582230Y50059340D01*
X52599340Y50042230D01*
X52601727Y50039994D01*
X52682860Y49968842D01*
X52685388Y49966767D01*
X52704585Y49952037D01*
X52707244Y49950132D01*
X52796970Y49890179D01*
X52799747Y49888452D01*
X52820702Y49876353D01*
X52823587Y49874811D01*
X52920371Y49827083D01*
X52923350Y49825733D01*
X52945705Y49816473D01*
X52948766Y49815321D01*
X53050952Y49780634D01*
X53054082Y49779684D01*
X53077454Y49773422D01*
X53080640Y49772679D01*
X53186479Y49751626D01*
X53189706Y49751093D01*
X53213696Y49747935D01*
X53216951Y49747614D01*
X53324632Y49740557D01*
X53327902Y49740450D01*
X53352098Y49740450D01*
X53355368Y49740557D01*
X53463049Y49747614D01*
X53466304Y49747935D01*
X53490294Y49751093D01*
X53493521Y49751626D01*
X53599360Y49772679D01*
X53602546Y49773422D01*
X53625918Y49779684D01*
X53629048Y49780634D01*
X53731234Y49815321D01*
X53734295Y49816473D01*
X53756650Y49825733D01*
X53759629Y49827083D01*
X53856413Y49874811D01*
X53859298Y49876353D01*
X53880253Y49888452D01*
X53883030Y49890179D01*
X53972756Y49950132D01*
X53975415Y49952037D01*
X53994612Y49966767D01*
X53997140Y49968842D01*
X54078273Y50039994D01*
G37*
%LPD*%
%LPC*%
G36*
X54078273Y1779994D02*
X54080660Y1782230D01*
X54097770Y1799340D01*
X54100006Y1801727D01*
X54171158Y1882860D01*
X54173233Y1885388D01*
X54187963Y1904585D01*
X54189868Y1907244D01*
X54249821Y1996970D01*
X54251548Y1999747D01*
X54263647Y2020702D01*
X54265189Y2023587D01*
X54312917Y2120371D01*
X54314267Y2123350D01*
X54323527Y2145705D01*
X54324679Y2148766D01*
X54359366Y2250952D01*
X54360316Y2254082D01*
X54366578Y2277454D01*
X54367321Y2280640D01*
X54388374Y2386479D01*
X54388907Y2389706D01*
X54392065Y2413696D01*
X54392386Y2416951D01*
X54399443Y2524632D01*
X54399550Y2527902D01*
X54399550Y2552098D01*
X54399443Y2555368D01*
X54392386Y2663049D01*
X54392065Y2666304D01*
X54388907Y2690294D01*
X54388374Y2693521D01*
X54367321Y2799360D01*
X54366578Y2802546D01*
X54360316Y2825918D01*
X54359366Y2829048D01*
X54324679Y2931234D01*
X54323527Y2934295D01*
X54314267Y2956650D01*
X54312917Y2959629D01*
X54265189Y3056413D01*
X54263647Y3059298D01*
X54251548Y3080253D01*
X54249821Y3083030D01*
X54189868Y3172756D01*
X54187963Y3175415D01*
X54173233Y3194612D01*
X54171158Y3197140D01*
X54100006Y3278273D01*
X54097770Y3280660D01*
X54080660Y3297770D01*
X54078273Y3300006D01*
X53997140Y3371158D01*
X53994612Y3373233D01*
X53975415Y3387963D01*
X53972756Y3389868D01*
X53883030Y3449821D01*
X53880253Y3451548D01*
X53859298Y3463647D01*
X53856413Y3465189D01*
X53759629Y3512917D01*
X53756650Y3514267D01*
X53734295Y3523527D01*
X53731234Y3524679D01*
X53629048Y3559366D01*
X53625918Y3560316D01*
X53602546Y3566578D01*
X53599360Y3567321D01*
X53493521Y3588374D01*
X53490294Y3588907D01*
X53466304Y3592065D01*
X53463049Y3592386D01*
X53355368Y3599443D01*
X53352098Y3599550D01*
X53327902Y3599550D01*
X53324632Y3599443D01*
X53216951Y3592386D01*
X53213696Y3592065D01*
X53189706Y3588907D01*
X53186479Y3588374D01*
X53080640Y3567321D01*
X53077454Y3566578D01*
X53054082Y3560316D01*
X53050952Y3559366D01*
X52948766Y3524679D01*
X52945705Y3523527D01*
X52923350Y3514267D01*
X52920371Y3512917D01*
X52823587Y3465189D01*
X52820702Y3463647D01*
X52799747Y3451548D01*
X52796970Y3449821D01*
X52707244Y3389868D01*
X52704585Y3387963D01*
X52685388Y3373233D01*
X52682860Y3371158D01*
X52601727Y3300006D01*
X52599340Y3297770D01*
X52582230Y3280660D01*
X52579994Y3278273D01*
X52508842Y3197140D01*
X52506767Y3194612D01*
X52492037Y3175415D01*
X52490132Y3172756D01*
X52430179Y3083030D01*
X52428452Y3080253D01*
X52416353Y3059298D01*
X52414811Y3056413D01*
X52367083Y2959629D01*
X52365733Y2956650D01*
X52356473Y2934295D01*
X52355321Y2931234D01*
X52320634Y2829048D01*
X52319684Y2825918D01*
X52313422Y2802546D01*
X52312679Y2799360D01*
X52291626Y2693521D01*
X52291093Y2690294D01*
X52287935Y2666304D01*
X52287614Y2663049D01*
X52280557Y2555368D01*
X52280450Y2552098D01*
X52280450Y2527902D01*
X52280557Y2524632D01*
X52287614Y2416951D01*
X52287935Y2413696D01*
X52291093Y2389706D01*
X52291626Y2386479D01*
X52312679Y2280640D01*
X52313422Y2277454D01*
X52319684Y2254082D01*
X52320634Y2250952D01*
X52355321Y2148766D01*
X52356473Y2145705D01*
X52365733Y2123350D01*
X52367083Y2120371D01*
X52414811Y2023587D01*
X52416353Y2020702D01*
X52428452Y1999747D01*
X52430179Y1996970D01*
X52490132Y1907244D01*
X52492037Y1904585D01*
X52506767Y1885388D01*
X52508842Y1882860D01*
X52579994Y1801727D01*
X52582230Y1799340D01*
X52599340Y1782230D01*
X52601727Y1779994D01*
X52682860Y1708842D01*
X52685388Y1706767D01*
X52704585Y1692037D01*
X52707244Y1690132D01*
X52796970Y1630179D01*
X52799747Y1628452D01*
X52820702Y1616353D01*
X52823587Y1614811D01*
X52920371Y1567083D01*
X52923350Y1565733D01*
X52945705Y1556473D01*
X52948766Y1555321D01*
X53050952Y1520634D01*
X53054082Y1519684D01*
X53077454Y1513422D01*
X53080640Y1512679D01*
X53186479Y1491626D01*
X53189706Y1491093D01*
X53213696Y1487935D01*
X53216951Y1487614D01*
X53324632Y1480557D01*
X53327902Y1480450D01*
X53352098Y1480450D01*
X53355368Y1480557D01*
X53463049Y1487614D01*
X53466304Y1487935D01*
X53490294Y1491093D01*
X53493521Y1491626D01*
X53599360Y1512679D01*
X53602546Y1513422D01*
X53625918Y1519684D01*
X53629048Y1520634D01*
X53731234Y1555321D01*
X53734295Y1556473D01*
X53756650Y1565733D01*
X53759629Y1567083D01*
X53856413Y1614811D01*
X53859298Y1616353D01*
X53880253Y1628452D01*
X53883030Y1630179D01*
X53972756Y1690132D01*
X53975415Y1692037D01*
X53994612Y1706767D01*
X53997140Y1708842D01*
X54078273Y1779994D01*
G37*
%LPD*%
%LPC*%
G36*
X39665000Y16251227D02*
X39665060Y16248774D01*
X39665951Y16230642D01*
X39666131Y16228195D01*
X39668293Y16206251D01*
X39668593Y16203816D01*
X39671077Y16187073D01*
X39672033Y16182263D01*
X39676146Y16165844D01*
X39676801Y16163480D01*
X39683201Y16142379D01*
X39683971Y16140049D01*
X39689673Y16124112D01*
X39691550Y16119582D01*
X39698787Y16104281D01*
X39699890Y16102089D01*
X39710284Y16082643D01*
X39711494Y16080508D01*
X39720196Y16065990D01*
X39722920Y16061912D01*
X39733003Y16048317D01*
X39734513Y16046382D01*
X39748501Y16029338D01*
X39750104Y16027480D01*
X39762295Y16014029D01*
X39763987Y16012251D01*
X40135711Y15640528D01*
X40142301Y15633256D01*
X40148147Y15625374D01*
X40153192Y15616957D01*
X40157388Y15608085D01*
X40160694Y15598846D01*
X40163079Y15589326D01*
X40164518Y15579619D01*
X40165000Y15569817D01*
X40165000Y14001227D01*
X40165060Y13998774D01*
X40165951Y13980642D01*
X40166131Y13978195D01*
X40168293Y13956251D01*
X40168593Y13953816D01*
X40171077Y13937073D01*
X40172033Y13932263D01*
X40176146Y13915844D01*
X40176801Y13913480D01*
X40183201Y13892379D01*
X40183971Y13890049D01*
X40189673Y13874112D01*
X40191550Y13869582D01*
X40198787Y13854281D01*
X40199890Y13852089D01*
X40210284Y13832643D01*
X40211494Y13830508D01*
X40220196Y13815990D01*
X40222920Y13811912D01*
X40233003Y13798317D01*
X40234513Y13796382D01*
X40248501Y13779338D01*
X40250104Y13777480D01*
X40262295Y13764029D01*
X40263987Y13762251D01*
X40385711Y13640528D01*
X40392301Y13633256D01*
X40398147Y13625374D01*
X40403192Y13616957D01*
X40407388Y13608085D01*
X40410694Y13598846D01*
X40413079Y13589326D01*
X40414518Y13579619D01*
X40415000Y13569817D01*
X40415000Y12501227D01*
X40415060Y12498774D01*
X40415951Y12480642D01*
X40416131Y12478195D01*
X40418293Y12456251D01*
X40418593Y12453816D01*
X40421077Y12437073D01*
X40422033Y12432263D01*
X40426146Y12415844D01*
X40426801Y12413480D01*
X40433201Y12392379D01*
X40433971Y12390049D01*
X40439673Y12374112D01*
X40441550Y12369582D01*
X40448787Y12354281D01*
X40449890Y12352089D01*
X40460284Y12332643D01*
X40461494Y12330508D01*
X40470196Y12315990D01*
X40472920Y12311912D01*
X40483003Y12298317D01*
X40484513Y12296382D01*
X40498501Y12279338D01*
X40500104Y12277480D01*
X40512295Y12264029D01*
X40513987Y12262251D01*
X49710711Y3065528D01*
X49717301Y3058256D01*
X49723147Y3050374D01*
X49728192Y3041957D01*
X49732388Y3033085D01*
X49735694Y3023846D01*
X49738079Y3014326D01*
X49739518Y3004619D01*
X49740000Y2994817D01*
X49740000Y1691227D01*
X49740060Y1688774D01*
X49740891Y1671868D01*
X49741371Y1666988D01*
X49743675Y1651459D01*
X49744632Y1646650D01*
X49748446Y1631422D01*
X49749870Y1626729D01*
X49755158Y1611948D01*
X49757035Y1607417D01*
X49763747Y1593226D01*
X49766059Y1588901D01*
X49774129Y1575436D01*
X49776854Y1571358D01*
X49786205Y1558749D01*
X49789316Y1554958D01*
X49799859Y1543327D01*
X49803327Y1539859D01*
X49814958Y1529316D01*
X49818749Y1526205D01*
X49831358Y1516854D01*
X49835436Y1514129D01*
X49848901Y1506059D01*
X49853226Y1503747D01*
X49867417Y1497035D01*
X49871948Y1495158D01*
X49886729Y1489870D01*
X49891422Y1488446D01*
X49906650Y1484632D01*
X49911459Y1483675D01*
X49926988Y1481371D01*
X49931868Y1480891D01*
X49948774Y1480060D01*
X49951227Y1480000D01*
X51648773Y1480000D01*
X51651226Y1480060D01*
X51668132Y1480891D01*
X51673012Y1481371D01*
X51688541Y1483675D01*
X51693350Y1484632D01*
X51708578Y1488446D01*
X51713271Y1489870D01*
X51728052Y1495158D01*
X51732583Y1497035D01*
X51746774Y1503747D01*
X51751099Y1506059D01*
X51764564Y1514129D01*
X51768642Y1516854D01*
X51781251Y1526205D01*
X51785042Y1529316D01*
X51796673Y1539859D01*
X51800141Y1543327D01*
X51810684Y1554958D01*
X51813795Y1558749D01*
X51823146Y1571358D01*
X51825871Y1575436D01*
X51833941Y1588901D01*
X51836253Y1593226D01*
X51842965Y1607417D01*
X51844842Y1611948D01*
X51850130Y1626729D01*
X51851554Y1631422D01*
X51855368Y1646650D01*
X51856325Y1651459D01*
X51858629Y1666988D01*
X51859109Y1671868D01*
X51859940Y1688774D01*
X51860000Y1691227D01*
X51860000Y3388773D01*
X51859940Y3391226D01*
X51859109Y3408132D01*
X51858629Y3413012D01*
X51856325Y3428541D01*
X51855368Y3433350D01*
X51851554Y3448578D01*
X51850130Y3453271D01*
X51844842Y3468052D01*
X51842965Y3472583D01*
X51836253Y3486774D01*
X51833941Y3491099D01*
X51825871Y3504564D01*
X51823146Y3508642D01*
X51813795Y3521251D01*
X51810684Y3525042D01*
X51800141Y3536673D01*
X51796673Y3540141D01*
X51785042Y3550684D01*
X51781251Y3553795D01*
X51768642Y3563146D01*
X51764564Y3565871D01*
X51751099Y3573941D01*
X51746774Y3576253D01*
X51732583Y3582965D01*
X51728052Y3584842D01*
X51713271Y3590130D01*
X51708578Y3591554D01*
X51693350Y3595368D01*
X51688541Y3596325D01*
X51673012Y3598629D01*
X51668132Y3599109D01*
X51651226Y3599940D01*
X51648773Y3600000D01*
X50165183Y3600000D01*
X50155381Y3600482D01*
X50145674Y3601921D01*
X50136154Y3604306D01*
X50126915Y3607612D01*
X50118043Y3611808D01*
X50109626Y3616853D01*
X50101744Y3622699D01*
X50094472Y3629289D01*
X41114289Y12609472D01*
X41107699Y12616744D01*
X41101853Y12624626D01*
X41096808Y12633043D01*
X41092612Y12641915D01*
X41089306Y12651154D01*
X41086921Y12660674D01*
X41085482Y12670381D01*
X41085000Y12680183D01*
X41085000Y13748773D01*
X41084940Y13751226D01*
X41084049Y13769358D01*
X41083869Y13771805D01*
X41081707Y13793749D01*
X41081407Y13796184D01*
X41078923Y13812927D01*
X41077967Y13817737D01*
X41073854Y13834156D01*
X41073199Y13836520D01*
X41066799Y13857621D01*
X41066029Y13859951D01*
X41060327Y13875888D01*
X41058450Y13880418D01*
X41051213Y13895719D01*
X41050110Y13897911D01*
X41039716Y13917357D01*
X41038506Y13919492D01*
X41029804Y13934010D01*
X41027080Y13938088D01*
X41016997Y13951683D01*
X41015487Y13953618D01*
X41001499Y13970662D01*
X40999896Y13972520D01*
X40987705Y13985971D01*
X40986013Y13987749D01*
X40864289Y14109472D01*
X40857699Y14116744D01*
X40851853Y14124626D01*
X40846808Y14133043D01*
X40842612Y14141915D01*
X40839306Y14151154D01*
X40836921Y14160674D01*
X40835482Y14170381D01*
X40835000Y14180183D01*
X40835000Y15748773D01*
X40834940Y15751226D01*
X40834049Y15769358D01*
X40833869Y15771805D01*
X40831707Y15793749D01*
X40831407Y15796184D01*
X40828923Y15812927D01*
X40827967Y15817737D01*
X40823854Y15834156D01*
X40823199Y15836520D01*
X40816799Y15857621D01*
X40816029Y15859951D01*
X40810327Y15875888D01*
X40808450Y15880418D01*
X40801213Y15895719D01*
X40800110Y15897911D01*
X40789716Y15917357D01*
X40788506Y15919492D01*
X40779804Y15934010D01*
X40777080Y15938088D01*
X40766997Y15951683D01*
X40765487Y15953618D01*
X40751499Y15970662D01*
X40749896Y15972520D01*
X40737705Y15985971D01*
X40736013Y15987749D01*
X40364289Y16359472D01*
X40357699Y16366744D01*
X40351853Y16374626D01*
X40346808Y16383043D01*
X40342612Y16391915D01*
X40339306Y16401154D01*
X40336921Y16410674D01*
X40335482Y16420381D01*
X40335000Y16430183D01*
X40335000Y17519214D01*
X40335482Y17529016D01*
X40336921Y17538723D01*
X40339306Y17548243D01*
X40342612Y17557483D01*
X40346808Y17566354D01*
X40351853Y17574771D01*
X40357699Y17582654D01*
X40364289Y17589925D01*
X40371561Y17596515D01*
X40379443Y17602361D01*
X40387860Y17607406D01*
X40396732Y17611602D01*
X40397516Y17611927D01*
X40400495Y17613277D01*
X40491413Y17658113D01*
X40494298Y17659655D01*
X40515253Y17671753D01*
X40518030Y17673480D01*
X40602318Y17729800D01*
X40604977Y17731705D01*
X40624174Y17746435D01*
X40626702Y17748510D01*
X40702918Y17815349D01*
X40705305Y17817585D01*
X40722415Y17834695D01*
X40724651Y17837082D01*
X40791490Y17913298D01*
X40793565Y17915826D01*
X40808295Y17935023D01*
X40810200Y17937682D01*
X40866520Y18021970D01*
X40868247Y18024747D01*
X40880345Y18045702D01*
X40881887Y18048587D01*
X40926723Y18139505D01*
X40928073Y18142484D01*
X40937333Y18164839D01*
X40938485Y18167901D01*
X40971070Y18263893D01*
X40972020Y18267023D01*
X40978282Y18290395D01*
X40979025Y18293581D01*
X40998802Y18393005D01*
X40999334Y18396232D01*
X41002493Y18420222D01*
X41002813Y18423477D01*
X41009443Y18524632D01*
X41009550Y18527902D01*
X41009550Y18552098D01*
X41009443Y18555368D01*
X41002813Y18656523D01*
X41002493Y18659778D01*
X40999334Y18683768D01*
X40998802Y18686995D01*
X40979025Y18786419D01*
X40978282Y18789605D01*
X40972020Y18812977D01*
X40971070Y18816107D01*
X40938485Y18912099D01*
X40937333Y18915161D01*
X40928073Y18937516D01*
X40926723Y18940495D01*
X40881887Y19031413D01*
X40880345Y19034298D01*
X40868247Y19055253D01*
X40866520Y19058030D01*
X40810200Y19142318D01*
X40808295Y19144977D01*
X40793565Y19164174D01*
X40791490Y19166702D01*
X40724651Y19242918D01*
X40722415Y19245305D01*
X40705305Y19262415D01*
X40702918Y19264651D01*
X40626702Y19331490D01*
X40624174Y19333565D01*
X40604977Y19348295D01*
X40602318Y19350200D01*
X40518030Y19406520D01*
X40515253Y19408247D01*
X40494298Y19420345D01*
X40491413Y19421887D01*
X40400495Y19466723D01*
X40397516Y19468073D01*
X40375161Y19477333D01*
X40372099Y19478485D01*
X40276107Y19511070D01*
X40272977Y19512020D01*
X40249605Y19518282D01*
X40246419Y19519025D01*
X40146995Y19538802D01*
X40143768Y19539334D01*
X40119778Y19542493D01*
X40116523Y19542813D01*
X40015368Y19549443D01*
X40012098Y19549550D01*
X39987902Y19549550D01*
X39984632Y19549443D01*
X39883477Y19542813D01*
X39880222Y19542493D01*
X39856232Y19539334D01*
X39853005Y19538802D01*
X39753581Y19519025D01*
X39750395Y19518282D01*
X39727023Y19512020D01*
X39723893Y19511070D01*
X39627901Y19478485D01*
X39624839Y19477333D01*
X39602484Y19468073D01*
X39599505Y19466723D01*
X39508587Y19421887D01*
X39505702Y19420345D01*
X39484747Y19408247D01*
X39481970Y19406520D01*
X39397682Y19350200D01*
X39395023Y19348295D01*
X39375826Y19333565D01*
X39373298Y19331490D01*
X39297082Y19264651D01*
X39294695Y19262415D01*
X39277585Y19245305D01*
X39275349Y19242918D01*
X39208510Y19166702D01*
X39206435Y19164174D01*
X39191705Y19144977D01*
X39189800Y19142318D01*
X39133480Y19058030D01*
X39131753Y19055253D01*
X39119655Y19034298D01*
X39118113Y19031413D01*
X39073277Y18940495D01*
X39071927Y18937516D01*
X39062667Y18915161D01*
X39061515Y18912099D01*
X39028930Y18816107D01*
X39027980Y18812977D01*
X39021718Y18789605D01*
X39020975Y18786419D01*
X39001198Y18686995D01*
X39000666Y18683768D01*
X38997507Y18659778D01*
X38997187Y18656523D01*
X38990557Y18555368D01*
X38990450Y18552098D01*
X38990450Y18527902D01*
X38990557Y18524632D01*
X38997187Y18423477D01*
X38997507Y18420222D01*
X39000666Y18396232D01*
X39001198Y18393005D01*
X39020975Y18293581D01*
X39021718Y18290395D01*
X39027980Y18267023D01*
X39028930Y18263893D01*
X39061515Y18167901D01*
X39062667Y18164839D01*
X39071927Y18142484D01*
X39073277Y18139505D01*
X39118113Y18048587D01*
X39119655Y18045702D01*
X39131753Y18024747D01*
X39133480Y18021970D01*
X39189800Y17937682D01*
X39191705Y17935023D01*
X39206435Y17915826D01*
X39208510Y17913298D01*
X39275349Y17837082D01*
X39277585Y17834695D01*
X39294695Y17817585D01*
X39297082Y17815349D01*
X39373298Y17748510D01*
X39375826Y17746435D01*
X39395023Y17731705D01*
X39397682Y17729800D01*
X39481970Y17673480D01*
X39484747Y17671753D01*
X39505702Y17659655D01*
X39508587Y17658113D01*
X39599505Y17613277D01*
X39602484Y17611927D01*
X39603268Y17611602D01*
X39612140Y17607406D01*
X39620557Y17602361D01*
X39628439Y17596515D01*
X39635711Y17589925D01*
X39642301Y17582654D01*
X39648147Y17574771D01*
X39653192Y17566354D01*
X39657388Y17557483D01*
X39660694Y17548243D01*
X39663079Y17538723D01*
X39664518Y17529016D01*
X39665000Y17519214D01*
X39665000Y16251227D01*
G37*
%LPD*%
%LPC*%
G36*
X49091158Y50142860D02*
X49093233Y50145388D01*
X49107963Y50164585D01*
X49109868Y50167244D01*
X49169821Y50256970D01*
X49171548Y50259747D01*
X49183647Y50280702D01*
X49185189Y50283587D01*
X49232917Y50380371D01*
X49234267Y50383350D01*
X49243527Y50405705D01*
X49244679Y50408766D01*
X49279366Y50510952D01*
X49280316Y50514082D01*
X49286578Y50537454D01*
X49287321Y50540640D01*
X49308374Y50646479D01*
X49308907Y50649706D01*
X49312065Y50673696D01*
X49312386Y50676951D01*
X49319443Y50784632D01*
X49319550Y50787902D01*
X49319550Y50812098D01*
X49319443Y50815368D01*
X49312386Y50923049D01*
X49312065Y50926304D01*
X49308907Y50950294D01*
X49308374Y50953521D01*
X49287321Y51059360D01*
X49286578Y51062546D01*
X49280316Y51085918D01*
X49279366Y51089048D01*
X49244679Y51191234D01*
X49243527Y51194295D01*
X49234267Y51216650D01*
X49232917Y51219629D01*
X49185189Y51316413D01*
X49183647Y51319298D01*
X49171548Y51340253D01*
X49169821Y51343030D01*
X49109868Y51432756D01*
X49107963Y51435415D01*
X49093233Y51454612D01*
X49091158Y51457140D01*
X49020006Y51538273D01*
X49017770Y51540660D01*
X49000660Y51557770D01*
X48998273Y51560006D01*
X48917140Y51631158D01*
X48914612Y51633233D01*
X48895415Y51647963D01*
X48892756Y51649868D01*
X48803030Y51709821D01*
X48800253Y51711548D01*
X48779298Y51723647D01*
X48776413Y51725189D01*
X48679629Y51772917D01*
X48676650Y51774267D01*
X48654295Y51783527D01*
X48651234Y51784679D01*
X48549048Y51819366D01*
X48545918Y51820316D01*
X48522546Y51826578D01*
X48519360Y51827321D01*
X48413521Y51848374D01*
X48410294Y51848907D01*
X48386304Y51852065D01*
X48383049Y51852386D01*
X48275368Y51859443D01*
X48272098Y51859550D01*
X48247902Y51859550D01*
X48244632Y51859443D01*
X48136951Y51852386D01*
X48133696Y51852065D01*
X48109706Y51848907D01*
X48106479Y51848374D01*
X48000640Y51827321D01*
X47997454Y51826578D01*
X47974082Y51820316D01*
X47970952Y51819366D01*
X47868766Y51784679D01*
X47865705Y51783527D01*
X47843350Y51774267D01*
X47840371Y51772917D01*
X47743587Y51725189D01*
X47740702Y51723647D01*
X47719747Y51711548D01*
X47716970Y51709821D01*
X47627244Y51649868D01*
X47624585Y51647963D01*
X47605388Y51633233D01*
X47602860Y51631158D01*
X47521727Y51560006D01*
X47519340Y51557770D01*
X47502230Y51540660D01*
X47499994Y51538273D01*
X47428842Y51457140D01*
X47426767Y51454612D01*
X47412037Y51435415D01*
X47410132Y51432756D01*
X47350179Y51343030D01*
X47348452Y51340253D01*
X47336353Y51319298D01*
X47334811Y51316413D01*
X47287083Y51219629D01*
X47285733Y51216650D01*
X47276473Y51194295D01*
X47275321Y51191234D01*
X47240634Y51089048D01*
X47239684Y51085918D01*
X47233422Y51062546D01*
X47232679Y51059360D01*
X47211626Y50953521D01*
X47211093Y50950294D01*
X47207935Y50926304D01*
X47207614Y50923049D01*
X47200557Y50815368D01*
X47200450Y50812098D01*
X47200450Y50787902D01*
X47200557Y50784632D01*
X47207614Y50676951D01*
X47207935Y50673696D01*
X47211093Y50649706D01*
X47211626Y50646479D01*
X47232679Y50540640D01*
X47233422Y50537454D01*
X47239684Y50514082D01*
X47240634Y50510952D01*
X47275321Y50408766D01*
X47276473Y50405705D01*
X47285733Y50383350D01*
X47287083Y50380371D01*
X47334811Y50283587D01*
X47336353Y50280702D01*
X47348452Y50259747D01*
X47350179Y50256970D01*
X47410132Y50167244D01*
X47412037Y50164585D01*
X47426767Y50145388D01*
X47428842Y50142860D01*
X47499994Y50061727D01*
X47502230Y50059340D01*
X47519340Y50042230D01*
X47521727Y50039994D01*
X47602860Y49968842D01*
X47605388Y49966767D01*
X47624585Y49952037D01*
X47627244Y49950132D01*
X47716970Y49890179D01*
X47719747Y49888452D01*
X47740702Y49876353D01*
X47743587Y49874811D01*
X47840371Y49827083D01*
X47843350Y49825733D01*
X47865705Y49816473D01*
X47868766Y49815321D01*
X47970952Y49780634D01*
X47974082Y49779684D01*
X47997454Y49773422D01*
X48000640Y49772679D01*
X48106479Y49751626D01*
X48109706Y49751093D01*
X48133696Y49747935D01*
X48136951Y49747614D01*
X48244632Y49740557D01*
X48247902Y49740450D01*
X48272098Y49740450D01*
X48275368Y49740557D01*
X48383049Y49747614D01*
X48386304Y49747935D01*
X48410294Y49751093D01*
X48413521Y49751626D01*
X48519360Y49772679D01*
X48522546Y49773422D01*
X48545918Y49779684D01*
X48549048Y49780634D01*
X48651234Y49815321D01*
X48654295Y49816473D01*
X48676650Y49825733D01*
X48679629Y49827083D01*
X48776413Y49874811D01*
X48779298Y49876353D01*
X48800253Y49888452D01*
X48803030Y49890179D01*
X48892756Y49950132D01*
X48895415Y49952037D01*
X48914612Y49966767D01*
X48917140Y49968842D01*
X48998273Y50039994D01*
X49000660Y50042230D01*
X49017770Y50059340D01*
X49020006Y50061727D01*
X49091158Y50142860D01*
G37*
%LPD*%
%LPC*%
G36*
X44871227Y51860000D02*
X44868774Y51859940D01*
X44851868Y51859109D01*
X44846988Y51858629D01*
X44831459Y51856325D01*
X44826650Y51855368D01*
X44811422Y51851554D01*
X44806729Y51850130D01*
X44791948Y51844842D01*
X44787417Y51842965D01*
X44773226Y51836253D01*
X44768901Y51833941D01*
X44755436Y51825871D01*
X44751358Y51823146D01*
X44738749Y51813795D01*
X44734958Y51810684D01*
X44723327Y51800141D01*
X44719859Y51796673D01*
X44709316Y51785042D01*
X44706205Y51781251D01*
X44696854Y51768642D01*
X44694129Y51764564D01*
X44686059Y51751099D01*
X44683747Y51746774D01*
X44677035Y51732583D01*
X44675158Y51728052D01*
X44669870Y51713271D01*
X44668446Y51708578D01*
X44664632Y51693350D01*
X44663675Y51688541D01*
X44661371Y51673012D01*
X44660891Y51668132D01*
X44660060Y51651226D01*
X44660000Y51648773D01*
X44660000Y49951227D01*
X44660060Y49948774D01*
X44660891Y49931868D01*
X44661371Y49926988D01*
X44663675Y49911459D01*
X44664632Y49906650D01*
X44668446Y49891422D01*
X44669870Y49886729D01*
X44675158Y49871948D01*
X44677035Y49867417D01*
X44683747Y49853226D01*
X44686059Y49848901D01*
X44694129Y49835436D01*
X44696854Y49831358D01*
X44706205Y49818749D01*
X44709316Y49814958D01*
X44719859Y49803327D01*
X44723327Y49799859D01*
X44734958Y49789316D01*
X44738749Y49786205D01*
X44751358Y49776854D01*
X44755436Y49774129D01*
X44768901Y49766059D01*
X44773226Y49763747D01*
X44787417Y49757035D01*
X44791948Y49755158D01*
X44806729Y49749870D01*
X44811422Y49748446D01*
X44826650Y49744632D01*
X44831459Y49743675D01*
X44846988Y49741371D01*
X44851868Y49740891D01*
X44868774Y49740060D01*
X44871227Y49740000D01*
X46568773Y49740000D01*
X46571226Y49740060D01*
X46588132Y49740891D01*
X46593012Y49741371D01*
X46608541Y49743675D01*
X46613350Y49744632D01*
X46628578Y49748446D01*
X46633271Y49749870D01*
X46648052Y49755158D01*
X46652583Y49757035D01*
X46666774Y49763747D01*
X46671099Y49766059D01*
X46684564Y49774129D01*
X46688642Y49776854D01*
X46701251Y49786205D01*
X46705042Y49789316D01*
X46716673Y49799859D01*
X46720141Y49803327D01*
X46730684Y49814958D01*
X46733795Y49818749D01*
X46743146Y49831358D01*
X46745871Y49835436D01*
X46753941Y49848901D01*
X46756253Y49853226D01*
X46762965Y49867417D01*
X46764842Y49871948D01*
X46770130Y49886729D01*
X46771554Y49891422D01*
X46775368Y49906650D01*
X46776325Y49911459D01*
X46778629Y49926988D01*
X46779109Y49931868D01*
X46779940Y49948774D01*
X46780000Y49951227D01*
X46780000Y51648773D01*
X46779940Y51651226D01*
X46779109Y51668132D01*
X46778629Y51673012D01*
X46776325Y51688541D01*
X46775368Y51693350D01*
X46771554Y51708578D01*
X46770130Y51713271D01*
X46764842Y51728052D01*
X46762965Y51732583D01*
X46756253Y51746774D01*
X46753941Y51751099D01*
X46745871Y51764564D01*
X46743146Y51768642D01*
X46733795Y51781251D01*
X46730684Y51785042D01*
X46720141Y51796673D01*
X46716673Y51800141D01*
X46705042Y51810684D01*
X46701251Y51813795D01*
X46688642Y51823146D01*
X46684564Y51825871D01*
X46671099Y51833941D01*
X46666774Y51836253D01*
X46652583Y51842965D01*
X46648052Y51844842D01*
X46633271Y51850130D01*
X46628578Y51851554D01*
X46613350Y51855368D01*
X46608541Y51856325D01*
X46593012Y51858629D01*
X46588132Y51859109D01*
X46571226Y51859940D01*
X46568773Y51860000D01*
X44871227Y51860000D01*
G37*
%LPD*%
%LPC*%
G36*
X46458273Y1779994D02*
X46460660Y1782230D01*
X46477770Y1799340D01*
X46480006Y1801727D01*
X46551158Y1882860D01*
X46553233Y1885388D01*
X46567963Y1904585D01*
X46569868Y1907244D01*
X46629821Y1996970D01*
X46631548Y1999747D01*
X46643647Y2020702D01*
X46645189Y2023587D01*
X46692917Y2120371D01*
X46694267Y2123350D01*
X46703527Y2145705D01*
X46704679Y2148766D01*
X46739366Y2250952D01*
X46740316Y2254082D01*
X46746578Y2277454D01*
X46747321Y2280640D01*
X46768374Y2386479D01*
X46768907Y2389706D01*
X46772065Y2413696D01*
X46772386Y2416951D01*
X46779443Y2524632D01*
X46779550Y2527902D01*
X46779550Y2552098D01*
X46779443Y2555368D01*
X46772386Y2663049D01*
X46772065Y2666304D01*
X46768907Y2690294D01*
X46768374Y2693521D01*
X46747321Y2799360D01*
X46746578Y2802546D01*
X46740316Y2825918D01*
X46739366Y2829048D01*
X46704679Y2931234D01*
X46703527Y2934295D01*
X46694267Y2956650D01*
X46692917Y2959629D01*
X46645189Y3056413D01*
X46643647Y3059298D01*
X46631548Y3080253D01*
X46629821Y3083030D01*
X46569868Y3172756D01*
X46567963Y3175415D01*
X46553233Y3194612D01*
X46551158Y3197140D01*
X46480006Y3278273D01*
X46477770Y3280660D01*
X46460660Y3297770D01*
X46458273Y3300006D01*
X46377140Y3371158D01*
X46374612Y3373233D01*
X46355415Y3387963D01*
X46352756Y3389868D01*
X46263030Y3449821D01*
X46260253Y3451548D01*
X46239298Y3463647D01*
X46236413Y3465189D01*
X46139629Y3512917D01*
X46136650Y3514267D01*
X46114295Y3523527D01*
X46111234Y3524679D01*
X46009048Y3559366D01*
X46005918Y3560316D01*
X45982546Y3566578D01*
X45979360Y3567321D01*
X45873521Y3588374D01*
X45870294Y3588907D01*
X45846304Y3592065D01*
X45843049Y3592386D01*
X45735368Y3599443D01*
X45732098Y3599550D01*
X45707902Y3599550D01*
X45704632Y3599443D01*
X45596951Y3592386D01*
X45593696Y3592065D01*
X45569706Y3588907D01*
X45566479Y3588374D01*
X45460640Y3567321D01*
X45457454Y3566578D01*
X45434082Y3560316D01*
X45430952Y3559366D01*
X45328766Y3524679D01*
X45325705Y3523527D01*
X45303350Y3514267D01*
X45300371Y3512917D01*
X45203587Y3465189D01*
X45200702Y3463647D01*
X45179747Y3451548D01*
X45176970Y3449821D01*
X45087244Y3389868D01*
X45084585Y3387963D01*
X45065388Y3373233D01*
X45062860Y3371158D01*
X44981727Y3300006D01*
X44979340Y3297770D01*
X44962230Y3280660D01*
X44959994Y3278273D01*
X44888842Y3197140D01*
X44886767Y3194612D01*
X44872037Y3175415D01*
X44870132Y3172756D01*
X44810179Y3083030D01*
X44808452Y3080253D01*
X44796353Y3059298D01*
X44794811Y3056413D01*
X44747083Y2959629D01*
X44745733Y2956650D01*
X44736473Y2934295D01*
X44735321Y2931234D01*
X44700634Y2829048D01*
X44699684Y2825918D01*
X44693422Y2802546D01*
X44692679Y2799360D01*
X44671626Y2693521D01*
X44671093Y2690294D01*
X44667935Y2666304D01*
X44667614Y2663049D01*
X44660557Y2555368D01*
X44660450Y2552098D01*
X44660450Y2527902D01*
X44660557Y2524632D01*
X44667614Y2416951D01*
X44667935Y2413696D01*
X44671093Y2389706D01*
X44671626Y2386479D01*
X44692679Y2280640D01*
X44693422Y2277454D01*
X44699684Y2254082D01*
X44700634Y2250952D01*
X44735321Y2148766D01*
X44736473Y2145705D01*
X44745733Y2123350D01*
X44747083Y2120371D01*
X44794811Y2023587D01*
X44796353Y2020702D01*
X44808452Y1999747D01*
X44810179Y1996970D01*
X44870132Y1907244D01*
X44872037Y1904585D01*
X44886767Y1885388D01*
X44888842Y1882860D01*
X44959994Y1801727D01*
X44962230Y1799340D01*
X44979340Y1782230D01*
X44981727Y1779994D01*
X45062860Y1708842D01*
X45065388Y1706767D01*
X45084585Y1692037D01*
X45087244Y1690132D01*
X45176970Y1630179D01*
X45179747Y1628452D01*
X45200702Y1616353D01*
X45203587Y1614811D01*
X45300371Y1567083D01*
X45303350Y1565733D01*
X45325705Y1556473D01*
X45328766Y1555321D01*
X45430952Y1520634D01*
X45434082Y1519684D01*
X45457454Y1513422D01*
X45460640Y1512679D01*
X45566479Y1491626D01*
X45569706Y1491093D01*
X45593696Y1487935D01*
X45596951Y1487614D01*
X45704632Y1480557D01*
X45707902Y1480450D01*
X45732098Y1480450D01*
X45735368Y1480557D01*
X45843049Y1487614D01*
X45846304Y1487935D01*
X45870294Y1491093D01*
X45873521Y1491626D01*
X45979360Y1512679D01*
X45982546Y1513422D01*
X46005918Y1519684D01*
X46009048Y1520634D01*
X46111234Y1555321D01*
X46114295Y1556473D01*
X46136650Y1565733D01*
X46139629Y1567083D01*
X46236413Y1614811D01*
X46239298Y1616353D01*
X46260253Y1628452D01*
X46263030Y1630179D01*
X46352756Y1690132D01*
X46355415Y1692037D01*
X46374612Y1706767D01*
X46377140Y1708842D01*
X46458273Y1779994D01*
G37*
%LPD*%
%LPC*%
G36*
X42398273Y50039994D02*
X42400660Y50042230D01*
X42417770Y50059340D01*
X42420006Y50061727D01*
X42491158Y50142860D01*
X42493233Y50145388D01*
X42507963Y50164585D01*
X42509868Y50167244D01*
X42569821Y50256970D01*
X42571548Y50259747D01*
X42583647Y50280702D01*
X42585189Y50283587D01*
X42632917Y50380371D01*
X42634267Y50383350D01*
X42643527Y50405705D01*
X42644679Y50408766D01*
X42679366Y50510952D01*
X42680316Y50514082D01*
X42686578Y50537454D01*
X42687321Y50540640D01*
X42708374Y50646479D01*
X42708907Y50649706D01*
X42712065Y50673696D01*
X42712386Y50676951D01*
X42719443Y50784632D01*
X42719550Y50787902D01*
X42719550Y50812098D01*
X42719443Y50815368D01*
X42712386Y50923049D01*
X42712065Y50926304D01*
X42708907Y50950294D01*
X42708374Y50953521D01*
X42687321Y51059360D01*
X42686578Y51062546D01*
X42680316Y51085918D01*
X42679366Y51089048D01*
X42644679Y51191234D01*
X42643527Y51194295D01*
X42634267Y51216650D01*
X42632917Y51219629D01*
X42585189Y51316413D01*
X42583647Y51319298D01*
X42571548Y51340253D01*
X42569821Y51343030D01*
X42509868Y51432756D01*
X42507963Y51435415D01*
X42493233Y51454612D01*
X42491158Y51457140D01*
X42420006Y51538273D01*
X42417770Y51540660D01*
X42400660Y51557770D01*
X42398273Y51560006D01*
X42317140Y51631158D01*
X42314612Y51633233D01*
X42295415Y51647963D01*
X42292756Y51649868D01*
X42203030Y51709821D01*
X42200253Y51711548D01*
X42179298Y51723647D01*
X42176413Y51725189D01*
X42079629Y51772917D01*
X42076650Y51774267D01*
X42054295Y51783527D01*
X42051234Y51784679D01*
X41949048Y51819366D01*
X41945918Y51820316D01*
X41922546Y51826578D01*
X41919360Y51827321D01*
X41813521Y51848374D01*
X41810294Y51848907D01*
X41786304Y51852065D01*
X41783049Y51852386D01*
X41675368Y51859443D01*
X41672098Y51859550D01*
X41647902Y51859550D01*
X41644632Y51859443D01*
X41536951Y51852386D01*
X41533696Y51852065D01*
X41509706Y51848907D01*
X41506479Y51848374D01*
X41400640Y51827321D01*
X41397454Y51826578D01*
X41374082Y51820316D01*
X41370952Y51819366D01*
X41268766Y51784679D01*
X41265705Y51783527D01*
X41243350Y51774267D01*
X41240371Y51772917D01*
X41143587Y51725189D01*
X41140702Y51723647D01*
X41119747Y51711548D01*
X41116970Y51709821D01*
X41027244Y51649868D01*
X41024585Y51647963D01*
X41005388Y51633233D01*
X41002860Y51631158D01*
X40921727Y51560006D01*
X40919340Y51557770D01*
X40902230Y51540660D01*
X40899994Y51538273D01*
X40828842Y51457140D01*
X40826767Y51454612D01*
X40812037Y51435415D01*
X40810132Y51432756D01*
X40750179Y51343030D01*
X40748452Y51340253D01*
X40736353Y51319298D01*
X40734811Y51316413D01*
X40687083Y51219629D01*
X40685733Y51216650D01*
X40676473Y51194295D01*
X40675321Y51191234D01*
X40640634Y51089048D01*
X40639684Y51085918D01*
X40633422Y51062546D01*
X40632679Y51059360D01*
X40611626Y50953521D01*
X40611093Y50950294D01*
X40607935Y50926304D01*
X40607614Y50923049D01*
X40600557Y50815368D01*
X40600450Y50812098D01*
X40600450Y50787902D01*
X40600557Y50784632D01*
X40607614Y50676951D01*
X40607935Y50673696D01*
X40611093Y50649706D01*
X40611626Y50646479D01*
X40632679Y50540640D01*
X40633422Y50537454D01*
X40639684Y50514082D01*
X40640634Y50510952D01*
X40675321Y50408766D01*
X40676473Y50405705D01*
X40685733Y50383350D01*
X40687083Y50380371D01*
X40734811Y50283587D01*
X40736353Y50280702D01*
X40748452Y50259747D01*
X40750179Y50256970D01*
X40810132Y50167244D01*
X40812037Y50164585D01*
X40826767Y50145388D01*
X40828842Y50142860D01*
X40899994Y50061727D01*
X40902230Y50059340D01*
X40919340Y50042230D01*
X40921727Y50039994D01*
X41002860Y49968842D01*
X41005388Y49966767D01*
X41024585Y49952037D01*
X41027244Y49950132D01*
X41116970Y49890179D01*
X41119747Y49888452D01*
X41140702Y49876353D01*
X41143587Y49874811D01*
X41240371Y49827083D01*
X41243350Y49825733D01*
X41265705Y49816473D01*
X41268766Y49815321D01*
X41370952Y49780634D01*
X41374082Y49779684D01*
X41397454Y49773422D01*
X41400640Y49772679D01*
X41506479Y49751626D01*
X41509706Y49751093D01*
X41533696Y49747935D01*
X41536951Y49747614D01*
X41644632Y49740557D01*
X41647902Y49740450D01*
X41672098Y49740450D01*
X41675368Y49740557D01*
X41783049Y49747614D01*
X41786304Y49747935D01*
X41810294Y49751093D01*
X41813521Y49751626D01*
X41919360Y49772679D01*
X41922546Y49773422D01*
X41945918Y49779684D01*
X41949048Y49780634D01*
X42051234Y49815321D01*
X42054295Y49816473D01*
X42076650Y49825733D01*
X42079629Y49827083D01*
X42176413Y49874811D01*
X42179298Y49876353D01*
X42200253Y49888452D01*
X42203030Y49890179D01*
X42292756Y49950132D01*
X42295415Y49952037D01*
X42314612Y49966767D01*
X42317140Y49968842D01*
X42398273Y50039994D01*
G37*
%LPD*%
%LPC*%
G36*
X39858273Y50039994D02*
X39860660Y50042230D01*
X39877770Y50059340D01*
X39880006Y50061727D01*
X39951158Y50142860D01*
X39953233Y50145388D01*
X39967963Y50164585D01*
X39969868Y50167244D01*
X40029821Y50256970D01*
X40031548Y50259747D01*
X40043647Y50280702D01*
X40045189Y50283587D01*
X40092917Y50380371D01*
X40094267Y50383350D01*
X40103527Y50405705D01*
X40104679Y50408766D01*
X40139366Y50510952D01*
X40140316Y50514082D01*
X40146578Y50537454D01*
X40147321Y50540640D01*
X40168374Y50646479D01*
X40168907Y50649706D01*
X40172065Y50673696D01*
X40172386Y50676951D01*
X40179443Y50784632D01*
X40179550Y50787902D01*
X40179550Y50812098D01*
X40179443Y50815368D01*
X40172386Y50923049D01*
X40172065Y50926304D01*
X40168907Y50950294D01*
X40168374Y50953521D01*
X40147321Y51059360D01*
X40146578Y51062546D01*
X40140316Y51085918D01*
X40139366Y51089048D01*
X40104679Y51191234D01*
X40103527Y51194295D01*
X40094267Y51216650D01*
X40092917Y51219629D01*
X40045189Y51316413D01*
X40043647Y51319298D01*
X40031548Y51340253D01*
X40029821Y51343030D01*
X39969868Y51432756D01*
X39967963Y51435415D01*
X39953233Y51454612D01*
X39951158Y51457140D01*
X39880006Y51538273D01*
X39877770Y51540660D01*
X39860660Y51557770D01*
X39858273Y51560006D01*
X39777140Y51631158D01*
X39774612Y51633233D01*
X39755415Y51647963D01*
X39752756Y51649868D01*
X39663030Y51709821D01*
X39660253Y51711548D01*
X39639298Y51723647D01*
X39636413Y51725189D01*
X39539629Y51772917D01*
X39536650Y51774267D01*
X39514295Y51783527D01*
X39511234Y51784679D01*
X39409048Y51819366D01*
X39405918Y51820316D01*
X39382546Y51826578D01*
X39379360Y51827321D01*
X39273521Y51848374D01*
X39270294Y51848907D01*
X39246304Y51852065D01*
X39243049Y51852386D01*
X39135368Y51859443D01*
X39132098Y51859550D01*
X39107902Y51859550D01*
X39104632Y51859443D01*
X38996951Y51852386D01*
X38993696Y51852065D01*
X38969706Y51848907D01*
X38966479Y51848374D01*
X38860640Y51827321D01*
X38857454Y51826578D01*
X38834082Y51820316D01*
X38830952Y51819366D01*
X38728766Y51784679D01*
X38725705Y51783527D01*
X38703350Y51774267D01*
X38700371Y51772917D01*
X38603587Y51725189D01*
X38600702Y51723647D01*
X38579747Y51711548D01*
X38576970Y51709821D01*
X38487244Y51649868D01*
X38484585Y51647963D01*
X38465388Y51633233D01*
X38462860Y51631158D01*
X38381727Y51560006D01*
X38379340Y51557770D01*
X38362230Y51540660D01*
X38359994Y51538273D01*
X38288842Y51457140D01*
X38286767Y51454612D01*
X38272037Y51435415D01*
X38270132Y51432756D01*
X38210179Y51343030D01*
X38208452Y51340253D01*
X38196353Y51319298D01*
X38194811Y51316413D01*
X38147083Y51219629D01*
X38145733Y51216650D01*
X38136473Y51194295D01*
X38135321Y51191234D01*
X38100634Y51089048D01*
X38099684Y51085918D01*
X38093422Y51062546D01*
X38092679Y51059360D01*
X38071626Y50953521D01*
X38071093Y50950294D01*
X38067935Y50926304D01*
X38067614Y50923049D01*
X38060557Y50815368D01*
X38060450Y50812098D01*
X38060450Y50787902D01*
X38060557Y50784632D01*
X38067614Y50676951D01*
X38067935Y50673696D01*
X38071093Y50649706D01*
X38071626Y50646479D01*
X38092679Y50540640D01*
X38093422Y50537454D01*
X38099684Y50514082D01*
X38100634Y50510952D01*
X38135321Y50408766D01*
X38136473Y50405705D01*
X38145733Y50383350D01*
X38147083Y50380371D01*
X38194811Y50283587D01*
X38196353Y50280702D01*
X38208452Y50259747D01*
X38210179Y50256970D01*
X38270132Y50167244D01*
X38272037Y50164585D01*
X38286767Y50145388D01*
X38288842Y50142860D01*
X38359994Y50061727D01*
X38362230Y50059340D01*
X38379340Y50042230D01*
X38381727Y50039994D01*
X38462860Y49968842D01*
X38465388Y49966767D01*
X38484585Y49952037D01*
X38487244Y49950132D01*
X38576970Y49890179D01*
X38579747Y49888452D01*
X38600702Y49876353D01*
X38603587Y49874811D01*
X38700371Y49827083D01*
X38703350Y49825733D01*
X38725705Y49816473D01*
X38728766Y49815321D01*
X38830952Y49780634D01*
X38834082Y49779684D01*
X38857454Y49773422D01*
X38860640Y49772679D01*
X38966479Y49751626D01*
X38969706Y49751093D01*
X38993696Y49747935D01*
X38996951Y49747614D01*
X39104632Y49740557D01*
X39107902Y49740450D01*
X39132098Y49740450D01*
X39135368Y49740557D01*
X39243049Y49747614D01*
X39246304Y49747935D01*
X39270294Y49751093D01*
X39273521Y49751626D01*
X39379360Y49772679D01*
X39382546Y49773422D01*
X39405918Y49779684D01*
X39409048Y49780634D01*
X39511234Y49815321D01*
X39514295Y49816473D01*
X39536650Y49825733D01*
X39539629Y49827083D01*
X39636413Y49874811D01*
X39639298Y49876353D01*
X39660253Y49888452D01*
X39663030Y49890179D01*
X39752756Y49950132D01*
X39755415Y49952037D01*
X39774612Y49966767D01*
X39777140Y49968842D01*
X39858273Y50039994D01*
G37*
%LPD*%
%LPC*%
G36*
X19434069Y15209998D02*
X19441933Y15216225D01*
X19450382Y15221634D01*
X19459330Y15226168D01*
X19468687Y15229784D01*
X19478359Y15232443D01*
X19488250Y15234121D01*
X19498258Y15234798D01*
X19508284Y15234470D01*
X19518227Y15233139D01*
X19527986Y15230819D01*
X19537464Y15227532D01*
X19546565Y15223312D01*
X19555197Y15218202D01*
X19563274Y15212253D01*
X19570714Y15205524D01*
X20262251Y14513987D01*
X20264029Y14512295D01*
X20277480Y14500104D01*
X20279338Y14498501D01*
X20296382Y14484513D01*
X20298317Y14483003D01*
X20311912Y14472920D01*
X20315990Y14470196D01*
X20330508Y14461494D01*
X20332643Y14460284D01*
X20352089Y14449890D01*
X20354281Y14448787D01*
X20369582Y14441550D01*
X20374112Y14439673D01*
X20390049Y14433971D01*
X20392379Y14433201D01*
X20413480Y14426801D01*
X20415844Y14426146D01*
X20432263Y14422033D01*
X20437073Y14421077D01*
X20453816Y14418593D01*
X20456251Y14418293D01*
X20478195Y14416131D01*
X20480642Y14415951D01*
X20498774Y14415060D01*
X20501227Y14415000D01*
X26998773Y14415000D01*
X27001226Y14415060D01*
X27019358Y14415951D01*
X27021805Y14416131D01*
X27043749Y14418293D01*
X27046184Y14418593D01*
X27062927Y14421077D01*
X27067737Y14422033D01*
X27084156Y14426146D01*
X27086520Y14426801D01*
X27107621Y14433201D01*
X27109951Y14433971D01*
X27125888Y14439673D01*
X27130418Y14441550D01*
X27145719Y14448787D01*
X27147911Y14449890D01*
X27167357Y14460284D01*
X27169492Y14461494D01*
X27184010Y14470196D01*
X27188088Y14472920D01*
X27201683Y14483003D01*
X27203618Y14484513D01*
X27220662Y14498501D01*
X27222520Y14500104D01*
X27235971Y14512295D01*
X27237749Y14513987D01*
X27359472Y14635711D01*
X27366744Y14642301D01*
X27374626Y14648147D01*
X27383043Y14653192D01*
X27391915Y14657388D01*
X27401154Y14660694D01*
X27410674Y14663079D01*
X27420381Y14664518D01*
X27430183Y14665000D01*
X36498773Y14665000D01*
X36501226Y14665060D01*
X36519358Y14665951D01*
X36521805Y14666131D01*
X36543749Y14668293D01*
X36546184Y14668593D01*
X36562927Y14671077D01*
X36567737Y14672033D01*
X36584156Y14676146D01*
X36586520Y14676801D01*
X36607621Y14683201D01*
X36609951Y14683971D01*
X36625888Y14689673D01*
X36630418Y14691550D01*
X36645719Y14698787D01*
X36647911Y14699890D01*
X36667357Y14710284D01*
X36669492Y14711494D01*
X36684010Y14720196D01*
X36688088Y14722920D01*
X36701683Y14733003D01*
X36703618Y14734513D01*
X36720662Y14748501D01*
X36722520Y14750104D01*
X36735971Y14762295D01*
X36737749Y14763987D01*
X36934472Y14960711D01*
X36941744Y14967301D01*
X36949626Y14973147D01*
X36958043Y14978192D01*
X36966915Y14982388D01*
X36976154Y14985694D01*
X36985674Y14988079D01*
X36995381Y14989518D01*
X37005183Y14990000D01*
X37315000Y14990000D01*
X37324802Y14989518D01*
X37334509Y14988079D01*
X37344028Y14985694D01*
X37353268Y14982388D01*
X37362140Y14978192D01*
X37370557Y14973147D01*
X37378439Y14967301D01*
X37385711Y14960711D01*
X37392301Y14953439D01*
X37398147Y14945557D01*
X37403192Y14937140D01*
X37407388Y14928268D01*
X37410694Y14919028D01*
X37413079Y14909509D01*
X37414518Y14899802D01*
X37415000Y14890000D01*
X37415000Y3392035D01*
X37414553Y3382595D01*
X37413218Y3373239D01*
X37411005Y3364052D01*
X37407935Y3355114D01*
X37404035Y3346506D01*
X37399339Y3338305D01*
X37393891Y3330583D01*
X37387737Y3323411D01*
X37380935Y3316851D01*
X37361727Y3300006D01*
X37359340Y3297770D01*
X37342230Y3280660D01*
X37339994Y3278273D01*
X37268842Y3197140D01*
X37266767Y3194612D01*
X37252037Y3175415D01*
X37250132Y3172756D01*
X37190179Y3083030D01*
X37188452Y3080253D01*
X37176353Y3059298D01*
X37174811Y3056413D01*
X37127083Y2959629D01*
X37125733Y2956650D01*
X37116473Y2934295D01*
X37115321Y2931234D01*
X37080634Y2829048D01*
X37079684Y2825918D01*
X37073422Y2802546D01*
X37072679Y2799360D01*
X37051626Y2693521D01*
X37051093Y2690294D01*
X37047935Y2666304D01*
X37047614Y2663049D01*
X37040557Y2555368D01*
X37040450Y2552098D01*
X37040450Y2527902D01*
X37040557Y2524632D01*
X37047614Y2416951D01*
X37047935Y2413696D01*
X37051093Y2389706D01*
X37051626Y2386479D01*
X37072679Y2280640D01*
X37073422Y2277454D01*
X37079684Y2254082D01*
X37080634Y2250952D01*
X37115321Y2148766D01*
X37116473Y2145705D01*
X37125733Y2123350D01*
X37127083Y2120371D01*
X37174811Y2023587D01*
X37176353Y2020702D01*
X37188452Y1999747D01*
X37190179Y1996970D01*
X37250132Y1907244D01*
X37252037Y1904585D01*
X37266767Y1885388D01*
X37268842Y1882860D01*
X37339994Y1801727D01*
X37342230Y1799340D01*
X37359340Y1782230D01*
X37361727Y1779994D01*
X37442860Y1708842D01*
X37445388Y1706767D01*
X37464585Y1692037D01*
X37467244Y1690132D01*
X37556970Y1630179D01*
X37559747Y1628452D01*
X37580702Y1616353D01*
X37583587Y1614811D01*
X37680371Y1567083D01*
X37683350Y1565733D01*
X37705705Y1556473D01*
X37708766Y1555321D01*
X37810952Y1520634D01*
X37814082Y1519684D01*
X37837454Y1513422D01*
X37840640Y1512679D01*
X37946479Y1491626D01*
X37949706Y1491093D01*
X37973696Y1487935D01*
X37976951Y1487614D01*
X38084632Y1480557D01*
X38087902Y1480450D01*
X38112098Y1480450D01*
X38115368Y1480557D01*
X38223049Y1487614D01*
X38226304Y1487935D01*
X38250294Y1491093D01*
X38253521Y1491626D01*
X38359360Y1512679D01*
X38362546Y1513422D01*
X38385918Y1519684D01*
X38389048Y1520634D01*
X38491234Y1555321D01*
X38494295Y1556473D01*
X38516650Y1565733D01*
X38519629Y1567083D01*
X38616413Y1614811D01*
X38619298Y1616353D01*
X38640253Y1628452D01*
X38643030Y1630179D01*
X38732756Y1690132D01*
X38735415Y1692037D01*
X38754612Y1706767D01*
X38757140Y1708842D01*
X38838273Y1779994D01*
X38840660Y1782230D01*
X38857770Y1799340D01*
X38860006Y1801727D01*
X38931158Y1882860D01*
X38933233Y1885388D01*
X38947963Y1904585D01*
X38949868Y1907244D01*
X39009821Y1996970D01*
X39011548Y1999747D01*
X39023647Y2020702D01*
X39025189Y2023587D01*
X39072917Y2120371D01*
X39074267Y2123350D01*
X39083527Y2145705D01*
X39084679Y2148766D01*
X39119366Y2250952D01*
X39120316Y2254082D01*
X39126578Y2277454D01*
X39127321Y2280640D01*
X39148374Y2386479D01*
X39148907Y2389706D01*
X39152065Y2413696D01*
X39152386Y2416951D01*
X39159443Y2524632D01*
X39159550Y2527902D01*
X39159550Y2552098D01*
X39159443Y2555368D01*
X39152386Y2663049D01*
X39152065Y2666304D01*
X39148907Y2690294D01*
X39148374Y2693521D01*
X39127321Y2799360D01*
X39126578Y2802546D01*
X39120316Y2825918D01*
X39119366Y2829048D01*
X39084679Y2931234D01*
X39083527Y2934295D01*
X39074267Y2956650D01*
X39072917Y2959629D01*
X39025189Y3056413D01*
X39023647Y3059298D01*
X39011548Y3080253D01*
X39009821Y3083030D01*
X38949868Y3172756D01*
X38947963Y3175415D01*
X38933233Y3194612D01*
X38931158Y3197140D01*
X38860006Y3278273D01*
X38857770Y3280660D01*
X38840660Y3297770D01*
X38838273Y3300006D01*
X38757140Y3371158D01*
X38754612Y3373233D01*
X38735415Y3387963D01*
X38732756Y3389868D01*
X38643030Y3449821D01*
X38640253Y3451548D01*
X38619298Y3463647D01*
X38616413Y3465189D01*
X38519629Y3512917D01*
X38516650Y3514267D01*
X38494295Y3523527D01*
X38491234Y3524679D01*
X38389048Y3559366D01*
X38385918Y3560316D01*
X38362546Y3566578D01*
X38359360Y3567321D01*
X38253521Y3588374D01*
X38250294Y3588907D01*
X38226304Y3592065D01*
X38223049Y3592386D01*
X38178460Y3595308D01*
X38168495Y3596465D01*
X38158697Y3598615D01*
X38149163Y3601736D01*
X38139990Y3605796D01*
X38131270Y3610755D01*
X38123091Y3616562D01*
X38115534Y3623160D01*
X38108677Y3630482D01*
X38102587Y3638453D01*
X38097327Y3646995D01*
X38092950Y3656021D01*
X38089498Y3665440D01*
X38087008Y3675157D01*
X38085503Y3685075D01*
X38085000Y3695094D01*
X38085000Y14890000D01*
X38085482Y14899802D01*
X38086921Y14909509D01*
X38089306Y14919028D01*
X38092612Y14928268D01*
X38096808Y14937140D01*
X38101853Y14945557D01*
X38107699Y14953439D01*
X38114289Y14960711D01*
X38121561Y14967301D01*
X38129443Y14973147D01*
X38137860Y14978192D01*
X38146732Y14982388D01*
X38155972Y14985694D01*
X38165491Y14988079D01*
X38175198Y14989518D01*
X38185000Y14990000D01*
X38258773Y14990000D01*
X38261226Y14990060D01*
X38278132Y14990891D01*
X38283012Y14991371D01*
X38298541Y14993675D01*
X38303350Y14994632D01*
X38318578Y14998446D01*
X38323271Y14999870D01*
X38338052Y15005158D01*
X38342583Y15007035D01*
X38356774Y15013747D01*
X38361099Y15016059D01*
X38374564Y15024129D01*
X38378642Y15026854D01*
X38391251Y15036205D01*
X38395042Y15039316D01*
X38406673Y15049859D01*
X38410141Y15053327D01*
X38420684Y15064958D01*
X38423795Y15068749D01*
X38433146Y15081358D01*
X38435871Y15085436D01*
X38443941Y15098901D01*
X38446253Y15103226D01*
X38452965Y15117417D01*
X38454842Y15121948D01*
X38460130Y15136729D01*
X38461554Y15141422D01*
X38465368Y15156650D01*
X38466325Y15161459D01*
X38468629Y15176988D01*
X38469109Y15181868D01*
X38469940Y15198774D01*
X38470000Y15201227D01*
X38470000Y16798773D01*
X38469940Y16801226D01*
X38469109Y16818132D01*
X38468629Y16823012D01*
X38466325Y16838541D01*
X38465368Y16843350D01*
X38461554Y16858578D01*
X38460130Y16863271D01*
X38454842Y16878052D01*
X38452965Y16882583D01*
X38446253Y16896774D01*
X38443941Y16901099D01*
X38435871Y16914564D01*
X38433146Y16918642D01*
X38423795Y16931251D01*
X38420684Y16935042D01*
X38410141Y16946673D01*
X38406673Y16950141D01*
X38395042Y16960684D01*
X38391251Y16963795D01*
X38378642Y16973146D01*
X38374564Y16975871D01*
X38361099Y16983941D01*
X38356774Y16986253D01*
X38342583Y16992965D01*
X38338052Y16994842D01*
X38323271Y17000130D01*
X38318578Y17001554D01*
X38303350Y17005368D01*
X38298541Y17006325D01*
X38283012Y17008629D01*
X38278132Y17009109D01*
X38261226Y17009940D01*
X38258773Y17010000D01*
X36661227Y17010000D01*
X36658774Y17009940D01*
X36641868Y17009109D01*
X36636988Y17008629D01*
X36621459Y17006325D01*
X36616650Y17005368D01*
X36601422Y17001554D01*
X36596729Y17000130D01*
X36581948Y16994842D01*
X36577417Y16992965D01*
X36563226Y16986253D01*
X36558901Y16983941D01*
X36545436Y16975871D01*
X36541358Y16973146D01*
X36528749Y16963795D01*
X36524958Y16960684D01*
X36513327Y16950141D01*
X36509859Y16946673D01*
X36499316Y16935042D01*
X36496205Y16931251D01*
X36486854Y16918642D01*
X36484129Y16914564D01*
X36476059Y16901099D01*
X36473747Y16896774D01*
X36467035Y16882583D01*
X36465158Y16878052D01*
X36459870Y16863271D01*
X36458446Y16858578D01*
X36454632Y16843350D01*
X36453675Y16838541D01*
X36451371Y16823012D01*
X36450891Y16818132D01*
X36450060Y16801226D01*
X36450000Y16798773D01*
X36450000Y15465183D01*
X36449518Y15455381D01*
X36448079Y15445674D01*
X36445694Y15436154D01*
X36442388Y15426915D01*
X36438192Y15418043D01*
X36433147Y15409626D01*
X36427301Y15401744D01*
X36420711Y15394472D01*
X36390528Y15364289D01*
X36383256Y15357699D01*
X36375374Y15351853D01*
X36366957Y15346808D01*
X36358085Y15342612D01*
X36348846Y15339306D01*
X36339326Y15336921D01*
X36329619Y15335482D01*
X36319817Y15335000D01*
X27251227Y15335000D01*
X27248774Y15334940D01*
X27230642Y15334049D01*
X27228195Y15333869D01*
X27206251Y15331707D01*
X27203816Y15331407D01*
X27187073Y15328923D01*
X27182263Y15327967D01*
X27165844Y15323854D01*
X27163480Y15323199D01*
X27142379Y15316799D01*
X27140049Y15316029D01*
X27124112Y15310327D01*
X27119582Y15308450D01*
X27104281Y15301213D01*
X27102089Y15300110D01*
X27082643Y15289716D01*
X27080508Y15288506D01*
X27065990Y15279804D01*
X27061912Y15277080D01*
X27048317Y15266997D01*
X27046382Y15265487D01*
X27029338Y15251499D01*
X27027480Y15249896D01*
X27014029Y15237705D01*
X27012251Y15236013D01*
X26890528Y15114289D01*
X26883256Y15107699D01*
X26875374Y15101853D01*
X26866957Y15096808D01*
X26858085Y15092612D01*
X26848846Y15089306D01*
X26839326Y15086921D01*
X26829619Y15085482D01*
X26819817Y15085000D01*
X24634852Y15085000D01*
X24625050Y15085482D01*
X24615343Y15086921D01*
X24605823Y15089306D01*
X24596584Y15092612D01*
X24587712Y15096808D01*
X24579295Y15101853D01*
X24571413Y15107699D01*
X24564141Y15114289D01*
X24557551Y15121561D01*
X24551705Y15129443D01*
X24546660Y15137860D01*
X24542464Y15146732D01*
X24539158Y15155972D01*
X24536773Y15165491D01*
X24535333Y15175198D01*
X24534852Y15185000D01*
X24535333Y15194802D01*
X24536773Y15204509D01*
X24539158Y15214028D01*
X24542464Y15223268D01*
X24546660Y15232140D01*
X24551705Y15240557D01*
X24557551Y15248439D01*
X24564141Y15255711D01*
X24567770Y15259340D01*
X24570006Y15261727D01*
X24641158Y15342860D01*
X24643233Y15345388D01*
X24657963Y15364585D01*
X24659868Y15367244D01*
X24719821Y15456970D01*
X24721548Y15459747D01*
X24733647Y15480702D01*
X24735189Y15483587D01*
X24782917Y15580371D01*
X24784267Y15583350D01*
X24793527Y15605705D01*
X24794679Y15608766D01*
X24829366Y15710952D01*
X24830316Y15714082D01*
X24836578Y15737454D01*
X24837321Y15740640D01*
X24858374Y15846479D01*
X24858907Y15849706D01*
X24862065Y15873696D01*
X24862386Y15876951D01*
X24869443Y15984632D01*
X24869550Y15987902D01*
X24869550Y16012098D01*
X24869443Y16015368D01*
X24862386Y16123049D01*
X24862065Y16126304D01*
X24858907Y16150294D01*
X24858374Y16153521D01*
X24837321Y16259360D01*
X24836578Y16262546D01*
X24830316Y16285918D01*
X24829366Y16289048D01*
X24794679Y16391234D01*
X24793527Y16394295D01*
X24784267Y16416650D01*
X24782917Y16419629D01*
X24735189Y16516413D01*
X24733647Y16519298D01*
X24721548Y16540253D01*
X24719821Y16543030D01*
X24659868Y16632756D01*
X24657963Y16635415D01*
X24643233Y16654612D01*
X24641158Y16657140D01*
X24570006Y16738273D01*
X24567770Y16740660D01*
X24550660Y16757770D01*
X24548273Y16760006D01*
X24467140Y16831158D01*
X24464612Y16833233D01*
X24445415Y16847963D01*
X24442756Y16849868D01*
X24353030Y16909821D01*
X24350253Y16911548D01*
X24329298Y16923647D01*
X24326413Y16925189D01*
X24229629Y16972917D01*
X24226650Y16974267D01*
X24204295Y16983527D01*
X24201234Y16984679D01*
X24099048Y17019366D01*
X24095918Y17020316D01*
X24072546Y17026578D01*
X24069360Y17027321D01*
X23963521Y17048374D01*
X23960294Y17048907D01*
X23936304Y17052065D01*
X23933049Y17052386D01*
X23825368Y17059443D01*
X23822098Y17059550D01*
X23797902Y17059550D01*
X23794632Y17059443D01*
X23686951Y17052386D01*
X23683696Y17052065D01*
X23659706Y17048907D01*
X23656479Y17048374D01*
X23550640Y17027321D01*
X23547454Y17026578D01*
X23524082Y17020316D01*
X23520952Y17019366D01*
X23418766Y16984679D01*
X23415705Y16983527D01*
X23393350Y16974267D01*
X23390371Y16972917D01*
X23293587Y16925189D01*
X23290702Y16923647D01*
X23269747Y16911548D01*
X23266970Y16909821D01*
X23177244Y16849868D01*
X23174585Y16847963D01*
X23155388Y16833233D01*
X23152860Y16831158D01*
X23071727Y16760006D01*
X23069340Y16757770D01*
X23052230Y16740660D01*
X23049994Y16738273D01*
X22978842Y16657140D01*
X22976767Y16654612D01*
X22962037Y16635415D01*
X22960132Y16632756D01*
X22900179Y16543030D01*
X22898452Y16540253D01*
X22886353Y16519298D01*
X22884811Y16516413D01*
X22837083Y16419629D01*
X22835733Y16416650D01*
X22826473Y16394295D01*
X22825321Y16391234D01*
X22790634Y16289048D01*
X22789684Y16285918D01*
X22783422Y16262546D01*
X22782679Y16259360D01*
X22761626Y16153521D01*
X22761093Y16150294D01*
X22757935Y16126304D01*
X22757614Y16123049D01*
X22750557Y16015368D01*
X22750450Y16012098D01*
X22750450Y15987902D01*
X22750557Y15984632D01*
X22757614Y15876951D01*
X22757935Y15873696D01*
X22761093Y15849706D01*
X22761626Y15846479D01*
X22782679Y15740640D01*
X22783422Y15737454D01*
X22789684Y15714082D01*
X22790634Y15710952D01*
X22825321Y15608766D01*
X22826473Y15605705D01*
X22835733Y15583350D01*
X22837083Y15580371D01*
X22884811Y15483587D01*
X22886353Y15480702D01*
X22898452Y15459747D01*
X22900179Y15456970D01*
X22960132Y15367244D01*
X22962037Y15364585D01*
X22976767Y15345388D01*
X22978842Y15342860D01*
X23049994Y15261727D01*
X23052230Y15259340D01*
X23055859Y15255711D01*
X23062449Y15248439D01*
X23068295Y15240557D01*
X23073340Y15232140D01*
X23077536Y15223268D01*
X23080842Y15214028D01*
X23083227Y15204509D01*
X23084667Y15194802D01*
X23085148Y15185000D01*
X23084667Y15175198D01*
X23083227Y15165491D01*
X23080842Y15155972D01*
X23077536Y15146732D01*
X23073340Y15137860D01*
X23068295Y15129443D01*
X23062449Y15121561D01*
X23055859Y15114289D01*
X23048587Y15107699D01*
X23040705Y15101853D01*
X23032288Y15096808D01*
X23023416Y15092612D01*
X23014177Y15089306D01*
X23004657Y15086921D01*
X22994950Y15085482D01*
X22985148Y15085000D01*
X22094852Y15085000D01*
X22085050Y15085482D01*
X22075343Y15086921D01*
X22065823Y15089306D01*
X22056584Y15092612D01*
X22047712Y15096808D01*
X22039295Y15101853D01*
X22031413Y15107699D01*
X22024141Y15114289D01*
X22017551Y15121561D01*
X22011705Y15129443D01*
X22006660Y15137860D01*
X22002464Y15146732D01*
X21999158Y15155972D01*
X21996773Y15165491D01*
X21995333Y15175198D01*
X21994852Y15185000D01*
X21995333Y15194802D01*
X21996773Y15204509D01*
X21999158Y15214028D01*
X22002464Y15223268D01*
X22006660Y15232140D01*
X22011705Y15240557D01*
X22017551Y15248439D01*
X22024141Y15255711D01*
X22027770Y15259340D01*
X22030006Y15261727D01*
X22101158Y15342860D01*
X22103233Y15345388D01*
X22117963Y15364585D01*
X22119868Y15367244D01*
X22179821Y15456970D01*
X22181548Y15459747D01*
X22193647Y15480702D01*
X22195189Y15483587D01*
X22242917Y15580371D01*
X22244267Y15583350D01*
X22253527Y15605705D01*
X22254679Y15608766D01*
X22289366Y15710952D01*
X22290316Y15714082D01*
X22296578Y15737454D01*
X22297321Y15740640D01*
X22318374Y15846479D01*
X22318907Y15849706D01*
X22322065Y15873696D01*
X22322386Y15876951D01*
X22329443Y15984632D01*
X22329550Y15987902D01*
X22329550Y16012098D01*
X22329443Y16015368D01*
X22322386Y16123049D01*
X22322065Y16126304D01*
X22318907Y16150294D01*
X22318374Y16153521D01*
X22297321Y16259360D01*
X22296578Y16262546D01*
X22290316Y16285918D01*
X22289366Y16289048D01*
X22254679Y16391234D01*
X22253527Y16394295D01*
X22244267Y16416650D01*
X22242917Y16419629D01*
X22195189Y16516413D01*
X22193647Y16519298D01*
X22181548Y16540253D01*
X22179821Y16543030D01*
X22119868Y16632756D01*
X22117963Y16635415D01*
X22103233Y16654612D01*
X22101158Y16657140D01*
X22030006Y16738273D01*
X22027770Y16740660D01*
X22010660Y16757770D01*
X22008273Y16760006D01*
X21927140Y16831158D01*
X21924612Y16833233D01*
X21905415Y16847963D01*
X21902756Y16849868D01*
X21813030Y16909821D01*
X21810253Y16911548D01*
X21789298Y16923647D01*
X21786413Y16925189D01*
X21689629Y16972917D01*
X21686650Y16974267D01*
X21664295Y16983527D01*
X21661234Y16984679D01*
X21652856Y16987523D01*
X21643959Y16991026D01*
X21635437Y16995363D01*
X21627368Y17000494D01*
X21619826Y17006372D01*
X21612880Y17012943D01*
X21606593Y17020148D01*
X21601023Y17027921D01*
X21596222Y17036190D01*
X21592231Y17044880D01*
X21589089Y17053911D01*
X21586824Y17063201D01*
X21585457Y17072665D01*
X21585000Y17082216D01*
X21585000Y23478017D01*
X21585497Y23487974D01*
X21586983Y23497832D01*
X21589443Y23507493D01*
X21592852Y23516861D01*
X21597178Y23525843D01*
X21602376Y23534349D01*
X21608396Y23542296D01*
X21615176Y23549604D01*
X21622651Y23556200D01*
X21630745Y23562020D01*
X21639379Y23567004D01*
X21648466Y23571105D01*
X21657916Y23574280D01*
X21667635Y23576498D01*
X21677527Y23577738D01*
X21687493Y23577986D01*
X21697434Y23577241D01*
X21707252Y23575510D01*
X21716849Y23572810D01*
X21726129Y23569168D01*
X21735000Y23564620D01*
X21755702Y23552667D01*
X21758587Y23551125D01*
X21790847Y23535217D01*
X21793826Y23533867D01*
X21816181Y23524607D01*
X21819242Y23523455D01*
X21853302Y23511893D01*
X21856433Y23510943D01*
X21879805Y23504681D01*
X21882990Y23503938D01*
X21918268Y23496921D01*
X21921496Y23496388D01*
X21945485Y23493230D01*
X21948740Y23492909D01*
X21984632Y23490557D01*
X21987902Y23490450D01*
X22012098Y23490450D01*
X22015368Y23490557D01*
X22051260Y23492909D01*
X22054515Y23493230D01*
X22078504Y23496388D01*
X22081732Y23496921D01*
X22117010Y23503938D01*
X22120195Y23504681D01*
X22143567Y23510943D01*
X22146698Y23511893D01*
X22180758Y23523455D01*
X22183819Y23524607D01*
X22206174Y23533867D01*
X22209153Y23535217D01*
X22241413Y23551125D01*
X22244298Y23552667D01*
X22265253Y23564766D01*
X22268030Y23566493D01*
X22297938Y23586476D01*
X22300596Y23588382D01*
X22319793Y23603111D01*
X22322321Y23605187D01*
X22349364Y23628903D01*
X22351752Y23631139D01*
X22368861Y23648248D01*
X22371097Y23650636D01*
X22394813Y23677679D01*
X22396889Y23680207D01*
X22411618Y23699404D01*
X22413524Y23702062D01*
X22433507Y23731970D01*
X22435234Y23734747D01*
X22447333Y23755702D01*
X22448875Y23758587D01*
X22464783Y23790847D01*
X22466133Y23793826D01*
X22475393Y23816181D01*
X22476545Y23819242D01*
X22488107Y23853302D01*
X22489057Y23856433D01*
X22495319Y23879805D01*
X22496062Y23882990D01*
X22503079Y23918268D01*
X22503612Y23921496D01*
X22506770Y23945485D01*
X22507091Y23948740D01*
X22509443Y23984632D01*
X22509550Y23987902D01*
X22509550Y23994367D01*
X22510032Y24004169D01*
X22511472Y24013877D01*
X22513856Y24023396D01*
X22517162Y24032636D01*
X22521358Y24041507D01*
X22526403Y24049924D01*
X22532249Y24057807D01*
X22538840Y24065078D01*
X23736013Y25262251D01*
X23737705Y25264029D01*
X23749896Y25277480D01*
X23751499Y25279338D01*
X23765487Y25296382D01*
X23766997Y25298317D01*
X23777080Y25311912D01*
X23779804Y25315990D01*
X23788506Y25330508D01*
X23789716Y25332643D01*
X23800110Y25352089D01*
X23801213Y25354281D01*
X23808450Y25369582D01*
X23810327Y25374112D01*
X23816029Y25390049D01*
X23816799Y25392379D01*
X23823199Y25413480D01*
X23823854Y25415844D01*
X23827967Y25432263D01*
X23828923Y25437073D01*
X23831407Y25453816D01*
X23831707Y25456251D01*
X23833869Y25478195D01*
X23834049Y25480642D01*
X23834940Y25498774D01*
X23835000Y25501227D01*
X23835000Y27819817D01*
X23835482Y27829619D01*
X23836921Y27839326D01*
X23839306Y27848846D01*
X23842612Y27858085D01*
X23846808Y27866957D01*
X23851853Y27875374D01*
X23857699Y27883256D01*
X23864289Y27890528D01*
X24736013Y28762251D01*
X24737705Y28764029D01*
X24749896Y28777480D01*
X24751499Y28779338D01*
X24765487Y28796382D01*
X24766997Y28798317D01*
X24777080Y28811912D01*
X24779804Y28815990D01*
X24788506Y28830508D01*
X24789716Y28832643D01*
X24800110Y28852089D01*
X24801213Y28854281D01*
X24808450Y28869582D01*
X24810327Y28874112D01*
X24816029Y28890049D01*
X24816799Y28892379D01*
X24823199Y28913480D01*
X24823854Y28915844D01*
X24827967Y28932263D01*
X24828923Y28937073D01*
X24831407Y28953816D01*
X24831707Y28956251D01*
X24833869Y28978195D01*
X24834049Y28980642D01*
X24834940Y28998774D01*
X24835000Y29001227D01*
X24835000Y30819817D01*
X24835482Y30829619D01*
X24836921Y30839326D01*
X24839306Y30848846D01*
X24842612Y30858085D01*
X24846808Y30866957D01*
X24851853Y30875374D01*
X24857699Y30883256D01*
X24864289Y30890528D01*
X25089680Y31115919D01*
X25096671Y31122278D01*
X25104231Y31127949D01*
X25112292Y31132881D01*
X25120783Y31137030D01*
X25129628Y31140359D01*
X25138747Y31142838D01*
X25148060Y31144445D01*
X25157483Y31145166D01*
X25166931Y31144994D01*
X25234632Y31140557D01*
X25237902Y31140450D01*
X25262098Y31140450D01*
X25265368Y31140557D01*
X25379575Y31148042D01*
X25382831Y31148363D01*
X25406820Y31151521D01*
X25410047Y31152054D01*
X25522301Y31174383D01*
X25525487Y31175125D01*
X25548859Y31181388D01*
X25551989Y31182337D01*
X25660368Y31219127D01*
X25663429Y31220279D01*
X25685784Y31229539D01*
X25688763Y31230889D01*
X25791413Y31281510D01*
X25794298Y31283052D01*
X25815253Y31295150D01*
X25818030Y31296878D01*
X25913194Y31360464D01*
X25915853Y31362370D01*
X25935050Y31377099D01*
X25937578Y31379175D01*
X26023628Y31454639D01*
X26026016Y31456875D01*
X26043125Y31473984D01*
X26045361Y31476372D01*
X26120825Y31562422D01*
X26122901Y31564950D01*
X26137630Y31584147D01*
X26139536Y31586806D01*
X26203122Y31681970D01*
X26204850Y31684747D01*
X26216948Y31705702D01*
X26218490Y31708587D01*
X26269111Y31811237D01*
X26270461Y31814216D01*
X26279721Y31836571D01*
X26280873Y31839632D01*
X26317663Y31948011D01*
X26318612Y31951141D01*
X26324875Y31974513D01*
X26325617Y31977699D01*
X26347946Y32089953D01*
X26348479Y32093180D01*
X26351637Y32117169D01*
X26351958Y32120425D01*
X26359443Y32234632D01*
X26359550Y32237902D01*
X26359550Y32262098D01*
X26359443Y32265368D01*
X26351958Y32379575D01*
X26351637Y32382831D01*
X26348479Y32406820D01*
X26347946Y32410047D01*
X26325617Y32522301D01*
X26324875Y32525487D01*
X26318612Y32548859D01*
X26317663Y32551989D01*
X26280873Y32660368D01*
X26279721Y32663429D01*
X26270461Y32685784D01*
X26269111Y32688763D01*
X26218490Y32791413D01*
X26216948Y32794298D01*
X26204850Y32815253D01*
X26203122Y32818030D01*
X26139536Y32913194D01*
X26137630Y32915853D01*
X26122901Y32935050D01*
X26120825Y32937578D01*
X26045361Y33023628D01*
X26043125Y33026016D01*
X26026016Y33043125D01*
X26023628Y33045361D01*
X25937578Y33120825D01*
X25935050Y33122901D01*
X25915853Y33137630D01*
X25913194Y33139536D01*
X25818030Y33203122D01*
X25815253Y33204850D01*
X25794298Y33216948D01*
X25791413Y33218490D01*
X25688763Y33269111D01*
X25685784Y33270461D01*
X25663429Y33279721D01*
X25660368Y33280873D01*
X25551989Y33317663D01*
X25548859Y33318612D01*
X25525487Y33324875D01*
X25522301Y33325617D01*
X25410047Y33347946D01*
X25406820Y33348479D01*
X25382831Y33351637D01*
X25379575Y33351958D01*
X25265368Y33359443D01*
X25262098Y33359550D01*
X25237902Y33359550D01*
X25234632Y33359443D01*
X25120425Y33351958D01*
X25117169Y33351637D01*
X25093180Y33348479D01*
X25089953Y33347946D01*
X24977699Y33325617D01*
X24974513Y33324875D01*
X24951141Y33318612D01*
X24948011Y33317663D01*
X24839632Y33280873D01*
X24836571Y33279721D01*
X24814216Y33270461D01*
X24811237Y33269111D01*
X24708587Y33218490D01*
X24705702Y33216948D01*
X24684747Y33204850D01*
X24681970Y33203122D01*
X24586806Y33139536D01*
X24584147Y33137630D01*
X24564950Y33122901D01*
X24562422Y33120825D01*
X24476372Y33045361D01*
X24473984Y33043125D01*
X24456875Y33026016D01*
X24454639Y33023628D01*
X24379175Y32937578D01*
X24377099Y32935050D01*
X24362370Y32915853D01*
X24360464Y32913194D01*
X24296878Y32818030D01*
X24295150Y32815253D01*
X24283052Y32794298D01*
X24281510Y32791413D01*
X24230889Y32688763D01*
X24229539Y32685784D01*
X24220279Y32663429D01*
X24219127Y32660368D01*
X24182337Y32551989D01*
X24181388Y32548859D01*
X24175125Y32525487D01*
X24174383Y32522301D01*
X24152054Y32410047D01*
X24151521Y32406820D01*
X24148363Y32382831D01*
X24148042Y32379575D01*
X24140557Y32265368D01*
X24140450Y32262098D01*
X24140450Y32237902D01*
X24140557Y32234632D01*
X24148042Y32120425D01*
X24148363Y32117169D01*
X24151521Y32093180D01*
X24152054Y32089953D01*
X24174383Y31977699D01*
X24175125Y31974513D01*
X24181388Y31951141D01*
X24182337Y31948011D01*
X24219127Y31839632D01*
X24220279Y31836571D01*
X24229539Y31814216D01*
X24230889Y31811237D01*
X24281510Y31708587D01*
X24283052Y31705702D01*
X24295150Y31684747D01*
X24296878Y31681970D01*
X24360464Y31586806D01*
X24362370Y31584147D01*
X24377099Y31564950D01*
X24379175Y31562422D01*
X24415298Y31521231D01*
X24421525Y31513367D01*
X24426934Y31504918D01*
X24431468Y31495970D01*
X24435084Y31486613D01*
X24437743Y31476941D01*
X24439421Y31467050D01*
X24440099Y31457042D01*
X24439770Y31447016D01*
X24438439Y31437073D01*
X24436119Y31427314D01*
X24432832Y31417836D01*
X24428613Y31408735D01*
X24423502Y31400103D01*
X24417553Y31392026D01*
X24410824Y31384586D01*
X24263987Y31237749D01*
X24262295Y31235971D01*
X24250104Y31222520D01*
X24248501Y31220662D01*
X24234513Y31203618D01*
X24233003Y31201683D01*
X24222920Y31188088D01*
X24220196Y31184010D01*
X24211494Y31169492D01*
X24210284Y31167357D01*
X24199890Y31147911D01*
X24198787Y31145719D01*
X24191550Y31130418D01*
X24189673Y31125888D01*
X24183971Y31109951D01*
X24183201Y31107621D01*
X24176801Y31086520D01*
X24176146Y31084156D01*
X24172033Y31067737D01*
X24171077Y31062927D01*
X24168593Y31046184D01*
X24168293Y31043749D01*
X24166131Y31021805D01*
X24165951Y31019358D01*
X24165060Y31001226D01*
X24165000Y30998773D01*
X24165000Y29180183D01*
X24164518Y29170381D01*
X24163079Y29160674D01*
X24160694Y29151154D01*
X24157388Y29141915D01*
X24153192Y29133043D01*
X24148147Y29124626D01*
X24142301Y29116744D01*
X24135711Y29109472D01*
X23263987Y28237749D01*
X23262295Y28235971D01*
X23250104Y28222520D01*
X23248501Y28220662D01*
X23234513Y28203618D01*
X23233003Y28201683D01*
X23222920Y28188088D01*
X23220196Y28184010D01*
X23211494Y28169492D01*
X23210284Y28167357D01*
X23199890Y28147911D01*
X23198787Y28145719D01*
X23191550Y28130418D01*
X23189673Y28125888D01*
X23183971Y28109951D01*
X23183201Y28107621D01*
X23176801Y28086520D01*
X23176146Y28084156D01*
X23172033Y28067737D01*
X23171077Y28062927D01*
X23168593Y28046184D01*
X23168293Y28043749D01*
X23166131Y28021805D01*
X23165951Y28019358D01*
X23165060Y28001226D01*
X23165000Y27998773D01*
X23165000Y25680183D01*
X23164518Y25670381D01*
X23163079Y25660674D01*
X23160694Y25651154D01*
X23157388Y25641915D01*
X23153192Y25633043D01*
X23148147Y25624626D01*
X23142301Y25616744D01*
X23135711Y25609472D01*
X22065078Y24538840D01*
X22057807Y24532249D01*
X22049924Y24526403D01*
X22041507Y24521358D01*
X22032636Y24517162D01*
X22023396Y24513856D01*
X22013877Y24511472D01*
X22004169Y24510032D01*
X21994367Y24509550D01*
X21987902Y24509550D01*
X21984632Y24509443D01*
X21948740Y24507091D01*
X21945485Y24506770D01*
X21921496Y24503612D01*
X21918268Y24503079D01*
X21882990Y24496062D01*
X21879805Y24495319D01*
X21856433Y24489057D01*
X21853302Y24488107D01*
X21819242Y24476545D01*
X21816181Y24475393D01*
X21793826Y24466133D01*
X21790847Y24464783D01*
X21758587Y24448875D01*
X21755702Y24447333D01*
X21735000Y24435380D01*
X21726129Y24430832D01*
X21716849Y24427190D01*
X21707252Y24424490D01*
X21697434Y24422759D01*
X21687493Y24422014D01*
X21677527Y24422262D01*
X21667635Y24423502D01*
X21657916Y24425720D01*
X21648466Y24428895D01*
X21639379Y24432996D01*
X21630745Y24437980D01*
X21622651Y24443800D01*
X21615176Y24450396D01*
X21608396Y24457704D01*
X21602376Y24465651D01*
X21597178Y24474157D01*
X21592852Y24483139D01*
X21589443Y24492507D01*
X21586983Y24502168D01*
X21585497Y24512026D01*
X21585000Y24521983D01*
X21585000Y49694022D01*
X21585457Y49703574D01*
X21586824Y49713037D01*
X21589089Y49722327D01*
X21592231Y49731359D01*
X21596222Y49740048D01*
X21601023Y49748317D01*
X21606593Y49756090D01*
X21612880Y49763295D01*
X21619826Y49769867D01*
X21627368Y49775745D01*
X21635437Y49780876D01*
X21643959Y49785212D01*
X21652856Y49788715D01*
X21731234Y49815321D01*
X21734295Y49816473D01*
X21756650Y49825733D01*
X21759629Y49827083D01*
X21856413Y49874811D01*
X21859298Y49876353D01*
X21880253Y49888452D01*
X21883030Y49890179D01*
X21972756Y49950132D01*
X21975415Y49952037D01*
X21994612Y49966767D01*
X21997140Y49968842D01*
X22078273Y50039994D01*
X22080660Y50042230D01*
X22097770Y50059340D01*
X22100006Y50061727D01*
X22171158Y50142860D01*
X22173233Y50145388D01*
X22187963Y50164585D01*
X22189868Y50167244D01*
X22249821Y50256970D01*
X22251548Y50259747D01*
X22263647Y50280702D01*
X22265189Y50283587D01*
X22312917Y50380371D01*
X22314267Y50383350D01*
X22323527Y50405705D01*
X22324679Y50408766D01*
X22359366Y50510952D01*
X22360316Y50514082D01*
X22366578Y50537454D01*
X22367321Y50540640D01*
X22388374Y50646479D01*
X22388907Y50649706D01*
X22392065Y50673696D01*
X22392386Y50676951D01*
X22399443Y50784632D01*
X22399550Y50787902D01*
X22399550Y50812098D01*
X22399443Y50815368D01*
X22392386Y50923049D01*
X22392065Y50926304D01*
X22388907Y50950294D01*
X22388374Y50953521D01*
X22367321Y51059360D01*
X22366578Y51062546D01*
X22360316Y51085918D01*
X22359366Y51089048D01*
X22324679Y51191234D01*
X22323527Y51194295D01*
X22314267Y51216650D01*
X22312917Y51219629D01*
X22265189Y51316413D01*
X22263647Y51319298D01*
X22251548Y51340253D01*
X22249821Y51343030D01*
X22189868Y51432756D01*
X22187963Y51435415D01*
X22173233Y51454612D01*
X22171158Y51457140D01*
X22100006Y51538273D01*
X22097770Y51540660D01*
X22080660Y51557770D01*
X22078273Y51560006D01*
X21997140Y51631158D01*
X21994612Y51633233D01*
X21975415Y51647963D01*
X21972756Y51649868D01*
X21883030Y51709821D01*
X21880253Y51711548D01*
X21859298Y51723647D01*
X21856413Y51725189D01*
X21759629Y51772917D01*
X21756650Y51774267D01*
X21734295Y51783527D01*
X21731234Y51784679D01*
X21629048Y51819366D01*
X21625918Y51820316D01*
X21602546Y51826578D01*
X21599360Y51827321D01*
X21493521Y51848374D01*
X21490294Y51848907D01*
X21466304Y51852065D01*
X21463049Y51852386D01*
X21355368Y51859443D01*
X21352098Y51859550D01*
X21327902Y51859550D01*
X21324632Y51859443D01*
X21216951Y51852386D01*
X21213696Y51852065D01*
X21189706Y51848907D01*
X21186479Y51848374D01*
X21080640Y51827321D01*
X21077454Y51826578D01*
X21054082Y51820316D01*
X21050952Y51819366D01*
X20948766Y51784679D01*
X20945705Y51783527D01*
X20923350Y51774267D01*
X20920371Y51772917D01*
X20823587Y51725189D01*
X20820702Y51723647D01*
X20799747Y51711548D01*
X20796970Y51709821D01*
X20707244Y51649868D01*
X20704585Y51647963D01*
X20685388Y51633233D01*
X20682860Y51631158D01*
X20601727Y51560006D01*
X20599340Y51557770D01*
X20582230Y51540660D01*
X20579994Y51538273D01*
X20508842Y51457140D01*
X20506767Y51454612D01*
X20492037Y51435415D01*
X20490132Y51432756D01*
X20430179Y51343030D01*
X20428452Y51340253D01*
X20416353Y51319298D01*
X20414811Y51316413D01*
X20367083Y51219629D01*
X20365733Y51216650D01*
X20356473Y51194295D01*
X20355321Y51191234D01*
X20320634Y51089048D01*
X20319684Y51085918D01*
X20313422Y51062546D01*
X20312679Y51059360D01*
X20291626Y50953521D01*
X20291093Y50950294D01*
X20287935Y50926304D01*
X20287614Y50923049D01*
X20280557Y50815368D01*
X20280450Y50812098D01*
X20280450Y50787902D01*
X20280557Y50784632D01*
X20287614Y50676951D01*
X20287935Y50673696D01*
X20291093Y50649706D01*
X20291626Y50646479D01*
X20312679Y50540640D01*
X20313422Y50537454D01*
X20319684Y50514082D01*
X20320634Y50510952D01*
X20355321Y50408766D01*
X20356473Y50405705D01*
X20365733Y50383350D01*
X20367083Y50380371D01*
X20414811Y50283587D01*
X20416353Y50280702D01*
X20428452Y50259747D01*
X20430179Y50256970D01*
X20490132Y50167244D01*
X20492037Y50164585D01*
X20506767Y50145388D01*
X20508842Y50142860D01*
X20579994Y50061727D01*
X20582230Y50059340D01*
X20599340Y50042230D01*
X20601727Y50039994D01*
X20682860Y49968842D01*
X20685388Y49966767D01*
X20704585Y49952037D01*
X20707244Y49950132D01*
X20796970Y49890179D01*
X20799747Y49888452D01*
X20820702Y49876353D01*
X20823587Y49874811D01*
X20859229Y49857235D01*
X20868059Y49852310D01*
X20876347Y49846519D01*
X20884008Y49839921D01*
X20890963Y49832583D01*
X20897142Y49824580D01*
X20902481Y49815994D01*
X20906926Y49806913D01*
X20910431Y49797429D01*
X20912961Y49787640D01*
X20914489Y49777645D01*
X20915000Y49767547D01*
X20915000Y17066621D01*
X20914518Y17056819D01*
X20913079Y17047112D01*
X20910694Y17037593D01*
X20907388Y17028353D01*
X20903192Y17019481D01*
X20898147Y17011064D01*
X20892301Y17003182D01*
X20885711Y16995910D01*
X20878439Y16989320D01*
X20870557Y16983474D01*
X20862140Y16978429D01*
X20854828Y16974971D01*
X20854841Y16974942D01*
X20850371Y16972917D01*
X20753587Y16925189D01*
X20750702Y16923647D01*
X20729747Y16911548D01*
X20726970Y16909821D01*
X20637244Y16849868D01*
X20634585Y16847963D01*
X20615388Y16833233D01*
X20612860Y16831158D01*
X20531727Y16760006D01*
X20529340Y16757770D01*
X20512230Y16740660D01*
X20509994Y16738273D01*
X20438842Y16657140D01*
X20436767Y16654612D01*
X20422037Y16635415D01*
X20420132Y16632756D01*
X20360179Y16543030D01*
X20358452Y16540253D01*
X20346353Y16519298D01*
X20344811Y16516413D01*
X20297083Y16419629D01*
X20295733Y16416650D01*
X20286473Y16394295D01*
X20285321Y16391234D01*
X20250634Y16289048D01*
X20249684Y16285918D01*
X20243422Y16262546D01*
X20242679Y16259360D01*
X20221626Y16153521D01*
X20221093Y16150294D01*
X20217935Y16126304D01*
X20217614Y16123049D01*
X20210557Y16015368D01*
X20210450Y16012098D01*
X20210450Y15987902D01*
X20210557Y15984632D01*
X20217614Y15876951D01*
X20217935Y15873696D01*
X20221093Y15849706D01*
X20221626Y15846479D01*
X20242815Y15739955D01*
X20244255Y15730248D01*
X20244736Y15720446D01*
X20244255Y15710645D01*
X20242815Y15700937D01*
X20240431Y15691418D01*
X20237124Y15682178D01*
X20232929Y15673307D01*
X20227883Y15664889D01*
X20222038Y15657007D01*
X20215447Y15649736D01*
X20208176Y15643145D01*
X20200294Y15637299D01*
X20191876Y15632254D01*
X20183005Y15628058D01*
X20173765Y15624752D01*
X20164246Y15622368D01*
X20154538Y15620928D01*
X20144736Y15620446D01*
X20134935Y15620928D01*
X20125227Y15622368D01*
X20115708Y15624752D01*
X20106468Y15628058D01*
X20097597Y15632254D01*
X20089179Y15637299D01*
X20081297Y15643145D01*
X20074026Y15649736D01*
X19818387Y15905375D01*
X19812028Y15912365D01*
X19806357Y15919925D01*
X19801425Y15927986D01*
X19797276Y15936477D01*
X19793947Y15945322D01*
X19791468Y15954441D01*
X19789861Y15963754D01*
X19789140Y15973177D01*
X19789312Y15982626D01*
X19789443Y15984632D01*
X19789550Y15987902D01*
X19789550Y16012098D01*
X19789443Y16015368D01*
X19782386Y16123049D01*
X19782065Y16126304D01*
X19778907Y16150294D01*
X19778374Y16153521D01*
X19757321Y16259360D01*
X19756578Y16262546D01*
X19750316Y16285918D01*
X19749366Y16289048D01*
X19714679Y16391234D01*
X19713527Y16394295D01*
X19704267Y16416650D01*
X19702917Y16419629D01*
X19655189Y16516413D01*
X19653647Y16519298D01*
X19641548Y16540253D01*
X19639821Y16543030D01*
X19579868Y16632756D01*
X19577963Y16635415D01*
X19563233Y16654612D01*
X19561158Y16657140D01*
X19490006Y16738273D01*
X19487770Y16740660D01*
X19470660Y16757770D01*
X19468273Y16760006D01*
X19387140Y16831158D01*
X19384612Y16833233D01*
X19365415Y16847963D01*
X19362756Y16849868D01*
X19273030Y16909821D01*
X19270253Y16911548D01*
X19249298Y16923647D01*
X19246413Y16925189D01*
X19149629Y16972917D01*
X19146650Y16974267D01*
X19124295Y16983527D01*
X19121234Y16984679D01*
X19019048Y17019366D01*
X19015918Y17020316D01*
X18992546Y17026578D01*
X18989360Y17027321D01*
X18883521Y17048374D01*
X18880294Y17048907D01*
X18856304Y17052065D01*
X18853049Y17052386D01*
X18745368Y17059443D01*
X18742098Y17059550D01*
X18717902Y17059550D01*
X18714632Y17059443D01*
X18606951Y17052386D01*
X18603696Y17052065D01*
X18579706Y17048907D01*
X18576479Y17048374D01*
X18470640Y17027321D01*
X18467454Y17026578D01*
X18444082Y17020316D01*
X18440952Y17019366D01*
X18338766Y16984679D01*
X18335705Y16983527D01*
X18313350Y16974267D01*
X18310371Y16972917D01*
X18213587Y16925189D01*
X18210702Y16923647D01*
X18189747Y16911548D01*
X18186970Y16909821D01*
X18097244Y16849868D01*
X18094585Y16847963D01*
X18075388Y16833233D01*
X18072860Y16831158D01*
X17991727Y16760006D01*
X17989340Y16757770D01*
X17972230Y16740660D01*
X17969994Y16738273D01*
X17898842Y16657140D01*
X17896767Y16654612D01*
X17882037Y16635415D01*
X17880132Y16632756D01*
X17820179Y16543030D01*
X17818452Y16540253D01*
X17806353Y16519298D01*
X17804811Y16516413D01*
X17757083Y16419629D01*
X17755733Y16416650D01*
X17746473Y16394295D01*
X17745321Y16391234D01*
X17710634Y16289048D01*
X17709684Y16285918D01*
X17703422Y16262546D01*
X17702679Y16259360D01*
X17681626Y16153521D01*
X17681093Y16150294D01*
X17677935Y16126304D01*
X17677614Y16123049D01*
X17670557Y16015368D01*
X17670450Y16012098D01*
X17670450Y15987902D01*
X17670557Y15984632D01*
X17677614Y15876951D01*
X17677935Y15873696D01*
X17681093Y15849706D01*
X17681626Y15846479D01*
X17702679Y15740640D01*
X17703422Y15737454D01*
X17709684Y15714082D01*
X17710634Y15710952D01*
X17745321Y15608766D01*
X17746473Y15605705D01*
X17755733Y15583350D01*
X17757083Y15580371D01*
X17804811Y15483587D01*
X17806353Y15480702D01*
X17818452Y15459747D01*
X17820179Y15456970D01*
X17880132Y15367244D01*
X17882037Y15364585D01*
X17896767Y15345388D01*
X17898842Y15342860D01*
X17969994Y15261727D01*
X17972230Y15259340D01*
X17989340Y15242230D01*
X17991727Y15239994D01*
X18072860Y15168842D01*
X18075388Y15166767D01*
X18094585Y15152037D01*
X18097244Y15150132D01*
X18186970Y15090179D01*
X18189747Y15088452D01*
X18210702Y15076353D01*
X18213587Y15074811D01*
X18310371Y15027083D01*
X18313350Y15025733D01*
X18335705Y15016473D01*
X18338766Y15015321D01*
X18440952Y14980634D01*
X18444082Y14979684D01*
X18467454Y14973422D01*
X18470640Y14972679D01*
X18576479Y14951626D01*
X18579706Y14951093D01*
X18603696Y14947935D01*
X18606951Y14947614D01*
X18714632Y14940557D01*
X18717902Y14940450D01*
X18742098Y14940450D01*
X18745368Y14940557D01*
X18853049Y14947614D01*
X18856304Y14947935D01*
X18880294Y14951093D01*
X18883521Y14951626D01*
X18989360Y14972679D01*
X18992546Y14973422D01*
X19015918Y14979684D01*
X19019048Y14980634D01*
X19121234Y15015321D01*
X19124295Y15016473D01*
X19146650Y15025733D01*
X19149629Y15027083D01*
X19246413Y15074811D01*
X19249298Y15076353D01*
X19270253Y15088452D01*
X19273030Y15090179D01*
X19362756Y15150132D01*
X19365415Y15152037D01*
X19384612Y15166767D01*
X19387140Y15168842D01*
X19434069Y15209998D01*
G37*
%LPD*%
%LPC*%
G36*
X37318273Y50039994D02*
X37320660Y50042230D01*
X37337770Y50059340D01*
X37340006Y50061727D01*
X37411158Y50142860D01*
X37413233Y50145388D01*
X37427963Y50164585D01*
X37429868Y50167244D01*
X37489821Y50256970D01*
X37491548Y50259747D01*
X37503647Y50280702D01*
X37505189Y50283587D01*
X37552917Y50380371D01*
X37554267Y50383350D01*
X37563527Y50405705D01*
X37564679Y50408766D01*
X37599366Y50510952D01*
X37600316Y50514082D01*
X37606578Y50537454D01*
X37607321Y50540640D01*
X37628374Y50646479D01*
X37628907Y50649706D01*
X37632065Y50673696D01*
X37632386Y50676951D01*
X37639443Y50784632D01*
X37639550Y50787902D01*
X37639550Y50812098D01*
X37639443Y50815368D01*
X37632386Y50923049D01*
X37632065Y50926304D01*
X37628907Y50950294D01*
X37628374Y50953521D01*
X37607321Y51059360D01*
X37606578Y51062546D01*
X37600316Y51085918D01*
X37599366Y51089048D01*
X37564679Y51191234D01*
X37563527Y51194295D01*
X37554267Y51216650D01*
X37552917Y51219629D01*
X37505189Y51316413D01*
X37503647Y51319298D01*
X37491548Y51340253D01*
X37489821Y51343030D01*
X37429868Y51432756D01*
X37427963Y51435415D01*
X37413233Y51454612D01*
X37411158Y51457140D01*
X37340006Y51538273D01*
X37337770Y51540660D01*
X37320660Y51557770D01*
X37318273Y51560006D01*
X37237140Y51631158D01*
X37234612Y51633233D01*
X37215415Y51647963D01*
X37212756Y51649868D01*
X37123030Y51709821D01*
X37120253Y51711548D01*
X37099298Y51723647D01*
X37096413Y51725189D01*
X36999629Y51772917D01*
X36996650Y51774267D01*
X36974295Y51783527D01*
X36971234Y51784679D01*
X36869048Y51819366D01*
X36865918Y51820316D01*
X36842546Y51826578D01*
X36839360Y51827321D01*
X36733521Y51848374D01*
X36730294Y51848907D01*
X36706304Y51852065D01*
X36703049Y51852386D01*
X36595368Y51859443D01*
X36592098Y51859550D01*
X36567902Y51859550D01*
X36564632Y51859443D01*
X36456951Y51852386D01*
X36453696Y51852065D01*
X36429706Y51848907D01*
X36426479Y51848374D01*
X36320640Y51827321D01*
X36317454Y51826578D01*
X36294082Y51820316D01*
X36290952Y51819366D01*
X36188766Y51784679D01*
X36185705Y51783527D01*
X36163350Y51774267D01*
X36160371Y51772917D01*
X36063587Y51725189D01*
X36060702Y51723647D01*
X36039747Y51711548D01*
X36036970Y51709821D01*
X35947244Y51649868D01*
X35944585Y51647963D01*
X35925388Y51633233D01*
X35922860Y51631158D01*
X35841727Y51560006D01*
X35839340Y51557770D01*
X35822230Y51540660D01*
X35819994Y51538273D01*
X35748842Y51457140D01*
X35746767Y51454612D01*
X35732037Y51435415D01*
X35730132Y51432756D01*
X35670179Y51343030D01*
X35668452Y51340253D01*
X35656353Y51319298D01*
X35654811Y51316413D01*
X35607083Y51219629D01*
X35605733Y51216650D01*
X35596473Y51194295D01*
X35595321Y51191234D01*
X35560634Y51089048D01*
X35559684Y51085918D01*
X35553422Y51062546D01*
X35552679Y51059360D01*
X35531626Y50953521D01*
X35531093Y50950294D01*
X35527935Y50926304D01*
X35527614Y50923049D01*
X35520557Y50815368D01*
X35520450Y50812098D01*
X35520450Y50787902D01*
X35520557Y50784632D01*
X35527614Y50676951D01*
X35527935Y50673696D01*
X35531093Y50649706D01*
X35531626Y50646479D01*
X35552679Y50540640D01*
X35553422Y50537454D01*
X35559684Y50514082D01*
X35560634Y50510952D01*
X35595321Y50408766D01*
X35596473Y50405705D01*
X35605733Y50383350D01*
X35607083Y50380371D01*
X35654811Y50283587D01*
X35656353Y50280702D01*
X35668452Y50259747D01*
X35670179Y50256970D01*
X35730132Y50167244D01*
X35732037Y50164585D01*
X35746767Y50145388D01*
X35748842Y50142860D01*
X35819994Y50061727D01*
X35822230Y50059340D01*
X35839340Y50042230D01*
X35841727Y50039994D01*
X35922860Y49968842D01*
X35925388Y49966767D01*
X35944585Y49952037D01*
X35947244Y49950132D01*
X36036970Y49890179D01*
X36039747Y49888452D01*
X36060702Y49876353D01*
X36063587Y49874811D01*
X36160371Y49827083D01*
X36163350Y49825733D01*
X36185705Y49816473D01*
X36188766Y49815321D01*
X36290952Y49780634D01*
X36294082Y49779684D01*
X36317454Y49773422D01*
X36320640Y49772679D01*
X36426479Y49751626D01*
X36429706Y49751093D01*
X36453696Y49747935D01*
X36456951Y49747614D01*
X36564632Y49740557D01*
X36567902Y49740450D01*
X36592098Y49740450D01*
X36595368Y49740557D01*
X36703049Y49747614D01*
X36706304Y49747935D01*
X36730294Y49751093D01*
X36733521Y49751626D01*
X36839360Y49772679D01*
X36842546Y49773422D01*
X36865918Y49779684D01*
X36869048Y49780634D01*
X36971234Y49815321D01*
X36974295Y49816473D01*
X36996650Y49825733D01*
X36999629Y49827083D01*
X37096413Y49874811D01*
X37099298Y49876353D01*
X37120253Y49888452D01*
X37123030Y49890179D01*
X37212756Y49950132D01*
X37215415Y49952037D01*
X37234612Y49966767D01*
X37237140Y49968842D01*
X37318273Y50039994D01*
G37*
%LPD*%
%LPC*%
G36*
X36298273Y1779994D02*
X36300660Y1782230D01*
X36317770Y1799340D01*
X36320006Y1801727D01*
X36391158Y1882860D01*
X36393233Y1885388D01*
X36407963Y1904585D01*
X36409868Y1907244D01*
X36469821Y1996970D01*
X36471548Y1999747D01*
X36483647Y2020702D01*
X36485189Y2023587D01*
X36532917Y2120371D01*
X36534267Y2123350D01*
X36543527Y2145705D01*
X36544679Y2148766D01*
X36579366Y2250952D01*
X36580316Y2254082D01*
X36586578Y2277454D01*
X36587321Y2280640D01*
X36608374Y2386479D01*
X36608907Y2389706D01*
X36612065Y2413696D01*
X36612386Y2416951D01*
X36619443Y2524632D01*
X36619550Y2527902D01*
X36619550Y2552098D01*
X36619443Y2555368D01*
X36612386Y2663049D01*
X36612065Y2666304D01*
X36608907Y2690294D01*
X36608374Y2693521D01*
X36587321Y2799360D01*
X36586578Y2802546D01*
X36580316Y2825918D01*
X36579366Y2829048D01*
X36544679Y2931234D01*
X36543527Y2934295D01*
X36534267Y2956650D01*
X36532917Y2959629D01*
X36485189Y3056413D01*
X36483647Y3059298D01*
X36471548Y3080253D01*
X36469821Y3083030D01*
X36409868Y3172756D01*
X36407963Y3175415D01*
X36393233Y3194612D01*
X36391158Y3197140D01*
X36320006Y3278273D01*
X36317770Y3280660D01*
X36300660Y3297770D01*
X36298273Y3300006D01*
X36217140Y3371158D01*
X36214612Y3373233D01*
X36195415Y3387963D01*
X36192756Y3389868D01*
X36103030Y3449821D01*
X36100253Y3451548D01*
X36079298Y3463647D01*
X36076413Y3465189D01*
X35979629Y3512917D01*
X35976650Y3514267D01*
X35954295Y3523527D01*
X35951234Y3524679D01*
X35849048Y3559366D01*
X35845918Y3560316D01*
X35822546Y3566578D01*
X35819360Y3567321D01*
X35713521Y3588374D01*
X35710294Y3588907D01*
X35686304Y3592065D01*
X35683049Y3592386D01*
X35575368Y3599443D01*
X35572098Y3599550D01*
X35547902Y3599550D01*
X35544632Y3599443D01*
X35436951Y3592386D01*
X35433696Y3592065D01*
X35409706Y3588907D01*
X35406479Y3588374D01*
X35300640Y3567321D01*
X35297454Y3566578D01*
X35274082Y3560316D01*
X35270952Y3559366D01*
X35168766Y3524679D01*
X35165705Y3523527D01*
X35143350Y3514267D01*
X35140371Y3512917D01*
X35043587Y3465189D01*
X35040702Y3463647D01*
X35019747Y3451548D01*
X35016970Y3449821D01*
X34927244Y3389868D01*
X34924585Y3387963D01*
X34905388Y3373233D01*
X34902860Y3371158D01*
X34821727Y3300006D01*
X34819340Y3297770D01*
X34802230Y3280660D01*
X34799994Y3278273D01*
X34728842Y3197140D01*
X34726767Y3194612D01*
X34712037Y3175415D01*
X34710132Y3172756D01*
X34650179Y3083030D01*
X34648452Y3080253D01*
X34636353Y3059298D01*
X34634811Y3056413D01*
X34587083Y2959629D01*
X34585733Y2956650D01*
X34576473Y2934295D01*
X34575321Y2931234D01*
X34540634Y2829048D01*
X34539684Y2825918D01*
X34533422Y2802546D01*
X34532679Y2799360D01*
X34511626Y2693521D01*
X34511093Y2690294D01*
X34507935Y2666304D01*
X34507614Y2663049D01*
X34500557Y2555368D01*
X34500450Y2552098D01*
X34500450Y2527902D01*
X34500557Y2524632D01*
X34507614Y2416951D01*
X34507935Y2413696D01*
X34511093Y2389706D01*
X34511626Y2386479D01*
X34532679Y2280640D01*
X34533422Y2277454D01*
X34539684Y2254082D01*
X34540634Y2250952D01*
X34575321Y2148766D01*
X34576473Y2145705D01*
X34585733Y2123350D01*
X34587083Y2120371D01*
X34634811Y2023587D01*
X34636353Y2020702D01*
X34648452Y1999747D01*
X34650179Y1996970D01*
X34710132Y1907244D01*
X34712037Y1904585D01*
X34726767Y1885388D01*
X34728842Y1882860D01*
X34799994Y1801727D01*
X34802230Y1799340D01*
X34819340Y1782230D01*
X34821727Y1779994D01*
X34902860Y1708842D01*
X34905388Y1706767D01*
X34924585Y1692037D01*
X34927244Y1690132D01*
X35016970Y1630179D01*
X35019747Y1628452D01*
X35040702Y1616353D01*
X35043587Y1614811D01*
X35140371Y1567083D01*
X35143350Y1565733D01*
X35165705Y1556473D01*
X35168766Y1555321D01*
X35270952Y1520634D01*
X35274082Y1519684D01*
X35297454Y1513422D01*
X35300640Y1512679D01*
X35406479Y1491626D01*
X35409706Y1491093D01*
X35433696Y1487935D01*
X35436951Y1487614D01*
X35544632Y1480557D01*
X35547902Y1480450D01*
X35572098Y1480450D01*
X35575368Y1480557D01*
X35683049Y1487614D01*
X35686304Y1487935D01*
X35710294Y1491093D01*
X35713521Y1491626D01*
X35819360Y1512679D01*
X35822546Y1513422D01*
X35845918Y1519684D01*
X35849048Y1520634D01*
X35951234Y1555321D01*
X35954295Y1556473D01*
X35976650Y1565733D01*
X35979629Y1567083D01*
X36076413Y1614811D01*
X36079298Y1616353D01*
X36100253Y1628452D01*
X36103030Y1630179D01*
X36192756Y1690132D01*
X36195415Y1692037D01*
X36214612Y1706767D01*
X36217140Y1708842D01*
X36298273Y1779994D01*
G37*
%LPD*%
%LPC*%
G36*
X34871158Y50142860D02*
X34873233Y50145388D01*
X34887963Y50164585D01*
X34889868Y50167244D01*
X34949821Y50256970D01*
X34951548Y50259747D01*
X34963647Y50280702D01*
X34965189Y50283587D01*
X35012917Y50380371D01*
X35014267Y50383350D01*
X35023527Y50405705D01*
X35024679Y50408766D01*
X35059366Y50510952D01*
X35060316Y50514082D01*
X35066578Y50537454D01*
X35067321Y50540640D01*
X35088374Y50646479D01*
X35088907Y50649706D01*
X35092065Y50673696D01*
X35092386Y50676951D01*
X35099443Y50784632D01*
X35099550Y50787902D01*
X35099550Y50812098D01*
X35099443Y50815368D01*
X35092386Y50923049D01*
X35092065Y50926304D01*
X35088907Y50950294D01*
X35088374Y50953521D01*
X35067321Y51059360D01*
X35066578Y51062546D01*
X35060316Y51085918D01*
X35059366Y51089048D01*
X35024679Y51191234D01*
X35023527Y51194295D01*
X35014267Y51216650D01*
X35012917Y51219629D01*
X34965189Y51316413D01*
X34963647Y51319298D01*
X34951548Y51340253D01*
X34949821Y51343030D01*
X34889868Y51432756D01*
X34887963Y51435415D01*
X34873233Y51454612D01*
X34871158Y51457140D01*
X34800006Y51538273D01*
X34797770Y51540660D01*
X34780660Y51557770D01*
X34778273Y51560006D01*
X34697140Y51631158D01*
X34694612Y51633233D01*
X34675415Y51647963D01*
X34672756Y51649868D01*
X34583030Y51709821D01*
X34580253Y51711548D01*
X34559298Y51723647D01*
X34556413Y51725189D01*
X34459629Y51772917D01*
X34456650Y51774267D01*
X34434295Y51783527D01*
X34431234Y51784679D01*
X34329048Y51819366D01*
X34325918Y51820316D01*
X34302546Y51826578D01*
X34299360Y51827321D01*
X34193521Y51848374D01*
X34190294Y51848907D01*
X34166304Y51852065D01*
X34163049Y51852386D01*
X34055368Y51859443D01*
X34052098Y51859550D01*
X34027902Y51859550D01*
X34024632Y51859443D01*
X33916951Y51852386D01*
X33913696Y51852065D01*
X33889706Y51848907D01*
X33886479Y51848374D01*
X33780640Y51827321D01*
X33777454Y51826578D01*
X33754082Y51820316D01*
X33750952Y51819366D01*
X33648766Y51784679D01*
X33645705Y51783527D01*
X33623350Y51774267D01*
X33620371Y51772917D01*
X33523587Y51725189D01*
X33520702Y51723647D01*
X33499747Y51711548D01*
X33496970Y51709821D01*
X33407244Y51649868D01*
X33404585Y51647963D01*
X33385388Y51633233D01*
X33382860Y51631158D01*
X33301727Y51560006D01*
X33299340Y51557770D01*
X33282230Y51540660D01*
X33279994Y51538273D01*
X33208842Y51457140D01*
X33206767Y51454612D01*
X33192037Y51435415D01*
X33190132Y51432756D01*
X33130179Y51343030D01*
X33128452Y51340253D01*
X33116353Y51319298D01*
X33114811Y51316413D01*
X33067083Y51219629D01*
X33065733Y51216650D01*
X33056473Y51194295D01*
X33055321Y51191234D01*
X33020634Y51089048D01*
X33019684Y51085918D01*
X33013422Y51062546D01*
X33012679Y51059360D01*
X32991626Y50953521D01*
X32991093Y50950294D01*
X32987935Y50926304D01*
X32987614Y50923049D01*
X32980557Y50815368D01*
X32980450Y50812098D01*
X32980450Y50787902D01*
X32980557Y50784632D01*
X32987614Y50676951D01*
X32987935Y50673696D01*
X32991093Y50649706D01*
X32991626Y50646479D01*
X33012679Y50540640D01*
X33013422Y50537454D01*
X33019684Y50514082D01*
X33020634Y50510952D01*
X33055321Y50408766D01*
X33056473Y50405705D01*
X33065733Y50383350D01*
X33067083Y50380371D01*
X33114811Y50283587D01*
X33116353Y50280702D01*
X33128452Y50259747D01*
X33130179Y50256970D01*
X33190132Y50167244D01*
X33192037Y50164585D01*
X33206767Y50145388D01*
X33208842Y50142860D01*
X33279994Y50061727D01*
X33282230Y50059340D01*
X33299340Y50042230D01*
X33301727Y50039994D01*
X33382860Y49968842D01*
X33385388Y49966767D01*
X33404585Y49952037D01*
X33407244Y49950132D01*
X33496970Y49890179D01*
X33499747Y49888452D01*
X33520702Y49876353D01*
X33523587Y49874811D01*
X33620371Y49827083D01*
X33623350Y49825733D01*
X33645705Y49816473D01*
X33648766Y49815321D01*
X33750952Y49780634D01*
X33754082Y49779684D01*
X33777454Y49773422D01*
X33780640Y49772679D01*
X33886479Y49751626D01*
X33889706Y49751093D01*
X33913696Y49747935D01*
X33916951Y49747614D01*
X34024632Y49740557D01*
X34027902Y49740450D01*
X34052098Y49740450D01*
X34055368Y49740557D01*
X34163049Y49747614D01*
X34166304Y49747935D01*
X34190294Y49751093D01*
X34193521Y49751626D01*
X34299360Y49772679D01*
X34302546Y49773422D01*
X34325918Y49779684D01*
X34329048Y49780634D01*
X34431234Y49815321D01*
X34434295Y49816473D01*
X34456650Y49825733D01*
X34459629Y49827083D01*
X34556413Y49874811D01*
X34559298Y49876353D01*
X34580253Y49888452D01*
X34583030Y49890179D01*
X34672756Y49950132D01*
X34675415Y49952037D01*
X34694612Y49966767D01*
X34697140Y49968842D01*
X34778273Y50039994D01*
X34780660Y50042230D01*
X34797770Y50059340D01*
X34800006Y50061727D01*
X34871158Y50142860D01*
G37*
%LPD*%
%LPC*%
G36*
X33758273Y1779994D02*
X33760660Y1782230D01*
X33777770Y1799340D01*
X33780006Y1801727D01*
X33851158Y1882860D01*
X33853233Y1885388D01*
X33867963Y1904585D01*
X33869868Y1907244D01*
X33929821Y1996970D01*
X33931548Y1999747D01*
X33943647Y2020702D01*
X33945189Y2023587D01*
X33992917Y2120371D01*
X33994267Y2123350D01*
X34003527Y2145705D01*
X34004679Y2148766D01*
X34039366Y2250952D01*
X34040316Y2254082D01*
X34046578Y2277454D01*
X34047321Y2280640D01*
X34068374Y2386479D01*
X34068907Y2389706D01*
X34072065Y2413696D01*
X34072386Y2416951D01*
X34079443Y2524632D01*
X34079550Y2527902D01*
X34079550Y2552098D01*
X34079443Y2555368D01*
X34072386Y2663049D01*
X34072065Y2666304D01*
X34068907Y2690294D01*
X34068374Y2693521D01*
X34047321Y2799360D01*
X34046578Y2802546D01*
X34040316Y2825918D01*
X34039366Y2829048D01*
X34004679Y2931234D01*
X34003527Y2934295D01*
X33994267Y2956650D01*
X33992917Y2959629D01*
X33945189Y3056413D01*
X33943647Y3059298D01*
X33931548Y3080253D01*
X33929821Y3083030D01*
X33869868Y3172756D01*
X33867963Y3175415D01*
X33853233Y3194612D01*
X33851158Y3197140D01*
X33780006Y3278273D01*
X33777770Y3280660D01*
X33760660Y3297770D01*
X33758273Y3300006D01*
X33677140Y3371158D01*
X33674612Y3373233D01*
X33655415Y3387963D01*
X33652756Y3389868D01*
X33563030Y3449821D01*
X33560253Y3451548D01*
X33539298Y3463647D01*
X33536413Y3465189D01*
X33439629Y3512917D01*
X33436650Y3514267D01*
X33414295Y3523527D01*
X33411234Y3524679D01*
X33309048Y3559366D01*
X33305918Y3560316D01*
X33282546Y3566578D01*
X33279360Y3567321D01*
X33173521Y3588374D01*
X33170294Y3588907D01*
X33146304Y3592065D01*
X33143049Y3592386D01*
X33035368Y3599443D01*
X33032098Y3599550D01*
X33007902Y3599550D01*
X33004632Y3599443D01*
X32896951Y3592386D01*
X32893696Y3592065D01*
X32869706Y3588907D01*
X32866479Y3588374D01*
X32760640Y3567321D01*
X32757454Y3566578D01*
X32734082Y3560316D01*
X32730952Y3559366D01*
X32628766Y3524679D01*
X32625705Y3523527D01*
X32603350Y3514267D01*
X32600371Y3512917D01*
X32503587Y3465189D01*
X32500702Y3463647D01*
X32479747Y3451548D01*
X32476970Y3449821D01*
X32387244Y3389868D01*
X32384585Y3387963D01*
X32365388Y3373233D01*
X32362860Y3371158D01*
X32281727Y3300006D01*
X32279340Y3297770D01*
X32262230Y3280660D01*
X32259994Y3278273D01*
X32188842Y3197140D01*
X32186767Y3194612D01*
X32172037Y3175415D01*
X32170132Y3172756D01*
X32110179Y3083030D01*
X32108452Y3080253D01*
X32096353Y3059298D01*
X32094811Y3056413D01*
X32047083Y2959629D01*
X32045733Y2956650D01*
X32036473Y2934295D01*
X32035321Y2931234D01*
X32000634Y2829048D01*
X31999684Y2825918D01*
X31993422Y2802546D01*
X31992679Y2799360D01*
X31971626Y2693521D01*
X31971093Y2690294D01*
X31967935Y2666304D01*
X31967614Y2663049D01*
X31960557Y2555368D01*
X31960450Y2552098D01*
X31960450Y2527902D01*
X31960557Y2524632D01*
X31967614Y2416951D01*
X31967935Y2413696D01*
X31971093Y2389706D01*
X31971626Y2386479D01*
X31992679Y2280640D01*
X31993422Y2277454D01*
X31999684Y2254082D01*
X32000634Y2250952D01*
X32035321Y2148766D01*
X32036473Y2145705D01*
X32045733Y2123350D01*
X32047083Y2120371D01*
X32094811Y2023587D01*
X32096353Y2020702D01*
X32108452Y1999747D01*
X32110179Y1996970D01*
X32170132Y1907244D01*
X32172037Y1904585D01*
X32186767Y1885388D01*
X32188842Y1882860D01*
X32259994Y1801727D01*
X32262230Y1799340D01*
X32279340Y1782230D01*
X32281727Y1779994D01*
X32362860Y1708842D01*
X32365388Y1706767D01*
X32384585Y1692037D01*
X32387244Y1690132D01*
X32476970Y1630179D01*
X32479747Y1628452D01*
X32500702Y1616353D01*
X32503587Y1614811D01*
X32600371Y1567083D01*
X32603350Y1565733D01*
X32625705Y1556473D01*
X32628766Y1555321D01*
X32730952Y1520634D01*
X32734082Y1519684D01*
X32757454Y1513422D01*
X32760640Y1512679D01*
X32866479Y1491626D01*
X32869706Y1491093D01*
X32893696Y1487935D01*
X32896951Y1487614D01*
X33004632Y1480557D01*
X33007902Y1480450D01*
X33032098Y1480450D01*
X33035368Y1480557D01*
X33143049Y1487614D01*
X33146304Y1487935D01*
X33170294Y1491093D01*
X33173521Y1491626D01*
X33279360Y1512679D01*
X33282546Y1513422D01*
X33305918Y1519684D01*
X33309048Y1520634D01*
X33411234Y1555321D01*
X33414295Y1556473D01*
X33436650Y1565733D01*
X33439629Y1567083D01*
X33536413Y1614811D01*
X33539298Y1616353D01*
X33560253Y1628452D01*
X33563030Y1630179D01*
X33652756Y1690132D01*
X33655415Y1692037D01*
X33674612Y1706767D01*
X33677140Y1708842D01*
X33758273Y1779994D01*
G37*
%LPD*%
%LPC*%
G36*
X32238273Y50039994D02*
X32240660Y50042230D01*
X32257770Y50059340D01*
X32260006Y50061727D01*
X32331158Y50142860D01*
X32333233Y50145388D01*
X32347963Y50164585D01*
X32349868Y50167244D01*
X32409821Y50256970D01*
X32411548Y50259747D01*
X32423647Y50280702D01*
X32425189Y50283587D01*
X32472917Y50380371D01*
X32474267Y50383350D01*
X32483527Y50405705D01*
X32484679Y50408766D01*
X32519366Y50510952D01*
X32520316Y50514082D01*
X32526578Y50537454D01*
X32527321Y50540640D01*
X32548374Y50646479D01*
X32548907Y50649706D01*
X32552065Y50673696D01*
X32552386Y50676951D01*
X32559443Y50784632D01*
X32559550Y50787902D01*
X32559550Y50812098D01*
X32559443Y50815368D01*
X32552386Y50923049D01*
X32552065Y50926304D01*
X32548907Y50950294D01*
X32548374Y50953521D01*
X32527321Y51059360D01*
X32526578Y51062546D01*
X32520316Y51085918D01*
X32519366Y51089048D01*
X32484679Y51191234D01*
X32483527Y51194295D01*
X32474267Y51216650D01*
X32472917Y51219629D01*
X32425189Y51316413D01*
X32423647Y51319298D01*
X32411548Y51340253D01*
X32409821Y51343030D01*
X32349868Y51432756D01*
X32347963Y51435415D01*
X32333233Y51454612D01*
X32331158Y51457140D01*
X32260006Y51538273D01*
X32257770Y51540660D01*
X32240660Y51557770D01*
X32238273Y51560006D01*
X32157140Y51631158D01*
X32154612Y51633233D01*
X32135415Y51647963D01*
X32132756Y51649868D01*
X32043030Y51709821D01*
X32040253Y51711548D01*
X32019298Y51723647D01*
X32016413Y51725189D01*
X31919629Y51772917D01*
X31916650Y51774267D01*
X31894295Y51783527D01*
X31891234Y51784679D01*
X31789048Y51819366D01*
X31785918Y51820316D01*
X31762546Y51826578D01*
X31759360Y51827321D01*
X31653521Y51848374D01*
X31650294Y51848907D01*
X31626304Y51852065D01*
X31623049Y51852386D01*
X31515368Y51859443D01*
X31512098Y51859550D01*
X31487902Y51859550D01*
X31484632Y51859443D01*
X31376951Y51852386D01*
X31373696Y51852065D01*
X31349706Y51848907D01*
X31346479Y51848374D01*
X31240640Y51827321D01*
X31237454Y51826578D01*
X31214082Y51820316D01*
X31210952Y51819366D01*
X31108766Y51784679D01*
X31105705Y51783527D01*
X31083350Y51774267D01*
X31080371Y51772917D01*
X30983587Y51725189D01*
X30980702Y51723647D01*
X30959747Y51711548D01*
X30956970Y51709821D01*
X30867244Y51649868D01*
X30864585Y51647963D01*
X30845388Y51633233D01*
X30842860Y51631158D01*
X30761727Y51560006D01*
X30759340Y51557770D01*
X30742230Y51540660D01*
X30739994Y51538273D01*
X30668842Y51457140D01*
X30666767Y51454612D01*
X30652037Y51435415D01*
X30650132Y51432756D01*
X30590179Y51343030D01*
X30588452Y51340253D01*
X30576353Y51319298D01*
X30574811Y51316413D01*
X30527083Y51219629D01*
X30525733Y51216650D01*
X30516473Y51194295D01*
X30515321Y51191234D01*
X30480634Y51089048D01*
X30479684Y51085918D01*
X30473422Y51062546D01*
X30472679Y51059360D01*
X30451626Y50953521D01*
X30451093Y50950294D01*
X30447935Y50926304D01*
X30447614Y50923049D01*
X30440557Y50815368D01*
X30440450Y50812098D01*
X30440450Y50787902D01*
X30440557Y50784632D01*
X30447614Y50676951D01*
X30447935Y50673696D01*
X30451093Y50649706D01*
X30451626Y50646479D01*
X30472679Y50540640D01*
X30473422Y50537454D01*
X30479684Y50514082D01*
X30480634Y50510952D01*
X30515321Y50408766D01*
X30516473Y50405705D01*
X30525733Y50383350D01*
X30527083Y50380371D01*
X30574811Y50283587D01*
X30576353Y50280702D01*
X30588452Y50259747D01*
X30590179Y50256970D01*
X30650132Y50167244D01*
X30652037Y50164585D01*
X30666767Y50145388D01*
X30668842Y50142860D01*
X30739994Y50061727D01*
X30742230Y50059340D01*
X30759340Y50042230D01*
X30761727Y50039994D01*
X30842860Y49968842D01*
X30845388Y49966767D01*
X30864585Y49952037D01*
X30867244Y49950132D01*
X30956970Y49890179D01*
X30959747Y49888452D01*
X30980702Y49876353D01*
X30983587Y49874811D01*
X31080371Y49827083D01*
X31083350Y49825733D01*
X31105705Y49816473D01*
X31108766Y49815321D01*
X31210952Y49780634D01*
X31214082Y49779684D01*
X31237454Y49773422D01*
X31240640Y49772679D01*
X31346479Y49751626D01*
X31349706Y49751093D01*
X31373696Y49747935D01*
X31376951Y49747614D01*
X31484632Y49740557D01*
X31487902Y49740450D01*
X31512098Y49740450D01*
X31515368Y49740557D01*
X31623049Y49747614D01*
X31626304Y49747935D01*
X31650294Y49751093D01*
X31653521Y49751626D01*
X31759360Y49772679D01*
X31762546Y49773422D01*
X31785918Y49779684D01*
X31789048Y49780634D01*
X31891234Y49815321D01*
X31894295Y49816473D01*
X31916650Y49825733D01*
X31919629Y49827083D01*
X32016413Y49874811D01*
X32019298Y49876353D01*
X32040253Y49888452D01*
X32043030Y49890179D01*
X32132756Y49950132D01*
X32135415Y49952037D01*
X32154612Y49966767D01*
X32157140Y49968842D01*
X32238273Y50039994D01*
G37*
%LPD*%
%LPC*%
G36*
X31311158Y1882860D02*
X31313233Y1885388D01*
X31327963Y1904585D01*
X31329868Y1907244D01*
X31389821Y1996970D01*
X31391548Y1999747D01*
X31403647Y2020702D01*
X31405189Y2023587D01*
X31452917Y2120371D01*
X31454267Y2123350D01*
X31463527Y2145705D01*
X31464679Y2148766D01*
X31499366Y2250952D01*
X31500316Y2254082D01*
X31506578Y2277454D01*
X31507321Y2280640D01*
X31528374Y2386479D01*
X31528907Y2389706D01*
X31532065Y2413696D01*
X31532386Y2416951D01*
X31539443Y2524632D01*
X31539550Y2527902D01*
X31539550Y2552098D01*
X31539443Y2555368D01*
X31532386Y2663049D01*
X31532065Y2666304D01*
X31528907Y2690294D01*
X31528374Y2693521D01*
X31507321Y2799360D01*
X31506578Y2802546D01*
X31500316Y2825918D01*
X31499366Y2829048D01*
X31464679Y2931234D01*
X31463527Y2934295D01*
X31454267Y2956650D01*
X31452917Y2959629D01*
X31405189Y3056413D01*
X31403647Y3059298D01*
X31391548Y3080253D01*
X31389821Y3083030D01*
X31329868Y3172756D01*
X31327963Y3175415D01*
X31313233Y3194612D01*
X31311158Y3197140D01*
X31240006Y3278273D01*
X31237770Y3280660D01*
X31220660Y3297770D01*
X31218273Y3300006D01*
X31137140Y3371158D01*
X31134612Y3373233D01*
X31115415Y3387963D01*
X31112756Y3389868D01*
X31023030Y3449821D01*
X31020253Y3451548D01*
X30999298Y3463647D01*
X30996413Y3465189D01*
X30899629Y3512917D01*
X30896650Y3514267D01*
X30874295Y3523527D01*
X30871234Y3524679D01*
X30769048Y3559366D01*
X30765918Y3560316D01*
X30742546Y3566578D01*
X30739360Y3567321D01*
X30633521Y3588374D01*
X30630294Y3588907D01*
X30606304Y3592065D01*
X30603049Y3592386D01*
X30495368Y3599443D01*
X30492098Y3599550D01*
X30467902Y3599550D01*
X30464632Y3599443D01*
X30356951Y3592386D01*
X30353696Y3592065D01*
X30329706Y3588907D01*
X30326479Y3588374D01*
X30220640Y3567321D01*
X30217454Y3566578D01*
X30194082Y3560316D01*
X30190952Y3559366D01*
X30088766Y3524679D01*
X30085705Y3523527D01*
X30063350Y3514267D01*
X30060371Y3512917D01*
X29963587Y3465189D01*
X29960702Y3463647D01*
X29939747Y3451548D01*
X29936970Y3449821D01*
X29847244Y3389868D01*
X29844585Y3387963D01*
X29825388Y3373233D01*
X29822860Y3371158D01*
X29741727Y3300006D01*
X29739340Y3297770D01*
X29722230Y3280660D01*
X29719994Y3278273D01*
X29648842Y3197140D01*
X29646767Y3194612D01*
X29632037Y3175415D01*
X29630132Y3172756D01*
X29570179Y3083030D01*
X29568452Y3080253D01*
X29556353Y3059298D01*
X29554811Y3056413D01*
X29507083Y2959629D01*
X29505733Y2956650D01*
X29496473Y2934295D01*
X29495321Y2931234D01*
X29460634Y2829048D01*
X29459684Y2825918D01*
X29453422Y2802546D01*
X29452679Y2799360D01*
X29431626Y2693521D01*
X29431093Y2690294D01*
X29427935Y2666304D01*
X29427614Y2663049D01*
X29420557Y2555368D01*
X29420450Y2552098D01*
X29420450Y2527902D01*
X29420557Y2524632D01*
X29427614Y2416951D01*
X29427935Y2413696D01*
X29431093Y2389706D01*
X29431626Y2386479D01*
X29452679Y2280640D01*
X29453422Y2277454D01*
X29459684Y2254082D01*
X29460634Y2250952D01*
X29495321Y2148766D01*
X29496473Y2145705D01*
X29505733Y2123350D01*
X29507083Y2120371D01*
X29554811Y2023587D01*
X29556353Y2020702D01*
X29568452Y1999747D01*
X29570179Y1996970D01*
X29630132Y1907244D01*
X29632037Y1904585D01*
X29646767Y1885388D01*
X29648842Y1882860D01*
X29719994Y1801727D01*
X29722230Y1799340D01*
X29739340Y1782230D01*
X29741727Y1779994D01*
X29822860Y1708842D01*
X29825388Y1706767D01*
X29844585Y1692037D01*
X29847244Y1690132D01*
X29936970Y1630179D01*
X29939747Y1628452D01*
X29960702Y1616353D01*
X29963587Y1614811D01*
X30060371Y1567083D01*
X30063350Y1565733D01*
X30085705Y1556473D01*
X30088766Y1555321D01*
X30190952Y1520634D01*
X30194082Y1519684D01*
X30217454Y1513422D01*
X30220640Y1512679D01*
X30326479Y1491626D01*
X30329706Y1491093D01*
X30353696Y1487935D01*
X30356951Y1487614D01*
X30464632Y1480557D01*
X30467902Y1480450D01*
X30492098Y1480450D01*
X30495368Y1480557D01*
X30603049Y1487614D01*
X30606304Y1487935D01*
X30630294Y1491093D01*
X30633521Y1491626D01*
X30739360Y1512679D01*
X30742546Y1513422D01*
X30765918Y1519684D01*
X30769048Y1520634D01*
X30871234Y1555321D01*
X30874295Y1556473D01*
X30896650Y1565733D01*
X30899629Y1567083D01*
X30996413Y1614811D01*
X30999298Y1616353D01*
X31020253Y1628452D01*
X31023030Y1630179D01*
X31112756Y1690132D01*
X31115415Y1692037D01*
X31134612Y1706767D01*
X31137140Y1708842D01*
X31218273Y1779994D01*
X31220660Y1782230D01*
X31237770Y1799340D01*
X31240006Y1801727D01*
X31311158Y1882860D01*
G37*
%LPD*%
%LPC*%
G36*
X29791158Y50142860D02*
X29793233Y50145388D01*
X29807963Y50164585D01*
X29809868Y50167244D01*
X29869821Y50256970D01*
X29871548Y50259747D01*
X29883647Y50280702D01*
X29885189Y50283587D01*
X29932917Y50380371D01*
X29934267Y50383350D01*
X29943527Y50405705D01*
X29944679Y50408766D01*
X29979366Y50510952D01*
X29980316Y50514082D01*
X29986578Y50537454D01*
X29987321Y50540640D01*
X30008374Y50646479D01*
X30008907Y50649706D01*
X30012065Y50673696D01*
X30012386Y50676951D01*
X30019443Y50784632D01*
X30019550Y50787902D01*
X30019550Y50812098D01*
X30019443Y50815368D01*
X30012386Y50923049D01*
X30012065Y50926304D01*
X30008907Y50950294D01*
X30008374Y50953521D01*
X29987321Y51059360D01*
X29986578Y51062546D01*
X29980316Y51085918D01*
X29979366Y51089048D01*
X29944679Y51191234D01*
X29943527Y51194295D01*
X29934267Y51216650D01*
X29932917Y51219629D01*
X29885189Y51316413D01*
X29883647Y51319298D01*
X29871548Y51340253D01*
X29869821Y51343030D01*
X29809868Y51432756D01*
X29807963Y51435415D01*
X29793233Y51454612D01*
X29791158Y51457140D01*
X29720006Y51538273D01*
X29717770Y51540660D01*
X29700660Y51557770D01*
X29698273Y51560006D01*
X29617140Y51631158D01*
X29614612Y51633233D01*
X29595415Y51647963D01*
X29592756Y51649868D01*
X29503030Y51709821D01*
X29500253Y51711548D01*
X29479298Y51723647D01*
X29476413Y51725189D01*
X29379629Y51772917D01*
X29376650Y51774267D01*
X29354295Y51783527D01*
X29351234Y51784679D01*
X29249048Y51819366D01*
X29245918Y51820316D01*
X29222546Y51826578D01*
X29219360Y51827321D01*
X29113521Y51848374D01*
X29110294Y51848907D01*
X29086304Y51852065D01*
X29083049Y51852386D01*
X28975368Y51859443D01*
X28972098Y51859550D01*
X28947902Y51859550D01*
X28944632Y51859443D01*
X28836951Y51852386D01*
X28833696Y51852065D01*
X28809706Y51848907D01*
X28806479Y51848374D01*
X28700640Y51827321D01*
X28697454Y51826578D01*
X28674082Y51820316D01*
X28670952Y51819366D01*
X28568766Y51784679D01*
X28565705Y51783527D01*
X28543350Y51774267D01*
X28540371Y51772917D01*
X28443587Y51725189D01*
X28440702Y51723647D01*
X28419747Y51711548D01*
X28416970Y51709821D01*
X28327244Y51649868D01*
X28324585Y51647963D01*
X28305388Y51633233D01*
X28302860Y51631158D01*
X28221727Y51560006D01*
X28219340Y51557770D01*
X28202230Y51540660D01*
X28199994Y51538273D01*
X28128842Y51457140D01*
X28126767Y51454612D01*
X28112037Y51435415D01*
X28110132Y51432756D01*
X28050179Y51343030D01*
X28048452Y51340253D01*
X28036353Y51319298D01*
X28034811Y51316413D01*
X27987083Y51219629D01*
X27985733Y51216650D01*
X27976473Y51194295D01*
X27975321Y51191234D01*
X27940634Y51089048D01*
X27939684Y51085918D01*
X27933422Y51062546D01*
X27932679Y51059360D01*
X27911626Y50953521D01*
X27911093Y50950294D01*
X27907935Y50926304D01*
X27907614Y50923049D01*
X27900557Y50815368D01*
X27900450Y50812098D01*
X27900450Y50787902D01*
X27900557Y50784632D01*
X27907614Y50676951D01*
X27907935Y50673696D01*
X27911093Y50649706D01*
X27911626Y50646479D01*
X27932679Y50540640D01*
X27933422Y50537454D01*
X27939684Y50514082D01*
X27940634Y50510952D01*
X27975321Y50408766D01*
X27976473Y50405705D01*
X27985733Y50383350D01*
X27987083Y50380371D01*
X28034811Y50283587D01*
X28036353Y50280702D01*
X28048452Y50259747D01*
X28050179Y50256970D01*
X28110132Y50167244D01*
X28112037Y50164585D01*
X28126767Y50145388D01*
X28128842Y50142860D01*
X28199994Y50061727D01*
X28202230Y50059340D01*
X28219340Y50042230D01*
X28221727Y50039994D01*
X28302860Y49968842D01*
X28305388Y49966767D01*
X28324585Y49952037D01*
X28327244Y49950132D01*
X28416970Y49890179D01*
X28419747Y49888452D01*
X28440702Y49876353D01*
X28443587Y49874811D01*
X28540371Y49827083D01*
X28543350Y49825733D01*
X28565705Y49816473D01*
X28568766Y49815321D01*
X28670952Y49780634D01*
X28674082Y49779684D01*
X28697454Y49773422D01*
X28700640Y49772679D01*
X28806479Y49751626D01*
X28809706Y49751093D01*
X28833696Y49747935D01*
X28836951Y49747614D01*
X28944632Y49740557D01*
X28947902Y49740450D01*
X28972098Y49740450D01*
X28975368Y49740557D01*
X29083049Y49747614D01*
X29086304Y49747935D01*
X29110294Y49751093D01*
X29113521Y49751626D01*
X29219360Y49772679D01*
X29222546Y49773422D01*
X29245918Y49779684D01*
X29249048Y49780634D01*
X29351234Y49815321D01*
X29354295Y49816473D01*
X29376650Y49825733D01*
X29379629Y49827083D01*
X29476413Y49874811D01*
X29479298Y49876353D01*
X29500253Y49888452D01*
X29503030Y49890179D01*
X29592756Y49950132D01*
X29595415Y49952037D01*
X29614612Y49966767D01*
X29617140Y49968842D01*
X29698273Y50039994D01*
X29700660Y50042230D01*
X29717770Y50059340D01*
X29720006Y50061727D01*
X29791158Y50142860D01*
G37*
%LPD*%
%LPC*%
G36*
X27091227Y3600000D02*
X27088774Y3599940D01*
X27071868Y3599109D01*
X27066988Y3598629D01*
X27051459Y3596325D01*
X27046650Y3595368D01*
X27031422Y3591554D01*
X27026729Y3590130D01*
X27011948Y3584842D01*
X27007417Y3582965D01*
X26993226Y3576253D01*
X26988901Y3573941D01*
X26975436Y3565871D01*
X26971358Y3563146D01*
X26958749Y3553795D01*
X26954958Y3550684D01*
X26943327Y3540141D01*
X26939859Y3536673D01*
X26929316Y3525042D01*
X26926205Y3521251D01*
X26916854Y3508642D01*
X26914129Y3504564D01*
X26906059Y3491099D01*
X26903747Y3486774D01*
X26897035Y3472583D01*
X26895158Y3468052D01*
X26889870Y3453271D01*
X26888446Y3448578D01*
X26884632Y3433350D01*
X26883675Y3428541D01*
X26881371Y3413012D01*
X26880891Y3408132D01*
X26880060Y3391226D01*
X26880000Y3388773D01*
X26880000Y1691227D01*
X26880060Y1688774D01*
X26880891Y1671868D01*
X26881371Y1666988D01*
X26883675Y1651459D01*
X26884632Y1646650D01*
X26888446Y1631422D01*
X26889870Y1626729D01*
X26895158Y1611948D01*
X26897035Y1607417D01*
X26903747Y1593226D01*
X26906059Y1588901D01*
X26914129Y1575436D01*
X26916854Y1571358D01*
X26926205Y1558749D01*
X26929316Y1554958D01*
X26939859Y1543327D01*
X26943327Y1539859D01*
X26954958Y1529316D01*
X26958749Y1526205D01*
X26971358Y1516854D01*
X26975436Y1514129D01*
X26988901Y1506059D01*
X26993226Y1503747D01*
X27007417Y1497035D01*
X27011948Y1495158D01*
X27026729Y1489870D01*
X27031422Y1488446D01*
X27046650Y1484632D01*
X27051459Y1483675D01*
X27066988Y1481371D01*
X27071868Y1480891D01*
X27088774Y1480060D01*
X27091227Y1480000D01*
X28788773Y1480000D01*
X28791226Y1480060D01*
X28808132Y1480891D01*
X28813012Y1481371D01*
X28828541Y1483675D01*
X28833350Y1484632D01*
X28848578Y1488446D01*
X28853271Y1489870D01*
X28868052Y1495158D01*
X28872583Y1497035D01*
X28886774Y1503747D01*
X28891099Y1506059D01*
X28904564Y1514129D01*
X28908642Y1516854D01*
X28921251Y1526205D01*
X28925042Y1529316D01*
X28936673Y1539859D01*
X28940141Y1543327D01*
X28950684Y1554958D01*
X28953795Y1558749D01*
X28963146Y1571358D01*
X28965871Y1575436D01*
X28973941Y1588901D01*
X28976253Y1593226D01*
X28982965Y1607417D01*
X28984842Y1611948D01*
X28990130Y1626729D01*
X28991554Y1631422D01*
X28995368Y1646650D01*
X28996325Y1651459D01*
X28998629Y1666988D01*
X28999109Y1671868D01*
X28999940Y1688774D01*
X29000000Y1691227D01*
X29000000Y3388773D01*
X28999940Y3391226D01*
X28999109Y3408132D01*
X28998629Y3413012D01*
X28996325Y3428541D01*
X28995368Y3433350D01*
X28991554Y3448578D01*
X28990130Y3453271D01*
X28984842Y3468052D01*
X28982965Y3472583D01*
X28976253Y3486774D01*
X28973941Y3491099D01*
X28965871Y3504564D01*
X28963146Y3508642D01*
X28953795Y3521251D01*
X28950684Y3525042D01*
X28940141Y3536673D01*
X28936673Y3540141D01*
X28925042Y3550684D01*
X28921251Y3553795D01*
X28908642Y3563146D01*
X28904564Y3565871D01*
X28891099Y3573941D01*
X28886774Y3576253D01*
X28872583Y3582965D01*
X28868052Y3584842D01*
X28853271Y3590130D01*
X28848578Y3591554D01*
X28833350Y3595368D01*
X28828541Y3596325D01*
X28813012Y3598629D01*
X28808132Y3599109D01*
X28791226Y3599940D01*
X28788773Y3600000D01*
X27091227Y3600000D01*
G37*
%LPD*%
%LPC*%
G36*
X24711158Y50142860D02*
X24713233Y50145388D01*
X24727963Y50164585D01*
X24729868Y50167244D01*
X24789821Y50256970D01*
X24791548Y50259747D01*
X24803647Y50280702D01*
X24805189Y50283587D01*
X24852917Y50380371D01*
X24854267Y50383350D01*
X24863527Y50405705D01*
X24864679Y50408766D01*
X24899366Y50510952D01*
X24900316Y50514082D01*
X24906578Y50537454D01*
X24907321Y50540640D01*
X24928374Y50646479D01*
X24928907Y50649706D01*
X24932065Y50673696D01*
X24932386Y50676951D01*
X24939443Y50784632D01*
X24939550Y50787902D01*
X24939550Y50812098D01*
X24939443Y50815368D01*
X24932386Y50923049D01*
X24932065Y50926304D01*
X24928907Y50950294D01*
X24928374Y50953521D01*
X24907321Y51059360D01*
X24906578Y51062546D01*
X24900316Y51085918D01*
X24899366Y51089048D01*
X24864679Y51191234D01*
X24863527Y51194295D01*
X24854267Y51216650D01*
X24852917Y51219629D01*
X24805189Y51316413D01*
X24803647Y51319298D01*
X24791548Y51340253D01*
X24789821Y51343030D01*
X24729868Y51432756D01*
X24727963Y51435415D01*
X24713233Y51454612D01*
X24711158Y51457140D01*
X24640006Y51538273D01*
X24637770Y51540660D01*
X24620660Y51557770D01*
X24618273Y51560006D01*
X24537140Y51631158D01*
X24534612Y51633233D01*
X24515415Y51647963D01*
X24512756Y51649868D01*
X24423030Y51709821D01*
X24420253Y51711548D01*
X24399298Y51723647D01*
X24396413Y51725189D01*
X24299629Y51772917D01*
X24296650Y51774267D01*
X24274295Y51783527D01*
X24271234Y51784679D01*
X24169048Y51819366D01*
X24165918Y51820316D01*
X24142546Y51826578D01*
X24139360Y51827321D01*
X24033521Y51848374D01*
X24030294Y51848907D01*
X24006304Y51852065D01*
X24003049Y51852386D01*
X23895368Y51859443D01*
X23892098Y51859550D01*
X23867902Y51859550D01*
X23864632Y51859443D01*
X23756951Y51852386D01*
X23753696Y51852065D01*
X23729706Y51848907D01*
X23726479Y51848374D01*
X23620640Y51827321D01*
X23617454Y51826578D01*
X23594082Y51820316D01*
X23590952Y51819366D01*
X23488766Y51784679D01*
X23485705Y51783527D01*
X23463350Y51774267D01*
X23460371Y51772917D01*
X23363587Y51725189D01*
X23360702Y51723647D01*
X23339747Y51711548D01*
X23336970Y51709821D01*
X23247244Y51649868D01*
X23244585Y51647963D01*
X23225388Y51633233D01*
X23222860Y51631158D01*
X23141727Y51560006D01*
X23139340Y51557770D01*
X23122230Y51540660D01*
X23119994Y51538273D01*
X23048842Y51457140D01*
X23046767Y51454612D01*
X23032037Y51435415D01*
X23030132Y51432756D01*
X22970179Y51343030D01*
X22968452Y51340253D01*
X22956353Y51319298D01*
X22954811Y51316413D01*
X22907083Y51219629D01*
X22905733Y51216650D01*
X22896473Y51194295D01*
X22895321Y51191234D01*
X22860634Y51089048D01*
X22859684Y51085918D01*
X22853422Y51062546D01*
X22852679Y51059360D01*
X22831626Y50953521D01*
X22831093Y50950294D01*
X22827935Y50926304D01*
X22827614Y50923049D01*
X22820557Y50815368D01*
X22820450Y50812098D01*
X22820450Y50787902D01*
X22820557Y50784632D01*
X22827614Y50676951D01*
X22827935Y50673696D01*
X22831093Y50649706D01*
X22831626Y50646479D01*
X22852679Y50540640D01*
X22853422Y50537454D01*
X22859684Y50514082D01*
X22860634Y50510952D01*
X22895321Y50408766D01*
X22896473Y50405705D01*
X22905733Y50383350D01*
X22907083Y50380371D01*
X22954811Y50283587D01*
X22956353Y50280702D01*
X22968452Y50259747D01*
X22970179Y50256970D01*
X23030132Y50167244D01*
X23032037Y50164585D01*
X23046767Y50145388D01*
X23048842Y50142860D01*
X23119994Y50061727D01*
X23122230Y50059340D01*
X23139340Y50042230D01*
X23141727Y50039994D01*
X23222860Y49968842D01*
X23225388Y49966767D01*
X23244585Y49952037D01*
X23247244Y49950132D01*
X23336970Y49890179D01*
X23339747Y49888452D01*
X23360702Y49876353D01*
X23363587Y49874811D01*
X23460371Y49827083D01*
X23463350Y49825733D01*
X23485705Y49816473D01*
X23488766Y49815321D01*
X23590952Y49780634D01*
X23594082Y49779684D01*
X23617454Y49773422D01*
X23620640Y49772679D01*
X23726479Y49751626D01*
X23729706Y49751093D01*
X23753696Y49747935D01*
X23756951Y49747614D01*
X23864632Y49740557D01*
X23867902Y49740450D01*
X23892098Y49740450D01*
X23895368Y49740557D01*
X24003049Y49747614D01*
X24006304Y49747935D01*
X24030294Y49751093D01*
X24033521Y49751626D01*
X24139360Y49772679D01*
X24142546Y49773422D01*
X24165918Y49779684D01*
X24169048Y49780634D01*
X24271234Y49815321D01*
X24274295Y49816473D01*
X24296650Y49825733D01*
X24299629Y49827083D01*
X24396413Y49874811D01*
X24399298Y49876353D01*
X24420253Y49888452D01*
X24423030Y49890179D01*
X24512756Y49950132D01*
X24515415Y49952037D01*
X24534612Y49966767D01*
X24537140Y49968842D01*
X24618273Y50039994D01*
X24620660Y50042230D01*
X24637770Y50059340D01*
X24640006Y50061727D01*
X24711158Y50142860D01*
G37*
%LPD*%
%LPC*%
G36*
X17740000Y49951227D02*
X17740060Y49948774D01*
X17740891Y49931868D01*
X17741371Y49926988D01*
X17743675Y49911459D01*
X17744632Y49906650D01*
X17748446Y49891422D01*
X17749870Y49886729D01*
X17755158Y49871948D01*
X17757035Y49867417D01*
X17763747Y49853226D01*
X17766059Y49848901D01*
X17774129Y49835436D01*
X17776854Y49831358D01*
X17786205Y49818749D01*
X17789316Y49814958D01*
X17799859Y49803327D01*
X17803327Y49799859D01*
X17814958Y49789316D01*
X17818749Y49786205D01*
X17831358Y49776854D01*
X17835436Y49774129D01*
X17848901Y49766059D01*
X17853226Y49763747D01*
X17867417Y49757035D01*
X17871948Y49755158D01*
X17886729Y49749870D01*
X17891422Y49748446D01*
X17906650Y49744632D01*
X17911459Y49743675D01*
X17926988Y49741371D01*
X17931868Y49740891D01*
X17948774Y49740060D01*
X17951227Y49740000D01*
X19648773Y49740000D01*
X19651226Y49740060D01*
X19668132Y49740891D01*
X19673012Y49741371D01*
X19688541Y49743675D01*
X19693350Y49744632D01*
X19708578Y49748446D01*
X19713271Y49749870D01*
X19728052Y49755158D01*
X19732583Y49757035D01*
X19746774Y49763747D01*
X19751099Y49766059D01*
X19764564Y49774129D01*
X19768642Y49776854D01*
X19781251Y49786205D01*
X19785042Y49789316D01*
X19796673Y49799859D01*
X19800141Y49803327D01*
X19810684Y49814958D01*
X19813795Y49818749D01*
X19823146Y49831358D01*
X19825871Y49835436D01*
X19833941Y49848901D01*
X19836253Y49853226D01*
X19842965Y49867417D01*
X19844842Y49871948D01*
X19850130Y49886729D01*
X19851554Y49891422D01*
X19855368Y49906650D01*
X19856325Y49911459D01*
X19858629Y49926988D01*
X19859109Y49931868D01*
X19859940Y49948774D01*
X19860000Y49951227D01*
X19860000Y51648773D01*
X19859940Y51651226D01*
X19859109Y51668132D01*
X19858629Y51673012D01*
X19856325Y51688541D01*
X19855368Y51693350D01*
X19851554Y51708578D01*
X19850130Y51713271D01*
X19844842Y51728052D01*
X19842965Y51732583D01*
X19836253Y51746774D01*
X19833941Y51751099D01*
X19825871Y51764564D01*
X19823146Y51768642D01*
X19813795Y51781251D01*
X19810684Y51785042D01*
X19800141Y51796673D01*
X19796673Y51800141D01*
X19785042Y51810684D01*
X19781251Y51813795D01*
X19768642Y51823146D01*
X19764564Y51825871D01*
X19751099Y51833941D01*
X19746774Y51836253D01*
X19732583Y51842965D01*
X19728052Y51844842D01*
X19713271Y51850130D01*
X19708578Y51851554D01*
X19693350Y51855368D01*
X19688541Y51856325D01*
X19673012Y51858629D01*
X19668132Y51859109D01*
X19651226Y51859940D01*
X19648773Y51860000D01*
X17951227Y51860000D01*
X17948774Y51859940D01*
X17931868Y51859109D01*
X17926988Y51858629D01*
X17911459Y51856325D01*
X17906650Y51855368D01*
X17891422Y51851554D01*
X17886729Y51850130D01*
X17871948Y51844842D01*
X17867417Y51842965D01*
X17853226Y51836253D01*
X17848901Y51833941D01*
X17835436Y51825871D01*
X17831358Y51823146D01*
X17818749Y51813795D01*
X17814958Y51810684D01*
X17803327Y51800141D01*
X17799859Y51796673D01*
X17789316Y51785042D01*
X17786205Y51781251D01*
X17776854Y51768642D01*
X17774129Y51764564D01*
X17766059Y51751099D01*
X17763747Y51746774D01*
X17757035Y51732583D01*
X17755158Y51728052D01*
X17749870Y51713271D01*
X17748446Y51708578D01*
X17744632Y51693350D01*
X17743675Y51688541D01*
X17741371Y51673012D01*
X17740891Y51668132D01*
X17740060Y51651226D01*
X17740000Y51648773D01*
X17740000Y49951227D01*
G37*
%LPD*%
%LPC*%
G36*
X19620825Y31562422D02*
X19622901Y31564950D01*
X19637630Y31584147D01*
X19639536Y31586806D01*
X19703122Y31681970D01*
X19704850Y31684747D01*
X19716948Y31705702D01*
X19718490Y31708587D01*
X19769111Y31811237D01*
X19770461Y31814216D01*
X19779721Y31836571D01*
X19780873Y31839632D01*
X19817663Y31948011D01*
X19818612Y31951141D01*
X19824875Y31974513D01*
X19825617Y31977699D01*
X19847946Y32089953D01*
X19848479Y32093180D01*
X19851637Y32117169D01*
X19851958Y32120425D01*
X19859443Y32234632D01*
X19859550Y32237902D01*
X19859550Y32262098D01*
X19859443Y32265368D01*
X19851958Y32379575D01*
X19851637Y32382831D01*
X19848479Y32406820D01*
X19847946Y32410047D01*
X19825617Y32522301D01*
X19824875Y32525487D01*
X19818612Y32548859D01*
X19817663Y32551989D01*
X19780873Y32660368D01*
X19779721Y32663429D01*
X19770461Y32685784D01*
X19769111Y32688763D01*
X19718490Y32791413D01*
X19716948Y32794298D01*
X19704850Y32815253D01*
X19703122Y32818030D01*
X19639536Y32913194D01*
X19637630Y32915853D01*
X19622901Y32935050D01*
X19620825Y32937578D01*
X19545361Y33023628D01*
X19543125Y33026016D01*
X19526016Y33043125D01*
X19523628Y33045361D01*
X19437578Y33120825D01*
X19435050Y33122901D01*
X19415853Y33137630D01*
X19413194Y33139536D01*
X19318030Y33203122D01*
X19315253Y33204850D01*
X19294298Y33216948D01*
X19291413Y33218490D01*
X19188763Y33269111D01*
X19185784Y33270461D01*
X19163429Y33279721D01*
X19160368Y33280873D01*
X19051989Y33317663D01*
X19048859Y33318612D01*
X19025487Y33324875D01*
X19022301Y33325617D01*
X18910047Y33347946D01*
X18906820Y33348479D01*
X18882831Y33351637D01*
X18879575Y33351958D01*
X18765368Y33359443D01*
X18762098Y33359550D01*
X18737902Y33359550D01*
X18734632Y33359443D01*
X18620425Y33351958D01*
X18617169Y33351637D01*
X18593180Y33348479D01*
X18589953Y33347946D01*
X18477699Y33325617D01*
X18474513Y33324875D01*
X18451141Y33318612D01*
X18448011Y33317663D01*
X18339632Y33280873D01*
X18336571Y33279721D01*
X18314216Y33270461D01*
X18311237Y33269111D01*
X18208587Y33218490D01*
X18205702Y33216948D01*
X18184747Y33204850D01*
X18181970Y33203122D01*
X18086806Y33139536D01*
X18084147Y33137630D01*
X18064950Y33122901D01*
X18062422Y33120825D01*
X17976372Y33045361D01*
X17973984Y33043125D01*
X17956875Y33026016D01*
X17954639Y33023628D01*
X17879175Y32937578D01*
X17877099Y32935050D01*
X17862370Y32915853D01*
X17860464Y32913194D01*
X17796878Y32818030D01*
X17795150Y32815253D01*
X17783052Y32794298D01*
X17781510Y32791413D01*
X17730889Y32688763D01*
X17729539Y32685784D01*
X17720279Y32663429D01*
X17719127Y32660368D01*
X17682337Y32551989D01*
X17681388Y32548859D01*
X17675125Y32525487D01*
X17674383Y32522301D01*
X17652054Y32410047D01*
X17651521Y32406820D01*
X17648363Y32382831D01*
X17648042Y32379575D01*
X17640557Y32265368D01*
X17640450Y32262098D01*
X17640450Y32237902D01*
X17640557Y32234632D01*
X17648042Y32120425D01*
X17648363Y32117169D01*
X17651521Y32093180D01*
X17652054Y32089953D01*
X17674383Y31977699D01*
X17675125Y31974513D01*
X17681388Y31951141D01*
X17682337Y31948011D01*
X17719127Y31839632D01*
X17720279Y31836571D01*
X17729539Y31814216D01*
X17730889Y31811237D01*
X17781510Y31708587D01*
X17783052Y31705702D01*
X17795150Y31684747D01*
X17796878Y31681970D01*
X17860464Y31586806D01*
X17862370Y31584147D01*
X17877099Y31564950D01*
X17879175Y31562422D01*
X17954639Y31476372D01*
X17956875Y31473984D01*
X17973984Y31456875D01*
X17976372Y31454639D01*
X18062422Y31379175D01*
X18064950Y31377099D01*
X18084147Y31362370D01*
X18086806Y31360464D01*
X18181970Y31296878D01*
X18184747Y31295150D01*
X18205702Y31283052D01*
X18208587Y31281510D01*
X18311237Y31230889D01*
X18314216Y31229539D01*
X18336571Y31220279D01*
X18339632Y31219127D01*
X18448011Y31182337D01*
X18451141Y31181388D01*
X18474513Y31175125D01*
X18477699Y31174383D01*
X18589953Y31152054D01*
X18593180Y31151521D01*
X18617169Y31148363D01*
X18620425Y31148042D01*
X18734632Y31140557D01*
X18737902Y31140450D01*
X18762098Y31140450D01*
X18765368Y31140557D01*
X18879575Y31148042D01*
X18882831Y31148363D01*
X18906820Y31151521D01*
X18910047Y31152054D01*
X19022301Y31174383D01*
X19025487Y31175125D01*
X19048859Y31181388D01*
X19051989Y31182337D01*
X19160368Y31219127D01*
X19163429Y31220279D01*
X19185784Y31229539D01*
X19188763Y31230889D01*
X19291413Y31281510D01*
X19294298Y31283052D01*
X19315253Y31295150D01*
X19318030Y31296878D01*
X19413194Y31360464D01*
X19415853Y31362370D01*
X19435050Y31377099D01*
X19437578Y31379175D01*
X19523628Y31454639D01*
X19526016Y31456875D01*
X19543125Y31473984D01*
X19545361Y31476372D01*
X19620825Y31562422D01*
G37*
%LPD*%
D10*
X55000000Y45250000D02*
X51250000Y49000000D01*
D10*
X51250000Y49000000D02*
X51250000Y49750000D01*
D10*
X51250000Y49750000D02*
X51000000Y50000000D01*
D10*
X40000000Y17750000D02*
X40000000Y16250000D01*
D10*
X40000000Y16250000D02*
X40500000Y15750000D01*
D10*
X40500000Y15750000D02*
X40500000Y14000000D01*
D10*
X40500000Y14000000D02*
X40750000Y13750000D01*
D10*
X40750000Y13750000D02*
X40750000Y12500000D01*
D10*
X40750000Y12500000D02*
X50000000Y3250000D01*
D10*
X37750000Y15250000D02*
X37750000Y3250000D01*
D10*
X19500000Y15750000D02*
X20500000Y14750000D01*
D10*
X20500000Y14750000D02*
X27000000Y14750000D01*
D10*
X27000000Y14750000D02*
X27250000Y15000000D01*
D10*
X27250000Y15000000D02*
X36500000Y15000000D01*
D10*
X36500000Y15000000D02*
X36750000Y15250000D01*
D10*
X21250000Y16750000D02*
X21250000Y50000000D01*
D10*
X22000000Y24000000D02*
X23500000Y25500000D01*
D10*
X23500000Y25500000D02*
X23500000Y28000000D01*
D10*
X23500000Y28000000D02*
X24500000Y29000000D01*
D10*
X24500000Y29000000D02*
X24500000Y31000000D01*
D10*
X24500000Y31000000D02*
X25000000Y31500000D01*
D11*
X55000000Y45250000D03*
D11*
X22000000Y24000000D03*
D11*
X41000000Y32062500D03*
D11*
X47000000Y32062500D03*
D11*
X53000000Y32062500D03*
D11*
X59000000Y32062500D03*
D11*
X31000000Y29062500D03*
D12*
X27940000Y2540000D03*
D13*
X30480000Y2540000D03*
D13*
X33020000Y2540000D03*
D13*
X35560000Y2540000D03*
D13*
X38100000Y2540000D03*
D13*
X40640000Y2540000D03*
D13*
X43180000Y2540000D03*
D13*
X45720000Y2540000D03*
D12*
X50800000Y2540000D03*
D13*
X53340000Y2540000D03*
D13*
X55880000Y2540000D03*
D13*
X58420000Y2540000D03*
D13*
X60960000Y2540000D03*
D13*
X63500000Y2540000D03*
D12*
X45720000Y50800000D03*
D13*
X48260000Y50800000D03*
D13*
X50800000Y50800000D03*
D13*
X53340000Y50800000D03*
D13*
X55880000Y50800000D03*
D13*
X58420000Y50800000D03*
D13*
X60960000Y50800000D03*
D13*
X63500000Y50800000D03*
D12*
X18800000Y50800000D03*
D13*
X21340000Y50800000D03*
D13*
X23880000Y50800000D03*
D13*
X26420000Y50800000D03*
D13*
X28960000Y50800000D03*
D13*
X31500000Y50800000D03*
D13*
X34040000Y50800000D03*
D13*
X36580000Y50800000D03*
D13*
X39120000Y50800000D03*
D13*
X41660000Y50800000D03*
D14*
X18750000Y32250000D03*
D14*
X25250000Y32250000D03*
D14*
X18750000Y27750000D03*
D14*
X25250000Y27750000D03*
D15*
X37460000Y16000000D03*
D16*
X40000000Y18540000D03*
D16*
X42540000Y16000000D03*
D12*
X16190000Y16000000D03*
D13*
X18730000Y16000000D03*
D13*
X21270000Y16000000D03*
D13*
X23810000Y16000000D03*
M02*
