M48
; Nyquist Labs eelab.pcb
FMAT,2
METRIC,TZ
; PTH
T1C0.300
; PTH
T2C0.900
; PTH
T3C1.000
%
T1
X55.000Y45.250
X22.000Y24.000
X41.000Y32.062
X47.000Y32.062
X53.000Y32.062
X59.000Y32.062
X31.000Y29.062
T2
X37.460Y16.000
X40.000Y18.540
X42.540Y16.000
T3
X27.940Y2.540
X30.480Y2.540
X33.020Y2.540
X35.560Y2.540
X38.100Y2.540
X40.640Y2.540
X43.180Y2.540
X45.720Y2.540
X50.800Y2.540
X53.340Y2.540
X55.880Y2.540
X58.420Y2.540
X60.960Y2.540
X63.500Y2.540
X45.720Y50.800
X48.260Y50.800
X50.800Y50.800
X53.340Y50.800
X55.880Y50.800
X58.420Y50.800
X60.960Y50.800
X63.500Y50.800
X18.800Y50.800
X21.340Y50.800
X23.880Y50.800
X26.420Y50.800
X28.960Y50.800
X31.500Y50.800
X34.040Y50.800
X36.580Y50.800
X39.120Y50.800
X41.660Y50.800
X18.750Y32.250
X25.250Y32.250
X18.750Y27.750
X25.250Y27.750
X16.190Y16.000
X18.730Y16.000
X21.270Y16.000
X23.810Y16.000
M30
