G04 Nyquist Labs eelab.pcb*
%TF.FileFunction,Paste,Top*%
%TF.FilePolarity,Positive*%
%FSLAX46Y46*%
%MOMM*%
%LPD*%
G01*
%LPD*%
G36*
X40468750Y38550000D02*
X39531250Y38550000D01*
X39464928Y38558732D01*
X39403125Y38584331D01*
X39350054Y38625054D01*
X39309331Y38678125D01*
X39283732Y38739928D01*
X39275000Y38806250D01*
X39275000Y39318750D01*
X39283732Y39385072D01*
X39309331Y39446875D01*
X39350054Y39499946D01*
X39403125Y39540669D01*
X39464928Y39566268D01*
X39531250Y39575000D01*
X40468750Y39575000D01*
X40535072Y39566268D01*
X40596875Y39540669D01*
X40649946Y39499946D01*
X40690669Y39446875D01*
X40716268Y39385072D01*
X40725000Y39318750D01*
X40725000Y38806250D01*
X40716268Y38739928D01*
X40690669Y38678125D01*
X40649946Y38625054D01*
X40596875Y38584331D01*
X40535072Y38558732D01*
X40468750Y38550000D01*
G37*
%LPD*%
%LPD*%
G36*
X40468750Y40425000D02*
X39531250Y40425000D01*
X39464928Y40433732D01*
X39403125Y40459331D01*
X39350054Y40500054D01*
X39309331Y40553125D01*
X39283732Y40614928D01*
X39275000Y40681250D01*
X39275000Y41193750D01*
X39283732Y41260072D01*
X39309331Y41321875D01*
X39350054Y41374946D01*
X39403125Y41415669D01*
X39464928Y41441268D01*
X39531250Y41450000D01*
X40468750Y41450000D01*
X40535072Y41441268D01*
X40596875Y41415669D01*
X40649946Y41374946D01*
X40690669Y41321875D01*
X40716268Y41260072D01*
X40725000Y41193750D01*
X40725000Y40681250D01*
X40716268Y40614928D01*
X40690669Y40553125D01*
X40649946Y40500054D01*
X40596875Y40459331D01*
X40535072Y40433732D01*
X40468750Y40425000D01*
G37*
%LPD*%
%LPD*%
G36*
X40468750Y31550000D02*
X39531250Y31550000D01*
X39464928Y31558732D01*
X39403125Y31584331D01*
X39350054Y31625054D01*
X39309331Y31678125D01*
X39283732Y31739928D01*
X39275000Y31806250D01*
X39275000Y32318750D01*
X39283732Y32385072D01*
X39309331Y32446875D01*
X39350054Y32499946D01*
X39403125Y32540669D01*
X39464928Y32566268D01*
X39531250Y32575000D01*
X40468750Y32575000D01*
X40535072Y32566268D01*
X40596875Y32540669D01*
X40649946Y32499946D01*
X40690669Y32446875D01*
X40716268Y32385072D01*
X40725000Y32318750D01*
X40725000Y31806250D01*
X40716268Y31739928D01*
X40690669Y31678125D01*
X40649946Y31625054D01*
X40596875Y31584331D01*
X40535072Y31558732D01*
X40468750Y31550000D01*
G37*
%LPD*%
%LPD*%
G36*
X40468750Y33425000D02*
X39531250Y33425000D01*
X39464928Y33433732D01*
X39403125Y33459331D01*
X39350054Y33500054D01*
X39309331Y33553125D01*
X39283732Y33614928D01*
X39275000Y33681250D01*
X39275000Y34193750D01*
X39283732Y34260072D01*
X39309331Y34321875D01*
X39350054Y34374946D01*
X39403125Y34415669D01*
X39464928Y34441268D01*
X39531250Y34450000D01*
X40468750Y34450000D01*
X40535072Y34441268D01*
X40596875Y34415669D01*
X40649946Y34374946D01*
X40690669Y34321875D01*
X40716268Y34260072D01*
X40725000Y34193750D01*
X40725000Y33681250D01*
X40716268Y33614928D01*
X40690669Y33553125D01*
X40649946Y33500054D01*
X40596875Y33459331D01*
X40535072Y33433732D01*
X40468750Y33425000D01*
G37*
%LPD*%
%LPD*%
G36*
X46468750Y38550000D02*
X45531250Y38550000D01*
X45464928Y38558732D01*
X45403125Y38584331D01*
X45350054Y38625054D01*
X45309331Y38678125D01*
X45283732Y38739928D01*
X45275000Y38806250D01*
X45275000Y39318750D01*
X45283732Y39385072D01*
X45309331Y39446875D01*
X45350054Y39499946D01*
X45403125Y39540669D01*
X45464928Y39566268D01*
X45531250Y39575000D01*
X46468750Y39575000D01*
X46535072Y39566268D01*
X46596875Y39540669D01*
X46649946Y39499946D01*
X46690669Y39446875D01*
X46716268Y39385072D01*
X46725000Y39318750D01*
X46725000Y38806250D01*
X46716268Y38739928D01*
X46690669Y38678125D01*
X46649946Y38625054D01*
X46596875Y38584331D01*
X46535072Y38558732D01*
X46468750Y38550000D01*
G37*
%LPD*%
%LPD*%
G36*
X46468750Y40425000D02*
X45531250Y40425000D01*
X45464928Y40433732D01*
X45403125Y40459331D01*
X45350054Y40500054D01*
X45309331Y40553125D01*
X45283732Y40614928D01*
X45275000Y40681250D01*
X45275000Y41193750D01*
X45283732Y41260072D01*
X45309331Y41321875D01*
X45350054Y41374946D01*
X45403125Y41415669D01*
X45464928Y41441268D01*
X45531250Y41450000D01*
X46468750Y41450000D01*
X46535072Y41441268D01*
X46596875Y41415669D01*
X46649946Y41374946D01*
X46690669Y41321875D01*
X46716268Y41260072D01*
X46725000Y41193750D01*
X46725000Y40681250D01*
X46716268Y40614928D01*
X46690669Y40553125D01*
X46649946Y40500054D01*
X46596875Y40459331D01*
X46535072Y40433732D01*
X46468750Y40425000D01*
G37*
%LPD*%
%LPD*%
G36*
X46468750Y31550000D02*
X45531250Y31550000D01*
X45464928Y31558732D01*
X45403125Y31584331D01*
X45350054Y31625054D01*
X45309331Y31678125D01*
X45283732Y31739928D01*
X45275000Y31806250D01*
X45275000Y32318750D01*
X45283732Y32385072D01*
X45309331Y32446875D01*
X45350054Y32499946D01*
X45403125Y32540669D01*
X45464928Y32566268D01*
X45531250Y32575000D01*
X46468750Y32575000D01*
X46535072Y32566268D01*
X46596875Y32540669D01*
X46649946Y32499946D01*
X46690669Y32446875D01*
X46716268Y32385072D01*
X46725000Y32318750D01*
X46725000Y31806250D01*
X46716268Y31739928D01*
X46690669Y31678125D01*
X46649946Y31625054D01*
X46596875Y31584331D01*
X46535072Y31558732D01*
X46468750Y31550000D01*
G37*
%LPD*%
%LPD*%
G36*
X46468750Y33425000D02*
X45531250Y33425000D01*
X45464928Y33433732D01*
X45403125Y33459331D01*
X45350054Y33500054D01*
X45309331Y33553125D01*
X45283732Y33614928D01*
X45275000Y33681250D01*
X45275000Y34193750D01*
X45283732Y34260072D01*
X45309331Y34321875D01*
X45350054Y34374946D01*
X45403125Y34415669D01*
X45464928Y34441268D01*
X45531250Y34450000D01*
X46468750Y34450000D01*
X46535072Y34441268D01*
X46596875Y34415669D01*
X46649946Y34374946D01*
X46690669Y34321875D01*
X46716268Y34260072D01*
X46725000Y34193750D01*
X46725000Y33681250D01*
X46716268Y33614928D01*
X46690669Y33553125D01*
X46649946Y33500054D01*
X46596875Y33459331D01*
X46535072Y33433732D01*
X46468750Y33425000D01*
G37*
%LPD*%
%LPD*%
G36*
X52468750Y38550000D02*
X51531250Y38550000D01*
X51464928Y38558732D01*
X51403125Y38584331D01*
X51350054Y38625054D01*
X51309331Y38678125D01*
X51283732Y38739928D01*
X51275000Y38806250D01*
X51275000Y39318750D01*
X51283732Y39385072D01*
X51309331Y39446875D01*
X51350054Y39499946D01*
X51403125Y39540669D01*
X51464928Y39566268D01*
X51531250Y39575000D01*
X52468750Y39575000D01*
X52535072Y39566268D01*
X52596875Y39540669D01*
X52649946Y39499946D01*
X52690669Y39446875D01*
X52716268Y39385072D01*
X52725000Y39318750D01*
X52725000Y38806250D01*
X52716268Y38739928D01*
X52690669Y38678125D01*
X52649946Y38625054D01*
X52596875Y38584331D01*
X52535072Y38558732D01*
X52468750Y38550000D01*
G37*
%LPD*%
%LPD*%
G36*
X52468750Y40425000D02*
X51531250Y40425000D01*
X51464928Y40433732D01*
X51403125Y40459331D01*
X51350054Y40500054D01*
X51309331Y40553125D01*
X51283732Y40614928D01*
X51275000Y40681250D01*
X51275000Y41193750D01*
X51283732Y41260072D01*
X51309331Y41321875D01*
X51350054Y41374946D01*
X51403125Y41415669D01*
X51464928Y41441268D01*
X51531250Y41450000D01*
X52468750Y41450000D01*
X52535072Y41441268D01*
X52596875Y41415669D01*
X52649946Y41374946D01*
X52690669Y41321875D01*
X52716268Y41260072D01*
X52725000Y41193750D01*
X52725000Y40681250D01*
X52716268Y40614928D01*
X52690669Y40553125D01*
X52649946Y40500054D01*
X52596875Y40459331D01*
X52535072Y40433732D01*
X52468750Y40425000D01*
G37*
%LPD*%
%LPD*%
G36*
X52468750Y31550000D02*
X51531250Y31550000D01*
X51464928Y31558732D01*
X51403125Y31584331D01*
X51350054Y31625054D01*
X51309331Y31678125D01*
X51283732Y31739928D01*
X51275000Y31806250D01*
X51275000Y32318750D01*
X51283732Y32385072D01*
X51309331Y32446875D01*
X51350054Y32499946D01*
X51403125Y32540669D01*
X51464928Y32566268D01*
X51531250Y32575000D01*
X52468750Y32575000D01*
X52535072Y32566268D01*
X52596875Y32540669D01*
X52649946Y32499946D01*
X52690669Y32446875D01*
X52716268Y32385072D01*
X52725000Y32318750D01*
X52725000Y31806250D01*
X52716268Y31739928D01*
X52690669Y31678125D01*
X52649946Y31625054D01*
X52596875Y31584331D01*
X52535072Y31558732D01*
X52468750Y31550000D01*
G37*
%LPD*%
%LPD*%
G36*
X52468750Y33425000D02*
X51531250Y33425000D01*
X51464928Y33433732D01*
X51403125Y33459331D01*
X51350054Y33500054D01*
X51309331Y33553125D01*
X51283732Y33614928D01*
X51275000Y33681250D01*
X51275000Y34193750D01*
X51283732Y34260072D01*
X51309331Y34321875D01*
X51350054Y34374946D01*
X51403125Y34415669D01*
X51464928Y34441268D01*
X51531250Y34450000D01*
X52468750Y34450000D01*
X52535072Y34441268D01*
X52596875Y34415669D01*
X52649946Y34374946D01*
X52690669Y34321875D01*
X52716268Y34260072D01*
X52725000Y34193750D01*
X52725000Y33681250D01*
X52716268Y33614928D01*
X52690669Y33553125D01*
X52649946Y33500054D01*
X52596875Y33459331D01*
X52535072Y33433732D01*
X52468750Y33425000D01*
G37*
%LPD*%
%LPD*%
G36*
X58468750Y38550000D02*
X57531250Y38550000D01*
X57464928Y38558732D01*
X57403125Y38584331D01*
X57350054Y38625054D01*
X57309331Y38678125D01*
X57283732Y38739928D01*
X57275000Y38806250D01*
X57275000Y39318750D01*
X57283732Y39385072D01*
X57309331Y39446875D01*
X57350054Y39499946D01*
X57403125Y39540669D01*
X57464928Y39566268D01*
X57531250Y39575000D01*
X58468750Y39575000D01*
X58535072Y39566268D01*
X58596875Y39540669D01*
X58649946Y39499946D01*
X58690669Y39446875D01*
X58716268Y39385072D01*
X58725000Y39318750D01*
X58725000Y38806250D01*
X58716268Y38739928D01*
X58690669Y38678125D01*
X58649946Y38625054D01*
X58596875Y38584331D01*
X58535072Y38558732D01*
X58468750Y38550000D01*
G37*
%LPD*%
%LPD*%
G36*
X58468750Y40425000D02*
X57531250Y40425000D01*
X57464928Y40433732D01*
X57403125Y40459331D01*
X57350054Y40500054D01*
X57309331Y40553125D01*
X57283732Y40614928D01*
X57275000Y40681250D01*
X57275000Y41193750D01*
X57283732Y41260072D01*
X57309331Y41321875D01*
X57350054Y41374946D01*
X57403125Y41415669D01*
X57464928Y41441268D01*
X57531250Y41450000D01*
X58468750Y41450000D01*
X58535072Y41441268D01*
X58596875Y41415669D01*
X58649946Y41374946D01*
X58690669Y41321875D01*
X58716268Y41260072D01*
X58725000Y41193750D01*
X58725000Y40681250D01*
X58716268Y40614928D01*
X58690669Y40553125D01*
X58649946Y40500054D01*
X58596875Y40459331D01*
X58535072Y40433732D01*
X58468750Y40425000D01*
G37*
%LPD*%
%LPD*%
G36*
X58468750Y31550000D02*
X57531250Y31550000D01*
X57464928Y31558732D01*
X57403125Y31584331D01*
X57350054Y31625054D01*
X57309331Y31678125D01*
X57283732Y31739928D01*
X57275000Y31806250D01*
X57275000Y32318750D01*
X57283732Y32385072D01*
X57309331Y32446875D01*
X57350054Y32499946D01*
X57403125Y32540669D01*
X57464928Y32566268D01*
X57531250Y32575000D01*
X58468750Y32575000D01*
X58535072Y32566268D01*
X58596875Y32540669D01*
X58649946Y32499946D01*
X58690669Y32446875D01*
X58716268Y32385072D01*
X58725000Y32318750D01*
X58725000Y31806250D01*
X58716268Y31739928D01*
X58690669Y31678125D01*
X58649946Y31625054D01*
X58596875Y31584331D01*
X58535072Y31558732D01*
X58468750Y31550000D01*
G37*
%LPD*%
%LPD*%
G36*
X58468750Y33425000D02*
X57531250Y33425000D01*
X57464928Y33433732D01*
X57403125Y33459331D01*
X57350054Y33500054D01*
X57309331Y33553125D01*
X57283732Y33614928D01*
X57275000Y33681250D01*
X57275000Y34193750D01*
X57283732Y34260072D01*
X57309331Y34321875D01*
X57350054Y34374946D01*
X57403125Y34415669D01*
X57464928Y34441268D01*
X57531250Y34450000D01*
X58468750Y34450000D01*
X58535072Y34441268D01*
X58596875Y34415669D01*
X58649946Y34374946D01*
X58690669Y34321875D01*
X58716268Y34260072D01*
X58725000Y34193750D01*
X58725000Y33681250D01*
X58716268Y33614928D01*
X58690669Y33553125D01*
X58649946Y33500054D01*
X58596875Y33459331D01*
X58535072Y33433732D01*
X58468750Y33425000D01*
G37*
%LPD*%
%LPD*%
G36*
X30468750Y28550000D02*
X29531250Y28550000D01*
X29464928Y28558732D01*
X29403125Y28584331D01*
X29350054Y28625054D01*
X29309331Y28678125D01*
X29283732Y28739928D01*
X29275000Y28806250D01*
X29275000Y29318750D01*
X29283732Y29385072D01*
X29309331Y29446875D01*
X29350054Y29499946D01*
X29403125Y29540669D01*
X29464928Y29566268D01*
X29531250Y29575000D01*
X30468750Y29575000D01*
X30535072Y29566268D01*
X30596875Y29540669D01*
X30649946Y29499946D01*
X30690669Y29446875D01*
X30716268Y29385072D01*
X30725000Y29318750D01*
X30725000Y28806250D01*
X30716268Y28739928D01*
X30690669Y28678125D01*
X30649946Y28625054D01*
X30596875Y28584331D01*
X30535072Y28558732D01*
X30468750Y28550000D01*
G37*
%LPD*%
%LPD*%
G36*
X30468750Y30425000D02*
X29531250Y30425000D01*
X29464928Y30433732D01*
X29403125Y30459331D01*
X29350054Y30500054D01*
X29309331Y30553125D01*
X29283732Y30614928D01*
X29275000Y30681250D01*
X29275000Y31193750D01*
X29283732Y31260072D01*
X29309331Y31321875D01*
X29350054Y31374946D01*
X29403125Y31415669D01*
X29464928Y31441268D01*
X29531250Y31450000D01*
X30468750Y31450000D01*
X30535072Y31441268D01*
X30596875Y31415669D01*
X30649946Y31374946D01*
X30690669Y31321875D01*
X30716268Y31260072D01*
X30725000Y31193750D01*
X30725000Y30681250D01*
X30716268Y30614928D01*
X30690669Y30553125D01*
X30649946Y30500054D01*
X30596875Y30459331D01*
X30535072Y30433732D01*
X30468750Y30425000D01*
G37*
%LPD*%
M02*
