G04 Nyquist Labs eelab.pcb*
%TF.FileFunction,Soldermask,Top*%
%TF.FilePolarity,Negative*%
%FSLAX46Y46*%
%MOMM*%
%LPD*%
%ADD10R,1.8000X1.8000*%
%ADD11C,1.8000*%
%ADD12C,1.9000*%
%ADD13R,1.7000X1.7000*%
%ADD14C,1.7000*%
G01*
D10*
X27940000Y2540000D03*
D11*
X30480000Y2540000D03*
D11*
X33020000Y2540000D03*
D11*
X35560000Y2540000D03*
D11*
X38100000Y2540000D03*
D11*
X40640000Y2540000D03*
D11*
X43180000Y2540000D03*
D11*
X45720000Y2540000D03*
D10*
X50800000Y2540000D03*
D11*
X53340000Y2540000D03*
D11*
X55880000Y2540000D03*
D11*
X58420000Y2540000D03*
D11*
X60960000Y2540000D03*
D11*
X63500000Y2540000D03*
D10*
X45720000Y50800000D03*
D11*
X48260000Y50800000D03*
D11*
X50800000Y50800000D03*
D11*
X53340000Y50800000D03*
D11*
X55880000Y50800000D03*
D11*
X58420000Y50800000D03*
D11*
X60960000Y50800000D03*
D11*
X63500000Y50800000D03*
D10*
X18800000Y50800000D03*
D11*
X21340000Y50800000D03*
D11*
X23880000Y50800000D03*
D11*
X26420000Y50800000D03*
D11*
X28960000Y50800000D03*
D11*
X31500000Y50800000D03*
D11*
X34040000Y50800000D03*
D11*
X36580000Y50800000D03*
D11*
X39120000Y50800000D03*
D11*
X41660000Y50800000D03*
%LPD*%
G36*
X40493750Y38500000D02*
X39506250Y38500000D01*
X39433457Y38509583D01*
X39365625Y38537680D01*
X39307376Y38582376D01*
X39262680Y38640625D01*
X39234583Y38708457D01*
X39225000Y38781250D01*
X39225000Y39343750D01*
X39234583Y39416543D01*
X39262680Y39484375D01*
X39307376Y39542624D01*
X39365625Y39587320D01*
X39433457Y39615417D01*
X39506250Y39625000D01*
X40493750Y39625000D01*
X40566543Y39615417D01*
X40634375Y39587320D01*
X40692624Y39542624D01*
X40737320Y39484375D01*
X40765417Y39416543D01*
X40775000Y39343750D01*
X40775000Y38781250D01*
X40765417Y38708457D01*
X40737320Y38640625D01*
X40692624Y38582376D01*
X40634375Y38537680D01*
X40566543Y38509583D01*
X40493750Y38500000D01*
G37*
%LPD*%
%LPD*%
G36*
X40493750Y40375000D02*
X39506250Y40375000D01*
X39433457Y40384583D01*
X39365625Y40412680D01*
X39307376Y40457376D01*
X39262680Y40515625D01*
X39234583Y40583457D01*
X39225000Y40656250D01*
X39225000Y41218750D01*
X39234583Y41291543D01*
X39262680Y41359375D01*
X39307376Y41417624D01*
X39365625Y41462320D01*
X39433457Y41490417D01*
X39506250Y41500000D01*
X40493750Y41500000D01*
X40566543Y41490417D01*
X40634375Y41462320D01*
X40692624Y41417624D01*
X40737320Y41359375D01*
X40765417Y41291543D01*
X40775000Y41218750D01*
X40775000Y40656250D01*
X40765417Y40583457D01*
X40737320Y40515625D01*
X40692624Y40457376D01*
X40634375Y40412680D01*
X40566543Y40384583D01*
X40493750Y40375000D01*
G37*
%LPD*%
%LPD*%
G36*
X40493750Y31500000D02*
X39506250Y31500000D01*
X39433457Y31509583D01*
X39365625Y31537680D01*
X39307376Y31582376D01*
X39262680Y31640625D01*
X39234583Y31708457D01*
X39225000Y31781250D01*
X39225000Y32343750D01*
X39234583Y32416543D01*
X39262680Y32484375D01*
X39307376Y32542624D01*
X39365625Y32587320D01*
X39433457Y32615417D01*
X39506250Y32625000D01*
X40493750Y32625000D01*
X40566543Y32615417D01*
X40634375Y32587320D01*
X40692624Y32542624D01*
X40737320Y32484375D01*
X40765417Y32416543D01*
X40775000Y32343750D01*
X40775000Y31781250D01*
X40765417Y31708457D01*
X40737320Y31640625D01*
X40692624Y31582376D01*
X40634375Y31537680D01*
X40566543Y31509583D01*
X40493750Y31500000D01*
G37*
%LPD*%
%LPD*%
G36*
X40493750Y33375000D02*
X39506250Y33375000D01*
X39433457Y33384583D01*
X39365625Y33412680D01*
X39307376Y33457376D01*
X39262680Y33515625D01*
X39234583Y33583457D01*
X39225000Y33656250D01*
X39225000Y34218750D01*
X39234583Y34291543D01*
X39262680Y34359375D01*
X39307376Y34417624D01*
X39365625Y34462320D01*
X39433457Y34490417D01*
X39506250Y34500000D01*
X40493750Y34500000D01*
X40566543Y34490417D01*
X40634375Y34462320D01*
X40692624Y34417624D01*
X40737320Y34359375D01*
X40765417Y34291543D01*
X40775000Y34218750D01*
X40775000Y33656250D01*
X40765417Y33583457D01*
X40737320Y33515625D01*
X40692624Y33457376D01*
X40634375Y33412680D01*
X40566543Y33384583D01*
X40493750Y33375000D01*
G37*
%LPD*%
%LPD*%
G36*
X46493750Y38500000D02*
X45506250Y38500000D01*
X45433457Y38509583D01*
X45365625Y38537680D01*
X45307376Y38582376D01*
X45262680Y38640625D01*
X45234583Y38708457D01*
X45225000Y38781250D01*
X45225000Y39343750D01*
X45234583Y39416543D01*
X45262680Y39484375D01*
X45307376Y39542624D01*
X45365625Y39587320D01*
X45433457Y39615417D01*
X45506250Y39625000D01*
X46493750Y39625000D01*
X46566543Y39615417D01*
X46634375Y39587320D01*
X46692624Y39542624D01*
X46737320Y39484375D01*
X46765417Y39416543D01*
X46775000Y39343750D01*
X46775000Y38781250D01*
X46765417Y38708457D01*
X46737320Y38640625D01*
X46692624Y38582376D01*
X46634375Y38537680D01*
X46566543Y38509583D01*
X46493750Y38500000D01*
G37*
%LPD*%
%LPD*%
G36*
X46493750Y40375000D02*
X45506250Y40375000D01*
X45433457Y40384583D01*
X45365625Y40412680D01*
X45307376Y40457376D01*
X45262680Y40515625D01*
X45234583Y40583457D01*
X45225000Y40656250D01*
X45225000Y41218750D01*
X45234583Y41291543D01*
X45262680Y41359375D01*
X45307376Y41417624D01*
X45365625Y41462320D01*
X45433457Y41490417D01*
X45506250Y41500000D01*
X46493750Y41500000D01*
X46566543Y41490417D01*
X46634375Y41462320D01*
X46692624Y41417624D01*
X46737320Y41359375D01*
X46765417Y41291543D01*
X46775000Y41218750D01*
X46775000Y40656250D01*
X46765417Y40583457D01*
X46737320Y40515625D01*
X46692624Y40457376D01*
X46634375Y40412680D01*
X46566543Y40384583D01*
X46493750Y40375000D01*
G37*
%LPD*%
%LPD*%
G36*
X46493750Y31500000D02*
X45506250Y31500000D01*
X45433457Y31509583D01*
X45365625Y31537680D01*
X45307376Y31582376D01*
X45262680Y31640625D01*
X45234583Y31708457D01*
X45225000Y31781250D01*
X45225000Y32343750D01*
X45234583Y32416543D01*
X45262680Y32484375D01*
X45307376Y32542624D01*
X45365625Y32587320D01*
X45433457Y32615417D01*
X45506250Y32625000D01*
X46493750Y32625000D01*
X46566543Y32615417D01*
X46634375Y32587320D01*
X46692624Y32542624D01*
X46737320Y32484375D01*
X46765417Y32416543D01*
X46775000Y32343750D01*
X46775000Y31781250D01*
X46765417Y31708457D01*
X46737320Y31640625D01*
X46692624Y31582376D01*
X46634375Y31537680D01*
X46566543Y31509583D01*
X46493750Y31500000D01*
G37*
%LPD*%
%LPD*%
G36*
X46493750Y33375000D02*
X45506250Y33375000D01*
X45433457Y33384583D01*
X45365625Y33412680D01*
X45307376Y33457376D01*
X45262680Y33515625D01*
X45234583Y33583457D01*
X45225000Y33656250D01*
X45225000Y34218750D01*
X45234583Y34291543D01*
X45262680Y34359375D01*
X45307376Y34417624D01*
X45365625Y34462320D01*
X45433457Y34490417D01*
X45506250Y34500000D01*
X46493750Y34500000D01*
X46566543Y34490417D01*
X46634375Y34462320D01*
X46692624Y34417624D01*
X46737320Y34359375D01*
X46765417Y34291543D01*
X46775000Y34218750D01*
X46775000Y33656250D01*
X46765417Y33583457D01*
X46737320Y33515625D01*
X46692624Y33457376D01*
X46634375Y33412680D01*
X46566543Y33384583D01*
X46493750Y33375000D01*
G37*
%LPD*%
%LPD*%
G36*
X52493750Y38500000D02*
X51506250Y38500000D01*
X51433457Y38509583D01*
X51365625Y38537680D01*
X51307376Y38582376D01*
X51262680Y38640625D01*
X51234583Y38708457D01*
X51225000Y38781250D01*
X51225000Y39343750D01*
X51234583Y39416543D01*
X51262680Y39484375D01*
X51307376Y39542624D01*
X51365625Y39587320D01*
X51433457Y39615417D01*
X51506250Y39625000D01*
X52493750Y39625000D01*
X52566543Y39615417D01*
X52634375Y39587320D01*
X52692624Y39542624D01*
X52737320Y39484375D01*
X52765417Y39416543D01*
X52775000Y39343750D01*
X52775000Y38781250D01*
X52765417Y38708457D01*
X52737320Y38640625D01*
X52692624Y38582376D01*
X52634375Y38537680D01*
X52566543Y38509583D01*
X52493750Y38500000D01*
G37*
%LPD*%
%LPD*%
G36*
X52493750Y40375000D02*
X51506250Y40375000D01*
X51433457Y40384583D01*
X51365625Y40412680D01*
X51307376Y40457376D01*
X51262680Y40515625D01*
X51234583Y40583457D01*
X51225000Y40656250D01*
X51225000Y41218750D01*
X51234583Y41291543D01*
X51262680Y41359375D01*
X51307376Y41417624D01*
X51365625Y41462320D01*
X51433457Y41490417D01*
X51506250Y41500000D01*
X52493750Y41500000D01*
X52566543Y41490417D01*
X52634375Y41462320D01*
X52692624Y41417624D01*
X52737320Y41359375D01*
X52765417Y41291543D01*
X52775000Y41218750D01*
X52775000Y40656250D01*
X52765417Y40583457D01*
X52737320Y40515625D01*
X52692624Y40457376D01*
X52634375Y40412680D01*
X52566543Y40384583D01*
X52493750Y40375000D01*
G37*
%LPD*%
%LPD*%
G36*
X52493750Y31500000D02*
X51506250Y31500000D01*
X51433457Y31509583D01*
X51365625Y31537680D01*
X51307376Y31582376D01*
X51262680Y31640625D01*
X51234583Y31708457D01*
X51225000Y31781250D01*
X51225000Y32343750D01*
X51234583Y32416543D01*
X51262680Y32484375D01*
X51307376Y32542624D01*
X51365625Y32587320D01*
X51433457Y32615417D01*
X51506250Y32625000D01*
X52493750Y32625000D01*
X52566543Y32615417D01*
X52634375Y32587320D01*
X52692624Y32542624D01*
X52737320Y32484375D01*
X52765417Y32416543D01*
X52775000Y32343750D01*
X52775000Y31781250D01*
X52765417Y31708457D01*
X52737320Y31640625D01*
X52692624Y31582376D01*
X52634375Y31537680D01*
X52566543Y31509583D01*
X52493750Y31500000D01*
G37*
%LPD*%
%LPD*%
G36*
X52493750Y33375000D02*
X51506250Y33375000D01*
X51433457Y33384583D01*
X51365625Y33412680D01*
X51307376Y33457376D01*
X51262680Y33515625D01*
X51234583Y33583457D01*
X51225000Y33656250D01*
X51225000Y34218750D01*
X51234583Y34291543D01*
X51262680Y34359375D01*
X51307376Y34417624D01*
X51365625Y34462320D01*
X51433457Y34490417D01*
X51506250Y34500000D01*
X52493750Y34500000D01*
X52566543Y34490417D01*
X52634375Y34462320D01*
X52692624Y34417624D01*
X52737320Y34359375D01*
X52765417Y34291543D01*
X52775000Y34218750D01*
X52775000Y33656250D01*
X52765417Y33583457D01*
X52737320Y33515625D01*
X52692624Y33457376D01*
X52634375Y33412680D01*
X52566543Y33384583D01*
X52493750Y33375000D01*
G37*
%LPD*%
%LPD*%
G36*
X58493750Y38500000D02*
X57506250Y38500000D01*
X57433457Y38509583D01*
X57365625Y38537680D01*
X57307376Y38582376D01*
X57262680Y38640625D01*
X57234583Y38708457D01*
X57225000Y38781250D01*
X57225000Y39343750D01*
X57234583Y39416543D01*
X57262680Y39484375D01*
X57307376Y39542624D01*
X57365625Y39587320D01*
X57433457Y39615417D01*
X57506250Y39625000D01*
X58493750Y39625000D01*
X58566543Y39615417D01*
X58634375Y39587320D01*
X58692624Y39542624D01*
X58737320Y39484375D01*
X58765417Y39416543D01*
X58775000Y39343750D01*
X58775000Y38781250D01*
X58765417Y38708457D01*
X58737320Y38640625D01*
X58692624Y38582376D01*
X58634375Y38537680D01*
X58566543Y38509583D01*
X58493750Y38500000D01*
G37*
%LPD*%
%LPD*%
G36*
X58493750Y40375000D02*
X57506250Y40375000D01*
X57433457Y40384583D01*
X57365625Y40412680D01*
X57307376Y40457376D01*
X57262680Y40515625D01*
X57234583Y40583457D01*
X57225000Y40656250D01*
X57225000Y41218750D01*
X57234583Y41291543D01*
X57262680Y41359375D01*
X57307376Y41417624D01*
X57365625Y41462320D01*
X57433457Y41490417D01*
X57506250Y41500000D01*
X58493750Y41500000D01*
X58566543Y41490417D01*
X58634375Y41462320D01*
X58692624Y41417624D01*
X58737320Y41359375D01*
X58765417Y41291543D01*
X58775000Y41218750D01*
X58775000Y40656250D01*
X58765417Y40583457D01*
X58737320Y40515625D01*
X58692624Y40457376D01*
X58634375Y40412680D01*
X58566543Y40384583D01*
X58493750Y40375000D01*
G37*
%LPD*%
%LPD*%
G36*
X58493750Y31500000D02*
X57506250Y31500000D01*
X57433457Y31509583D01*
X57365625Y31537680D01*
X57307376Y31582376D01*
X57262680Y31640625D01*
X57234583Y31708457D01*
X57225000Y31781250D01*
X57225000Y32343750D01*
X57234583Y32416543D01*
X57262680Y32484375D01*
X57307376Y32542624D01*
X57365625Y32587320D01*
X57433457Y32615417D01*
X57506250Y32625000D01*
X58493750Y32625000D01*
X58566543Y32615417D01*
X58634375Y32587320D01*
X58692624Y32542624D01*
X58737320Y32484375D01*
X58765417Y32416543D01*
X58775000Y32343750D01*
X58775000Y31781250D01*
X58765417Y31708457D01*
X58737320Y31640625D01*
X58692624Y31582376D01*
X58634375Y31537680D01*
X58566543Y31509583D01*
X58493750Y31500000D01*
G37*
%LPD*%
%LPD*%
G36*
X58493750Y33375000D02*
X57506250Y33375000D01*
X57433457Y33384583D01*
X57365625Y33412680D01*
X57307376Y33457376D01*
X57262680Y33515625D01*
X57234583Y33583457D01*
X57225000Y33656250D01*
X57225000Y34218750D01*
X57234583Y34291543D01*
X57262680Y34359375D01*
X57307376Y34417624D01*
X57365625Y34462320D01*
X57433457Y34490417D01*
X57506250Y34500000D01*
X58493750Y34500000D01*
X58566543Y34490417D01*
X58634375Y34462320D01*
X58692624Y34417624D01*
X58737320Y34359375D01*
X58765417Y34291543D01*
X58775000Y34218750D01*
X58775000Y33656250D01*
X58765417Y33583457D01*
X58737320Y33515625D01*
X58692624Y33457376D01*
X58634375Y33412680D01*
X58566543Y33384583D01*
X58493750Y33375000D01*
G37*
%LPD*%
D12*
X18750000Y32250000D03*
D12*
X25250000Y32250000D03*
D12*
X18750000Y27750000D03*
D12*
X25250000Y27750000D03*
%LPD*%
G36*
X30493750Y28500000D02*
X29506250Y28500000D01*
X29433457Y28509583D01*
X29365625Y28537680D01*
X29307376Y28582376D01*
X29262680Y28640625D01*
X29234583Y28708457D01*
X29225000Y28781250D01*
X29225000Y29343750D01*
X29234583Y29416543D01*
X29262680Y29484375D01*
X29307376Y29542624D01*
X29365625Y29587320D01*
X29433457Y29615417D01*
X29506250Y29625000D01*
X30493750Y29625000D01*
X30566543Y29615417D01*
X30634375Y29587320D01*
X30692624Y29542624D01*
X30737320Y29484375D01*
X30765417Y29416543D01*
X30775000Y29343750D01*
X30775000Y28781250D01*
X30765417Y28708457D01*
X30737320Y28640625D01*
X30692624Y28582376D01*
X30634375Y28537680D01*
X30566543Y28509583D01*
X30493750Y28500000D01*
G37*
%LPD*%
%LPD*%
G36*
X30493750Y30375000D02*
X29506250Y30375000D01*
X29433457Y30384583D01*
X29365625Y30412680D01*
X29307376Y30457376D01*
X29262680Y30515625D01*
X29234583Y30583457D01*
X29225000Y30656250D01*
X29225000Y31218750D01*
X29234583Y31291543D01*
X29262680Y31359375D01*
X29307376Y31417624D01*
X29365625Y31462320D01*
X29433457Y31490417D01*
X29506250Y31500000D01*
X30493750Y31500000D01*
X30566543Y31490417D01*
X30634375Y31462320D01*
X30692624Y31417624D01*
X30737320Y31359375D01*
X30765417Y31291543D01*
X30775000Y31218750D01*
X30775000Y30656250D01*
X30765417Y30583457D01*
X30737320Y30515625D01*
X30692624Y30457376D01*
X30634375Y30412680D01*
X30566543Y30384583D01*
X30493750Y30375000D01*
G37*
%LPD*%
D13*
X37460000Y16000000D03*
D14*
X40000000Y18540000D03*
D14*
X42540000Y16000000D03*
D10*
X16190000Y16000000D03*
D11*
X18730000Y16000000D03*
D11*
X21270000Y16000000D03*
D11*
X23810000Y16000000D03*
M02*
