G04 Nyquist Labs eelab.pcb*
%TF.FileFunction,Soldermask,Bot*%
%TF.FilePolarity,Negative*%
%FSLAX46Y46*%
%MOMM*%
%LPD*%
%ADD10R,1.8000X1.8000*%
%ADD11C,1.8000*%
%ADD12C,1.9000*%
%ADD13R,1.7000X1.7000*%
%ADD14C,1.7000*%
G01*
D10*
X27940000Y2540000D03*
D11*
X30480000Y2540000D03*
D11*
X33020000Y2540000D03*
D11*
X35560000Y2540000D03*
D11*
X38100000Y2540000D03*
D11*
X40640000Y2540000D03*
D11*
X43180000Y2540000D03*
D11*
X45720000Y2540000D03*
D10*
X50800000Y2540000D03*
D11*
X53340000Y2540000D03*
D11*
X55880000Y2540000D03*
D11*
X58420000Y2540000D03*
D11*
X60960000Y2540000D03*
D11*
X63500000Y2540000D03*
D10*
X45720000Y50800000D03*
D11*
X48260000Y50800000D03*
D11*
X50800000Y50800000D03*
D11*
X53340000Y50800000D03*
D11*
X55880000Y50800000D03*
D11*
X58420000Y50800000D03*
D11*
X60960000Y50800000D03*
D11*
X63500000Y50800000D03*
D10*
X18800000Y50800000D03*
D11*
X21340000Y50800000D03*
D11*
X23880000Y50800000D03*
D11*
X26420000Y50800000D03*
D11*
X28960000Y50800000D03*
D11*
X31500000Y50800000D03*
D11*
X34040000Y50800000D03*
D11*
X36580000Y50800000D03*
D11*
X39120000Y50800000D03*
D11*
X41660000Y50800000D03*
D12*
X18750000Y32250000D03*
D12*
X25250000Y32250000D03*
D12*
X18750000Y27750000D03*
D12*
X25250000Y27750000D03*
D13*
X37460000Y16000000D03*
D14*
X40000000Y18540000D03*
D14*
X42540000Y16000000D03*
D10*
X16190000Y16000000D03*
D11*
X18730000Y16000000D03*
D11*
X21270000Y16000000D03*
D11*
X23810000Y16000000D03*
M02*
