G04 Nyquist Labs eelab.pcb*
%TF.FileFunction,Legend,Top*%
%TF.FilePolarity,Positive*%
%FSLAX46Y46*%
%MOMM*%
%LPD*%
%ADD10C,0.1500*%
G01*
D10*
X21550000Y15495000D02*
X28450000Y15495000D01*
D10*
X28450000Y15495000D02*
X28450000Y15601583D01*
D10*
X28450000Y16588417D02*
X28450000Y16871583D01*
D10*
X28450000Y17858417D02*
X28450000Y18141583D01*
D10*
X28450000Y19128417D02*
X28450000Y19411583D01*
D10*
X28450000Y20398417D02*
X28450000Y20505000D01*
D10*
X28450000Y20505000D02*
X21550000Y20505000D01*
D10*
X21550000Y20505000D02*
X21550000Y20398417D01*
D10*
X21550000Y19411583D02*
X21550000Y19128417D01*
D10*
X21550000Y18141583D02*
X21550000Y17858417D01*
D10*
X21550000Y16871583D02*
X21550000Y16588417D01*
D10*
X21550000Y15601583D02*
X21550000Y15495000D01*
D10*
X21628188Y21461156D02*
X21717484Y21461156D01*
D10*
X21717484Y21461156D02*
X21717484Y21062484D01*
D10*
X21717484Y21062484D02*
X21727012Y20971781D01*
D10*
X21727012Y20971781D02*
X21755594Y20910609D01*
D10*
X21755594Y20910609D02*
X21805727Y20875910D01*
D10*
X21805727Y20875910D02*
X21879625Y20864344D01*
D10*
X21879625Y20864344D02*
X21953102Y20875910D01*
D10*
X21953102Y20875910D02*
X22003094Y20910609D01*
D10*
X22003094Y20910609D02*
X22031781Y20971781D01*
D10*
X22031781Y20971781D02*
X22041344Y21062484D01*
D10*
X22041344Y21062484D02*
X22041344Y21461156D01*
D10*
X22041344Y21461156D02*
X22130500Y21461156D01*
D10*
X22130500Y21461156D02*
X22130500Y21051516D01*
D10*
X22130500Y21051516D02*
X22114609Y20938945D01*
D10*
X22114609Y20938945D02*
X22066938Y20857734D01*
D10*
X22066938Y20857734D02*
X21988398Y20808586D01*
D10*
X21988398Y20808586D02*
X21879625Y20792203D01*
D10*
X21879625Y20792203D02*
X21770395Y20808586D01*
D10*
X21770395Y20808586D02*
X21691609Y20857734D01*
D10*
X21691609Y20857734D02*
X21644043Y20938945D01*
D10*
X21644043Y20938945D02*
X21628188Y21051516D01*
D10*
X21628188Y21051516D02*
X21628188Y21461156D01*
D10*
X22320344Y20879672D02*
X22465328Y20879672D01*
D10*
X22465328Y20879672D02*
X22465328Y21380297D01*
D10*
X22465328Y21380297D02*
X22307547Y21348656D01*
D10*
X22307547Y21348656D02*
X22307547Y21429516D01*
D10*
X22307547Y21429516D02*
X22464484Y21461156D01*
D10*
X22464484Y21461156D02*
X22553219Y21461156D01*
D10*
X22553219Y21461156D02*
X22553219Y20879672D01*
D10*
X22553219Y20879672D02*
X22698203Y20879672D01*
D10*
X22698203Y20879672D02*
X22698203Y20805000D01*
D10*
X22698203Y20805000D02*
X22320344Y20805000D01*
D10*
X22320344Y20805000D02*
X22320344Y20879672D01*
D10*
X3730000Y14190000D02*
X6270000Y14190000D01*
D10*
X6270000Y14190000D02*
X6270000Y21810000D01*
D10*
X6270000Y21810000D02*
X3730000Y21810000D01*
D10*
X3730000Y21810000D02*
X3730000Y14190000D01*
D10*
X3818312Y22766156D02*
X3907047Y22766156D01*
D10*
X3907047Y22766156D02*
X3907047Y22155703D01*
D10*
X3907047Y22155703D02*
X3895797Y22053293D01*
D10*
X3895797Y22053293D02*
X3862047Y21983438D01*
D10*
X3862047Y21983438D02*
X3803336Y21943254D01*
D10*
X3803336Y21943254D02*
X3717203Y21929859D01*
D10*
X3717203Y21929859D02*
X3683453Y21929859D01*
D10*
X3683453Y21929859D02*
X3683453Y22004531D01*
D10*
X3683453Y22004531D02*
X3711156Y22004531D01*
D10*
X3711156Y22004531D02*
X3761289Y22012793D01*
D10*
X3761289Y22012793D02*
X3794125Y22037578D01*
D10*
X3794125Y22037578D02*
X3812266Y22083563D01*
D10*
X3812266Y22083563D02*
X3818312Y22155703D01*
D10*
X3818312Y22155703D02*
X3818312Y22766156D01*
D10*
X4107156Y22184672D02*
X4252141Y22184672D01*
D10*
X4252141Y22184672D02*
X4252141Y22685297D01*
D10*
X4252141Y22685297D02*
X4094359Y22653656D01*
D10*
X4094359Y22653656D02*
X4094359Y22734516D01*
D10*
X4094359Y22734516D02*
X4251297Y22766156D01*
D10*
X4251297Y22766156D02*
X4340031Y22766156D01*
D10*
X4340031Y22766156D02*
X4340031Y22184672D01*
D10*
X4340031Y22184672D02*
X4485016Y22184672D01*
D10*
X4485016Y22184672D02*
X4485016Y22110000D01*
D10*
X4485016Y22110000D02*
X4107156Y22110000D01*
D10*
X4107156Y22110000D02*
X4107156Y22184672D01*
D10*
X43730000Y14190000D02*
X46270000Y14190000D01*
D10*
X46270000Y14190000D02*
X46270000Y21810000D01*
D10*
X46270000Y21810000D02*
X43730000Y21810000D01*
D10*
X43730000Y21810000D02*
X43730000Y14190000D01*
D10*
X43818312Y22766156D02*
X43907047Y22766156D01*
D10*
X43907047Y22766156D02*
X43907047Y22155703D01*
D10*
X43907047Y22155703D02*
X43895797Y22053293D01*
D10*
X43895797Y22053293D02*
X43862047Y21983438D01*
D10*
X43862047Y21983438D02*
X43803336Y21943254D01*
D10*
X43803336Y21943254D02*
X43717203Y21929859D01*
D10*
X43717203Y21929859D02*
X43683453Y21929859D01*
D10*
X43683453Y21929859D02*
X43683453Y22004531D01*
D10*
X43683453Y22004531D02*
X43711156Y22004531D01*
D10*
X43711156Y22004531D02*
X43761289Y22012793D01*
D10*
X43761289Y22012793D02*
X43794125Y22037578D01*
D10*
X43794125Y22037578D02*
X43812266Y22083563D01*
D10*
X43812266Y22083563D02*
X43818312Y22155703D01*
D10*
X43818312Y22155703D02*
X43818312Y22766156D01*
D10*
X44168187Y22184672D02*
X44477984Y22184672D01*
D10*
X44477984Y22184672D02*
X44477984Y22110000D01*
D10*
X44477984Y22110000D02*
X44061453Y22110000D01*
D10*
X44061453Y22110000D02*
X44061453Y22184672D01*
D10*
X44061453Y22184672D02*
X44121113Y22245914D01*
D10*
X44121113Y22245914D02*
X44199125Y22325016D01*
D10*
X44199125Y22325016D02*
X44270211Y22397543D01*
D10*
X44270211Y22397543D02*
X44308812Y22438781D01*
D10*
X44308812Y22438781D02*
X44344988Y22482938D01*
D10*
X44344988Y22482938D02*
X44368297Y22519781D01*
D10*
X44368297Y22519781D02*
X44381059Y22552688D01*
D10*
X44381059Y22552688D02*
X44385312Y22585031D01*
D10*
X44385312Y22585031D02*
X44376137Y22632492D01*
D10*
X44376137Y22632492D02*
X44348609Y22670250D01*
D10*
X44348609Y22670250D02*
X44306352Y22695035D01*
D10*
X44306352Y22695035D02*
X44252984Y22703297D01*
D10*
X44252984Y22703297D02*
X44210059Y22699676D01*
D10*
X44210059Y22699676D02*
X44164812Y22688813D01*
D10*
X44164812Y22688813D02*
X44116930Y22670566D01*
D10*
X44116930Y22670566D02*
X44065812Y22644797D01*
D10*
X44065812Y22644797D02*
X44065812Y22734516D01*
D10*
X44065812Y22734516D02*
X44117633Y22753395D01*
D10*
X44117633Y22753395D02*
X44165938Y22767000D01*
D10*
X44165938Y22767000D02*
X44210621Y22775227D01*
D10*
X44210621Y22775227D02*
X44251297Y22777969D01*
D10*
X44251297Y22777969D02*
X44342914Y22765207D01*
D10*
X44342914Y22765207D02*
X44413859Y22726922D01*
D10*
X44413859Y22726922D02*
X44459316Y22667438D01*
D10*
X44459316Y22667438D02*
X44474469Y22590797D01*
D10*
X44474469Y22590797D02*
X44470672Y22551352D01*
D10*
X44470672Y22551352D02*
X44459281Y22514016D01*
D10*
X44459281Y22514016D02*
X44437977Y22474605D01*
D10*
X44437977Y22474605D02*
X44404156Y22428656D01*
D10*
X44404156Y22428656D02*
X44381199Y22403836D01*
D10*
X44381199Y22403836D02*
X44334266Y22354969D01*
D10*
X44334266Y22354969D02*
X44263355Y22281949D01*
D10*
X44263355Y22281949D02*
X44168187Y22184672D01*
D10*
X21190000Y3730000D02*
X28810000Y3730000D01*
D10*
X28810000Y3730000D02*
X28810000Y6270000D01*
D10*
X28810000Y6270000D02*
X21190000Y6270000D01*
D10*
X21190000Y6270000D02*
X21190000Y3730000D01*
D10*
X21278312Y7226156D02*
X21367047Y7226156D01*
D10*
X21367047Y7226156D02*
X21367047Y6615703D01*
D10*
X21367047Y6615703D02*
X21355797Y6513293D01*
D10*
X21355797Y6513293D02*
X21322047Y6443437D01*
D10*
X21322047Y6443437D02*
X21263336Y6403254D01*
D10*
X21263336Y6403254D02*
X21177203Y6389859D01*
D10*
X21177203Y6389859D02*
X21143453Y6389859D01*
D10*
X21143453Y6389859D02*
X21143453Y6464531D01*
D10*
X21143453Y6464531D02*
X21171156Y6464531D01*
D10*
X21171156Y6464531D02*
X21221289Y6472793D01*
D10*
X21221289Y6472793D02*
X21254125Y6497578D01*
D10*
X21254125Y6497578D02*
X21272266Y6543562D01*
D10*
X21272266Y6543562D02*
X21278312Y6615703D01*
D10*
X21278312Y6615703D02*
X21278312Y7226156D01*
D10*
X21820703Y6923812D02*
X21877410Y6902789D01*
D10*
X21877410Y6902789D02*
X21920125Y6867000D01*
D10*
X21920125Y6867000D02*
X21947020Y6818906D01*
D10*
X21947020Y6818906D02*
X21955984Y6760687D01*
D10*
X21955984Y6760687D02*
X21939285Y6674590D01*
D10*
X21939285Y6674590D02*
X21889188Y6610359D01*
D10*
X21889188Y6610359D02*
X21808328Y6570492D01*
D10*
X21808328Y6570492D02*
X21699344Y6557203D01*
D10*
X21699344Y6557203D02*
X21657508Y6559242D01*
D10*
X21657508Y6559242D02*
X21614406Y6565359D01*
D10*
X21614406Y6565359D02*
X21569969Y6575555D01*
D10*
X21569969Y6575555D02*
X21524125Y6589828D01*
D10*
X21524125Y6589828D02*
X21524125Y6675469D01*
D10*
X21524125Y6675469D02*
X21562727Y6656590D01*
D10*
X21562727Y6656590D02*
X21604844Y6642984D01*
D10*
X21604844Y6642984D02*
X21649844Y6634758D01*
D10*
X21649844Y6634758D02*
X21696812Y6632016D01*
D10*
X21696812Y6632016D02*
X21770289Y6640242D01*
D10*
X21770289Y6640242D02*
X21823938Y6664922D01*
D10*
X21823938Y6664922D02*
X21856738Y6705316D01*
D10*
X21856738Y6705316D02*
X21867672Y6760687D01*
D10*
X21867672Y6760687D02*
X21857512Y6812402D01*
D10*
X21857512Y6812402D02*
X21827031Y6851391D01*
D10*
X21827031Y6851391D02*
X21778445Y6875965D01*
D10*
X21778445Y6875965D02*
X21713969Y6884156D01*
D10*
X21713969Y6884156D02*
X21637469Y6884156D01*
D10*
X21637469Y6884156D02*
X21637469Y6957141D01*
D10*
X21637469Y6957141D02*
X21717484Y6957141D01*
D10*
X21717484Y6957141D02*
X21775211Y6963680D01*
D10*
X21775211Y6963680D02*
X21817609Y6983297D01*
D10*
X21817609Y6983297D02*
X21843660Y7015219D01*
D10*
X21843660Y7015219D02*
X21852344Y7058672D01*
D10*
X21852344Y7058672D02*
X21843379Y7103285D01*
D10*
X21843379Y7103285D02*
X21816484Y7136156D01*
D10*
X21816484Y7136156D02*
X21772996Y7156512D01*
D10*
X21772996Y7156512D02*
X21713969Y7163297D01*
D10*
X21713969Y7163297D02*
X21676105Y7161293D01*
D10*
X21676105Y7161293D02*
X21635641Y7155281D01*
D10*
X21635641Y7155281D02*
X21591801Y7145227D01*
D10*
X21591801Y7145227D02*
X21543812Y7130812D01*
D10*
X21543812Y7130812D02*
X21543812Y7209844D01*
D10*
X21543812Y7209844D02*
X21592820Y7222148D01*
D10*
X21592820Y7222148D02*
X21638594Y7230938D01*
D10*
X21638594Y7230938D02*
X21681484Y7236211D01*
D10*
X21681484Y7236211D02*
X21721844Y7237969D01*
D10*
X21721844Y7237969D02*
X21812371Y7226473D01*
D10*
X21812371Y7226473D02*
X21881734Y7191984D01*
D10*
X21881734Y7191984D02*
X21925926Y7138055D01*
D10*
X21925926Y7138055D02*
X21940656Y7067953D01*
D10*
X21940656Y7067953D02*
X21932852Y7017645D01*
D10*
X21932852Y7017645D02*
X21909438Y6975844D01*
D10*
X21909438Y6975844D02*
X21871645Y6944062D01*
D10*
X21871645Y6944062D02*
X21820703Y6923812D01*
D10*
X11736332Y21275000D02*
X12263668Y21275000D01*
D10*
X12263668Y22725000D02*
X11736332Y22725000D01*
D10*
X11129656Y23630531D02*
X11129656Y23537016D01*
D10*
X11129656Y23537016D02*
X11083320Y23573473D01*
D10*
X11083320Y23573473D02*
X11034031Y23599313D01*
D10*
X11034031Y23599313D02*
X10981684Y23614816D01*
D10*
X10981684Y23614816D02*
X10926172Y23619984D01*
D10*
X10926172Y23619984D02*
X10826855Y23602793D01*
D10*
X10826855Y23602793D02*
X10753906Y23551219D01*
D10*
X10753906Y23551219D02*
X10709082Y23467125D01*
D10*
X10709082Y23467125D02*
X10694141Y23352375D01*
D10*
X10694141Y23352375D02*
X10709082Y23237941D01*
D10*
X10709082Y23237941D02*
X10753906Y23153953D01*
D10*
X10753906Y23153953D02*
X10826855Y23102379D01*
D10*
X10826855Y23102379D02*
X10926172Y23085188D01*
D10*
X10926172Y23085188D02*
X10981684Y23090355D01*
D10*
X10981684Y23090355D02*
X11034031Y23105859D01*
D10*
X11034031Y23105859D02*
X11083320Y23131805D01*
D10*
X11083320Y23131805D02*
X11129656Y23168297D01*
D10*
X11129656Y23168297D02*
X11129656Y23075484D01*
D10*
X11129656Y23075484D02*
X11081703Y23047781D01*
D10*
X11081703Y23047781D02*
X11030938Y23027953D01*
D10*
X11030938Y23027953D02*
X10977430Y23016141D01*
D10*
X10977430Y23016141D02*
X10920969Y23012203D01*
D10*
X10920969Y23012203D02*
X10787727Y23034984D01*
D10*
X10787727Y23034984D02*
X10686125Y23103328D01*
D10*
X10686125Y23103328D02*
X10621895Y23211223D01*
D10*
X10621895Y23211223D02*
X10600484Y23352375D01*
D10*
X10600484Y23352375D02*
X10621895Y23493809D01*
D10*
X10621895Y23493809D02*
X10686125Y23601703D01*
D10*
X10686125Y23601703D02*
X10787727Y23670152D01*
D10*
X10787727Y23670152D02*
X10920969Y23692969D01*
D10*
X10920969Y23692969D02*
X10978062Y23689066D01*
D10*
X10978062Y23689066D02*
X11031781Y23677359D01*
D10*
X11031781Y23677359D02*
X11082336Y23657848D01*
D10*
X11082336Y23657848D02*
X11129656Y23630531D01*
D10*
X11290109Y23099672D02*
X11435094Y23099672D01*
D10*
X11435094Y23099672D02*
X11435094Y23600297D01*
D10*
X11435094Y23600297D02*
X11277312Y23568656D01*
D10*
X11277312Y23568656D02*
X11277312Y23649516D01*
D10*
X11277312Y23649516D02*
X11434250Y23681156D01*
D10*
X11434250Y23681156D02*
X11522984Y23681156D01*
D10*
X11522984Y23681156D02*
X11522984Y23099672D01*
D10*
X11522984Y23099672D02*
X11667969Y23099672D01*
D10*
X11667969Y23099672D02*
X11667969Y23025000D01*
D10*
X11667969Y23025000D02*
X11290109Y23025000D01*
D10*
X11290109Y23025000D02*
X11290109Y23099672D01*
D10*
X15725000Y25736332D02*
X15725000Y26263668D01*
D10*
X14275000Y26263668D02*
X14275000Y25736332D01*
D10*
X14674516Y28057688D02*
X14702676Y28042500D01*
D10*
X14702676Y28042500D02*
X14730062Y28016344D01*
D10*
X14730062Y28016344D02*
X14757133Y27978762D01*
D10*
X14757133Y27978762D02*
X14784344Y27929297D01*
D10*
X14784344Y27929297D02*
X14874484Y27750000D01*
D10*
X14874484Y27750000D02*
X14779000Y27750000D01*
D10*
X14779000Y27750000D02*
X14695188Y27918328D01*
D10*
X14695188Y27918328D02*
X14663090Y27973172D01*
D10*
X14663090Y27973172D02*
X14632047Y28005797D01*
D10*
X14632047Y28005797D02*
X14595977Y28021934D01*
D10*
X14595977Y28021934D02*
X14548797Y28027312D01*
D10*
X14548797Y28027312D02*
X14452047Y28027312D01*
D10*
X14452047Y28027312D02*
X14452047Y27750000D01*
D10*
X14452047Y27750000D02*
X14363313Y27750000D01*
D10*
X14363313Y27750000D02*
X14363313Y28406156D01*
D10*
X14363313Y28406156D02*
X14563703Y28406156D01*
D10*
X14563703Y28406156D02*
X14661930Y28394379D01*
D10*
X14661930Y28394379D02*
X14731609Y28359047D01*
D10*
X14731609Y28359047D02*
X14773164Y28300090D01*
D10*
X14773164Y28300090D02*
X14787016Y28217156D01*
D10*
X14787016Y28217156D02*
X14779809Y28160414D01*
D10*
X14779809Y28160414D02*
X14758188Y28114219D01*
D10*
X14758188Y28114219D02*
X14722855Y28079695D01*
D10*
X14722855Y28079695D02*
X14674516Y28057688D01*
D10*
X14452047Y28333172D02*
X14452047Y28100297D01*
D10*
X14452047Y28100297D02*
X14563703Y28100297D01*
D10*
X14563703Y28100297D02*
X14619988Y28107715D01*
D10*
X14619988Y28107715D02*
X14660594Y28129969D01*
D10*
X14660594Y28129969D02*
X14685168Y28166602D01*
D10*
X14685168Y28166602D02*
X14693359Y28217156D01*
D10*
X14693359Y28217156D02*
X14685168Y28267605D01*
D10*
X14685168Y28267605D02*
X14660594Y28303922D01*
D10*
X14660594Y28303922D02*
X14619988Y28325859D01*
D10*
X14619988Y28325859D02*
X14563703Y28333172D01*
D10*
X14563703Y28333172D02*
X14452047Y28333172D01*
D10*
X15012016Y27824672D02*
X15157000Y27824672D01*
D10*
X15157000Y27824672D02*
X15157000Y28325297D01*
D10*
X15157000Y28325297D02*
X14999219Y28293656D01*
D10*
X14999219Y28293656D02*
X14999219Y28374516D01*
D10*
X14999219Y28374516D02*
X15156156Y28406156D01*
D10*
X15156156Y28406156D02*
X15244891Y28406156D01*
D10*
X15244891Y28406156D02*
X15244891Y27824672D01*
D10*
X15244891Y27824672D02*
X15389875Y27824672D01*
D10*
X15389875Y27824672D02*
X15389875Y27750000D01*
D10*
X15389875Y27750000D02*
X15012016Y27750000D01*
D10*
X15012016Y27750000D02*
X15012016Y27824672D01*
D10*
X19725000Y25736332D02*
X19725000Y26263668D01*
D10*
X18275000Y26263668D02*
X18275000Y25736332D01*
D10*
X18674516Y28057688D02*
X18702676Y28042500D01*
D10*
X18702676Y28042500D02*
X18730062Y28016344D01*
D10*
X18730062Y28016344D02*
X18757133Y27978762D01*
D10*
X18757133Y27978762D02*
X18784344Y27929297D01*
D10*
X18784344Y27929297D02*
X18874484Y27750000D01*
D10*
X18874484Y27750000D02*
X18779000Y27750000D01*
D10*
X18779000Y27750000D02*
X18695188Y27918328D01*
D10*
X18695188Y27918328D02*
X18663090Y27973172D01*
D10*
X18663090Y27973172D02*
X18632047Y28005797D01*
D10*
X18632047Y28005797D02*
X18595977Y28021934D01*
D10*
X18595977Y28021934D02*
X18548797Y28027312D01*
D10*
X18548797Y28027312D02*
X18452047Y28027312D01*
D10*
X18452047Y28027312D02*
X18452047Y27750000D01*
D10*
X18452047Y27750000D02*
X18363312Y27750000D01*
D10*
X18363312Y27750000D02*
X18363312Y28406156D01*
D10*
X18363312Y28406156D02*
X18563703Y28406156D01*
D10*
X18563703Y28406156D02*
X18661930Y28394379D01*
D10*
X18661930Y28394379D02*
X18731609Y28359047D01*
D10*
X18731609Y28359047D02*
X18773164Y28300090D01*
D10*
X18773164Y28300090D02*
X18787016Y28217156D01*
D10*
X18787016Y28217156D02*
X18779809Y28160414D01*
D10*
X18779809Y28160414D02*
X18758188Y28114219D01*
D10*
X18758188Y28114219D02*
X18722855Y28079695D01*
D10*
X18722855Y28079695D02*
X18674516Y28057688D01*
D10*
X18452047Y28333172D02*
X18452047Y28100297D01*
D10*
X18452047Y28100297D02*
X18563703Y28100297D01*
D10*
X18563703Y28100297D02*
X18619988Y28107715D01*
D10*
X18619988Y28107715D02*
X18660594Y28129969D01*
D10*
X18660594Y28129969D02*
X18685168Y28166602D01*
D10*
X18685168Y28166602D02*
X18693359Y28217156D01*
D10*
X18693359Y28217156D02*
X18685168Y28267605D01*
D10*
X18685168Y28267605D02*
X18660594Y28303922D01*
D10*
X18660594Y28303922D02*
X18619988Y28325859D01*
D10*
X18619988Y28325859D02*
X18563703Y28333172D01*
D10*
X18563703Y28333172D02*
X18452047Y28333172D01*
D10*
X19265562Y28103812D02*
X19322270Y28082789D01*
D10*
X19322270Y28082789D02*
X19364984Y28047000D01*
D10*
X19364984Y28047000D02*
X19391879Y27998906D01*
D10*
X19391879Y27998906D02*
X19400844Y27940688D01*
D10*
X19400844Y27940688D02*
X19384145Y27854590D01*
D10*
X19384145Y27854590D02*
X19334047Y27790359D01*
D10*
X19334047Y27790359D02*
X19253188Y27750492D01*
D10*
X19253188Y27750492D02*
X19144203Y27737203D01*
D10*
X19144203Y27737203D02*
X19102367Y27739242D01*
D10*
X19102367Y27739242D02*
X19059266Y27745359D01*
D10*
X19059266Y27745359D02*
X19014828Y27755555D01*
D10*
X19014828Y27755555D02*
X18968984Y27769828D01*
D10*
X18968984Y27769828D02*
X18968984Y27855469D01*
D10*
X18968984Y27855469D02*
X19007586Y27836590D01*
D10*
X19007586Y27836590D02*
X19049703Y27822984D01*
D10*
X19049703Y27822984D02*
X19094703Y27814758D01*
D10*
X19094703Y27814758D02*
X19141672Y27812016D01*
D10*
X19141672Y27812016D02*
X19215148Y27820242D01*
D10*
X19215148Y27820242D02*
X19268797Y27844922D01*
D10*
X19268797Y27844922D02*
X19301598Y27885316D01*
D10*
X19301598Y27885316D02*
X19312531Y27940688D01*
D10*
X19312531Y27940688D02*
X19302371Y27992402D01*
D10*
X19302371Y27992402D02*
X19271891Y28031391D01*
D10*
X19271891Y28031391D02*
X19223305Y28055965D01*
D10*
X19223305Y28055965D02*
X19158828Y28064156D01*
D10*
X19158828Y28064156D02*
X19082328Y28064156D01*
D10*
X19082328Y28064156D02*
X19082328Y28137141D01*
D10*
X19082328Y28137141D02*
X19162344Y28137141D01*
D10*
X19162344Y28137141D02*
X19220070Y28143680D01*
D10*
X19220070Y28143680D02*
X19262469Y28163297D01*
D10*
X19262469Y28163297D02*
X19288520Y28195219D01*
D10*
X19288520Y28195219D02*
X19297203Y28238672D01*
D10*
X19297203Y28238672D02*
X19288238Y28283285D01*
D10*
X19288238Y28283285D02*
X19261344Y28316156D01*
D10*
X19261344Y28316156D02*
X19217855Y28336512D01*
D10*
X19217855Y28336512D02*
X19158828Y28343297D01*
D10*
X19158828Y28343297D02*
X19120965Y28341293D01*
D10*
X19120965Y28341293D02*
X19080500Y28335281D01*
D10*
X19080500Y28335281D02*
X19036660Y28325227D01*
D10*
X19036660Y28325227D02*
X18988672Y28310812D01*
D10*
X18988672Y28310812D02*
X18988672Y28389844D01*
D10*
X18988672Y28389844D02*
X19037680Y28402148D01*
D10*
X19037680Y28402148D02*
X19083453Y28410938D01*
D10*
X19083453Y28410938D02*
X19126344Y28416211D01*
D10*
X19126344Y28416211D02*
X19166703Y28417969D01*
D10*
X19166703Y28417969D02*
X19257230Y28406473D01*
D10*
X19257230Y28406473D02*
X19326594Y28371984D01*
D10*
X19326594Y28371984D02*
X19370785Y28318055D01*
D10*
X19370785Y28318055D02*
X19385516Y28247953D01*
D10*
X19385516Y28247953D02*
X19377711Y28197645D01*
D10*
X19377711Y28197645D02*
X19354297Y28155844D01*
D10*
X19354297Y28155844D02*
X19316504Y28124062D01*
D10*
X19316504Y28124062D02*
X19265562Y28103812D01*
D10*
X21736332Y28275000D02*
X22263668Y28275000D01*
D10*
X22263668Y29725000D02*
X21736332Y29725000D01*
D10*
X20949516Y30332688D02*
X20977676Y30317500D01*
D10*
X20977676Y30317500D02*
X21005062Y30291344D01*
D10*
X21005062Y30291344D02*
X21032133Y30253762D01*
D10*
X21032133Y30253762D02*
X21059344Y30204297D01*
D10*
X21059344Y30204297D02*
X21149484Y30025000D01*
D10*
X21149484Y30025000D02*
X21054000Y30025000D01*
D10*
X21054000Y30025000D02*
X20970188Y30193328D01*
D10*
X20970188Y30193328D02*
X20938090Y30248172D01*
D10*
X20938090Y30248172D02*
X20907047Y30280797D01*
D10*
X20907047Y30280797D02*
X20870977Y30296934D01*
D10*
X20870977Y30296934D02*
X20823797Y30302313D01*
D10*
X20823797Y30302313D02*
X20727047Y30302313D01*
D10*
X20727047Y30302313D02*
X20727047Y30025000D01*
D10*
X20727047Y30025000D02*
X20638312Y30025000D01*
D10*
X20638312Y30025000D02*
X20638312Y30681156D01*
D10*
X20638312Y30681156D02*
X20838703Y30681156D01*
D10*
X20838703Y30681156D02*
X20936930Y30669379D01*
D10*
X20936930Y30669379D02*
X21006609Y30634047D01*
D10*
X21006609Y30634047D02*
X21048164Y30575090D01*
D10*
X21048164Y30575090D02*
X21062016Y30492156D01*
D10*
X21062016Y30492156D02*
X21054809Y30435414D01*
D10*
X21054809Y30435414D02*
X21033188Y30389219D01*
D10*
X21033188Y30389219D02*
X20997855Y30354695D01*
D10*
X20997855Y30354695D02*
X20949516Y30332688D01*
D10*
X20727047Y30608172D02*
X20727047Y30375297D01*
D10*
X20727047Y30375297D02*
X20838703Y30375297D01*
D10*
X20838703Y30375297D02*
X20894988Y30382715D01*
D10*
X20894988Y30382715D02*
X20935594Y30404969D01*
D10*
X20935594Y30404969D02*
X20960168Y30441602D01*
D10*
X20960168Y30441602D02*
X20968359Y30492156D01*
D10*
X20968359Y30492156D02*
X20960168Y30542605D01*
D10*
X20960168Y30542605D02*
X20935594Y30578922D01*
D10*
X20935594Y30578922D02*
X20894988Y30600859D01*
D10*
X20894988Y30600859D02*
X20838703Y30608172D01*
D10*
X20838703Y30608172D02*
X20727047Y30608172D01*
D10*
X21348047Y30099672D02*
X21657844Y30099672D01*
D10*
X21657844Y30099672D02*
X21657844Y30025000D01*
D10*
X21657844Y30025000D02*
X21241312Y30025000D01*
D10*
X21241312Y30025000D02*
X21241312Y30099672D01*
D10*
X21241312Y30099672D02*
X21300973Y30160914D01*
D10*
X21300973Y30160914D02*
X21378984Y30240016D01*
D10*
X21378984Y30240016D02*
X21450070Y30312543D01*
D10*
X21450070Y30312543D02*
X21488672Y30353781D01*
D10*
X21488672Y30353781D02*
X21524848Y30397938D01*
D10*
X21524848Y30397938D02*
X21548156Y30434781D01*
D10*
X21548156Y30434781D02*
X21560918Y30467688D01*
D10*
X21560918Y30467688D02*
X21565172Y30500031D01*
D10*
X21565172Y30500031D02*
X21555996Y30547492D01*
D10*
X21555996Y30547492D02*
X21528469Y30585250D01*
D10*
X21528469Y30585250D02*
X21486211Y30610035D01*
D10*
X21486211Y30610035D02*
X21432844Y30618297D01*
D10*
X21432844Y30618297D02*
X21389918Y30614676D01*
D10*
X21389918Y30614676D02*
X21344672Y30603813D01*
D10*
X21344672Y30603813D02*
X21296789Y30585566D01*
D10*
X21296789Y30585566D02*
X21245672Y30559797D01*
D10*
X21245672Y30559797D02*
X21245672Y30649516D01*
D10*
X21245672Y30649516D02*
X21297492Y30668395D01*
D10*
X21297492Y30668395D02*
X21345797Y30682000D01*
D10*
X21345797Y30682000D02*
X21390480Y30690227D01*
D10*
X21390480Y30690227D02*
X21431156Y30692969D01*
D10*
X21431156Y30692969D02*
X21522773Y30680207D01*
D10*
X21522773Y30680207D02*
X21593719Y30641922D01*
D10*
X21593719Y30641922D02*
X21639176Y30582438D01*
D10*
X21639176Y30582438D02*
X21654328Y30505797D01*
D10*
X21654328Y30505797D02*
X21650531Y30466352D01*
D10*
X21650531Y30466352D02*
X21639141Y30429016D01*
D10*
X21639141Y30429016D02*
X21617836Y30389605D01*
D10*
X21617836Y30389605D02*
X21584016Y30343656D01*
D10*
X21584016Y30343656D02*
X21561059Y30318836D01*
D10*
X21561059Y30318836D02*
X21514125Y30269969D01*
D10*
X21514125Y30269969D02*
X21443215Y30196949D01*
D10*
X21443215Y30196949D02*
X21348047Y30099672D01*
D10*
X29736332Y28275000D02*
X30263668Y28275000D01*
D10*
X30263668Y29725000D02*
X29736332Y29725000D01*
D10*
X28949516Y30332688D02*
X28977676Y30317500D01*
D10*
X28977676Y30317500D02*
X29005062Y30291344D01*
D10*
X29005062Y30291344D02*
X29032133Y30253762D01*
D10*
X29032133Y30253762D02*
X29059344Y30204297D01*
D10*
X29059344Y30204297D02*
X29149484Y30025000D01*
D10*
X29149484Y30025000D02*
X29054000Y30025000D01*
D10*
X29054000Y30025000D02*
X28970188Y30193328D01*
D10*
X28970188Y30193328D02*
X28938090Y30248172D01*
D10*
X28938090Y30248172D02*
X28907047Y30280797D01*
D10*
X28907047Y30280797D02*
X28870977Y30296934D01*
D10*
X28870977Y30296934D02*
X28823797Y30302313D01*
D10*
X28823797Y30302313D02*
X28727047Y30302313D01*
D10*
X28727047Y30302313D02*
X28727047Y30025000D01*
D10*
X28727047Y30025000D02*
X28638312Y30025000D01*
D10*
X28638312Y30025000D02*
X28638312Y30681156D01*
D10*
X28638312Y30681156D02*
X28838703Y30681156D01*
D10*
X28838703Y30681156D02*
X28936930Y30669379D01*
D10*
X28936930Y30669379D02*
X29006609Y30634047D01*
D10*
X29006609Y30634047D02*
X29048164Y30575090D01*
D10*
X29048164Y30575090D02*
X29062016Y30492156D01*
D10*
X29062016Y30492156D02*
X29054809Y30435414D01*
D10*
X29054809Y30435414D02*
X29033188Y30389219D01*
D10*
X29033188Y30389219D02*
X28997855Y30354695D01*
D10*
X28997855Y30354695D02*
X28949516Y30332688D01*
D10*
X28727047Y30608172D02*
X28727047Y30375297D01*
D10*
X28727047Y30375297D02*
X28838703Y30375297D01*
D10*
X28838703Y30375297D02*
X28894988Y30382715D01*
D10*
X28894988Y30382715D02*
X28935594Y30404969D01*
D10*
X28935594Y30404969D02*
X28960168Y30441602D01*
D10*
X28960168Y30441602D02*
X28968359Y30492156D01*
D10*
X28968359Y30492156D02*
X28960168Y30542605D01*
D10*
X28960168Y30542605D02*
X28935594Y30578922D01*
D10*
X28935594Y30578922D02*
X28894988Y30600859D01*
D10*
X28894988Y30600859D02*
X28838703Y30608172D01*
D10*
X28838703Y30608172D02*
X28727047Y30608172D01*
D10*
X29515531Y30603813D02*
X29291375Y30253516D01*
D10*
X29291375Y30253516D02*
X29515531Y30253516D01*
D10*
X29515531Y30253516D02*
X29515531Y30603813D01*
D10*
X29492188Y30681156D02*
X29603844Y30681156D01*
D10*
X29603844Y30681156D02*
X29603844Y30253516D01*
D10*
X29603844Y30253516D02*
X29697500Y30253516D01*
D10*
X29697500Y30253516D02*
X29697500Y30179688D01*
D10*
X29697500Y30179688D02*
X29603844Y30179688D01*
D10*
X29603844Y30179688D02*
X29603844Y30025000D01*
D10*
X29603844Y30025000D02*
X29515531Y30025000D01*
D10*
X29515531Y30025000D02*
X29515531Y30179688D01*
D10*
X29515531Y30179688D02*
X29219375Y30179688D01*
D10*
X29219375Y30179688D02*
X29219375Y30265328D01*
D10*
X29219375Y30265328D02*
X29492188Y30681156D01*
D10*
X11736332Y12275000D02*
X12263668Y12275000D01*
D10*
X12263668Y13725000D02*
X11736332Y13725000D01*
D10*
X11129656Y14630531D02*
X11129656Y14537016D01*
D10*
X11129656Y14537016D02*
X11083320Y14573473D01*
D10*
X11083320Y14573473D02*
X11034031Y14599312D01*
D10*
X11034031Y14599312D02*
X10981684Y14614816D01*
D10*
X10981684Y14614816D02*
X10926172Y14619984D01*
D10*
X10926172Y14619984D02*
X10826855Y14602793D01*
D10*
X10826855Y14602793D02*
X10753906Y14551219D01*
D10*
X10753906Y14551219D02*
X10709082Y14467125D01*
D10*
X10709082Y14467125D02*
X10694141Y14352375D01*
D10*
X10694141Y14352375D02*
X10709082Y14237941D01*
D10*
X10709082Y14237941D02*
X10753906Y14153953D01*
D10*
X10753906Y14153953D02*
X10826855Y14102379D01*
D10*
X10826855Y14102379D02*
X10926172Y14085188D01*
D10*
X10926172Y14085188D02*
X10981684Y14090355D01*
D10*
X10981684Y14090355D02*
X11034031Y14105859D01*
D10*
X11034031Y14105859D02*
X11083320Y14131805D01*
D10*
X11083320Y14131805D02*
X11129656Y14168297D01*
D10*
X11129656Y14168297D02*
X11129656Y14075484D01*
D10*
X11129656Y14075484D02*
X11081703Y14047781D01*
D10*
X11081703Y14047781D02*
X11030938Y14027953D01*
D10*
X11030938Y14027953D02*
X10977430Y14016141D01*
D10*
X10977430Y14016141D02*
X10920969Y14012203D01*
D10*
X10920969Y14012203D02*
X10787727Y14034984D01*
D10*
X10787727Y14034984D02*
X10686125Y14103328D01*
D10*
X10686125Y14103328D02*
X10621895Y14211223D01*
D10*
X10621895Y14211223D02*
X10600484Y14352375D01*
D10*
X10600484Y14352375D02*
X10621895Y14493809D01*
D10*
X10621895Y14493809D02*
X10686125Y14601703D01*
D10*
X10686125Y14601703D02*
X10787727Y14670152D01*
D10*
X10787727Y14670152D02*
X10920969Y14692969D01*
D10*
X10920969Y14692969D02*
X10978062Y14689066D01*
D10*
X10978062Y14689066D02*
X11031781Y14677359D01*
D10*
X11031781Y14677359D02*
X11082336Y14657848D01*
D10*
X11082336Y14657848D02*
X11129656Y14630531D01*
D10*
X11351141Y14099672D02*
X11660938Y14099672D01*
D10*
X11660938Y14099672D02*
X11660938Y14025000D01*
D10*
X11660938Y14025000D02*
X11244406Y14025000D01*
D10*
X11244406Y14025000D02*
X11244406Y14099672D01*
D10*
X11244406Y14099672D02*
X11304066Y14160914D01*
D10*
X11304066Y14160914D02*
X11382078Y14240016D01*
D10*
X11382078Y14240016D02*
X11453164Y14312543D01*
D10*
X11453164Y14312543D02*
X11491766Y14353781D01*
D10*
X11491766Y14353781D02*
X11527941Y14397938D01*
D10*
X11527941Y14397938D02*
X11551250Y14434781D01*
D10*
X11551250Y14434781D02*
X11564012Y14467688D01*
D10*
X11564012Y14467688D02*
X11568266Y14500031D01*
D10*
X11568266Y14500031D02*
X11559090Y14547492D01*
D10*
X11559090Y14547492D02*
X11531563Y14585250D01*
D10*
X11531563Y14585250D02*
X11489305Y14610035D01*
D10*
X11489305Y14610035D02*
X11435938Y14618297D01*
D10*
X11435938Y14618297D02*
X11393012Y14614676D01*
D10*
X11393012Y14614676D02*
X11347766Y14603812D01*
D10*
X11347766Y14603812D02*
X11299883Y14585566D01*
D10*
X11299883Y14585566D02*
X11248766Y14559797D01*
D10*
X11248766Y14559797D02*
X11248766Y14649516D01*
D10*
X11248766Y14649516D02*
X11300586Y14668395D01*
D10*
X11300586Y14668395D02*
X11348891Y14682000D01*
D10*
X11348891Y14682000D02*
X11393574Y14690227D01*
D10*
X11393574Y14690227D02*
X11434250Y14692969D01*
D10*
X11434250Y14692969D02*
X11525867Y14680207D01*
D10*
X11525867Y14680207D02*
X11596812Y14641922D01*
D10*
X11596812Y14641922D02*
X11642270Y14582438D01*
D10*
X11642270Y14582438D02*
X11657422Y14505797D01*
D10*
X11657422Y14505797D02*
X11653625Y14466352D01*
D10*
X11653625Y14466352D02*
X11642234Y14429016D01*
D10*
X11642234Y14429016D02*
X11620930Y14389605D01*
D10*
X11620930Y14389605D02*
X11587109Y14343656D01*
D10*
X11587109Y14343656D02*
X11564152Y14318836D01*
D10*
X11564152Y14318836D02*
X11517219Y14269969D01*
D10*
X11517219Y14269969D02*
X11446309Y14196949D01*
D10*
X11446309Y14196949D02*
X11351141Y14099672D01*
D10*
X15725000Y8736332D02*
X15725000Y9263668D01*
D10*
X14275000Y9263668D02*
X14275000Y8736332D01*
D10*
X14674516Y11057688D02*
X14702676Y11042500D01*
D10*
X14702676Y11042500D02*
X14730062Y11016344D01*
D10*
X14730062Y11016344D02*
X14757133Y10978762D01*
D10*
X14757133Y10978762D02*
X14784344Y10929297D01*
D10*
X14784344Y10929297D02*
X14874484Y10750000D01*
D10*
X14874484Y10750000D02*
X14779000Y10750000D01*
D10*
X14779000Y10750000D02*
X14695188Y10918328D01*
D10*
X14695188Y10918328D02*
X14663090Y10973172D01*
D10*
X14663090Y10973172D02*
X14632047Y11005797D01*
D10*
X14632047Y11005797D02*
X14595977Y11021934D01*
D10*
X14595977Y11021934D02*
X14548797Y11027312D01*
D10*
X14548797Y11027312D02*
X14452047Y11027312D01*
D10*
X14452047Y11027312D02*
X14452047Y10750000D01*
D10*
X14452047Y10750000D02*
X14363313Y10750000D01*
D10*
X14363313Y10750000D02*
X14363313Y11406156D01*
D10*
X14363313Y11406156D02*
X14563703Y11406156D01*
D10*
X14563703Y11406156D02*
X14661930Y11394379D01*
D10*
X14661930Y11394379D02*
X14731609Y11359047D01*
D10*
X14731609Y11359047D02*
X14773164Y11300090D01*
D10*
X14773164Y11300090D02*
X14787016Y11217156D01*
D10*
X14787016Y11217156D02*
X14779809Y11160414D01*
D10*
X14779809Y11160414D02*
X14758188Y11114219D01*
D10*
X14758188Y11114219D02*
X14722855Y11079695D01*
D10*
X14722855Y11079695D02*
X14674516Y11057688D01*
D10*
X14452047Y11333172D02*
X14452047Y11100297D01*
D10*
X14452047Y11100297D02*
X14563703Y11100297D01*
D10*
X14563703Y11100297D02*
X14619988Y11107715D01*
D10*
X14619988Y11107715D02*
X14660594Y11129969D01*
D10*
X14660594Y11129969D02*
X14685168Y11166602D01*
D10*
X14685168Y11166602D02*
X14693359Y11217156D01*
D10*
X14693359Y11217156D02*
X14685168Y11267605D01*
D10*
X14685168Y11267605D02*
X14660594Y11303922D01*
D10*
X14660594Y11303922D02*
X14619988Y11325859D01*
D10*
X14619988Y11325859D02*
X14563703Y11333172D01*
D10*
X14563703Y11333172D02*
X14452047Y11333172D01*
D10*
X14997531Y11406156D02*
X15346000Y11406156D01*
D10*
X15346000Y11406156D02*
X15346000Y11331344D01*
D10*
X15346000Y11331344D02*
X15078812Y11331344D01*
D10*
X15078812Y11331344D02*
X15078812Y11170609D01*
D10*
X15078812Y11170609D02*
X15098078Y11176375D01*
D10*
X15098078Y11176375D02*
X15117344Y11180453D01*
D10*
X15117344Y11180453D02*
X15136750Y11182879D01*
D10*
X15136750Y11182879D02*
X15156156Y11183688D01*
D10*
X15156156Y11183688D02*
X15254559Y11168641D01*
D10*
X15254559Y11168641D02*
X15330109Y11123500D01*
D10*
X15330109Y11123500D02*
X15378309Y11052660D01*
D10*
X15378309Y11052660D02*
X15394375Y10960516D01*
D10*
X15394375Y10960516D02*
X15377887Y10866402D01*
D10*
X15377887Y10866402D02*
X15328422Y10795844D01*
D10*
X15328422Y10795844D02*
X15248969Y10751863D01*
D10*
X15248969Y10751863D02*
X15142516Y10737203D01*
D10*
X15142516Y10737203D02*
X15100785Y10738961D01*
D10*
X15100785Y10738961D02*
X15058281Y10744234D01*
D10*
X15058281Y10744234D02*
X15014793Y10753023D01*
D10*
X15014793Y10753023D02*
X14969828Y10765328D01*
D10*
X14969828Y10765328D02*
X14969828Y10854625D01*
D10*
X14969828Y10854625D02*
X15010012Y10835852D01*
D10*
X15010012Y10835852D02*
X15051531Y10822562D01*
D10*
X15051531Y10822562D02*
X15094914Y10814652D01*
D10*
X15094914Y10814652D02*
X15140688Y10812016D01*
D10*
X15140688Y10812016D02*
X15208820Y10822000D01*
D10*
X15208820Y10822000D02*
X15261063Y10851953D01*
D10*
X15261063Y10851953D02*
X15294391Y10899062D01*
D10*
X15294391Y10899062D02*
X15305500Y10960516D01*
D10*
X15305500Y10960516D02*
X15294391Y11021863D01*
D10*
X15294391Y11021863D02*
X15261063Y11068938D01*
D10*
X15261063Y11068938D02*
X15208820Y11098996D01*
D10*
X15208820Y11098996D02*
X15140688Y11109016D01*
D10*
X15140688Y11109016D02*
X15105145Y11107047D01*
D10*
X15105145Y11107047D02*
X15069672Y11101141D01*
D10*
X15069672Y11101141D02*
X15033988Y11091051D01*
D10*
X15033988Y11091051D02*
X14997531Y11076531D01*
D10*
X14997531Y11076531D02*
X14997531Y11406156D01*
D10*
X33725000Y11736332D02*
X33725000Y12263668D01*
D10*
X32275000Y12263668D02*
X32275000Y11736332D01*
D10*
X32674516Y14057688D02*
X32702676Y14042500D01*
D10*
X32702676Y14042500D02*
X32730062Y14016344D01*
D10*
X32730062Y14016344D02*
X32757133Y13978762D01*
D10*
X32757133Y13978762D02*
X32784344Y13929297D01*
D10*
X32784344Y13929297D02*
X32874484Y13750000D01*
D10*
X32874484Y13750000D02*
X32779000Y13750000D01*
D10*
X32779000Y13750000D02*
X32695187Y13918328D01*
D10*
X32695187Y13918328D02*
X32663090Y13973172D01*
D10*
X32663090Y13973172D02*
X32632047Y14005797D01*
D10*
X32632047Y14005797D02*
X32595977Y14021934D01*
D10*
X32595977Y14021934D02*
X32548797Y14027312D01*
D10*
X32548797Y14027312D02*
X32452047Y14027312D01*
D10*
X32452047Y14027312D02*
X32452047Y13750000D01*
D10*
X32452047Y13750000D02*
X32363312Y13750000D01*
D10*
X32363312Y13750000D02*
X32363312Y14406156D01*
D10*
X32363312Y14406156D02*
X32563703Y14406156D01*
D10*
X32563703Y14406156D02*
X32661930Y14394379D01*
D10*
X32661930Y14394379D02*
X32731609Y14359047D01*
D10*
X32731609Y14359047D02*
X32773164Y14300090D01*
D10*
X32773164Y14300090D02*
X32787016Y14217156D01*
D10*
X32787016Y14217156D02*
X32779809Y14160414D01*
D10*
X32779809Y14160414D02*
X32758188Y14114219D01*
D10*
X32758188Y14114219D02*
X32722855Y14079695D01*
D10*
X32722855Y14079695D02*
X32674516Y14057688D01*
D10*
X32452047Y14333172D02*
X32452047Y14100297D01*
D10*
X32452047Y14100297D02*
X32563703Y14100297D01*
D10*
X32563703Y14100297D02*
X32619988Y14107715D01*
D10*
X32619988Y14107715D02*
X32660594Y14129969D01*
D10*
X32660594Y14129969D02*
X32685168Y14166602D01*
D10*
X32685168Y14166602D02*
X32693359Y14217156D01*
D10*
X32693359Y14217156D02*
X32685168Y14267605D01*
D10*
X32685168Y14267605D02*
X32660594Y14303922D01*
D10*
X32660594Y14303922D02*
X32619988Y14325859D01*
D10*
X32619988Y14325859D02*
X32563703Y14333172D01*
D10*
X32563703Y14333172D02*
X32452047Y14333172D01*
D10*
X32974188Y14406156D02*
X33396062Y14406156D01*
D10*
X33396062Y14406156D02*
X33396062Y14368328D01*
D10*
X33396062Y14368328D02*
X33157844Y13750000D01*
D10*
X33157844Y13750000D02*
X33065172Y13750000D01*
D10*
X33065172Y13750000D02*
X33289328Y14331344D01*
D10*
X33289328Y14331344D02*
X32974188Y14331344D01*
D10*
X32974188Y14331344D02*
X32974188Y14406156D01*
D10*
X36725000Y15736332D02*
X36725000Y16263668D01*
D10*
X35275000Y16263668D02*
X35275000Y15736332D01*
D10*
X35674516Y18057688D02*
X35702676Y18042500D01*
D10*
X35702676Y18042500D02*
X35730062Y18016344D01*
D10*
X35730062Y18016344D02*
X35757133Y17978762D01*
D10*
X35757133Y17978762D02*
X35784344Y17929297D01*
D10*
X35784344Y17929297D02*
X35874484Y17750000D01*
D10*
X35874484Y17750000D02*
X35779000Y17750000D01*
D10*
X35779000Y17750000D02*
X35695187Y17918328D01*
D10*
X35695187Y17918328D02*
X35663090Y17973172D01*
D10*
X35663090Y17973172D02*
X35632047Y18005797D01*
D10*
X35632047Y18005797D02*
X35595977Y18021934D01*
D10*
X35595977Y18021934D02*
X35548797Y18027312D01*
D10*
X35548797Y18027312D02*
X35452047Y18027312D01*
D10*
X35452047Y18027312D02*
X35452047Y17750000D01*
D10*
X35452047Y17750000D02*
X35363312Y17750000D01*
D10*
X35363312Y17750000D02*
X35363312Y18406156D01*
D10*
X35363312Y18406156D02*
X35563703Y18406156D01*
D10*
X35563703Y18406156D02*
X35661930Y18394379D01*
D10*
X35661930Y18394379D02*
X35731609Y18359047D01*
D10*
X35731609Y18359047D02*
X35773164Y18300090D01*
D10*
X35773164Y18300090D02*
X35787016Y18217156D01*
D10*
X35787016Y18217156D02*
X35779809Y18160414D01*
D10*
X35779809Y18160414D02*
X35758188Y18114219D01*
D10*
X35758188Y18114219D02*
X35722855Y18079695D01*
D10*
X35722855Y18079695D02*
X35674516Y18057688D01*
D10*
X35452047Y18333172D02*
X35452047Y18100297D01*
D10*
X35452047Y18100297D02*
X35563703Y18100297D01*
D10*
X35563703Y18100297D02*
X35619988Y18107715D01*
D10*
X35619988Y18107715D02*
X35660594Y18129969D01*
D10*
X35660594Y18129969D02*
X35685168Y18166602D01*
D10*
X35685168Y18166602D02*
X35693359Y18217156D01*
D10*
X35693359Y18217156D02*
X35685168Y18267605D01*
D10*
X35685168Y18267605D02*
X35660594Y18303922D01*
D10*
X35660594Y18303922D02*
X35619988Y18325859D01*
D10*
X35619988Y18325859D02*
X35563703Y18333172D01*
D10*
X35563703Y18333172D02*
X35452047Y18333172D01*
D10*
X36197500Y18113375D02*
X36143922Y18103145D01*
D10*
X36143922Y18103145D02*
X36102719Y18072453D01*
D10*
X36102719Y18072453D02*
X36076562Y18024078D01*
D10*
X36076562Y18024078D02*
X36067844Y17960516D01*
D10*
X36067844Y17960516D02*
X36076562Y17897164D01*
D10*
X36076562Y17897164D02*
X36102719Y17848578D01*
D10*
X36102719Y17848578D02*
X36143922Y17817781D01*
D10*
X36143922Y17817781D02*
X36197500Y17807516D01*
D10*
X36197500Y17807516D02*
X36251043Y17817781D01*
D10*
X36251043Y17817781D02*
X36292141Y17848578D01*
D10*
X36292141Y17848578D02*
X36318297Y17897164D01*
D10*
X36318297Y17897164D02*
X36327016Y17960516D01*
D10*
X36327016Y17960516D02*
X36318297Y18024078D01*
D10*
X36318297Y18024078D02*
X36292141Y18072453D01*
D10*
X36292141Y18072453D02*
X36251043Y18103145D01*
D10*
X36251043Y18103145D02*
X36197500Y18113375D01*
D10*
X36373703Y18391672D02*
X36373703Y18310812D01*
D10*
X36373703Y18310812D02*
X36340094Y18324699D01*
D10*
X36340094Y18324699D02*
X36306203Y18334859D01*
D10*
X36306203Y18334859D02*
X36272312Y18341188D01*
D10*
X36272312Y18341188D02*
X36238703Y18343297D01*
D10*
X36238703Y18343297D02*
X36161184Y18328461D01*
D10*
X36161184Y18328461D02*
X36104406Y18283953D01*
D10*
X36104406Y18283953D02*
X36068055Y18209457D01*
D10*
X36068055Y18209457D02*
X36051531Y18104656D01*
D10*
X36051531Y18104656D02*
X36080711Y18138441D01*
D10*
X36080711Y18138441D02*
X36116500Y18163297D01*
D10*
X36116500Y18163297D02*
X36157668Y18178590D01*
D10*
X36157668Y18178590D02*
X36202703Y18183688D01*
D10*
X36202703Y18183688D02*
X36291191Y18168676D01*
D10*
X36291191Y18168676D02*
X36358937Y18123641D01*
D10*
X36358937Y18123641D02*
X36401969Y18052906D01*
D10*
X36401969Y18052906D02*
X36416312Y17960516D01*
D10*
X36416312Y17960516D02*
X36401371Y17869391D01*
D10*
X36401371Y17869391D02*
X36356547Y17798234D01*
D10*
X36356547Y17798234D02*
X36286902Y17752461D01*
D10*
X36286902Y17752461D02*
X36197500Y17737203D01*
D10*
X36197500Y17737203D02*
X36097023Y17759000D01*
D10*
X36097023Y17759000D02*
X36023406Y17824391D01*
D10*
X36023406Y17824391D02*
X35978266Y17931301D01*
D10*
X35978266Y17931301D02*
X35963219Y18077375D01*
D10*
X35963219Y18077375D02*
X35981676Y18217156D01*
D10*
X35981676Y18217156D02*
X36037047Y18325438D01*
D10*
X36037047Y18325438D02*
X36123496Y18394836D01*
D10*
X36123496Y18394836D02*
X36235188Y18417969D01*
D10*
X36235188Y18417969D02*
X36268797Y18416316D01*
D10*
X36268797Y18416316D02*
X36302688Y18411359D01*
D10*
X36302688Y18411359D02*
X36337457Y18403133D01*
D10*
X36337457Y18403133D02*
X36373703Y18391672D01*
D10*
X37736332Y10275000D02*
X38263668Y10275000D01*
D10*
X38263668Y11725000D02*
X37736332Y11725000D01*
D10*
X36949516Y12332688D02*
X36977676Y12317500D01*
D10*
X36977676Y12317500D02*
X37005062Y12291344D01*
D10*
X37005062Y12291344D02*
X37032133Y12253762D01*
D10*
X37032133Y12253762D02*
X37059344Y12204297D01*
D10*
X37059344Y12204297D02*
X37149484Y12025000D01*
D10*
X37149484Y12025000D02*
X37054000Y12025000D01*
D10*
X37054000Y12025000D02*
X36970187Y12193328D01*
D10*
X36970187Y12193328D02*
X36938090Y12248172D01*
D10*
X36938090Y12248172D02*
X36907047Y12280797D01*
D10*
X36907047Y12280797D02*
X36870977Y12296934D01*
D10*
X36870977Y12296934D02*
X36823797Y12302313D01*
D10*
X36823797Y12302313D02*
X36727047Y12302313D01*
D10*
X36727047Y12302313D02*
X36727047Y12025000D01*
D10*
X36727047Y12025000D02*
X36638312Y12025000D01*
D10*
X36638312Y12025000D02*
X36638312Y12681156D01*
D10*
X36638312Y12681156D02*
X36838703Y12681156D01*
D10*
X36838703Y12681156D02*
X36936930Y12669379D01*
D10*
X36936930Y12669379D02*
X37006609Y12634047D01*
D10*
X37006609Y12634047D02*
X37048164Y12575090D01*
D10*
X37048164Y12575090D02*
X37062016Y12492156D01*
D10*
X37062016Y12492156D02*
X37054809Y12435414D01*
D10*
X37054809Y12435414D02*
X37033188Y12389219D01*
D10*
X37033188Y12389219D02*
X36997855Y12354695D01*
D10*
X36997855Y12354695D02*
X36949516Y12332688D01*
D10*
X36727047Y12608172D02*
X36727047Y12375297D01*
D10*
X36727047Y12375297D02*
X36838703Y12375297D01*
D10*
X36838703Y12375297D02*
X36894988Y12382715D01*
D10*
X36894988Y12382715D02*
X36935594Y12404969D01*
D10*
X36935594Y12404969D02*
X36960168Y12441602D01*
D10*
X36960168Y12441602D02*
X36968359Y12492156D01*
D10*
X36968359Y12492156D02*
X36960168Y12542605D01*
D10*
X36960168Y12542605D02*
X36935594Y12578922D01*
D10*
X36935594Y12578922D02*
X36894988Y12600859D01*
D10*
X36894988Y12600859D02*
X36838703Y12608172D01*
D10*
X36838703Y12608172D02*
X36727047Y12608172D01*
D10*
X37461391Y12336625D02*
X37404859Y12328152D01*
D10*
X37404859Y12328152D02*
X37361828Y12302734D01*
D10*
X37361828Y12302734D02*
X37334723Y12262516D01*
D10*
X37334723Y12262516D02*
X37325688Y12209641D01*
D10*
X37325688Y12209641D02*
X37334723Y12156660D01*
D10*
X37334723Y12156660D02*
X37361828Y12116406D01*
D10*
X37361828Y12116406D02*
X37404859Y12090988D01*
D10*
X37404859Y12090988D02*
X37461391Y12082516D01*
D10*
X37461391Y12082516D02*
X37517957Y12091023D01*
D10*
X37517957Y12091023D02*
X37561094Y12116547D01*
D10*
X37561094Y12116547D02*
X37588516Y12156906D01*
D10*
X37588516Y12156906D02*
X37597656Y12209641D01*
D10*
X37597656Y12209641D02*
X37588586Y12262516D01*
D10*
X37588586Y12262516D02*
X37561375Y12302734D01*
D10*
X37561375Y12302734D02*
X37518309Y12328152D01*
D10*
X37518309Y12328152D02*
X37461391Y12336625D01*
D10*
X37372656Y12374312D02*
X37321855Y12394633D01*
D10*
X37321855Y12394633D02*
X37283641Y12427469D01*
D10*
X37283641Y12427469D02*
X37259805Y12470957D01*
D10*
X37259805Y12470957D02*
X37251859Y12522953D01*
D10*
X37251859Y12522953D02*
X37265852Y12593336D01*
D10*
X37265852Y12593336D02*
X37307828Y12647266D01*
D10*
X37307828Y12647266D02*
X37374273Y12681543D01*
D10*
X37374273Y12681543D02*
X37461391Y12692969D01*
D10*
X37461391Y12692969D02*
X37548859Y12681543D01*
D10*
X37548859Y12681543D02*
X37615234Y12647266D01*
D10*
X37615234Y12647266D02*
X37657105Y12593336D01*
D10*
X37657105Y12593336D02*
X37671062Y12522953D01*
D10*
X37671062Y12522953D02*
X37663082Y12470957D01*
D10*
X37663082Y12470957D02*
X37639141Y12427469D01*
D10*
X37639141Y12427469D02*
X37601137Y12394633D01*
D10*
X37601137Y12394633D02*
X37550687Y12374312D01*
D10*
X37550687Y12374312D02*
X37607711Y12352234D01*
D10*
X37607711Y12352234D02*
X37650531Y12315812D01*
D10*
X37650531Y12315812D02*
X37677426Y12267543D01*
D10*
X37677426Y12267543D02*
X37686391Y12209641D01*
D10*
X37686391Y12209641D02*
X37671836Y12125266D01*
D10*
X37671836Y12125266D02*
X37628172Y12063109D01*
D10*
X37628172Y12063109D02*
X37557367Y12024930D01*
D10*
X37557367Y12024930D02*
X37461391Y12012203D01*
D10*
X37461391Y12012203D02*
X37365484Y12024930D01*
D10*
X37365484Y12024930D02*
X37294609Y12063109D01*
D10*
X37294609Y12063109D02*
X37250945Y12125266D01*
D10*
X37250945Y12125266D02*
X37236391Y12209641D01*
D10*
X37236391Y12209641D02*
X37245391Y12267543D01*
D10*
X37245391Y12267543D02*
X37272391Y12315812D01*
D10*
X37272391Y12315812D02*
X37315527Y12352234D01*
D10*
X37315527Y12352234D02*
X37372656Y12374312D01*
D10*
X37340172Y12514516D02*
X37348117Y12469199D01*
D10*
X37348117Y12469199D02*
X37371953Y12435062D01*
D10*
X37371953Y12435062D02*
X37410273Y12413652D01*
D10*
X37410273Y12413652D02*
X37461391Y12406516D01*
D10*
X37461391Y12406516D02*
X37512367Y12413652D01*
D10*
X37512367Y12413652D02*
X37550828Y12435062D01*
D10*
X37550828Y12435062D02*
X37575086Y12469199D01*
D10*
X37575086Y12469199D02*
X37583172Y12514516D01*
D10*
X37583172Y12514516D02*
X37575086Y12559938D01*
D10*
X37575086Y12559938D02*
X37550828Y12594109D01*
D10*
X37550828Y12594109D02*
X37512367Y12615520D01*
D10*
X37512367Y12615520D02*
X37461391Y12622656D01*
D10*
X37461391Y12622656D02*
X37410273Y12615520D01*
D10*
X37410273Y12615520D02*
X37371953Y12594109D01*
D10*
X37371953Y12594109D02*
X37348117Y12559938D01*
D10*
X37348117Y12559938D02*
X37340172Y12514516D01*
D10*
X31725000Y21736332D02*
X31725000Y22263668D01*
D10*
X30275000Y22263668D02*
X30275000Y21736332D01*
D10*
X30854656Y24355531D02*
X30854656Y24262016D01*
D10*
X30854656Y24262016D02*
X30808320Y24298473D01*
D10*
X30808320Y24298473D02*
X30759031Y24324312D01*
D10*
X30759031Y24324312D02*
X30706684Y24339816D01*
D10*
X30706684Y24339816D02*
X30651172Y24344984D01*
D10*
X30651172Y24344984D02*
X30551855Y24327793D01*
D10*
X30551855Y24327793D02*
X30478906Y24276219D01*
D10*
X30478906Y24276219D02*
X30434082Y24192125D01*
D10*
X30434082Y24192125D02*
X30419141Y24077375D01*
D10*
X30419141Y24077375D02*
X30434082Y23962941D01*
D10*
X30434082Y23962941D02*
X30478906Y23878953D01*
D10*
X30478906Y23878953D02*
X30551855Y23827379D01*
D10*
X30551855Y23827379D02*
X30651172Y23810188D01*
D10*
X30651172Y23810188D02*
X30706684Y23815355D01*
D10*
X30706684Y23815355D02*
X30759031Y23830859D01*
D10*
X30759031Y23830859D02*
X30808320Y23856805D01*
D10*
X30808320Y23856805D02*
X30854656Y23893297D01*
D10*
X30854656Y23893297D02*
X30854656Y23800484D01*
D10*
X30854656Y23800484D02*
X30806703Y23772781D01*
D10*
X30806703Y23772781D02*
X30755938Y23752953D01*
D10*
X30755938Y23752953D02*
X30702430Y23741141D01*
D10*
X30702430Y23741141D02*
X30645969Y23737203D01*
D10*
X30645969Y23737203D02*
X30512727Y23759984D01*
D10*
X30512727Y23759984D02*
X30411125Y23828328D01*
D10*
X30411125Y23828328D02*
X30346895Y23936223D01*
D10*
X30346895Y23936223D02*
X30325484Y24077375D01*
D10*
X30325484Y24077375D02*
X30346895Y24218809D01*
D10*
X30346895Y24218809D02*
X30411125Y24326703D01*
D10*
X30411125Y24326703D02*
X30512727Y24395152D01*
D10*
X30512727Y24395152D02*
X30645969Y24417969D01*
D10*
X30645969Y24417969D02*
X30703062Y24414066D01*
D10*
X30703062Y24414066D02*
X30756781Y24402359D01*
D10*
X30756781Y24402359D02*
X30807336Y24382848D01*
D10*
X30807336Y24382848D02*
X30854656Y24355531D01*
D10*
X31268656Y24103812D02*
X31325363Y24082789D01*
D10*
X31325363Y24082789D02*
X31368078Y24047000D01*
D10*
X31368078Y24047000D02*
X31394973Y23998906D01*
D10*
X31394973Y23998906D02*
X31403937Y23940688D01*
D10*
X31403937Y23940688D02*
X31387238Y23854590D01*
D10*
X31387238Y23854590D02*
X31337141Y23790359D01*
D10*
X31337141Y23790359D02*
X31256281Y23750492D01*
D10*
X31256281Y23750492D02*
X31147297Y23737203D01*
D10*
X31147297Y23737203D02*
X31105461Y23739242D01*
D10*
X31105461Y23739242D02*
X31062359Y23745359D01*
D10*
X31062359Y23745359D02*
X31017922Y23755555D01*
D10*
X31017922Y23755555D02*
X30972078Y23769828D01*
D10*
X30972078Y23769828D02*
X30972078Y23855469D01*
D10*
X30972078Y23855469D02*
X31010680Y23836590D01*
D10*
X31010680Y23836590D02*
X31052797Y23822984D01*
D10*
X31052797Y23822984D02*
X31097797Y23814758D01*
D10*
X31097797Y23814758D02*
X31144766Y23812016D01*
D10*
X31144766Y23812016D02*
X31218242Y23820242D01*
D10*
X31218242Y23820242D02*
X31271891Y23844922D01*
D10*
X31271891Y23844922D02*
X31304691Y23885316D01*
D10*
X31304691Y23885316D02*
X31315625Y23940688D01*
D10*
X31315625Y23940688D02*
X31305465Y23992402D01*
D10*
X31305465Y23992402D02*
X31274984Y24031391D01*
D10*
X31274984Y24031391D02*
X31226398Y24055965D01*
D10*
X31226398Y24055965D02*
X31161922Y24064156D01*
D10*
X31161922Y24064156D02*
X31085422Y24064156D01*
D10*
X31085422Y24064156D02*
X31085422Y24137141D01*
D10*
X31085422Y24137141D02*
X31165438Y24137141D01*
D10*
X31165438Y24137141D02*
X31223164Y24143680D01*
D10*
X31223164Y24143680D02*
X31265562Y24163297D01*
D10*
X31265562Y24163297D02*
X31291613Y24195219D01*
D10*
X31291613Y24195219D02*
X31300297Y24238672D01*
D10*
X31300297Y24238672D02*
X31291332Y24283285D01*
D10*
X31291332Y24283285D02*
X31264438Y24316156D01*
D10*
X31264438Y24316156D02*
X31220949Y24336512D01*
D10*
X31220949Y24336512D02*
X31161922Y24343297D01*
D10*
X31161922Y24343297D02*
X31124059Y24341293D01*
D10*
X31124059Y24341293D02*
X31083594Y24335281D01*
D10*
X31083594Y24335281D02*
X31039754Y24325227D01*
D10*
X31039754Y24325227D02*
X30991766Y24310812D01*
D10*
X30991766Y24310812D02*
X30991766Y24389844D01*
D10*
X30991766Y24389844D02*
X31040773Y24402148D01*
D10*
X31040773Y24402148D02*
X31086547Y24410938D01*
D10*
X31086547Y24410938D02*
X31129437Y24416211D01*
D10*
X31129437Y24416211D02*
X31169797Y24417969D01*
D10*
X31169797Y24417969D02*
X31260324Y24406473D01*
D10*
X31260324Y24406473D02*
X31329688Y24371984D01*
D10*
X31329688Y24371984D02*
X31373879Y24318055D01*
D10*
X31373879Y24318055D02*
X31388609Y24247953D01*
D10*
X31388609Y24247953D02*
X31380805Y24197645D01*
D10*
X31380805Y24197645D02*
X31357391Y24155844D01*
D10*
X31357391Y24155844D02*
X31319598Y24124062D01*
D10*
X31319598Y24124062D02*
X31268656Y24103812D01*
D10*
X19725000Y12736332D02*
X19725000Y13263668D01*
D10*
X18275000Y13263668D02*
X18275000Y12736332D01*
D10*
X18854656Y15355531D02*
X18854656Y15262016D01*
D10*
X18854656Y15262016D02*
X18808320Y15298473D01*
D10*
X18808320Y15298473D02*
X18759031Y15324312D01*
D10*
X18759031Y15324312D02*
X18706684Y15339816D01*
D10*
X18706684Y15339816D02*
X18651172Y15344984D01*
D10*
X18651172Y15344984D02*
X18551855Y15327793D01*
D10*
X18551855Y15327793D02*
X18478906Y15276219D01*
D10*
X18478906Y15276219D02*
X18434082Y15192125D01*
D10*
X18434082Y15192125D02*
X18419141Y15077375D01*
D10*
X18419141Y15077375D02*
X18434082Y14962941D01*
D10*
X18434082Y14962941D02*
X18478906Y14878953D01*
D10*
X18478906Y14878953D02*
X18551855Y14827379D01*
D10*
X18551855Y14827379D02*
X18651172Y14810188D01*
D10*
X18651172Y14810188D02*
X18706684Y14815355D01*
D10*
X18706684Y14815355D02*
X18759031Y14830859D01*
D10*
X18759031Y14830859D02*
X18808320Y14856805D01*
D10*
X18808320Y14856805D02*
X18854656Y14893297D01*
D10*
X18854656Y14893297D02*
X18854656Y14800484D01*
D10*
X18854656Y14800484D02*
X18806703Y14772781D01*
D10*
X18806703Y14772781D02*
X18755938Y14752953D01*
D10*
X18755938Y14752953D02*
X18702430Y14741141D01*
D10*
X18702430Y14741141D02*
X18645969Y14737203D01*
D10*
X18645969Y14737203D02*
X18512727Y14759984D01*
D10*
X18512727Y14759984D02*
X18411125Y14828328D01*
D10*
X18411125Y14828328D02*
X18346895Y14936223D01*
D10*
X18346895Y14936223D02*
X18325484Y15077375D01*
D10*
X18325484Y15077375D02*
X18346895Y15218809D01*
D10*
X18346895Y15218809D02*
X18411125Y15326703D01*
D10*
X18411125Y15326703D02*
X18512727Y15395152D01*
D10*
X18512727Y15395152D02*
X18645969Y15417969D01*
D10*
X18645969Y15417969D02*
X18703062Y15414066D01*
D10*
X18703062Y15414066D02*
X18756781Y15402359D01*
D10*
X18756781Y15402359D02*
X18807336Y15382848D01*
D10*
X18807336Y15382848D02*
X18854656Y15355531D01*
D10*
X19243625Y15328812D02*
X19019469Y14978516D01*
D10*
X19019469Y14978516D02*
X19243625Y14978516D01*
D10*
X19243625Y14978516D02*
X19243625Y15328812D01*
D10*
X19220281Y15406156D02*
X19331938Y15406156D01*
D10*
X19331938Y15406156D02*
X19331938Y14978516D01*
D10*
X19331938Y14978516D02*
X19425594Y14978516D01*
D10*
X19425594Y14978516D02*
X19425594Y14904688D01*
D10*
X19425594Y14904688D02*
X19331938Y14904688D01*
D10*
X19331938Y14904688D02*
X19331938Y14750000D01*
D10*
X19331938Y14750000D02*
X19243625Y14750000D01*
D10*
X19243625Y14750000D02*
X19243625Y14904688D01*
D10*
X19243625Y14904688D02*
X18947469Y14904688D01*
D10*
X18947469Y14904688D02*
X18947469Y14990328D01*
D10*
X18947469Y14990328D02*
X19220281Y15406156D01*
D10*
X17250674Y4100000D02*
X18749326Y4100000D01*
D10*
X18749326Y5900000D02*
X17250674Y5900000D01*
D10*
X16529656Y6805531D02*
X16529656Y6712016D01*
D10*
X16529656Y6712016D02*
X16483320Y6748473D01*
D10*
X16483320Y6748473D02*
X16434031Y6774313D01*
D10*
X16434031Y6774313D02*
X16381684Y6789816D01*
D10*
X16381684Y6789816D02*
X16326172Y6794984D01*
D10*
X16326172Y6794984D02*
X16226855Y6777793D01*
D10*
X16226855Y6777793D02*
X16153906Y6726219D01*
D10*
X16153906Y6726219D02*
X16109082Y6642125D01*
D10*
X16109082Y6642125D02*
X16094141Y6527375D01*
D10*
X16094141Y6527375D02*
X16109082Y6412941D01*
D10*
X16109082Y6412941D02*
X16153906Y6328953D01*
D10*
X16153906Y6328953D02*
X16226855Y6277379D01*
D10*
X16226855Y6277379D02*
X16326172Y6260188D01*
D10*
X16326172Y6260188D02*
X16381684Y6265355D01*
D10*
X16381684Y6265355D02*
X16434031Y6280859D01*
D10*
X16434031Y6280859D02*
X16483320Y6306805D01*
D10*
X16483320Y6306805D02*
X16529656Y6343297D01*
D10*
X16529656Y6343297D02*
X16529656Y6250484D01*
D10*
X16529656Y6250484D02*
X16481703Y6222781D01*
D10*
X16481703Y6222781D02*
X16430937Y6202953D01*
D10*
X16430937Y6202953D02*
X16377430Y6191141D01*
D10*
X16377430Y6191141D02*
X16320969Y6187203D01*
D10*
X16320969Y6187203D02*
X16187727Y6209984D01*
D10*
X16187727Y6209984D02*
X16086125Y6278328D01*
D10*
X16086125Y6278328D02*
X16021895Y6386223D01*
D10*
X16021895Y6386223D02*
X16000484Y6527375D01*
D10*
X16000484Y6527375D02*
X16021895Y6668809D01*
D10*
X16021895Y6668809D02*
X16086125Y6776703D01*
D10*
X16086125Y6776703D02*
X16187727Y6845152D01*
D10*
X16187727Y6845152D02*
X16320969Y6867969D01*
D10*
X16320969Y6867969D02*
X16378062Y6864066D01*
D10*
X16378062Y6864066D02*
X16431781Y6852359D01*
D10*
X16431781Y6852359D02*
X16482336Y6832848D01*
D10*
X16482336Y6832848D02*
X16529656Y6805531D01*
D10*
X16675625Y6856156D02*
X17024094Y6856156D01*
D10*
X17024094Y6856156D02*
X17024094Y6781344D01*
D10*
X17024094Y6781344D02*
X16756906Y6781344D01*
D10*
X16756906Y6781344D02*
X16756906Y6620609D01*
D10*
X16756906Y6620609D02*
X16776172Y6626375D01*
D10*
X16776172Y6626375D02*
X16795438Y6630453D01*
D10*
X16795438Y6630453D02*
X16814844Y6632879D01*
D10*
X16814844Y6632879D02*
X16834250Y6633688D01*
D10*
X16834250Y6633688D02*
X16932652Y6618641D01*
D10*
X16932652Y6618641D02*
X17008203Y6573500D01*
D10*
X17008203Y6573500D02*
X17056402Y6502660D01*
D10*
X17056402Y6502660D02*
X17072469Y6410516D01*
D10*
X17072469Y6410516D02*
X17055980Y6316402D01*
D10*
X17055980Y6316402D02*
X17006516Y6245844D01*
D10*
X17006516Y6245844D02*
X16927062Y6201863D01*
D10*
X16927062Y6201863D02*
X16820609Y6187203D01*
D10*
X16820609Y6187203D02*
X16778879Y6188961D01*
D10*
X16778879Y6188961D02*
X16736375Y6194234D01*
D10*
X16736375Y6194234D02*
X16692887Y6203023D01*
D10*
X16692887Y6203023D02*
X16647922Y6215328D01*
D10*
X16647922Y6215328D02*
X16647922Y6304625D01*
D10*
X16647922Y6304625D02*
X16688105Y6285852D01*
D10*
X16688105Y6285852D02*
X16729625Y6272562D01*
D10*
X16729625Y6272562D02*
X16773008Y6264652D01*
D10*
X16773008Y6264652D02*
X16818781Y6262016D01*
D10*
X16818781Y6262016D02*
X16886914Y6272000D01*
D10*
X16886914Y6272000D02*
X16939156Y6301953D01*
D10*
X16939156Y6301953D02*
X16972484Y6349063D01*
D10*
X16972484Y6349063D02*
X16983594Y6410516D01*
D10*
X16983594Y6410516D02*
X16972484Y6471863D01*
D10*
X16972484Y6471863D02*
X16939156Y6518938D01*
D10*
X16939156Y6518938D02*
X16886914Y6548996D01*
D10*
X16886914Y6548996D02*
X16818781Y6559016D01*
D10*
X16818781Y6559016D02*
X16783238Y6557047D01*
D10*
X16783238Y6557047D02*
X16747766Y6551141D01*
D10*
X16747766Y6551141D02*
X16712082Y6541051D01*
D10*
X16712082Y6541051D02*
X16675625Y6526531D01*
D10*
X16675625Y6526531D02*
X16675625Y6856156D01*
D10*
X31250674Y4100000D02*
X32749326Y4100000D01*
D10*
X32749326Y5900000D02*
X31250674Y5900000D01*
D10*
X30529656Y6805531D02*
X30529656Y6712016D01*
D10*
X30529656Y6712016D02*
X30483320Y6748473D01*
D10*
X30483320Y6748473D02*
X30434031Y6774313D01*
D10*
X30434031Y6774313D02*
X30381684Y6789816D01*
D10*
X30381684Y6789816D02*
X30326172Y6794984D01*
D10*
X30326172Y6794984D02*
X30226855Y6777793D01*
D10*
X30226855Y6777793D02*
X30153906Y6726219D01*
D10*
X30153906Y6726219D02*
X30109082Y6642125D01*
D10*
X30109082Y6642125D02*
X30094141Y6527375D01*
D10*
X30094141Y6527375D02*
X30109082Y6412941D01*
D10*
X30109082Y6412941D02*
X30153906Y6328953D01*
D10*
X30153906Y6328953D02*
X30226855Y6277379D01*
D10*
X30226855Y6277379D02*
X30326172Y6260188D01*
D10*
X30326172Y6260188D02*
X30381684Y6265355D01*
D10*
X30381684Y6265355D02*
X30434031Y6280859D01*
D10*
X30434031Y6280859D02*
X30483320Y6306805D01*
D10*
X30483320Y6306805D02*
X30529656Y6343297D01*
D10*
X30529656Y6343297D02*
X30529656Y6250484D01*
D10*
X30529656Y6250484D02*
X30481703Y6222781D01*
D10*
X30481703Y6222781D02*
X30430938Y6202953D01*
D10*
X30430938Y6202953D02*
X30377430Y6191141D01*
D10*
X30377430Y6191141D02*
X30320969Y6187203D01*
D10*
X30320969Y6187203D02*
X30187727Y6209984D01*
D10*
X30187727Y6209984D02*
X30086125Y6278328D01*
D10*
X30086125Y6278328D02*
X30021895Y6386223D01*
D10*
X30021895Y6386223D02*
X30000484Y6527375D01*
D10*
X30000484Y6527375D02*
X30021895Y6668809D01*
D10*
X30021895Y6668809D02*
X30086125Y6776703D01*
D10*
X30086125Y6776703D02*
X30187727Y6845152D01*
D10*
X30187727Y6845152D02*
X30320969Y6867969D01*
D10*
X30320969Y6867969D02*
X30378062Y6864066D01*
D10*
X30378062Y6864066D02*
X30431781Y6852359D01*
D10*
X30431781Y6852359D02*
X30482336Y6832848D01*
D10*
X30482336Y6832848D02*
X30529656Y6805531D01*
D10*
X30875594Y6563375D02*
X30822016Y6553145D01*
D10*
X30822016Y6553145D02*
X30780812Y6522453D01*
D10*
X30780812Y6522453D02*
X30754656Y6474078D01*
D10*
X30754656Y6474078D02*
X30745938Y6410516D01*
D10*
X30745938Y6410516D02*
X30754656Y6347164D01*
D10*
X30754656Y6347164D02*
X30780812Y6298578D01*
D10*
X30780812Y6298578D02*
X30822016Y6267781D01*
D10*
X30822016Y6267781D02*
X30875594Y6257516D01*
D10*
X30875594Y6257516D02*
X30929137Y6267781D01*
D10*
X30929137Y6267781D02*
X30970234Y6298578D01*
D10*
X30970234Y6298578D02*
X30996391Y6347164D01*
D10*
X30996391Y6347164D02*
X31005109Y6410516D01*
D10*
X31005109Y6410516D02*
X30996391Y6474078D01*
D10*
X30996391Y6474078D02*
X30970234Y6522453D01*
D10*
X30970234Y6522453D02*
X30929137Y6553145D01*
D10*
X30929137Y6553145D02*
X30875594Y6563375D01*
D10*
X31051797Y6841672D02*
X31051797Y6760812D01*
D10*
X31051797Y6760812D02*
X31018188Y6774699D01*
D10*
X31018188Y6774699D02*
X30984297Y6784859D01*
D10*
X30984297Y6784859D02*
X30950406Y6791188D01*
D10*
X30950406Y6791188D02*
X30916797Y6793297D01*
D10*
X30916797Y6793297D02*
X30839277Y6778461D01*
D10*
X30839277Y6778461D02*
X30782500Y6733953D01*
D10*
X30782500Y6733953D02*
X30746148Y6659457D01*
D10*
X30746148Y6659457D02*
X30729625Y6554656D01*
D10*
X30729625Y6554656D02*
X30758805Y6588441D01*
D10*
X30758805Y6588441D02*
X30794594Y6613297D01*
D10*
X30794594Y6613297D02*
X30835762Y6628590D01*
D10*
X30835762Y6628590D02*
X30880797Y6633688D01*
D10*
X30880797Y6633688D02*
X30969285Y6618676D01*
D10*
X30969285Y6618676D02*
X31037031Y6573641D01*
D10*
X31037031Y6573641D02*
X31080062Y6502906D01*
D10*
X31080062Y6502906D02*
X31094406Y6410516D01*
D10*
X31094406Y6410516D02*
X31079465Y6319391D01*
D10*
X31079465Y6319391D02*
X31034641Y6248234D01*
D10*
X31034641Y6248234D02*
X30964996Y6202461D01*
D10*
X30964996Y6202461D02*
X30875594Y6187203D01*
D10*
X30875594Y6187203D02*
X30775117Y6209000D01*
D10*
X30775117Y6209000D02*
X30701500Y6274391D01*
D10*
X30701500Y6274391D02*
X30656359Y6381301D01*
D10*
X30656359Y6381301D02*
X30641312Y6527375D01*
D10*
X30641312Y6527375D02*
X30659770Y6667156D01*
D10*
X30659770Y6667156D02*
X30715141Y6775438D01*
D10*
X30715141Y6775438D02*
X30801590Y6844836D01*
D10*
X30801590Y6844836D02*
X30913281Y6867969D01*
D10*
X30913281Y6867969D02*
X30946891Y6866316D01*
D10*
X30946891Y6866316D02*
X30980781Y6861359D01*
D10*
X30980781Y6861359D02*
X31015551Y6853133D01*
D10*
X31015551Y6853133D02*
X31051797Y6841672D01*
M02*
