G04 Nyquist Labs eelab.pcb*
%TF.FileFunction,Copper,L2,Bot*%
%TF.FilePolarity,Positive*%
%FSLAX46Y46*%
%MOMM*%
%LPD*%
%ADD10C,0.2500*%
%ADD11C,0.4000*%
%ADD12C,0.6000*%
%ADD13R,1.7000X1.7000*%
%ADD14C,1.7000*%
G01*
%LPD*%
G36*
X1020142Y310000D02*
X1010340Y310482D01*
X875482Y323764D01*
X865775Y325204D01*
X856255Y327588D01*
X745947Y361050D01*
X736708Y364356D01*
X727836Y368552D01*
X626176Y422890D01*
X617759Y427935D01*
X609876Y433781D01*
X520770Y506909D01*
X513499Y513499D01*
X506909Y520770D01*
X433781Y609876D01*
X427935Y617759D01*
X422890Y626176D01*
X368552Y727836D01*
X364356Y736708D01*
X361050Y745947D01*
X327588Y856255D01*
X325204Y865775D01*
X323764Y875482D01*
X310482Y1010340D01*
X310000Y1020142D01*
X310000Y34979858D01*
X310482Y34989660D01*
X323764Y35124518D01*
X325204Y35134225D01*
X327588Y35143745D01*
X361050Y35254053D01*
X364356Y35263292D01*
X368552Y35272164D01*
X422890Y35373824D01*
X427935Y35382241D01*
X433781Y35390124D01*
X506909Y35479230D01*
X513499Y35486501D01*
X520770Y35493091D01*
X609876Y35566219D01*
X617759Y35572065D01*
X626176Y35577110D01*
X727836Y35631448D01*
X736708Y35635644D01*
X745947Y35638950D01*
X856255Y35672412D01*
X865775Y35674796D01*
X875482Y35676236D01*
X1010340Y35689518D01*
X1020142Y35690000D01*
X48979858Y35690000D01*
X48989660Y35689518D01*
X49124518Y35676236D01*
X49134225Y35674796D01*
X49143745Y35672412D01*
X49254053Y35638950D01*
X49263292Y35635644D01*
X49272164Y35631448D01*
X49373824Y35577110D01*
X49382241Y35572065D01*
X49390124Y35566219D01*
X49479230Y35493091D01*
X49486501Y35486501D01*
X49493091Y35479230D01*
X49566219Y35390124D01*
X49572065Y35382241D01*
X49577110Y35373824D01*
X49631448Y35272164D01*
X49635644Y35263292D01*
X49638950Y35254053D01*
X49672412Y35143745D01*
X49674796Y35134225D01*
X49676236Y35124518D01*
X49689518Y34989660D01*
X49690000Y34979858D01*
X49690000Y1020142D01*
X49689518Y1010340D01*
X49676236Y875482D01*
X49674796Y865775D01*
X49672412Y856255D01*
X49638950Y745947D01*
X49635644Y736708D01*
X49631448Y727836D01*
X49577110Y626176D01*
X49572065Y617759D01*
X49566219Y609876D01*
X49493091Y520770D01*
X49486501Y513499D01*
X49479230Y506909D01*
X49390124Y433781D01*
X49382241Y427935D01*
X49373824Y422890D01*
X49272164Y368552D01*
X49263292Y364356D01*
X49254053Y361050D01*
X49143745Y327588D01*
X49134225Y325204D01*
X49124518Y323764D01*
X48989660Y310482D01*
X48979858Y310000D01*
X1020142Y310000D01*
G37*
%LPD*%
%LPC*%
G36*
X48178758Y31589611D02*
X48179968Y31591746D01*
X48188525Y31607757D01*
X48189629Y31609948D01*
X48259908Y31758542D01*
X48260903Y31760785D01*
X48267850Y31777557D01*
X48268733Y31779847D01*
X48324109Y31934614D01*
X48324879Y31936944D01*
X48330149Y31954316D01*
X48330803Y31956681D01*
X48370743Y32116130D01*
X48371281Y32118524D01*
X48374823Y32136329D01*
X48375242Y32138747D01*
X48399361Y32301343D01*
X48399661Y32303779D01*
X48401441Y32321845D01*
X48401621Y32324292D01*
X48409687Y32488470D01*
X48409747Y32490923D01*
X48409747Y32509077D01*
X48409687Y32511530D01*
X48401621Y32675708D01*
X48401441Y32678155D01*
X48399661Y32696221D01*
X48399361Y32698657D01*
X48375242Y32861253D01*
X48374823Y32863671D01*
X48371281Y32881476D01*
X48370743Y32883870D01*
X48330803Y33043319D01*
X48330149Y33045684D01*
X48324879Y33063056D01*
X48324109Y33065386D01*
X48268733Y33220153D01*
X48267850Y33222443D01*
X48260903Y33239215D01*
X48259908Y33241458D01*
X48189629Y33390052D01*
X48188525Y33392243D01*
X48179968Y33408254D01*
X48178758Y33410389D01*
X48094252Y33551378D01*
X48092940Y33553451D01*
X48082854Y33568546D01*
X48081441Y33570552D01*
X47983522Y33702580D01*
X47982013Y33704514D01*
X47970496Y33718547D01*
X47968893Y33720405D01*
X47858505Y33842200D01*
X47856813Y33843977D01*
X47843977Y33856813D01*
X47842200Y33858505D01*
X47720405Y33968893D01*
X47718547Y33970496D01*
X47704514Y33982013D01*
X47702580Y33983522D01*
X47570552Y34081441D01*
X47568546Y34082854D01*
X47553451Y34092940D01*
X47551378Y34094252D01*
X47410389Y34178758D01*
X47408254Y34179968D01*
X47392243Y34188525D01*
X47390052Y34189629D01*
X47241458Y34259908D01*
X47239215Y34260903D01*
X47222443Y34267850D01*
X47220153Y34268733D01*
X47065386Y34324109D01*
X47063056Y34324879D01*
X47045684Y34330149D01*
X47043319Y34330803D01*
X46883870Y34370743D01*
X46881476Y34371281D01*
X46863671Y34374823D01*
X46861253Y34375242D01*
X46698657Y34399361D01*
X46696221Y34399661D01*
X46678155Y34401441D01*
X46675708Y34401621D01*
X46511530Y34409687D01*
X46509077Y34409747D01*
X46490923Y34409747D01*
X46488470Y34409687D01*
X46324292Y34401621D01*
X46321845Y34401441D01*
X46303779Y34399661D01*
X46301343Y34399361D01*
X46138747Y34375242D01*
X46136329Y34374823D01*
X46118524Y34371281D01*
X46116130Y34370743D01*
X45956681Y34330803D01*
X45954316Y34330149D01*
X45936944Y34324879D01*
X45934614Y34324109D01*
X45779847Y34268733D01*
X45777557Y34267850D01*
X45760785Y34260903D01*
X45758542Y34259908D01*
X45609948Y34189629D01*
X45607757Y34188525D01*
X45591746Y34179968D01*
X45589611Y34178758D01*
X45448622Y34094252D01*
X45446549Y34092940D01*
X45431454Y34082854D01*
X45429448Y34081441D01*
X45297420Y33983522D01*
X45295486Y33982013D01*
X45281453Y33970496D01*
X45279595Y33968893D01*
X45157800Y33858505D01*
X45156023Y33856813D01*
X45143187Y33843977D01*
X45141495Y33842200D01*
X45031107Y33720405D01*
X45029504Y33718547D01*
X45017987Y33704514D01*
X45016478Y33702580D01*
X44918559Y33570552D01*
X44917146Y33568546D01*
X44907060Y33553451D01*
X44905748Y33551378D01*
X44821242Y33410389D01*
X44820032Y33408254D01*
X44811475Y33392243D01*
X44810371Y33390052D01*
X44740092Y33241458D01*
X44739097Y33239215D01*
X44732150Y33222443D01*
X44731267Y33220153D01*
X44675891Y33065386D01*
X44675121Y33063056D01*
X44669851Y33045684D01*
X44669197Y33043319D01*
X44629257Y32883870D01*
X44628719Y32881476D01*
X44625177Y32863671D01*
X44624758Y32861253D01*
X44600639Y32698657D01*
X44600339Y32696221D01*
X44598559Y32678155D01*
X44598379Y32675708D01*
X44590313Y32511530D01*
X44590253Y32509077D01*
X44590253Y32490923D01*
X44590313Y32488470D01*
X44598379Y32324292D01*
X44598559Y32321845D01*
X44600339Y32303779D01*
X44600639Y32301343D01*
X44624758Y32138747D01*
X44625177Y32136329D01*
X44628719Y32118524D01*
X44629257Y32116130D01*
X44669197Y31956681D01*
X44669851Y31954316D01*
X44675121Y31936944D01*
X44675891Y31934614D01*
X44731267Y31779847D01*
X44732150Y31777557D01*
X44739097Y31760785D01*
X44740092Y31758542D01*
X44810371Y31609948D01*
X44811475Y31607757D01*
X44820032Y31591746D01*
X44821242Y31589611D01*
X44905748Y31448622D01*
X44907060Y31446549D01*
X44917146Y31431454D01*
X44918559Y31429448D01*
X45016478Y31297420D01*
X45017987Y31295486D01*
X45029504Y31281453D01*
X45031107Y31279595D01*
X45141495Y31157800D01*
X45143187Y31156023D01*
X45156023Y31143187D01*
X45157800Y31141495D01*
X45279595Y31031107D01*
X45281453Y31029504D01*
X45295486Y31017987D01*
X45297420Y31016478D01*
X45429448Y30918559D01*
X45431454Y30917146D01*
X45446549Y30907060D01*
X45448622Y30905748D01*
X45589611Y30821242D01*
X45591746Y30820032D01*
X45607757Y30811475D01*
X45609948Y30810371D01*
X45758542Y30740092D01*
X45760785Y30739097D01*
X45777557Y30732150D01*
X45779847Y30731267D01*
X45934614Y30675891D01*
X45936944Y30675121D01*
X45954316Y30669851D01*
X45956681Y30669197D01*
X46116130Y30629257D01*
X46118524Y30628719D01*
X46136329Y30625177D01*
X46138747Y30624758D01*
X46301343Y30600639D01*
X46303779Y30600339D01*
X46321845Y30598559D01*
X46324292Y30598379D01*
X46488470Y30590313D01*
X46490923Y30590253D01*
X46509077Y30590253D01*
X46511530Y30590313D01*
X46675708Y30598379D01*
X46678155Y30598559D01*
X46696221Y30600339D01*
X46698657Y30600639D01*
X46861253Y30624758D01*
X46863671Y30625177D01*
X46881476Y30628719D01*
X46883870Y30629257D01*
X47043319Y30669197D01*
X47045684Y30669851D01*
X47063056Y30675121D01*
X47065386Y30675891D01*
X47220153Y30731267D01*
X47222443Y30732150D01*
X47239215Y30739097D01*
X47241458Y30740092D01*
X47390052Y30810371D01*
X47392243Y30811475D01*
X47408254Y30820032D01*
X47410389Y30821242D01*
X47551378Y30905748D01*
X47553451Y30907060D01*
X47568546Y30917146D01*
X47570552Y30918559D01*
X47702580Y31016478D01*
X47704514Y31017987D01*
X47718547Y31029504D01*
X47720405Y31031107D01*
X47842200Y31141495D01*
X47843977Y31143187D01*
X47856813Y31156023D01*
X47858505Y31157800D01*
X47968893Y31279595D01*
X47970496Y31281453D01*
X47982013Y31295486D01*
X47983522Y31297420D01*
X48081441Y31429448D01*
X48082854Y31431454D01*
X48092940Y31446549D01*
X48094252Y31448622D01*
X48178758Y31589611D01*
G37*
%LPD*%
%LPC*%
G36*
X48259908Y2758542D02*
X48260903Y2760785D01*
X48267850Y2777557D01*
X48268733Y2779847D01*
X48324109Y2934614D01*
X48324879Y2936944D01*
X48330149Y2954316D01*
X48330803Y2956681D01*
X48370743Y3116130D01*
X48371281Y3118524D01*
X48374823Y3136329D01*
X48375242Y3138747D01*
X48399361Y3301343D01*
X48399661Y3303779D01*
X48401441Y3321845D01*
X48401621Y3324292D01*
X48409687Y3488470D01*
X48409747Y3490923D01*
X48409747Y3509077D01*
X48409687Y3511530D01*
X48401621Y3675708D01*
X48401441Y3678155D01*
X48399661Y3696221D01*
X48399361Y3698657D01*
X48375242Y3861253D01*
X48374823Y3863671D01*
X48371281Y3881476D01*
X48370743Y3883870D01*
X48330803Y4043319D01*
X48330149Y4045684D01*
X48324879Y4063056D01*
X48324109Y4065386D01*
X48268733Y4220153D01*
X48267850Y4222443D01*
X48260903Y4239215D01*
X48259908Y4241458D01*
X48189629Y4390052D01*
X48188525Y4392243D01*
X48179968Y4408254D01*
X48178758Y4410389D01*
X48094252Y4551378D01*
X48092940Y4553451D01*
X48082854Y4568546D01*
X48081441Y4570552D01*
X47983522Y4702580D01*
X47982013Y4704514D01*
X47970496Y4718547D01*
X47968893Y4720405D01*
X47858505Y4842200D01*
X47856813Y4843977D01*
X47843977Y4856813D01*
X47842200Y4858505D01*
X47720405Y4968893D01*
X47718547Y4970496D01*
X47704514Y4982013D01*
X47702580Y4983522D01*
X47570552Y5081441D01*
X47568546Y5082854D01*
X47553451Y5092940D01*
X47551378Y5094252D01*
X47410389Y5178758D01*
X47408254Y5179968D01*
X47392243Y5188525D01*
X47390052Y5189629D01*
X47241458Y5259908D01*
X47239215Y5260903D01*
X47222443Y5267850D01*
X47220153Y5268733D01*
X47065386Y5324109D01*
X47063056Y5324879D01*
X47045684Y5330149D01*
X47043319Y5330803D01*
X46883870Y5370743D01*
X46881476Y5371281D01*
X46863671Y5374823D01*
X46861253Y5375242D01*
X46698657Y5399361D01*
X46696221Y5399661D01*
X46678155Y5401441D01*
X46675708Y5401621D01*
X46511530Y5409687D01*
X46509077Y5409747D01*
X46490923Y5409747D01*
X46488470Y5409687D01*
X46324292Y5401621D01*
X46321845Y5401441D01*
X46303779Y5399661D01*
X46301343Y5399361D01*
X46138747Y5375242D01*
X46136329Y5374823D01*
X46118524Y5371281D01*
X46116130Y5370743D01*
X45956681Y5330803D01*
X45954316Y5330149D01*
X45936944Y5324879D01*
X45934614Y5324109D01*
X45779847Y5268733D01*
X45777557Y5267850D01*
X45760785Y5260903D01*
X45758542Y5259908D01*
X45609948Y5189629D01*
X45607757Y5188525D01*
X45591746Y5179968D01*
X45589611Y5178758D01*
X45448622Y5094252D01*
X45446549Y5092940D01*
X45431454Y5082854D01*
X45429448Y5081441D01*
X45297420Y4983522D01*
X45295486Y4982013D01*
X45281453Y4970496D01*
X45279595Y4968893D01*
X45157800Y4858505D01*
X45156023Y4856813D01*
X45143187Y4843977D01*
X45141495Y4842200D01*
X45031107Y4720405D01*
X45029504Y4718547D01*
X45017987Y4704514D01*
X45016478Y4702580D01*
X44918559Y4570552D01*
X44917146Y4568546D01*
X44907060Y4553451D01*
X44905748Y4551378D01*
X44821242Y4410389D01*
X44820032Y4408254D01*
X44811475Y4392243D01*
X44810371Y4390052D01*
X44740092Y4241458D01*
X44739097Y4239215D01*
X44732150Y4222443D01*
X44731267Y4220153D01*
X44675891Y4065386D01*
X44675121Y4063056D01*
X44669851Y4045684D01*
X44669197Y4043319D01*
X44629257Y3883870D01*
X44628719Y3881476D01*
X44625177Y3863671D01*
X44624758Y3861253D01*
X44600639Y3698657D01*
X44600339Y3696221D01*
X44598559Y3678155D01*
X44598379Y3675708D01*
X44590313Y3511530D01*
X44590253Y3509077D01*
X44590253Y3490923D01*
X44590313Y3488470D01*
X44598379Y3324292D01*
X44598559Y3321845D01*
X44600339Y3303779D01*
X44600639Y3301343D01*
X44624758Y3138747D01*
X44625177Y3136329D01*
X44628719Y3118524D01*
X44629257Y3116130D01*
X44669197Y2956681D01*
X44669851Y2954316D01*
X44675121Y2936944D01*
X44675891Y2934614D01*
X44731267Y2779847D01*
X44732150Y2777557D01*
X44739097Y2760785D01*
X44740092Y2758542D01*
X44810371Y2609948D01*
X44811475Y2607757D01*
X44820032Y2591746D01*
X44821242Y2589611D01*
X44905748Y2448622D01*
X44907060Y2446549D01*
X44917146Y2431454D01*
X44918559Y2429448D01*
X45016478Y2297420D01*
X45017987Y2295486D01*
X45029504Y2281453D01*
X45031107Y2279595D01*
X45141495Y2157800D01*
X45143187Y2156023D01*
X45156023Y2143187D01*
X45157800Y2141495D01*
X45279595Y2031107D01*
X45281453Y2029504D01*
X45295486Y2017987D01*
X45297420Y2016478D01*
X45429448Y1918559D01*
X45431454Y1917146D01*
X45446549Y1907060D01*
X45448622Y1905748D01*
X45589611Y1821242D01*
X45591746Y1820032D01*
X45607757Y1811475D01*
X45609948Y1810371D01*
X45758542Y1740092D01*
X45760785Y1739097D01*
X45777557Y1732150D01*
X45779847Y1731267D01*
X45934614Y1675891D01*
X45936944Y1675121D01*
X45954316Y1669851D01*
X45956681Y1669197D01*
X46116130Y1629257D01*
X46118524Y1628719D01*
X46136329Y1625177D01*
X46138747Y1624758D01*
X46301343Y1600639D01*
X46303779Y1600339D01*
X46321845Y1598559D01*
X46324292Y1598379D01*
X46488470Y1590313D01*
X46490923Y1590253D01*
X46509077Y1590253D01*
X46511530Y1590313D01*
X46675708Y1598379D01*
X46678155Y1598559D01*
X46696221Y1600339D01*
X46698657Y1600639D01*
X46861253Y1624758D01*
X46863671Y1625177D01*
X46881476Y1628719D01*
X46883870Y1629257D01*
X47043319Y1669197D01*
X47045684Y1669851D01*
X47063056Y1675121D01*
X47065386Y1675891D01*
X47220153Y1731267D01*
X47222443Y1732150D01*
X47239215Y1739097D01*
X47241458Y1740092D01*
X47390052Y1810371D01*
X47392243Y1811475D01*
X47408254Y1820032D01*
X47410389Y1821242D01*
X47551378Y1905748D01*
X47553451Y1907060D01*
X47568546Y1917146D01*
X47570552Y1918559D01*
X47702580Y2016478D01*
X47704514Y2017987D01*
X47718547Y2029504D01*
X47720405Y2031107D01*
X47842200Y2141495D01*
X47843977Y2143187D01*
X47856813Y2156023D01*
X47858505Y2157800D01*
X47968893Y2279595D01*
X47970496Y2281453D01*
X47982013Y2295486D01*
X47983522Y2297420D01*
X48081441Y2429448D01*
X48082854Y2431454D01*
X48092940Y2446549D01*
X48094252Y2448622D01*
X48178758Y2589611D01*
X48179968Y2591746D01*
X48188525Y2607757D01*
X48189629Y2609948D01*
X48259908Y2758542D01*
G37*
%LPD*%
%LPC*%
G36*
X31244367Y27990450D02*
X31254169Y27989968D01*
X31263877Y27988528D01*
X31273396Y27986144D01*
X31282636Y27982838D01*
X31291507Y27978642D01*
X31299924Y27973597D01*
X31307807Y27967751D01*
X31315078Y27961160D01*
X31512251Y27763987D01*
X31514029Y27762295D01*
X31527480Y27750104D01*
X31529338Y27748501D01*
X31546382Y27734513D01*
X31548317Y27733003D01*
X31561912Y27722920D01*
X31565990Y27720196D01*
X31580508Y27711494D01*
X31582643Y27710284D01*
X31602089Y27699890D01*
X31604281Y27698787D01*
X31619582Y27691550D01*
X31624112Y27689673D01*
X31640049Y27683971D01*
X31642379Y27683201D01*
X31663480Y27676801D01*
X31665844Y27676146D01*
X31682263Y27672033D01*
X31687073Y27671077D01*
X31703816Y27668593D01*
X31706251Y27668293D01*
X31728195Y27666131D01*
X31730642Y27665951D01*
X31748774Y27665060D01*
X31751227Y27665000D01*
X32069817Y27665000D01*
X32079619Y27664518D01*
X32089326Y27663079D01*
X32098846Y27660694D01*
X32108085Y27657388D01*
X32116957Y27653192D01*
X32125374Y27648147D01*
X32133256Y27642301D01*
X32140528Y27635711D01*
X39262251Y20513987D01*
X39264029Y20512295D01*
X39277480Y20500104D01*
X39279338Y20498501D01*
X39296382Y20484513D01*
X39298317Y20483003D01*
X39311912Y20472920D01*
X39315990Y20470196D01*
X39330508Y20461494D01*
X39332643Y20460284D01*
X39352089Y20449890D01*
X39354281Y20448787D01*
X39369582Y20441550D01*
X39374112Y20439673D01*
X39390049Y20433971D01*
X39392379Y20433201D01*
X39413480Y20426801D01*
X39415844Y20426146D01*
X39432263Y20422033D01*
X39437073Y20421077D01*
X39453816Y20418593D01*
X39456251Y20418293D01*
X39478195Y20416131D01*
X39480642Y20415951D01*
X39498774Y20415060D01*
X39501227Y20415000D01*
X39569817Y20415000D01*
X39579619Y20414518D01*
X39589326Y20413079D01*
X39598846Y20410694D01*
X39608085Y20407388D01*
X39616957Y20403192D01*
X39625374Y20398147D01*
X39633256Y20392301D01*
X39640528Y20385711D01*
X43910711Y16115528D01*
X43917301Y16108256D01*
X43923147Y16100374D01*
X43928192Y16091957D01*
X43932388Y16083085D01*
X43935694Y16073846D01*
X43938079Y16064326D01*
X43939518Y16054619D01*
X43940000Y16044817D01*
X43940000Y14611227D01*
X43940060Y14608774D01*
X43940891Y14591868D01*
X43941371Y14586988D01*
X43943675Y14571459D01*
X43944632Y14566650D01*
X43948446Y14551422D01*
X43949870Y14546729D01*
X43955158Y14531948D01*
X43957035Y14527417D01*
X43963747Y14513226D01*
X43966059Y14508901D01*
X43974129Y14495436D01*
X43976854Y14491358D01*
X43986205Y14478749D01*
X43989316Y14474958D01*
X43999859Y14463327D01*
X44003327Y14459859D01*
X44014958Y14449316D01*
X44018749Y14446205D01*
X44031358Y14436854D01*
X44035436Y14434129D01*
X44048901Y14426059D01*
X44053226Y14423747D01*
X44067417Y14417035D01*
X44071948Y14415158D01*
X44086729Y14409870D01*
X44091422Y14408446D01*
X44106650Y14404632D01*
X44111459Y14403675D01*
X44126988Y14401371D01*
X44131868Y14400891D01*
X44148774Y14400060D01*
X44151227Y14400000D01*
X45848773Y14400000D01*
X45851226Y14400060D01*
X45868132Y14400891D01*
X45873012Y14401371D01*
X45888541Y14403675D01*
X45893350Y14404632D01*
X45908578Y14408446D01*
X45913271Y14409870D01*
X45928052Y14415158D01*
X45932583Y14417035D01*
X45946774Y14423747D01*
X45951099Y14426059D01*
X45964564Y14434129D01*
X45968642Y14436854D01*
X45981251Y14446205D01*
X45985042Y14449316D01*
X45996673Y14459859D01*
X46000141Y14463327D01*
X46010684Y14474958D01*
X46013795Y14478749D01*
X46023146Y14491358D01*
X46025871Y14495436D01*
X46033941Y14508901D01*
X46036253Y14513226D01*
X46042965Y14527417D01*
X46044842Y14531948D01*
X46050130Y14546729D01*
X46051554Y14551422D01*
X46055368Y14566650D01*
X46056325Y14571459D01*
X46058629Y14586988D01*
X46059109Y14591868D01*
X46059940Y14608774D01*
X46060000Y14611227D01*
X46060000Y16308773D01*
X46059940Y16311226D01*
X46059109Y16328132D01*
X46058629Y16333012D01*
X46056325Y16348541D01*
X46055368Y16353350D01*
X46051554Y16368578D01*
X46050130Y16373271D01*
X46044842Y16388052D01*
X46042965Y16392583D01*
X46036253Y16406774D01*
X46033941Y16411099D01*
X46025871Y16424564D01*
X46023146Y16428642D01*
X46013795Y16441251D01*
X46010684Y16445042D01*
X46000141Y16456673D01*
X45996673Y16460141D01*
X45985042Y16470684D01*
X45981251Y16473795D01*
X45968642Y16483146D01*
X45964564Y16485871D01*
X45951099Y16493941D01*
X45946774Y16496253D01*
X45932583Y16502965D01*
X45928052Y16504842D01*
X45913271Y16510130D01*
X45908578Y16511554D01*
X45893350Y16515368D01*
X45888541Y16516325D01*
X45873012Y16518629D01*
X45868132Y16519109D01*
X45851226Y16519940D01*
X45848773Y16520000D01*
X44495183Y16520000D01*
X44485381Y16520482D01*
X44475674Y16521921D01*
X44466154Y16524306D01*
X44456915Y16527612D01*
X44448043Y16531808D01*
X44439626Y16536853D01*
X44431744Y16542699D01*
X44424472Y16549289D01*
X39987749Y20986013D01*
X39985971Y20987705D01*
X39972520Y20999896D01*
X39970662Y21001499D01*
X39953618Y21015487D01*
X39951683Y21016997D01*
X39938088Y21027080D01*
X39934010Y21029804D01*
X39919492Y21038506D01*
X39917357Y21039716D01*
X39897911Y21050110D01*
X39895719Y21051213D01*
X39880418Y21058450D01*
X39875888Y21060327D01*
X39859951Y21066029D01*
X39857621Y21066799D01*
X39836520Y21073199D01*
X39834156Y21073854D01*
X39817737Y21077967D01*
X39812927Y21078923D01*
X39796184Y21081407D01*
X39793749Y21081707D01*
X39771805Y21083869D01*
X39769358Y21084049D01*
X39751226Y21084940D01*
X39748773Y21085000D01*
X39680183Y21085000D01*
X39670381Y21085482D01*
X39660674Y21086921D01*
X39651154Y21089306D01*
X39641915Y21092612D01*
X39633043Y21096808D01*
X39624626Y21101853D01*
X39616744Y21107699D01*
X39609472Y21114289D01*
X32487749Y28236013D01*
X32485971Y28237705D01*
X32472520Y28249896D01*
X32470662Y28251499D01*
X32453618Y28265487D01*
X32451683Y28266997D01*
X32438088Y28277080D01*
X32434010Y28279804D01*
X32419492Y28288506D01*
X32417357Y28289716D01*
X32397911Y28300110D01*
X32395719Y28301213D01*
X32380418Y28308450D01*
X32375888Y28310327D01*
X32359951Y28316029D01*
X32357621Y28316799D01*
X32336520Y28323199D01*
X32334156Y28323854D01*
X32317737Y28327967D01*
X32312927Y28328923D01*
X32296184Y28331407D01*
X32293749Y28331707D01*
X32271805Y28333869D01*
X32269358Y28334049D01*
X32251226Y28334940D01*
X32248773Y28335000D01*
X31930183Y28335000D01*
X31920381Y28335482D01*
X31910674Y28336921D01*
X31901154Y28339306D01*
X31891915Y28342612D01*
X31883043Y28346808D01*
X31874626Y28351853D01*
X31866744Y28357699D01*
X31859472Y28364289D01*
X31788840Y28434922D01*
X31782249Y28442193D01*
X31776403Y28450076D01*
X31771358Y28458493D01*
X31767162Y28467364D01*
X31763856Y28476604D01*
X31761472Y28486123D01*
X31760032Y28495831D01*
X31759550Y28505633D01*
X31759550Y28512098D01*
X31759443Y28515368D01*
X31757091Y28551260D01*
X31756770Y28554515D01*
X31753612Y28578504D01*
X31753079Y28581732D01*
X31746062Y28617010D01*
X31745319Y28620195D01*
X31739057Y28643567D01*
X31738107Y28646698D01*
X31726545Y28680758D01*
X31725393Y28683819D01*
X31716133Y28706174D01*
X31714783Y28709153D01*
X31698875Y28741413D01*
X31697333Y28744298D01*
X31685234Y28765253D01*
X31683507Y28768030D01*
X31663524Y28797938D01*
X31661618Y28800596D01*
X31646889Y28819793D01*
X31644813Y28822321D01*
X31621097Y28849364D01*
X31618861Y28851752D01*
X31601752Y28868861D01*
X31599364Y28871097D01*
X31572321Y28894813D01*
X31569793Y28896889D01*
X31550596Y28911618D01*
X31547938Y28913524D01*
X31518030Y28933507D01*
X31515253Y28935234D01*
X31494298Y28947333D01*
X31491413Y28948875D01*
X31459153Y28964783D01*
X31456174Y28966133D01*
X31433819Y28975393D01*
X31430758Y28976545D01*
X31396698Y28988107D01*
X31393567Y28989057D01*
X31370195Y28995319D01*
X31367010Y28996062D01*
X31331732Y29003079D01*
X31328504Y29003612D01*
X31304515Y29006770D01*
X31301260Y29007091D01*
X31265368Y29009443D01*
X31262098Y29009550D01*
X31237902Y29009550D01*
X31234632Y29009443D01*
X31198740Y29007091D01*
X31195485Y29006770D01*
X31171496Y29003612D01*
X31168268Y29003079D01*
X31132990Y28996062D01*
X31129805Y28995319D01*
X31106433Y28989057D01*
X31103302Y28988107D01*
X31069242Y28976545D01*
X31066181Y28975393D01*
X31043826Y28966133D01*
X31040847Y28964783D01*
X31008587Y28948875D01*
X31005702Y28947333D01*
X30984747Y28935234D01*
X30981970Y28933507D01*
X30952062Y28913524D01*
X30949404Y28911618D01*
X30930207Y28896889D01*
X30927679Y28894813D01*
X30900636Y28871097D01*
X30898248Y28868861D01*
X30881139Y28851752D01*
X30878903Y28849364D01*
X30855187Y28822321D01*
X30853111Y28819793D01*
X30838382Y28800596D01*
X30836476Y28797938D01*
X30816493Y28768030D01*
X30814766Y28765253D01*
X30802667Y28744298D01*
X30801125Y28741413D01*
X30785217Y28709153D01*
X30783867Y28706174D01*
X30774607Y28683819D01*
X30773455Y28680758D01*
X30761893Y28646698D01*
X30760943Y28643567D01*
X30754681Y28620195D01*
X30753938Y28617010D01*
X30746921Y28581732D01*
X30746388Y28578504D01*
X30743230Y28554515D01*
X30742909Y28551260D01*
X30740557Y28515368D01*
X30740450Y28512098D01*
X30740450Y28487902D01*
X30740557Y28484632D01*
X30742909Y28448740D01*
X30743230Y28445485D01*
X30746388Y28421496D01*
X30746921Y28418268D01*
X30753938Y28382990D01*
X30754681Y28379805D01*
X30760943Y28356433D01*
X30761893Y28353302D01*
X30773455Y28319242D01*
X30774607Y28316181D01*
X30783867Y28293826D01*
X30785217Y28290847D01*
X30801125Y28258587D01*
X30802667Y28255702D01*
X30814766Y28234747D01*
X30816493Y28231970D01*
X30836476Y28202062D01*
X30838382Y28199404D01*
X30853111Y28180207D01*
X30855187Y28177679D01*
X30878903Y28150636D01*
X30881139Y28148248D01*
X30898248Y28131139D01*
X30900636Y28128903D01*
X30927679Y28105187D01*
X30930207Y28103111D01*
X30949404Y28088382D01*
X30952062Y28086476D01*
X30981970Y28066493D01*
X30984747Y28064766D01*
X31005702Y28052667D01*
X31008587Y28051125D01*
X31040847Y28035217D01*
X31043826Y28033867D01*
X31066181Y28024607D01*
X31069242Y28023455D01*
X31103302Y28011893D01*
X31106433Y28010943D01*
X31129805Y28004681D01*
X31132990Y28003938D01*
X31168268Y27996921D01*
X31171496Y27996388D01*
X31195485Y27993230D01*
X31198740Y27992909D01*
X31234632Y27990557D01*
X31237902Y27990450D01*
X31244367Y27990450D01*
G37*
%LPD*%
%LPC*%
G36*
X45831158Y19882860D02*
X45833233Y19885388D01*
X45847963Y19904585D01*
X45849868Y19907244D01*
X45909821Y19996970D01*
X45911548Y19999747D01*
X45923647Y20020702D01*
X45925189Y20023587D01*
X45972917Y20120371D01*
X45974267Y20123350D01*
X45983527Y20145705D01*
X45984679Y20148766D01*
X46019366Y20250952D01*
X46020316Y20254082D01*
X46026578Y20277454D01*
X46027321Y20280640D01*
X46048374Y20386479D01*
X46048907Y20389706D01*
X46052065Y20413696D01*
X46052386Y20416951D01*
X46059443Y20524632D01*
X46059550Y20527902D01*
X46059550Y20552098D01*
X46059443Y20555368D01*
X46052386Y20663049D01*
X46052065Y20666304D01*
X46048907Y20690294D01*
X46048374Y20693521D01*
X46027321Y20799360D01*
X46026578Y20802546D01*
X46020316Y20825918D01*
X46019366Y20829048D01*
X45984679Y20931234D01*
X45983527Y20934295D01*
X45974267Y20956650D01*
X45972917Y20959629D01*
X45925189Y21056413D01*
X45923647Y21059298D01*
X45911548Y21080253D01*
X45909821Y21083030D01*
X45849868Y21172756D01*
X45847963Y21175415D01*
X45833233Y21194612D01*
X45831158Y21197140D01*
X45760006Y21278273D01*
X45757770Y21280660D01*
X45740660Y21297770D01*
X45738273Y21300006D01*
X45657140Y21371158D01*
X45654612Y21373233D01*
X45635415Y21387963D01*
X45632756Y21389868D01*
X45543030Y21449821D01*
X45540253Y21451548D01*
X45519298Y21463647D01*
X45516413Y21465189D01*
X45419629Y21512917D01*
X45416650Y21514267D01*
X45394295Y21523527D01*
X45391234Y21524679D01*
X45289048Y21559366D01*
X45285918Y21560316D01*
X45262546Y21566578D01*
X45259360Y21567321D01*
X45153521Y21588374D01*
X45150294Y21588907D01*
X45126304Y21592065D01*
X45123049Y21592386D01*
X45015368Y21599443D01*
X45012098Y21599550D01*
X44987902Y21599550D01*
X44984632Y21599443D01*
X44876951Y21592386D01*
X44873696Y21592065D01*
X44849706Y21588907D01*
X44846479Y21588374D01*
X44740640Y21567321D01*
X44737454Y21566578D01*
X44714082Y21560316D01*
X44710952Y21559366D01*
X44608766Y21524679D01*
X44605705Y21523527D01*
X44583350Y21514267D01*
X44580371Y21512917D01*
X44483587Y21465189D01*
X44480702Y21463647D01*
X44459747Y21451548D01*
X44456970Y21449821D01*
X44367244Y21389868D01*
X44364585Y21387963D01*
X44345388Y21373233D01*
X44342860Y21371158D01*
X44261727Y21300006D01*
X44259340Y21297770D01*
X44242230Y21280660D01*
X44239994Y21278273D01*
X44168842Y21197140D01*
X44166767Y21194612D01*
X44152037Y21175415D01*
X44150132Y21172756D01*
X44090179Y21083030D01*
X44088452Y21080253D01*
X44076353Y21059298D01*
X44074811Y21056413D01*
X44027083Y20959629D01*
X44025733Y20956650D01*
X44016473Y20934295D01*
X44015321Y20931234D01*
X43980634Y20829048D01*
X43979684Y20825918D01*
X43973422Y20802546D01*
X43972679Y20799360D01*
X43951626Y20693521D01*
X43951093Y20690294D01*
X43947935Y20666304D01*
X43947614Y20663049D01*
X43940557Y20555368D01*
X43940450Y20552098D01*
X43940450Y20527902D01*
X43940557Y20524632D01*
X43947614Y20416951D01*
X43947935Y20413696D01*
X43951093Y20389706D01*
X43951626Y20386479D01*
X43972679Y20280640D01*
X43973422Y20277454D01*
X43979684Y20254082D01*
X43980634Y20250952D01*
X44015321Y20148766D01*
X44016473Y20145705D01*
X44025733Y20123350D01*
X44027083Y20120371D01*
X44074811Y20023587D01*
X44076353Y20020702D01*
X44088452Y19999747D01*
X44090179Y19996970D01*
X44150132Y19907244D01*
X44152037Y19904585D01*
X44166767Y19885388D01*
X44168842Y19882860D01*
X44239994Y19801727D01*
X44242230Y19799340D01*
X44259340Y19782230D01*
X44261727Y19779994D01*
X44342860Y19708842D01*
X44345388Y19706767D01*
X44364585Y19692037D01*
X44367244Y19690132D01*
X44456970Y19630179D01*
X44459747Y19628452D01*
X44480702Y19616353D01*
X44483587Y19614811D01*
X44580371Y19567083D01*
X44583350Y19565733D01*
X44605705Y19556473D01*
X44608766Y19555321D01*
X44710952Y19520634D01*
X44714082Y19519684D01*
X44737454Y19513422D01*
X44740640Y19512679D01*
X44846479Y19491626D01*
X44849706Y19491093D01*
X44873696Y19487935D01*
X44876951Y19487614D01*
X44984632Y19480557D01*
X44987902Y19480450D01*
X45012098Y19480450D01*
X45015368Y19480557D01*
X45123049Y19487614D01*
X45126304Y19487935D01*
X45150294Y19491093D01*
X45153521Y19491626D01*
X45259360Y19512679D01*
X45262546Y19513422D01*
X45285918Y19519684D01*
X45289048Y19520634D01*
X45391234Y19555321D01*
X45394295Y19556473D01*
X45416650Y19565733D01*
X45419629Y19567083D01*
X45516413Y19614811D01*
X45519298Y19616353D01*
X45540253Y19628452D01*
X45543030Y19630179D01*
X45632756Y19690132D01*
X45635415Y19692037D01*
X45654612Y19706767D01*
X45657140Y19708842D01*
X45738273Y19779994D01*
X45740660Y19782230D01*
X45757770Y19799340D01*
X45760006Y19801727D01*
X45831158Y19882860D01*
G37*
%LPD*%
%LPC*%
G36*
X19394737Y11251602D02*
X19404257Y11249217D01*
X19413496Y11245911D01*
X19422368Y11241715D01*
X19430785Y11236670D01*
X19438667Y11230824D01*
X19445939Y11224234D01*
X21209218Y9460954D01*
X21210996Y9459262D01*
X21224447Y9447071D01*
X21226305Y9445468D01*
X21254715Y9422152D01*
X21256649Y9420643D01*
X21270244Y9410560D01*
X21274322Y9407835D01*
X21288840Y9399134D01*
X21290975Y9397924D01*
X21323388Y9380599D01*
X21325579Y9379496D01*
X21340881Y9372259D01*
X21345411Y9370382D01*
X21361348Y9364680D01*
X21363678Y9363910D01*
X21398848Y9353242D01*
X21401213Y9352587D01*
X21417632Y9348475D01*
X21422441Y9347518D01*
X21439184Y9345034D01*
X21441620Y9344734D01*
X21478195Y9341131D01*
X21480642Y9340951D01*
X21498774Y9340060D01*
X21501227Y9340000D01*
X21788751Y9340000D01*
X21798553Y9339518D01*
X21808260Y9338079D01*
X21817780Y9335694D01*
X21827019Y9332388D01*
X21835891Y9328192D01*
X21844308Y9323147D01*
X21852190Y9317301D01*
X21859462Y9310711D01*
X24709218Y6460954D01*
X24710996Y6459262D01*
X24724447Y6447071D01*
X24726305Y6445468D01*
X24754715Y6422152D01*
X24756649Y6420643D01*
X24770244Y6410560D01*
X24774322Y6407835D01*
X24788840Y6399134D01*
X24790975Y6397924D01*
X24823388Y6380599D01*
X24825579Y6379496D01*
X24840881Y6372259D01*
X24845411Y6370382D01*
X24861348Y6364680D01*
X24863678Y6363910D01*
X24898848Y6353242D01*
X24901213Y6352587D01*
X24917632Y6348475D01*
X24922441Y6347518D01*
X24939184Y6345034D01*
X24941620Y6344734D01*
X24978195Y6341131D01*
X24980642Y6340951D01*
X24998774Y6340060D01*
X25001227Y6340000D01*
X25038751Y6340000D01*
X25048553Y6339518D01*
X25058260Y6338079D01*
X25067780Y6335694D01*
X25077019Y6332388D01*
X25085891Y6328192D01*
X25094308Y6323147D01*
X25102190Y6317301D01*
X25109462Y6310711D01*
X26457101Y4963072D01*
X26463987Y4955438D01*
X26470053Y4947138D01*
X26475234Y4938259D01*
X26479477Y4928895D01*
X26482736Y4919145D01*
X26484977Y4909112D01*
X26486176Y4898902D01*
X26487614Y4876951D01*
X26487935Y4873696D01*
X26491093Y4849706D01*
X26491626Y4846479D01*
X26512679Y4740640D01*
X26513422Y4737454D01*
X26519684Y4714082D01*
X26520634Y4710952D01*
X26555321Y4608766D01*
X26556473Y4605705D01*
X26565733Y4583350D01*
X26567083Y4580371D01*
X26614811Y4483587D01*
X26616353Y4480702D01*
X26628452Y4459747D01*
X26630179Y4456970D01*
X26690132Y4367244D01*
X26692037Y4364585D01*
X26706767Y4345388D01*
X26708842Y4342860D01*
X26779994Y4261727D01*
X26782230Y4259340D01*
X26799340Y4242230D01*
X26801727Y4239994D01*
X26882860Y4168842D01*
X26885388Y4166767D01*
X26904585Y4152037D01*
X26907244Y4150132D01*
X26996970Y4090179D01*
X26999747Y4088452D01*
X27020702Y4076353D01*
X27023587Y4074811D01*
X27120371Y4027083D01*
X27123350Y4025733D01*
X27145705Y4016473D01*
X27148766Y4015321D01*
X27250952Y3980634D01*
X27254082Y3979684D01*
X27277454Y3973422D01*
X27280640Y3972679D01*
X27386479Y3951626D01*
X27389706Y3951093D01*
X27413696Y3947935D01*
X27416951Y3947614D01*
X27524632Y3940557D01*
X27527902Y3940450D01*
X27552098Y3940450D01*
X27555368Y3940557D01*
X27663049Y3947614D01*
X27666304Y3947935D01*
X27690294Y3951093D01*
X27693521Y3951626D01*
X27799360Y3972679D01*
X27802546Y3973422D01*
X27825918Y3979684D01*
X27829048Y3980634D01*
X27931234Y4015321D01*
X27934295Y4016473D01*
X27956650Y4025733D01*
X27959629Y4027083D01*
X28056413Y4074811D01*
X28059298Y4076353D01*
X28080253Y4088452D01*
X28083030Y4090179D01*
X28172756Y4150132D01*
X28175415Y4152037D01*
X28194612Y4166767D01*
X28197140Y4168842D01*
X28278273Y4239994D01*
X28280660Y4242230D01*
X28297770Y4259340D01*
X28300006Y4261727D01*
X28371158Y4342860D01*
X28373233Y4345388D01*
X28387963Y4364585D01*
X28389868Y4367244D01*
X28449821Y4456970D01*
X28451548Y4459747D01*
X28463647Y4480702D01*
X28465189Y4483587D01*
X28512917Y4580371D01*
X28514267Y4583350D01*
X28523527Y4605705D01*
X28524679Y4608766D01*
X28559366Y4710952D01*
X28560316Y4714082D01*
X28566578Y4737454D01*
X28567321Y4740640D01*
X28588374Y4846479D01*
X28588907Y4849706D01*
X28592065Y4873696D01*
X28592386Y4876951D01*
X28599443Y4984632D01*
X28599550Y4987902D01*
X28599550Y5012098D01*
X28599443Y5015368D01*
X28592386Y5123049D01*
X28592065Y5126304D01*
X28588907Y5150294D01*
X28588374Y5153521D01*
X28567321Y5259360D01*
X28566578Y5262546D01*
X28560316Y5285918D01*
X28559366Y5289048D01*
X28524679Y5391234D01*
X28523527Y5394295D01*
X28514267Y5416650D01*
X28512917Y5419629D01*
X28465189Y5516413D01*
X28463647Y5519298D01*
X28451548Y5540253D01*
X28449821Y5543030D01*
X28389868Y5632756D01*
X28387963Y5635415D01*
X28373233Y5654612D01*
X28371158Y5657140D01*
X28300006Y5738273D01*
X28297770Y5740660D01*
X28280660Y5757770D01*
X28278273Y5760006D01*
X28197140Y5831158D01*
X28194612Y5833233D01*
X28175415Y5847963D01*
X28172756Y5849868D01*
X28083030Y5909821D01*
X28080253Y5911548D01*
X28059298Y5923647D01*
X28056413Y5925189D01*
X27959629Y5972917D01*
X27956650Y5974267D01*
X27934295Y5983527D01*
X27931234Y5984679D01*
X27829048Y6019366D01*
X27825918Y6020316D01*
X27802546Y6026578D01*
X27799360Y6027321D01*
X27693521Y6048374D01*
X27690294Y6048907D01*
X27666304Y6052065D01*
X27663049Y6052386D01*
X27555368Y6059443D01*
X27552098Y6059550D01*
X27527902Y6059550D01*
X27524632Y6059443D01*
X27416951Y6052386D01*
X27413696Y6052065D01*
X27389706Y6048907D01*
X27386479Y6048374D01*
X27280640Y6027321D01*
X27277454Y6026578D01*
X27254082Y6020316D01*
X27250952Y6019366D01*
X27148766Y5984679D01*
X27145705Y5983527D01*
X27123350Y5974267D01*
X27120371Y5972917D01*
X27023587Y5925189D01*
X27020702Y5923647D01*
X26999747Y5911548D01*
X26996970Y5909821D01*
X26907244Y5849868D01*
X26904585Y5847963D01*
X26885388Y5833233D01*
X26882860Y5831158D01*
X26881785Y5830215D01*
X26873920Y5823987D01*
X26865472Y5818579D01*
X26856524Y5814044D01*
X26847166Y5810429D01*
X26837494Y5807769D01*
X26827604Y5806092D01*
X26817595Y5805414D01*
X26807569Y5805742D01*
X26797627Y5807073D01*
X26787867Y5809394D01*
X26778389Y5812680D01*
X26769289Y5816900D01*
X26760656Y5822010D01*
X26752580Y5827960D01*
X26745139Y5834688D01*
X25540782Y7039046D01*
X25539004Y7040738D01*
X25525553Y7052929D01*
X25523695Y7054532D01*
X25495285Y7077848D01*
X25493351Y7079357D01*
X25479756Y7089440D01*
X25475678Y7092165D01*
X25461160Y7100866D01*
X25459025Y7102076D01*
X25426612Y7119401D01*
X25424421Y7120504D01*
X25409119Y7127741D01*
X25404589Y7129618D01*
X25388652Y7135320D01*
X25386322Y7136090D01*
X25351152Y7146758D01*
X25348787Y7147413D01*
X25332368Y7151525D01*
X25327559Y7152482D01*
X25310816Y7154966D01*
X25308380Y7155266D01*
X25271805Y7158869D01*
X25269358Y7159049D01*
X25251226Y7159940D01*
X25248773Y7160000D01*
X25211249Y7160000D01*
X25201447Y7160482D01*
X25191740Y7161921D01*
X25182220Y7164306D01*
X25172981Y7167612D01*
X25164109Y7171808D01*
X25155692Y7176853D01*
X25147810Y7182699D01*
X25140538Y7189289D01*
X23947631Y8382196D01*
X23940932Y8389601D01*
X23935004Y8397637D01*
X23929908Y8406223D01*
X23925693Y8415276D01*
X23922402Y8424703D01*
X23920067Y8434412D01*
X23918713Y8444306D01*
X23918352Y8454285D01*
X23918988Y8464250D01*
X23920614Y8474102D01*
X23923215Y8483743D01*
X23926765Y8493076D01*
X23931228Y8502009D01*
X23936559Y8510452D01*
X23942706Y8518322D01*
X23949607Y8525539D01*
X23957193Y8532032D01*
X23965389Y8537736D01*
X23974113Y8542594D01*
X23991413Y8551125D01*
X23994298Y8552667D01*
X24015253Y8564766D01*
X24018030Y8566493D01*
X24047938Y8586476D01*
X24050596Y8588382D01*
X24069793Y8603111D01*
X24072321Y8605187D01*
X24099364Y8628903D01*
X24101752Y8631139D01*
X24118861Y8648248D01*
X24121097Y8650636D01*
X24144813Y8677679D01*
X24146889Y8680207D01*
X24161618Y8699404D01*
X24163524Y8702062D01*
X24183507Y8731970D01*
X24185234Y8734747D01*
X24197333Y8755702D01*
X24198875Y8758587D01*
X24214783Y8790847D01*
X24216133Y8793826D01*
X24225393Y8816181D01*
X24226545Y8819242D01*
X24238107Y8853302D01*
X24239057Y8856433D01*
X24245319Y8879805D01*
X24246062Y8882990D01*
X24253079Y8918268D01*
X24253612Y8921496D01*
X24256770Y8945485D01*
X24257091Y8948740D01*
X24259443Y8984632D01*
X24259550Y8987902D01*
X24259550Y9012098D01*
X24259443Y9015368D01*
X24257091Y9051260D01*
X24256770Y9054515D01*
X24253612Y9078504D01*
X24253079Y9081732D01*
X24248323Y9105643D01*
X24246883Y9115351D01*
X24246401Y9125152D01*
X24246883Y9134954D01*
X24248323Y9144661D01*
X24250707Y9154181D01*
X24254013Y9163421D01*
X24258209Y9172292D01*
X24263254Y9180709D01*
X24269100Y9188592D01*
X24275691Y9195863D01*
X24289046Y9209218D01*
X24290738Y9210996D01*
X24302929Y9224447D01*
X24304532Y9226305D01*
X24327848Y9254715D01*
X24329357Y9256649D01*
X24339440Y9270244D01*
X24342165Y9274322D01*
X24350866Y9288840D01*
X24352076Y9290975D01*
X24369401Y9323388D01*
X24370504Y9325579D01*
X24377741Y9340881D01*
X24379618Y9345411D01*
X24385320Y9361348D01*
X24386090Y9363678D01*
X24396758Y9398848D01*
X24397413Y9401213D01*
X24401525Y9417632D01*
X24402482Y9422441D01*
X24404966Y9439184D01*
X24405266Y9441620D01*
X24408869Y9478195D01*
X24409049Y9480642D01*
X24409940Y9498774D01*
X24410000Y9501227D01*
X24410000Y12038751D01*
X24410482Y12048553D01*
X24411921Y12058260D01*
X24414306Y12067780D01*
X24417612Y12077019D01*
X24421808Y12085891D01*
X24426853Y12094308D01*
X24432699Y12102190D01*
X24439289Y12109462D01*
X27039046Y14709218D01*
X27040738Y14710996D01*
X27052929Y14724447D01*
X27054532Y14726305D01*
X27077848Y14754715D01*
X27079357Y14756649D01*
X27089440Y14770244D01*
X27092165Y14774322D01*
X27100866Y14788840D01*
X27102076Y14790975D01*
X27119401Y14823388D01*
X27120504Y14825579D01*
X27127741Y14840881D01*
X27129618Y14845411D01*
X27135320Y14861348D01*
X27136090Y14863678D01*
X27146758Y14898848D01*
X27147413Y14901213D01*
X27151525Y14917632D01*
X27152482Y14922441D01*
X27154966Y14939184D01*
X27155266Y14941620D01*
X27158869Y14978195D01*
X27159049Y14980642D01*
X27159940Y14998774D01*
X27160000Y15001227D01*
X27160000Y19166454D01*
X27160482Y19176256D01*
X27161921Y19185963D01*
X27164306Y19195483D01*
X27167612Y19204722D01*
X27171808Y19213594D01*
X27176853Y19222011D01*
X27183507Y19231970D01*
X27185234Y19234747D01*
X27197333Y19255702D01*
X27198875Y19258587D01*
X27214783Y19290847D01*
X27216133Y19293826D01*
X27225393Y19316181D01*
X27226545Y19319242D01*
X27238107Y19353302D01*
X27239057Y19356433D01*
X27245319Y19379805D01*
X27246062Y19382990D01*
X27253079Y19418268D01*
X27253612Y19421496D01*
X27256770Y19445485D01*
X27257091Y19448740D01*
X27259443Y19484632D01*
X27259550Y19487902D01*
X27259550Y19512098D01*
X27259443Y19515368D01*
X27257091Y19551260D01*
X27256770Y19554515D01*
X27253612Y19578504D01*
X27253079Y19581732D01*
X27246062Y19617010D01*
X27245319Y19620195D01*
X27239057Y19643567D01*
X27238107Y19646698D01*
X27226545Y19680758D01*
X27225393Y19683819D01*
X27216133Y19706174D01*
X27214783Y19709153D01*
X27198875Y19741413D01*
X27197333Y19744298D01*
X27185234Y19765253D01*
X27183507Y19768030D01*
X27163524Y19797938D01*
X27161618Y19800596D01*
X27146889Y19819793D01*
X27144813Y19822321D01*
X27121097Y19849364D01*
X27118861Y19851752D01*
X27101752Y19868861D01*
X27099364Y19871097D01*
X27072321Y19894813D01*
X27069793Y19896889D01*
X27050596Y19911618D01*
X27047938Y19913524D01*
X27018030Y19933507D01*
X27015253Y19935234D01*
X26994298Y19947333D01*
X26991413Y19948875D01*
X26959153Y19964783D01*
X26956174Y19966133D01*
X26933819Y19975393D01*
X26930758Y19976545D01*
X26896698Y19988107D01*
X26893567Y19989057D01*
X26870195Y19995319D01*
X26867010Y19996062D01*
X26831732Y20003079D01*
X26828504Y20003612D01*
X26804515Y20006770D01*
X26801260Y20007091D01*
X26765368Y20009443D01*
X26762098Y20009550D01*
X26737902Y20009550D01*
X26734632Y20009443D01*
X26698740Y20007091D01*
X26695485Y20006770D01*
X26671496Y20003612D01*
X26668268Y20003079D01*
X26632990Y19996062D01*
X26629805Y19995319D01*
X26606433Y19989057D01*
X26603302Y19988107D01*
X26569242Y19976545D01*
X26566181Y19975393D01*
X26543826Y19966133D01*
X26540847Y19964783D01*
X26508587Y19948875D01*
X26505702Y19947333D01*
X26484747Y19935234D01*
X26481970Y19933507D01*
X26452062Y19913524D01*
X26449404Y19911618D01*
X26430207Y19896889D01*
X26427679Y19894813D01*
X26400636Y19871097D01*
X26398248Y19868861D01*
X26381139Y19851752D01*
X26378903Y19849364D01*
X26355187Y19822321D01*
X26353111Y19819793D01*
X26338382Y19800596D01*
X26336476Y19797938D01*
X26316493Y19768030D01*
X26314766Y19765253D01*
X26302667Y19744298D01*
X26301125Y19741413D01*
X26285217Y19709153D01*
X26283867Y19706174D01*
X26274607Y19683819D01*
X26273455Y19680758D01*
X26261893Y19646698D01*
X26260943Y19643567D01*
X26254681Y19620195D01*
X26253938Y19617010D01*
X26246921Y19581732D01*
X26246388Y19578504D01*
X26243230Y19554515D01*
X26242909Y19551260D01*
X26240557Y19515368D01*
X26240450Y19512098D01*
X26240450Y19487902D01*
X26240557Y19484632D01*
X26242909Y19448740D01*
X26243230Y19445485D01*
X26246388Y19421496D01*
X26246921Y19418268D01*
X26253938Y19382990D01*
X26254681Y19379805D01*
X26260943Y19356433D01*
X26261893Y19353302D01*
X26273455Y19319242D01*
X26274607Y19316181D01*
X26283867Y19293826D01*
X26285217Y19290847D01*
X26301125Y19258587D01*
X26302667Y19255702D01*
X26314766Y19234747D01*
X26316493Y19231970D01*
X26323147Y19222011D01*
X26328192Y19213594D01*
X26332388Y19204722D01*
X26335694Y19195483D01*
X26338079Y19185963D01*
X26339518Y19176256D01*
X26340000Y19166454D01*
X26340000Y15211249D01*
X26339518Y15201447D01*
X26338079Y15191740D01*
X26335694Y15182220D01*
X26332388Y15172981D01*
X26328192Y15164109D01*
X26323147Y15155692D01*
X26317301Y15147810D01*
X26310711Y15140538D01*
X23710954Y12540782D01*
X23709262Y12539004D01*
X23697071Y12525553D01*
X23695468Y12523695D01*
X23672152Y12495285D01*
X23670643Y12493351D01*
X23660560Y12479756D01*
X23657835Y12475678D01*
X23649134Y12461160D01*
X23647924Y12459025D01*
X23630599Y12426612D01*
X23629496Y12424421D01*
X23622259Y12409119D01*
X23620382Y12404589D01*
X23614680Y12388652D01*
X23613910Y12386322D01*
X23603242Y12351152D01*
X23602587Y12348787D01*
X23598475Y12332368D01*
X23597518Y12327559D01*
X23595034Y12310816D01*
X23594734Y12308380D01*
X23591131Y12271805D01*
X23590951Y12269358D01*
X23590060Y12251226D01*
X23590000Y12248773D01*
X23590000Y9711249D01*
X23589518Y9701447D01*
X23588079Y9691740D01*
X23585694Y9682220D01*
X23582388Y9672981D01*
X23578192Y9664109D01*
X23573147Y9655692D01*
X23567301Y9647810D01*
X23560711Y9640538D01*
X23460954Y9540782D01*
X23459262Y9539004D01*
X23447071Y9525553D01*
X23445468Y9523695D01*
X23422152Y9495285D01*
X23420643Y9493351D01*
X23410560Y9479756D01*
X23407835Y9475678D01*
X23399134Y9461160D01*
X23397924Y9459025D01*
X23380599Y9426612D01*
X23379496Y9424421D01*
X23372259Y9409119D01*
X23370382Y9404589D01*
X23364680Y9388652D01*
X23363910Y9386322D01*
X23353242Y9351152D01*
X23352587Y9348787D01*
X23348475Y9332368D01*
X23347689Y9328420D01*
X23345305Y9318901D01*
X23341999Y9309661D01*
X23337803Y9300790D01*
X23332758Y9292372D01*
X23316493Y9268030D01*
X23314766Y9265253D01*
X23302667Y9244298D01*
X23301125Y9241413D01*
X23292594Y9224113D01*
X23287736Y9215389D01*
X23282032Y9207193D01*
X23275539Y9199607D01*
X23268322Y9192706D01*
X23260452Y9186559D01*
X23252009Y9181228D01*
X23243076Y9176765D01*
X23233743Y9173215D01*
X23224102Y9170614D01*
X23214250Y9168988D01*
X23204285Y9168352D01*
X23194306Y9168713D01*
X23184412Y9170067D01*
X23174703Y9172402D01*
X23165276Y9175693D01*
X23156223Y9179908D01*
X23147637Y9185004D01*
X23139601Y9190932D01*
X23132196Y9197631D01*
X22290782Y10039046D01*
X22289004Y10040738D01*
X22275553Y10052929D01*
X22273695Y10054532D01*
X22245285Y10077848D01*
X22243351Y10079357D01*
X22229756Y10089440D01*
X22225678Y10092165D01*
X22211160Y10100866D01*
X22209025Y10102076D01*
X22176612Y10119401D01*
X22174421Y10120504D01*
X22159119Y10127741D01*
X22154589Y10129618D01*
X22138652Y10135320D01*
X22136322Y10136090D01*
X22101152Y10146758D01*
X22098787Y10147413D01*
X22082368Y10151525D01*
X22077559Y10152482D01*
X22060816Y10154966D01*
X22058380Y10155266D01*
X22021805Y10158869D01*
X22019358Y10159049D01*
X22001226Y10159940D01*
X21998773Y10160000D01*
X21711249Y10160000D01*
X21701447Y10160482D01*
X21691740Y10161921D01*
X21682220Y10164306D01*
X21672981Y10167612D01*
X21664109Y10171808D01*
X21655692Y10176853D01*
X21647810Y10182699D01*
X21640538Y10189289D01*
X20025766Y11804061D01*
X20019176Y11811333D01*
X20013330Y11819215D01*
X20008285Y11827632D01*
X20004089Y11836504D01*
X20000783Y11845743D01*
X19998398Y11855263D01*
X19996062Y11867010D01*
X19995319Y11870195D01*
X19989057Y11893567D01*
X19988107Y11896698D01*
X19976545Y11930758D01*
X19975393Y11933819D01*
X19966133Y11956174D01*
X19964783Y11959153D01*
X19948875Y11991413D01*
X19947333Y11994298D01*
X19935234Y12015253D01*
X19933507Y12018030D01*
X19913524Y12047938D01*
X19911618Y12050596D01*
X19896889Y12069793D01*
X19894813Y12072321D01*
X19871097Y12099364D01*
X19868861Y12101752D01*
X19851752Y12118861D01*
X19849364Y12121097D01*
X19822321Y12144813D01*
X19819793Y12146889D01*
X19800596Y12161618D01*
X19797938Y12163524D01*
X19768030Y12183507D01*
X19765253Y12185234D01*
X19744298Y12197333D01*
X19741413Y12198875D01*
X19709153Y12214783D01*
X19706174Y12216133D01*
X19683819Y12225393D01*
X19680758Y12226545D01*
X19646698Y12238107D01*
X19643567Y12239057D01*
X19620195Y12245319D01*
X19617010Y12246062D01*
X19581732Y12253079D01*
X19578504Y12253612D01*
X19554515Y12256770D01*
X19551260Y12257091D01*
X19515368Y12259443D01*
X19512098Y12259550D01*
X19487902Y12259550D01*
X19484632Y12259443D01*
X19448740Y12257091D01*
X19445485Y12256770D01*
X19421496Y12253612D01*
X19418268Y12253079D01*
X19382990Y12246062D01*
X19379805Y12245319D01*
X19356433Y12239057D01*
X19353302Y12238107D01*
X19319242Y12226545D01*
X19316181Y12225393D01*
X19293826Y12216133D01*
X19290847Y12214783D01*
X19258587Y12198875D01*
X19255702Y12197333D01*
X19234747Y12185234D01*
X19231970Y12183507D01*
X19202062Y12163524D01*
X19199404Y12161618D01*
X19180207Y12146889D01*
X19177679Y12144813D01*
X19150636Y12121097D01*
X19148248Y12118861D01*
X19131139Y12101752D01*
X19128903Y12099364D01*
X19105187Y12072321D01*
X19103111Y12069793D01*
X19088382Y12050596D01*
X19086476Y12047938D01*
X19066493Y12018030D01*
X19064766Y12015253D01*
X19052667Y11994298D01*
X19051125Y11991413D01*
X19035217Y11959153D01*
X19033867Y11956174D01*
X19024607Y11933819D01*
X19023455Y11930758D01*
X19011893Y11896698D01*
X19010943Y11893567D01*
X19004681Y11870195D01*
X19003938Y11867010D01*
X18996921Y11831732D01*
X18996388Y11828504D01*
X18993230Y11804515D01*
X18992909Y11801260D01*
X18990557Y11765368D01*
X18990450Y11762098D01*
X18990450Y11737902D01*
X18990557Y11734632D01*
X18992909Y11698740D01*
X18993230Y11695485D01*
X18996388Y11671496D01*
X18996921Y11668268D01*
X19003938Y11632990D01*
X19004681Y11629805D01*
X19010943Y11606433D01*
X19011893Y11603302D01*
X19023455Y11569242D01*
X19024607Y11566181D01*
X19033867Y11543826D01*
X19035217Y11540847D01*
X19051125Y11508587D01*
X19052667Y11505702D01*
X19064766Y11484747D01*
X19066493Y11481970D01*
X19086476Y11452062D01*
X19088382Y11449404D01*
X19103111Y11430207D01*
X19105187Y11427679D01*
X19128903Y11400636D01*
X19131139Y11398248D01*
X19148248Y11381139D01*
X19150636Y11378903D01*
X19177679Y11355187D01*
X19180207Y11353111D01*
X19199404Y11338382D01*
X19202062Y11336476D01*
X19231970Y11316493D01*
X19234747Y11314766D01*
X19255702Y11302667D01*
X19258587Y11301125D01*
X19290847Y11285217D01*
X19293826Y11283867D01*
X19316181Y11274607D01*
X19319242Y11273455D01*
X19353302Y11261893D01*
X19356433Y11260943D01*
X19379805Y11254681D01*
X19382990Y11253938D01*
X19394737Y11251602D01*
G37*
%LPD*%
%LPC*%
G36*
X21400000Y4151227D02*
X21400060Y4148774D01*
X21400891Y4131868D01*
X21401371Y4126988D01*
X21403675Y4111459D01*
X21404632Y4106650D01*
X21408446Y4091422D01*
X21409870Y4086729D01*
X21415158Y4071948D01*
X21417035Y4067417D01*
X21423747Y4053226D01*
X21426059Y4048901D01*
X21434129Y4035436D01*
X21436854Y4031358D01*
X21446205Y4018749D01*
X21449316Y4014958D01*
X21459859Y4003327D01*
X21463327Y3999859D01*
X21474958Y3989316D01*
X21478749Y3986205D01*
X21491358Y3976854D01*
X21495436Y3974129D01*
X21508901Y3966059D01*
X21513226Y3963747D01*
X21527417Y3957035D01*
X21531948Y3955158D01*
X21546729Y3949870D01*
X21551422Y3948446D01*
X21566650Y3944632D01*
X21571459Y3943675D01*
X21586988Y3941371D01*
X21591868Y3940891D01*
X21608774Y3940060D01*
X21611227Y3940000D01*
X23308773Y3940000D01*
X23311226Y3940060D01*
X23328132Y3940891D01*
X23333012Y3941371D01*
X23348541Y3943675D01*
X23353350Y3944632D01*
X23368578Y3948446D01*
X23373271Y3949870D01*
X23388052Y3955158D01*
X23392583Y3957035D01*
X23406774Y3963747D01*
X23411099Y3966059D01*
X23424564Y3974129D01*
X23428642Y3976854D01*
X23441251Y3986205D01*
X23445042Y3989316D01*
X23456673Y3999859D01*
X23460141Y4003327D01*
X23470684Y4014958D01*
X23473795Y4018749D01*
X23483146Y4031358D01*
X23485871Y4035436D01*
X23493941Y4048901D01*
X23496253Y4053226D01*
X23502965Y4067417D01*
X23504842Y4071948D01*
X23510130Y4086729D01*
X23511554Y4091422D01*
X23515368Y4106650D01*
X23516325Y4111459D01*
X23518629Y4126988D01*
X23519109Y4131868D01*
X23519940Y4148774D01*
X23520000Y4151227D01*
X23520000Y5848773D01*
X23519940Y5851226D01*
X23519109Y5868132D01*
X23518629Y5873012D01*
X23516325Y5888541D01*
X23515368Y5893350D01*
X23511554Y5908578D01*
X23510130Y5913271D01*
X23504842Y5928052D01*
X23502965Y5932583D01*
X23496253Y5946774D01*
X23493941Y5951099D01*
X23485871Y5964564D01*
X23483146Y5968642D01*
X23473795Y5981251D01*
X23470684Y5985042D01*
X23460141Y5996673D01*
X23456673Y6000141D01*
X23445042Y6010684D01*
X23441251Y6013795D01*
X23428642Y6023146D01*
X23424564Y6025871D01*
X23411099Y6033941D01*
X23406774Y6036253D01*
X23392583Y6042965D01*
X23388052Y6044842D01*
X23373271Y6050130D01*
X23368578Y6051554D01*
X23353350Y6055368D01*
X23348541Y6056325D01*
X23333012Y6058629D01*
X23328132Y6059109D01*
X23311226Y6059940D01*
X23308773Y6060000D01*
X21611227Y6060000D01*
X21608774Y6059940D01*
X21591868Y6059109D01*
X21586988Y6058629D01*
X21571459Y6056325D01*
X21566650Y6055368D01*
X21551422Y6051554D01*
X21546729Y6050130D01*
X21531948Y6044842D01*
X21527417Y6042965D01*
X21513226Y6036253D01*
X21508901Y6033941D01*
X21495436Y6025871D01*
X21491358Y6023146D01*
X21478749Y6013795D01*
X21474958Y6010684D01*
X21463327Y6000141D01*
X21459859Y5996673D01*
X21449316Y5985042D01*
X21446205Y5981251D01*
X21436854Y5968642D01*
X21434129Y5964564D01*
X21426059Y5951099D01*
X21423747Y5946774D01*
X21417035Y5932583D01*
X21415158Y5928052D01*
X21409870Y5913271D01*
X21408446Y5908578D01*
X21404632Y5893350D01*
X21403675Y5888541D01*
X21401371Y5873012D01*
X21400891Y5868132D01*
X21400060Y5851226D01*
X21400000Y5848773D01*
X21400000Y4151227D01*
G37*
%LPD*%
%LPC*%
G36*
X5004367Y19480450D02*
X5014169Y19479968D01*
X5023877Y19478528D01*
X5033396Y19476144D01*
X5042636Y19472838D01*
X5051507Y19468642D01*
X5059924Y19463597D01*
X5067807Y19457751D01*
X5075078Y19451160D01*
X6385711Y18140528D01*
X6392301Y18133256D01*
X6398147Y18125374D01*
X6403192Y18116957D01*
X6407388Y18108085D01*
X6410694Y18098846D01*
X6413079Y18089326D01*
X6414518Y18079619D01*
X6415000Y18069817D01*
X6415000Y17751227D01*
X6415060Y17748774D01*
X6415951Y17730642D01*
X6416131Y17728195D01*
X6418293Y17706251D01*
X6418593Y17703816D01*
X6421077Y17687073D01*
X6422033Y17682263D01*
X6426146Y17665844D01*
X6426801Y17663480D01*
X6433201Y17642379D01*
X6433971Y17640049D01*
X6439673Y17624112D01*
X6441550Y17619582D01*
X6448787Y17604281D01*
X6449890Y17602089D01*
X6460284Y17582643D01*
X6461494Y17580508D01*
X6470196Y17565990D01*
X6472920Y17561912D01*
X6483003Y17548317D01*
X6484513Y17546382D01*
X6498501Y17529338D01*
X6500104Y17527480D01*
X6512295Y17514029D01*
X6513987Y17512251D01*
X6961160Y17065078D01*
X6967751Y17057807D01*
X6973597Y17049924D01*
X6978642Y17041507D01*
X6982838Y17032636D01*
X6986144Y17023396D01*
X6988528Y17013877D01*
X6989968Y17004169D01*
X6990450Y16994367D01*
X6990450Y16987902D01*
X6990557Y16984632D01*
X6992909Y16948740D01*
X6993230Y16945485D01*
X6996388Y16921496D01*
X6996921Y16918268D01*
X7003938Y16882990D01*
X7004681Y16879805D01*
X7010943Y16856433D01*
X7011893Y16853302D01*
X7023455Y16819242D01*
X7024607Y16816181D01*
X7033867Y16793826D01*
X7035217Y16790847D01*
X7051125Y16758587D01*
X7052667Y16755702D01*
X7064766Y16734747D01*
X7066493Y16731970D01*
X7086476Y16702062D01*
X7088382Y16699404D01*
X7103111Y16680207D01*
X7105187Y16677679D01*
X7128903Y16650636D01*
X7131139Y16648248D01*
X7148248Y16631139D01*
X7150636Y16628903D01*
X7177679Y16605187D01*
X7180207Y16603111D01*
X7199404Y16588382D01*
X7202062Y16586476D01*
X7231970Y16566493D01*
X7234747Y16564766D01*
X7255702Y16552667D01*
X7258587Y16551125D01*
X7290847Y16535217D01*
X7293826Y16533867D01*
X7316181Y16524607D01*
X7319242Y16523455D01*
X7353302Y16511893D01*
X7356433Y16510943D01*
X7379805Y16504681D01*
X7382990Y16503938D01*
X7418268Y16496921D01*
X7421496Y16496388D01*
X7445485Y16493230D01*
X7448740Y16492909D01*
X7484632Y16490557D01*
X7487902Y16490450D01*
X7512098Y16490450D01*
X7515368Y16490557D01*
X7551260Y16492909D01*
X7554515Y16493230D01*
X7578504Y16496388D01*
X7581732Y16496921D01*
X7617010Y16503938D01*
X7620195Y16504681D01*
X7643567Y16510943D01*
X7646698Y16511893D01*
X7680758Y16523455D01*
X7683819Y16524607D01*
X7706174Y16533867D01*
X7709153Y16535217D01*
X7741413Y16551125D01*
X7744298Y16552667D01*
X7765253Y16564766D01*
X7768030Y16566493D01*
X7797938Y16586476D01*
X7800596Y16588382D01*
X7819793Y16603111D01*
X7822321Y16605187D01*
X7849364Y16628903D01*
X7851752Y16631139D01*
X7868861Y16648248D01*
X7871097Y16650636D01*
X7894813Y16677679D01*
X7896889Y16680207D01*
X7911618Y16699404D01*
X7913524Y16702062D01*
X7933507Y16731970D01*
X7935234Y16734747D01*
X7947333Y16755702D01*
X7948875Y16758587D01*
X7964783Y16790847D01*
X7966133Y16793826D01*
X7975393Y16816181D01*
X7976545Y16819242D01*
X7988107Y16853302D01*
X7989057Y16856433D01*
X7995319Y16879805D01*
X7996062Y16882990D01*
X8003079Y16918268D01*
X8003612Y16921496D01*
X8006770Y16945485D01*
X8007091Y16948740D01*
X8009443Y16984632D01*
X8009550Y16987902D01*
X8009550Y17012098D01*
X8009443Y17015368D01*
X8007091Y17051260D01*
X8006770Y17054515D01*
X8003612Y17078504D01*
X8003079Y17081732D01*
X7996062Y17117010D01*
X7995319Y17120195D01*
X7989057Y17143567D01*
X7988107Y17146698D01*
X7976545Y17180758D01*
X7975393Y17183819D01*
X7966133Y17206174D01*
X7964783Y17209153D01*
X7948875Y17241413D01*
X7947333Y17244298D01*
X7935234Y17265253D01*
X7933507Y17268030D01*
X7913524Y17297938D01*
X7911618Y17300596D01*
X7896889Y17319793D01*
X7894813Y17322321D01*
X7871097Y17349364D01*
X7868861Y17351752D01*
X7851752Y17368861D01*
X7849364Y17371097D01*
X7822321Y17394813D01*
X7819793Y17396889D01*
X7800596Y17411618D01*
X7797938Y17413524D01*
X7768030Y17433507D01*
X7765253Y17435234D01*
X7744298Y17447333D01*
X7741413Y17448875D01*
X7709153Y17464783D01*
X7706174Y17466133D01*
X7683819Y17475393D01*
X7680758Y17476545D01*
X7646698Y17488107D01*
X7643567Y17489057D01*
X7620195Y17495319D01*
X7617010Y17496062D01*
X7581732Y17503079D01*
X7578504Y17503612D01*
X7554515Y17506770D01*
X7551260Y17507091D01*
X7515368Y17509443D01*
X7512098Y17509550D01*
X7505633Y17509550D01*
X7495831Y17510032D01*
X7486123Y17511472D01*
X7476604Y17513856D01*
X7467364Y17517162D01*
X7458493Y17521358D01*
X7450076Y17526403D01*
X7442193Y17532249D01*
X7434922Y17538840D01*
X7114289Y17859472D01*
X7107699Y17866744D01*
X7101853Y17874626D01*
X7096808Y17883043D01*
X7092612Y17891915D01*
X7089306Y17901154D01*
X7086921Y17910674D01*
X7085482Y17920381D01*
X7085000Y17930183D01*
X7085000Y18248773D01*
X7084940Y18251226D01*
X7084049Y18269358D01*
X7083869Y18271805D01*
X7081707Y18293749D01*
X7081407Y18296184D01*
X7078923Y18312927D01*
X7077967Y18317737D01*
X7073854Y18334156D01*
X7073199Y18336520D01*
X7066799Y18357621D01*
X7066029Y18359951D01*
X7060327Y18375888D01*
X7058450Y18380418D01*
X7051213Y18395719D01*
X7050110Y18397911D01*
X7039716Y18417357D01*
X7038506Y18419492D01*
X7029804Y18434010D01*
X7027080Y18438088D01*
X7016997Y18451683D01*
X7015487Y18453618D01*
X7001499Y18470662D01*
X6999896Y18472520D01*
X6987705Y18485971D01*
X6986013Y18487749D01*
X5785131Y19688630D01*
X5778403Y19696071D01*
X5772453Y19704147D01*
X5767343Y19712780D01*
X5763123Y19721880D01*
X5759837Y19731358D01*
X5757516Y19741118D01*
X5756185Y19751060D01*
X5755857Y19761086D01*
X5756535Y19771095D01*
X5758212Y19780985D01*
X5760872Y19790658D01*
X5764487Y19800015D01*
X5769022Y19808963D01*
X5774430Y19817411D01*
X5780658Y19825276D01*
X5831158Y19882860D01*
X5833233Y19885388D01*
X5847963Y19904585D01*
X5849868Y19907244D01*
X5909821Y19996970D01*
X5911548Y19999747D01*
X5923647Y20020702D01*
X5925189Y20023587D01*
X5972917Y20120371D01*
X5974267Y20123350D01*
X5983527Y20145705D01*
X5984679Y20148766D01*
X6019366Y20250952D01*
X6020316Y20254082D01*
X6026578Y20277454D01*
X6027321Y20280640D01*
X6048374Y20386479D01*
X6048907Y20389706D01*
X6052065Y20413696D01*
X6052386Y20416951D01*
X6059443Y20524632D01*
X6059550Y20527902D01*
X6059550Y20552098D01*
X6059443Y20555368D01*
X6052386Y20663049D01*
X6052065Y20666304D01*
X6048907Y20690294D01*
X6048374Y20693521D01*
X6027321Y20799360D01*
X6026578Y20802546D01*
X6020316Y20825918D01*
X6019366Y20829048D01*
X5984679Y20931234D01*
X5983527Y20934295D01*
X5974267Y20956650D01*
X5972917Y20959629D01*
X5925189Y21056413D01*
X5923647Y21059298D01*
X5911548Y21080253D01*
X5909821Y21083030D01*
X5849868Y21172756D01*
X5847963Y21175415D01*
X5833233Y21194612D01*
X5831158Y21197140D01*
X5760006Y21278273D01*
X5757770Y21280660D01*
X5740660Y21297770D01*
X5738273Y21300006D01*
X5657140Y21371158D01*
X5654612Y21373233D01*
X5635415Y21387963D01*
X5632756Y21389868D01*
X5543030Y21449821D01*
X5540253Y21451548D01*
X5519298Y21463647D01*
X5516413Y21465189D01*
X5419629Y21512917D01*
X5416650Y21514267D01*
X5394295Y21523527D01*
X5391234Y21524679D01*
X5289048Y21559366D01*
X5285918Y21560316D01*
X5262546Y21566578D01*
X5259360Y21567321D01*
X5153521Y21588374D01*
X5150294Y21588907D01*
X5126304Y21592065D01*
X5123049Y21592386D01*
X5015368Y21599443D01*
X5012098Y21599550D01*
X4987902Y21599550D01*
X4984632Y21599443D01*
X4876951Y21592386D01*
X4873696Y21592065D01*
X4849706Y21588907D01*
X4846479Y21588374D01*
X4740640Y21567321D01*
X4737454Y21566578D01*
X4714082Y21560316D01*
X4710952Y21559366D01*
X4608766Y21524679D01*
X4605705Y21523527D01*
X4583350Y21514267D01*
X4580371Y21512917D01*
X4483587Y21465189D01*
X4480702Y21463647D01*
X4459747Y21451548D01*
X4456970Y21449821D01*
X4367244Y21389868D01*
X4364585Y21387963D01*
X4345388Y21373233D01*
X4342860Y21371158D01*
X4261727Y21300006D01*
X4259340Y21297770D01*
X4242230Y21280660D01*
X4239994Y21278273D01*
X4168842Y21197140D01*
X4166767Y21194612D01*
X4152037Y21175415D01*
X4150132Y21172756D01*
X4090179Y21083030D01*
X4088452Y21080253D01*
X4076353Y21059298D01*
X4074811Y21056413D01*
X4027083Y20959629D01*
X4025733Y20956650D01*
X4016473Y20934295D01*
X4015321Y20931234D01*
X3980634Y20829048D01*
X3979684Y20825918D01*
X3973422Y20802546D01*
X3972679Y20799360D01*
X3951626Y20693521D01*
X3951093Y20690294D01*
X3947935Y20666304D01*
X3947614Y20663049D01*
X3940557Y20555368D01*
X3940450Y20552098D01*
X3940450Y20527902D01*
X3940557Y20524632D01*
X3947614Y20416951D01*
X3947935Y20413696D01*
X3951093Y20389706D01*
X3951626Y20386479D01*
X3972679Y20280640D01*
X3973422Y20277454D01*
X3979684Y20254082D01*
X3980634Y20250952D01*
X4015321Y20148766D01*
X4016473Y20145705D01*
X4025733Y20123350D01*
X4027083Y20120371D01*
X4074811Y20023587D01*
X4076353Y20020702D01*
X4088452Y19999747D01*
X4090179Y19996970D01*
X4150132Y19907244D01*
X4152037Y19904585D01*
X4166767Y19885388D01*
X4168842Y19882860D01*
X4239994Y19801727D01*
X4242230Y19799340D01*
X4259340Y19782230D01*
X4261727Y19779994D01*
X4342860Y19708842D01*
X4345388Y19706767D01*
X4364585Y19692037D01*
X4367244Y19690132D01*
X4456970Y19630179D01*
X4459747Y19628452D01*
X4480702Y19616353D01*
X4483587Y19614811D01*
X4580371Y19567083D01*
X4583350Y19565733D01*
X4605705Y19556473D01*
X4608766Y19555321D01*
X4710952Y19520634D01*
X4714082Y19519684D01*
X4737454Y19513422D01*
X4740640Y19512679D01*
X4846479Y19491626D01*
X4849706Y19491093D01*
X4873696Y19487935D01*
X4876951Y19487614D01*
X4984632Y19480557D01*
X4987902Y19480450D01*
X5004367Y19480450D01*
G37*
%LPD*%
%LPC*%
G36*
X5848773Y14400000D02*
X5851226Y14400060D01*
X5868132Y14400891D01*
X5873012Y14401371D01*
X5888541Y14403675D01*
X5893350Y14404632D01*
X5908578Y14408446D01*
X5913271Y14409870D01*
X5928052Y14415158D01*
X5932583Y14417035D01*
X5946774Y14423747D01*
X5951099Y14426059D01*
X5964564Y14434129D01*
X5968642Y14436854D01*
X5981251Y14446205D01*
X5985042Y14449316D01*
X5996673Y14459859D01*
X6000141Y14463327D01*
X6010684Y14474958D01*
X6013795Y14478749D01*
X6023146Y14491358D01*
X6025871Y14495436D01*
X6033941Y14508901D01*
X6036253Y14513226D01*
X6042965Y14527417D01*
X6044842Y14531948D01*
X6050130Y14546729D01*
X6051554Y14551422D01*
X6055368Y14566650D01*
X6056325Y14571459D01*
X6058629Y14586988D01*
X6059109Y14591868D01*
X6059940Y14608774D01*
X6060000Y14611227D01*
X6060000Y16308773D01*
X6059940Y16311226D01*
X6059109Y16328132D01*
X6058629Y16333012D01*
X6056325Y16348541D01*
X6055368Y16353350D01*
X6051554Y16368578D01*
X6050130Y16373271D01*
X6044842Y16388052D01*
X6042965Y16392583D01*
X6036253Y16406774D01*
X6033941Y16411099D01*
X6025871Y16424564D01*
X6023146Y16428642D01*
X6013795Y16441251D01*
X6010684Y16445042D01*
X6000141Y16456673D01*
X5996673Y16460141D01*
X5985042Y16470684D01*
X5981251Y16473795D01*
X5968642Y16483146D01*
X5964564Y16485871D01*
X5951099Y16493941D01*
X5946774Y16496253D01*
X5932583Y16502965D01*
X5928052Y16504842D01*
X5913271Y16510130D01*
X5908578Y16511554D01*
X5893350Y16515368D01*
X5888541Y16516325D01*
X5873012Y16518629D01*
X5868132Y16519109D01*
X5851226Y16519940D01*
X5848773Y16520000D01*
X4151227Y16520000D01*
X4148774Y16519940D01*
X4131868Y16519109D01*
X4126988Y16518629D01*
X4111459Y16516325D01*
X4106650Y16515368D01*
X4091422Y16511554D01*
X4086729Y16510130D01*
X4071948Y16504842D01*
X4067417Y16502965D01*
X4053226Y16496253D01*
X4048901Y16493941D01*
X4035436Y16485871D01*
X4031358Y16483146D01*
X4018749Y16473795D01*
X4014958Y16470684D01*
X4003327Y16460141D01*
X3999859Y16456673D01*
X3989316Y16445042D01*
X3986205Y16441251D01*
X3976854Y16428642D01*
X3974129Y16424564D01*
X3966059Y16411099D01*
X3963747Y16406774D01*
X3957035Y16392583D01*
X3955158Y16388052D01*
X3949870Y16373271D01*
X3948446Y16368578D01*
X3944632Y16353350D01*
X3943675Y16348541D01*
X3941371Y16333012D01*
X3940891Y16328132D01*
X3940060Y16311226D01*
X3940000Y16308773D01*
X3940000Y14611227D01*
X3940060Y14608774D01*
X3940891Y14591868D01*
X3941371Y14586988D01*
X3943675Y14571459D01*
X3944632Y14566650D01*
X3948446Y14551422D01*
X3949870Y14546729D01*
X3955158Y14531948D01*
X3957035Y14527417D01*
X3963747Y14513226D01*
X3966059Y14508901D01*
X3974129Y14495436D01*
X3976854Y14491358D01*
X3986205Y14478749D01*
X3989316Y14474958D01*
X3999859Y14463327D01*
X4003327Y14459859D01*
X4014958Y14449316D01*
X4018749Y14446205D01*
X4031358Y14436854D01*
X4035436Y14434129D01*
X4048901Y14426059D01*
X4053226Y14423747D01*
X4067417Y14417035D01*
X4071948Y14415158D01*
X4086729Y14409870D01*
X4091422Y14408446D01*
X4106650Y14404632D01*
X4111459Y14403675D01*
X4126988Y14401371D01*
X4131868Y14400891D01*
X4148774Y14400060D01*
X4151227Y14400000D01*
X5848773Y14400000D01*
G37*
%LPD*%
%LPC*%
G36*
X5178758Y31589611D02*
X5179968Y31591746D01*
X5188525Y31607757D01*
X5189629Y31609948D01*
X5259908Y31758542D01*
X5260903Y31760785D01*
X5267850Y31777557D01*
X5268733Y31779847D01*
X5324109Y31934614D01*
X5324879Y31936944D01*
X5330149Y31954316D01*
X5330803Y31956681D01*
X5370743Y32116130D01*
X5371281Y32118524D01*
X5374823Y32136329D01*
X5375242Y32138747D01*
X5399361Y32301343D01*
X5399661Y32303779D01*
X5401441Y32321845D01*
X5401621Y32324292D01*
X5409687Y32488470D01*
X5409747Y32490923D01*
X5409747Y32509077D01*
X5409687Y32511530D01*
X5401621Y32675708D01*
X5401441Y32678155D01*
X5399661Y32696221D01*
X5399361Y32698657D01*
X5375242Y32861253D01*
X5374823Y32863671D01*
X5371281Y32881476D01*
X5370743Y32883870D01*
X5330803Y33043319D01*
X5330149Y33045684D01*
X5324879Y33063056D01*
X5324109Y33065386D01*
X5268733Y33220153D01*
X5267850Y33222443D01*
X5260903Y33239215D01*
X5259908Y33241458D01*
X5189629Y33390052D01*
X5188525Y33392243D01*
X5179968Y33408254D01*
X5178758Y33410389D01*
X5094252Y33551378D01*
X5092940Y33553451D01*
X5082854Y33568546D01*
X5081441Y33570552D01*
X4983522Y33702580D01*
X4982013Y33704514D01*
X4970496Y33718547D01*
X4968893Y33720405D01*
X4858505Y33842200D01*
X4856813Y33843977D01*
X4843977Y33856813D01*
X4842200Y33858505D01*
X4720405Y33968893D01*
X4718547Y33970496D01*
X4704514Y33982013D01*
X4702580Y33983522D01*
X4570552Y34081441D01*
X4568546Y34082854D01*
X4553451Y34092940D01*
X4551378Y34094252D01*
X4410389Y34178758D01*
X4408254Y34179968D01*
X4392243Y34188525D01*
X4390052Y34189629D01*
X4241458Y34259908D01*
X4239215Y34260903D01*
X4222443Y34267850D01*
X4220153Y34268733D01*
X4065386Y34324109D01*
X4063056Y34324879D01*
X4045684Y34330149D01*
X4043319Y34330803D01*
X3883870Y34370743D01*
X3881476Y34371281D01*
X3863671Y34374823D01*
X3861253Y34375242D01*
X3698657Y34399361D01*
X3696221Y34399661D01*
X3678155Y34401441D01*
X3675708Y34401621D01*
X3511530Y34409687D01*
X3509077Y34409747D01*
X3490923Y34409747D01*
X3488470Y34409687D01*
X3324292Y34401621D01*
X3321845Y34401441D01*
X3303779Y34399661D01*
X3301343Y34399361D01*
X3138747Y34375242D01*
X3136329Y34374823D01*
X3118524Y34371281D01*
X3116130Y34370743D01*
X2956681Y34330803D01*
X2954316Y34330149D01*
X2936944Y34324879D01*
X2934614Y34324109D01*
X2779847Y34268733D01*
X2777557Y34267850D01*
X2760785Y34260903D01*
X2758542Y34259908D01*
X2609948Y34189629D01*
X2607757Y34188525D01*
X2591746Y34179968D01*
X2589611Y34178758D01*
X2448622Y34094252D01*
X2446549Y34092940D01*
X2431454Y34082854D01*
X2429448Y34081441D01*
X2297420Y33983522D01*
X2295486Y33982013D01*
X2281453Y33970496D01*
X2279595Y33968893D01*
X2157800Y33858505D01*
X2156023Y33856813D01*
X2143187Y33843977D01*
X2141495Y33842200D01*
X2031107Y33720405D01*
X2029504Y33718547D01*
X2017987Y33704514D01*
X2016478Y33702580D01*
X1918559Y33570552D01*
X1917146Y33568546D01*
X1907060Y33553451D01*
X1905748Y33551378D01*
X1821242Y33410389D01*
X1820032Y33408254D01*
X1811475Y33392243D01*
X1810371Y33390052D01*
X1740092Y33241458D01*
X1739097Y33239215D01*
X1732150Y33222443D01*
X1731267Y33220153D01*
X1675891Y33065386D01*
X1675121Y33063056D01*
X1669851Y33045684D01*
X1669197Y33043319D01*
X1629257Y32883870D01*
X1628719Y32881476D01*
X1625177Y32863671D01*
X1624758Y32861253D01*
X1600639Y32698657D01*
X1600339Y32696221D01*
X1598559Y32678155D01*
X1598379Y32675708D01*
X1590313Y32511530D01*
X1590253Y32509077D01*
X1590253Y32490923D01*
X1590313Y32488470D01*
X1598379Y32324292D01*
X1598559Y32321845D01*
X1600339Y32303779D01*
X1600639Y32301343D01*
X1624758Y32138747D01*
X1625177Y32136329D01*
X1628719Y32118524D01*
X1629257Y32116130D01*
X1669197Y31956681D01*
X1669851Y31954316D01*
X1675121Y31936944D01*
X1675891Y31934614D01*
X1731267Y31779847D01*
X1732150Y31777557D01*
X1739097Y31760785D01*
X1740092Y31758542D01*
X1810371Y31609948D01*
X1811475Y31607757D01*
X1820032Y31591746D01*
X1821242Y31589611D01*
X1905748Y31448622D01*
X1907060Y31446549D01*
X1917146Y31431454D01*
X1918559Y31429448D01*
X2016478Y31297420D01*
X2017987Y31295486D01*
X2029504Y31281453D01*
X2031107Y31279595D01*
X2141495Y31157800D01*
X2143187Y31156023D01*
X2156023Y31143187D01*
X2157800Y31141495D01*
X2279595Y31031107D01*
X2281453Y31029504D01*
X2295486Y31017987D01*
X2297420Y31016478D01*
X2429448Y30918559D01*
X2431454Y30917146D01*
X2446549Y30907060D01*
X2448622Y30905748D01*
X2589611Y30821242D01*
X2591746Y30820032D01*
X2607757Y30811475D01*
X2609948Y30810371D01*
X2758542Y30740092D01*
X2760785Y30739097D01*
X2777557Y30732150D01*
X2779847Y30731267D01*
X2934614Y30675891D01*
X2936944Y30675121D01*
X2954316Y30669851D01*
X2956681Y30669197D01*
X3116130Y30629257D01*
X3118524Y30628719D01*
X3136329Y30625177D01*
X3138747Y30624758D01*
X3301343Y30600639D01*
X3303779Y30600339D01*
X3321845Y30598559D01*
X3324292Y30598379D01*
X3488470Y30590313D01*
X3490923Y30590253D01*
X3509077Y30590253D01*
X3511530Y30590313D01*
X3675708Y30598379D01*
X3678155Y30598559D01*
X3696221Y30600339D01*
X3698657Y30600639D01*
X3861253Y30624758D01*
X3863671Y30625177D01*
X3881476Y30628719D01*
X3883870Y30629257D01*
X4043319Y30669197D01*
X4045684Y30669851D01*
X4063056Y30675121D01*
X4065386Y30675891D01*
X4220153Y30731267D01*
X4222443Y30732150D01*
X4239215Y30739097D01*
X4241458Y30740092D01*
X4390052Y30810371D01*
X4392243Y30811475D01*
X4408254Y30820032D01*
X4410389Y30821242D01*
X4551378Y30905748D01*
X4553451Y30907060D01*
X4568546Y30917146D01*
X4570552Y30918559D01*
X4702580Y31016478D01*
X4704514Y31017987D01*
X4718547Y31029504D01*
X4720405Y31031107D01*
X4842200Y31141495D01*
X4843977Y31143187D01*
X4856813Y31156023D01*
X4858505Y31157800D01*
X4968893Y31279595D01*
X4970496Y31281453D01*
X4982013Y31295486D01*
X4983522Y31297420D01*
X5081441Y31429448D01*
X5082854Y31431454D01*
X5092940Y31446549D01*
X5094252Y31448622D01*
X5178758Y31589611D01*
G37*
%LPD*%
%LPC*%
G36*
X5259908Y2758542D02*
X5260903Y2760785D01*
X5267850Y2777557D01*
X5268733Y2779847D01*
X5324109Y2934614D01*
X5324879Y2936944D01*
X5330149Y2954316D01*
X5330803Y2956681D01*
X5370743Y3116130D01*
X5371281Y3118524D01*
X5374823Y3136329D01*
X5375242Y3138747D01*
X5399361Y3301343D01*
X5399661Y3303779D01*
X5401441Y3321845D01*
X5401621Y3324292D01*
X5409687Y3488470D01*
X5409747Y3490923D01*
X5409747Y3509077D01*
X5409687Y3511530D01*
X5401621Y3675708D01*
X5401441Y3678155D01*
X5399661Y3696221D01*
X5399361Y3698657D01*
X5375242Y3861253D01*
X5374823Y3863671D01*
X5371281Y3881476D01*
X5370743Y3883870D01*
X5330803Y4043319D01*
X5330149Y4045684D01*
X5324879Y4063056D01*
X5324109Y4065386D01*
X5268733Y4220153D01*
X5267850Y4222443D01*
X5260903Y4239215D01*
X5259908Y4241458D01*
X5189629Y4390052D01*
X5188525Y4392243D01*
X5179968Y4408254D01*
X5178758Y4410389D01*
X5094252Y4551378D01*
X5092940Y4553451D01*
X5082854Y4568546D01*
X5081441Y4570552D01*
X4983522Y4702580D01*
X4982013Y4704514D01*
X4970496Y4718547D01*
X4968893Y4720405D01*
X4858505Y4842200D01*
X4856813Y4843977D01*
X4843977Y4856813D01*
X4842200Y4858505D01*
X4720405Y4968893D01*
X4718547Y4970496D01*
X4704514Y4982013D01*
X4702580Y4983522D01*
X4570552Y5081441D01*
X4568546Y5082854D01*
X4553451Y5092940D01*
X4551378Y5094252D01*
X4410389Y5178758D01*
X4408254Y5179968D01*
X4392243Y5188525D01*
X4390052Y5189629D01*
X4241458Y5259908D01*
X4239215Y5260903D01*
X4222443Y5267850D01*
X4220153Y5268733D01*
X4065386Y5324109D01*
X4063056Y5324879D01*
X4045684Y5330149D01*
X4043319Y5330803D01*
X3883870Y5370743D01*
X3881476Y5371281D01*
X3863671Y5374823D01*
X3861253Y5375242D01*
X3698657Y5399361D01*
X3696221Y5399661D01*
X3678155Y5401441D01*
X3675708Y5401621D01*
X3511530Y5409687D01*
X3509077Y5409747D01*
X3490923Y5409747D01*
X3488470Y5409687D01*
X3324292Y5401621D01*
X3321845Y5401441D01*
X3303779Y5399661D01*
X3301343Y5399361D01*
X3138747Y5375242D01*
X3136329Y5374823D01*
X3118524Y5371281D01*
X3116130Y5370743D01*
X2956681Y5330803D01*
X2954316Y5330149D01*
X2936944Y5324879D01*
X2934614Y5324109D01*
X2779847Y5268733D01*
X2777557Y5267850D01*
X2760785Y5260903D01*
X2758542Y5259908D01*
X2609948Y5189629D01*
X2607757Y5188525D01*
X2591746Y5179968D01*
X2589611Y5178758D01*
X2448622Y5094252D01*
X2446549Y5092940D01*
X2431454Y5082854D01*
X2429448Y5081441D01*
X2297420Y4983522D01*
X2295486Y4982013D01*
X2281453Y4970496D01*
X2279595Y4968893D01*
X2157800Y4858505D01*
X2156023Y4856813D01*
X2143187Y4843977D01*
X2141495Y4842200D01*
X2031107Y4720405D01*
X2029504Y4718547D01*
X2017987Y4704514D01*
X2016478Y4702580D01*
X1918559Y4570552D01*
X1917146Y4568546D01*
X1907060Y4553451D01*
X1905748Y4551378D01*
X1821242Y4410389D01*
X1820032Y4408254D01*
X1811475Y4392243D01*
X1810371Y4390052D01*
X1740092Y4241458D01*
X1739097Y4239215D01*
X1732150Y4222443D01*
X1731267Y4220153D01*
X1675891Y4065386D01*
X1675121Y4063056D01*
X1669851Y4045684D01*
X1669197Y4043319D01*
X1629257Y3883870D01*
X1628719Y3881476D01*
X1625177Y3863671D01*
X1624758Y3861253D01*
X1600639Y3698657D01*
X1600339Y3696221D01*
X1598559Y3678155D01*
X1598379Y3675708D01*
X1590313Y3511530D01*
X1590253Y3509077D01*
X1590253Y3490923D01*
X1590313Y3488470D01*
X1598379Y3324292D01*
X1598559Y3321845D01*
X1600339Y3303779D01*
X1600639Y3301343D01*
X1624758Y3138747D01*
X1625177Y3136329D01*
X1628719Y3118524D01*
X1629257Y3116130D01*
X1669197Y2956681D01*
X1669851Y2954316D01*
X1675121Y2936944D01*
X1675891Y2934614D01*
X1731267Y2779847D01*
X1732150Y2777557D01*
X1739097Y2760785D01*
X1740092Y2758542D01*
X1810371Y2609948D01*
X1811475Y2607757D01*
X1820032Y2591746D01*
X1821242Y2589611D01*
X1905748Y2448622D01*
X1907060Y2446549D01*
X1917146Y2431454D01*
X1918559Y2429448D01*
X2016478Y2297420D01*
X2017987Y2295486D01*
X2029504Y2281453D01*
X2031107Y2279595D01*
X2141495Y2157800D01*
X2143187Y2156023D01*
X2156023Y2143187D01*
X2157800Y2141495D01*
X2279595Y2031107D01*
X2281453Y2029504D01*
X2295486Y2017987D01*
X2297420Y2016478D01*
X2429448Y1918559D01*
X2431454Y1917146D01*
X2446549Y1907060D01*
X2448622Y1905748D01*
X2589611Y1821242D01*
X2591746Y1820032D01*
X2607757Y1811475D01*
X2609948Y1810371D01*
X2758542Y1740092D01*
X2760785Y1739097D01*
X2777557Y1732150D01*
X2779847Y1731267D01*
X2934614Y1675891D01*
X2936944Y1675121D01*
X2954316Y1669851D01*
X2956681Y1669197D01*
X3116130Y1629257D01*
X3118524Y1628719D01*
X3136329Y1625177D01*
X3138747Y1624758D01*
X3301343Y1600639D01*
X3303779Y1600339D01*
X3321845Y1598559D01*
X3324292Y1598379D01*
X3488470Y1590313D01*
X3490923Y1590253D01*
X3509077Y1590253D01*
X3511530Y1590313D01*
X3675708Y1598379D01*
X3678155Y1598559D01*
X3696221Y1600339D01*
X3698657Y1600639D01*
X3861253Y1624758D01*
X3863671Y1625177D01*
X3881476Y1628719D01*
X3883870Y1629257D01*
X4043319Y1669197D01*
X4045684Y1669851D01*
X4063056Y1675121D01*
X4065386Y1675891D01*
X4220153Y1731267D01*
X4222443Y1732150D01*
X4239215Y1739097D01*
X4241458Y1740092D01*
X4390052Y1810371D01*
X4392243Y1811475D01*
X4408254Y1820032D01*
X4410389Y1821242D01*
X4551378Y1905748D01*
X4553451Y1907060D01*
X4568546Y1917146D01*
X4570552Y1918559D01*
X4702580Y2016478D01*
X4704514Y2017987D01*
X4718547Y2029504D01*
X4720405Y2031107D01*
X4842200Y2141495D01*
X4843977Y2143187D01*
X4856813Y2156023D01*
X4858505Y2157800D01*
X4968893Y2279595D01*
X4970496Y2281453D01*
X4982013Y2295486D01*
X4983522Y2297420D01*
X5081441Y2429448D01*
X5082854Y2431454D01*
X5092940Y2446549D01*
X5094252Y2448622D01*
X5178758Y2589611D01*
X5179968Y2591746D01*
X5188525Y2607757D01*
X5189629Y2609948D01*
X5259908Y2758542D01*
G37*
%LPD*%
D10*
X7500000Y17000000D02*
X6750000Y17750000D01*
D10*
X6750000Y17750000D02*
X6750000Y18250000D01*
D10*
X6750000Y18250000D02*
X5250000Y19750000D01*
D11*
X19500000Y11750000D02*
X21500000Y9750000D01*
D11*
X21500000Y9750000D02*
X22000000Y9750000D01*
D11*
X22000000Y9750000D02*
X25000000Y6750000D01*
D11*
X25000000Y6750000D02*
X25250000Y6750000D01*
D11*
X25250000Y6750000D02*
X26750000Y5250000D01*
D10*
X44250000Y16250000D02*
X39750000Y20750000D01*
D10*
X39750000Y20750000D02*
X39500000Y20750000D01*
D10*
X39500000Y20750000D02*
X32250000Y28000000D01*
D10*
X32250000Y28000000D02*
X31750000Y28000000D01*
D10*
X31750000Y28000000D02*
X31250000Y28500000D01*
D11*
X26750000Y19500000D02*
X26750000Y15000000D01*
D11*
X26750000Y15000000D02*
X24000000Y12250000D01*
D11*
X24000000Y12250000D02*
X24000000Y9500000D01*
D11*
X24000000Y9500000D02*
X23750000Y9250000D01*
D11*
X23750000Y9250000D02*
X23750000Y9000000D01*
D12*
X7500000Y17000000D03*
D12*
X19500000Y11750000D03*
D12*
X31250000Y28500000D03*
D12*
X26750000Y19500000D03*
D12*
X23750000Y9000000D03*
D12*
X16000000Y25062500D03*
D12*
X18292893Y25769607D03*
D12*
X16000000Y9937500D03*
D12*
X34000000Y11062500D03*
D12*
X32000000Y21062500D03*
D12*
X19923880Y14320183D03*
D12*
X20475000Y5000000D03*
D12*
X31525000Y5000000D03*
D13*
X5000000Y15460000D03*
D14*
X5000000Y18000000D03*
D14*
X5000000Y20540000D03*
D13*
X45000000Y15460000D03*
D14*
X45000000Y18000000D03*
D14*
X45000000Y20540000D03*
D13*
X22460000Y5000000D03*
D14*
X25000000Y5000000D03*
D14*
X27540000Y5000000D03*
M02*
