G04 Nyquist Labs eelab.pcb*
%TF.FileFunction,Copper,L1,Top*%
%TF.FilePolarity,Positive*%
%FSLAX46Y46*%
%MOMM*%
%LPD*%
%ADD10C,0.2500*%
%ADD11C,0.4000*%
%ADD12C,0.6000*%
%ADD13R,1.7000X1.7000*%
%ADD14C,1.7000*%
G01*
D10*
X10750000Y21500000D02*
X9000000Y19750000D01*
D10*
X9000000Y19750000D02*
X9000000Y19500000D01*
D10*
X9000000Y19500000D02*
X5750000Y16250000D01*
D10*
X32500000Y13250000D02*
X32250000Y13250000D01*
D10*
X32250000Y13250000D02*
X28250000Y17250000D01*
D10*
X35500000Y14750000D02*
X35250000Y14750000D01*
D10*
X35250000Y14750000D02*
X34250000Y13750000D01*
D10*
X34250000Y13750000D02*
X34000000Y13750000D01*
D10*
X34000000Y13750000D02*
X33500000Y13250000D01*
D10*
X10750000Y13500000D02*
X8500000Y15750000D01*
D10*
X8500000Y15750000D02*
X8500000Y16000000D01*
D10*
X8500000Y16000000D02*
X7500000Y17000000D01*
D10*
X19500000Y26500000D02*
X20250000Y25750000D01*
D10*
X20250000Y25750000D02*
X20250000Y20250000D01*
D10*
X20250000Y20250000D02*
X21750000Y18750000D01*
D10*
X20750000Y28500000D02*
X19500000Y27250000D01*
D10*
X44750000Y19750000D02*
X42500000Y17500000D01*
D10*
X42500000Y17500000D02*
X42500000Y15750000D01*
D10*
X42500000Y15750000D02*
X39500000Y12750000D01*
D10*
X39500000Y12750000D02*
X39500000Y11750000D01*
D10*
X39500000Y11750000D02*
X39250000Y11500000D01*
D10*
X22500000Y28500000D02*
X22500000Y20000000D01*
D10*
X28750000Y28500000D02*
X23250000Y28500000D01*
D10*
X35500000Y17250000D02*
X34000000Y17250000D01*
D10*
X34000000Y17250000D02*
X33500000Y17750000D01*
D10*
X33500000Y17750000D02*
X31750000Y17750000D01*
D10*
X31750000Y17750000D02*
X31500000Y18000000D01*
D10*
X31500000Y18000000D02*
X28750000Y18000000D01*
D10*
X28750000Y18000000D02*
X28250000Y18500000D01*
D10*
X37250000Y11500000D02*
X37250000Y15750000D01*
D10*
X37250000Y15750000D02*
X36500000Y16500000D01*
D10*
X14500000Y26500000D02*
X13750000Y25750000D01*
D10*
X13750000Y25750000D02*
X13750000Y23000000D01*
D10*
X13750000Y23000000D02*
X13250000Y22500000D01*
D10*
X21750000Y17500000D02*
X21500000Y17500000D01*
D10*
X21500000Y17500000D02*
X20750000Y18250000D01*
D10*
X20750000Y18250000D02*
X16500000Y18250000D01*
D10*
X16500000Y18250000D02*
X13250000Y21500000D01*
D10*
X14500000Y8500000D02*
X13750000Y9250000D01*
D10*
X13750000Y9250000D02*
X13750000Y12000000D01*
D10*
X13750000Y12000000D02*
X13250000Y12500000D01*
D10*
X26750000Y16000000D02*
X22500000Y11750000D01*
D10*
X22500000Y11750000D02*
X20750000Y11750000D01*
D10*
X20750000Y11750000D02*
X17750000Y8750000D01*
D10*
X17750000Y8750000D02*
X15750000Y8750000D01*
D10*
X15750000Y8750000D02*
X15500000Y8500000D01*
D11*
X33000000Y4250000D02*
X32250000Y4250000D01*
D11*
X32250000Y4250000D02*
X31500000Y3500000D01*
D11*
X31500000Y3500000D02*
X29500000Y3500000D01*
D11*
X29500000Y3500000D02*
X28250000Y4750000D01*
D11*
X21750000Y16000000D02*
X21750000Y15750000D01*
D11*
X21750000Y15750000D02*
X21000000Y15000000D01*
D11*
X21000000Y15000000D02*
X21000000Y14000000D01*
D11*
X21000000Y14000000D02*
X19500000Y12500000D01*
D11*
X17000000Y4250000D02*
X17750000Y4250000D01*
D11*
X17750000Y4250000D02*
X18500000Y3500000D01*
D11*
X18500000Y3500000D02*
X21000000Y3500000D01*
D11*
X21000000Y3500000D02*
X21750000Y4250000D01*
D11*
X26750000Y19750000D02*
X26750000Y19500000D01*
D11*
X23750000Y9000000D02*
X23750000Y6250000D01*
D11*
X23750000Y6250000D02*
X23250000Y5750000D01*
D11*
X30500000Y22500000D02*
X29500000Y21500000D01*
D11*
X29500000Y21500000D02*
X29500000Y21250000D01*
D11*
X29500000Y21250000D02*
X28250000Y20000000D01*
D10*
X15000000Y25062500D02*
X16000000Y25062500D01*
D10*
X19000000Y25062500D02*
X18292893Y25769607D01*
D10*
X15000000Y9937500D02*
X16000000Y9937500D01*
D10*
X33000000Y11062500D02*
X34000000Y11062500D01*
D10*
X31000000Y21062500D02*
X32000000Y21062500D01*
D10*
X19000000Y13937500D02*
X19923880Y14320183D01*
D10*
X19475000Y5000000D02*
X20475000Y5000000D01*
D10*
X30525000Y5000000D02*
X31525000Y5000000D01*
D12*
X7500000Y17000000D03*
D12*
X19500000Y11750000D03*
D12*
X31250000Y28500000D03*
D12*
X26750000Y19500000D03*
D12*
X23750000Y9000000D03*
D12*
X16000000Y25062500D03*
D12*
X18292893Y25769607D03*
D12*
X16000000Y9937500D03*
D12*
X34000000Y11062500D03*
D12*
X32000000Y21062500D03*
D12*
X19923880Y14320183D03*
D12*
X20475000Y5000000D03*
D12*
X31525000Y5000000D03*
%LPD*%
G36*
X23350000Y19605000D02*
X21700000Y19605000D01*
X21661177Y19610111D01*
X21625000Y19625096D01*
X21593934Y19648934D01*
X21570096Y19680000D01*
X21555111Y19716177D01*
X21550000Y19755000D01*
X21550000Y20055000D01*
X21555111Y20093823D01*
X21570096Y20130000D01*
X21593934Y20161066D01*
X21625000Y20184904D01*
X21661177Y20199889D01*
X21700000Y20205000D01*
X23350000Y20205000D01*
X23388823Y20199889D01*
X23425000Y20184904D01*
X23456066Y20161066D01*
X23479904Y20130000D01*
X23494889Y20093823D01*
X23500000Y20055000D01*
X23500000Y19755000D01*
X23494889Y19716177D01*
X23479904Y19680000D01*
X23456066Y19648934D01*
X23425000Y19625096D01*
X23388823Y19610111D01*
X23350000Y19605000D01*
G37*
%LPD*%
%LPD*%
G36*
X23350000Y18335000D02*
X21700000Y18335000D01*
X21661177Y18340111D01*
X21625000Y18355096D01*
X21593934Y18378934D01*
X21570096Y18410000D01*
X21555111Y18446177D01*
X21550000Y18485000D01*
X21550000Y18785000D01*
X21555111Y18823823D01*
X21570096Y18860000D01*
X21593934Y18891066D01*
X21625000Y18914904D01*
X21661177Y18929889D01*
X21700000Y18935000D01*
X23350000Y18935000D01*
X23388823Y18929889D01*
X23425000Y18914904D01*
X23456066Y18891066D01*
X23479904Y18860000D01*
X23494889Y18823823D01*
X23500000Y18785000D01*
X23500000Y18485000D01*
X23494889Y18446177D01*
X23479904Y18410000D01*
X23456066Y18378934D01*
X23425000Y18355096D01*
X23388823Y18340111D01*
X23350000Y18335000D01*
G37*
%LPD*%
%LPD*%
G36*
X23350000Y17065000D02*
X21700000Y17065000D01*
X21661177Y17070111D01*
X21625000Y17085096D01*
X21593934Y17108934D01*
X21570096Y17140000D01*
X21555111Y17176177D01*
X21550000Y17215000D01*
X21550000Y17515000D01*
X21555111Y17553823D01*
X21570096Y17590000D01*
X21593934Y17621066D01*
X21625000Y17644904D01*
X21661177Y17659889D01*
X21700000Y17665000D01*
X23350000Y17665000D01*
X23388823Y17659889D01*
X23425000Y17644904D01*
X23456066Y17621066D01*
X23479904Y17590000D01*
X23494889Y17553823D01*
X23500000Y17515000D01*
X23500000Y17215000D01*
X23494889Y17176177D01*
X23479904Y17140000D01*
X23456066Y17108934D01*
X23425000Y17085096D01*
X23388823Y17070111D01*
X23350000Y17065000D01*
G37*
%LPD*%
%LPD*%
G36*
X23350000Y15795000D02*
X21700000Y15795000D01*
X21661177Y15800111D01*
X21625000Y15815096D01*
X21593934Y15838934D01*
X21570096Y15870000D01*
X21555111Y15906177D01*
X21550000Y15945000D01*
X21550000Y16245000D01*
X21555111Y16283823D01*
X21570096Y16320000D01*
X21593934Y16351066D01*
X21625000Y16374904D01*
X21661177Y16389889D01*
X21700000Y16395000D01*
X23350000Y16395000D01*
X23388823Y16389889D01*
X23425000Y16374904D01*
X23456066Y16351066D01*
X23479904Y16320000D01*
X23494889Y16283823D01*
X23500000Y16245000D01*
X23500000Y15945000D01*
X23494889Y15906177D01*
X23479904Y15870000D01*
X23456066Y15838934D01*
X23425000Y15815096D01*
X23388823Y15800111D01*
X23350000Y15795000D01*
G37*
%LPD*%
%LPD*%
G36*
X28300000Y15795000D02*
X26650000Y15795000D01*
X26611177Y15800111D01*
X26575000Y15815096D01*
X26543934Y15838934D01*
X26520096Y15870000D01*
X26505111Y15906177D01*
X26500000Y15945000D01*
X26500000Y16245000D01*
X26505111Y16283823D01*
X26520096Y16320000D01*
X26543934Y16351066D01*
X26575000Y16374904D01*
X26611177Y16389889D01*
X26650000Y16395000D01*
X28300000Y16395000D01*
X28338823Y16389889D01*
X28375000Y16374904D01*
X28406066Y16351066D01*
X28429904Y16320000D01*
X28444889Y16283823D01*
X28450000Y16245000D01*
X28450000Y15945000D01*
X28444889Y15906177D01*
X28429904Y15870000D01*
X28406066Y15838934D01*
X28375000Y15815096D01*
X28338823Y15800111D01*
X28300000Y15795000D01*
G37*
%LPD*%
%LPD*%
G36*
X28300000Y17065000D02*
X26650000Y17065000D01*
X26611177Y17070111D01*
X26575000Y17085096D01*
X26543934Y17108934D01*
X26520096Y17140000D01*
X26505111Y17176177D01*
X26500000Y17215000D01*
X26500000Y17515000D01*
X26505111Y17553823D01*
X26520096Y17590000D01*
X26543934Y17621066D01*
X26575000Y17644904D01*
X26611177Y17659889D01*
X26650000Y17665000D01*
X28300000Y17665000D01*
X28338823Y17659889D01*
X28375000Y17644904D01*
X28406066Y17621066D01*
X28429904Y17590000D01*
X28444889Y17553823D01*
X28450000Y17515000D01*
X28450000Y17215000D01*
X28444889Y17176177D01*
X28429904Y17140000D01*
X28406066Y17108934D01*
X28375000Y17085096D01*
X28338823Y17070111D01*
X28300000Y17065000D01*
G37*
%LPD*%
%LPD*%
G36*
X28300000Y18335000D02*
X26650000Y18335000D01*
X26611177Y18340111D01*
X26575000Y18355096D01*
X26543934Y18378934D01*
X26520096Y18410000D01*
X26505111Y18446177D01*
X26500000Y18485000D01*
X26500000Y18785000D01*
X26505111Y18823823D01*
X26520096Y18860000D01*
X26543934Y18891066D01*
X26575000Y18914904D01*
X26611177Y18929889D01*
X26650000Y18935000D01*
X28300000Y18935000D01*
X28338823Y18929889D01*
X28375000Y18914904D01*
X28406066Y18891066D01*
X28429904Y18860000D01*
X28444889Y18823823D01*
X28450000Y18785000D01*
X28450000Y18485000D01*
X28444889Y18446177D01*
X28429904Y18410000D01*
X28406066Y18378934D01*
X28375000Y18355096D01*
X28338823Y18340111D01*
X28300000Y18335000D01*
G37*
%LPD*%
%LPD*%
G36*
X28300000Y19605000D02*
X26650000Y19605000D01*
X26611177Y19610111D01*
X26575000Y19625096D01*
X26543934Y19648934D01*
X26520096Y19680000D01*
X26505111Y19716177D01*
X26500000Y19755000D01*
X26500000Y20055000D01*
X26505111Y20093823D01*
X26520096Y20130000D01*
X26543934Y20161066D01*
X26575000Y20184904D01*
X26611177Y20199889D01*
X26650000Y20205000D01*
X28300000Y20205000D01*
X28338823Y20199889D01*
X28375000Y20184904D01*
X28406066Y20161066D01*
X28429904Y20130000D01*
X28444889Y20093823D01*
X28450000Y20055000D01*
X28450000Y19755000D01*
X28444889Y19716177D01*
X28429904Y19680000D01*
X28406066Y19648934D01*
X28375000Y19625096D01*
X28338823Y19610111D01*
X28300000Y19605000D01*
G37*
%LPD*%
D13*
X5000000Y15460000D03*
D14*
X5000000Y18000000D03*
D14*
X5000000Y20540000D03*
D13*
X45000000Y15460000D03*
D14*
X45000000Y18000000D03*
D14*
X45000000Y20540000D03*
D13*
X22460000Y5000000D03*
D14*
X25000000Y5000000D03*
D14*
X27540000Y5000000D03*
%LPD*%
G36*
X11318750Y21275000D02*
X10806250Y21275000D01*
X10739928Y21283732D01*
X10678125Y21309331D01*
X10625054Y21350054D01*
X10584331Y21403125D01*
X10558732Y21464928D01*
X10550000Y21531250D01*
X10550000Y22468750D01*
X10558732Y22535072D01*
X10584331Y22596875D01*
X10625054Y22649946D01*
X10678125Y22690669D01*
X10739928Y22716268D01*
X10806250Y22725000D01*
X11318750Y22725000D01*
X11385072Y22716268D01*
X11446875Y22690669D01*
X11499946Y22649946D01*
X11540669Y22596875D01*
X11566268Y22535072D01*
X11575000Y22468750D01*
X11575000Y21531250D01*
X11566268Y21464928D01*
X11540669Y21403125D01*
X11499946Y21350054D01*
X11446875Y21309331D01*
X11385072Y21283732D01*
X11318750Y21275000D01*
G37*
%LPD*%
%LPD*%
G36*
X13193750Y21275000D02*
X12681250Y21275000D01*
X12614928Y21283732D01*
X12553125Y21309331D01*
X12500054Y21350054D01*
X12459331Y21403125D01*
X12433732Y21464928D01*
X12425000Y21531250D01*
X12425000Y22468750D01*
X12433732Y22535072D01*
X12459331Y22596875D01*
X12500054Y22649946D01*
X12553125Y22690669D01*
X12614928Y22716268D01*
X12681250Y22725000D01*
X13193750Y22725000D01*
X13260072Y22716268D01*
X13321875Y22690669D01*
X13374946Y22649946D01*
X13415669Y22596875D01*
X13441268Y22535072D01*
X13450000Y22468750D01*
X13450000Y21531250D01*
X13441268Y21464928D01*
X13415669Y21403125D01*
X13374946Y21350054D01*
X13321875Y21309331D01*
X13260072Y21283732D01*
X13193750Y21275000D01*
G37*
%LPD*%
%LPD*%
G36*
X15468750Y24550000D02*
X14531250Y24550000D01*
X14464928Y24558732D01*
X14403125Y24584331D01*
X14350054Y24625054D01*
X14309331Y24678125D01*
X14283732Y24739928D01*
X14275000Y24806250D01*
X14275000Y25318750D01*
X14283732Y25385072D01*
X14309331Y25446875D01*
X14350054Y25499946D01*
X14403125Y25540669D01*
X14464928Y25566268D01*
X14531250Y25575000D01*
X15468750Y25575000D01*
X15535072Y25566268D01*
X15596875Y25540669D01*
X15649946Y25499946D01*
X15690669Y25446875D01*
X15716268Y25385072D01*
X15725000Y25318750D01*
X15725000Y24806250D01*
X15716268Y24739928D01*
X15690669Y24678125D01*
X15649946Y24625054D01*
X15596875Y24584331D01*
X15535072Y24558732D01*
X15468750Y24550000D01*
G37*
%LPD*%
%LPD*%
G36*
X15468750Y26425000D02*
X14531250Y26425000D01*
X14464928Y26433732D01*
X14403125Y26459331D01*
X14350054Y26500054D01*
X14309331Y26553125D01*
X14283732Y26614928D01*
X14275000Y26681250D01*
X14275000Y27193750D01*
X14283732Y27260072D01*
X14309331Y27321875D01*
X14350054Y27374946D01*
X14403125Y27415669D01*
X14464928Y27441268D01*
X14531250Y27450000D01*
X15468750Y27450000D01*
X15535072Y27441268D01*
X15596875Y27415669D01*
X15649946Y27374946D01*
X15690669Y27321875D01*
X15716268Y27260072D01*
X15725000Y27193750D01*
X15725000Y26681250D01*
X15716268Y26614928D01*
X15690669Y26553125D01*
X15649946Y26500054D01*
X15596875Y26459331D01*
X15535072Y26433732D01*
X15468750Y26425000D01*
G37*
%LPD*%
%LPD*%
G36*
X19468750Y24550000D02*
X18531250Y24550000D01*
X18464928Y24558732D01*
X18403125Y24584331D01*
X18350054Y24625054D01*
X18309331Y24678125D01*
X18283732Y24739928D01*
X18275000Y24806250D01*
X18275000Y25318750D01*
X18283732Y25385072D01*
X18309331Y25446875D01*
X18350054Y25499946D01*
X18403125Y25540669D01*
X18464928Y25566268D01*
X18531250Y25575000D01*
X19468750Y25575000D01*
X19535072Y25566268D01*
X19596875Y25540669D01*
X19649946Y25499946D01*
X19690669Y25446875D01*
X19716268Y25385072D01*
X19725000Y25318750D01*
X19725000Y24806250D01*
X19716268Y24739928D01*
X19690669Y24678125D01*
X19649946Y24625054D01*
X19596875Y24584331D01*
X19535072Y24558732D01*
X19468750Y24550000D01*
G37*
%LPD*%
%LPD*%
G36*
X19468750Y26425000D02*
X18531250Y26425000D01*
X18464928Y26433732D01*
X18403125Y26459331D01*
X18350054Y26500054D01*
X18309331Y26553125D01*
X18283732Y26614928D01*
X18275000Y26681250D01*
X18275000Y27193750D01*
X18283732Y27260072D01*
X18309331Y27321875D01*
X18350054Y27374946D01*
X18403125Y27415669D01*
X18464928Y27441268D01*
X18531250Y27450000D01*
X19468750Y27450000D01*
X19535072Y27441268D01*
X19596875Y27415669D01*
X19649946Y27374946D01*
X19690669Y27321875D01*
X19716268Y27260072D01*
X19725000Y27193750D01*
X19725000Y26681250D01*
X19716268Y26614928D01*
X19690669Y26553125D01*
X19649946Y26500054D01*
X19596875Y26459331D01*
X19535072Y26433732D01*
X19468750Y26425000D01*
G37*
%LPD*%
%LPD*%
G36*
X21318750Y28275000D02*
X20806250Y28275000D01*
X20739928Y28283732D01*
X20678125Y28309331D01*
X20625054Y28350054D01*
X20584331Y28403125D01*
X20558732Y28464928D01*
X20550000Y28531250D01*
X20550000Y29468750D01*
X20558732Y29535072D01*
X20584331Y29596875D01*
X20625054Y29649946D01*
X20678125Y29690669D01*
X20739928Y29716268D01*
X20806250Y29725000D01*
X21318750Y29725000D01*
X21385072Y29716268D01*
X21446875Y29690669D01*
X21499946Y29649946D01*
X21540669Y29596875D01*
X21566268Y29535072D01*
X21575000Y29468750D01*
X21575000Y28531250D01*
X21566268Y28464928D01*
X21540669Y28403125D01*
X21499946Y28350054D01*
X21446875Y28309331D01*
X21385072Y28283732D01*
X21318750Y28275000D01*
G37*
%LPD*%
%LPD*%
G36*
X23193750Y28275000D02*
X22681250Y28275000D01*
X22614928Y28283732D01*
X22553125Y28309331D01*
X22500054Y28350054D01*
X22459331Y28403125D01*
X22433732Y28464928D01*
X22425000Y28531250D01*
X22425000Y29468750D01*
X22433732Y29535072D01*
X22459331Y29596875D01*
X22500054Y29649946D01*
X22553125Y29690669D01*
X22614928Y29716268D01*
X22681250Y29725000D01*
X23193750Y29725000D01*
X23260072Y29716268D01*
X23321875Y29690669D01*
X23374946Y29649946D01*
X23415669Y29596875D01*
X23441268Y29535072D01*
X23450000Y29468750D01*
X23450000Y28531250D01*
X23441268Y28464928D01*
X23415669Y28403125D01*
X23374946Y28350054D01*
X23321875Y28309331D01*
X23260072Y28283732D01*
X23193750Y28275000D01*
G37*
%LPD*%
%LPD*%
G36*
X29318750Y28275000D02*
X28806250Y28275000D01*
X28739928Y28283732D01*
X28678125Y28309331D01*
X28625054Y28350054D01*
X28584331Y28403125D01*
X28558732Y28464928D01*
X28550000Y28531250D01*
X28550000Y29468750D01*
X28558732Y29535072D01*
X28584331Y29596875D01*
X28625054Y29649946D01*
X28678125Y29690669D01*
X28739928Y29716268D01*
X28806250Y29725000D01*
X29318750Y29725000D01*
X29385072Y29716268D01*
X29446875Y29690669D01*
X29499946Y29649946D01*
X29540669Y29596875D01*
X29566268Y29535072D01*
X29575000Y29468750D01*
X29575000Y28531250D01*
X29566268Y28464928D01*
X29540669Y28403125D01*
X29499946Y28350054D01*
X29446875Y28309331D01*
X29385072Y28283732D01*
X29318750Y28275000D01*
G37*
%LPD*%
%LPD*%
G36*
X31193750Y28275000D02*
X30681250Y28275000D01*
X30614928Y28283732D01*
X30553125Y28309331D01*
X30500054Y28350054D01*
X30459331Y28403125D01*
X30433732Y28464928D01*
X30425000Y28531250D01*
X30425000Y29468750D01*
X30433732Y29535072D01*
X30459331Y29596875D01*
X30500054Y29649946D01*
X30553125Y29690669D01*
X30614928Y29716268D01*
X30681250Y29725000D01*
X31193750Y29725000D01*
X31260072Y29716268D01*
X31321875Y29690669D01*
X31374946Y29649946D01*
X31415669Y29596875D01*
X31441268Y29535072D01*
X31450000Y29468750D01*
X31450000Y28531250D01*
X31441268Y28464928D01*
X31415669Y28403125D01*
X31374946Y28350054D01*
X31321875Y28309331D01*
X31260072Y28283732D01*
X31193750Y28275000D01*
G37*
%LPD*%
%LPD*%
G36*
X11318750Y12275000D02*
X10806250Y12275000D01*
X10739928Y12283732D01*
X10678125Y12309331D01*
X10625054Y12350054D01*
X10584331Y12403125D01*
X10558732Y12464928D01*
X10550000Y12531250D01*
X10550000Y13468750D01*
X10558732Y13535072D01*
X10584331Y13596875D01*
X10625054Y13649946D01*
X10678125Y13690669D01*
X10739928Y13716268D01*
X10806250Y13725000D01*
X11318750Y13725000D01*
X11385072Y13716268D01*
X11446875Y13690669D01*
X11499946Y13649946D01*
X11540669Y13596875D01*
X11566268Y13535072D01*
X11575000Y13468750D01*
X11575000Y12531250D01*
X11566268Y12464928D01*
X11540669Y12403125D01*
X11499946Y12350054D01*
X11446875Y12309331D01*
X11385072Y12283732D01*
X11318750Y12275000D01*
G37*
%LPD*%
%LPD*%
G36*
X13193750Y12275000D02*
X12681250Y12275000D01*
X12614928Y12283732D01*
X12553125Y12309331D01*
X12500054Y12350054D01*
X12459331Y12403125D01*
X12433732Y12464928D01*
X12425000Y12531250D01*
X12425000Y13468750D01*
X12433732Y13535072D01*
X12459331Y13596875D01*
X12500054Y13649946D01*
X12553125Y13690669D01*
X12614928Y13716268D01*
X12681250Y13725000D01*
X13193750Y13725000D01*
X13260072Y13716268D01*
X13321875Y13690669D01*
X13374946Y13649946D01*
X13415669Y13596875D01*
X13441268Y13535072D01*
X13450000Y13468750D01*
X13450000Y12531250D01*
X13441268Y12464928D01*
X13415669Y12403125D01*
X13374946Y12350054D01*
X13321875Y12309331D01*
X13260072Y12283732D01*
X13193750Y12275000D01*
G37*
%LPD*%
%LPD*%
G36*
X15468750Y7550000D02*
X14531250Y7550000D01*
X14464928Y7558732D01*
X14403125Y7584331D01*
X14350054Y7625054D01*
X14309331Y7678125D01*
X14283732Y7739928D01*
X14275000Y7806250D01*
X14275000Y8318750D01*
X14283732Y8385072D01*
X14309331Y8446875D01*
X14350054Y8499946D01*
X14403125Y8540669D01*
X14464928Y8566268D01*
X14531250Y8575000D01*
X15468750Y8575000D01*
X15535072Y8566268D01*
X15596875Y8540669D01*
X15649946Y8499946D01*
X15690669Y8446875D01*
X15716268Y8385072D01*
X15725000Y8318750D01*
X15725000Y7806250D01*
X15716268Y7739928D01*
X15690669Y7678125D01*
X15649946Y7625054D01*
X15596875Y7584331D01*
X15535072Y7558732D01*
X15468750Y7550000D01*
G37*
%LPD*%
%LPD*%
G36*
X15468750Y9425000D02*
X14531250Y9425000D01*
X14464928Y9433732D01*
X14403125Y9459331D01*
X14350054Y9500054D01*
X14309331Y9553125D01*
X14283732Y9614928D01*
X14275000Y9681250D01*
X14275000Y10193750D01*
X14283732Y10260072D01*
X14309331Y10321875D01*
X14350054Y10374946D01*
X14403125Y10415669D01*
X14464928Y10441268D01*
X14531250Y10450000D01*
X15468750Y10450000D01*
X15535072Y10441268D01*
X15596875Y10415669D01*
X15649946Y10374946D01*
X15690669Y10321875D01*
X15716268Y10260072D01*
X15725000Y10193750D01*
X15725000Y9681250D01*
X15716268Y9614928D01*
X15690669Y9553125D01*
X15649946Y9500054D01*
X15596875Y9459331D01*
X15535072Y9433732D01*
X15468750Y9425000D01*
G37*
%LPD*%
%LPD*%
G36*
X33468750Y10550000D02*
X32531250Y10550000D01*
X32464928Y10558732D01*
X32403125Y10584331D01*
X32350054Y10625054D01*
X32309331Y10678125D01*
X32283732Y10739928D01*
X32275000Y10806250D01*
X32275000Y11318750D01*
X32283732Y11385072D01*
X32309331Y11446875D01*
X32350054Y11499946D01*
X32403125Y11540669D01*
X32464928Y11566268D01*
X32531250Y11575000D01*
X33468750Y11575000D01*
X33535072Y11566268D01*
X33596875Y11540669D01*
X33649946Y11499946D01*
X33690669Y11446875D01*
X33716268Y11385072D01*
X33725000Y11318750D01*
X33725000Y10806250D01*
X33716268Y10739928D01*
X33690669Y10678125D01*
X33649946Y10625054D01*
X33596875Y10584331D01*
X33535072Y10558732D01*
X33468750Y10550000D01*
G37*
%LPD*%
%LPD*%
G36*
X33468750Y12425000D02*
X32531250Y12425000D01*
X32464928Y12433732D01*
X32403125Y12459331D01*
X32350054Y12500054D01*
X32309331Y12553125D01*
X32283732Y12614928D01*
X32275000Y12681250D01*
X32275000Y13193750D01*
X32283732Y13260072D01*
X32309331Y13321875D01*
X32350054Y13374946D01*
X32403125Y13415669D01*
X32464928Y13441268D01*
X32531250Y13450000D01*
X33468750Y13450000D01*
X33535072Y13441268D01*
X33596875Y13415669D01*
X33649946Y13374946D01*
X33690669Y13321875D01*
X33716268Y13260072D01*
X33725000Y13193750D01*
X33725000Y12681250D01*
X33716268Y12614928D01*
X33690669Y12553125D01*
X33649946Y12500054D01*
X33596875Y12459331D01*
X33535072Y12433732D01*
X33468750Y12425000D01*
G37*
%LPD*%
%LPD*%
G36*
X36468750Y14550000D02*
X35531250Y14550000D01*
X35464928Y14558732D01*
X35403125Y14584331D01*
X35350054Y14625054D01*
X35309331Y14678125D01*
X35283732Y14739928D01*
X35275000Y14806250D01*
X35275000Y15318750D01*
X35283732Y15385072D01*
X35309331Y15446875D01*
X35350054Y15499946D01*
X35403125Y15540669D01*
X35464928Y15566268D01*
X35531250Y15575000D01*
X36468750Y15575000D01*
X36535072Y15566268D01*
X36596875Y15540669D01*
X36649946Y15499946D01*
X36690669Y15446875D01*
X36716268Y15385072D01*
X36725000Y15318750D01*
X36725000Y14806250D01*
X36716268Y14739928D01*
X36690669Y14678125D01*
X36649946Y14625054D01*
X36596875Y14584331D01*
X36535072Y14558732D01*
X36468750Y14550000D01*
G37*
%LPD*%
%LPD*%
G36*
X36468750Y16425000D02*
X35531250Y16425000D01*
X35464928Y16433732D01*
X35403125Y16459331D01*
X35350054Y16500054D01*
X35309331Y16553125D01*
X35283732Y16614928D01*
X35275000Y16681250D01*
X35275000Y17193750D01*
X35283732Y17260072D01*
X35309331Y17321875D01*
X35350054Y17374946D01*
X35403125Y17415669D01*
X35464928Y17441268D01*
X35531250Y17450000D01*
X36468750Y17450000D01*
X36535072Y17441268D01*
X36596875Y17415669D01*
X36649946Y17374946D01*
X36690669Y17321875D01*
X36716268Y17260072D01*
X36725000Y17193750D01*
X36725000Y16681250D01*
X36716268Y16614928D01*
X36690669Y16553125D01*
X36649946Y16500054D01*
X36596875Y16459331D01*
X36535072Y16433732D01*
X36468750Y16425000D01*
G37*
%LPD*%
%LPD*%
G36*
X37318750Y10275000D02*
X36806250Y10275000D01*
X36739928Y10283732D01*
X36678125Y10309331D01*
X36625054Y10350054D01*
X36584331Y10403125D01*
X36558732Y10464928D01*
X36550000Y10531250D01*
X36550000Y11468750D01*
X36558732Y11535072D01*
X36584331Y11596875D01*
X36625054Y11649946D01*
X36678125Y11690669D01*
X36739928Y11716268D01*
X36806250Y11725000D01*
X37318750Y11725000D01*
X37385072Y11716268D01*
X37446875Y11690669D01*
X37499946Y11649946D01*
X37540669Y11596875D01*
X37566268Y11535072D01*
X37575000Y11468750D01*
X37575000Y10531250D01*
X37566268Y10464928D01*
X37540669Y10403125D01*
X37499946Y10350054D01*
X37446875Y10309331D01*
X37385072Y10283732D01*
X37318750Y10275000D01*
G37*
%LPD*%
%LPD*%
G36*
X39193750Y10275000D02*
X38681250Y10275000D01*
X38614928Y10283732D01*
X38553125Y10309331D01*
X38500054Y10350054D01*
X38459331Y10403125D01*
X38433732Y10464928D01*
X38425000Y10531250D01*
X38425000Y11468750D01*
X38433732Y11535072D01*
X38459331Y11596875D01*
X38500054Y11649946D01*
X38553125Y11690669D01*
X38614928Y11716268D01*
X38681250Y11725000D01*
X39193750Y11725000D01*
X39260072Y11716268D01*
X39321875Y11690669D01*
X39374946Y11649946D01*
X39415669Y11596875D01*
X39441268Y11535072D01*
X39450000Y11468750D01*
X39450000Y10531250D01*
X39441268Y10464928D01*
X39415669Y10403125D01*
X39374946Y10350054D01*
X39321875Y10309331D01*
X39260072Y10283732D01*
X39193750Y10275000D01*
G37*
%LPD*%
%LPD*%
G36*
X31468750Y20550000D02*
X30531250Y20550000D01*
X30464928Y20558732D01*
X30403125Y20584331D01*
X30350054Y20625054D01*
X30309331Y20678125D01*
X30283732Y20739928D01*
X30275000Y20806250D01*
X30275000Y21318750D01*
X30283732Y21385072D01*
X30309331Y21446875D01*
X30350054Y21499946D01*
X30403125Y21540669D01*
X30464928Y21566268D01*
X30531250Y21575000D01*
X31468750Y21575000D01*
X31535072Y21566268D01*
X31596875Y21540669D01*
X31649946Y21499946D01*
X31690669Y21446875D01*
X31716268Y21385072D01*
X31725000Y21318750D01*
X31725000Y20806250D01*
X31716268Y20739928D01*
X31690669Y20678125D01*
X31649946Y20625054D01*
X31596875Y20584331D01*
X31535072Y20558732D01*
X31468750Y20550000D01*
G37*
%LPD*%
%LPD*%
G36*
X31468750Y22425000D02*
X30531250Y22425000D01*
X30464928Y22433732D01*
X30403125Y22459331D01*
X30350054Y22500054D01*
X30309331Y22553125D01*
X30283732Y22614928D01*
X30275000Y22681250D01*
X30275000Y23193750D01*
X30283732Y23260072D01*
X30309331Y23321875D01*
X30350054Y23374946D01*
X30403125Y23415669D01*
X30464928Y23441268D01*
X30531250Y23450000D01*
X31468750Y23450000D01*
X31535072Y23441268D01*
X31596875Y23415669D01*
X31649946Y23374946D01*
X31690669Y23321875D01*
X31716268Y23260072D01*
X31725000Y23193750D01*
X31725000Y22681250D01*
X31716268Y22614928D01*
X31690669Y22553125D01*
X31649946Y22500054D01*
X31596875Y22459331D01*
X31535072Y22433732D01*
X31468750Y22425000D01*
G37*
%LPD*%
%LPD*%
G36*
X19468750Y11550000D02*
X18531250Y11550000D01*
X18464928Y11558732D01*
X18403125Y11584331D01*
X18350054Y11625054D01*
X18309331Y11678125D01*
X18283732Y11739928D01*
X18275000Y11806250D01*
X18275000Y12318750D01*
X18283732Y12385072D01*
X18309331Y12446875D01*
X18350054Y12499946D01*
X18403125Y12540669D01*
X18464928Y12566268D01*
X18531250Y12575000D01*
X19468750Y12575000D01*
X19535072Y12566268D01*
X19596875Y12540669D01*
X19649946Y12499946D01*
X19690669Y12446875D01*
X19716268Y12385072D01*
X19725000Y12318750D01*
X19725000Y11806250D01*
X19716268Y11739928D01*
X19690669Y11678125D01*
X19649946Y11625054D01*
X19596875Y11584331D01*
X19535072Y11558732D01*
X19468750Y11550000D01*
G37*
%LPD*%
%LPD*%
G36*
X19468750Y13425000D02*
X18531250Y13425000D01*
X18464928Y13433732D01*
X18403125Y13459331D01*
X18350054Y13500054D01*
X18309331Y13553125D01*
X18283732Y13614928D01*
X18275000Y13681250D01*
X18275000Y14193750D01*
X18283732Y14260072D01*
X18309331Y14321875D01*
X18350054Y14374946D01*
X18403125Y14415669D01*
X18464928Y14441268D01*
X18531250Y14450000D01*
X19468750Y14450000D01*
X19535072Y14441268D01*
X19596875Y14415669D01*
X19649946Y14374946D01*
X19690669Y14321875D01*
X19716268Y14260072D01*
X19725000Y14193750D01*
X19725000Y13681250D01*
X19716268Y13614928D01*
X19690669Y13553125D01*
X19649946Y13500054D01*
X19596875Y13459331D01*
X19535072Y13433732D01*
X19468750Y13425000D01*
G37*
%LPD*%
%LPD*%
G36*
X16812500Y4100000D02*
X16237500Y4100000D01*
X16163090Y4109796D01*
X16093750Y4138518D01*
X16034207Y4184207D01*
X15988518Y4243750D01*
X15959796Y4313090D01*
X15950000Y4387500D01*
X15950000Y5612500D01*
X15959796Y5686910D01*
X15988518Y5756250D01*
X16034207Y5815793D01*
X16093750Y5861482D01*
X16163090Y5890204D01*
X16237500Y5900000D01*
X16812500Y5900000D01*
X16886910Y5890204D01*
X16956250Y5861482D01*
X17015793Y5815793D01*
X17061482Y5756250D01*
X17090204Y5686910D01*
X17100000Y5612500D01*
X17100000Y4387500D01*
X17090204Y4313090D01*
X17061482Y4243750D01*
X17015793Y4184207D01*
X16956250Y4138518D01*
X16886910Y4109796D01*
X16812500Y4100000D01*
G37*
%LPD*%
%LPD*%
G36*
X19762500Y4100000D02*
X19187500Y4100000D01*
X19113090Y4109796D01*
X19043750Y4138518D01*
X18984207Y4184207D01*
X18938518Y4243750D01*
X18909796Y4313090D01*
X18900000Y4387500D01*
X18900000Y5612500D01*
X18909796Y5686910D01*
X18938518Y5756250D01*
X18984207Y5815793D01*
X19043750Y5861482D01*
X19113090Y5890204D01*
X19187500Y5900000D01*
X19762500Y5900000D01*
X19836910Y5890204D01*
X19906250Y5861482D01*
X19965793Y5815793D01*
X20011482Y5756250D01*
X20040204Y5686910D01*
X20050000Y5612500D01*
X20050000Y4387500D01*
X20040204Y4313090D01*
X20011482Y4243750D01*
X19965793Y4184207D01*
X19906250Y4138518D01*
X19836910Y4109796D01*
X19762500Y4100000D01*
G37*
%LPD*%
%LPD*%
G36*
X30812500Y4100000D02*
X30237500Y4100000D01*
X30163090Y4109796D01*
X30093750Y4138518D01*
X30034207Y4184207D01*
X29988518Y4243750D01*
X29959796Y4313090D01*
X29950000Y4387500D01*
X29950000Y5612500D01*
X29959796Y5686910D01*
X29988518Y5756250D01*
X30034207Y5815793D01*
X30093750Y5861482D01*
X30163090Y5890204D01*
X30237500Y5900000D01*
X30812500Y5900000D01*
X30886910Y5890204D01*
X30956250Y5861482D01*
X31015793Y5815793D01*
X31061482Y5756250D01*
X31090204Y5686910D01*
X31100000Y5612500D01*
X31100000Y4387500D01*
X31090204Y4313090D01*
X31061482Y4243750D01*
X31015793Y4184207D01*
X30956250Y4138518D01*
X30886910Y4109796D01*
X30812500Y4100000D01*
G37*
%LPD*%
%LPD*%
G36*
X33762500Y4100000D02*
X33187500Y4100000D01*
X33113090Y4109796D01*
X33043750Y4138518D01*
X32984207Y4184207D01*
X32938518Y4243750D01*
X32909796Y4313090D01*
X32900000Y4387500D01*
X32900000Y5612500D01*
X32909796Y5686910D01*
X32938518Y5756250D01*
X32984207Y5815793D01*
X33043750Y5861482D01*
X33113090Y5890204D01*
X33187500Y5900000D01*
X33762500Y5900000D01*
X33836910Y5890204D01*
X33906250Y5861482D01*
X33965793Y5815793D01*
X34011482Y5756250D01*
X34040204Y5686910D01*
X34050000Y5612500D01*
X34050000Y4387500D01*
X34040204Y4313090D01*
X34011482Y4243750D01*
X33965793Y4184207D01*
X33906250Y4138518D01*
X33836910Y4109796D01*
X33762500Y4100000D01*
G37*
%LPD*%
M02*
