G04 Nyquist Labs eelab.pcb*
%TF.FileFunction,Soldermask,Top*%
%TF.FilePolarity,Negative*%
%FSLAX46Y46*%
%MOMM*%
%LPD*%
%ADD10R,1.8000X1.8000*%
%ADD11C,1.8000*%
%ADD12C,3.3000*%
G01*
%LPD*%
G36*
X23375000Y19555000D02*
X21675000Y19555000D01*
X21629707Y19560963D01*
X21587500Y19578446D01*
X21551256Y19606256D01*
X21523446Y19642500D01*
X21505963Y19684707D01*
X21500000Y19730000D01*
X21500000Y20080000D01*
X21505963Y20125293D01*
X21523446Y20167500D01*
X21551256Y20203744D01*
X21587500Y20231554D01*
X21629707Y20249037D01*
X21675000Y20255000D01*
X23375000Y20255000D01*
X23420293Y20249037D01*
X23462500Y20231554D01*
X23498744Y20203744D01*
X23526554Y20167500D01*
X23544037Y20125293D01*
X23550000Y20080000D01*
X23550000Y19730000D01*
X23544037Y19684707D01*
X23526554Y19642500D01*
X23498744Y19606256D01*
X23462500Y19578446D01*
X23420293Y19560963D01*
X23375000Y19555000D01*
G37*
%LPD*%
%LPD*%
G36*
X23375000Y18285000D02*
X21675000Y18285000D01*
X21629707Y18290963D01*
X21587500Y18308446D01*
X21551256Y18336256D01*
X21523446Y18372500D01*
X21505963Y18414707D01*
X21500000Y18460000D01*
X21500000Y18810000D01*
X21505963Y18855293D01*
X21523446Y18897500D01*
X21551256Y18933744D01*
X21587500Y18961554D01*
X21629707Y18979037D01*
X21675000Y18985000D01*
X23375000Y18985000D01*
X23420293Y18979037D01*
X23462500Y18961554D01*
X23498744Y18933744D01*
X23526554Y18897500D01*
X23544037Y18855293D01*
X23550000Y18810000D01*
X23550000Y18460000D01*
X23544037Y18414707D01*
X23526554Y18372500D01*
X23498744Y18336256D01*
X23462500Y18308446D01*
X23420293Y18290963D01*
X23375000Y18285000D01*
G37*
%LPD*%
%LPD*%
G36*
X23375000Y17015000D02*
X21675000Y17015000D01*
X21629707Y17020963D01*
X21587500Y17038446D01*
X21551256Y17066256D01*
X21523446Y17102500D01*
X21505963Y17144707D01*
X21500000Y17190000D01*
X21500000Y17540000D01*
X21505963Y17585293D01*
X21523446Y17627500D01*
X21551256Y17663744D01*
X21587500Y17691554D01*
X21629707Y17709037D01*
X21675000Y17715000D01*
X23375000Y17715000D01*
X23420293Y17709037D01*
X23462500Y17691554D01*
X23498744Y17663744D01*
X23526554Y17627500D01*
X23544037Y17585293D01*
X23550000Y17540000D01*
X23550000Y17190000D01*
X23544037Y17144707D01*
X23526554Y17102500D01*
X23498744Y17066256D01*
X23462500Y17038446D01*
X23420293Y17020963D01*
X23375000Y17015000D01*
G37*
%LPD*%
%LPD*%
G36*
X23375000Y15745000D02*
X21675000Y15745000D01*
X21629707Y15750963D01*
X21587500Y15768446D01*
X21551256Y15796256D01*
X21523446Y15832500D01*
X21505963Y15874707D01*
X21500000Y15920000D01*
X21500000Y16270000D01*
X21505963Y16315293D01*
X21523446Y16357500D01*
X21551256Y16393744D01*
X21587500Y16421554D01*
X21629707Y16439037D01*
X21675000Y16445000D01*
X23375000Y16445000D01*
X23420293Y16439037D01*
X23462500Y16421554D01*
X23498744Y16393744D01*
X23526554Y16357500D01*
X23544037Y16315293D01*
X23550000Y16270000D01*
X23550000Y15920000D01*
X23544037Y15874707D01*
X23526554Y15832500D01*
X23498744Y15796256D01*
X23462500Y15768446D01*
X23420293Y15750963D01*
X23375000Y15745000D01*
G37*
%LPD*%
%LPD*%
G36*
X28325000Y15745000D02*
X26625000Y15745000D01*
X26579707Y15750963D01*
X26537500Y15768446D01*
X26501256Y15796256D01*
X26473446Y15832500D01*
X26455963Y15874707D01*
X26450000Y15920000D01*
X26450000Y16270000D01*
X26455963Y16315293D01*
X26473446Y16357500D01*
X26501256Y16393744D01*
X26537500Y16421554D01*
X26579707Y16439037D01*
X26625000Y16445000D01*
X28325000Y16445000D01*
X28370293Y16439037D01*
X28412500Y16421554D01*
X28448744Y16393744D01*
X28476554Y16357500D01*
X28494037Y16315293D01*
X28500000Y16270000D01*
X28500000Y15920000D01*
X28494037Y15874707D01*
X28476554Y15832500D01*
X28448744Y15796256D01*
X28412500Y15768446D01*
X28370293Y15750963D01*
X28325000Y15745000D01*
G37*
%LPD*%
%LPD*%
G36*
X28325000Y17015000D02*
X26625000Y17015000D01*
X26579707Y17020963D01*
X26537500Y17038446D01*
X26501256Y17066256D01*
X26473446Y17102500D01*
X26455963Y17144707D01*
X26450000Y17190000D01*
X26450000Y17540000D01*
X26455963Y17585293D01*
X26473446Y17627500D01*
X26501256Y17663744D01*
X26537500Y17691554D01*
X26579707Y17709037D01*
X26625000Y17715000D01*
X28325000Y17715000D01*
X28370293Y17709037D01*
X28412500Y17691554D01*
X28448744Y17663744D01*
X28476554Y17627500D01*
X28494037Y17585293D01*
X28500000Y17540000D01*
X28500000Y17190000D01*
X28494037Y17144707D01*
X28476554Y17102500D01*
X28448744Y17066256D01*
X28412500Y17038446D01*
X28370293Y17020963D01*
X28325000Y17015000D01*
G37*
%LPD*%
%LPD*%
G36*
X28325000Y18285000D02*
X26625000Y18285000D01*
X26579707Y18290963D01*
X26537500Y18308446D01*
X26501256Y18336256D01*
X26473446Y18372500D01*
X26455963Y18414707D01*
X26450000Y18460000D01*
X26450000Y18810000D01*
X26455963Y18855293D01*
X26473446Y18897500D01*
X26501256Y18933744D01*
X26537500Y18961554D01*
X26579707Y18979037D01*
X26625000Y18985000D01*
X28325000Y18985000D01*
X28370293Y18979037D01*
X28412500Y18961554D01*
X28448744Y18933744D01*
X28476554Y18897500D01*
X28494037Y18855293D01*
X28500000Y18810000D01*
X28500000Y18460000D01*
X28494037Y18414707D01*
X28476554Y18372500D01*
X28448744Y18336256D01*
X28412500Y18308446D01*
X28370293Y18290963D01*
X28325000Y18285000D01*
G37*
%LPD*%
%LPD*%
G36*
X28325000Y19555000D02*
X26625000Y19555000D01*
X26579707Y19560963D01*
X26537500Y19578446D01*
X26501256Y19606256D01*
X26473446Y19642500D01*
X26455963Y19684707D01*
X26450000Y19730000D01*
X26450000Y20080000D01*
X26455963Y20125293D01*
X26473446Y20167500D01*
X26501256Y20203744D01*
X26537500Y20231554D01*
X26579707Y20249037D01*
X26625000Y20255000D01*
X28325000Y20255000D01*
X28370293Y20249037D01*
X28412500Y20231554D01*
X28448744Y20203744D01*
X28476554Y20167500D01*
X28494037Y20125293D01*
X28500000Y20080000D01*
X28500000Y19730000D01*
X28494037Y19684707D01*
X28476554Y19642500D01*
X28448744Y19606256D01*
X28412500Y19578446D01*
X28370293Y19560963D01*
X28325000Y19555000D01*
G37*
%LPD*%
D10*
X5000000Y15460000D03*
D11*
X5000000Y18000000D03*
D11*
X5000000Y20540000D03*
D10*
X45000000Y15460000D03*
D11*
X45000000Y18000000D03*
D11*
X45000000Y20540000D03*
D10*
X22460000Y5000000D03*
D11*
X25000000Y5000000D03*
D11*
X27540000Y5000000D03*
D12*
X3500000Y3500000D03*
D12*
X46500000Y3500000D03*
D12*
X3500000Y32500000D03*
D12*
X46500000Y32500000D03*
%LPD*%
G36*
X11343750Y21225000D02*
X10781250Y21225000D01*
X10708457Y21234583D01*
X10640625Y21262680D01*
X10582376Y21307376D01*
X10537680Y21365625D01*
X10509583Y21433457D01*
X10500000Y21506250D01*
X10500000Y22493750D01*
X10509583Y22566543D01*
X10537680Y22634375D01*
X10582376Y22692624D01*
X10640625Y22737320D01*
X10708457Y22765417D01*
X10781250Y22775000D01*
X11343750Y22775000D01*
X11416543Y22765417D01*
X11484375Y22737320D01*
X11542624Y22692624D01*
X11587320Y22634375D01*
X11615417Y22566543D01*
X11625000Y22493750D01*
X11625000Y21506250D01*
X11615417Y21433457D01*
X11587320Y21365625D01*
X11542624Y21307376D01*
X11484375Y21262680D01*
X11416543Y21234583D01*
X11343750Y21225000D01*
G37*
%LPD*%
%LPD*%
G36*
X13218750Y21225000D02*
X12656250Y21225000D01*
X12583457Y21234583D01*
X12515625Y21262680D01*
X12457376Y21307376D01*
X12412680Y21365625D01*
X12384583Y21433457D01*
X12375000Y21506250D01*
X12375000Y22493750D01*
X12384583Y22566543D01*
X12412680Y22634375D01*
X12457376Y22692624D01*
X12515625Y22737320D01*
X12583457Y22765417D01*
X12656250Y22775000D01*
X13218750Y22775000D01*
X13291543Y22765417D01*
X13359375Y22737320D01*
X13417624Y22692624D01*
X13462320Y22634375D01*
X13490417Y22566543D01*
X13500000Y22493750D01*
X13500000Y21506250D01*
X13490417Y21433457D01*
X13462320Y21365625D01*
X13417624Y21307376D01*
X13359375Y21262680D01*
X13291543Y21234583D01*
X13218750Y21225000D01*
G37*
%LPD*%
%LPD*%
G36*
X15493750Y24500000D02*
X14506250Y24500000D01*
X14433457Y24509583D01*
X14365625Y24537680D01*
X14307376Y24582376D01*
X14262680Y24640625D01*
X14234583Y24708457D01*
X14225000Y24781250D01*
X14225000Y25343750D01*
X14234583Y25416543D01*
X14262680Y25484375D01*
X14307376Y25542624D01*
X14365625Y25587320D01*
X14433457Y25615417D01*
X14506250Y25625000D01*
X15493750Y25625000D01*
X15566543Y25615417D01*
X15634375Y25587320D01*
X15692624Y25542624D01*
X15737320Y25484375D01*
X15765417Y25416543D01*
X15775000Y25343750D01*
X15775000Y24781250D01*
X15765417Y24708457D01*
X15737320Y24640625D01*
X15692624Y24582376D01*
X15634375Y24537680D01*
X15566543Y24509583D01*
X15493750Y24500000D01*
G37*
%LPD*%
%LPD*%
G36*
X15493750Y26375000D02*
X14506250Y26375000D01*
X14433457Y26384583D01*
X14365625Y26412680D01*
X14307376Y26457376D01*
X14262680Y26515625D01*
X14234583Y26583457D01*
X14225000Y26656250D01*
X14225000Y27218750D01*
X14234583Y27291543D01*
X14262680Y27359375D01*
X14307376Y27417624D01*
X14365625Y27462320D01*
X14433457Y27490417D01*
X14506250Y27500000D01*
X15493750Y27500000D01*
X15566543Y27490417D01*
X15634375Y27462320D01*
X15692624Y27417624D01*
X15737320Y27359375D01*
X15765417Y27291543D01*
X15775000Y27218750D01*
X15775000Y26656250D01*
X15765417Y26583457D01*
X15737320Y26515625D01*
X15692624Y26457376D01*
X15634375Y26412680D01*
X15566543Y26384583D01*
X15493750Y26375000D01*
G37*
%LPD*%
%LPD*%
G36*
X19493750Y24500000D02*
X18506250Y24500000D01*
X18433457Y24509583D01*
X18365625Y24537680D01*
X18307376Y24582376D01*
X18262680Y24640625D01*
X18234583Y24708457D01*
X18225000Y24781250D01*
X18225000Y25343750D01*
X18234583Y25416543D01*
X18262680Y25484375D01*
X18307376Y25542624D01*
X18365625Y25587320D01*
X18433457Y25615417D01*
X18506250Y25625000D01*
X19493750Y25625000D01*
X19566543Y25615417D01*
X19634375Y25587320D01*
X19692624Y25542624D01*
X19737320Y25484375D01*
X19765417Y25416543D01*
X19775000Y25343750D01*
X19775000Y24781250D01*
X19765417Y24708457D01*
X19737320Y24640625D01*
X19692624Y24582376D01*
X19634375Y24537680D01*
X19566543Y24509583D01*
X19493750Y24500000D01*
G37*
%LPD*%
%LPD*%
G36*
X19493750Y26375000D02*
X18506250Y26375000D01*
X18433457Y26384583D01*
X18365625Y26412680D01*
X18307376Y26457376D01*
X18262680Y26515625D01*
X18234583Y26583457D01*
X18225000Y26656250D01*
X18225000Y27218750D01*
X18234583Y27291543D01*
X18262680Y27359375D01*
X18307376Y27417624D01*
X18365625Y27462320D01*
X18433457Y27490417D01*
X18506250Y27500000D01*
X19493750Y27500000D01*
X19566543Y27490417D01*
X19634375Y27462320D01*
X19692624Y27417624D01*
X19737320Y27359375D01*
X19765417Y27291543D01*
X19775000Y27218750D01*
X19775000Y26656250D01*
X19765417Y26583457D01*
X19737320Y26515625D01*
X19692624Y26457376D01*
X19634375Y26412680D01*
X19566543Y26384583D01*
X19493750Y26375000D01*
G37*
%LPD*%
%LPD*%
G36*
X21343750Y28225000D02*
X20781250Y28225000D01*
X20708457Y28234583D01*
X20640625Y28262680D01*
X20582376Y28307376D01*
X20537680Y28365625D01*
X20509583Y28433457D01*
X20500000Y28506250D01*
X20500000Y29493750D01*
X20509583Y29566543D01*
X20537680Y29634375D01*
X20582376Y29692624D01*
X20640625Y29737320D01*
X20708457Y29765417D01*
X20781250Y29775000D01*
X21343750Y29775000D01*
X21416543Y29765417D01*
X21484375Y29737320D01*
X21542624Y29692624D01*
X21587320Y29634375D01*
X21615417Y29566543D01*
X21625000Y29493750D01*
X21625000Y28506250D01*
X21615417Y28433457D01*
X21587320Y28365625D01*
X21542624Y28307376D01*
X21484375Y28262680D01*
X21416543Y28234583D01*
X21343750Y28225000D01*
G37*
%LPD*%
%LPD*%
G36*
X23218750Y28225000D02*
X22656250Y28225000D01*
X22583457Y28234583D01*
X22515625Y28262680D01*
X22457376Y28307376D01*
X22412680Y28365625D01*
X22384583Y28433457D01*
X22375000Y28506250D01*
X22375000Y29493750D01*
X22384583Y29566543D01*
X22412680Y29634375D01*
X22457376Y29692624D01*
X22515625Y29737320D01*
X22583457Y29765417D01*
X22656250Y29775000D01*
X23218750Y29775000D01*
X23291543Y29765417D01*
X23359375Y29737320D01*
X23417624Y29692624D01*
X23462320Y29634375D01*
X23490417Y29566543D01*
X23500000Y29493750D01*
X23500000Y28506250D01*
X23490417Y28433457D01*
X23462320Y28365625D01*
X23417624Y28307376D01*
X23359375Y28262680D01*
X23291543Y28234583D01*
X23218750Y28225000D01*
G37*
%LPD*%
%LPD*%
G36*
X29343750Y28225000D02*
X28781250Y28225000D01*
X28708457Y28234583D01*
X28640625Y28262680D01*
X28582376Y28307376D01*
X28537680Y28365625D01*
X28509583Y28433457D01*
X28500000Y28506250D01*
X28500000Y29493750D01*
X28509583Y29566543D01*
X28537680Y29634375D01*
X28582376Y29692624D01*
X28640625Y29737320D01*
X28708457Y29765417D01*
X28781250Y29775000D01*
X29343750Y29775000D01*
X29416543Y29765417D01*
X29484375Y29737320D01*
X29542624Y29692624D01*
X29587320Y29634375D01*
X29615417Y29566543D01*
X29625000Y29493750D01*
X29625000Y28506250D01*
X29615417Y28433457D01*
X29587320Y28365625D01*
X29542624Y28307376D01*
X29484375Y28262680D01*
X29416543Y28234583D01*
X29343750Y28225000D01*
G37*
%LPD*%
%LPD*%
G36*
X31218750Y28225000D02*
X30656250Y28225000D01*
X30583457Y28234583D01*
X30515625Y28262680D01*
X30457376Y28307376D01*
X30412680Y28365625D01*
X30384583Y28433457D01*
X30375000Y28506250D01*
X30375000Y29493750D01*
X30384583Y29566543D01*
X30412680Y29634375D01*
X30457376Y29692624D01*
X30515625Y29737320D01*
X30583457Y29765417D01*
X30656250Y29775000D01*
X31218750Y29775000D01*
X31291543Y29765417D01*
X31359375Y29737320D01*
X31417624Y29692624D01*
X31462320Y29634375D01*
X31490417Y29566543D01*
X31500000Y29493750D01*
X31500000Y28506250D01*
X31490417Y28433457D01*
X31462320Y28365625D01*
X31417624Y28307376D01*
X31359375Y28262680D01*
X31291543Y28234583D01*
X31218750Y28225000D01*
G37*
%LPD*%
%LPD*%
G36*
X11343750Y12225000D02*
X10781250Y12225000D01*
X10708457Y12234583D01*
X10640625Y12262680D01*
X10582376Y12307376D01*
X10537680Y12365625D01*
X10509583Y12433457D01*
X10500000Y12506250D01*
X10500000Y13493750D01*
X10509583Y13566543D01*
X10537680Y13634375D01*
X10582376Y13692624D01*
X10640625Y13737320D01*
X10708457Y13765417D01*
X10781250Y13775000D01*
X11343750Y13775000D01*
X11416543Y13765417D01*
X11484375Y13737320D01*
X11542624Y13692624D01*
X11587320Y13634375D01*
X11615417Y13566543D01*
X11625000Y13493750D01*
X11625000Y12506250D01*
X11615417Y12433457D01*
X11587320Y12365625D01*
X11542624Y12307376D01*
X11484375Y12262680D01*
X11416543Y12234583D01*
X11343750Y12225000D01*
G37*
%LPD*%
%LPD*%
G36*
X13218750Y12225000D02*
X12656250Y12225000D01*
X12583457Y12234583D01*
X12515625Y12262680D01*
X12457376Y12307376D01*
X12412680Y12365625D01*
X12384583Y12433457D01*
X12375000Y12506250D01*
X12375000Y13493750D01*
X12384583Y13566543D01*
X12412680Y13634375D01*
X12457376Y13692624D01*
X12515625Y13737320D01*
X12583457Y13765417D01*
X12656250Y13775000D01*
X13218750Y13775000D01*
X13291543Y13765417D01*
X13359375Y13737320D01*
X13417624Y13692624D01*
X13462320Y13634375D01*
X13490417Y13566543D01*
X13500000Y13493750D01*
X13500000Y12506250D01*
X13490417Y12433457D01*
X13462320Y12365625D01*
X13417624Y12307376D01*
X13359375Y12262680D01*
X13291543Y12234583D01*
X13218750Y12225000D01*
G37*
%LPD*%
%LPD*%
G36*
X15493750Y7500000D02*
X14506250Y7500000D01*
X14433457Y7509583D01*
X14365625Y7537680D01*
X14307376Y7582376D01*
X14262680Y7640625D01*
X14234583Y7708457D01*
X14225000Y7781250D01*
X14225000Y8343750D01*
X14234583Y8416543D01*
X14262680Y8484375D01*
X14307376Y8542624D01*
X14365625Y8587320D01*
X14433457Y8615417D01*
X14506250Y8625000D01*
X15493750Y8625000D01*
X15566543Y8615417D01*
X15634375Y8587320D01*
X15692624Y8542624D01*
X15737320Y8484375D01*
X15765417Y8416543D01*
X15775000Y8343750D01*
X15775000Y7781250D01*
X15765417Y7708457D01*
X15737320Y7640625D01*
X15692624Y7582376D01*
X15634375Y7537680D01*
X15566543Y7509583D01*
X15493750Y7500000D01*
G37*
%LPD*%
%LPD*%
G36*
X15493750Y9375000D02*
X14506250Y9375000D01*
X14433457Y9384583D01*
X14365625Y9412680D01*
X14307376Y9457376D01*
X14262680Y9515625D01*
X14234583Y9583457D01*
X14225000Y9656250D01*
X14225000Y10218750D01*
X14234583Y10291543D01*
X14262680Y10359375D01*
X14307376Y10417624D01*
X14365625Y10462320D01*
X14433457Y10490417D01*
X14506250Y10500000D01*
X15493750Y10500000D01*
X15566543Y10490417D01*
X15634375Y10462320D01*
X15692624Y10417624D01*
X15737320Y10359375D01*
X15765417Y10291543D01*
X15775000Y10218750D01*
X15775000Y9656250D01*
X15765417Y9583457D01*
X15737320Y9515625D01*
X15692624Y9457376D01*
X15634375Y9412680D01*
X15566543Y9384583D01*
X15493750Y9375000D01*
G37*
%LPD*%
%LPD*%
G36*
X33493750Y10500000D02*
X32506250Y10500000D01*
X32433457Y10509583D01*
X32365625Y10537680D01*
X32307376Y10582376D01*
X32262680Y10640625D01*
X32234583Y10708457D01*
X32225000Y10781250D01*
X32225000Y11343750D01*
X32234583Y11416543D01*
X32262680Y11484375D01*
X32307376Y11542624D01*
X32365625Y11587320D01*
X32433457Y11615417D01*
X32506250Y11625000D01*
X33493750Y11625000D01*
X33566543Y11615417D01*
X33634375Y11587320D01*
X33692624Y11542624D01*
X33737320Y11484375D01*
X33765417Y11416543D01*
X33775000Y11343750D01*
X33775000Y10781250D01*
X33765417Y10708457D01*
X33737320Y10640625D01*
X33692624Y10582376D01*
X33634375Y10537680D01*
X33566543Y10509583D01*
X33493750Y10500000D01*
G37*
%LPD*%
%LPD*%
G36*
X33493750Y12375000D02*
X32506250Y12375000D01*
X32433457Y12384583D01*
X32365625Y12412680D01*
X32307376Y12457376D01*
X32262680Y12515625D01*
X32234583Y12583457D01*
X32225000Y12656250D01*
X32225000Y13218750D01*
X32234583Y13291543D01*
X32262680Y13359375D01*
X32307376Y13417624D01*
X32365625Y13462320D01*
X32433457Y13490417D01*
X32506250Y13500000D01*
X33493750Y13500000D01*
X33566543Y13490417D01*
X33634375Y13462320D01*
X33692624Y13417624D01*
X33737320Y13359375D01*
X33765417Y13291543D01*
X33775000Y13218750D01*
X33775000Y12656250D01*
X33765417Y12583457D01*
X33737320Y12515625D01*
X33692624Y12457376D01*
X33634375Y12412680D01*
X33566543Y12384583D01*
X33493750Y12375000D01*
G37*
%LPD*%
%LPD*%
G36*
X36493750Y14500000D02*
X35506250Y14500000D01*
X35433457Y14509583D01*
X35365625Y14537680D01*
X35307376Y14582376D01*
X35262680Y14640625D01*
X35234583Y14708457D01*
X35225000Y14781250D01*
X35225000Y15343750D01*
X35234583Y15416543D01*
X35262680Y15484375D01*
X35307376Y15542624D01*
X35365625Y15587320D01*
X35433457Y15615417D01*
X35506250Y15625000D01*
X36493750Y15625000D01*
X36566543Y15615417D01*
X36634375Y15587320D01*
X36692624Y15542624D01*
X36737320Y15484375D01*
X36765417Y15416543D01*
X36775000Y15343750D01*
X36775000Y14781250D01*
X36765417Y14708457D01*
X36737320Y14640625D01*
X36692624Y14582376D01*
X36634375Y14537680D01*
X36566543Y14509583D01*
X36493750Y14500000D01*
G37*
%LPD*%
%LPD*%
G36*
X36493750Y16375000D02*
X35506250Y16375000D01*
X35433457Y16384583D01*
X35365625Y16412680D01*
X35307376Y16457376D01*
X35262680Y16515625D01*
X35234583Y16583457D01*
X35225000Y16656250D01*
X35225000Y17218750D01*
X35234583Y17291543D01*
X35262680Y17359375D01*
X35307376Y17417624D01*
X35365625Y17462320D01*
X35433457Y17490417D01*
X35506250Y17500000D01*
X36493750Y17500000D01*
X36566543Y17490417D01*
X36634375Y17462320D01*
X36692624Y17417624D01*
X36737320Y17359375D01*
X36765417Y17291543D01*
X36775000Y17218750D01*
X36775000Y16656250D01*
X36765417Y16583457D01*
X36737320Y16515625D01*
X36692624Y16457376D01*
X36634375Y16412680D01*
X36566543Y16384583D01*
X36493750Y16375000D01*
G37*
%LPD*%
%LPD*%
G36*
X37343750Y10225000D02*
X36781250Y10225000D01*
X36708457Y10234583D01*
X36640625Y10262680D01*
X36582376Y10307376D01*
X36537680Y10365625D01*
X36509583Y10433457D01*
X36500000Y10506250D01*
X36500000Y11493750D01*
X36509583Y11566543D01*
X36537680Y11634375D01*
X36582376Y11692624D01*
X36640625Y11737320D01*
X36708457Y11765417D01*
X36781250Y11775000D01*
X37343750Y11775000D01*
X37416543Y11765417D01*
X37484375Y11737320D01*
X37542624Y11692624D01*
X37587320Y11634375D01*
X37615417Y11566543D01*
X37625000Y11493750D01*
X37625000Y10506250D01*
X37615417Y10433457D01*
X37587320Y10365625D01*
X37542624Y10307376D01*
X37484375Y10262680D01*
X37416543Y10234583D01*
X37343750Y10225000D01*
G37*
%LPD*%
%LPD*%
G36*
X39218750Y10225000D02*
X38656250Y10225000D01*
X38583457Y10234583D01*
X38515625Y10262680D01*
X38457376Y10307376D01*
X38412680Y10365625D01*
X38384583Y10433457D01*
X38375000Y10506250D01*
X38375000Y11493750D01*
X38384583Y11566543D01*
X38412680Y11634375D01*
X38457376Y11692624D01*
X38515625Y11737320D01*
X38583457Y11765417D01*
X38656250Y11775000D01*
X39218750Y11775000D01*
X39291543Y11765417D01*
X39359375Y11737320D01*
X39417624Y11692624D01*
X39462320Y11634375D01*
X39490417Y11566543D01*
X39500000Y11493750D01*
X39500000Y10506250D01*
X39490417Y10433457D01*
X39462320Y10365625D01*
X39417624Y10307376D01*
X39359375Y10262680D01*
X39291543Y10234583D01*
X39218750Y10225000D01*
G37*
%LPD*%
%LPD*%
G36*
X31493750Y20500000D02*
X30506250Y20500000D01*
X30433457Y20509583D01*
X30365625Y20537680D01*
X30307376Y20582376D01*
X30262680Y20640625D01*
X30234583Y20708457D01*
X30225000Y20781250D01*
X30225000Y21343750D01*
X30234583Y21416543D01*
X30262680Y21484375D01*
X30307376Y21542624D01*
X30365625Y21587320D01*
X30433457Y21615417D01*
X30506250Y21625000D01*
X31493750Y21625000D01*
X31566543Y21615417D01*
X31634375Y21587320D01*
X31692624Y21542624D01*
X31737320Y21484375D01*
X31765417Y21416543D01*
X31775000Y21343750D01*
X31775000Y20781250D01*
X31765417Y20708457D01*
X31737320Y20640625D01*
X31692624Y20582376D01*
X31634375Y20537680D01*
X31566543Y20509583D01*
X31493750Y20500000D01*
G37*
%LPD*%
%LPD*%
G36*
X31493750Y22375000D02*
X30506250Y22375000D01*
X30433457Y22384583D01*
X30365625Y22412680D01*
X30307376Y22457376D01*
X30262680Y22515625D01*
X30234583Y22583457D01*
X30225000Y22656250D01*
X30225000Y23218750D01*
X30234583Y23291543D01*
X30262680Y23359375D01*
X30307376Y23417624D01*
X30365625Y23462320D01*
X30433457Y23490417D01*
X30506250Y23500000D01*
X31493750Y23500000D01*
X31566543Y23490417D01*
X31634375Y23462320D01*
X31692624Y23417624D01*
X31737320Y23359375D01*
X31765417Y23291543D01*
X31775000Y23218750D01*
X31775000Y22656250D01*
X31765417Y22583457D01*
X31737320Y22515625D01*
X31692624Y22457376D01*
X31634375Y22412680D01*
X31566543Y22384583D01*
X31493750Y22375000D01*
G37*
%LPD*%
%LPD*%
G36*
X19493750Y11500000D02*
X18506250Y11500000D01*
X18433457Y11509583D01*
X18365625Y11537680D01*
X18307376Y11582376D01*
X18262680Y11640625D01*
X18234583Y11708457D01*
X18225000Y11781250D01*
X18225000Y12343750D01*
X18234583Y12416543D01*
X18262680Y12484375D01*
X18307376Y12542624D01*
X18365625Y12587320D01*
X18433457Y12615417D01*
X18506250Y12625000D01*
X19493750Y12625000D01*
X19566543Y12615417D01*
X19634375Y12587320D01*
X19692624Y12542624D01*
X19737320Y12484375D01*
X19765417Y12416543D01*
X19775000Y12343750D01*
X19775000Y11781250D01*
X19765417Y11708457D01*
X19737320Y11640625D01*
X19692624Y11582376D01*
X19634375Y11537680D01*
X19566543Y11509583D01*
X19493750Y11500000D01*
G37*
%LPD*%
%LPD*%
G36*
X19493750Y13375000D02*
X18506250Y13375000D01*
X18433457Y13384583D01*
X18365625Y13412680D01*
X18307376Y13457376D01*
X18262680Y13515625D01*
X18234583Y13583457D01*
X18225000Y13656250D01*
X18225000Y14218750D01*
X18234583Y14291543D01*
X18262680Y14359375D01*
X18307376Y14417624D01*
X18365625Y14462320D01*
X18433457Y14490417D01*
X18506250Y14500000D01*
X19493750Y14500000D01*
X19566543Y14490417D01*
X19634375Y14462320D01*
X19692624Y14417624D01*
X19737320Y14359375D01*
X19765417Y14291543D01*
X19775000Y14218750D01*
X19775000Y13656250D01*
X19765417Y13583457D01*
X19737320Y13515625D01*
X19692624Y13457376D01*
X19634375Y13412680D01*
X19566543Y13384583D01*
X19493750Y13375000D01*
G37*
%LPD*%
%LPD*%
G36*
X16837500Y4050000D02*
X16212500Y4050000D01*
X16131619Y4060648D01*
X16056250Y4091867D01*
X15991529Y4141529D01*
X15941867Y4206250D01*
X15910648Y4281619D01*
X15900000Y4362500D01*
X15900000Y5637500D01*
X15910648Y5718381D01*
X15941867Y5793750D01*
X15991529Y5858471D01*
X16056250Y5908133D01*
X16131619Y5939352D01*
X16212500Y5950000D01*
X16837500Y5950000D01*
X16918381Y5939352D01*
X16993750Y5908133D01*
X17058471Y5858471D01*
X17108133Y5793750D01*
X17139352Y5718381D01*
X17150000Y5637500D01*
X17150000Y4362500D01*
X17139352Y4281619D01*
X17108133Y4206250D01*
X17058471Y4141529D01*
X16993750Y4091867D01*
X16918381Y4060648D01*
X16837500Y4050000D01*
G37*
%LPD*%
%LPD*%
G36*
X19787500Y4050000D02*
X19162500Y4050000D01*
X19081619Y4060648D01*
X19006250Y4091867D01*
X18941529Y4141529D01*
X18891867Y4206250D01*
X18860648Y4281619D01*
X18850000Y4362500D01*
X18850000Y5637500D01*
X18860648Y5718381D01*
X18891867Y5793750D01*
X18941529Y5858471D01*
X19006250Y5908133D01*
X19081619Y5939352D01*
X19162500Y5950000D01*
X19787500Y5950000D01*
X19868381Y5939352D01*
X19943750Y5908133D01*
X20008471Y5858471D01*
X20058133Y5793750D01*
X20089352Y5718381D01*
X20100000Y5637500D01*
X20100000Y4362500D01*
X20089352Y4281619D01*
X20058133Y4206250D01*
X20008471Y4141529D01*
X19943750Y4091867D01*
X19868381Y4060648D01*
X19787500Y4050000D01*
G37*
%LPD*%
%LPD*%
G36*
X30837500Y4050000D02*
X30212500Y4050000D01*
X30131619Y4060648D01*
X30056250Y4091867D01*
X29991529Y4141529D01*
X29941867Y4206250D01*
X29910648Y4281619D01*
X29900000Y4362500D01*
X29900000Y5637500D01*
X29910648Y5718381D01*
X29941867Y5793750D01*
X29991529Y5858471D01*
X30056250Y5908133D01*
X30131619Y5939352D01*
X30212500Y5950000D01*
X30837500Y5950000D01*
X30918381Y5939352D01*
X30993750Y5908133D01*
X31058471Y5858471D01*
X31108133Y5793750D01*
X31139352Y5718381D01*
X31150000Y5637500D01*
X31150000Y4362500D01*
X31139352Y4281619D01*
X31108133Y4206250D01*
X31058471Y4141529D01*
X30993750Y4091867D01*
X30918381Y4060648D01*
X30837500Y4050000D01*
G37*
%LPD*%
%LPD*%
G36*
X33787500Y4050000D02*
X33162500Y4050000D01*
X33081619Y4060648D01*
X33006250Y4091867D01*
X32941529Y4141529D01*
X32891867Y4206250D01*
X32860648Y4281619D01*
X32850000Y4362500D01*
X32850000Y5637500D01*
X32860648Y5718381D01*
X32891867Y5793750D01*
X32941529Y5858471D01*
X33006250Y5908133D01*
X33081619Y5939352D01*
X33162500Y5950000D01*
X33787500Y5950000D01*
X33868381Y5939352D01*
X33943750Y5908133D01*
X34008471Y5858471D01*
X34058133Y5793750D01*
X34089352Y5718381D01*
X34100000Y5637500D01*
X34100000Y4362500D01*
X34089352Y4281619D01*
X34058133Y4206250D01*
X34008471Y4141529D01*
X33943750Y4091867D01*
X33868381Y4060648D01*
X33787500Y4050000D01*
G37*
%LPD*%
M02*
