M48
; Nyquist Labs eelab.pcb
FMAT,2
METRIC,TZ
; PTH
T1C0.300
; PTH
T2C1.000
; NPTH
T3C3.200
%
T1
X7.500Y17.000
X19.500Y11.750
X31.250Y28.500
X26.750Y19.500
X23.750Y9.000
X16.000Y25.062
X18.293Y25.770
X16.000Y9.938
X34.000Y11.062
X32.000Y21.062
X19.924Y14.320
X20.475Y5.000
X31.525Y5.000
T2
X5.000Y15.460
X5.000Y18.000
X5.000Y20.540
X45.000Y15.460
X45.000Y18.000
X45.000Y20.540
X22.460Y5.000
X25.000Y5.000
X27.540Y5.000
T3
X3.500Y3.500
X46.500Y3.500
X3.500Y32.500
X46.500Y32.500
M30
