G04 Nyquist Labs eelab.pcb*
%TF.FileFunction,Paste,Top*%
%TF.FilePolarity,Positive*%
%FSLAX46Y46*%
%MOMM*%
%LPD*%
G01*
%LPD*%
G36*
X25468750Y14550000D02*
X24531250Y14550000D01*
X24464928Y14558732D01*
X24403125Y14584331D01*
X24350054Y14625054D01*
X24309331Y14678125D01*
X24283732Y14739928D01*
X24275000Y14806250D01*
X24275000Y15318750D01*
X24283732Y15385072D01*
X24309331Y15446875D01*
X24350054Y15499946D01*
X24403125Y15540669D01*
X24464928Y15566268D01*
X24531250Y15575000D01*
X25468750Y15575000D01*
X25535072Y15566268D01*
X25596875Y15540669D01*
X25649946Y15499946D01*
X25690669Y15446875D01*
X25716268Y15385072D01*
X25725000Y15318750D01*
X25725000Y14806250D01*
X25716268Y14739928D01*
X25690669Y14678125D01*
X25649946Y14625054D01*
X25596875Y14584331D01*
X25535072Y14558732D01*
X25468750Y14550000D01*
G37*
%LPD*%
%LPD*%
G36*
X25468750Y16425000D02*
X24531250Y16425000D01*
X24464928Y16433732D01*
X24403125Y16459331D01*
X24350054Y16500054D01*
X24309331Y16553125D01*
X24283732Y16614928D01*
X24275000Y16681250D01*
X24275000Y17193750D01*
X24283732Y17260072D01*
X24309331Y17321875D01*
X24350054Y17374946D01*
X24403125Y17415669D01*
X24464928Y17441268D01*
X24531250Y17450000D01*
X25468750Y17450000D01*
X25535072Y17441268D01*
X25596875Y17415669D01*
X25649946Y17374946D01*
X25690669Y17321875D01*
X25716268Y17260072D01*
X25725000Y17193750D01*
X25725000Y16681250D01*
X25716268Y16614928D01*
X25690669Y16553125D01*
X25649946Y16500054D01*
X25596875Y16459331D01*
X25535072Y16433732D01*
X25468750Y16425000D01*
G37*
%LPD*%
%LPD*%
G36*
X21318750Y11275000D02*
X20806250Y11275000D01*
X20739928Y11283732D01*
X20678125Y11309331D01*
X20625054Y11350054D01*
X20584331Y11403125D01*
X20558732Y11464928D01*
X20550000Y11531250D01*
X20550000Y12468750D01*
X20558732Y12535072D01*
X20584331Y12596875D01*
X20625054Y12649946D01*
X20678125Y12690669D01*
X20739928Y12716268D01*
X20806250Y12725000D01*
X21318750Y12725000D01*
X21385072Y12716268D01*
X21446875Y12690669D01*
X21499946Y12649946D01*
X21540669Y12596875D01*
X21566268Y12535072D01*
X21575000Y12468750D01*
X21575000Y11531250D01*
X21566268Y11464928D01*
X21540669Y11403125D01*
X21499946Y11350054D01*
X21446875Y11309331D01*
X21385072Y11283732D01*
X21318750Y11275000D01*
G37*
%LPD*%
%LPD*%
G36*
X23193750Y11275000D02*
X22681250Y11275000D01*
X22614928Y11283732D01*
X22553125Y11309331D01*
X22500054Y11350054D01*
X22459331Y11403125D01*
X22433732Y11464928D01*
X22425000Y11531250D01*
X22425000Y12468750D01*
X22433732Y12535072D01*
X22459331Y12596875D01*
X22500054Y12649946D01*
X22553125Y12690669D01*
X22614928Y12716268D01*
X22681250Y12725000D01*
X23193750Y12725000D01*
X23260072Y12716268D01*
X23321875Y12690669D01*
X23374946Y12649946D01*
X23415669Y12596875D01*
X23441268Y12535072D01*
X23450000Y12468750D01*
X23450000Y11531250D01*
X23441268Y11464928D01*
X23415669Y11403125D01*
X23374946Y11350054D01*
X23321875Y11309331D01*
X23260072Y11283732D01*
X23193750Y11275000D01*
G37*
%LPD*%
%LPD*%
G36*
X15812500Y11100000D02*
X15237500Y11100000D01*
X15163090Y11109796D01*
X15093750Y11138518D01*
X15034207Y11184207D01*
X14988518Y11243750D01*
X14959796Y11313090D01*
X14950000Y11387500D01*
X14950000Y12612500D01*
X14959796Y12686910D01*
X14988518Y12756250D01*
X15034207Y12815793D01*
X15093750Y12861482D01*
X15163090Y12890204D01*
X15237500Y12900000D01*
X15812500Y12900000D01*
X15886910Y12890204D01*
X15956250Y12861482D01*
X16015793Y12815793D01*
X16061482Y12756250D01*
X16090204Y12686910D01*
X16100000Y12612500D01*
X16100000Y11387500D01*
X16090204Y11313090D01*
X16061482Y11243750D01*
X16015793Y11184207D01*
X15956250Y11138518D01*
X15886910Y11109796D01*
X15812500Y11100000D01*
G37*
%LPD*%
%LPD*%
G36*
X18762500Y11100000D02*
X18187500Y11100000D01*
X18113090Y11109796D01*
X18043750Y11138518D01*
X17984207Y11184207D01*
X17938518Y11243750D01*
X17909796Y11313090D01*
X17900000Y11387500D01*
X17900000Y12612500D01*
X17909796Y12686910D01*
X17938518Y12756250D01*
X17984207Y12815793D01*
X18043750Y12861482D01*
X18113090Y12890204D01*
X18187500Y12900000D01*
X18762500Y12900000D01*
X18836910Y12890204D01*
X18906250Y12861482D01*
X18965793Y12815793D01*
X19011482Y12756250D01*
X19040204Y12686910D01*
X19050000Y12612500D01*
X19050000Y11387500D01*
X19040204Y11313090D01*
X19011482Y11243750D01*
X18965793Y11184207D01*
X18906250Y11138518D01*
X18836910Y11109796D01*
X18762500Y11100000D01*
G37*
%LPD*%
%LPD*%
G36*
X29318750Y8275000D02*
X28806250Y8275000D01*
X28739928Y8283732D01*
X28678125Y8309331D01*
X28625054Y8350054D01*
X28584331Y8403125D01*
X28558732Y8464928D01*
X28550000Y8531250D01*
X28550000Y9468750D01*
X28558732Y9535072D01*
X28584331Y9596875D01*
X28625054Y9649946D01*
X28678125Y9690669D01*
X28739928Y9716268D01*
X28806250Y9725000D01*
X29318750Y9725000D01*
X29385072Y9716268D01*
X29446875Y9690669D01*
X29499946Y9649946D01*
X29540669Y9596875D01*
X29566268Y9535072D01*
X29575000Y9468750D01*
X29575000Y8531250D01*
X29566268Y8464928D01*
X29540669Y8403125D01*
X29499946Y8350054D01*
X29446875Y8309331D01*
X29385072Y8283732D01*
X29318750Y8275000D01*
G37*
%LPD*%
%LPD*%
G36*
X31193750Y8275000D02*
X30681250Y8275000D01*
X30614928Y8283732D01*
X30553125Y8309331D01*
X30500054Y8350054D01*
X30459331Y8403125D01*
X30433732Y8464928D01*
X30425000Y8531250D01*
X30425000Y9468750D01*
X30433732Y9535072D01*
X30459331Y9596875D01*
X30500054Y9649946D01*
X30553125Y9690669D01*
X30614928Y9716268D01*
X30681250Y9725000D01*
X31193750Y9725000D01*
X31260072Y9716268D01*
X31321875Y9690669D01*
X31374946Y9649946D01*
X31415669Y9596875D01*
X31441268Y9535072D01*
X31450000Y9468750D01*
X31450000Y8531250D01*
X31441268Y8464928D01*
X31415669Y8403125D01*
X31374946Y8350054D01*
X31321875Y8309331D01*
X31260072Y8283732D01*
X31193750Y8275000D01*
G37*
%LPD*%
%LPD*%
G36*
X33318750Y8275000D02*
X32806250Y8275000D01*
X32739928Y8283732D01*
X32678125Y8309331D01*
X32625054Y8350054D01*
X32584331Y8403125D01*
X32558732Y8464928D01*
X32550000Y8531250D01*
X32550000Y9468750D01*
X32558732Y9535072D01*
X32584331Y9596875D01*
X32625054Y9649946D01*
X32678125Y9690669D01*
X32739928Y9716268D01*
X32806250Y9725000D01*
X33318750Y9725000D01*
X33385072Y9716268D01*
X33446875Y9690669D01*
X33499946Y9649946D01*
X33540669Y9596875D01*
X33566268Y9535072D01*
X33575000Y9468750D01*
X33575000Y8531250D01*
X33566268Y8464928D01*
X33540669Y8403125D01*
X33499946Y8350054D01*
X33446875Y8309331D01*
X33385072Y8283732D01*
X33318750Y8275000D01*
G37*
%LPD*%
%LPD*%
G36*
X35193750Y8275000D02*
X34681250Y8275000D01*
X34614928Y8283732D01*
X34553125Y8309331D01*
X34500054Y8350054D01*
X34459331Y8403125D01*
X34433732Y8464928D01*
X34425000Y8531250D01*
X34425000Y9468750D01*
X34433732Y9535072D01*
X34459331Y9596875D01*
X34500054Y9649946D01*
X34553125Y9690669D01*
X34614928Y9716268D01*
X34681250Y9725000D01*
X35193750Y9725000D01*
X35260072Y9716268D01*
X35321875Y9690669D01*
X35374946Y9649946D01*
X35415669Y9596875D01*
X35441268Y9535072D01*
X35450000Y9468750D01*
X35450000Y8531250D01*
X35441268Y8464928D01*
X35415669Y8403125D01*
X35374946Y8350054D01*
X35321875Y8309331D01*
X35260072Y8283732D01*
X35193750Y8275000D01*
G37*
%LPD*%
M02*
