G04 Nyquist Labs eelab.pcb*
%TF.FileFunction,Profile,NP*%
%TF.FilePolarity,Positive*%
%FSLAX46Y46*%
%MOMM*%
%LPD*%
%ADD10C,0.1000*%
G01*
D10*
X43000000Y0D02*
X1000000Y0D01*
D10*
X1000000Y0D02*
X804910Y19215D01*
D10*
X804910Y19215D02*
X617317Y76120D01*
D10*
X617317Y76120D02*
X444430Y168530D01*
D10*
X444430Y168530D02*
X292893Y292893D01*
D10*
X292893Y292893D02*
X168530Y444430D01*
D10*
X168530Y444430D02*
X76120Y617317D01*
D10*
X76120Y617317D02*
X19215Y804910D01*
D10*
X19215Y804910D02*
X0Y1000000D01*
D10*
X0Y1000000D02*
X0Y31000000D01*
D10*
X0Y31000000D02*
X19215Y31195090D01*
D10*
X19215Y31195090D02*
X76120Y31382683D01*
D10*
X76120Y31382683D02*
X168530Y31555570D01*
D10*
X168530Y31555570D02*
X292893Y31707107D01*
D10*
X292893Y31707107D02*
X444430Y31831470D01*
D10*
X444430Y31831470D02*
X617317Y31923880D01*
D10*
X617317Y31923880D02*
X804910Y31980785D01*
D10*
X804910Y31980785D02*
X1000000Y32000000D01*
D10*
X1000000Y32000000D02*
X43000000Y32000000D01*
D10*
X43000000Y32000000D02*
X43195090Y31980785D01*
D10*
X43195090Y31980785D02*
X43382683Y31923880D01*
D10*
X43382683Y31923880D02*
X43555570Y31831470D01*
D10*
X43555570Y31831470D02*
X43707107Y31707107D01*
D10*
X43707107Y31707107D02*
X43831470Y31555570D01*
D10*
X43831470Y31555570D02*
X43923880Y31382683D01*
D10*
X43923880Y31382683D02*
X43980785Y31195090D01*
D10*
X43980785Y31195090D02*
X44000000Y31000000D01*
D10*
X44000000Y31000000D02*
X44000000Y1000000D01*
D10*
X44000000Y1000000D02*
X43980785Y804910D01*
D10*
X43980785Y804910D02*
X43923880Y617317D01*
D10*
X43923880Y617317D02*
X43831470Y444430D01*
D10*
X43831470Y444430D02*
X43707107Y292893D01*
D10*
X43707107Y292893D02*
X43555570Y168530D01*
D10*
X43555570Y168530D02*
X43382683Y76120D01*
D10*
X43382683Y76120D02*
X43195090Y19215D01*
D10*
X43195090Y19215D02*
X43000000Y0D01*
M02*
