G04 Nyquist Labs eelab.pcb*
%TF.FileFunction,Copper,L1,Top*%
%TF.FilePolarity,Positive*%
%FSLAX46Y46*%
%MOMM*%
%LPD*%
%ADD10C,0.3000*%
%ADD11C,1.5000*%
%ADD12C,0.6000*%
%ADD13R,2.6000X2.6000*%
%ADD14C,2.6000*%
%ADD15R,1.8000X2.4000*%
%ADD16O,1.8000X2.4000*%
%ADD17R,1.6000X1.6000*%
%ADD18C,1.6000*%
G01*
%LPD*%
G36*
X1020142Y310000D02*
X1010340Y310482D01*
X875482Y323764D01*
X865775Y325204D01*
X856255Y327588D01*
X745947Y361050D01*
X736708Y364356D01*
X727836Y368552D01*
X626176Y422890D01*
X617759Y427935D01*
X609876Y433781D01*
X520770Y506909D01*
X513499Y513499D01*
X506909Y520770D01*
X433781Y609876D01*
X427935Y617759D01*
X422890Y626176D01*
X368552Y727836D01*
X364356Y736708D01*
X361050Y745947D01*
X327588Y856255D01*
X325204Y865775D01*
X323764Y875482D01*
X310482Y1010340D01*
X310000Y1020142D01*
X310000Y30979858D01*
X310482Y30989660D01*
X323764Y31124518D01*
X325204Y31134225D01*
X327588Y31143745D01*
X361050Y31254053D01*
X364356Y31263292D01*
X368552Y31272164D01*
X422890Y31373824D01*
X427935Y31382241D01*
X433781Y31390124D01*
X506909Y31479230D01*
X513499Y31486501D01*
X520770Y31493091D01*
X609876Y31566219D01*
X617759Y31572065D01*
X626176Y31577110D01*
X727836Y31631448D01*
X736708Y31635644D01*
X745947Y31638950D01*
X856255Y31672412D01*
X865775Y31674796D01*
X875482Y31676236D01*
X1010340Y31689518D01*
X1020142Y31690000D01*
X42979858Y31690000D01*
X42989660Y31689518D01*
X43124518Y31676236D01*
X43134225Y31674796D01*
X43143745Y31672412D01*
X43254053Y31638950D01*
X43263292Y31635644D01*
X43272164Y31631448D01*
X43373824Y31577110D01*
X43382241Y31572065D01*
X43390124Y31566219D01*
X43479230Y31493091D01*
X43486501Y31486501D01*
X43493091Y31479230D01*
X43566219Y31390124D01*
X43572065Y31382241D01*
X43577110Y31373824D01*
X43631448Y31272164D01*
X43635644Y31263292D01*
X43638950Y31254053D01*
X43672412Y31143745D01*
X43674796Y31134225D01*
X43676236Y31124518D01*
X43689518Y30989660D01*
X43690000Y30979858D01*
X43690000Y1020142D01*
X43689518Y1010340D01*
X43676236Y875482D01*
X43674796Y865775D01*
X43672412Y856255D01*
X43638950Y745947D01*
X43635644Y736708D01*
X43631448Y727836D01*
X43577110Y626176D01*
X43572065Y617759D01*
X43566219Y609876D01*
X43493091Y520770D01*
X43486501Y513499D01*
X43479230Y506909D01*
X43390124Y433781D01*
X43382241Y427935D01*
X43373824Y422890D01*
X43272164Y368552D01*
X43263292Y364356D01*
X43254053Y361050D01*
X43143745Y327588D01*
X43134225Y325204D01*
X43124518Y323764D01*
X42989660Y310482D01*
X42979858Y310000D01*
X1020142Y310000D01*
G37*
%LPD*%
%LPC*%
G36*
X42178758Y2589611D02*
X42179968Y2591746D01*
X42188525Y2607757D01*
X42189629Y2609948D01*
X42259908Y2758542D01*
X42260903Y2760785D01*
X42267850Y2777557D01*
X42268733Y2779847D01*
X42324109Y2934614D01*
X42324879Y2936944D01*
X42330149Y2954316D01*
X42330803Y2956681D01*
X42370743Y3116130D01*
X42371281Y3118524D01*
X42374823Y3136329D01*
X42375242Y3138747D01*
X42399361Y3301343D01*
X42399661Y3303779D01*
X42401441Y3321845D01*
X42401621Y3324292D01*
X42409687Y3488470D01*
X42409747Y3490923D01*
X42409747Y3509077D01*
X42409687Y3511530D01*
X42401621Y3675708D01*
X42401441Y3678155D01*
X42399661Y3696221D01*
X42399361Y3698657D01*
X42375242Y3861253D01*
X42374823Y3863671D01*
X42371281Y3881476D01*
X42370743Y3883870D01*
X42330803Y4043319D01*
X42330149Y4045684D01*
X42324879Y4063056D01*
X42324109Y4065386D01*
X42268733Y4220153D01*
X42267850Y4222443D01*
X42260903Y4239215D01*
X42259908Y4241458D01*
X42189629Y4390052D01*
X42188525Y4392243D01*
X42179968Y4408254D01*
X42178758Y4410389D01*
X42094252Y4551378D01*
X42092940Y4553451D01*
X42082854Y4568546D01*
X42081441Y4570552D01*
X41983522Y4702580D01*
X41982013Y4704514D01*
X41970496Y4718547D01*
X41968893Y4720405D01*
X41858505Y4842200D01*
X41856813Y4843977D01*
X41843977Y4856813D01*
X41842200Y4858505D01*
X41720405Y4968893D01*
X41718547Y4970496D01*
X41704514Y4982013D01*
X41702580Y4983522D01*
X41570552Y5081441D01*
X41568546Y5082854D01*
X41553451Y5092940D01*
X41551378Y5094252D01*
X41410389Y5178758D01*
X41408254Y5179968D01*
X41392243Y5188525D01*
X41390052Y5189629D01*
X41241458Y5259908D01*
X41239215Y5260903D01*
X41222443Y5267850D01*
X41220153Y5268733D01*
X41065386Y5324109D01*
X41063056Y5324879D01*
X41045684Y5330149D01*
X41043319Y5330803D01*
X40883870Y5370743D01*
X40881476Y5371281D01*
X40863671Y5374823D01*
X40861253Y5375242D01*
X40698657Y5399361D01*
X40696221Y5399661D01*
X40678155Y5401441D01*
X40675708Y5401621D01*
X40511530Y5409687D01*
X40509077Y5409747D01*
X40490923Y5409747D01*
X40488470Y5409687D01*
X40324292Y5401621D01*
X40321845Y5401441D01*
X40303779Y5399661D01*
X40301343Y5399361D01*
X40138747Y5375242D01*
X40136329Y5374823D01*
X40118524Y5371281D01*
X40116130Y5370743D01*
X39956681Y5330803D01*
X39954316Y5330149D01*
X39936944Y5324879D01*
X39934614Y5324109D01*
X39779847Y5268733D01*
X39777557Y5267850D01*
X39760785Y5260903D01*
X39758542Y5259908D01*
X39609948Y5189629D01*
X39607757Y5188525D01*
X39591746Y5179968D01*
X39589611Y5178758D01*
X39448622Y5094252D01*
X39446549Y5092940D01*
X39431454Y5082854D01*
X39429448Y5081441D01*
X39297420Y4983522D01*
X39295486Y4982013D01*
X39281453Y4970496D01*
X39279595Y4968893D01*
X39157800Y4858505D01*
X39156023Y4856813D01*
X39143187Y4843977D01*
X39141495Y4842200D01*
X39031107Y4720405D01*
X39029504Y4718547D01*
X39017987Y4704514D01*
X39016478Y4702580D01*
X38918559Y4570552D01*
X38917146Y4568546D01*
X38907060Y4553451D01*
X38905748Y4551378D01*
X38821242Y4410389D01*
X38820032Y4408254D01*
X38811475Y4392243D01*
X38810371Y4390052D01*
X38740092Y4241458D01*
X38739097Y4239215D01*
X38732150Y4222443D01*
X38731267Y4220153D01*
X38675891Y4065386D01*
X38675121Y4063056D01*
X38669851Y4045684D01*
X38669197Y4043319D01*
X38629257Y3883870D01*
X38628719Y3881476D01*
X38625177Y3863671D01*
X38624758Y3861253D01*
X38600639Y3698657D01*
X38600339Y3696221D01*
X38598559Y3678155D01*
X38598379Y3675708D01*
X38590313Y3511530D01*
X38590253Y3509077D01*
X38590253Y3490923D01*
X38590313Y3488470D01*
X38598379Y3324292D01*
X38598559Y3321845D01*
X38600339Y3303779D01*
X38600639Y3301343D01*
X38624758Y3138747D01*
X38625177Y3136329D01*
X38628719Y3118524D01*
X38629257Y3116130D01*
X38669197Y2956681D01*
X38669851Y2954316D01*
X38675121Y2936944D01*
X38675891Y2934614D01*
X38731267Y2779847D01*
X38732150Y2777557D01*
X38739097Y2760785D01*
X38740092Y2758542D01*
X38810371Y2609948D01*
X38811475Y2607757D01*
X38820032Y2591746D01*
X38821242Y2589611D01*
X38905748Y2448622D01*
X38907060Y2446549D01*
X38917146Y2431454D01*
X38918559Y2429448D01*
X39016478Y2297420D01*
X39017987Y2295486D01*
X39029504Y2281453D01*
X39031107Y2279595D01*
X39141495Y2157800D01*
X39143187Y2156023D01*
X39156023Y2143187D01*
X39157800Y2141495D01*
X39279595Y2031107D01*
X39281453Y2029504D01*
X39295486Y2017987D01*
X39297420Y2016478D01*
X39429448Y1918559D01*
X39431454Y1917146D01*
X39446549Y1907060D01*
X39448622Y1905748D01*
X39589611Y1821242D01*
X39591746Y1820032D01*
X39607757Y1811475D01*
X39609948Y1810371D01*
X39758542Y1740092D01*
X39760785Y1739097D01*
X39777557Y1732150D01*
X39779847Y1731267D01*
X39934614Y1675891D01*
X39936944Y1675121D01*
X39954316Y1669851D01*
X39956681Y1669197D01*
X40116130Y1629257D01*
X40118524Y1628719D01*
X40136329Y1625177D01*
X40138747Y1624758D01*
X40301343Y1600639D01*
X40303779Y1600339D01*
X40321845Y1598559D01*
X40324292Y1598379D01*
X40488470Y1590313D01*
X40490923Y1590253D01*
X40509077Y1590253D01*
X40511530Y1590313D01*
X40675708Y1598379D01*
X40678155Y1598559D01*
X40696221Y1600339D01*
X40698657Y1600639D01*
X40861253Y1624758D01*
X40863671Y1625177D01*
X40881476Y1628719D01*
X40883870Y1629257D01*
X41043319Y1669197D01*
X41045684Y1669851D01*
X41063056Y1675121D01*
X41065386Y1675891D01*
X41220153Y1731267D01*
X41222443Y1732150D01*
X41239215Y1739097D01*
X41241458Y1740092D01*
X41390052Y1810371D01*
X41392243Y1811475D01*
X41408254Y1820032D01*
X41410389Y1821242D01*
X41551378Y1905748D01*
X41553451Y1907060D01*
X41568546Y1917146D01*
X41570552Y1918559D01*
X41702580Y2016478D01*
X41704514Y2017987D01*
X41718547Y2029504D01*
X41720405Y2031107D01*
X41842200Y2141495D01*
X41843977Y2143187D01*
X41856813Y2156023D01*
X41858505Y2157800D01*
X41968893Y2279595D01*
X41970496Y2281453D01*
X41982013Y2295486D01*
X41983522Y2297420D01*
X42081441Y2429448D01*
X42082854Y2431454D01*
X42092940Y2446549D01*
X42094252Y2448622D01*
X42178758Y2589611D01*
G37*
%LPD*%
%LPC*%
G36*
X42178758Y27589611D02*
X42179968Y27591746D01*
X42188525Y27607757D01*
X42189629Y27609948D01*
X42259908Y27758542D01*
X42260903Y27760785D01*
X42267850Y27777557D01*
X42268733Y27779847D01*
X42324109Y27934614D01*
X42324879Y27936944D01*
X42330149Y27954316D01*
X42330803Y27956681D01*
X42370743Y28116130D01*
X42371281Y28118524D01*
X42374823Y28136329D01*
X42375242Y28138747D01*
X42399361Y28301343D01*
X42399661Y28303779D01*
X42401441Y28321845D01*
X42401621Y28324292D01*
X42409687Y28488470D01*
X42409747Y28490923D01*
X42409747Y28509077D01*
X42409687Y28511530D01*
X42401621Y28675708D01*
X42401441Y28678155D01*
X42399661Y28696221D01*
X42399361Y28698657D01*
X42375242Y28861253D01*
X42374823Y28863671D01*
X42371281Y28881476D01*
X42370743Y28883870D01*
X42330803Y29043319D01*
X42330149Y29045684D01*
X42324879Y29063056D01*
X42324109Y29065386D01*
X42268733Y29220153D01*
X42267850Y29222443D01*
X42260903Y29239215D01*
X42259908Y29241458D01*
X42189629Y29390052D01*
X42188525Y29392243D01*
X42179968Y29408254D01*
X42178758Y29410389D01*
X42094252Y29551378D01*
X42092940Y29553451D01*
X42082854Y29568546D01*
X42081441Y29570552D01*
X41983522Y29702580D01*
X41982013Y29704514D01*
X41970496Y29718547D01*
X41968893Y29720405D01*
X41858505Y29842200D01*
X41856813Y29843977D01*
X41843977Y29856813D01*
X41842200Y29858505D01*
X41720405Y29968893D01*
X41718547Y29970496D01*
X41704514Y29982013D01*
X41702580Y29983522D01*
X41570552Y30081441D01*
X41568546Y30082854D01*
X41553451Y30092940D01*
X41551378Y30094252D01*
X41410389Y30178758D01*
X41408254Y30179968D01*
X41392243Y30188525D01*
X41390052Y30189629D01*
X41241458Y30259908D01*
X41239215Y30260903D01*
X41222443Y30267850D01*
X41220153Y30268733D01*
X41065386Y30324109D01*
X41063056Y30324879D01*
X41045684Y30330149D01*
X41043319Y30330803D01*
X40883870Y30370743D01*
X40881476Y30371281D01*
X40863671Y30374823D01*
X40861253Y30375242D01*
X40698657Y30399361D01*
X40696221Y30399661D01*
X40678155Y30401441D01*
X40675708Y30401621D01*
X40511530Y30409687D01*
X40509077Y30409747D01*
X40490923Y30409747D01*
X40488470Y30409687D01*
X40324292Y30401621D01*
X40321845Y30401441D01*
X40303779Y30399661D01*
X40301343Y30399361D01*
X40138747Y30375242D01*
X40136329Y30374823D01*
X40118524Y30371281D01*
X40116130Y30370743D01*
X39956681Y30330803D01*
X39954316Y30330149D01*
X39936944Y30324879D01*
X39934614Y30324109D01*
X39779847Y30268733D01*
X39777557Y30267850D01*
X39760785Y30260903D01*
X39758542Y30259908D01*
X39609948Y30189629D01*
X39607757Y30188525D01*
X39591746Y30179968D01*
X39589611Y30178758D01*
X39448622Y30094252D01*
X39446549Y30092940D01*
X39431454Y30082854D01*
X39429448Y30081441D01*
X39297420Y29983522D01*
X39295486Y29982013D01*
X39281453Y29970496D01*
X39279595Y29968893D01*
X39157800Y29858505D01*
X39156023Y29856813D01*
X39143187Y29843977D01*
X39141495Y29842200D01*
X39031107Y29720405D01*
X39029504Y29718547D01*
X39017987Y29704514D01*
X39016478Y29702580D01*
X38918559Y29570552D01*
X38917146Y29568546D01*
X38907060Y29553451D01*
X38905748Y29551378D01*
X38821242Y29410389D01*
X38820032Y29408254D01*
X38811475Y29392243D01*
X38810371Y29390052D01*
X38740092Y29241458D01*
X38739097Y29239215D01*
X38732150Y29222443D01*
X38731267Y29220153D01*
X38675891Y29065386D01*
X38675121Y29063056D01*
X38669851Y29045684D01*
X38669197Y29043319D01*
X38629257Y28883870D01*
X38628719Y28881476D01*
X38625177Y28863671D01*
X38624758Y28861253D01*
X38600639Y28698657D01*
X38600339Y28696221D01*
X38598559Y28678155D01*
X38598379Y28675708D01*
X38590313Y28511530D01*
X38590253Y28509077D01*
X38590253Y28490923D01*
X38590313Y28488470D01*
X38598379Y28324292D01*
X38598559Y28321845D01*
X38600339Y28303779D01*
X38600639Y28301343D01*
X38624758Y28138747D01*
X38625177Y28136329D01*
X38628719Y28118524D01*
X38629257Y28116130D01*
X38669197Y27956681D01*
X38669851Y27954316D01*
X38675121Y27936944D01*
X38675891Y27934614D01*
X38731267Y27779847D01*
X38732150Y27777557D01*
X38739097Y27760785D01*
X38740092Y27758542D01*
X38810371Y27609948D01*
X38811475Y27607757D01*
X38820032Y27591746D01*
X38821242Y27589611D01*
X38905748Y27448622D01*
X38907060Y27446549D01*
X38917146Y27431454D01*
X38918559Y27429448D01*
X39016478Y27297420D01*
X39017987Y27295486D01*
X39029504Y27281453D01*
X39031107Y27279595D01*
X39141495Y27157800D01*
X39143187Y27156023D01*
X39156023Y27143187D01*
X39157800Y27141495D01*
X39279595Y27031107D01*
X39281453Y27029504D01*
X39295486Y27017987D01*
X39297420Y27016478D01*
X39429448Y26918559D01*
X39431454Y26917146D01*
X39446549Y26907060D01*
X39448622Y26905748D01*
X39589611Y26821242D01*
X39591746Y26820032D01*
X39607757Y26811475D01*
X39609948Y26810371D01*
X39758542Y26740092D01*
X39760785Y26739097D01*
X39777557Y26732150D01*
X39779847Y26731267D01*
X39934614Y26675891D01*
X39936944Y26675121D01*
X39954316Y26669851D01*
X39956681Y26669197D01*
X40116130Y26629257D01*
X40118524Y26628719D01*
X40136329Y26625177D01*
X40138747Y26624758D01*
X40301343Y26600639D01*
X40303779Y26600339D01*
X40321845Y26598559D01*
X40324292Y26598379D01*
X40488470Y26590313D01*
X40490923Y26590253D01*
X40509077Y26590253D01*
X40511530Y26590313D01*
X40675708Y26598379D01*
X40678155Y26598559D01*
X40696221Y26600339D01*
X40698657Y26600639D01*
X40861253Y26624758D01*
X40863671Y26625177D01*
X40881476Y26628719D01*
X40883870Y26629257D01*
X41043319Y26669197D01*
X41045684Y26669851D01*
X41063056Y26675121D01*
X41065386Y26675891D01*
X41220153Y26731267D01*
X41222443Y26732150D01*
X41239215Y26739097D01*
X41241458Y26740092D01*
X41390052Y26810371D01*
X41392243Y26811475D01*
X41408254Y26820032D01*
X41410389Y26821242D01*
X41551378Y26905748D01*
X41553451Y26907060D01*
X41568546Y26917146D01*
X41570552Y26918559D01*
X41702580Y27016478D01*
X41704514Y27017987D01*
X41718547Y27029504D01*
X41720405Y27031107D01*
X41842200Y27141495D01*
X41843977Y27143187D01*
X41856813Y27156023D01*
X41858505Y27157800D01*
X41968893Y27279595D01*
X41970496Y27281453D01*
X41982013Y27295486D01*
X41983522Y27297420D01*
X42081441Y27429448D01*
X42082854Y27431454D01*
X42092940Y27446549D01*
X42094252Y27448622D01*
X42178758Y27589611D01*
G37*
%LPD*%
%LPC*%
G36*
X34264899Y8323769D02*
X34265777Y8321773D01*
X34272137Y8308135D01*
X34274150Y8304268D01*
X34281128Y8292182D01*
X34283470Y8288505D01*
X34292101Y8276179D01*
X34293391Y8274420D01*
X34332786Y8223079D01*
X34334151Y8221378D01*
X34343823Y8209851D01*
X34346769Y8206637D01*
X34356637Y8196769D01*
X34359851Y8193823D01*
X34371378Y8184151D01*
X34373079Y8182786D01*
X34424420Y8143391D01*
X34426179Y8142101D01*
X34438505Y8133470D01*
X34442182Y8131128D01*
X34454268Y8124150D01*
X34458135Y8122137D01*
X34471773Y8115777D01*
X34473769Y8114899D01*
X34533556Y8090134D01*
X34535589Y8089344D01*
X34549729Y8084197D01*
X34553887Y8082886D01*
X34567368Y8079274D01*
X34571624Y8078330D01*
X34586443Y8075718D01*
X34588599Y8075386D01*
X34652217Y8067010D01*
X34655472Y8066690D01*
X34679617Y8065107D01*
X34682886Y8065000D01*
X35192114Y8065000D01*
X35195383Y8065107D01*
X35219528Y8066690D01*
X35222783Y8067010D01*
X35286401Y8075386D01*
X35288557Y8075718D01*
X35303376Y8078330D01*
X35307632Y8079274D01*
X35321113Y8082886D01*
X35325271Y8084197D01*
X35339411Y8089344D01*
X35341444Y8090134D01*
X35401231Y8114899D01*
X35403227Y8115777D01*
X35416865Y8122137D01*
X35420732Y8124150D01*
X35432818Y8131128D01*
X35436495Y8133470D01*
X35448821Y8142101D01*
X35450580Y8143391D01*
X35501921Y8182786D01*
X35503622Y8184151D01*
X35515149Y8193823D01*
X35518363Y8196769D01*
X35528231Y8206637D01*
X35531177Y8209851D01*
X35540849Y8221378D01*
X35542214Y8223079D01*
X35581609Y8274420D01*
X35582899Y8276179D01*
X35591530Y8288505D01*
X35593872Y8292182D01*
X35600850Y8304268D01*
X35602863Y8308135D01*
X35609223Y8321773D01*
X35610101Y8323769D01*
X35634866Y8383556D01*
X35635656Y8385589D01*
X35640803Y8399729D01*
X35642114Y8403887D01*
X35645726Y8417368D01*
X35646670Y8421624D01*
X35649282Y8436443D01*
X35649614Y8438599D01*
X35657990Y8502217D01*
X35658310Y8505472D01*
X35659893Y8529617D01*
X35660000Y8532886D01*
X35660000Y9467114D01*
X35659893Y9470383D01*
X35658310Y9494528D01*
X35657990Y9497783D01*
X35649614Y9561401D01*
X35649282Y9563557D01*
X35646839Y9577416D01*
X35645628Y9586935D01*
X35645335Y9596527D01*
X35645962Y9606102D01*
X35647505Y9615572D01*
X35649948Y9624852D01*
X35653269Y9633854D01*
X35657438Y9642497D01*
X35662416Y9650701D01*
X35668157Y9658389D01*
X35674609Y9665492D01*
X36503691Y10494574D01*
X36505383Y10496351D01*
X36517574Y10509802D01*
X36519177Y10511660D01*
X36536274Y10532493D01*
X36537784Y10534428D01*
X36547867Y10548023D01*
X36550591Y10552100D01*
X36559293Y10566619D01*
X36560502Y10568753D01*
X36573207Y10592522D01*
X36574310Y10594714D01*
X36581547Y10610015D01*
X36583424Y10614545D01*
X36589126Y10630482D01*
X36589896Y10632812D01*
X36597719Y10658602D01*
X36598373Y10660967D01*
X36602486Y10677386D01*
X36603443Y10682196D01*
X36605927Y10698939D01*
X36606227Y10701374D01*
X36608869Y10728195D01*
X36609049Y10730642D01*
X36609940Y10748774D01*
X36610000Y10751227D01*
X36610000Y11559462D01*
X36610482Y11569263D01*
X36611921Y11578971D01*
X36614306Y11588490D01*
X36617612Y11597730D01*
X36621808Y11606601D01*
X36626853Y11615019D01*
X36632699Y11622901D01*
X36639289Y11630172D01*
X36929828Y11920711D01*
X36937099Y11927301D01*
X36944981Y11933147D01*
X36953399Y11938192D01*
X36962270Y11942388D01*
X36971510Y11945694D01*
X36981029Y11948079D01*
X36990737Y11949518D01*
X37000538Y11950000D01*
X39298773Y11950000D01*
X39301226Y11950060D01*
X39318132Y11950891D01*
X39323012Y11951371D01*
X39338541Y11953675D01*
X39343350Y11954632D01*
X39358578Y11958446D01*
X39363271Y11959870D01*
X39378052Y11965158D01*
X39382583Y11967035D01*
X39396774Y11973747D01*
X39401099Y11976059D01*
X39414564Y11984129D01*
X39418642Y11986854D01*
X39431251Y11996205D01*
X39435042Y11999316D01*
X39446673Y12009859D01*
X39450141Y12013327D01*
X39460684Y12024958D01*
X39463795Y12028749D01*
X39473146Y12041358D01*
X39475871Y12045436D01*
X39483941Y12058901D01*
X39486253Y12063226D01*
X39492965Y12077417D01*
X39494842Y12081948D01*
X39500130Y12096729D01*
X39501554Y12101422D01*
X39505368Y12116650D01*
X39506325Y12121459D01*
X39508629Y12136988D01*
X39509109Y12141868D01*
X39509940Y12158774D01*
X39510000Y12161227D01*
X39510000Y14758773D01*
X39509940Y14761226D01*
X39509109Y14778132D01*
X39508629Y14783012D01*
X39506325Y14798541D01*
X39505368Y14803350D01*
X39501554Y14818578D01*
X39500130Y14823271D01*
X39494842Y14838052D01*
X39492965Y14842583D01*
X39486253Y14856774D01*
X39483941Y14861099D01*
X39475871Y14874564D01*
X39473146Y14878642D01*
X39463795Y14891251D01*
X39460684Y14895042D01*
X39450141Y14906673D01*
X39446673Y14910141D01*
X39435042Y14920684D01*
X39431251Y14923795D01*
X39418642Y14933146D01*
X39414564Y14935871D01*
X39401099Y14943941D01*
X39396774Y14946253D01*
X39382583Y14952965D01*
X39378052Y14954842D01*
X39363271Y14960130D01*
X39358578Y14961554D01*
X39343350Y14965368D01*
X39338541Y14966325D01*
X39323012Y14968629D01*
X39318132Y14969109D01*
X39301226Y14969940D01*
X39298773Y14970000D01*
X36701227Y14970000D01*
X36698774Y14969940D01*
X36681868Y14969109D01*
X36676988Y14968629D01*
X36661459Y14966325D01*
X36656650Y14965368D01*
X36641422Y14961554D01*
X36636729Y14960130D01*
X36621948Y14954842D01*
X36617417Y14952965D01*
X36603226Y14946253D01*
X36598901Y14943941D01*
X36585436Y14935871D01*
X36581358Y14933146D01*
X36568749Y14923795D01*
X36564958Y14920684D01*
X36553327Y14910141D01*
X36549859Y14906673D01*
X36539316Y14895042D01*
X36536205Y14891251D01*
X36526854Y14878642D01*
X36524129Y14874564D01*
X36516059Y14861099D01*
X36513747Y14856774D01*
X36507035Y14842583D01*
X36505158Y14838052D01*
X36499870Y14823271D01*
X36498446Y14818578D01*
X36494632Y14803350D01*
X36493675Y14798541D01*
X36491371Y14783012D01*
X36490891Y14778132D01*
X36490060Y14761226D01*
X36490000Y14758773D01*
X36490000Y12540538D01*
X36489518Y12530737D01*
X36488079Y12521029D01*
X36485694Y12511510D01*
X36482388Y12502270D01*
X36478192Y12493399D01*
X36473147Y12484981D01*
X36467301Y12477099D01*
X36460711Y12469828D01*
X35996309Y12005426D01*
X35994617Y12003649D01*
X35982426Y11990198D01*
X35980823Y11988340D01*
X35963726Y11967507D01*
X35962216Y11965572D01*
X35952133Y11951977D01*
X35949409Y11947900D01*
X35940707Y11933381D01*
X35939498Y11931247D01*
X35926793Y11907478D01*
X35925690Y11905286D01*
X35918453Y11889985D01*
X35916576Y11885455D01*
X35910874Y11869518D01*
X35910104Y11867188D01*
X35902281Y11841398D01*
X35901627Y11839033D01*
X35897514Y11822614D01*
X35896557Y11817804D01*
X35894073Y11801061D01*
X35893773Y11798626D01*
X35891131Y11771805D01*
X35890951Y11769358D01*
X35890060Y11751226D01*
X35890000Y11748773D01*
X35890000Y10940538D01*
X35889518Y10930737D01*
X35888079Y10921029D01*
X35885694Y10911510D01*
X35882388Y10902270D01*
X35878192Y10893399D01*
X35873147Y10884981D01*
X35867301Y10877099D01*
X35860711Y10869828D01*
X34996309Y10005426D01*
X34994617Y10003649D01*
X34982426Y9990198D01*
X34980823Y9988340D01*
X34967053Y9971561D01*
X34960462Y9964289D01*
X34953191Y9957699D01*
X34945309Y9951853D01*
X34936891Y9946808D01*
X34928020Y9942612D01*
X34918780Y9939306D01*
X34909261Y9936921D01*
X34899554Y9935482D01*
X34889752Y9935000D01*
X34682886Y9935000D01*
X34679617Y9934893D01*
X34655472Y9933310D01*
X34652217Y9932990D01*
X34588599Y9924614D01*
X34586443Y9924282D01*
X34571624Y9921670D01*
X34567368Y9920726D01*
X34553887Y9917114D01*
X34549729Y9915803D01*
X34535589Y9910656D01*
X34533556Y9909866D01*
X34473769Y9885101D01*
X34471773Y9884223D01*
X34458135Y9877863D01*
X34454268Y9875850D01*
X34442182Y9868872D01*
X34438505Y9866530D01*
X34426179Y9857899D01*
X34424420Y9856609D01*
X34373079Y9817214D01*
X34371378Y9815849D01*
X34359851Y9806177D01*
X34356637Y9803231D01*
X34346769Y9793363D01*
X34343823Y9790149D01*
X34334151Y9778622D01*
X34332786Y9776921D01*
X34293391Y9725580D01*
X34292101Y9723821D01*
X34283470Y9711495D01*
X34281128Y9707818D01*
X34274150Y9695732D01*
X34272137Y9691865D01*
X34265777Y9678227D01*
X34264899Y9676231D01*
X34240134Y9616444D01*
X34239344Y9614411D01*
X34234197Y9600271D01*
X34232886Y9596113D01*
X34229274Y9582632D01*
X34228330Y9578376D01*
X34225718Y9563557D01*
X34225386Y9561401D01*
X34217010Y9497783D01*
X34216690Y9494528D01*
X34215107Y9470383D01*
X34215000Y9467114D01*
X34215000Y8532886D01*
X34215107Y8529617D01*
X34216690Y8505472D01*
X34217010Y8502217D01*
X34225386Y8438599D01*
X34225718Y8436443D01*
X34228330Y8421624D01*
X34229274Y8417368D01*
X34232886Y8403887D01*
X34234197Y8399729D01*
X34239344Y8385589D01*
X34240134Y8383556D01*
X34264899Y8323769D01*
G37*
%LPD*%
%LPC*%
G36*
X31424980Y8126603D02*
X31434307Y8131355D01*
X31444079Y8135106D01*
X31454189Y8137815D01*
X31464527Y8139452D01*
X31474980Y8140000D01*
X32525020Y8140000D01*
X32535473Y8139452D01*
X32545811Y8137815D01*
X32555921Y8135106D01*
X32565693Y8131355D01*
X32575020Y8126603D01*
X32579268Y8124150D01*
X32583135Y8122137D01*
X32596773Y8115777D01*
X32598769Y8114899D01*
X32658556Y8090134D01*
X32660589Y8089344D01*
X32674729Y8084197D01*
X32678887Y8082886D01*
X32692368Y8079274D01*
X32696624Y8078330D01*
X32711443Y8075718D01*
X32713599Y8075386D01*
X32777217Y8067010D01*
X32780472Y8066690D01*
X32804617Y8065107D01*
X32807886Y8065000D01*
X33317114Y8065000D01*
X33320383Y8065107D01*
X33344528Y8066690D01*
X33347783Y8067010D01*
X33411401Y8075386D01*
X33413557Y8075718D01*
X33428376Y8078330D01*
X33432632Y8079274D01*
X33446113Y8082886D01*
X33450271Y8084197D01*
X33464411Y8089344D01*
X33466444Y8090134D01*
X33526231Y8114899D01*
X33528227Y8115777D01*
X33541865Y8122137D01*
X33545732Y8124150D01*
X33557818Y8131128D01*
X33561495Y8133470D01*
X33573821Y8142101D01*
X33575580Y8143391D01*
X33626921Y8182786D01*
X33628622Y8184151D01*
X33640149Y8193823D01*
X33643363Y8196769D01*
X33653231Y8206637D01*
X33656177Y8209851D01*
X33665849Y8221378D01*
X33667214Y8223079D01*
X33706609Y8274420D01*
X33707899Y8276179D01*
X33716530Y8288505D01*
X33718872Y8292182D01*
X33725850Y8304268D01*
X33727863Y8308135D01*
X33734223Y8321773D01*
X33735101Y8323769D01*
X33759866Y8383556D01*
X33760656Y8385589D01*
X33765803Y8399729D01*
X33767114Y8403887D01*
X33770726Y8417368D01*
X33771670Y8421624D01*
X33774282Y8436443D01*
X33774614Y8438599D01*
X33782990Y8502217D01*
X33783310Y8505472D01*
X33784893Y8529617D01*
X33785000Y8532886D01*
X33785000Y9467114D01*
X33784893Y9470383D01*
X33783310Y9494528D01*
X33782990Y9497783D01*
X33774614Y9561401D01*
X33774282Y9563557D01*
X33771670Y9578376D01*
X33770726Y9582632D01*
X33767114Y9596113D01*
X33765803Y9600271D01*
X33760656Y9614411D01*
X33759866Y9616444D01*
X33735101Y9676231D01*
X33734223Y9678227D01*
X33727863Y9691865D01*
X33725850Y9695732D01*
X33718872Y9707818D01*
X33716530Y9711495D01*
X33707899Y9723821D01*
X33706609Y9725580D01*
X33667214Y9776921D01*
X33665849Y9778622D01*
X33656177Y9790149D01*
X33653231Y9793363D01*
X33643363Y9803231D01*
X33640149Y9806177D01*
X33628622Y9815849D01*
X33626921Y9817214D01*
X33575580Y9856609D01*
X33573821Y9857899D01*
X33561495Y9866530D01*
X33557818Y9868872D01*
X33545732Y9875850D01*
X33541865Y9877863D01*
X33528227Y9884223D01*
X33526231Y9885101D01*
X33466444Y9909866D01*
X33464411Y9910656D01*
X33450271Y9915803D01*
X33446113Y9917114D01*
X33432632Y9920726D01*
X33428376Y9921670D01*
X33413557Y9924282D01*
X33411401Y9924614D01*
X33347783Y9932990D01*
X33344528Y9933310D01*
X33320383Y9934893D01*
X33317114Y9935000D01*
X32807886Y9935000D01*
X32804617Y9934893D01*
X32780472Y9933310D01*
X32777217Y9932990D01*
X32713599Y9924614D01*
X32711443Y9924282D01*
X32696624Y9921670D01*
X32692368Y9920726D01*
X32678887Y9917114D01*
X32674729Y9915803D01*
X32660589Y9910656D01*
X32658556Y9909866D01*
X32598769Y9885101D01*
X32596773Y9884223D01*
X32583135Y9877863D01*
X32579268Y9875850D01*
X32567182Y9868872D01*
X32563505Y9866530D01*
X32551179Y9857899D01*
X32549420Y9856609D01*
X32498079Y9817214D01*
X32496378Y9815849D01*
X32484851Y9806177D01*
X32481637Y9803231D01*
X32471769Y9793363D01*
X32468823Y9790149D01*
X32459151Y9778622D01*
X32457786Y9776921D01*
X32418391Y9725580D01*
X32417101Y9723821D01*
X32408470Y9711495D01*
X32406128Y9707818D01*
X32399150Y9695732D01*
X32397137Y9691865D01*
X32390777Y9678227D01*
X32389899Y9676231D01*
X32365134Y9616444D01*
X32364344Y9614411D01*
X32359197Y9600271D01*
X32357886Y9596113D01*
X32354274Y9582632D01*
X32353330Y9578376D01*
X32350718Y9563557D01*
X32350386Y9561401D01*
X32342010Y9497783D01*
X32341690Y9494528D01*
X32340107Y9470383D01*
X32340000Y9467114D01*
X32340000Y8960000D01*
X32339518Y8950198D01*
X32338079Y8940491D01*
X32335694Y8930972D01*
X32332388Y8921732D01*
X32328192Y8912860D01*
X32323147Y8904443D01*
X32317301Y8896561D01*
X32310711Y8889289D01*
X32303439Y8882699D01*
X32295557Y8876853D01*
X32287140Y8871808D01*
X32278268Y8867612D01*
X32269028Y8864306D01*
X32259509Y8861921D01*
X32249802Y8860482D01*
X32240000Y8860000D01*
X31760000Y8860000D01*
X31750198Y8860482D01*
X31740491Y8861921D01*
X31730972Y8864306D01*
X31721732Y8867612D01*
X31712860Y8871808D01*
X31704443Y8876853D01*
X31696561Y8882699D01*
X31689289Y8889289D01*
X31682699Y8896561D01*
X31676853Y8904443D01*
X31671808Y8912860D01*
X31667612Y8921732D01*
X31664306Y8930972D01*
X31661921Y8940491D01*
X31660482Y8950198D01*
X31660000Y8960000D01*
X31660000Y9467114D01*
X31659893Y9470383D01*
X31658310Y9494528D01*
X31657990Y9497783D01*
X31649614Y9561401D01*
X31649282Y9563557D01*
X31646670Y9578376D01*
X31645726Y9582632D01*
X31642114Y9596113D01*
X31640803Y9600271D01*
X31635656Y9614411D01*
X31634866Y9616444D01*
X31610101Y9676231D01*
X31609223Y9678227D01*
X31602863Y9691865D01*
X31600850Y9695732D01*
X31593872Y9707818D01*
X31591530Y9711495D01*
X31582899Y9723821D01*
X31581609Y9725580D01*
X31542214Y9776921D01*
X31540849Y9778622D01*
X31531177Y9790149D01*
X31528231Y9793363D01*
X31518363Y9803231D01*
X31515149Y9806177D01*
X31503622Y9815849D01*
X31501921Y9817214D01*
X31450580Y9856609D01*
X31448821Y9857899D01*
X31436495Y9866530D01*
X31432818Y9868872D01*
X31420732Y9875850D01*
X31416865Y9877863D01*
X31403227Y9884223D01*
X31401231Y9885101D01*
X31341444Y9909866D01*
X31339411Y9910656D01*
X31325271Y9915803D01*
X31321113Y9917114D01*
X31307632Y9920726D01*
X31303376Y9921670D01*
X31288557Y9924282D01*
X31286401Y9924614D01*
X31222783Y9932990D01*
X31219528Y9933310D01*
X31195383Y9934893D01*
X31192114Y9935000D01*
X30682886Y9935000D01*
X30679617Y9934893D01*
X30655472Y9933310D01*
X30652217Y9932990D01*
X30588599Y9924614D01*
X30586443Y9924282D01*
X30571624Y9921670D01*
X30567368Y9920726D01*
X30553887Y9917114D01*
X30549729Y9915803D01*
X30535589Y9910656D01*
X30533556Y9909866D01*
X30473769Y9885101D01*
X30471773Y9884223D01*
X30458135Y9877863D01*
X30454268Y9875850D01*
X30442182Y9868872D01*
X30438505Y9866530D01*
X30426179Y9857899D01*
X30424420Y9856609D01*
X30373079Y9817214D01*
X30371378Y9815849D01*
X30359851Y9806177D01*
X30356637Y9803231D01*
X30346769Y9793363D01*
X30343823Y9790149D01*
X30334151Y9778622D01*
X30332786Y9776921D01*
X30293391Y9725580D01*
X30292101Y9723821D01*
X30283470Y9711495D01*
X30281128Y9707818D01*
X30274150Y9695732D01*
X30272137Y9691865D01*
X30265777Y9678227D01*
X30264899Y9676231D01*
X30240134Y9616444D01*
X30239344Y9614411D01*
X30234197Y9600271D01*
X30232886Y9596113D01*
X30229274Y9582632D01*
X30228330Y9578376D01*
X30225718Y9563557D01*
X30225386Y9561401D01*
X30217010Y9497783D01*
X30216690Y9494528D01*
X30215107Y9470383D01*
X30215000Y9467114D01*
X30215000Y8532886D01*
X30215107Y8529617D01*
X30216690Y8505472D01*
X30217010Y8502217D01*
X30225386Y8438599D01*
X30225718Y8436443D01*
X30228330Y8421624D01*
X30229274Y8417368D01*
X30232886Y8403887D01*
X30234197Y8399729D01*
X30239344Y8385589D01*
X30240134Y8383556D01*
X30264899Y8323769D01*
X30265777Y8321773D01*
X30272137Y8308135D01*
X30274150Y8304268D01*
X30281128Y8292182D01*
X30283470Y8288505D01*
X30292101Y8276179D01*
X30293391Y8274420D01*
X30332786Y8223079D01*
X30334151Y8221378D01*
X30343823Y8209851D01*
X30346769Y8206637D01*
X30356637Y8196769D01*
X30359851Y8193823D01*
X30371378Y8184151D01*
X30373079Y8182786D01*
X30424420Y8143391D01*
X30426179Y8142101D01*
X30438505Y8133470D01*
X30442182Y8131128D01*
X30454268Y8124150D01*
X30458135Y8122137D01*
X30471773Y8115777D01*
X30473769Y8114899D01*
X30533556Y8090134D01*
X30535589Y8089344D01*
X30549729Y8084197D01*
X30553887Y8082886D01*
X30567368Y8079274D01*
X30571624Y8078330D01*
X30586443Y8075718D01*
X30588599Y8075386D01*
X30652217Y8067010D01*
X30655472Y8066690D01*
X30679617Y8065107D01*
X30682886Y8065000D01*
X31192114Y8065000D01*
X31195383Y8065107D01*
X31219528Y8066690D01*
X31222783Y8067010D01*
X31286401Y8075386D01*
X31288557Y8075718D01*
X31303376Y8078330D01*
X31307632Y8079274D01*
X31321113Y8082886D01*
X31325271Y8084197D01*
X31339411Y8089344D01*
X31341444Y8090134D01*
X31401231Y8114899D01*
X31403227Y8115777D01*
X31416865Y8122137D01*
X31420732Y8124150D01*
X31424980Y8126603D01*
G37*
%LPD*%
%LPC*%
G36*
X15893474Y10898848D02*
X15904345Y10899680D01*
X15915242Y10899323D01*
X15926036Y10897782D01*
X15932196Y10896557D01*
X15948939Y10894073D01*
X15951374Y10893773D01*
X15978195Y10891131D01*
X15980642Y10890951D01*
X15998774Y10890060D01*
X16001227Y10890000D01*
X16809462Y10890000D01*
X16819263Y10889518D01*
X16828971Y10888079D01*
X16838490Y10885694D01*
X16847730Y10882388D01*
X16856601Y10878192D01*
X16865019Y10873147D01*
X16872901Y10867301D01*
X16880172Y10860711D01*
X17244574Y10496309D01*
X17246351Y10494617D01*
X17259802Y10482426D01*
X17261660Y10480823D01*
X17282493Y10463726D01*
X17284428Y10462216D01*
X17298023Y10452133D01*
X17302100Y10449409D01*
X17316619Y10440707D01*
X17318753Y10439498D01*
X17342522Y10426793D01*
X17344714Y10425690D01*
X17360015Y10418453D01*
X17364545Y10416576D01*
X17380482Y10410874D01*
X17382812Y10410104D01*
X17408602Y10402281D01*
X17410967Y10401627D01*
X17427386Y10397514D01*
X17432196Y10396557D01*
X17448939Y10394073D01*
X17451374Y10393773D01*
X17478195Y10391131D01*
X17480642Y10390951D01*
X17498774Y10390060D01*
X17501227Y10390000D01*
X21748773Y10390000D01*
X21751226Y10390060D01*
X21769358Y10390951D01*
X21771805Y10391131D01*
X21798626Y10393773D01*
X21801061Y10394073D01*
X21817804Y10396557D01*
X21822614Y10397514D01*
X21839033Y10401627D01*
X21841398Y10402281D01*
X21867188Y10410104D01*
X21869518Y10410874D01*
X21885455Y10416576D01*
X21889985Y10418453D01*
X21905286Y10425690D01*
X21907478Y10426793D01*
X21931247Y10439498D01*
X21933381Y10440707D01*
X21947900Y10449409D01*
X21951977Y10452133D01*
X21965572Y10462216D01*
X21967507Y10463726D01*
X21988340Y10480823D01*
X21990198Y10482426D01*
X22003649Y10494617D01*
X22005426Y10496309D01*
X22550108Y11040992D01*
X22557661Y11047812D01*
X22565868Y11053830D01*
X22574644Y11058982D01*
X22583899Y11063216D01*
X22593535Y11066487D01*
X22603454Y11068762D01*
X22613553Y11070017D01*
X22623728Y11070239D01*
X22633872Y11069425D01*
X22652217Y11067010D01*
X22655472Y11066690D01*
X22679617Y11065107D01*
X22682886Y11065000D01*
X23192114Y11065000D01*
X23195383Y11065107D01*
X23219528Y11066690D01*
X23222783Y11067010D01*
X23286401Y11075386D01*
X23288557Y11075718D01*
X23303376Y11078330D01*
X23307632Y11079274D01*
X23321113Y11082886D01*
X23325271Y11084197D01*
X23339411Y11089344D01*
X23341444Y11090134D01*
X23401231Y11114899D01*
X23403227Y11115777D01*
X23416865Y11122137D01*
X23420732Y11124150D01*
X23432818Y11131128D01*
X23436495Y11133470D01*
X23448821Y11142101D01*
X23450580Y11143391D01*
X23501921Y11182786D01*
X23503622Y11184151D01*
X23515149Y11193823D01*
X23518363Y11196769D01*
X23528231Y11206637D01*
X23531177Y11209851D01*
X23540849Y11221378D01*
X23542214Y11223079D01*
X23581609Y11274420D01*
X23582899Y11276179D01*
X23591530Y11288505D01*
X23593872Y11292182D01*
X23600850Y11304268D01*
X23602863Y11308135D01*
X23609223Y11321773D01*
X23610101Y11323769D01*
X23634866Y11383556D01*
X23635656Y11385589D01*
X23640803Y11399729D01*
X23642114Y11403887D01*
X23645726Y11417368D01*
X23646670Y11421624D01*
X23649282Y11436443D01*
X23649614Y11438599D01*
X23657990Y11502217D01*
X23658310Y11505472D01*
X23659893Y11529617D01*
X23660000Y11532886D01*
X23660000Y12467114D01*
X23659893Y12470383D01*
X23658310Y12494528D01*
X23657990Y12497783D01*
X23649614Y12561401D01*
X23649282Y12563557D01*
X23646670Y12578376D01*
X23645726Y12582632D01*
X23642114Y12596113D01*
X23640803Y12600271D01*
X23635656Y12614411D01*
X23634866Y12616444D01*
X23617612Y12658098D01*
X23614306Y12667338D01*
X23611921Y12676857D01*
X23610482Y12686564D01*
X23610000Y12696366D01*
X23610000Y13059462D01*
X23610482Y13069263D01*
X23611921Y13078971D01*
X23614306Y13088490D01*
X23617612Y13097730D01*
X23621808Y13106601D01*
X23626853Y13115019D01*
X23632699Y13122901D01*
X23639289Y13130172D01*
X24253691Y13744574D01*
X24255383Y13746351D01*
X24267574Y13759802D01*
X24269177Y13761660D01*
X24286274Y13782493D01*
X24287784Y13784428D01*
X24297867Y13798023D01*
X24300591Y13802100D01*
X24309293Y13816619D01*
X24310502Y13818753D01*
X24323207Y13842522D01*
X24324310Y13844714D01*
X24331547Y13860015D01*
X24333424Y13864545D01*
X24339126Y13880482D01*
X24339896Y13882812D01*
X24347719Y13908602D01*
X24348373Y13910967D01*
X24352486Y13927386D01*
X24353443Y13932196D01*
X24355927Y13948939D01*
X24356227Y13951374D01*
X24358869Y13978195D01*
X24359049Y13980642D01*
X24359940Y13998774D01*
X24360000Y14001227D01*
X24360000Y14059462D01*
X24360482Y14069263D01*
X24361921Y14078971D01*
X24364306Y14088490D01*
X24367612Y14097730D01*
X24371808Y14106601D01*
X24376853Y14115019D01*
X24382699Y14122901D01*
X24389289Y14130172D01*
X24569828Y14310711D01*
X24577099Y14317301D01*
X24584981Y14323147D01*
X24593399Y14328192D01*
X24602270Y14332388D01*
X24611510Y14335694D01*
X24621029Y14338079D01*
X24630737Y14339518D01*
X24640538Y14340000D01*
X25467114Y14340000D01*
X25470383Y14340107D01*
X25494528Y14341690D01*
X25497783Y14342010D01*
X25561401Y14350386D01*
X25563557Y14350718D01*
X25578376Y14353330D01*
X25582632Y14354274D01*
X25596113Y14357886D01*
X25600271Y14359197D01*
X25614411Y14364344D01*
X25616444Y14365134D01*
X25676231Y14389899D01*
X25678227Y14390777D01*
X25691865Y14397137D01*
X25695732Y14399150D01*
X25707818Y14406128D01*
X25711495Y14408470D01*
X25723821Y14417101D01*
X25725580Y14418391D01*
X25776921Y14457786D01*
X25778622Y14459151D01*
X25790149Y14468823D01*
X25793363Y14471769D01*
X25803231Y14481637D01*
X25806177Y14484851D01*
X25815849Y14496378D01*
X25817214Y14498079D01*
X25856609Y14549420D01*
X25857899Y14551179D01*
X25866530Y14563505D01*
X25868872Y14567182D01*
X25875850Y14579268D01*
X25877863Y14583135D01*
X25884223Y14596773D01*
X25885101Y14598769D01*
X25909866Y14658556D01*
X25910656Y14660589D01*
X25915803Y14674729D01*
X25917114Y14678887D01*
X25920726Y14692368D01*
X25921670Y14696624D01*
X25924282Y14711443D01*
X25924614Y14713599D01*
X25932990Y14777217D01*
X25933310Y14780472D01*
X25934893Y14804617D01*
X25935000Y14807886D01*
X25935000Y15317114D01*
X25934893Y15320383D01*
X25933310Y15344528D01*
X25932990Y15347783D01*
X25924614Y15411401D01*
X25924282Y15413557D01*
X25921670Y15428376D01*
X25920726Y15432632D01*
X25917114Y15446113D01*
X25915803Y15450271D01*
X25910656Y15464411D01*
X25909866Y15466444D01*
X25885101Y15526231D01*
X25884223Y15528227D01*
X25877863Y15541865D01*
X25875850Y15545732D01*
X25868872Y15557818D01*
X25866530Y15561495D01*
X25857899Y15573821D01*
X25856609Y15575580D01*
X25817214Y15626921D01*
X25816823Y15627408D01*
X25811090Y15635314D01*
X25806155Y15643741D01*
X25802065Y15652610D01*
X25798860Y15661835D01*
X25796570Y15671329D01*
X25795218Y15681001D01*
X25794815Y15690759D01*
X25795366Y15700509D01*
X25796865Y15710160D01*
X25799299Y15719618D01*
X25802643Y15728794D01*
X25806867Y15737599D01*
X25811929Y15745951D01*
X25817782Y15753769D01*
X25824370Y15760978D01*
X25831630Y15767511D01*
X25839492Y15773305D01*
X25847882Y15778304D01*
X25856719Y15782460D01*
X25865920Y15785735D01*
X25875396Y15788097D01*
X25885057Y15789523D01*
X25894812Y15790000D01*
X28498773Y15790000D01*
X28501226Y15790060D01*
X28519358Y15790951D01*
X28521805Y15791131D01*
X28665680Y15805302D01*
X28668115Y15805602D01*
X28684858Y15808086D01*
X28689668Y15809043D01*
X28706087Y15813155D01*
X28708452Y15813810D01*
X28846798Y15855777D01*
X28849128Y15856546D01*
X28865065Y15862249D01*
X28869595Y15864125D01*
X28884896Y15871362D01*
X28887088Y15872465D01*
X29014589Y15940616D01*
X29016724Y15941825D01*
X29031242Y15950527D01*
X29035319Y15953252D01*
X29048915Y15963335D01*
X29050849Y15964844D01*
X29053843Y15967301D01*
X29061725Y15973147D01*
X29070142Y15978192D01*
X29079014Y15982388D01*
X29088254Y15985694D01*
X29097773Y15988079D01*
X29107480Y15989518D01*
X29117282Y15990000D01*
X30048773Y15990000D01*
X30051226Y15990060D01*
X30068132Y15990891D01*
X30073012Y15991371D01*
X30088541Y15993675D01*
X30093350Y15994632D01*
X30108578Y15998446D01*
X30113271Y15999870D01*
X30128052Y16005158D01*
X30132583Y16007035D01*
X30146774Y16013747D01*
X30151099Y16016059D01*
X30164564Y16024129D01*
X30168642Y16026854D01*
X30181251Y16036205D01*
X30185042Y16039316D01*
X30196673Y16049859D01*
X30200141Y16053327D01*
X30210684Y16064958D01*
X30213795Y16068749D01*
X30223146Y16081358D01*
X30225871Y16085436D01*
X30233941Y16098901D01*
X30236253Y16103226D01*
X30242965Y16117417D01*
X30244842Y16121948D01*
X30250130Y16136729D01*
X30251554Y16141422D01*
X30255368Y16156650D01*
X30256325Y16161459D01*
X30258629Y16176988D01*
X30259109Y16181868D01*
X30259940Y16198774D01*
X30260000Y16201227D01*
X30260000Y17798773D01*
X30259940Y17801226D01*
X30259109Y17818132D01*
X30258629Y17823012D01*
X30256325Y17838541D01*
X30255368Y17843350D01*
X30251554Y17858578D01*
X30250130Y17863271D01*
X30244842Y17878052D01*
X30242965Y17882583D01*
X30236253Y17896774D01*
X30233941Y17901099D01*
X30225871Y17914564D01*
X30223146Y17918642D01*
X30213795Y17931251D01*
X30210684Y17935042D01*
X30200141Y17946673D01*
X30196673Y17950141D01*
X30185042Y17960684D01*
X30181251Y17963795D01*
X30168642Y17973146D01*
X30164564Y17975871D01*
X30151099Y17983941D01*
X30146774Y17986253D01*
X30132583Y17992965D01*
X30128052Y17994842D01*
X30113271Y18000130D01*
X30108578Y18001554D01*
X30093350Y18005368D01*
X30088541Y18006325D01*
X30073012Y18008629D01*
X30068132Y18009109D01*
X30051226Y18009940D01*
X30048773Y18010000D01*
X28451227Y18010000D01*
X28448774Y18009940D01*
X28431868Y18009109D01*
X28426988Y18008629D01*
X28411459Y18006325D01*
X28406650Y18005368D01*
X28391422Y18001554D01*
X28386729Y18000130D01*
X28371948Y17994842D01*
X28367417Y17992965D01*
X28353226Y17986253D01*
X28348901Y17983941D01*
X28335436Y17975871D01*
X28331358Y17973146D01*
X28318749Y17963795D01*
X28314958Y17960684D01*
X28303327Y17950141D01*
X28299859Y17946673D01*
X28289316Y17935042D01*
X28286205Y17931251D01*
X28276854Y17918642D01*
X28274129Y17914564D01*
X28266059Y17901099D01*
X28263747Y17896774D01*
X28257035Y17882583D01*
X28255158Y17878052D01*
X28249870Y17863271D01*
X28248446Y17858578D01*
X28244632Y17843350D01*
X28243675Y17838541D01*
X28241371Y17823012D01*
X28240891Y17818132D01*
X28240250Y17805093D01*
X28239240Y17795003D01*
X28237213Y17785068D01*
X28234190Y17775388D01*
X28230202Y17766065D01*
X28225291Y17757193D01*
X28219506Y17748865D01*
X28212908Y17741165D01*
X28205564Y17734172D01*
X28197549Y17727960D01*
X28188947Y17722591D01*
X28179845Y17718121D01*
X28170337Y17714596D01*
X28160521Y17712051D01*
X28150498Y17710514D01*
X28140371Y17710000D01*
X25501227Y17710000D01*
X25498774Y17709940D01*
X25480642Y17709049D01*
X25478195Y17708869D01*
X25334320Y17694698D01*
X25331885Y17694398D01*
X25315142Y17691914D01*
X25310332Y17690957D01*
X25293913Y17686845D01*
X25291548Y17686190D01*
X25219405Y17664306D01*
X25209886Y17661921D01*
X25200179Y17660482D01*
X25190377Y17660000D01*
X24879335Y17660000D01*
X24870022Y17660435D01*
X24860790Y17661735D01*
X24851719Y17663889D01*
X24842888Y17666879D01*
X24834374Y17670678D01*
X24826250Y17675253D01*
X24818589Y17680565D01*
X24811455Y17686568D01*
X24804911Y17693209D01*
X24799014Y17700430D01*
X24787784Y17715572D01*
X24786274Y17717507D01*
X24769177Y17738340D01*
X24767574Y17740198D01*
X24755383Y17753649D01*
X24753691Y17755426D01*
X24389289Y18119828D01*
X24382699Y18127099D01*
X24376853Y18134981D01*
X24371808Y18143399D01*
X24367612Y18152270D01*
X24364306Y18161510D01*
X24361921Y18171029D01*
X24360482Y18180737D01*
X24360000Y18190538D01*
X24360000Y20998773D01*
X24359940Y21001226D01*
X24359049Y21019358D01*
X24358869Y21021805D01*
X24356227Y21048626D01*
X24355927Y21051061D01*
X24353443Y21067804D01*
X24352486Y21072614D01*
X24348373Y21089033D01*
X24347719Y21091398D01*
X24339896Y21117188D01*
X24339126Y21119518D01*
X24333424Y21135455D01*
X24331547Y21139985D01*
X24324310Y21155286D01*
X24323207Y21157478D01*
X24310502Y21181247D01*
X24309293Y21183381D01*
X24300591Y21197900D01*
X24297867Y21201977D01*
X24287784Y21215572D01*
X24286274Y21217507D01*
X24269177Y21238340D01*
X24267574Y21240198D01*
X24255383Y21253649D01*
X24253691Y21255426D01*
X24139289Y21369828D01*
X24132699Y21377099D01*
X24126853Y21384981D01*
X24121808Y21393399D01*
X24117612Y21402270D01*
X24114306Y21411510D01*
X24111921Y21421029D01*
X24110482Y21430737D01*
X24110000Y21440538D01*
X24110000Y22748773D01*
X24109940Y22751226D01*
X24109049Y22769358D01*
X24108869Y22771805D01*
X24106227Y22798626D01*
X24105927Y22801061D01*
X24103443Y22817804D01*
X24102486Y22822614D01*
X24098373Y22839033D01*
X24097719Y22841398D01*
X24089896Y22867188D01*
X24089126Y22869518D01*
X24083424Y22885455D01*
X24081547Y22889985D01*
X24074310Y22905286D01*
X24073207Y22907478D01*
X24060502Y22931247D01*
X24059293Y22933381D01*
X24050591Y22947900D01*
X24047867Y22951977D01*
X24037784Y22965572D01*
X24036274Y22967507D01*
X24019177Y22988340D01*
X24017574Y22990198D01*
X24005383Y23003649D01*
X24003691Y23005426D01*
X22979650Y24029467D01*
X22972900Y24036933D01*
X22966935Y24045040D01*
X22961815Y24053705D01*
X22957592Y24062841D01*
X22954309Y24072356D01*
X22951999Y24082152D01*
X22950685Y24092131D01*
X22950381Y24102191D01*
X22951090Y24112231D01*
X22952804Y24122149D01*
X22955507Y24131844D01*
X22959171Y24141219D01*
X22963758Y24150177D01*
X22966948Y24155702D01*
X22968490Y24158587D01*
X23019111Y24261237D01*
X23020461Y24264216D01*
X23029721Y24286571D01*
X23030873Y24289632D01*
X23067663Y24398011D01*
X23068612Y24401141D01*
X23074875Y24424513D01*
X23075617Y24427699D01*
X23097946Y24539953D01*
X23098479Y24543180D01*
X23101637Y24567169D01*
X23101958Y24570425D01*
X23109497Y24685449D01*
X23109577Y24687083D01*
X23109973Y24699182D01*
X23110000Y24700818D01*
X23110000Y25299182D01*
X23109973Y25300818D01*
X23109577Y25312917D01*
X23109497Y25314551D01*
X23101958Y25429575D01*
X23101637Y25432831D01*
X23098479Y25456820D01*
X23097946Y25460047D01*
X23075617Y25572301D01*
X23074875Y25575487D01*
X23068612Y25598859D01*
X23067663Y25601989D01*
X23030873Y25710368D01*
X23029721Y25713429D01*
X23020461Y25735784D01*
X23019111Y25738763D01*
X22968490Y25841413D01*
X22966948Y25844298D01*
X22954850Y25865253D01*
X22953122Y25868030D01*
X22889536Y25963194D01*
X22887630Y25965853D01*
X22872901Y25985050D01*
X22870825Y25987578D01*
X22795361Y26073628D01*
X22793125Y26076016D01*
X22776016Y26093125D01*
X22773628Y26095361D01*
X22687578Y26170825D01*
X22685050Y26172901D01*
X22665853Y26187630D01*
X22663194Y26189536D01*
X22568030Y26253122D01*
X22565253Y26254850D01*
X22544298Y26266948D01*
X22541413Y26268490D01*
X22438763Y26319111D01*
X22435784Y26320461D01*
X22413429Y26329721D01*
X22410368Y26330873D01*
X22301989Y26367663D01*
X22298859Y26368612D01*
X22275487Y26374875D01*
X22272301Y26375617D01*
X22160047Y26397946D01*
X22156820Y26398479D01*
X22132831Y26401637D01*
X22129575Y26401958D01*
X22015368Y26409443D01*
X22012098Y26409550D01*
X21987902Y26409550D01*
X21984632Y26409443D01*
X21870425Y26401958D01*
X21867169Y26401637D01*
X21843180Y26398479D01*
X21839953Y26397946D01*
X21727699Y26375617D01*
X21724513Y26374875D01*
X21701141Y26368612D01*
X21698011Y26367663D01*
X21589632Y26330873D01*
X21586571Y26329721D01*
X21564216Y26320461D01*
X21561237Y26319111D01*
X21458587Y26268490D01*
X21455702Y26266948D01*
X21434747Y26254850D01*
X21431970Y26253122D01*
X21336806Y26189536D01*
X21334147Y26187630D01*
X21314950Y26172901D01*
X21312422Y26170825D01*
X21226372Y26095361D01*
X21223984Y26093125D01*
X21206875Y26076016D01*
X21204639Y26073628D01*
X21129175Y25987578D01*
X21127099Y25985050D01*
X21112370Y25965853D01*
X21110464Y25963194D01*
X21046878Y25868030D01*
X21045150Y25865253D01*
X21033052Y25844298D01*
X21031510Y25841413D01*
X20980889Y25738763D01*
X20979539Y25735784D01*
X20970279Y25713429D01*
X20969127Y25710368D01*
X20932337Y25601989D01*
X20931388Y25598859D01*
X20925125Y25575487D01*
X20924383Y25572301D01*
X20902054Y25460047D01*
X20901521Y25456820D01*
X20898363Y25432831D01*
X20898042Y25429575D01*
X20890503Y25314551D01*
X20890423Y25312917D01*
X20890027Y25300818D01*
X20890000Y25299182D01*
X20890000Y24700818D01*
X20890027Y24699182D01*
X20890423Y24687083D01*
X20890503Y24685449D01*
X20898042Y24570425D01*
X20898363Y24567169D01*
X20901521Y24543180D01*
X20902054Y24539953D01*
X20924383Y24427699D01*
X20925125Y24424513D01*
X20931388Y24401141D01*
X20932337Y24398011D01*
X20969127Y24289632D01*
X20970279Y24286571D01*
X20979539Y24264216D01*
X20980889Y24261237D01*
X21031510Y24158587D01*
X21033052Y24155702D01*
X21045150Y24134747D01*
X21046878Y24131970D01*
X21110464Y24036806D01*
X21112370Y24034147D01*
X21127099Y24014950D01*
X21129175Y24012422D01*
X21204639Y23926372D01*
X21206875Y23923984D01*
X21223984Y23906875D01*
X21226372Y23904639D01*
X21312422Y23829175D01*
X21314950Y23827099D01*
X21334147Y23812370D01*
X21336806Y23810464D01*
X21431970Y23746878D01*
X21434747Y23745150D01*
X21455702Y23733052D01*
X21458587Y23731510D01*
X21561237Y23680889D01*
X21564216Y23679539D01*
X21586571Y23670279D01*
X21589632Y23669127D01*
X21698011Y23632337D01*
X21701141Y23631388D01*
X21724513Y23625125D01*
X21727699Y23624383D01*
X21839953Y23602054D01*
X21843180Y23601521D01*
X21867169Y23598363D01*
X21870425Y23598042D01*
X21984632Y23590557D01*
X21987902Y23590450D01*
X22012098Y23590450D01*
X22015368Y23590557D01*
X22129575Y23598042D01*
X22132831Y23598363D01*
X22156820Y23601521D01*
X22160047Y23602054D01*
X22272301Y23624383D01*
X22275487Y23625125D01*
X22290913Y23629259D01*
X22300212Y23631282D01*
X22309661Y23632412D01*
X22319175Y23632638D01*
X22328667Y23631959D01*
X22338052Y23630381D01*
X22347244Y23627918D01*
X22356160Y23624592D01*
X22364720Y23620434D01*
X22372846Y23615481D01*
X22380464Y23609778D01*
X22387506Y23603377D01*
X23360711Y22630172D01*
X23367301Y22622901D01*
X23373147Y22615019D01*
X23378192Y22606601D01*
X23382388Y22597730D01*
X23385694Y22588490D01*
X23388079Y22578971D01*
X23389518Y22569263D01*
X23390000Y22559462D01*
X23390000Y21251227D01*
X23390060Y21248774D01*
X23390951Y21230642D01*
X23391131Y21228195D01*
X23393773Y21201374D01*
X23394073Y21198939D01*
X23396557Y21182196D01*
X23397514Y21177386D01*
X23401627Y21160967D01*
X23402281Y21158602D01*
X23410104Y21132812D01*
X23410874Y21130482D01*
X23416576Y21114545D01*
X23418453Y21110015D01*
X23425690Y21094714D01*
X23426793Y21092522D01*
X23439498Y21068753D01*
X23440707Y21066619D01*
X23449409Y21052100D01*
X23452133Y21048023D01*
X23462216Y21034428D01*
X23463726Y21032493D01*
X23480823Y21011660D01*
X23482426Y21009802D01*
X23494617Y20996351D01*
X23496309Y20994574D01*
X23610711Y20880172D01*
X23617301Y20872901D01*
X23623147Y20865019D01*
X23628192Y20856601D01*
X23632388Y20847730D01*
X23635694Y20838490D01*
X23638079Y20828971D01*
X23639518Y20819263D01*
X23640000Y20809462D01*
X23640000Y20360538D01*
X23639518Y20350737D01*
X23638079Y20341029D01*
X23635694Y20331510D01*
X23632388Y20322270D01*
X23628192Y20313399D01*
X23623147Y20304981D01*
X23617301Y20297099D01*
X23610711Y20289828D01*
X23603439Y20283237D01*
X23595557Y20277391D01*
X23587140Y20272346D01*
X23578268Y20268150D01*
X23569028Y20264844D01*
X23559509Y20262460D01*
X23549802Y20261020D01*
X23540000Y20260538D01*
X23530198Y20261020D01*
X23520491Y20262460D01*
X23510972Y20264844D01*
X23501732Y20268150D01*
X23492860Y20272346D01*
X23484443Y20277391D01*
X23476561Y20283237D01*
X23469289Y20289828D01*
X20889289Y22869828D01*
X20882699Y22877099D01*
X20876853Y22884981D01*
X20871808Y22893399D01*
X20867612Y22902270D01*
X20864306Y22911510D01*
X20861921Y22921029D01*
X20860482Y22930737D01*
X20860000Y22940538D01*
X20860000Y23748773D01*
X20859940Y23751226D01*
X20859049Y23769358D01*
X20858869Y23771805D01*
X20856227Y23798626D01*
X20855927Y23801061D01*
X20853443Y23817804D01*
X20852486Y23822614D01*
X20848373Y23839033D01*
X20847719Y23841398D01*
X20839896Y23867188D01*
X20839126Y23869518D01*
X20833424Y23885455D01*
X20831547Y23889985D01*
X20824310Y23905286D01*
X20823207Y23907478D01*
X20810502Y23931247D01*
X20809293Y23933381D01*
X20800591Y23947900D01*
X20797867Y23951977D01*
X20787784Y23965572D01*
X20786274Y23967507D01*
X20769177Y23988340D01*
X20767574Y23990198D01*
X20755383Y24003649D01*
X20753691Y24005426D01*
X20599289Y24159828D01*
X20592699Y24167099D01*
X20586853Y24174981D01*
X20581808Y24183399D01*
X20577612Y24192270D01*
X20574306Y24201510D01*
X20571921Y24211029D01*
X20570482Y24220737D01*
X20570000Y24230538D01*
X20570000Y26198773D01*
X20569940Y26201226D01*
X20569109Y26218132D01*
X20568629Y26223012D01*
X20566325Y26238541D01*
X20565368Y26243350D01*
X20561554Y26258578D01*
X20560130Y26263271D01*
X20554842Y26278052D01*
X20552965Y26282583D01*
X20546253Y26296774D01*
X20543941Y26301099D01*
X20535871Y26314564D01*
X20533146Y26318642D01*
X20523795Y26331251D01*
X20520684Y26335042D01*
X20510141Y26346673D01*
X20506673Y26350141D01*
X20495042Y26360684D01*
X20491251Y26363795D01*
X20478642Y26373146D01*
X20474564Y26375871D01*
X20461099Y26383941D01*
X20456774Y26386253D01*
X20442583Y26392965D01*
X20438052Y26394842D01*
X20423271Y26400130D01*
X20418578Y26401554D01*
X20403350Y26405368D01*
X20398541Y26406325D01*
X20383012Y26408629D01*
X20378132Y26409109D01*
X20361226Y26409940D01*
X20358773Y26410000D01*
X18561227Y26410000D01*
X18558774Y26409940D01*
X18541868Y26409109D01*
X18536988Y26408629D01*
X18521459Y26406325D01*
X18516650Y26405368D01*
X18501422Y26401554D01*
X18496729Y26400130D01*
X18481948Y26394842D01*
X18477417Y26392965D01*
X18463226Y26386253D01*
X18458901Y26383941D01*
X18445436Y26375871D01*
X18441358Y26373146D01*
X18428749Y26363795D01*
X18424958Y26360684D01*
X18413327Y26350141D01*
X18409859Y26346673D01*
X18399316Y26335042D01*
X18396205Y26331251D01*
X18386854Y26318642D01*
X18384129Y26314564D01*
X18376059Y26301099D01*
X18373747Y26296774D01*
X18367035Y26282583D01*
X18365158Y26278052D01*
X18359870Y26263271D01*
X18358446Y26258578D01*
X18354632Y26243350D01*
X18353675Y26238541D01*
X18351371Y26223012D01*
X18350891Y26218132D01*
X18350060Y26201226D01*
X18350000Y26198773D01*
X18350000Y23801227D01*
X18350060Y23798774D01*
X18350891Y23781868D01*
X18351371Y23776988D01*
X18353675Y23761459D01*
X18354632Y23756650D01*
X18358446Y23741422D01*
X18359870Y23736729D01*
X18365158Y23721948D01*
X18367035Y23717417D01*
X18373747Y23703226D01*
X18376059Y23698901D01*
X18384129Y23685436D01*
X18386854Y23681358D01*
X18396205Y23668749D01*
X18399316Y23664958D01*
X18409859Y23653327D01*
X18413327Y23649859D01*
X18424958Y23639316D01*
X18428749Y23636205D01*
X18441358Y23626854D01*
X18445436Y23624129D01*
X18458901Y23616059D01*
X18463226Y23613747D01*
X18477417Y23607035D01*
X18481948Y23605158D01*
X18496729Y23599870D01*
X18501422Y23598446D01*
X18516650Y23594632D01*
X18521459Y23593675D01*
X18536988Y23591371D01*
X18541868Y23590891D01*
X18558774Y23590060D01*
X18561227Y23590000D01*
X20040000Y23590000D01*
X20049802Y23589518D01*
X20059509Y23588079D01*
X20069028Y23585694D01*
X20078268Y23582388D01*
X20087140Y23578192D01*
X20095557Y23573147D01*
X20103439Y23567301D01*
X20110711Y23560711D01*
X20117301Y23553439D01*
X20123147Y23545557D01*
X20128192Y23537140D01*
X20132388Y23528268D01*
X20135694Y23519028D01*
X20138079Y23509509D01*
X20139518Y23499802D01*
X20140000Y23490000D01*
X20140000Y22751227D01*
X20140060Y22748774D01*
X20140951Y22730642D01*
X20141131Y22728195D01*
X20143773Y22701374D01*
X20144073Y22698939D01*
X20146557Y22682196D01*
X20147514Y22677386D01*
X20151627Y22660967D01*
X20152281Y22658602D01*
X20160104Y22632812D01*
X20160874Y22630482D01*
X20166576Y22614545D01*
X20168453Y22610015D01*
X20175690Y22594714D01*
X20176793Y22592522D01*
X20189498Y22568753D01*
X20190707Y22566619D01*
X20199409Y22552100D01*
X20202133Y22548023D01*
X20212216Y22534428D01*
X20213726Y22532493D01*
X20230823Y22511660D01*
X20232426Y22509802D01*
X20244617Y22496351D01*
X20246309Y22494574D01*
X23110711Y19630172D01*
X23117301Y19622901D01*
X23123147Y19615019D01*
X23128192Y19606601D01*
X23132388Y19597730D01*
X23135694Y19588490D01*
X23138079Y19578971D01*
X23139518Y19569263D01*
X23140000Y19559462D01*
X23140000Y17001227D01*
X23140060Y16998774D01*
X23140951Y16980642D01*
X23141131Y16978195D01*
X23143773Y16951374D01*
X23144073Y16948939D01*
X23146557Y16932196D01*
X23147514Y16927386D01*
X23151627Y16910967D01*
X23152281Y16908602D01*
X23160104Y16882812D01*
X23160874Y16880482D01*
X23166576Y16864545D01*
X23168453Y16860015D01*
X23175690Y16844714D01*
X23176793Y16842522D01*
X23189498Y16818753D01*
X23190707Y16816619D01*
X23199409Y16802100D01*
X23202133Y16798023D01*
X23212216Y16784428D01*
X23213726Y16782493D01*
X23230823Y16761660D01*
X23232426Y16759802D01*
X23244617Y16746351D01*
X23246309Y16744574D01*
X23360711Y16630172D01*
X23367301Y16622901D01*
X23373147Y16615019D01*
X23378192Y16606601D01*
X23382388Y16597730D01*
X23385694Y16588490D01*
X23388079Y16578971D01*
X23389518Y16569263D01*
X23390000Y16559462D01*
X23390000Y16251227D01*
X23390060Y16248774D01*
X23390951Y16230642D01*
X23391131Y16228195D01*
X23393773Y16201374D01*
X23394073Y16198939D01*
X23396557Y16182196D01*
X23397514Y16177386D01*
X23401627Y16160967D01*
X23402281Y16158602D01*
X23410104Y16132812D01*
X23410874Y16130482D01*
X23416576Y16114545D01*
X23418453Y16110015D01*
X23425690Y16094714D01*
X23426793Y16092522D01*
X23439498Y16068753D01*
X23440707Y16066619D01*
X23449409Y16052100D01*
X23452133Y16048023D01*
X23462216Y16034428D01*
X23463726Y16032493D01*
X23480823Y16011660D01*
X23482426Y16009802D01*
X23494617Y15996351D01*
X23496309Y15994574D01*
X24040992Y15449892D01*
X24047812Y15442339D01*
X24053830Y15434132D01*
X24058982Y15425356D01*
X24063216Y15416101D01*
X24066487Y15406465D01*
X24068762Y15396546D01*
X24070017Y15386447D01*
X24070239Y15376272D01*
X24069425Y15366128D01*
X24067010Y15347783D01*
X24066690Y15344528D01*
X24065107Y15320383D01*
X24065000Y15317114D01*
X24065000Y14865538D01*
X24064518Y14855737D01*
X24063079Y14846029D01*
X24060694Y14836510D01*
X24057388Y14827270D01*
X24053192Y14818399D01*
X24048147Y14809981D01*
X24042301Y14802099D01*
X24035711Y14794828D01*
X23746309Y14505426D01*
X23744617Y14503649D01*
X23732426Y14490198D01*
X23730823Y14488340D01*
X23713726Y14467507D01*
X23712216Y14465572D01*
X23702133Y14451977D01*
X23699409Y14447900D01*
X23690707Y14433381D01*
X23689498Y14431247D01*
X23676793Y14407478D01*
X23675690Y14405286D01*
X23668453Y14389985D01*
X23666576Y14385455D01*
X23660874Y14369518D01*
X23660104Y14367188D01*
X23652281Y14341398D01*
X23651627Y14339033D01*
X23647514Y14322614D01*
X23646557Y14317804D01*
X23644073Y14301061D01*
X23643773Y14298626D01*
X23641131Y14271805D01*
X23640951Y14269358D01*
X23640060Y14251226D01*
X23640000Y14248773D01*
X23640000Y14190538D01*
X23639518Y14180737D01*
X23638079Y14171029D01*
X23635694Y14161510D01*
X23632388Y14152270D01*
X23628192Y14143399D01*
X23623147Y14134981D01*
X23617301Y14127099D01*
X23610711Y14119828D01*
X22996309Y13505426D01*
X22994617Y13503649D01*
X22982426Y13490198D01*
X22980823Y13488340D01*
X22963726Y13467507D01*
X22962216Y13465572D01*
X22952133Y13451977D01*
X22949409Y13447900D01*
X22940707Y13433381D01*
X22939498Y13431247D01*
X22926793Y13407478D01*
X22925690Y13405286D01*
X22918453Y13389985D01*
X22916576Y13385455D01*
X22910874Y13369518D01*
X22910104Y13367188D01*
X22902281Y13341398D01*
X22901627Y13339033D01*
X22897514Y13322614D01*
X22896557Y13317804D01*
X22894073Y13301061D01*
X22893773Y13298626D01*
X22891131Y13271805D01*
X22890951Y13269358D01*
X22890060Y13251226D01*
X22890000Y13248773D01*
X22890000Y13035000D01*
X22889518Y13025198D01*
X22888079Y13015491D01*
X22885694Y13005972D01*
X22882388Y12996732D01*
X22878192Y12987860D01*
X22873147Y12979443D01*
X22867301Y12971561D01*
X22860711Y12964289D01*
X22853439Y12957699D01*
X22845557Y12951853D01*
X22837140Y12946808D01*
X22828268Y12942612D01*
X22819028Y12939306D01*
X22809509Y12936921D01*
X22799802Y12935482D01*
X22790000Y12935000D01*
X22682886Y12935000D01*
X22679617Y12934893D01*
X22655472Y12933310D01*
X22652217Y12932990D01*
X22588599Y12924614D01*
X22586443Y12924282D01*
X22571624Y12921670D01*
X22567368Y12920726D01*
X22553887Y12917114D01*
X22549729Y12915803D01*
X22535589Y12910656D01*
X22533556Y12909866D01*
X22473769Y12885101D01*
X22471773Y12884223D01*
X22458135Y12877863D01*
X22454268Y12875850D01*
X22442182Y12868872D01*
X22438505Y12866530D01*
X22426179Y12857899D01*
X22424420Y12856609D01*
X22373079Y12817214D01*
X22371378Y12815849D01*
X22359851Y12806177D01*
X22356637Y12803231D01*
X22346769Y12793363D01*
X22343823Y12790149D01*
X22334151Y12778622D01*
X22332786Y12776921D01*
X22293391Y12725580D01*
X22292101Y12723821D01*
X22283470Y12711495D01*
X22281128Y12707818D01*
X22274150Y12695732D01*
X22272137Y12691865D01*
X22265777Y12678227D01*
X22264899Y12676231D01*
X22240134Y12616444D01*
X22239344Y12614411D01*
X22234197Y12600271D01*
X22232886Y12596113D01*
X22229274Y12582632D01*
X22228330Y12578376D01*
X22225718Y12563557D01*
X22225386Y12561401D01*
X22217010Y12497783D01*
X22216690Y12494528D01*
X22215107Y12470383D01*
X22215000Y12467114D01*
X22215000Y11765538D01*
X22214518Y11755737D01*
X22213079Y11746029D01*
X22210694Y11736510D01*
X22207388Y11727270D01*
X22203192Y11718399D01*
X22198147Y11709981D01*
X22192301Y11702099D01*
X22185711Y11694828D01*
X21630172Y11139289D01*
X21622901Y11132699D01*
X21615019Y11126853D01*
X21606601Y11121808D01*
X21597730Y11117612D01*
X21588490Y11114306D01*
X21578971Y11111921D01*
X21569263Y11110482D01*
X21559462Y11110000D01*
X17690538Y11110000D01*
X17680737Y11110482D01*
X17671029Y11111921D01*
X17661510Y11114306D01*
X17652270Y11117612D01*
X17643399Y11121808D01*
X17634981Y11126853D01*
X17627099Y11132699D01*
X17619828Y11139289D01*
X17255426Y11503691D01*
X17253649Y11505383D01*
X17240198Y11517574D01*
X17238340Y11519177D01*
X17217507Y11536274D01*
X17215572Y11537784D01*
X17201977Y11547867D01*
X17197900Y11550591D01*
X17183381Y11559293D01*
X17181247Y11560502D01*
X17157478Y11573207D01*
X17155286Y11574310D01*
X17139985Y11581547D01*
X17135455Y11583424D01*
X17119518Y11589126D01*
X17117188Y11589896D01*
X17091398Y11597719D01*
X17089033Y11598373D01*
X17072614Y11602486D01*
X17067804Y11603443D01*
X17051061Y11605927D01*
X17048626Y11606227D01*
X17021805Y11608869D01*
X17019358Y11609049D01*
X17001226Y11609940D01*
X16998773Y11610000D01*
X16410000Y11610000D01*
X16400198Y11610482D01*
X16390491Y11611921D01*
X16380972Y11614306D01*
X16371732Y11617612D01*
X16362860Y11621808D01*
X16354443Y11626853D01*
X16346561Y11632699D01*
X16339289Y11639289D01*
X16332699Y11646561D01*
X16326853Y11654443D01*
X16321808Y11662860D01*
X16317612Y11671732D01*
X16314306Y11680972D01*
X16311921Y11690491D01*
X16310482Y11700198D01*
X16310000Y11710000D01*
X16310000Y12610864D01*
X16309893Y12614133D01*
X16308310Y12638278D01*
X16307990Y12641533D01*
X16298549Y12713239D01*
X16298218Y12715395D01*
X16295605Y12730214D01*
X16294661Y12734470D01*
X16291049Y12747951D01*
X16289738Y12752109D01*
X16284591Y12766249D01*
X16283801Y12768282D01*
X16255914Y12835606D01*
X16255036Y12837602D01*
X16248677Y12851240D01*
X16246664Y12855107D01*
X16239686Y12867193D01*
X16237343Y12870870D01*
X16228712Y12883196D01*
X16227422Y12884955D01*
X16183061Y12942768D01*
X16181696Y12944469D01*
X16172024Y12955996D01*
X16169079Y12959210D01*
X16159210Y12969079D01*
X16155996Y12972024D01*
X16144469Y12981696D01*
X16142768Y12983061D01*
X16084955Y13027422D01*
X16083196Y13028712D01*
X16070870Y13037343D01*
X16067193Y13039686D01*
X16055107Y13046664D01*
X16051240Y13048677D01*
X16037602Y13055036D01*
X16035606Y13055914D01*
X15968282Y13083801D01*
X15966249Y13084591D01*
X15952109Y13089738D01*
X15947951Y13091049D01*
X15934470Y13094661D01*
X15930214Y13095605D01*
X15915395Y13098218D01*
X15913239Y13098549D01*
X15841533Y13107990D01*
X15838278Y13108310D01*
X15814133Y13109893D01*
X15810864Y13110000D01*
X15239136Y13110000D01*
X15235867Y13109893D01*
X15211722Y13108310D01*
X15208467Y13107990D01*
X15136761Y13098549D01*
X15134605Y13098218D01*
X15119786Y13095605D01*
X15115530Y13094661D01*
X15102049Y13091049D01*
X15097891Y13089738D01*
X15083751Y13084591D01*
X15081718Y13083801D01*
X15014394Y13055914D01*
X15012398Y13055036D01*
X14998760Y13048677D01*
X14994893Y13046664D01*
X14982807Y13039686D01*
X14979130Y13037343D01*
X14966804Y13028712D01*
X14965045Y13027422D01*
X14907232Y12983061D01*
X14905531Y12981696D01*
X14894004Y12972024D01*
X14890790Y12969079D01*
X14880921Y12959210D01*
X14877976Y12955996D01*
X14868304Y12944469D01*
X14866939Y12942768D01*
X14822578Y12884955D01*
X14821288Y12883196D01*
X14812657Y12870870D01*
X14810314Y12867193D01*
X14803336Y12855107D01*
X14801323Y12851240D01*
X14794964Y12837602D01*
X14794086Y12835606D01*
X14766199Y12768282D01*
X14765409Y12766249D01*
X14760262Y12752109D01*
X14758951Y12747951D01*
X14755339Y12734470D01*
X14754395Y12730214D01*
X14751782Y12715395D01*
X14751451Y12713239D01*
X14742010Y12641533D01*
X14741690Y12638278D01*
X14740107Y12614133D01*
X14740000Y12610864D01*
X14740000Y11389136D01*
X14740107Y11385867D01*
X14741690Y11361722D01*
X14742010Y11358467D01*
X14751451Y11286761D01*
X14751782Y11284605D01*
X14754395Y11269786D01*
X14755339Y11265530D01*
X14758951Y11252049D01*
X14760262Y11247891D01*
X14765409Y11233751D01*
X14766199Y11231718D01*
X14794086Y11164394D01*
X14794964Y11162398D01*
X14801323Y11148760D01*
X14803336Y11144893D01*
X14810314Y11132807D01*
X14812657Y11129130D01*
X14821288Y11116804D01*
X14822578Y11115045D01*
X14866939Y11057232D01*
X14868304Y11055531D01*
X14877976Y11044004D01*
X14880921Y11040790D01*
X14890790Y11030921D01*
X14894004Y11027976D01*
X14905531Y11018304D01*
X14907232Y11016939D01*
X14965045Y10972578D01*
X14966804Y10971288D01*
X14979130Y10962657D01*
X14982807Y10960314D01*
X14994893Y10953336D01*
X14998760Y10951323D01*
X15012398Y10944964D01*
X15014394Y10944086D01*
X15081718Y10916199D01*
X15083751Y10915409D01*
X15097891Y10910262D01*
X15102049Y10908951D01*
X15115530Y10905339D01*
X15119786Y10904395D01*
X15134605Y10901782D01*
X15136761Y10901451D01*
X15208467Y10892010D01*
X15211722Y10891690D01*
X15235867Y10890107D01*
X15239136Y10890000D01*
X15810864Y10890000D01*
X15814133Y10890107D01*
X15838278Y10891690D01*
X15841533Y10892010D01*
X15893474Y10898848D01*
G37*
%LPD*%
%LPC*%
G36*
X23669175Y25987578D02*
X23667099Y25985050D01*
X23652370Y25965853D01*
X23650464Y25963194D01*
X23586878Y25868030D01*
X23585150Y25865253D01*
X23573052Y25844298D01*
X23571510Y25841413D01*
X23520889Y25738763D01*
X23519539Y25735784D01*
X23510279Y25713429D01*
X23509127Y25710368D01*
X23472337Y25601989D01*
X23471388Y25598859D01*
X23465125Y25575487D01*
X23464383Y25572301D01*
X23442054Y25460047D01*
X23441521Y25456820D01*
X23438363Y25432831D01*
X23438042Y25429575D01*
X23430503Y25314551D01*
X23430423Y25312917D01*
X23430027Y25300818D01*
X23430000Y25299182D01*
X23430000Y24700818D01*
X23430027Y24699182D01*
X23430423Y24687083D01*
X23430503Y24685449D01*
X23438042Y24570425D01*
X23438363Y24567169D01*
X23441521Y24543180D01*
X23442054Y24539953D01*
X23464383Y24427699D01*
X23465125Y24424513D01*
X23471388Y24401141D01*
X23472337Y24398011D01*
X23509127Y24289632D01*
X23510279Y24286571D01*
X23519539Y24264216D01*
X23520889Y24261237D01*
X23571510Y24158587D01*
X23573052Y24155702D01*
X23585150Y24134747D01*
X23586878Y24131970D01*
X23650464Y24036806D01*
X23652370Y24034147D01*
X23667099Y24014950D01*
X23669175Y24012422D01*
X23744639Y23926372D01*
X23746875Y23923984D01*
X23763984Y23906875D01*
X23766372Y23904639D01*
X23852422Y23829175D01*
X23854950Y23827099D01*
X23874147Y23812370D01*
X23876806Y23810464D01*
X23971970Y23746878D01*
X23974747Y23745150D01*
X23995702Y23733052D01*
X23998587Y23731510D01*
X24101237Y23680889D01*
X24104216Y23679539D01*
X24126571Y23670279D01*
X24129632Y23669127D01*
X24238011Y23632337D01*
X24241141Y23631388D01*
X24264513Y23625125D01*
X24267699Y23624383D01*
X24379953Y23602054D01*
X24383180Y23601521D01*
X24407169Y23598363D01*
X24410425Y23598042D01*
X24524632Y23590557D01*
X24527902Y23590450D01*
X24552098Y23590450D01*
X24555368Y23590557D01*
X24669575Y23598042D01*
X24672831Y23598363D01*
X24696820Y23601521D01*
X24700047Y23602054D01*
X24812301Y23624383D01*
X24815487Y23625125D01*
X24838859Y23631388D01*
X24841989Y23632337D01*
X24950368Y23669127D01*
X24953429Y23670279D01*
X24975784Y23679539D01*
X24978763Y23680889D01*
X25081413Y23731510D01*
X25084298Y23733052D01*
X25105253Y23745150D01*
X25108030Y23746878D01*
X25203194Y23810464D01*
X25205853Y23812370D01*
X25225050Y23827099D01*
X25227578Y23829175D01*
X25313628Y23904639D01*
X25316016Y23906875D01*
X25333125Y23923984D01*
X25335361Y23926372D01*
X25410825Y24012422D01*
X25412901Y24014950D01*
X25427630Y24034147D01*
X25429536Y24036806D01*
X25493122Y24131970D01*
X25494850Y24134747D01*
X25506948Y24155702D01*
X25508490Y24158587D01*
X25559111Y24261237D01*
X25560461Y24264216D01*
X25569721Y24286571D01*
X25570873Y24289632D01*
X25607663Y24398011D01*
X25608612Y24401141D01*
X25614875Y24424513D01*
X25615617Y24427699D01*
X25637946Y24539953D01*
X25638479Y24543180D01*
X25641637Y24567169D01*
X25641958Y24570425D01*
X25649497Y24685449D01*
X25649577Y24687083D01*
X25649973Y24699182D01*
X25650000Y24700818D01*
X25650000Y25299182D01*
X25649973Y25300818D01*
X25649577Y25312917D01*
X25649497Y25314551D01*
X25641958Y25429575D01*
X25641637Y25432831D01*
X25638479Y25456820D01*
X25637946Y25460047D01*
X25615617Y25572301D01*
X25614875Y25575487D01*
X25608612Y25598859D01*
X25607663Y25601989D01*
X25570873Y25710368D01*
X25569721Y25713429D01*
X25560461Y25735784D01*
X25559111Y25738763D01*
X25508490Y25841413D01*
X25506948Y25844298D01*
X25494850Y25865253D01*
X25493122Y25868030D01*
X25429536Y25963194D01*
X25427630Y25965853D01*
X25412901Y25985050D01*
X25410825Y25987578D01*
X25335361Y26073628D01*
X25333125Y26076016D01*
X25316016Y26093125D01*
X25313628Y26095361D01*
X25227578Y26170825D01*
X25225050Y26172901D01*
X25205853Y26187630D01*
X25203194Y26189536D01*
X25108030Y26253122D01*
X25105253Y26254850D01*
X25084298Y26266948D01*
X25081413Y26268490D01*
X24978763Y26319111D01*
X24975784Y26320461D01*
X24953429Y26329721D01*
X24950368Y26330873D01*
X24841989Y26367663D01*
X24838859Y26368612D01*
X24815487Y26374875D01*
X24812301Y26375617D01*
X24700047Y26397946D01*
X24696820Y26398479D01*
X24672831Y26401637D01*
X24669575Y26401958D01*
X24555368Y26409443D01*
X24552098Y26409550D01*
X24527902Y26409550D01*
X24524632Y26409443D01*
X24410425Y26401958D01*
X24407169Y26401637D01*
X24383180Y26398479D01*
X24379953Y26397946D01*
X24267699Y26375617D01*
X24264513Y26374875D01*
X24241141Y26368612D01*
X24238011Y26367663D01*
X24129632Y26330873D01*
X24126571Y26329721D01*
X24104216Y26320461D01*
X24101237Y26319111D01*
X23998587Y26268490D01*
X23995702Y26266948D01*
X23974747Y26254850D01*
X23971970Y26253122D01*
X23876806Y26189536D01*
X23874147Y26187630D01*
X23854950Y26172901D01*
X23852422Y26170825D01*
X23766372Y26095361D01*
X23763984Y26093125D01*
X23746875Y26076016D01*
X23744639Y26073628D01*
X23669175Y25987578D01*
G37*
%LPD*%
%LPC*%
G36*
X11240000Y16201227D02*
X11240060Y16198774D01*
X11240891Y16181868D01*
X11241371Y16176988D01*
X11243675Y16161459D01*
X11244632Y16156650D01*
X11248446Y16141422D01*
X11249870Y16136729D01*
X11255158Y16121948D01*
X11257035Y16117417D01*
X11263747Y16103226D01*
X11266059Y16098901D01*
X11274129Y16085436D01*
X11276854Y16081358D01*
X11286205Y16068749D01*
X11289316Y16064958D01*
X11299859Y16053327D01*
X11303327Y16049859D01*
X11314958Y16039316D01*
X11318749Y16036205D01*
X11331358Y16026854D01*
X11335436Y16024129D01*
X11348901Y16016059D01*
X11353226Y16013747D01*
X11367417Y16007035D01*
X11371948Y16005158D01*
X11386729Y15999870D01*
X11391422Y15998446D01*
X11406650Y15994632D01*
X11411459Y15993675D01*
X11426988Y15991371D01*
X11431868Y15990891D01*
X11448774Y15990060D01*
X11451227Y15990000D01*
X13048773Y15990000D01*
X13051226Y15990060D01*
X13068132Y15990891D01*
X13073012Y15991371D01*
X13088541Y15993675D01*
X13093350Y15994632D01*
X13108578Y15998446D01*
X13113271Y15999870D01*
X13128052Y16005158D01*
X13132583Y16007035D01*
X13146774Y16013747D01*
X13151099Y16016059D01*
X13164564Y16024129D01*
X13168642Y16026854D01*
X13181251Y16036205D01*
X13185042Y16039316D01*
X13196673Y16049859D01*
X13200141Y16053327D01*
X13210684Y16064958D01*
X13213795Y16068749D01*
X13223146Y16081358D01*
X13225871Y16085436D01*
X13233941Y16098901D01*
X13236253Y16103226D01*
X13242965Y16117417D01*
X13244842Y16121948D01*
X13250130Y16136729D01*
X13251554Y16141422D01*
X13255368Y16156650D01*
X13256325Y16161459D01*
X13258629Y16176988D01*
X13259109Y16181868D01*
X13259940Y16198774D01*
X13260000Y16201227D01*
X13260000Y17798773D01*
X13259940Y17801226D01*
X13259109Y17818132D01*
X13258629Y17823012D01*
X13256325Y17838541D01*
X13255368Y17843350D01*
X13251554Y17858578D01*
X13250130Y17863271D01*
X13244842Y17878052D01*
X13242965Y17882583D01*
X13236253Y17896774D01*
X13233941Y17901099D01*
X13225871Y17914564D01*
X13223146Y17918642D01*
X13213795Y17931251D01*
X13210684Y17935042D01*
X13200141Y17946673D01*
X13196673Y17950141D01*
X13185042Y17960684D01*
X13181251Y17963795D01*
X13168642Y17973146D01*
X13164564Y17975871D01*
X13151099Y17983941D01*
X13146774Y17986253D01*
X13132583Y17992965D01*
X13128052Y17994842D01*
X13113271Y18000130D01*
X13108578Y18001554D01*
X13093350Y18005368D01*
X13088541Y18006325D01*
X13073012Y18008629D01*
X13068132Y18009109D01*
X13051226Y18009940D01*
X13048773Y18010000D01*
X11451227Y18010000D01*
X11448774Y18009940D01*
X11431868Y18009109D01*
X11426988Y18008629D01*
X11411459Y18006325D01*
X11406650Y18005368D01*
X11391422Y18001554D01*
X11386729Y18000130D01*
X11371948Y17994842D01*
X11367417Y17992965D01*
X11353226Y17986253D01*
X11348901Y17983941D01*
X11335436Y17975871D01*
X11331358Y17973146D01*
X11318749Y17963795D01*
X11314958Y17960684D01*
X11303327Y17950141D01*
X11299859Y17946673D01*
X11289316Y17935042D01*
X11286205Y17931251D01*
X11276854Y17918642D01*
X11274129Y17914564D01*
X11266059Y17901099D01*
X11263747Y17896774D01*
X11257035Y17882583D01*
X11255158Y17878052D01*
X11249870Y17863271D01*
X11248446Y17858578D01*
X11244632Y17843350D01*
X11243675Y17838541D01*
X11241371Y17823012D01*
X11240891Y17818132D01*
X11240060Y17801226D01*
X11240000Y17798773D01*
X11240000Y16201227D01*
G37*
%LPD*%
%LPC*%
G36*
X4490000Y12161227D02*
X4490060Y12158774D01*
X4490891Y12141868D01*
X4491371Y12136988D01*
X4493675Y12121459D01*
X4494632Y12116650D01*
X4498446Y12101422D01*
X4499870Y12096729D01*
X4505158Y12081948D01*
X4507035Y12077417D01*
X4513747Y12063226D01*
X4516059Y12058901D01*
X4524129Y12045436D01*
X4526854Y12041358D01*
X4536205Y12028749D01*
X4539316Y12024958D01*
X4549859Y12013327D01*
X4553327Y12009859D01*
X4564958Y11999316D01*
X4568749Y11996205D01*
X4581358Y11986854D01*
X4585436Y11984129D01*
X4598901Y11976059D01*
X4603226Y11973747D01*
X4617417Y11967035D01*
X4621948Y11965158D01*
X4636729Y11959870D01*
X4641422Y11958446D01*
X4656650Y11954632D01*
X4661459Y11953675D01*
X4676988Y11951371D01*
X4681868Y11950891D01*
X4698774Y11950060D01*
X4701227Y11950000D01*
X7298773Y11950000D01*
X7301226Y11950060D01*
X7318132Y11950891D01*
X7323012Y11951371D01*
X7338541Y11953675D01*
X7343350Y11954632D01*
X7358578Y11958446D01*
X7363271Y11959870D01*
X7378052Y11965158D01*
X7382583Y11967035D01*
X7396774Y11973747D01*
X7401099Y11976059D01*
X7414564Y11984129D01*
X7418642Y11986854D01*
X7431251Y11996205D01*
X7435042Y11999316D01*
X7446673Y12009859D01*
X7450141Y12013327D01*
X7460684Y12024958D01*
X7463795Y12028749D01*
X7473146Y12041358D01*
X7475871Y12045436D01*
X7483941Y12058901D01*
X7486253Y12063226D01*
X7492965Y12077417D01*
X7494842Y12081948D01*
X7500130Y12096729D01*
X7501554Y12101422D01*
X7505368Y12116650D01*
X7506325Y12121459D01*
X7508629Y12136988D01*
X7509109Y12141868D01*
X7509940Y12158774D01*
X7510000Y12161227D01*
X7510000Y14758773D01*
X7509940Y14761226D01*
X7509109Y14778132D01*
X7508629Y14783012D01*
X7506325Y14798541D01*
X7505368Y14803350D01*
X7501554Y14818578D01*
X7500130Y14823271D01*
X7494842Y14838052D01*
X7492965Y14842583D01*
X7486253Y14856774D01*
X7483941Y14861099D01*
X7475871Y14874564D01*
X7473146Y14878642D01*
X7463795Y14891251D01*
X7460684Y14895042D01*
X7450141Y14906673D01*
X7446673Y14910141D01*
X7435042Y14920684D01*
X7431251Y14923795D01*
X7418642Y14933146D01*
X7414564Y14935871D01*
X7401099Y14943941D01*
X7396774Y14946253D01*
X7382583Y14952965D01*
X7378052Y14954842D01*
X7363271Y14960130D01*
X7358578Y14961554D01*
X7343350Y14965368D01*
X7338541Y14966325D01*
X7323012Y14968629D01*
X7318132Y14969109D01*
X7301226Y14969940D01*
X7298773Y14970000D01*
X4701227Y14970000D01*
X4698774Y14969940D01*
X4681868Y14969109D01*
X4676988Y14968629D01*
X4661459Y14966325D01*
X4656650Y14965368D01*
X4641422Y14961554D01*
X4636729Y14960130D01*
X4621948Y14954842D01*
X4617417Y14952965D01*
X4603226Y14946253D01*
X4598901Y14943941D01*
X4585436Y14935871D01*
X4581358Y14933146D01*
X4568749Y14923795D01*
X4564958Y14920684D01*
X4553327Y14910141D01*
X4549859Y14906673D01*
X4539316Y14895042D01*
X4536205Y14891251D01*
X4526854Y14878642D01*
X4524129Y14874564D01*
X4516059Y14861099D01*
X4513747Y14856774D01*
X4507035Y14842583D01*
X4505158Y14838052D01*
X4499870Y14823271D01*
X4498446Y14818578D01*
X4494632Y14803350D01*
X4493675Y14798541D01*
X4491371Y14783012D01*
X4490891Y14778132D01*
X4490060Y14761226D01*
X4490000Y14758773D01*
X4490000Y12161227D01*
G37*
%LPD*%
%LPC*%
G36*
X5178758Y27589611D02*
X5179968Y27591746D01*
X5188525Y27607757D01*
X5189629Y27609948D01*
X5259908Y27758542D01*
X5260903Y27760785D01*
X5267850Y27777557D01*
X5268733Y27779847D01*
X5324109Y27934614D01*
X5324879Y27936944D01*
X5330149Y27954316D01*
X5330803Y27956681D01*
X5370743Y28116130D01*
X5371281Y28118524D01*
X5374823Y28136329D01*
X5375242Y28138747D01*
X5399361Y28301343D01*
X5399661Y28303779D01*
X5401441Y28321845D01*
X5401621Y28324292D01*
X5409687Y28488470D01*
X5409747Y28490923D01*
X5409747Y28509077D01*
X5409687Y28511530D01*
X5401621Y28675708D01*
X5401441Y28678155D01*
X5399661Y28696221D01*
X5399361Y28698657D01*
X5375242Y28861253D01*
X5374823Y28863671D01*
X5371281Y28881476D01*
X5370743Y28883870D01*
X5330803Y29043319D01*
X5330149Y29045684D01*
X5324879Y29063056D01*
X5324109Y29065386D01*
X5268733Y29220153D01*
X5267850Y29222443D01*
X5260903Y29239215D01*
X5259908Y29241458D01*
X5189629Y29390052D01*
X5188525Y29392243D01*
X5179968Y29408254D01*
X5178758Y29410389D01*
X5094252Y29551378D01*
X5092940Y29553451D01*
X5082854Y29568546D01*
X5081441Y29570552D01*
X4983522Y29702580D01*
X4982013Y29704514D01*
X4970496Y29718547D01*
X4968893Y29720405D01*
X4858505Y29842200D01*
X4856813Y29843977D01*
X4843977Y29856813D01*
X4842200Y29858505D01*
X4720405Y29968893D01*
X4718547Y29970496D01*
X4704514Y29982013D01*
X4702580Y29983522D01*
X4570552Y30081441D01*
X4568546Y30082854D01*
X4553451Y30092940D01*
X4551378Y30094252D01*
X4410389Y30178758D01*
X4408254Y30179968D01*
X4392243Y30188525D01*
X4390052Y30189629D01*
X4241458Y30259908D01*
X4239215Y30260903D01*
X4222443Y30267850D01*
X4220153Y30268733D01*
X4065386Y30324109D01*
X4063056Y30324879D01*
X4045684Y30330149D01*
X4043319Y30330803D01*
X3883870Y30370743D01*
X3881476Y30371281D01*
X3863671Y30374823D01*
X3861253Y30375242D01*
X3698657Y30399361D01*
X3696221Y30399661D01*
X3678155Y30401441D01*
X3675708Y30401621D01*
X3511530Y30409687D01*
X3509077Y30409747D01*
X3490923Y30409747D01*
X3488470Y30409687D01*
X3324292Y30401621D01*
X3321845Y30401441D01*
X3303779Y30399661D01*
X3301343Y30399361D01*
X3138747Y30375242D01*
X3136329Y30374823D01*
X3118524Y30371281D01*
X3116130Y30370743D01*
X2956681Y30330803D01*
X2954316Y30330149D01*
X2936944Y30324879D01*
X2934614Y30324109D01*
X2779847Y30268733D01*
X2777557Y30267850D01*
X2760785Y30260903D01*
X2758542Y30259908D01*
X2609948Y30189629D01*
X2607757Y30188525D01*
X2591746Y30179968D01*
X2589611Y30178758D01*
X2448622Y30094252D01*
X2446549Y30092940D01*
X2431454Y30082854D01*
X2429448Y30081441D01*
X2297420Y29983522D01*
X2295486Y29982013D01*
X2281453Y29970496D01*
X2279595Y29968893D01*
X2157800Y29858505D01*
X2156023Y29856813D01*
X2143187Y29843977D01*
X2141495Y29842200D01*
X2031107Y29720405D01*
X2029504Y29718547D01*
X2017987Y29704514D01*
X2016478Y29702580D01*
X1918559Y29570552D01*
X1917146Y29568546D01*
X1907060Y29553451D01*
X1905748Y29551378D01*
X1821242Y29410389D01*
X1820032Y29408254D01*
X1811475Y29392243D01*
X1810371Y29390052D01*
X1740092Y29241458D01*
X1739097Y29239215D01*
X1732150Y29222443D01*
X1731267Y29220153D01*
X1675891Y29065386D01*
X1675121Y29063056D01*
X1669851Y29045684D01*
X1669197Y29043319D01*
X1629257Y28883870D01*
X1628719Y28881476D01*
X1625177Y28863671D01*
X1624758Y28861253D01*
X1600639Y28698657D01*
X1600339Y28696221D01*
X1598559Y28678155D01*
X1598379Y28675708D01*
X1590313Y28511530D01*
X1590253Y28509077D01*
X1590253Y28490923D01*
X1590313Y28488470D01*
X1598379Y28324292D01*
X1598559Y28321845D01*
X1600339Y28303779D01*
X1600639Y28301343D01*
X1624758Y28138747D01*
X1625177Y28136329D01*
X1628719Y28118524D01*
X1629257Y28116130D01*
X1669197Y27956681D01*
X1669851Y27954316D01*
X1675121Y27936944D01*
X1675891Y27934614D01*
X1731267Y27779847D01*
X1732150Y27777557D01*
X1739097Y27760785D01*
X1740092Y27758542D01*
X1810371Y27609948D01*
X1811475Y27607757D01*
X1820032Y27591746D01*
X1821242Y27589611D01*
X1905748Y27448622D01*
X1907060Y27446549D01*
X1917146Y27431454D01*
X1918559Y27429448D01*
X2016478Y27297420D01*
X2017987Y27295486D01*
X2029504Y27281453D01*
X2031107Y27279595D01*
X2141495Y27157800D01*
X2143187Y27156023D01*
X2156023Y27143187D01*
X2157800Y27141495D01*
X2279595Y27031107D01*
X2281453Y27029504D01*
X2295486Y27017987D01*
X2297420Y27016478D01*
X2429448Y26918559D01*
X2431454Y26917146D01*
X2446549Y26907060D01*
X2448622Y26905748D01*
X2589611Y26821242D01*
X2591746Y26820032D01*
X2607757Y26811475D01*
X2609948Y26810371D01*
X2758542Y26740092D01*
X2760785Y26739097D01*
X2777557Y26732150D01*
X2779847Y26731267D01*
X2934614Y26675891D01*
X2936944Y26675121D01*
X2954316Y26669851D01*
X2956681Y26669197D01*
X3116130Y26629257D01*
X3118524Y26628719D01*
X3136329Y26625177D01*
X3138747Y26624758D01*
X3301343Y26600639D01*
X3303779Y26600339D01*
X3321845Y26598559D01*
X3324292Y26598379D01*
X3488470Y26590313D01*
X3490923Y26590253D01*
X3509077Y26590253D01*
X3511530Y26590313D01*
X3675708Y26598379D01*
X3678155Y26598559D01*
X3696221Y26600339D01*
X3698657Y26600639D01*
X3861253Y26624758D01*
X3863671Y26625177D01*
X3881476Y26628719D01*
X3883870Y26629257D01*
X4043319Y26669197D01*
X4045684Y26669851D01*
X4063056Y26675121D01*
X4065386Y26675891D01*
X4220153Y26731267D01*
X4222443Y26732150D01*
X4239215Y26739097D01*
X4241458Y26740092D01*
X4390052Y26810371D01*
X4392243Y26811475D01*
X4408254Y26820032D01*
X4410389Y26821242D01*
X4551378Y26905748D01*
X4553451Y26907060D01*
X4568546Y26917146D01*
X4570552Y26918559D01*
X4702580Y27016478D01*
X4704514Y27017987D01*
X4718547Y27029504D01*
X4720405Y27031107D01*
X4842200Y27141495D01*
X4843977Y27143187D01*
X4856813Y27156023D01*
X4858505Y27157800D01*
X4968893Y27279595D01*
X4970496Y27281453D01*
X4982013Y27295486D01*
X4983522Y27297420D01*
X5081441Y27429448D01*
X5082854Y27431454D01*
X5092940Y27446549D01*
X5094252Y27448622D01*
X5178758Y27589611D01*
G37*
%LPD*%
%LPC*%
G36*
X5259908Y2758542D02*
X5260903Y2760785D01*
X5267850Y2777557D01*
X5268733Y2779847D01*
X5324109Y2934614D01*
X5324879Y2936944D01*
X5330149Y2954316D01*
X5330803Y2956681D01*
X5370743Y3116130D01*
X5371281Y3118524D01*
X5374823Y3136329D01*
X5375242Y3138747D01*
X5399361Y3301343D01*
X5399661Y3303779D01*
X5401441Y3321845D01*
X5401621Y3324292D01*
X5409687Y3488470D01*
X5409747Y3490923D01*
X5409747Y3509077D01*
X5409687Y3511530D01*
X5401621Y3675708D01*
X5401441Y3678155D01*
X5399661Y3696221D01*
X5399361Y3698657D01*
X5375242Y3861253D01*
X5374823Y3863671D01*
X5371281Y3881476D01*
X5370743Y3883870D01*
X5330803Y4043319D01*
X5330149Y4045684D01*
X5324879Y4063056D01*
X5324109Y4065386D01*
X5268733Y4220153D01*
X5267850Y4222443D01*
X5260903Y4239215D01*
X5259908Y4241458D01*
X5189629Y4390052D01*
X5188525Y4392243D01*
X5179968Y4408254D01*
X5178758Y4410389D01*
X5094252Y4551378D01*
X5092940Y4553451D01*
X5082854Y4568546D01*
X5081441Y4570552D01*
X4983522Y4702580D01*
X4982013Y4704514D01*
X4970496Y4718547D01*
X4968893Y4720405D01*
X4858505Y4842200D01*
X4856813Y4843977D01*
X4843977Y4856813D01*
X4842200Y4858505D01*
X4720405Y4968893D01*
X4718547Y4970496D01*
X4704514Y4982013D01*
X4702580Y4983522D01*
X4570552Y5081441D01*
X4568546Y5082854D01*
X4553451Y5092940D01*
X4551378Y5094252D01*
X4410389Y5178758D01*
X4408254Y5179968D01*
X4392243Y5188525D01*
X4390052Y5189629D01*
X4241458Y5259908D01*
X4239215Y5260903D01*
X4222443Y5267850D01*
X4220153Y5268733D01*
X4065386Y5324109D01*
X4063056Y5324879D01*
X4045684Y5330149D01*
X4043319Y5330803D01*
X3883870Y5370743D01*
X3881476Y5371281D01*
X3863671Y5374823D01*
X3861253Y5375242D01*
X3698657Y5399361D01*
X3696221Y5399661D01*
X3678155Y5401441D01*
X3675708Y5401621D01*
X3511530Y5409687D01*
X3509077Y5409747D01*
X3490923Y5409747D01*
X3488470Y5409687D01*
X3324292Y5401621D01*
X3321845Y5401441D01*
X3303779Y5399661D01*
X3301343Y5399361D01*
X3138747Y5375242D01*
X3136329Y5374823D01*
X3118524Y5371281D01*
X3116130Y5370743D01*
X2956681Y5330803D01*
X2954316Y5330149D01*
X2936944Y5324879D01*
X2934614Y5324109D01*
X2779847Y5268733D01*
X2777557Y5267850D01*
X2760785Y5260903D01*
X2758542Y5259908D01*
X2609948Y5189629D01*
X2607757Y5188525D01*
X2591746Y5179968D01*
X2589611Y5178758D01*
X2448622Y5094252D01*
X2446549Y5092940D01*
X2431454Y5082854D01*
X2429448Y5081441D01*
X2297420Y4983522D01*
X2295486Y4982013D01*
X2281453Y4970496D01*
X2279595Y4968893D01*
X2157800Y4858505D01*
X2156023Y4856813D01*
X2143187Y4843977D01*
X2141495Y4842200D01*
X2031107Y4720405D01*
X2029504Y4718547D01*
X2017987Y4704514D01*
X2016478Y4702580D01*
X1918559Y4570552D01*
X1917146Y4568546D01*
X1907060Y4553451D01*
X1905748Y4551378D01*
X1821242Y4410389D01*
X1820032Y4408254D01*
X1811475Y4392243D01*
X1810371Y4390052D01*
X1740092Y4241458D01*
X1739097Y4239215D01*
X1732150Y4222443D01*
X1731267Y4220153D01*
X1675891Y4065386D01*
X1675121Y4063056D01*
X1669851Y4045684D01*
X1669197Y4043319D01*
X1629257Y3883870D01*
X1628719Y3881476D01*
X1625177Y3863671D01*
X1624758Y3861253D01*
X1600639Y3698657D01*
X1600339Y3696221D01*
X1598559Y3678155D01*
X1598379Y3675708D01*
X1590313Y3511530D01*
X1590253Y3509077D01*
X1590253Y3490923D01*
X1590313Y3488470D01*
X1598379Y3324292D01*
X1598559Y3321845D01*
X1600339Y3303779D01*
X1600639Y3301343D01*
X1624758Y3138747D01*
X1625177Y3136329D01*
X1628719Y3118524D01*
X1629257Y3116130D01*
X1669197Y2956681D01*
X1669851Y2954316D01*
X1675121Y2936944D01*
X1675891Y2934614D01*
X1731267Y2779847D01*
X1732150Y2777557D01*
X1739097Y2760785D01*
X1740092Y2758542D01*
X1810371Y2609948D01*
X1811475Y2607757D01*
X1820032Y2591746D01*
X1821242Y2589611D01*
X1905748Y2448622D01*
X1907060Y2446549D01*
X1917146Y2431454D01*
X1918559Y2429448D01*
X2016478Y2297420D01*
X2017987Y2295486D01*
X2029504Y2281453D01*
X2031107Y2279595D01*
X2141495Y2157800D01*
X2143187Y2156023D01*
X2156023Y2143187D01*
X2157800Y2141495D01*
X2279595Y2031107D01*
X2281453Y2029504D01*
X2295486Y2017987D01*
X2297420Y2016478D01*
X2429448Y1918559D01*
X2431454Y1917146D01*
X2446549Y1907060D01*
X2448622Y1905748D01*
X2589611Y1821242D01*
X2591746Y1820032D01*
X2607757Y1811475D01*
X2609948Y1810371D01*
X2758542Y1740092D01*
X2760785Y1739097D01*
X2777557Y1732150D01*
X2779847Y1731267D01*
X2934614Y1675891D01*
X2936944Y1675121D01*
X2954316Y1669851D01*
X2956681Y1669197D01*
X3116130Y1629257D01*
X3118524Y1628719D01*
X3136329Y1625177D01*
X3138747Y1624758D01*
X3301343Y1600639D01*
X3303779Y1600339D01*
X3321845Y1598559D01*
X3324292Y1598379D01*
X3488470Y1590313D01*
X3490923Y1590253D01*
X3509077Y1590253D01*
X3511530Y1590313D01*
X3675708Y1598379D01*
X3678155Y1598559D01*
X3696221Y1600339D01*
X3698657Y1600639D01*
X3861253Y1624758D01*
X3863671Y1625177D01*
X3881476Y1628719D01*
X3883870Y1629257D01*
X4043319Y1669197D01*
X4045684Y1669851D01*
X4063056Y1675121D01*
X4065386Y1675891D01*
X4220153Y1731267D01*
X4222443Y1732150D01*
X4239215Y1739097D01*
X4241458Y1740092D01*
X4390052Y1810371D01*
X4392243Y1811475D01*
X4408254Y1820032D01*
X4410389Y1821242D01*
X4551378Y1905748D01*
X4553451Y1907060D01*
X4568546Y1917146D01*
X4570552Y1918559D01*
X4702580Y2016478D01*
X4704514Y2017987D01*
X4718547Y2029504D01*
X4720405Y2031107D01*
X4842200Y2141495D01*
X4843977Y2143187D01*
X4856813Y2156023D01*
X4858505Y2157800D01*
X4968893Y2279595D01*
X4970496Y2281453D01*
X4982013Y2295486D01*
X4983522Y2297420D01*
X5081441Y2429448D01*
X5082854Y2431454D01*
X5092940Y2446549D01*
X5094252Y2448622D01*
X5178758Y2589611D01*
X5179968Y2591746D01*
X5188525Y2607757D01*
X5189629Y2609948D01*
X5259908Y2758542D01*
G37*
%LPD*%
D10*
X31250000Y8500000D02*
X32750000Y8500000D01*
D10*
X24500000Y15500000D02*
X23750000Y16250000D01*
D10*
X23750000Y16250000D02*
X23750000Y16750000D01*
D10*
X23750000Y16750000D02*
X23500000Y17000000D01*
D10*
X23500000Y17000000D02*
X23500000Y19750000D01*
D10*
X23500000Y19750000D02*
X20500000Y22750000D01*
D10*
X20500000Y22750000D02*
X20500000Y23750000D01*
D10*
X20500000Y23750000D02*
X20250000Y24000000D01*
D10*
X23250000Y12500000D02*
X23250000Y13250000D01*
D10*
X23250000Y13250000D02*
X24000000Y14000000D01*
D10*
X24000000Y14000000D02*
X24000000Y14250000D01*
D10*
X24000000Y14250000D02*
X24500000Y14750000D01*
D10*
X16000000Y11250000D02*
X17000000Y11250000D01*
D10*
X17000000Y11250000D02*
X17500000Y10750000D01*
D10*
X17500000Y10750000D02*
X21750000Y10750000D01*
D10*
X21750000Y10750000D02*
X22500000Y11500000D01*
D10*
X24500000Y17250000D02*
X24500000Y17500000D01*
D10*
X24500000Y17500000D02*
X24000000Y18000000D01*
D10*
X24000000Y18000000D02*
X24000000Y21000000D01*
D10*
X24000000Y21000000D02*
X23750000Y21250000D01*
D10*
X23750000Y21250000D02*
X23750000Y22750000D01*
D10*
X23750000Y22750000D02*
X22500000Y24000000D01*
D11*
X28500000Y16750000D02*
X25500000Y16750000D01*
D10*
X35250000Y9500000D02*
X35250000Y9750000D01*
D10*
X35250000Y9750000D02*
X36250000Y10750000D01*
D10*
X36250000Y10750000D02*
X36250000Y11750000D01*
D10*
X36250000Y11750000D02*
X36750000Y12250000D01*
D10*
X21062500Y12000000D02*
X21769607Y12707107D01*
D10*
X18475000Y12000000D02*
X19475000Y12000000D01*
D10*
X29062500Y9000000D02*
X29769607Y9707107D01*
D12*
X21769607Y12707107D03*
D12*
X19475000Y12000000D03*
D12*
X29769607Y9707107D03*
D13*
X6000000Y13460000D03*
D14*
X6000000Y18540000D03*
D13*
X38000000Y13460000D03*
D14*
X38000000Y18540000D03*
D15*
X19460000Y25000000D03*
D16*
X22000000Y25000000D03*
D16*
X24540000Y25000000D03*
D17*
X12250000Y17000000D03*
D18*
X14750000Y17000000D03*
D17*
X29250000Y17000000D03*
D18*
X31750000Y17000000D03*
%LPD*%
G36*
X25468750Y14550000D02*
X24531250Y14550000D01*
X24464928Y14558732D01*
X24403125Y14584331D01*
X24350054Y14625054D01*
X24309331Y14678125D01*
X24283732Y14739928D01*
X24275000Y14806250D01*
X24275000Y15318750D01*
X24283732Y15385072D01*
X24309331Y15446875D01*
X24350054Y15499946D01*
X24403125Y15540669D01*
X24464928Y15566268D01*
X24531250Y15575000D01*
X25468750Y15575000D01*
X25535072Y15566268D01*
X25596875Y15540669D01*
X25649946Y15499946D01*
X25690669Y15446875D01*
X25716268Y15385072D01*
X25725000Y15318750D01*
X25725000Y14806250D01*
X25716268Y14739928D01*
X25690669Y14678125D01*
X25649946Y14625054D01*
X25596875Y14584331D01*
X25535072Y14558732D01*
X25468750Y14550000D01*
G37*
%LPD*%
%LPD*%
G36*
X25468750Y16425000D02*
X24531250Y16425000D01*
X24464928Y16433732D01*
X24403125Y16459331D01*
X24350054Y16500054D01*
X24309331Y16553125D01*
X24283732Y16614928D01*
X24275000Y16681250D01*
X24275000Y17193750D01*
X24283732Y17260072D01*
X24309331Y17321875D01*
X24350054Y17374946D01*
X24403125Y17415669D01*
X24464928Y17441268D01*
X24531250Y17450000D01*
X25468750Y17450000D01*
X25535072Y17441268D01*
X25596875Y17415669D01*
X25649946Y17374946D01*
X25690669Y17321875D01*
X25716268Y17260072D01*
X25725000Y17193750D01*
X25725000Y16681250D01*
X25716268Y16614928D01*
X25690669Y16553125D01*
X25649946Y16500054D01*
X25596875Y16459331D01*
X25535072Y16433732D01*
X25468750Y16425000D01*
G37*
%LPD*%
%LPD*%
G36*
X21318750Y11275000D02*
X20806250Y11275000D01*
X20739928Y11283732D01*
X20678125Y11309331D01*
X20625054Y11350054D01*
X20584331Y11403125D01*
X20558732Y11464928D01*
X20550000Y11531250D01*
X20550000Y12468750D01*
X20558732Y12535072D01*
X20584331Y12596875D01*
X20625054Y12649946D01*
X20678125Y12690669D01*
X20739928Y12716268D01*
X20806250Y12725000D01*
X21318750Y12725000D01*
X21385072Y12716268D01*
X21446875Y12690669D01*
X21499946Y12649946D01*
X21540669Y12596875D01*
X21566268Y12535072D01*
X21575000Y12468750D01*
X21575000Y11531250D01*
X21566268Y11464928D01*
X21540669Y11403125D01*
X21499946Y11350054D01*
X21446875Y11309331D01*
X21385072Y11283732D01*
X21318750Y11275000D01*
G37*
%LPD*%
%LPD*%
G36*
X23193750Y11275000D02*
X22681250Y11275000D01*
X22614928Y11283732D01*
X22553125Y11309331D01*
X22500054Y11350054D01*
X22459331Y11403125D01*
X22433732Y11464928D01*
X22425000Y11531250D01*
X22425000Y12468750D01*
X22433732Y12535072D01*
X22459331Y12596875D01*
X22500054Y12649946D01*
X22553125Y12690669D01*
X22614928Y12716268D01*
X22681250Y12725000D01*
X23193750Y12725000D01*
X23260072Y12716268D01*
X23321875Y12690669D01*
X23374946Y12649946D01*
X23415669Y12596875D01*
X23441268Y12535072D01*
X23450000Y12468750D01*
X23450000Y11531250D01*
X23441268Y11464928D01*
X23415669Y11403125D01*
X23374946Y11350054D01*
X23321875Y11309331D01*
X23260072Y11283732D01*
X23193750Y11275000D01*
G37*
%LPD*%
%LPD*%
G36*
X15812500Y11100000D02*
X15237500Y11100000D01*
X15163090Y11109796D01*
X15093750Y11138518D01*
X15034207Y11184207D01*
X14988518Y11243750D01*
X14959796Y11313090D01*
X14950000Y11387500D01*
X14950000Y12612500D01*
X14959796Y12686910D01*
X14988518Y12756250D01*
X15034207Y12815793D01*
X15093750Y12861482D01*
X15163090Y12890204D01*
X15237500Y12900000D01*
X15812500Y12900000D01*
X15886910Y12890204D01*
X15956250Y12861482D01*
X16015793Y12815793D01*
X16061482Y12756250D01*
X16090204Y12686910D01*
X16100000Y12612500D01*
X16100000Y11387500D01*
X16090204Y11313090D01*
X16061482Y11243750D01*
X16015793Y11184207D01*
X15956250Y11138518D01*
X15886910Y11109796D01*
X15812500Y11100000D01*
G37*
%LPD*%
%LPD*%
G36*
X18762500Y11100000D02*
X18187500Y11100000D01*
X18113090Y11109796D01*
X18043750Y11138518D01*
X17984207Y11184207D01*
X17938518Y11243750D01*
X17909796Y11313090D01*
X17900000Y11387500D01*
X17900000Y12612500D01*
X17909796Y12686910D01*
X17938518Y12756250D01*
X17984207Y12815793D01*
X18043750Y12861482D01*
X18113090Y12890204D01*
X18187500Y12900000D01*
X18762500Y12900000D01*
X18836910Y12890204D01*
X18906250Y12861482D01*
X18965793Y12815793D01*
X19011482Y12756250D01*
X19040204Y12686910D01*
X19050000Y12612500D01*
X19050000Y11387500D01*
X19040204Y11313090D01*
X19011482Y11243750D01*
X18965793Y11184207D01*
X18906250Y11138518D01*
X18836910Y11109796D01*
X18762500Y11100000D01*
G37*
%LPD*%
%LPD*%
G36*
X29318750Y8275000D02*
X28806250Y8275000D01*
X28739928Y8283732D01*
X28678125Y8309331D01*
X28625054Y8350054D01*
X28584331Y8403125D01*
X28558732Y8464928D01*
X28550000Y8531250D01*
X28550000Y9468750D01*
X28558732Y9535072D01*
X28584331Y9596875D01*
X28625054Y9649946D01*
X28678125Y9690669D01*
X28739928Y9716268D01*
X28806250Y9725000D01*
X29318750Y9725000D01*
X29385072Y9716268D01*
X29446875Y9690669D01*
X29499946Y9649946D01*
X29540669Y9596875D01*
X29566268Y9535072D01*
X29575000Y9468750D01*
X29575000Y8531250D01*
X29566268Y8464928D01*
X29540669Y8403125D01*
X29499946Y8350054D01*
X29446875Y8309331D01*
X29385072Y8283732D01*
X29318750Y8275000D01*
G37*
%LPD*%
%LPD*%
G36*
X31193750Y8275000D02*
X30681250Y8275000D01*
X30614928Y8283732D01*
X30553125Y8309331D01*
X30500054Y8350054D01*
X30459331Y8403125D01*
X30433732Y8464928D01*
X30425000Y8531250D01*
X30425000Y9468750D01*
X30433732Y9535072D01*
X30459331Y9596875D01*
X30500054Y9649946D01*
X30553125Y9690669D01*
X30614928Y9716268D01*
X30681250Y9725000D01*
X31193750Y9725000D01*
X31260072Y9716268D01*
X31321875Y9690669D01*
X31374946Y9649946D01*
X31415669Y9596875D01*
X31441268Y9535072D01*
X31450000Y9468750D01*
X31450000Y8531250D01*
X31441268Y8464928D01*
X31415669Y8403125D01*
X31374946Y8350054D01*
X31321875Y8309331D01*
X31260072Y8283732D01*
X31193750Y8275000D01*
G37*
%LPD*%
%LPD*%
G36*
X33318750Y8275000D02*
X32806250Y8275000D01*
X32739928Y8283732D01*
X32678125Y8309331D01*
X32625054Y8350054D01*
X32584331Y8403125D01*
X32558732Y8464928D01*
X32550000Y8531250D01*
X32550000Y9468750D01*
X32558732Y9535072D01*
X32584331Y9596875D01*
X32625054Y9649946D01*
X32678125Y9690669D01*
X32739928Y9716268D01*
X32806250Y9725000D01*
X33318750Y9725000D01*
X33385072Y9716268D01*
X33446875Y9690669D01*
X33499946Y9649946D01*
X33540669Y9596875D01*
X33566268Y9535072D01*
X33575000Y9468750D01*
X33575000Y8531250D01*
X33566268Y8464928D01*
X33540669Y8403125D01*
X33499946Y8350054D01*
X33446875Y8309331D01*
X33385072Y8283732D01*
X33318750Y8275000D01*
G37*
%LPD*%
%LPD*%
G36*
X35193750Y8275000D02*
X34681250Y8275000D01*
X34614928Y8283732D01*
X34553125Y8309331D01*
X34500054Y8350054D01*
X34459331Y8403125D01*
X34433732Y8464928D01*
X34425000Y8531250D01*
X34425000Y9468750D01*
X34433732Y9535072D01*
X34459331Y9596875D01*
X34500054Y9649946D01*
X34553125Y9690669D01*
X34614928Y9716268D01*
X34681250Y9725000D01*
X35193750Y9725000D01*
X35260072Y9716268D01*
X35321875Y9690669D01*
X35374946Y9649946D01*
X35415669Y9596875D01*
X35441268Y9535072D01*
X35450000Y9468750D01*
X35450000Y8531250D01*
X35441268Y8464928D01*
X35415669Y8403125D01*
X35374946Y8350054D01*
X35321875Y8309331D01*
X35260072Y8283732D01*
X35193750Y8275000D01*
G37*
%LPD*%
M02*
